<?xml version="1.0" standalone="no"?>
<!DOCTYPE svg PUBLIC "-//W3C//DTD SVG 20010904//EN"
 "http://www.w3.org/TR/2001/REC-SVG-20010904/DTD/svg10.dtd">
<svg version="1.0" xmlns="http://www.w3.org/2000/svg"
 width="512.000000pt" height="512.000000pt" viewBox="0 0 512.000000 512.000000"
 preserveAspectRatio="xMidYMid meet">
<metadata>
Created by potrace 1.14, written by Peter Selinger 2001-2017
</metadata>
<g transform="translate(0.000000,512.000000) scale(0.100000,-0.100000)"
fill="#000000" stroke="none">
<path d="M2320 5109 c-36 -5 -83 -11 -105 -14 -22 -3 -58 -8 -80 -11 -21 -3
-69 -12 -105 -21 -36 -8 -73 -16 -83 -18 -38 -8 -197 -59 -287 -92 -423 -157
-833 -459 -1116 -823 -301 -385 -479 -831 -532 -1330 -9 -87 -9 -405 1 -505
11 -116 39 -270 73 -405 2 -8 8 -35 14 -60 6 -25 15 -49 21 -55 5 -5 9 -16 9
-25 0 -28 98 -264 154 -373 77 -149 214 -360 280 -434 6 -6 29 -33 51 -60 59
-71 220 -232 301 -300 280 -236 629 -419 984 -515 101 -27 99 -26 230 -49 100
-17 161 -19 460 -18 340 1 347 1 484 29 111 24 234 56 351 94 6 2 13 4 17 5
16 3 175 73 257 113 120 58 346 193 381 228 3 3 34 27 70 55 102 78 108 84
220 195 126 126 172 177 248 278 250 334 415 713 482 1106 20 120 21 153 17
495 -4 351 -5 371 -30 481 -95 413 -251 743 -510 1075 -66 85 -273 298 -346
355 -24 19 -48 40 -55 45 -55 50 -232 171 -336 230 -300 168 -595 265 -975
320 -65 10 -474 12 -545 4z"/>
</g>
</svg>
