<svg width="866" height="261" xmlns="http://www.w3.org/2000/svg" xmlns:xlink="http://www.w3.org/1999/xlink" overflow="hidden"><defs><clipPath id="clip0"><path d="M501.5 365.5 501.5 526.5 662.5 526.5 662.5 365.5ZM76 269 942 269 942 530 76 530Z" fill-rule="evenodd" clip-rule="evenodd"/></clipPath></defs><g transform="translate(-76 -269)"><rect x="0" y="0" width="163" height="112" stroke="#000000" stroke-miterlimit="8" stroke-dasharray="4 3" fill="none" transform="matrix(-1 0 0 1 248.5 397.5)"/><rect x="0" y="0" width="29" height="20" stroke="#000000" stroke-width="2" stroke-miterlimit="8" fill="#B2B2B2" transform="matrix(-1 0 0 1 256 384)"/><rect x="0" y="0" width="29" height="20" stroke="#000000" stroke-width="2" stroke-miterlimit="8" fill="#B2B2B2" transform="matrix(-1 0 0 1 107 438)"/><path d="M0 0 0.000104987 46" stroke="#000000" stroke-width="2" stroke-linejoin="round" stroke-miterlimit="10" fill="none" fill-rule="evenodd" transform="matrix(-1 0 0 1 238 404)"/><path d="M0 0 131 0.000104987" stroke="#000000" stroke-width="2" stroke-linejoin="round" stroke-miterlimit="10" fill="none" fill-rule="evenodd" transform="matrix(-1 0 0 1 238 450)"/><path d="M168 502 168 450" stroke="#000000" stroke-width="2" stroke-linejoin="round" stroke-miterlimit="10" fill="none" fill-rule="evenodd"/><path d="M0 59.5C-4.96522e-15 26.6391 17.4609-7.57514e-15 39-1.51503e-14 60.5391-3.03006e-14 78 26.6391 78 59.5 78 92.3609 60.5391 119 39 119 17.4609 119-2.48261e-14 92.3609 0 59.5Z" stroke="#000000" stroke-linejoin="round" stroke-miterlimit="10" stroke-dasharray="4 3" fill="none" fill-rule="evenodd" transform="matrix(-1 0 0 1 471.5 390.5)"/><path d="M0 59.5C-4.96522e-15 26.6391 17.4609-7.57514e-15 39-1.51503e-14 60.5391-3.03006e-14 78 26.6391 78 59.5 78 92.3609 60.5391 119 39 119 17.4609 119-2.48261e-14 92.3609 0 59.5Z" stroke="#000000" stroke-linejoin="round" stroke-miterlimit="10" stroke-dasharray="4 3" fill="none" fill-rule="evenodd" transform="matrix(-1 0 0 1 358.5 390.5)"/><path d="M0 3C-4.45597e-16 1.34315 1.567 -3.8194e-16 3.5 -7.6388e-16 5.433-1.52776e-15 7 1.34315 7 3 7 4.65685 5.433 6 3.5 6 1.567 6-2.22798e-15 4.65685 0 3Z" stroke="#000000" stroke-linejoin="round" stroke-miterlimit="10" fill-rule="evenodd" transform="matrix(-1 0 0 1 447.5 415.5)"/><path d="M0 3C-3.8194e-16 1.34315 1.34315 -3.8194e-16 3 -7.6388e-16 4.65685-1.52776e-15 6 1.34315 6 3 6 4.65685 4.65685 6 3 6 1.34315 6-1.9097e-15 4.65685 0 3Z" stroke="#000000" stroke-linejoin="round" stroke-miterlimit="10" fill-rule="evenodd" transform="matrix(-1 0 0 1 443.5 447.5)"/><path d="M0 3C-3.8194e-16 1.34315 1.34315 -3.8194e-16 3 -7.6388e-16 4.65685-1.52776e-15 6 1.34315 6 3 6 4.65685 4.65685 6 3 6 1.34315 6-1.9097e-15 4.65685 0 3Z" stroke="#000000" stroke-linejoin="round" stroke-miterlimit="10" fill-rule="evenodd" transform="matrix(-1 0 0 1 437.5 477.5)"/><path d="M0 3C-3.8194e-16 1.34315 1.34315 -3.8194e-16 3 -7.6388e-16 4.65685-1.52776e-15 6 1.34315 6 3 6 4.65685 4.65685 6 3 6 1.34315 6-1.9097e-15 4.65685 0 3Z" stroke="#000000" stroke-linejoin="round" stroke-miterlimit="10" fill-rule="evenodd" transform="matrix(-1 0 0 1 423.5 428.5)"/><path d="M0 3C-4.45597e-16 1.34315 1.567 -3.8194e-16 3.5 -7.6388e-16 5.433-1.52776e-15 7 1.34315 7 3 7 4.65685 5.433 6 3.5 6 1.567 6-2.22798e-15 4.65685 0 3Z" stroke="#000000" stroke-linejoin="round" stroke-miterlimit="10" fill-rule="evenodd" transform="matrix(-1 0 0 1 417.5 465.5)"/><path d="M0 3C-4.45597e-16 1.34315 1.567 -3.8194e-16 3.5 -7.6388e-16 5.433-1.52776e-15 7 1.34315 7 3 7 4.65685 5.433 6 3.5 6 1.567 6-2.22798e-15 4.65685 0 3Z" stroke="#000000" stroke-linejoin="round" stroke-miterlimit="10" fill-rule="evenodd" transform="matrix(-1 0 0 1 309.5 415.5)"/><path d="M0 3C-3.8194e-16 1.34315 1.34315 -3.8194e-16 3 -7.6388e-16 4.65685-1.52776e-15 6 1.34315 6 3 6 4.65685 4.65685 6 3 6 1.34315 6-1.9097e-15 4.65685 0 3Z" stroke="#000000" stroke-linejoin="round" stroke-miterlimit="10" fill-rule="evenodd" transform="matrix(-1 0 0 1 337.5 430.5)"/><path d="M0 3C-4.45597e-16 1.34315 1.567 -3.8194e-16 3.5 -7.6388e-16 5.433-1.52776e-15 7 1.34315 7 3 7 4.65685 5.433 6 3.5 6 1.567 6-2.22798e-15 4.65685 0 3Z" stroke="#000000" stroke-linejoin="round" stroke-miterlimit="10" fill-rule="evenodd" transform="matrix(-1 0 0 1 309.5 452.5)"/><path d="M0 3C-3.8194e-16 1.34315 1.34315 -3.8194e-16 3 -7.6388e-16 4.65685-1.52776e-15 6 1.34315 6 3 6 4.65685 4.65685 6 3 6 1.34315 6-1.9097e-15 4.65685 0 3Z" stroke="#000000" stroke-linejoin="round" stroke-miterlimit="10" fill-rule="evenodd" transform="matrix(-1 0 0 1 322.5 459.5)"/><path d="M0 3C-3.8194e-16 1.34315 1.34315 -3.8194e-16 3 -7.6388e-16 4.65685-1.52776e-15 6 1.34315 6 3 6 4.65685 4.65685 6 3 6 1.34315 6-1.9097e-15 4.65685 0 3Z" stroke="#000000" stroke-linejoin="round" stroke-miterlimit="10" fill-rule="evenodd" transform="matrix(-1 0 0 1 312.5 473.5)"/><path d="M0 0 134 0" stroke="#000000" stroke-width="2.66667" stroke-linejoin="round" stroke-miterlimit="10" fill="none" fill-rule="evenodd" transform="matrix(-1 0 0 1 443.5 418.5)"/><path d="M0 0 3 29" stroke="#000000" stroke-width="2" stroke-linejoin="round" stroke-miterlimit="10" fill="none" fill-rule="evenodd" transform="matrix(-1 0 0 1 443 421)"/><path d="M0 0 5 27" stroke="#000000" stroke-width="2" stroke-linejoin="round" stroke-miterlimit="10" fill="none" fill-rule="evenodd" transform="matrix(-1 0 0 1 440 452)"/><path d="M0 0 26 17" stroke="#000000" stroke-width="2" stroke-linejoin="round" stroke-miterlimit="10" fill="none" fill-rule="evenodd" transform="matrix(-1 0 0 1 440 450)"/><path d="M0 19 18 0" stroke="#000000" stroke-width="2" stroke-linejoin="round" stroke-miterlimit="10" fill="none" fill-rule="evenodd" transform="matrix(-1 0 0 1 440 431)"/><path d="M0 0 25 19" stroke="#000000" stroke-width="2" stroke-linejoin="round" stroke-miterlimit="10" fill="none" fill-rule="evenodd" transform="matrix(-1 0 0 1 331 434)"/><path d="M0 0 1 35" stroke="#000000" stroke-width="2" stroke-linejoin="round" stroke-miterlimit="10" fill="none" fill-rule="evenodd" transform="matrix(-1 0 0 1 306 419)"/><path d="M14 0 0 7" stroke="#000000" stroke-width="2" stroke-linejoin="round" stroke-miterlimit="10" fill="none" fill-rule="evenodd" transform="matrix(-1 0 0 1 320 454)"/><path d="M317 464 309 479" stroke="#000000" stroke-width="2" stroke-linejoin="round" stroke-miterlimit="10" fill="none" fill-rule="evenodd"/><rect x="698.5" y="372.5" width="243" height="143" stroke="#000000" stroke-miterlimit="8" fill="#EDEDED"/><rect x="77" y="275" width="173" height="67" fill="#CCCCFF"/><text font-family="Arial,Arial_MSFontService,sans-serif" font-weight="400" font-size="24" transform="translate(138 302)">Total</text><text font-family="Arial,Arial_MSFontService,sans-serif" font-weight="400" font-size="24" transform="translate(106 331)">Wirelength</text><rect x="297" y="275" width="155" height="67" fill="#CCCCFF"/><text font-family="Arial,Arial_MSFontService,sans-serif" font-weight="400" font-size="24" transform="translate(318.167 302)">Number of</text><text font-family="Arial,Arial_MSFontService,sans-serif" font-weight="400" font-size="24" transform="translate(327.5 331)">Cut Nets</text><rect x="498" y="275" width="181" height="67" fill="#CCCCFF"/><text font-family="Arial,Arial_MSFontService,sans-serif" font-weight="400" font-size="24" transform="translate(563.98 302)">Wire</text><text font-family="Arial,Arial_MSFontService,sans-serif" font-weight="400" font-size="24" transform="translate(527.98 331)">Congestion</text><rect x="750" y="273" width="150" height="67" fill="#CCCCFF"/><text font-family="Arial,Arial_MSFontService,sans-serif" font-weight="400" font-size="24" transform="translate(791.917 300)">Signal</text><text font-family="Arial,Arial_MSFontService,sans-serif" font-weight="400" font-size="24" transform="translate(794.583 329)">Delay</text><rect x="912.5" y="430.5" width="12" height="27" stroke="#000000" stroke-miterlimit="8" fill="#333333"/><rect x="712.5" y="430.5" width="12" height="28" stroke="#000000" stroke-miterlimit="8" fill="#333333"/><rect x="0" y="0" width="30" height="20" stroke="#000000" stroke-width="2" stroke-miterlimit="8" fill="#B2B2B2" transform="matrix(-1 0 0 1 182 496)"/><path d="M0 0 35 20" stroke="#000000" stroke-width="2.66667" stroke-linejoin="round" stroke-miterlimit="10" fill="none" fill-rule="evenodd" transform="matrix(1 0 0 -1 723.5 443.5)"/><path d="M779.5 422.5 806.5 459.5" stroke="#000000" stroke-width="2.66667" stroke-linejoin="round" stroke-miterlimit="10" fill="none" fill-rule="evenodd"/><path d="M0 0 28 34" stroke="#000000" stroke-width="2.66667" stroke-linejoin="round" stroke-miterlimit="10" fill="none" fill-rule="evenodd" transform="matrix(1 0 0 -1 830.5 465.5)"/><path d="M889.5 426.5 911.5 442.5" stroke="#000000" stroke-width="2.66667" stroke-linejoin="round" stroke-miterlimit="10" fill="none" fill-rule="evenodd"/><path d="M741.5 405.5 758.5 405.5C767.889 405.5 775.5 413.559 775.5 423.5 775.5 433.441 767.889 441.5 758.5 441.5L741.5 441.5Z" stroke="#000000" stroke-width="2.66667" stroke-miterlimit="8" fill="#C0C0C0" fill-rule="evenodd"/><path d="M779 420.5C780.933 420.5 782.5 421.843 782.5 423.5 782.5 425.157 780.933 426.5 779 426.5 777.067 426.5 775.5 425.157 775.5 423.5 775.5 421.843 777.067 420.5 779 420.5Z" stroke="#000000" stroke-width="2.66667" stroke-linejoin="round" stroke-miterlimit="10" fill="#C0C0C0" fill-rule="evenodd"/><path d="M854.5 409.5 871.5 409.5C880.889 409.5 888.5 417.559 888.5 427.5 888.5 437.441 880.889 445.5 871.5 445.5L854.5 445.5Z" stroke="#000000" stroke-width="2.66667" stroke-miterlimit="8" fill="#C0C0C0" fill-rule="evenodd"/><path d="M892 424.5C893.933 424.5 895.5 426.067 895.5 428 895.5 429.933 893.933 431.5 892 431.5 890.067 431.5 888.5 429.933 888.5 428 888.5 426.067 890.067 424.5 892 424.5Z" stroke="#000000" stroke-width="2.66667" stroke-linejoin="round" stroke-miterlimit="10" fill="#C0C0C0" fill-rule="evenodd"/><path d="M803.5 446.5 820.5 446.5C829.889 446.5 837.5 454.335 837.5 464 837.5 473.665 829.889 481.5 820.5 481.5L803.5 481.5Z" stroke="#000000" stroke-width="2.66667" stroke-miterlimit="8" fill="#C0C0C0" fill-rule="evenodd"/><path d="M841 460.5C842.933 460.5 844.5 462.067 844.5 464 844.5 465.933 842.933 467.5 841 467.5 839.067 467.5 837.5 465.933 837.5 464 837.5 462.067 839.067 460.5 841 460.5Z" stroke="#000000" stroke-width="2.66667" stroke-linejoin="round" stroke-miterlimit="10" fill="#C0C0C0" fill-rule="evenodd"/><path d="M319.5 461.5 413.5 468.5" stroke="#000000" stroke-width="2.66667" stroke-linejoin="round" stroke-miterlimit="10" fill="none" fill-rule="evenodd"/><path d="M376 380 376 526" stroke="#000000" stroke-width="2" stroke-linejoin="round" stroke-miterlimit="10" stroke-dasharray="8 6" fill="none" fill-rule="evenodd"/><path d="M0 0 85 2" stroke="#000000" stroke-width="2.66667" stroke-linejoin="round" stroke-miterlimit="10" fill="none" fill-rule="evenodd" transform="matrix(1 0 0 -1 335.5 433.5)"/><g clip-path="url(#clip0)"><rect x="504.167" y="368.167" width="161" height="161" fill="#FFFFFF"/><path d="M504.667 528.667 664.667 528.667 664.667 368.667 504.667 368.667ZM503.667 529.667 503.667 367.667 665.667 367.667 665.667 529.667Z" fill="#FFFFFF" fill-rule="evenodd"/></g><rect x="501.5" y="365.5" width="161" height="161" stroke="#969696" stroke-miterlimit="8" fill="#EAEAEA"/><path d="M566.5 525.5 566.5 365.5" stroke="#808080" stroke-linejoin="round" stroke-miterlimit="10" stroke-dasharray="1 1" fill="none" fill-rule="evenodd"/><path d="M598.5 526.5 598.5 366.5" stroke="#808080" stroke-linejoin="round" stroke-miterlimit="10" stroke-dasharray="1 1" fill="none" fill-rule="evenodd"/><path d="M533.5 526.5 533.5 366.5" stroke="#808080" stroke-linejoin="round" stroke-miterlimit="10" stroke-dasharray="1 1" fill="none" fill-rule="evenodd"/><path d="M502.5 494.5 662.5 494.5" stroke="#808080" stroke-linejoin="round" stroke-miterlimit="10" stroke-dasharray="1 1" fill="none" fill-rule="evenodd"/><path d="M630.5 525.5 630.5 365.5" stroke="#808080" stroke-linejoin="round" stroke-miterlimit="10" stroke-dasharray="1 1" fill="none" fill-rule="evenodd"/><path d="M502.5 462.5 662.5 462.5" stroke="#808080" stroke-linejoin="round" stroke-miterlimit="10" stroke-dasharray="1 1" fill="none" fill-rule="evenodd"/><path d="M502.5 430.5 662.5 430.5" stroke="#808080" stroke-linejoin="round" stroke-miterlimit="10" stroke-dasharray="1 1" fill="none" fill-rule="evenodd"/><path d="M502.5 398.5 662.5 398.5" stroke="#808080" stroke-linejoin="round" stroke-miterlimit="10" stroke-dasharray="1 1" fill="none" fill-rule="evenodd"/><path d="M595.5 437.5 634.5 437.5" stroke="#000000" stroke-width="2.66667" stroke-linejoin="round" stroke-miterlimit="10" fill="none" fill-rule="evenodd"/><path d="M595.5 446.5 634.5 446.5" stroke="#000000" stroke-width="2.66667" stroke-linejoin="round" stroke-miterlimit="10" fill="none" fill-rule="evenodd"/><path d="M595.5 455.5 634.5 455.5" stroke="#000000" stroke-width="2.66667" stroke-linejoin="round" stroke-miterlimit="10" fill="none" fill-rule="evenodd"/><path d="M604.5 427.5 604.5 465.5" stroke="#000000" stroke-width="2.66667" stroke-linejoin="round" stroke-miterlimit="10" fill="none" fill-rule="evenodd"/><path d="M625.5 427.5 625.5 465.5" stroke="#000000" stroke-width="2.66667" stroke-linejoin="round" stroke-miterlimit="10" fill="none" fill-rule="evenodd"/><path d="M614.5 427.5 614.5 465.5" stroke="#000000" stroke-width="2.66667" stroke-linejoin="round" stroke-miterlimit="10" fill="none" fill-rule="evenodd"/></g></svg>