<svg width="781" height="327" xmlns="http://www.w3.org/2000/svg" xmlns:xlink="http://www.w3.org/1999/xlink" overflow="hidden"><g transform="translate(-40 -191)"><path d="M252.5 471 300.5 471 300.5 472 252.5 472ZM252.5 474.167C251.027 474.167 249.833 472.973 249.833 471.5 249.833 470.027 251.027 468.833 252.5 468.833 253.973 468.833 255.167 470.027 255.167 471.5 255.167 472.973 253.973 474.167 252.5 474.167ZM300.5 468.833C301.973 468.833 303.167 470.027 303.167 471.5 303.167 472.973 301.973 474.167 300.5 474.167 299.027 474.167 297.833 472.973 297.833 471.5 297.833 470.027 299.027 468.833 300.5 468.833Z"/><path d="M299.5 471 347.5 471 347.5 472 299.5 472ZM347.5 468.833C348.973 468.833 350.167 470.027 350.167 471.5 350.167 472.973 348.973 474.167 347.5 474.167 346.027 474.167 344.833 472.973 344.833 471.5 344.833 470.027 346.027 468.833 347.5 468.833Z"/><path d="M348.5 471 396.5 471 396.5 472 348.5 472ZM396.5 468.833C397.973 468.833 399.167 470.027 399.167 471.5 399.167 472.973 397.973 474.167 396.5 474.167 395.027 474.167 393.833 472.973 393.833 471.5 393.833 470.027 395.027 468.833 396.5 468.833Z"/><path d="M396.5 471 444.5 471 444.5 472 396.5 472ZM444.5 468.833C445.973 468.833 447.167 470.027 447.167 471.5 447.167 472.973 445.973 474.167 444.5 474.167 443.027 474.167 441.833 472.973 441.833 471.5 441.833 470.027 443.027 468.833 444.5 468.833Z"/><path d="M444.5 471 492.5 471 492.5 472 444.5 472ZM492.5 468.833C493.973 468.833 495.167 470.027 495.167 471.5 495.167 472.973 493.973 474.167 492.5 474.167 491.027 474.167 489.833 472.973 489.833 471.5 489.833 470.027 491.027 468.833 492.5 468.833Z"/><path d="M492.5 471 540.5 471 540.5 472 492.5 472ZM540.5 468.833C541.973 468.833 543.167 470.027 543.167 471.5 543.167 472.973 541.973 474.167 540.5 474.167 539.027 474.167 537.833 472.973 537.833 471.5 537.833 470.027 539.027 468.833 540.5 468.833Z"/><path d="M540.5 471 588.5 471 588.5 472 540.5 472ZM588.5 468.833C589.973 468.833 591.167 470.027 591.167 471.5 591.167 472.973 589.973 474.167 588.5 474.167 587.027 474.167 585.833 472.973 585.833 471.5 585.833 470.027 587.027 468.833 588.5 468.833Z"/><path d="M588.5 471 636.5 471 636.5 472 588.5 472ZM636.5 468.833C637.973 468.833 639.167 470.027 639.167 471.5 639.167 472.973 637.973 474.167 636.5 474.167 635.027 474.167 633.833 472.973 633.833 471.5 633.833 470.027 635.027 468.833 636.5 468.833Z"/><path d="M636.5 471 684.5 471 684.5 472 636.5 472ZM684.5 468.833C685.973 468.833 687.167 470.027 687.167 471.5 687.167 472.973 685.973 474.167 684.5 474.167 683.027 474.167 681.833 472.973 681.833 471.5 681.833 470.027 683.027 468.833 684.5 468.833Z"/><path d="M684.5 471 732.5 471 732.5 472 684.5 472ZM732.5 468.833C733.973 468.833 735.167 470.027 735.167 471.5 735.167 472.973 733.973 474.167 732.5 474.167 731.027 474.167 729.833 472.973 729.833 471.5 729.833 470.027 731.027 468.833 732.5 468.833Z"/><path d="M732.5 471 780.5 471 780.5 472 732.5 472ZM780.5 468.833C781.973 468.833 783.167 470.027 783.167 471.5 783.167 472.973 781.973 474.167 780.5 474.167 779.027 474.167 777.833 472.973 777.833 471.5 777.833 470.027 779.027 468.833 780.5 468.833Z"/><text font-family="Arial,Arial_MSFontService,sans-serif" font-style="italic" font-weight="400" font-size="23" transform="translate(245.664 498)">B</text><text font-family="Arial,Arial_MSFontService,sans-serif" font-style="italic" font-weight="400" font-size="23" transform="translate(294.009 498)">C</text><text font-family="Arial,Arial_MSFontService,sans-serif" font-style="italic" font-weight="400" font-size="23" transform="translate(342.002 498)">E</text><text font-family="Arial,Arial_MSFontService,sans-serif" font-style="italic" font-weight="400" font-size="23" transform="translate(389.994 498)">C</text><text font-family="Arial,Arial_MSFontService,sans-serif" font-style="italic" font-weight="400" font-size="23" transform="translate(438.163 498)">E</text><text font-family="Arial,Arial_MSFontService,sans-serif" font-style="italic" font-weight="400" font-size="23" transform="translate(486.156 498)">B</text><text font-family="Arial,Arial_MSFontService,sans-serif" font-style="italic" font-weight="400" font-size="23" transform="translate(534.148 498)">F</text><text font-family="Arial,Arial_MSFontService,sans-serif" font-style="italic" font-weight="400" font-size="23" transform="translate(582.141 498)">H</text><text font-family="Arial,Arial_MSFontService,sans-serif" font-style="italic" font-weight="400" font-size="23" transform="translate(630.133 498)">I</text><text font-family="Arial,Arial_MSFontService,sans-serif" font-style="italic" font-weight="400" font-size="23" transform="translate(678.126 498)">H</text><text font-family="Arial,Arial_MSFontService,sans-serif" font-style="italic" font-weight="400" font-size="23" transform="translate(726.118 498)">G</text><text font-family="Arial,Arial_MSFontService,sans-serif" font-style="italic" font-weight="400" font-size="23" transform="translate(774.111 498)">I</text><path d="M300.5 231.5 300.5 268.5" stroke="#000000" stroke-width="3.33333" stroke-linejoin="round" stroke-miterlimit="10" fill="none" fill-rule="evenodd"/><path d="M300.5 268.5 444.5 268.5" stroke="#000000" stroke-width="3.33333" stroke-linejoin="round" stroke-miterlimit="10" fill="none" fill-rule="evenodd"/><path d="M444.5 231.5 444.5 268.5" stroke="#000000" stroke-width="3.33333" stroke-linejoin="round" stroke-miterlimit="10" fill="none" fill-rule="evenodd"/><path d="M348.5 231.5 348.5 309.5" stroke="#FF0000" stroke-width="3.33333" stroke-linejoin="round" stroke-miterlimit="10" fill="none" fill-rule="evenodd"/><path d="M636.5 231.5 636.5 309.5" stroke="#FF0000" stroke-width="3.33333" stroke-linejoin="round" stroke-miterlimit="10" fill="none" fill-rule="evenodd"/><path d="M0 0 288 0.000104987" stroke="#FF0000" stroke-width="3.33333" stroke-linejoin="round" stroke-miterlimit="10" fill="none" fill-rule="evenodd" transform="matrix(1 0 0 -1 348.5 309.5)"/><path d="M732.5 231.5 732.5 268.5" stroke="#000000" stroke-width="3.33333" stroke-linejoin="round" stroke-miterlimit="10" fill="none" fill-rule="evenodd"/><path d="M780.5 228.5 780.5 268.5" stroke="#000000" stroke-width="3.33333" stroke-linejoin="round" stroke-miterlimit="10" fill="none" fill-rule="evenodd"/><path d="M0 0 48 0.000104987" stroke="#000000" stroke-width="3.33333" stroke-linejoin="round" stroke-miterlimit="10" fill="none" fill-rule="evenodd" transform="matrix(1 0 0 -1 732.5 268.5)"/><path d="M252.5 268.5 780.5 268.5" stroke="#000000" stroke-width="0.666667" stroke-linejoin="round" stroke-miterlimit="10" stroke-dasharray="0.666667 0.666667" fill="none" fill-rule="evenodd"/><path d="M252.5 308.5 780.5 308.5" stroke="#000000" stroke-width="0.666667" stroke-linejoin="round" stroke-miterlimit="10" stroke-dasharray="0.666667 0.666667" fill="none" fill-rule="evenodd"/><path d="M252.5 352.5 780.5 352.5" stroke="#000000" stroke-width="0.666667" stroke-linejoin="round" stroke-miterlimit="10" stroke-dasharray="0.666667 0.666667" fill="none" fill-rule="evenodd"/><path d="M252.5 392.5 780.5 392.5" stroke="#000000" stroke-width="0.666667" stroke-linejoin="round" stroke-miterlimit="10" stroke-dasharray="0.666667 0.666667" fill="none" fill-rule="evenodd"/><path d="M252.5 432.5 780.5 432.5" stroke="#000000" stroke-width="0.666667" stroke-linejoin="round" stroke-miterlimit="10" stroke-dasharray="0.666667 0.666667" fill="none" fill-rule="evenodd"/><text font-family="Arial,Arial_MSFontService,sans-serif" font-weight="400" font-size="23" transform="translate(212.497 279)">1</text><text font-family="Arial,Arial_MSFontService,sans-serif" font-style="italic" font-weight="400" font-size="23" transform="translate(88.4969 314)">curr_track</text><text font-family="Arial,Arial_MSFontService,sans-serif" font-weight="400" font-size="23" transform="translate(195.664 314)">= 2</text><text font-family="Arial,Arial_MSFontService,sans-serif" font-weight="400" font-size="23" transform="translate(215.33 354)">3</text><text font-family="Arial,Arial_MSFontService,sans-serif" font-weight="400" font-size="23" transform="translate(215.33 394)">4</text><text font-family="Arial,Arial_MSFontService,sans-serif" font-weight="400" font-size="23" transform="translate(215.33 440)">5</text><path d="M252.5 234 300.5 234 300.5 235 252.5 235ZM252.5 237.167C251.027 237.167 249.833 235.973 249.833 234.5 249.833 233.027 251.027 231.833 252.5 231.833 253.973 231.833 255.167 233.027 255.167 234.5 255.167 235.973 253.973 237.167 252.5 237.167ZM300.5 231.833C301.973 231.833 303.167 233.027 303.167 234.5 303.167 235.973 301.973 237.167 300.5 237.167 299.027 237.167 297.833 235.973 297.833 234.5 297.833 233.027 299.027 231.833 300.5 231.833Z"/><path d="M300.5 234 348.5 234 348.5 235 300.5 235ZM348.5 231.833C349.973 231.833 351.167 233.027 351.167 234.5 351.167 235.973 349.973 237.167 348.5 237.167 347.027 237.167 345.833 235.973 345.833 234.5 345.833 233.027 347.027 231.833 348.5 231.833Z"/><path d="M348.5 234 396.5 234 396.5 235 348.5 235ZM396.5 231.833C397.973 231.833 399.167 233.027 399.167 234.5 399.167 235.973 397.973 237.167 396.5 237.167 395.027 237.167 393.833 235.973 393.833 234.5 393.833 233.027 395.027 231.833 396.5 231.833Z"/><path d="M396.5 234 444.5 234 444.5 235 396.5 235ZM444.5 231.833C445.973 231.833 447.167 233.027 447.167 234.5 447.167 235.973 445.973 237.167 444.5 237.167 443.027 237.167 441.833 235.973 441.833 234.5 441.833 233.027 443.027 231.833 444.5 231.833Z"/><path d="M444.5 234 492.5 234 492.5 235 444.5 235ZM492.5 231.833C493.973 231.833 495.167 233.027 495.167 234.5 495.167 235.973 493.973 237.167 492.5 237.167 491.027 237.167 489.833 235.973 489.833 234.5 489.833 233.027 491.027 231.833 492.5 231.833Z"/><path d="M492.5 234 540.5 234 540.5 235 492.5 235ZM540.5 231.833C541.973 231.833 543.167 233.027 543.167 234.5 543.167 235.973 541.973 237.167 540.5 237.167 539.027 237.167 537.833 235.973 537.833 234.5 537.833 233.027 539.027 231.833 540.5 231.833Z"/><path d="M540.5 234 588.5 234 588.5 235 540.5 235ZM588.5 231.833C589.973 231.833 591.167 233.027 591.167 234.5 591.167 235.973 589.973 237.167 588.5 237.167 587.027 237.167 585.833 235.973 585.833 234.5 585.833 233.027 587.027 231.833 588.5 231.833Z"/><path d="M588.5 234 636.5 234 636.5 235 588.5 235ZM636.5 231.833C637.973 231.833 639.167 233.027 639.167 234.5 639.167 235.973 637.973 237.167 636.5 237.167 635.027 237.167 633.833 235.973 633.833 234.5 633.833 233.027 635.027 231.833 636.5 231.833Z"/><path d="M636.5 234 684.5 234 684.5 235 636.5 235ZM684.5 231.833C685.973 231.833 687.167 233.027 687.167 234.5 687.167 235.973 685.973 237.167 684.5 237.167 683.027 237.167 681.833 235.973 681.833 234.5 681.833 233.027 683.027 231.833 684.5 231.833Z"/><path d="M684.5 234 732.5 234 732.5 235 684.5 235ZM732.5 231.833C733.973 231.833 735.167 233.027 735.167 234.5 735.167 235.973 733.973 237.167 732.5 237.167 731.027 237.167 729.833 235.973 729.833 234.5 729.833 233.027 731.027 231.833 732.5 231.833Z"/><path d="M732.5 234 780.5 234 780.5 235 732.5 235ZM780.5 231.833C781.973 231.833 783.167 233.027 783.167 234.5 783.167 235.973 781.973 237.167 780.5 237.167 779.027 237.167 777.833 235.973 777.833 234.5 777.833 233.027 779.027 231.833 780.5 231.833Z"/><text font-family="Arial,Arial_MSFontService,sans-serif" font-weight="400" font-size="23" transform="translate(245.997 221)">0</text><text font-family="Arial,Arial_MSFontService,sans-serif" font-style="italic" font-weight="400" font-size="23" transform="translate(293.997 221)">A</text><text font-family="Arial,Arial_MSFontService,sans-serif" font-style="italic" font-weight="400" font-size="23" transform="translate(342.33 221)">D</text><text font-family="Arial,Arial_MSFontService,sans-serif" font-style="italic" font-weight="400" font-size="23" transform="translate(386.497 221)">E</text><text font-family="Arial,Arial_MSFontService,sans-serif" font-style="italic" font-weight="400" font-size="23" transform="translate(438.497 221)">A</text><text font-family="Arial,Arial_MSFontService,sans-serif" font-style="italic" font-weight="400" font-size="23" transform="translate(534.497 221)">G</text><text font-family="Arial,Arial_MSFontService,sans-serif" font-style="italic" font-weight="400" font-size="23" transform="translate(486.497 221)">F</text><text font-family="Arial,Arial_MSFontService,sans-serif" font-weight="400" font-size="23" transform="translate(582.497 221)">0</text><text font-family="Arial,Arial_MSFontService,sans-serif" font-style="italic" font-weight="400" font-size="23" transform="translate(630.497 221)">D</text><text font-family="Arial,Arial_MSFontService,sans-serif" font-style="italic" font-weight="400" font-size="23" transform="translate(678.497 221)">I</text><text font-family="Arial,Arial_MSFontService,sans-serif" font-style="italic" font-weight="400" font-size="23" transform="translate(718.33 221)">J</text><text font-family="Arial,Arial_MSFontService,sans-serif" font-style="italic" font-weight="400" font-size="23" transform="translate(770.33 221)">J</text></g></svg>