<svg width="772" height="331" xmlns="http://www.w3.org/2000/svg" xmlns:xlink="http://www.w3.org/1999/xlink" overflow="hidden"><defs><clipPath id="clip0"><path d="M447.5 279.5 447.5 410.5 643.5 410.5 643.5 279.5ZM118 234 890 234 890 565 118 565Z" fill-rule="evenodd" clip-rule="evenodd"/></clipPath><clipPath id="clip1"><path d="M690.5 279.5 690.5 410.5 886.5 410.5 886.5 279.5ZM118 234 890 234 890 565 118 565Z" fill-rule="evenodd" clip-rule="evenodd"/></clipPath></defs><g transform="translate(-118 -234)"><rect x="152.5" y="279.5" width="196" height="131" stroke="#969696" stroke-miterlimit="8" fill="#EAEAEA"/><path d="M152.5 312.5 348.5 312.5" stroke="#808080" stroke-width="0.333333" stroke-linejoin="round" stroke-miterlimit="10" stroke-dasharray="0.333333 0.333333" fill="none" fill-rule="evenodd"/><path d="M152.5 345.5 348.5 345.5" stroke="#808080" stroke-width="0.333333" stroke-linejoin="round" stroke-miterlimit="10" stroke-dasharray="0.333333 0.333333" fill="none" fill-rule="evenodd"/><path d="M152.5 378.5 348.5 378.5" stroke="#808080" stroke-width="0.333333" stroke-linejoin="round" stroke-miterlimit="10" stroke-dasharray="0.333333 0.333333" fill="none" fill-rule="evenodd"/><path d="M185.5 280.5 185.5 410.5" stroke="#808080" stroke-width="0.333333" stroke-linejoin="round" stroke-miterlimit="10" stroke-dasharray="0.333333 0.333333" fill="none" fill-rule="evenodd"/><path d="M217.5 280.5 217.5 410.5" stroke="#808080" stroke-width="0.333333" stroke-linejoin="round" stroke-miterlimit="10" stroke-dasharray="0.333333 0.333333" fill="none" fill-rule="evenodd"/><path d="M250.5 280.5 250.5 410.5" stroke="#808080" stroke-width="0.333333" stroke-linejoin="round" stroke-miterlimit="10" stroke-dasharray="0.333333 0.333333" fill="none" fill-rule="evenodd"/><path d="M283.5 280.5 283.5 410.5" stroke="#808080" stroke-width="0.333333" stroke-linejoin="round" stroke-miterlimit="10" stroke-dasharray="0.333333 0.333333" fill="none" fill-rule="evenodd"/><path d="M315.5 280.5 315.5 410.5" stroke="#808080" stroke-width="0.333333" stroke-linejoin="round" stroke-miterlimit="10" stroke-dasharray="0.333333 0.333333" fill="none" fill-rule="evenodd"/><text font-family="Arial,Arial_MSFontService,sans-serif" font-style="italic" font-weight="400" font-size="21" transform="translate(317.417 301)">s</text><text font-family="Arial,Arial_MSFontService,sans-serif" font-weight="400" font-size="14" transform="translate(328.083 305)">2</text><path d="M310.5 312.5C310.5 309.739 312.739 307.5 315.5 307.5 318.261 307.5 320.5 309.739 320.5 312.5 320.5 315.261 318.261 317.5 315.5 317.5 312.739 317.5 310.5 315.261 310.5 312.5Z" stroke="#000000" stroke-linejoin="round" stroke-miterlimit="10" fill-rule="evenodd"/><path d="M180.5 378.5C180.5 375.739 182.515 373.5 185 373.5 187.485 373.5 189.5 375.739 189.5 378.5 189.5 381.261 187.485 383.5 185 383.5 182.515 383.5 180.5 381.261 180.5 378.5Z" stroke="#000000" stroke-linejoin="round" stroke-miterlimit="10" fill-rule="evenodd"/><text font-family="Arial,Arial_MSFontService,sans-serif" font-style="italic" font-weight="400" font-size="21" transform="translate(160.417 393)">s</text><text font-family="Arial,Arial_MSFontService,sans-serif" font-weight="400" font-size="14" transform="translate(171.083 397)">1</text><path d="M243.5 345C243.5 340.858 246.634 337.5 250.5 337.5 254.366 337.5 257.5 340.858 257.5 345 257.5 349.142 254.366 352.5 250.5 352.5 246.634 352.5 243.5 349.142 243.5 345Z" stroke="#CC0000" stroke-linejoin="round" stroke-miterlimit="10" fill="#CC0000" fill-rule="evenodd"/><rect x="185" y="312" width="130" height="66" stroke="#000000" stroke-width="2" stroke-miterlimit="8" stroke-dasharray="8 6" fill="none"/><path d="M217.5 312.5 283.5 378.5" stroke="#CC0000" stroke-width="5.33333" stroke-linejoin="round" stroke-miterlimit="10" fill="none" fill-rule="evenodd"/><text font-family="Arial,Arial_MSFontService,sans-serif" font-weight="400" font-size="21" transform="translate(158.25 262)">Euclidean midpoint</text><path d="M0.499939-0.00781155 1.37495 55.9932 0.375077 56.0088-0.499939 0.00781155ZM0.875015 56.001 7.45755 50.5641 1 64-5.87416 50.7724Z" transform="matrix(-1 0 0 1 252.5 271.5)"/><text font-family="Arial,Arial_MSFontService,sans-serif" font-weight="400" font-size="21" transform="translate(188.747 470)">Locus of all</text><text font-family="Arial,Arial_MSFontService,sans-serif" font-weight="400" font-size="21" transform="translate(133 495)">Manhattan midpoints is</text><text font-family="Arial,Arial_MSFontService,sans-serif" font-weight="400" font-size="21" transform="translate(136.413 521)">a</text><text fill="#CC0000" font-family="Arial,Arial_MSFontService,sans-serif" font-weight="400" font-size="21" transform="translate(154.247 521)">Manhattan arc</text><text font-family="Arial,Arial_MSFontService,sans-serif" font-weight="400" font-size="21" transform="translate(296.747 521)">in the</text><text font-family="Arial,Arial_MSFontService,sans-serif" font-weight="400" font-size="21" transform="translate(144.747 547)">Manhattan geometry</text><path d="M0.499964-0.00602366 1.40359 74.9946 0.403658 75.0066-0.499964 0.00602366ZM0.903621 75.0006 7.50555 69.5873 1 83-5.82681 69.7479Z" transform="matrix(1 0 0 -1 232.5 443.5)"/><path d="M276.398 379.874C273.469 382.803 268.724 382.808 265.801 379.884L244.627 358.71C241.703 355.787 236.959 355.791 234.03 358.72 236.959 355.791 236.963 351.047 234.04 348.123L212.866 326.949C209.942 324.026 209.947 319.281 212.876 316.353" stroke="#000000" stroke-linejoin="round" stroke-miterlimit="10" fill="none" fill-rule="evenodd"/><g clip-path="url(#clip0)"><rect x="450.167" y="282.167" width="196" height="131" fill="#FFFFFF"/><path d="M450.667 282.667 450.667 412.667 645.667 412.667 645.667 282.667ZM449.667 281.667 646.667 281.667 646.667 413.667 449.667 413.667Z" fill="#FFFFFF" fill-rule="evenodd"/></g><rect x="447.5" y="279.5" width="196" height="131" stroke="#969696" stroke-miterlimit="8" fill="#EAEAEA"/><path d="M447.5 312.5 643.5 312.5" stroke="#808080" stroke-width="0.333333" stroke-linejoin="round" stroke-miterlimit="10" stroke-dasharray="0.333333 0.333333" fill="none" fill-rule="evenodd"/><path d="M447.5 345.5 643.5 345.5" stroke="#808080" stroke-width="0.333333" stroke-linejoin="round" stroke-miterlimit="10" stroke-dasharray="0.333333 0.333333" fill="none" fill-rule="evenodd"/><path d="M447.5 378.5 643.5 378.5" stroke="#808080" stroke-width="0.333333" stroke-linejoin="round" stroke-miterlimit="10" stroke-dasharray="0.333333 0.333333" fill="none" fill-rule="evenodd"/><path d="M480.5 280.5 480.5 410.5" stroke="#808080" stroke-width="0.333333" stroke-linejoin="round" stroke-miterlimit="10" stroke-dasharray="0.333333 0.333333" fill="none" fill-rule="evenodd"/><path d="M512.5 280.5 512.5 410.5" stroke="#808080" stroke-width="0.333333" stroke-linejoin="round" stroke-miterlimit="10" stroke-dasharray="0.333333 0.333333" fill="none" fill-rule="evenodd"/><path d="M545.5 280.5 545.5 410.5" stroke="#808080" stroke-width="0.333333" stroke-linejoin="round" stroke-miterlimit="10" stroke-dasharray="0.333333 0.333333" fill="none" fill-rule="evenodd"/><path d="M578.5 280.5 578.5 410.5" stroke="#808080" stroke-width="0.333333" stroke-linejoin="round" stroke-miterlimit="10" stroke-dasharray="0.333333 0.333333" fill="none" fill-rule="evenodd"/><path d="M610.5 280.5 610.5 410.5" stroke="#808080" stroke-width="0.333333" stroke-linejoin="round" stroke-miterlimit="10" stroke-dasharray="0.333333 0.333333" fill="none" fill-rule="evenodd"/><text font-family="Arial,Arial_MSFontService,sans-serif" font-style="italic" font-weight="400" font-size="21" transform="translate(615.417 332)">s</text><text font-family="Arial,Arial_MSFontService,sans-serif" font-weight="400" font-size="14" transform="translate(626.083 336)">2</text><path d="M605.5 345C605.5 342.515 607.739 340.5 610.5 340.5 613.261 340.5 615.5 342.515 615.5 345 615.5 347.485 613.261 349.5 610.5 349.5 607.739 349.5 605.5 347.485 605.5 345Z" stroke="#000000" stroke-linejoin="round" stroke-miterlimit="10" fill-rule="evenodd"/><path d="M475.5 345.5C475.5 342.739 477.515 340.5 480 340.5 482.485 340.5 484.5 342.739 484.5 345.5 484.5 348.261 482.485 350.5 480 350.5 477.515 350.5 475.5 348.261 475.5 345.5Z" stroke="#000000" stroke-linejoin="round" stroke-miterlimit="10" fill-rule="evenodd"/><text font-family="Arial,Arial_MSFontService,sans-serif" font-style="italic" font-weight="400" font-size="21" transform="translate(454.917 333)">s</text><text font-family="Arial,Arial_MSFontService,sans-serif" font-weight="400" font-size="14" transform="translate(465.583 337)">1</text><path d="M480 345 610 345" stroke="#000000" stroke-width="2" stroke-linejoin="round" stroke-miterlimit="10" stroke-dasharray="8 6" fill="none" fill-rule="evenodd"/><g clip-path="url(#clip1)"><rect x="693.167" y="282.167" width="196" height="131" fill="#FFFFFF"/><path d="M693.667 282.667 693.667 412.667 888.667 412.667 888.667 282.667ZM692.667 281.667 889.667 281.667 889.667 413.667 692.667 413.667Z" fill="#FFFFFF" fill-rule="evenodd"/></g><rect x="690.5" y="279.5" width="196" height="131" stroke="#969696" stroke-miterlimit="8" fill="#EAEAEA"/><path d="M690.5 312.5 886.5 312.5" stroke="#808080" stroke-width="0.333333" stroke-linejoin="round" stroke-miterlimit="10" stroke-dasharray="0.333333 0.333333" fill="none" fill-rule="evenodd"/><path d="M690.5 344.5 886.5 344.5" stroke="#808080" stroke-width="0.333333" stroke-linejoin="round" stroke-miterlimit="10" stroke-dasharray="0.333333 0.333333" fill="none" fill-rule="evenodd"/><path d="M690.5 377.5 886.5 377.5" stroke="#808080" stroke-width="0.333333" stroke-linejoin="round" stroke-miterlimit="10" stroke-dasharray="0.333333 0.333333" fill="none" fill-rule="evenodd"/><path d="M723.5 279.5 723.5 410.5" stroke="#808080" stroke-width="0.333333" stroke-linejoin="round" stroke-miterlimit="10" stroke-dasharray="0.333333 0.333333" fill="none" fill-rule="evenodd"/><path d="M755.5 279.5 755.5 410.5" stroke="#808080" stroke-width="0.333333" stroke-linejoin="round" stroke-miterlimit="10" stroke-dasharray="0.333333 0.333333" fill="none" fill-rule="evenodd"/><path d="M788.5 279.5 788.5 410.5" stroke="#808080" stroke-width="0.333333" stroke-linejoin="round" stroke-miterlimit="10" stroke-dasharray="0.333333 0.333333" fill="none" fill-rule="evenodd"/><path d="M821.5 279.5 821.5 410.5" stroke="#808080" stroke-width="0.333333" stroke-linejoin="round" stroke-miterlimit="10" stroke-dasharray="0.333333 0.333333" fill="none" fill-rule="evenodd"/><path d="M853.5 279.5 853.5 410.5" stroke="#808080" stroke-width="0.333333" stroke-linejoin="round" stroke-miterlimit="10" stroke-dasharray="0.333333 0.333333" fill="none" fill-rule="evenodd"/><text font-family="Arial,Arial_MSFontService,sans-serif" font-style="italic" font-weight="400" font-size="21" transform="translate(793.917 395)">s</text><text font-family="Arial,Arial_MSFontService,sans-serif" font-weight="400" font-size="14" transform="translate(804.583 399)">2</text><path d="M783.5 377.5C783.5 374.739 785.739 372.5 788.5 372.5 791.261 372.5 793.5 374.739 793.5 377.5 793.5 380.261 791.261 382.5 788.5 382.5 785.739 382.5 783.5 380.261 783.5 377.5Z" stroke="#000000" stroke-linejoin="round" stroke-miterlimit="10" fill-rule="evenodd"/><path d="M783.5 312C783.5 309.515 785.739 307.5 788.5 307.5 791.261 307.5 793.5 309.515 793.5 312 793.5 314.485 791.261 316.5 788.5 316.5 785.739 316.5 783.5 314.485 783.5 312Z" stroke="#000000" stroke-linejoin="round" stroke-miterlimit="10" fill-rule="evenodd"/><text font-family="Arial,Arial_MSFontService,sans-serif" font-style="italic" font-weight="400" font-size="21" transform="translate(791.917 299)">s</text><text font-family="Arial,Arial_MSFontService,sans-serif" font-weight="400" font-size="14" transform="translate(802.583 303)">1</text><path d="M788 312 788 377" stroke="#000000" stroke-width="2" stroke-linejoin="round" stroke-miterlimit="10" stroke-dasharray="8 6" fill="none" fill-rule="evenodd"/><text font-family="Arial,Arial_MSFontService,sans-serif" font-weight="400" font-size="21" transform="translate(569.25 262)">Euclidean midpoint</text><path d="M0.255457-0.429816 99.3784 58.4829 98.8674 59.3425-0.255457 0.429816ZM99.1229 58.9127 97.9443 50.4569 106 63 91.1321 61.9187Z" transform="matrix(-1 0 0 1 663.5 270.5)"/><path d="M672.769 271.079 771.025 333.775 770.487 334.618 672.231 271.922ZM770.756 334.197 769.846 325.708 777.5 338.5 762.674 336.948Z"/><text font-family="Arial,Arial_MSFontService,sans-serif" font-weight="400" font-size="21" transform="translate(456.6 469)">Sinks are aligned, hence,</text><text fill="#CC0000" font-family="Arial,Arial_MSFontService,sans-serif" font-weight="400" font-size="21" transform="translate(701.933 469)">Manhattan arc</text><text font-family="Arial,Arial_MSFontService,sans-serif" font-weight="400" font-size="21" transform="translate(456.6 494)">has zero length</text><path d="M538.5 345C538.5 340.858 541.634 337.5 545.5 337.5 549.366 337.5 552.5 340.858 552.5 345 552.5 349.142 549.366 352.5 545.5 352.5 541.634 352.5 538.5 349.142 538.5 345Z" stroke="#CC0000" stroke-linejoin="round" stroke-miterlimit="10" fill="#CC0000" fill-rule="evenodd"/><path d="M781.5 344.5C781.5 340.634 784.634 337.5 788.5 337.5 792.366 337.5 795.5 340.634 795.5 344.5 795.5 348.366 792.366 351.5 788.5 351.5 784.634 351.5 781.5 348.366 781.5 344.5Z" stroke="#CC0000" stroke-linejoin="round" stroke-miterlimit="10" fill="#CC0000" fill-rule="evenodd"/></g></svg>