<svg width="492" height="132" xmlns="http://www.w3.org/2000/svg" xmlns:xlink="http://www.w3.org/1999/xlink" overflow="hidden"><g transform="translate(4 -457)"><path d="M164.5 563.5 294.484 563.5" stroke="#231F20" stroke-width="0.955906" stroke-linejoin="round" stroke-miterlimit="10" fill="none" fill-rule="evenodd"/><path d="M284 560 284 565.939 295.939 562.97 284 560Z" fill="#231F20" fill-rule="evenodd"/><path d="M284.911 561.402 294.438 563.807 284.911 566.21" stroke="#231F20" stroke-width="0.955906" stroke-linejoin="round" stroke-miterlimit="10" fill="none" fill-rule="evenodd"/><path d="M172.5 571.499 172.5 571.499 172.5 472.802 172.5 471.5" stroke="#231F20" stroke-width="0.955906" stroke-linejoin="round" stroke-miterlimit="10" fill="none" fill-rule="evenodd"/><path d="M171.968 469 169 480.939 174.937 480.939 171.968 469Z" fill="#231F20" fill-rule="evenodd"/><path d="M170.5 481.456 172.491 471.5 174.482 481.456" stroke="#231F20" stroke-width="0.955906" stroke-linejoin="round" stroke-miterlimit="10" fill="none" fill-rule="evenodd"/><text fill="#231F20" font-family="Arial,Arial_MSFontService,sans-serif" font-style="italic" font-weight="700" font-size="12" transform="translate(189.525 575)">V</text><text fill="#231F20" font-family="Arial,Arial_MSFontService,sans-serif" font-weight="700" font-size="11" transform="translate(197.198 577)">TH</text><text fill="#231F20" font-family="Arial,Arial_MSFontService,sans-serif" font-style="italic" font-weight="700" font-size="12" transform="translate(278.107 577)">V</text><text fill="#231F20" font-family="Arial,Arial_MSFontService,sans-serif" font-weight="700" font-size="11" transform="translate(285.78 579)">in</text><path d="M172 562.969 172.06 562.969 172.477 562.969 173.612 562.969 175.82 562.969 179.302 562.95 183.621 562.811 188.178 562.433 192.377 561.699 198.585 558.523 203.839 551.536 206.274 547.32 208.953 542.493 211.816 537.362 214.801 532.23 217.847 527.403 221.668 522.144 225.489 517.718 229.31 514.007 233.131 510.891 236.992 508.271 241.091 506.128 245.667 504.461 250.96 503.27 257.05 502.536 263.378 502.159 269.229 502.02 273.886 502 276.83 502 278.342 502 278.899 502 278.979 502" stroke="#231F20" stroke-width="1.91192" stroke-linejoin="round" stroke-miterlimit="10" fill="none" fill-rule="evenodd"/><path d="M173.5 500.5 280.479 500.5" stroke="#231F20" stroke-width="0.955906" stroke-linejoin="round" stroke-miterlimit="10" stroke-dasharray="3.82362 2.86772" fill="none" fill-rule="evenodd"/><text fill="#231F20" font-family="Arial,Arial_MSFontService,sans-serif" font-style="italic" font-weight="700" font-size="12" transform="translate(155.442 478)">I</text><text fill="#231F20" font-family="Arial,Arial_MSFontService,sans-serif" font-weight="700" font-size="9" transform="translate(158.442 479)">D</text><text fill="#231F20" font-family="Arial,Arial_MSFontService,sans-serif" font-style="italic" font-weight="700" font-size="12" transform="translate(144.975 497)">V</text><text fill="#231F20" font-family="Arial,Arial_MSFontService,sans-serif" font-style="italic" font-weight="700" font-size="10" transform="translate(152.649 499)">DD</text><path d="M145.042 499.666 152.042 499.666 159.042 499.666 166.042 499.666 166.042 500.666 159.042 500.666 152.042 500.666 145.042 500.666Z" fill="#231F20" fill-rule="evenodd"/><text fill="#231F20" font-family="Arial,Arial_MSFontService,sans-serif" font-style="italic" font-weight="700" font-size="12" transform="translate(148.709 513)">R</text><text fill="#231F20" font-family="Arial,Arial_MSFontService,sans-serif" font-style="italic" font-weight="700" font-size="12" transform="translate(157.042 514)">D</text><text fill="#231F20" font-family="Arial,Arial_MSFontService,sans-serif" font-style="italic" font-weight="700" font-size="12" transform="translate(464.145 578)">V</text><text fill="#231F20" font-family="Arial,Arial_MSFontService,sans-serif" font-weight="700" font-size="11" transform="translate(471.818 580)">in</text><text fill="#231F20" font-family="Arial,Arial_MSFontService,sans-serif" font-style="italic" font-weight="700" font-size="12" transform="translate(358.669 576)">V</text><text fill="#231F20" font-family="Arial,Arial_MSFontService,sans-serif" font-weight="700" font-size="11" transform="translate(366.342 578)">TH</text><text fill="#231F20" font-family="Arial,Arial_MSFontService,sans-serif" font-style="italic" font-weight="700" font-size="12" transform="translate(402.802 576)">V</text><text fill="#231F20" font-family="Arial,Arial_MSFontService,sans-serif" font-weight="700" font-size="11" transform="translate(410.535 578)">in1</text><path d="M348.5 571.499 348.5 571.499 348.5 473.789 348.5 472.5" stroke="#231F20" stroke-width="0.955906" stroke-linejoin="round" stroke-miterlimit="10" fill="none" fill-rule="evenodd"/><path d="M347.968 470 345 481.939 350.937 481.939 347.968 470Z" fill="#231F20" fill-rule="evenodd"/><path d="M346.5 482.456 348.989 472.5 351.478 482.456" stroke="#231F20" stroke-width="0.955906" stroke-linejoin="round" stroke-miterlimit="10" fill="none" fill-rule="evenodd"/><text fill="#231F20" font-family="Arial,Arial_MSFontService,sans-serif" font-style="italic" font-weight="700" font-size="12" transform="translate(327.92 476)">g</text><text fill="#231F20" font-family="Arial,Arial_MSFontService,sans-serif" font-weight="700" font-size="9" transform="translate(334.92 477)">m</text><path d="M341.5 564.5 478.464 564.5" stroke="#231F20" stroke-width="0.955906" stroke-linejoin="round" stroke-miterlimit="10" fill="none" fill-rule="evenodd"/><path d="M468 561 468 566.939 479.939 563.97 468 561Z" fill="#231F20" fill-rule="evenodd"/><path d="M469.5 561.5 478.46 563.99 469.5 566.478" stroke="#231F20" stroke-width="0.955906" stroke-linejoin="round" stroke-miterlimit="10" fill="none" fill-rule="evenodd"/><path d="M413.5 511.5 413.5 564.479" stroke="#231F20" stroke-width="0.955906" stroke-linejoin="round" stroke-miterlimit="10" stroke-dasharray="3.82362 2.86772" fill="none" fill-rule="evenodd"/><path d="M348 563.953 348.06 563.953 348.481 563.953 349.622 563.953 351.845 563.953 355.33 563.953 359.539 563.948 363.756 563.936 369.624 563.742 373.892 560.156 377.716 555.141 380.424 551.527 383.586 547.308 387.052 542.681 390.677 537.845 394.31 532.998 397.805 528.338 401.013 524.062 403.787 520.37 407.761 515.144 411.655 511.18 413.039 511 414.886 511.258 420.039 514.376 423.17 518.178 425.418 521.793 427.825 526.069 430.439 530.724 433.307 535.474 436.475 540.039 439.99 544.135 444.661 548.141 449.551 551.208 454.313 553.481 458.598 555.103 464.882 557.093 466.333 557.543 466.867 557.708 466.944 557.732" stroke="#231F20" stroke-width="1.91192" stroke-linejoin="round" stroke-miterlimit="10" fill="none" fill-rule="evenodd"/><text fill="#231F20" font-family="Arial,Arial_MSFontService,sans-serif" font-style="italic" font-weight="700" font-size="11" transform="translate(409.076 506)">A</text><path d="M46.5613 540.757 56.9944 540.757 56.9944 549.438" stroke="#231F20" stroke-width="0.955906" stroke-linejoin="round" stroke-miterlimit="10" fill="none" fill-rule="evenodd"/><path d="M56.9944 523.393 56.9944 531.118 46.5001 531.118" stroke="#231F20" stroke-width="0.955906" stroke-linejoin="round" stroke-miterlimit="10" fill="none" fill-rule="evenodd"/><path d="M80.4388 520.5 56.9944 520.5" stroke="#231F20" stroke-width="0.955906" stroke-linejoin="round" stroke-miterlimit="10" fill="none" fill-rule="evenodd"/><path d="M43 528.747 43 540.904" stroke="#231F20" stroke-width="1.91192" stroke-linejoin="round" stroke-miterlimit="10" fill="none" fill-rule="evenodd"/><path d="M45.9668 527 45.9668 542.999" stroke="#231F20" stroke-width="1.91192" stroke-linejoin="round" stroke-miterlimit="10" fill="none" fill-rule="evenodd"/><path d="M43.4634 535.5 35.5001 535.5" stroke="#231F20" stroke-width="0.955906" stroke-linejoin="round" stroke-miterlimit="10" fill="none" fill-rule="evenodd"/><path d="M51 538 51 541.956 56.9796 539.978 51 538Z" fill="#231F20" fill-rule="evenodd"/><path d="M57.4797 540.478 51.5001 542.456 51.5001 538.5" stroke="#231F20" stroke-width="0.955906" stroke-linejoin="round" stroke-miterlimit="10" fill="none" fill-rule="evenodd"/><path d="M51 538 51 541.954 56.9796 539.978 51 538Z" fill="#231F20" fill-rule="evenodd"/><path d="M57.4797 540.478 51.5001 538.5 51.5001 542.454" stroke="#231F20" stroke-width="0.955906" stroke-linejoin="round" stroke-miterlimit="10" fill="none" fill-rule="evenodd"/><path d="M57.4888 543.24 57.4888 558.492" stroke="#231F20" stroke-width="0.955906" stroke-linejoin="round" stroke-miterlimit="10" fill="none" fill-rule="evenodd"/><path d="M57.4888 484.5 57.4888 492.126 53.5001 493.078 61.4791 494.985 53.5001 496.892 61.4791 498.797 53.5001 500.704 61.4791 502.611 57.4888 503.563 57.4888 511.189" stroke="#231F20" stroke-width="0.955906" stroke-linejoin="round" stroke-miterlimit="10" fill="none" fill-rule="evenodd"/><path d="M57.5001 505.5 57.5001 528.439" stroke="#231F20" stroke-width="0.955906" stroke-linejoin="round" stroke-miterlimit="10" fill="none" fill-rule="evenodd"/><path d="M79.9778 518 79.2086 518.156 78.5797 518.58 78.1555 519.209 78 519.978 78.1555 520.747 78.5797 521.376 79.2086 521.8 79.9778 521.956 80.7472 521.8 81.3759 521.376 81.8002 520.747 81.9558 519.978 81.8002 519.209 81.3759 518.58 80.7472 518.156 79.9778 518Z" fill="#FFFFFF" fill-rule="evenodd"/><path d="M82.4558 520.478 82.3002 519.709 81.876 519.08 81.2473 518.656 80.4779 518.5 79.7086 518.656 79.0798 519.08 78.6556 519.709 78.5001 520.478 78.6556 521.247 79.0798 521.876 79.7086 522.3 80.4779 522.456 81.2473 522.3 81.876 521.876 82.3002 521.247 82.4558 520.478" stroke="#231F20" stroke-width="0.955906" stroke-linejoin="round" stroke-miterlimit="10" fill="none" fill-rule="evenodd"/><path d="M56.4824 518 55.9055 518.156 55.4343 518.58 55.1165 519.209 55 519.978 55.1165 520.747 55.4343 521.376 55.9055 521.8 56.4824 521.956 57.0598 521.8 57.5313 521.376 57.8492 520.747 57.9658 519.978 57.8492 519.209 57.5313 518.58 57.0598 518.156 56.4824 518Z" fill="#231F20" fill-rule="evenodd"/><path d="M58.4658 520.478 58.3493 519.709 58.0314 519.08 57.5599 518.656 56.9825 518.5 56.4056 518.656 55.9344 519.08 55.6165 519.709 55.5001 520.478 55.6165 521.247 55.9344 521.876 56.4056 522.3 56.9825 522.456 57.5599 522.3 58.0314 521.876 58.3493 521.247 58.4658 520.478" stroke="#231F20" stroke-width="0.955906" stroke-linejoin="round" stroke-miterlimit="10" fill="none" fill-rule="evenodd"/><text fill="#231F20" font-family="Arial,Arial_MSFontService,sans-serif" font-style="italic" font-weight="700" font-size="12" transform="translate(66.8645 474)">V</text><text fill="#231F20" font-family="Arial,Arial_MSFontService,sans-serif" font-style="italic" font-weight="700" font-size="10" transform="translate(74.5378 476)">DD</text><text fill="#231F20" font-family="Arial,Arial_MSFontService,sans-serif" font-style="italic" font-weight="700" font-size="12" transform="translate(65.3978 497)">R</text><text fill="#231F20" font-family="Arial,Arial_MSFontService,sans-serif" font-weight="700" font-size="9" transform="translate(73.7311 498)">D</text><text fill="#231F20" font-family="Arial,Arial_MSFontService,sans-serif" font-style="italic" font-weight="700" font-size="12" transform="translate(84.2645 522)">V</text><text fill="#231F20" font-family="Arial,Arial_MSFontService,sans-serif" font-weight="700" font-size="9" transform="translate(91.9978 524)">out</text><text fill="#231F20" font-family="Arial,Arial_MSFontService,sans-serif" font-style="italic" font-weight="700" font-size="12" transform="translate(59.0645 537)">M</text><text fill="#231F20" font-family="Arial,Arial_MSFontService,sans-serif" font-weight="700" font-size="9" transform="translate(68.7311 538)">1</text><path d="M57.5001 489.46 57.5001 474.5" stroke="#231F20" stroke-width="0.955906" stroke-linejoin="round" stroke-miterlimit="10" fill="none" fill-rule="evenodd"/><path d="M49 474 63.9595 474" stroke="#231F20" stroke-width="1.91192" stroke-linejoin="round" stroke-miterlimit="10" fill="none" fill-rule="evenodd"/><path d="M51.8447 560.37 60.983 560.37" stroke="#231F20" stroke-width="1.91192" stroke-linejoin="round" stroke-miterlimit="10" fill="none" fill-rule="evenodd"/><path d="M53.6252 564.179 59.2169 564.179" stroke="#231F20" stroke-width="1.91192" stroke-linejoin="round" stroke-miterlimit="10" fill="none" fill-rule="evenodd"/><path d="M54.8147 567.988 58.2921 567.988" stroke="#231F20" stroke-width="1.91192" stroke-linejoin="round" stroke-miterlimit="10" fill="none" fill-rule="evenodd"/><path d="M57.4839 561.473 57.4839 555.633" stroke="#231F20" stroke-width="0.955906" stroke-linejoin="round" stroke-miterlimit="10" fill="none" fill-rule="evenodd"/><path d="M41.992 535.5 26.5001 535.5" stroke="#231F20" stroke-width="0.955906" stroke-linejoin="round" stroke-miterlimit="10" fill="none" fill-rule="evenodd"/><path d="M25.9778 533 25.2086 533.155 24.5797 533.579 24.1555 534.207 24 534.977 24.1555 535.746 24.5797 536.375 25.2086 536.799 25.9778 536.954 26.7478 536.799 27.3765 536.375 27.8004 535.746 27.9558 534.977 27.8004 534.207 27.3765 533.579 26.7478 533.155 25.9778 533Z" fill="#FFFFFF" fill-rule="evenodd"/><path d="M28.4559 535.477 28.3004 534.707 27.8765 534.079 27.2478 533.655 26.4779 533.5 25.7086 533.655 25.0798 534.079 24.6556 534.707 24.5001 535.477 24.6556 536.247 25.0798 536.875 25.7086 537.299 26.4779 537.454 27.2478 537.299 27.8765 536.875 28.3004 536.247 28.4559 535.477" stroke="#231F20" stroke-width="0.955906" stroke-linejoin="round" stroke-miterlimit="10" fill="none" fill-rule="evenodd"/><text fill="#231F20" font-family="Arial,Arial_MSFontService,sans-serif" font-style="italic" font-weight="700" font-size="12" transform="translate(3.89365 538)">V</text><text fill="#231F20" font-family="Arial,Arial_MSFontService,sans-serif" font-weight="700" font-size="9" transform="translate(11.567 540)">in</text></g></svg>