<svg width="676" height="358" xmlns="http://www.w3.org/2000/svg" xmlns:xlink="http://www.w3.org/1999/xlink" overflow="hidden"><defs><linearGradient x1="285" y1="271" x2="317" y2="271" gradientUnits="userSpaceOnUse" spreadMethod="reflect" id="fill0"><stop offset="0" stop-color="#EAEAEA"/><stop offset="0.00429185" stop-color="#E9E9E9"/><stop offset="0.00858369" stop-color="#E9E9E9"/><stop offset="0.0128755" stop-color="#E9E9E9"/><stop offset="0.0171674" stop-color="#E9E9E9"/><stop offset="0.0214592" stop-color="#E9E9E9"/><stop offset="0.0257511" stop-color="#E9E9E9"/><stop offset="0.0300429" stop-color="#E9E9E9"/><stop offset="0.0343348" stop-color="#E9E9E9"/><stop offset="0.0386266" stop-color="#E9E9E9"/><stop offset="0.0429185" stop-color="#E9E9E9"/><stop offset="0.0472103" stop-color="#E9E9E9"/><stop offset="0.0515021" stop-color="#E9E9E9"/><stop offset="0.055794" stop-color="#E8E8E8"/><stop offset="0.0600858" stop-color="#E8E8E8"/><stop offset="0.0643777" stop-color="#E8E8E8"/><stop offset="0.0686695" stop-color="#E8E8E8"/><stop offset="0.0729614" stop-color="#E8E8E8"/><stop offset="0.0772532" stop-color="#E8E8E8"/><stop offset="0.0815451" stop-color="#E7E7E7"/><stop offset="0.0858369" stop-color="#E7E7E7"/><stop offset="0.0901288" stop-color="#E7E7E7"/><stop offset="0.0944206" stop-color="#E7E7E7"/><stop offset="0.0987124" stop-color="#E6E6E6"/><stop offset="0.103004" stop-color="#E6E6E6"/><stop offset="0.107296" stop-color="#E6E6E6"/><stop offset="0.111588" stop-color="#E6E6E6"/><stop offset="0.11588" stop-color="#E5E5E5"/><stop offset="0.120172" stop-color="#E5E5E5"/><stop offset="0.124464" stop-color="#E5E5E5"/><stop offset="0.128755" stop-color="#E4E4E4"/><stop offset="0.133047" stop-color="#E4E4E4"/><stop offset="0.137339" stop-color="#E4E4E4"/><stop offset="0.141631" stop-color="#E4E4E4"/><stop offset="0.145923" stop-color="#E3E3E3"/><stop offset="0.150215" stop-color="#E3E3E3"/><stop offset="0.154506" stop-color="#E2E2E2"/><stop offset="0.158798" stop-color="#E2E2E2"/><stop offset="0.16309" stop-color="#E2E2E2"/><stop offset="0.167382" stop-color="#E1E1E1"/><stop offset="0.171674" stop-color="#E1E1E1"/><stop offset="0.175966" stop-color="#E0E0E0"/><stop offset="0.180258" stop-color="#E0E0E0"/><stop offset="0.184549" stop-color="#E0E0E0"/><stop offset="0.188841" stop-color="#DFDFDF"/><stop offset="0.193133" stop-color="#DFDFDF"/><stop offset="0.197425" stop-color="#DEDEDE"/><stop offset="0.201717" stop-color="#DEDEDE"/><stop offset="0.206009" stop-color="#DDDDDD"/><stop offset="0.2103" stop-color="#DDDDDD"/><stop offset="0.214592" stop-color="#DCDCDC"/><stop offset="0.218884" stop-color="#DCDCDC"/><stop offset="0.223176" stop-color="#DBDBDB"/><stop offset="0.227468" stop-color="#DBDBDB"/><stop offset="0.23176" stop-color="#DADADA"/><stop offset="0.236051" stop-color="#DADADA"/><stop offset="0.240343" stop-color="#D9D9D9"/><stop offset="0.244635" stop-color="#D9D9D9"/><stop offset="0.248927" stop-color="#D8D8D8"/><stop offset="0.253219" stop-color="#D8D8D8"/><stop offset="0.257511" stop-color="#D7D7D7"/><stop offset="0.261803" stop-color="#D7D7D7"/><stop offset="0.266094" stop-color="#D6D6D6"/><stop offset="0.270386" stop-color="#D5D5D5"/><stop offset="0.274678" stop-color="#D5D5D5"/><stop offset="0.27897" stop-color="#D4D4D4"/><stop offset="0.283262" stop-color="#D4D4D4"/><stop offset="0.287554" stop-color="#D3D3D3"/><stop offset="0.291846" stop-color="#D2D2D2"/><stop offset="0.296137" stop-color="#D2D2D2"/><stop offset="0.300429" stop-color="#D1D1D1"/><stop offset="0.304721" stop-color="#D0D0D0"/><stop offset="0.309013" stop-color="#D0D0D0"/><stop offset="0.313305" stop-color="#CFCFCF"/><stop offset="0.317597" stop-color="#CECECE"/><stop offset="0.321888" stop-color="#CECECE"/><stop offset="0.32618" stop-color="#CDCDCD"/><stop offset="0.330472" stop-color="#CCCCCC"/><stop offset="0.334764" stop-color="#CBCBCB"/><stop offset="0.339056" stop-color="#CBCBCB"/><stop offset="0.343348" stop-color="#CACACA"/><stop offset="0.347639" stop-color="#C9C9C9"/><stop offset="0.351931" stop-color="#C8C8C8"/><stop offset="0.356223" stop-color="#C8C8C8"/><stop offset="0.360515" stop-color="#C7C7C7"/><stop offset="0.364807" stop-color="#C6C6C6"/><stop offset="0.369099" stop-color="#C5C5C5"/><stop offset="0.373391" stop-color="#C5C5C5"/><stop offset="0.377682" stop-color="#C4C4C4"/><stop offset="0.381974" stop-color="#C3C3C3"/><stop offset="0.386266" stop-color="#C2C2C2"/><stop offset="0.390558" stop-color="#C1C1C1"/><stop offset="0.39485" stop-color="#C1C1C1"/><stop offset="0.399142" stop-color="#C0C0C0"/><stop offset="0.403433" stop-color="#BFBFBF"/><stop offset="0.407725" stop-color="#BEBEBE"/><stop offset="0.412017" stop-color="#BDBDBD"/><stop offset="0.416309" stop-color="#BCBCBC"/><stop offset="0.420601" stop-color="#BBBBBB"/><stop offset="0.424893" stop-color="#BABABA"/><stop offset="0.429185" stop-color="#BABABA"/><stop offset="0.433476" stop-color="#B9B9B9"/><stop offset="0.437768" stop-color="#B8B8B8"/><stop offset="0.44206" stop-color="#B7B7B7"/><stop offset="0.446352" stop-color="#B6B6B6"/><stop offset="0.450644" stop-color="#B5B5B5"/><stop offset="0.454936" stop-color="#B4B4B4"/><stop offset="0.459227" stop-color="#B3B3B3"/><stop offset="0.463519" stop-color="#B2B2B2"/><stop offset="0.467811" stop-color="#B1B1B1"/><stop offset="0.472103" stop-color="#B0B0B0"/><stop offset="0.476395" stop-color="#AFAFAF"/><stop offset="0.480687" stop-color="#AEAEAE"/><stop offset="0.484979" stop-color="#ADADAD"/><stop offset="0.48927" stop-color="#ACACAC"/><stop offset="0.493562" stop-color="#ABABAB"/><stop offset="0.497854" stop-color="#AAAAAA"/><stop offset="0.502146" stop-color="#A9A9A9"/><stop offset="0.506438" stop-color="#A8A8A8"/><stop offset="0.51073" stop-color="#A7A7A7"/><stop offset="0.515021" stop-color="#A6A6A6"/><stop offset="0.519313" stop-color="#A5A5A5"/><stop offset="0.523605" stop-color="#A4A4A4"/><stop offset="0.527897" stop-color="#A3A3A3"/><stop offset="0.532189" stop-color="#A2A2A2"/><stop offset="0.536481" stop-color="#A1A1A1"/><stop offset="0.540773" stop-color="#A0A0A0"/><stop offset="0.545064" stop-color="#9F9F9F"/><stop offset="0.549356" stop-color="#9D9D9D"/><stop offset="0.553648" stop-color="#9C9C9C"/><stop offset="0.55794" stop-color="#9B9B9B"/><stop offset="0.562232" stop-color="#9A9A9A"/><stop offset="0.566524" stop-color="#999999"/><stop offset="0.570815" stop-color="#989898"/><stop offset="0.575107" stop-color="#979797"/><stop offset="0.579399" stop-color="#959595"/><stop offset="0.583691" stop-color="#949494"/><stop offset="0.587983" stop-color="#939393"/><stop offset="0.592275" stop-color="#929292"/><stop offset="0.596566" stop-color="#919191"/><stop offset="0.600858" stop-color="#8F8F8F"/><stop offset="0.60515" stop-color="#8E8E8E"/><stop offset="0.609442" stop-color="#8D8D8D"/><stop offset="0.613734" stop-color="#8C8C8C"/><stop offset="0.618026" stop-color="#8B8B8B"/><stop offset="0.622318" stop-color="#898989"/><stop offset="0.626609" stop-color="#888888"/><stop offset="0.630901" stop-color="#878787"/><stop offset="0.635193" stop-color="#868686"/><stop offset="0.639485" stop-color="#848484"/><stop offset="0.643777" stop-color="#838383"/><stop offset="0.648069" stop-color="#828282"/><stop offset="0.65236" stop-color="#808080"/><stop offset="0.656652" stop-color="#7F7F7F"/><stop offset="0.660944" stop-color="#7E7E7E"/><stop offset="0.665236" stop-color="#7D7D7D"/><stop offset="0.669528" stop-color="#7B7B7B"/><stop offset="0.67382" stop-color="#7A7A7A"/><stop offset="0.678112" stop-color="#797979"/><stop offset="0.682403" stop-color="#777777"/><stop offset="0.686695" stop-color="#767676"/><stop offset="0.690987" stop-color="#747474"/><stop offset="0.695279" stop-color="#737373"/><stop offset="0.699571" stop-color="#727272"/><stop offset="0.703863" stop-color="#707070"/><stop offset="0.708154" stop-color="#6F6F6F"/><stop offset="0.712446" stop-color="#6E6E6E"/><stop offset="0.716738" stop-color="#6C6C6C"/><stop offset="0.72103" stop-color="#6B6B6B"/><stop offset="0.725322" stop-color="#696969"/><stop offset="0.729614" stop-color="#686868"/><stop offset="0.733906" stop-color="#666666"/><stop offset="0.738197" stop-color="#656565"/><stop offset="0.742489" stop-color="#646464"/><stop offset="0.746781" stop-color="#626262"/><stop offset="0.751073" stop-color="#616161"/><stop offset="0.755365" stop-color="#5F5F5F"/><stop offset="0.759657" stop-color="#5E5E5E"/><stop offset="0.763949" stop-color="#5C5C5C"/><stop offset="0.76824" stop-color="#5B5B5B"/><stop offset="0.772532" stop-color="#595959"/><stop offset="0.776824" stop-color="#585858"/><stop offset="0.781116" stop-color="#565656"/><stop offset="0.785408" stop-color="#555555"/><stop offset="0.7897" stop-color="#535353"/><stop offset="0.793991" stop-color="#525252"/><stop offset="0.798283" stop-color="#505050"/><stop offset="0.802575" stop-color="#4F4F4F"/><stop offset="0.806867" stop-color="#4D4D4D"/><stop offset="0.811159" stop-color="#4B4B4B"/><stop offset="0.815451" stop-color="#4A4A4A"/><stop offset="0.819743" stop-color="#484848"/><stop offset="0.824034" stop-color="#474747"/><stop offset="0.828326" stop-color="#454545"/><stop offset="0.832618" stop-color="#444444"/><stop offset="0.83691" stop-color="#424242"/><stop offset="0.841202" stop-color="#404040"/><stop offset="0.845494" stop-color="#3F3F3F"/><stop offset="0.849785" stop-color="#3D3D3D"/><stop offset="0.854077" stop-color="#3B3B3B"/><stop offset="0.858369" stop-color="#3A3A3A"/><stop offset="0.862661" stop-color="#383838"/><stop offset="0.866953" stop-color="#363636"/><stop offset="0.871245" stop-color="#353535"/><stop offset="0.875537" stop-color="#333333"/><stop offset="0.879828" stop-color="#313131"/><stop offset="0.88412" stop-color="#303030"/><stop offset="0.888412" stop-color="#2E2E2E"/><stop offset="0.892704" stop-color="#2C2C2C"/><stop offset="0.896996" stop-color="#2B2B2B"/><stop offset="0.901288" stop-color="#292929"/><stop offset="0.905579" stop-color="#272727"/><stop offset="0.909871" stop-color="#252525"/><stop offset="0.914163" stop-color="#242424"/><stop offset="0.918455" stop-color="#222222"/><stop offset="0.922747" stop-color="#202020"/><stop offset="0.927039" stop-color="#1E1E1E"/><stop offset="0.93133" stop-color="#1D1D1D"/><stop offset="0.935622" stop-color="#1B1B1B"/><stop offset="0.939914" stop-color="#191919"/><stop offset="0.944206" stop-color="#171717"/><stop offset="0.948498" stop-color="#161616"/><stop offset="0.95279" stop-color="#141414"/><stop offset="0.957082" stop-color="#121212"/><stop offset="0.961373" stop-color="#101010"/><stop offset="0.965665" stop-color="#0E0E0E"/><stop offset="0.969957" stop-color="#0D0D0D"/><stop offset="0.974249" stop-color="#0B0B0B"/><stop offset="0.978541" stop-color="#090909"/><stop offset="0.982833" stop-color="#070707"/><stop offset="0.987124" stop-color="#050505"/><stop offset="0.991416" stop-color="#030303"/><stop offset="0.995708" stop-color="#010101"/><stop offset="1"/></linearGradient><linearGradient x1="284" y1="453" x2="316" y2="453" gradientUnits="userSpaceOnUse" spreadMethod="reflect" id="fill1"><stop offset="0" stop-color="#EAEAEA"/><stop offset="0.00429185" stop-color="#E9E9E9"/><stop offset="0.00858369" stop-color="#E9E9E9"/><stop offset="0.0128755" stop-color="#E9E9E9"/><stop offset="0.0171674" stop-color="#E9E9E9"/><stop offset="0.0214592" stop-color="#E9E9E9"/><stop offset="0.0257511" stop-color="#E9E9E9"/><stop offset="0.0300429" stop-color="#E9E9E9"/><stop offset="0.0343348" stop-color="#E9E9E9"/><stop offset="0.0386266" stop-color="#E9E9E9"/><stop offset="0.0429185" stop-color="#E9E9E9"/><stop offset="0.0472103" stop-color="#E9E9E9"/><stop offset="0.0515021" stop-color="#E9E9E9"/><stop offset="0.055794" stop-color="#E8E8E8"/><stop offset="0.0600858" stop-color="#E8E8E8"/><stop offset="0.0643777" stop-color="#E8E8E8"/><stop offset="0.0686695" stop-color="#E8E8E8"/><stop offset="0.0729614" stop-color="#E8E8E8"/><stop offset="0.0772532" stop-color="#E8E8E8"/><stop offset="0.0815451" stop-color="#E7E7E7"/><stop offset="0.0858369" stop-color="#E7E7E7"/><stop offset="0.0901288" stop-color="#E7E7E7"/><stop offset="0.0944206" stop-color="#E7E7E7"/><stop offset="0.0987124" stop-color="#E6E6E6"/><stop offset="0.103004" stop-color="#E6E6E6"/><stop offset="0.107296" stop-color="#E6E6E6"/><stop offset="0.111588" stop-color="#E6E6E6"/><stop offset="0.11588" stop-color="#E5E5E5"/><stop offset="0.120172" stop-color="#E5E5E5"/><stop offset="0.124464" stop-color="#E5E5E5"/><stop offset="0.128755" stop-color="#E4E4E4"/><stop offset="0.133047" stop-color="#E4E4E4"/><stop offset="0.137339" stop-color="#E4E4E4"/><stop offset="0.141631" stop-color="#E4E4E4"/><stop offset="0.145923" stop-color="#E3E3E3"/><stop offset="0.150215" stop-color="#E3E3E3"/><stop offset="0.154506" stop-color="#E2E2E2"/><stop offset="0.158798" stop-color="#E2E2E2"/><stop offset="0.16309" stop-color="#E2E2E2"/><stop offset="0.167382" stop-color="#E1E1E1"/><stop offset="0.171674" stop-color="#E1E1E1"/><stop offset="0.175966" stop-color="#E0E0E0"/><stop offset="0.180258" stop-color="#E0E0E0"/><stop offset="0.184549" stop-color="#E0E0E0"/><stop offset="0.188841" stop-color="#DFDFDF"/><stop offset="0.193133" stop-color="#DFDFDF"/><stop offset="0.197425" stop-color="#DEDEDE"/><stop offset="0.201717" stop-color="#DEDEDE"/><stop offset="0.206009" stop-color="#DDDDDD"/><stop offset="0.2103" stop-color="#DDDDDD"/><stop offset="0.214592" stop-color="#DCDCDC"/><stop offset="0.218884" stop-color="#DCDCDC"/><stop offset="0.223176" stop-color="#DBDBDB"/><stop offset="0.227468" stop-color="#DBDBDB"/><stop offset="0.23176" stop-color="#DADADA"/><stop offset="0.236051" stop-color="#DADADA"/><stop offset="0.240343" stop-color="#D9D9D9"/><stop offset="0.244635" stop-color="#D9D9D9"/><stop offset="0.248927" stop-color="#D8D8D8"/><stop offset="0.253219" stop-color="#D8D8D8"/><stop offset="0.257511" stop-color="#D7D7D7"/><stop offset="0.261803" stop-color="#D7D7D7"/><stop offset="0.266094" stop-color="#D6D6D6"/><stop offset="0.270386" stop-color="#D5D5D5"/><stop offset="0.274678" stop-color="#D5D5D5"/><stop offset="0.27897" stop-color="#D4D4D4"/><stop offset="0.283262" stop-color="#D4D4D4"/><stop offset="0.287554" stop-color="#D3D3D3"/><stop offset="0.291846" stop-color="#D2D2D2"/><stop offset="0.296137" stop-color="#D2D2D2"/><stop offset="0.300429" stop-color="#D1D1D1"/><stop offset="0.304721" stop-color="#D0D0D0"/><stop offset="0.309013" stop-color="#D0D0D0"/><stop offset="0.313305" stop-color="#CFCFCF"/><stop offset="0.317597" stop-color="#CECECE"/><stop offset="0.321888" stop-color="#CECECE"/><stop offset="0.32618" stop-color="#CDCDCD"/><stop offset="0.330472" stop-color="#CCCCCC"/><stop offset="0.334764" stop-color="#CBCBCB"/><stop offset="0.339056" stop-color="#CBCBCB"/><stop offset="0.343348" stop-color="#CACACA"/><stop offset="0.347639" stop-color="#C9C9C9"/><stop offset="0.351931" stop-color="#C8C8C8"/><stop offset="0.356223" stop-color="#C8C8C8"/><stop offset="0.360515" stop-color="#C7C7C7"/><stop offset="0.364807" stop-color="#C6C6C6"/><stop offset="0.369099" stop-color="#C5C5C5"/><stop offset="0.373391" stop-color="#C5C5C5"/><stop offset="0.377682" stop-color="#C4C4C4"/><stop offset="0.381974" stop-color="#C3C3C3"/><stop offset="0.386266" stop-color="#C2C2C2"/><stop offset="0.390558" stop-color="#C1C1C1"/><stop offset="0.39485" stop-color="#C1C1C1"/><stop offset="0.399142" stop-color="#C0C0C0"/><stop offset="0.403433" stop-color="#BFBFBF"/><stop offset="0.407725" stop-color="#BEBEBE"/><stop offset="0.412017" stop-color="#BDBDBD"/><stop offset="0.416309" stop-color="#BCBCBC"/><stop offset="0.420601" stop-color="#BBBBBB"/><stop offset="0.424893" stop-color="#BABABA"/><stop offset="0.429185" stop-color="#BABABA"/><stop offset="0.433476" stop-color="#B9B9B9"/><stop offset="0.437768" stop-color="#B8B8B8"/><stop offset="0.44206" stop-color="#B7B7B7"/><stop offset="0.446352" stop-color="#B6B6B6"/><stop offset="0.450644" stop-color="#B5B5B5"/><stop offset="0.454936" stop-color="#B4B4B4"/><stop offset="0.459227" stop-color="#B3B3B3"/><stop offset="0.463519" stop-color="#B2B2B2"/><stop offset="0.467811" stop-color="#B1B1B1"/><stop offset="0.472103" stop-color="#B0B0B0"/><stop offset="0.476395" stop-color="#AFAFAF"/><stop offset="0.480687" stop-color="#AEAEAE"/><stop offset="0.484979" stop-color="#ADADAD"/><stop offset="0.48927" stop-color="#ACACAC"/><stop offset="0.493562" stop-color="#ABABAB"/><stop offset="0.497854" stop-color="#AAAAAA"/><stop offset="0.502146" stop-color="#A9A9A9"/><stop offset="0.506438" stop-color="#A8A8A8"/><stop offset="0.51073" stop-color="#A7A7A7"/><stop offset="0.515021" stop-color="#A6A6A6"/><stop offset="0.519313" stop-color="#A5A5A5"/><stop offset="0.523605" stop-color="#A4A4A4"/><stop offset="0.527897" stop-color="#A3A3A3"/><stop offset="0.532189" stop-color="#A2A2A2"/><stop offset="0.536481" stop-color="#A1A1A1"/><stop offset="0.540773" stop-color="#A0A0A0"/><stop offset="0.545064" stop-color="#9F9F9F"/><stop offset="0.549356" stop-color="#9D9D9D"/><stop offset="0.553648" stop-color="#9C9C9C"/><stop offset="0.55794" stop-color="#9B9B9B"/><stop offset="0.562232" stop-color="#9A9A9A"/><stop offset="0.566524" stop-color="#999999"/><stop offset="0.570815" stop-color="#989898"/><stop offset="0.575107" stop-color="#979797"/><stop offset="0.579399" stop-color="#959595"/><stop offset="0.583691" stop-color="#949494"/><stop offset="0.587983" stop-color="#939393"/><stop offset="0.592275" stop-color="#929292"/><stop offset="0.596566" stop-color="#919191"/><stop offset="0.600858" stop-color="#8F8F8F"/><stop offset="0.60515" stop-color="#8E8E8E"/><stop offset="0.609442" stop-color="#8D8D8D"/><stop offset="0.613734" stop-color="#8C8C8C"/><stop offset="0.618026" stop-color="#8B8B8B"/><stop offset="0.622318" stop-color="#898989"/><stop offset="0.626609" stop-color="#888888"/><stop offset="0.630901" stop-color="#878787"/><stop offset="0.635193" stop-color="#868686"/><stop offset="0.639485" stop-color="#848484"/><stop offset="0.643777" stop-color="#838383"/><stop offset="0.648069" stop-color="#828282"/><stop offset="0.65236" stop-color="#808080"/><stop offset="0.656652" stop-color="#7F7F7F"/><stop offset="0.660944" stop-color="#7E7E7E"/><stop offset="0.665236" stop-color="#7D7D7D"/><stop offset="0.669528" stop-color="#7B7B7B"/><stop offset="0.67382" stop-color="#7A7A7A"/><stop offset="0.678112" stop-color="#797979"/><stop offset="0.682403" stop-color="#777777"/><stop offset="0.686695" stop-color="#767676"/><stop offset="0.690987" stop-color="#747474"/><stop offset="0.695279" stop-color="#737373"/><stop offset="0.699571" stop-color="#727272"/><stop offset="0.703863" stop-color="#707070"/><stop offset="0.708154" stop-color="#6F6F6F"/><stop offset="0.712446" stop-color="#6E6E6E"/><stop offset="0.716738" stop-color="#6C6C6C"/><stop offset="0.72103" stop-color="#6B6B6B"/><stop offset="0.725322" stop-color="#696969"/><stop offset="0.729614" stop-color="#686868"/><stop offset="0.733906" stop-color="#666666"/><stop offset="0.738197" stop-color="#656565"/><stop offset="0.742489" stop-color="#646464"/><stop offset="0.746781" stop-color="#626262"/><stop offset="0.751073" stop-color="#616161"/><stop offset="0.755365" stop-color="#5F5F5F"/><stop offset="0.759657" stop-color="#5E5E5E"/><stop offset="0.763949" stop-color="#5C5C5C"/><stop offset="0.76824" stop-color="#5B5B5B"/><stop offset="0.772532" stop-color="#595959"/><stop offset="0.776824" stop-color="#585858"/><stop offset="0.781116" stop-color="#565656"/><stop offset="0.785408" stop-color="#555555"/><stop offset="0.7897" stop-color="#535353"/><stop offset="0.793991" stop-color="#525252"/><stop offset="0.798283" stop-color="#505050"/><stop offset="0.802575" stop-color="#4F4F4F"/><stop offset="0.806867" stop-color="#4D4D4D"/><stop offset="0.811159" stop-color="#4B4B4B"/><stop offset="0.815451" stop-color="#4A4A4A"/><stop offset="0.819743" stop-color="#484848"/><stop offset="0.824034" stop-color="#474747"/><stop offset="0.828326" stop-color="#454545"/><stop offset="0.832618" stop-color="#444444"/><stop offset="0.83691" stop-color="#424242"/><stop offset="0.841202" stop-color="#404040"/><stop offset="0.845494" stop-color="#3F3F3F"/><stop offset="0.849785" stop-color="#3D3D3D"/><stop offset="0.854077" stop-color="#3B3B3B"/><stop offset="0.858369" stop-color="#3A3A3A"/><stop offset="0.862661" stop-color="#383838"/><stop offset="0.866953" stop-color="#363636"/><stop offset="0.871245" stop-color="#353535"/><stop offset="0.875537" stop-color="#333333"/><stop offset="0.879828" stop-color="#313131"/><stop offset="0.88412" stop-color="#303030"/><stop offset="0.888412" stop-color="#2E2E2E"/><stop offset="0.892704" stop-color="#2C2C2C"/><stop offset="0.896996" stop-color="#2B2B2B"/><stop offset="0.901288" stop-color="#292929"/><stop offset="0.905579" stop-color="#272727"/><stop offset="0.909871" stop-color="#252525"/><stop offset="0.914163" stop-color="#242424"/><stop offset="0.918455" stop-color="#222222"/><stop offset="0.922747" stop-color="#202020"/><stop offset="0.927039" stop-color="#1E1E1E"/><stop offset="0.93133" stop-color="#1D1D1D"/><stop offset="0.935622" stop-color="#1B1B1B"/><stop offset="0.939914" stop-color="#191919"/><stop offset="0.944206" stop-color="#171717"/><stop offset="0.948498" stop-color="#161616"/><stop offset="0.95279" stop-color="#141414"/><stop offset="0.957082" stop-color="#121212"/><stop offset="0.961373" stop-color="#101010"/><stop offset="0.965665" stop-color="#0E0E0E"/><stop offset="0.969957" stop-color="#0D0D0D"/><stop offset="0.974249" stop-color="#0B0B0B"/><stop offset="0.978541" stop-color="#090909"/><stop offset="0.982833" stop-color="#070707"/><stop offset="0.987124" stop-color="#050505"/><stop offset="0.991416" stop-color="#030303"/><stop offset="0.995708" stop-color="#010101"/><stop offset="1"/></linearGradient></defs><g transform="translate(-39 -148)"><rect x="42" y="148" width="237" height="197" fill="#CCCCFF"/><text font-family="Arial,Arial_MSFontService,sans-serif" font-weight="400" font-size="20" transform="translate(51.6636 192)">Netlist:</text><text fill="#CC0000" font-family="Arial,Arial_MSFontService,sans-serif" font-style="italic" font-weight="400" font-size="20" transform="translate(59.3303 229)">N</text><text fill="#CC0000" font-family="Arial,Arial_MSFontService,sans-serif" font-weight="400" font-size="13" transform="translate(73.8303 233)">1</text><text fill="#CC0000" font-family="Arial,Arial_MSFontService,sans-serif" font-weight="400" font-size="20" transform="translate(86.6636 229)">= {</text><text fill="#CC0000" font-family="Arial,Arial_MSFontService,sans-serif" font-style="italic" font-weight="400" font-size="20" transform="translate(110.497 229)">C</text><text fill="#CC0000" font-family="Arial,Arial_MSFontService,sans-serif" font-weight="400" font-size="13" transform="translate(124.997 233)">4</text><text fill="#CC0000" font-family="Arial,Arial_MSFontService,sans-serif" font-weight="400" font-size="20" transform="translate(132.33 229)">,</text><text fill="#CC0000" font-family="Arial,Arial_MSFontService,sans-serif" font-style="italic" font-weight="400" font-size="20" transform="translate(143.33 229)">D</text><text fill="#CC0000" font-family="Arial,Arial_MSFontService,sans-serif" font-weight="400" font-size="13" transform="translate(157.83 233)">6</text><text fill="#CC0000" font-family="Arial,Arial_MSFontService,sans-serif" font-weight="400" font-size="20" transform="translate(165.164 229)">,</text><text fill="#CC0000" font-family="Arial,Arial_MSFontService,sans-serif" font-style="italic" font-weight="400" font-size="20" transform="translate(176.164 229)">B</text><text fill="#CC0000" font-family="Arial,Arial_MSFontService,sans-serif" font-weight="400" font-size="13" transform="translate(189.497 233)">3</text><text fill="#CC0000" font-family="Arial,Arial_MSFontService,sans-serif" font-weight="400" font-size="20" transform="translate(196.83 229)">}</text><text fill="#CC00CC" font-family="Arial,Arial_MSFontService,sans-serif" font-style="italic" font-weight="400" font-size="20" transform="translate(59.3303 260)">N</text><text fill="#CC00CC" font-family="Arial,Arial_MSFontService,sans-serif" font-weight="400" font-size="13" transform="translate(73.8303 264)">2</text><text fill="#CC00CC" font-family="Arial,Arial_MSFontService,sans-serif" font-weight="400" font-size="20" transform="translate(86.6636 260)">= {</text><text fill="#CC00CC" font-family="Arial,Arial_MSFontService,sans-serif" font-style="italic" font-weight="400" font-size="20" transform="translate(110.497 260)">D</text><text fill="#CC00CC" font-family="Arial,Arial_MSFontService,sans-serif" font-weight="400" font-size="13" transform="translate(124.997 264)">4</text><text fill="#CC00CC" font-family="Arial,Arial_MSFontService,sans-serif" font-weight="400" font-size="20" transform="translate(132.33 260)">,</text><text fill="#CC00CC" font-family="Arial,Arial_MSFontService,sans-serif" font-style="italic" font-weight="400" font-size="20" transform="translate(143.33 260)">B</text><text fill="#CC00CC" font-family="Arial,Arial_MSFontService,sans-serif" font-weight="400" font-size="13" transform="translate(156.664 264)">4</text><text fill="#CC00CC" font-family="Arial,Arial_MSFontService,sans-serif" font-weight="400" font-size="20" transform="translate(163.997 260)">,</text><text fill="#CC00CC" font-family="Arial,Arial_MSFontService,sans-serif" font-style="italic" font-weight="400" font-size="20" transform="translate(174.997 260)">C</text><text fill="#CC00CC" font-family="Arial,Arial_MSFontService,sans-serif" font-weight="400" font-size="13" transform="translate(189.497 264)">1</text><text fill="#CC00CC" font-family="Arial,Arial_MSFontService,sans-serif" font-weight="400" font-size="20" transform="translate(196.83 260)">,</text><text fill="#CC00CC" font-family="Arial,Arial_MSFontService,sans-serif" font-style="italic" font-weight="400" font-size="20" transform="translate(207.83 260)">A</text><text fill="#CC00CC" font-family="Arial,Arial_MSFontService,sans-serif" font-weight="400" font-size="13" transform="translate(221.164 264)">4</text><text fill="#CC00CC" font-family="Arial,Arial_MSFontService,sans-serif" font-weight="400" font-size="20" transform="translate(228.497 260)">}</text><text fill="#0000CC" font-family="Arial,Arial_MSFontService,sans-serif" font-style="italic" font-weight="400" font-size="20" transform="translate(59.3303 291)">N</text><text fill="#0000CC" font-family="Arial,Arial_MSFontService,sans-serif" font-weight="400" font-size="13" transform="translate(73.8303 295)">3</text><text fill="#0000CC" font-family="Arial,Arial_MSFontService,sans-serif" font-weight="400" font-size="20" transform="translate(86.6636 291)">= {</text><text fill="#0000CC" font-family="Arial,Arial_MSFontService,sans-serif" font-style="italic" font-weight="400" font-size="20" transform="translate(110.497 291)">C</text><text fill="#0000CC" font-family="Arial,Arial_MSFontService,sans-serif" font-weight="400" font-size="13" transform="translate(124.997 295)">2</text><text fill="#0000CC" font-family="Arial,Arial_MSFontService,sans-serif" font-weight="400" font-size="20" transform="translate(132.33 291)">,</text><text fill="#0000CC" font-family="Arial,Arial_MSFontService,sans-serif" font-style="italic" font-weight="400" font-size="20" transform="translate(143.33 291)">D</text><text fill="#0000CC" font-family="Arial,Arial_MSFontService,sans-serif" font-weight="400" font-size="13" transform="translate(157.83 295)">5</text><text fill="#0000CC" font-family="Arial,Arial_MSFontService,sans-serif" font-weight="400" font-size="20" transform="translate(165.164 291)">}</text><text fill="#336600" font-family="Arial,Arial_MSFontService,sans-serif" font-style="italic" font-weight="400" font-size="20" transform="translate(59.3303 322)">N</text><text fill="#336600" font-family="Arial,Arial_MSFontService,sans-serif" font-weight="400" font-size="13" transform="translate(73.8303 326)">4</text><text fill="#336600" font-family="Arial,Arial_MSFontService,sans-serif" font-weight="400" font-size="20" transform="translate(86.6636 322)">= {</text><text fill="#336600" font-family="Arial,Arial_MSFontService,sans-serif" font-style="italic" font-weight="400" font-size="20" transform="translate(110.497 322)">B</text><text fill="#336600" font-family="Arial,Arial_MSFontService,sans-serif" font-weight="400" font-size="13" transform="translate(123.83 326)">1</text><text fill="#336600" font-family="Arial,Arial_MSFontService,sans-serif" font-weight="400" font-size="20" transform="translate(131.164 322)">,</text><text fill="#336600" font-family="Arial,Arial_MSFontService,sans-serif" font-style="italic" font-weight="400" font-size="20" transform="translate(142.164 322)">A</text><text fill="#336600" font-family="Arial,Arial_MSFontService,sans-serif" font-weight="400" font-size="13" transform="translate(155.497 326)">1</text><text fill="#336600" font-family="Arial,Arial_MSFontService,sans-serif" font-weight="400" font-size="20" transform="translate(162.83 322)">,</text><text fill="#336600" font-family="Arial,Arial_MSFontService,sans-serif" font-style="italic" font-weight="400" font-size="20" transform="translate(173.83 322)">C</text><text fill="#336600" font-family="Arial,Arial_MSFontService,sans-serif" font-weight="400" font-size="13" transform="translate(188.33 326)">3</text><text fill="#336600" font-family="Arial,Arial_MSFontService,sans-serif" font-weight="400" font-size="20" transform="translate(195.664 322)">}</text><path d="M285 255 309 255 309 239 317 271 309 303 309 287 285 287Z" fill="url(#fill0)" fill-rule="evenodd"/><rect x="42" y="397" width="237" height="107" fill="#CCCCFF"/><text font-family="Arial,Arial_MSFontService,sans-serif" font-weight="400" font-size="20" transform="translate(51.6636 441)">Technology Information</text><text font-family="Arial,Arial_MSFontService,sans-serif" font-weight="400" font-size="20" transform="translate(51.6636 462)">(Design Rules)</text><path d="M284 437 308 437 308 421 316 453 308 485 308 469 284 469Z" fill="url(#fill1)" fill-rule="evenodd"/><rect x="330.5" y="210.5" width="384" height="295" stroke="#969696" stroke-miterlimit="8" fill="#DDDDDD"/><rect x="0" y="0" width="384" height="295" stroke="#000000" stroke-miterlimit="8" fill="#DDDDDD" transform="matrix(-1 0 0 1 714.5 210.5)"/><rect x="562" y="415" width="125" height="66" fill="#B2B2B2"/><rect x="562" y="260" width="88" height="66" fill="#B2B2B2"/><rect x="407" y="377" width="66" height="87" fill="#B2B2B2"/><rect x="407" y="277" width="66" height="87" fill="#B2B2B2"/><path d="M4.03796e-06-1.5 12-1.49997 12 1.50003-4.03796e-06 1.5ZM21-1.49994 33-1.49991 33 1.50009 21 1.50006ZM39-4.4999C41.4853-4.49989 43.5-2.48516 43.5 0.000117101 43.5 2.4854 41.4853 4.50011 39 4.5001 36.5147 4.5001 34.5 2.48537 34.5 9.2873e-05 34.5-2.48519 36.5147-4.4999 39-4.4999Z" transform="matrix(-1 0 0 1 407.5 300.5)"/><text font-family="Arial,Arial_MSFontService,sans-serif" font-style="italic" font-weight="400" font-size="24" transform="translate(596.917 299)">C</text><text font-family="Arial,Arial_MSFontService,sans-serif" font-style="italic" font-weight="400" font-size="24" transform="translate(615.333 457)">D</text><text font-family="Arial,Arial_MSFontService,sans-serif" font-style="italic" font-weight="400" font-size="24" transform="translate(431.583 329)">A</text><text font-family="Arial,Arial_MSFontService,sans-serif" font-style="italic" font-weight="400" font-size="24" transform="translate(431.583 425)">B</text><rect x="0" y="0" width="17" height="16" stroke="#000000" stroke-miterlimit="8" fill="#C0C0C0" transform="matrix(-1 0 0 1 636.5 261.5)"/><rect x="0" y="0" width="16" height="16" stroke="#000000" stroke-miterlimit="8" fill="#C0C0C0" transform="matrix(-1 0 0 1 596.5 261.5)"/><rect x="0" y="0" width="17" height="16" stroke="#000000" stroke-miterlimit="8" fill="#C0C0C0" transform="matrix(-1 0 0 1 636.5 309.5)"/><rect x="0" y="0" width="16" height="16" stroke="#000000" stroke-miterlimit="8" fill="#C0C0C0" transform="matrix(-1 0 0 1 596.5 309.5)"/><rect x="0" y="0" width="16" height="16" stroke="#000000" stroke-miterlimit="8" fill="#C0C0C0" transform="matrix(-1 0 0 1 677.5 464.5)"/><rect x="0" y="0" width="16" height="16" stroke="#000000" stroke-miterlimit="8" fill="#C0C0C0" transform="matrix(-1 0 0 1 635.5 464.5)"/><rect x="0" y="0" width="16" height="16" stroke="#000000" stroke-miterlimit="8" fill="#C0C0C0" transform="matrix(-1 0 0 1 596.5 464.5)"/><rect x="0" y="0" width="16" height="16" stroke="#000000" stroke-miterlimit="8" fill="#C0C0C0" transform="matrix(-1 0 0 1 472.5 293.5)"/><rect x="0" y="0" width="16" height="16" stroke="#000000" stroke-miterlimit="8" fill="#C0C0C0" transform="matrix(-1 0 0 1 472.5 337.5)"/><rect x="0" y="0" width="17" height="16" stroke="#000000" stroke-miterlimit="8" fill="#C0C0C0" transform="matrix(-1 0 0 1 424.5 293.5)"/><rect x="0" y="0" width="17" height="16" stroke="#000000" stroke-miterlimit="8" fill="#C0C0C0" transform="matrix(-1 0 0 1 424.5 337.5)"/><rect x="0" y="0" width="16" height="16" stroke="#000000" stroke-miterlimit="8" fill="#C0C0C0" transform="matrix(-1 0 0 1 472.5 392.5)"/><rect x="0" y="0" width="16" height="16" stroke="#000000" stroke-miterlimit="8" fill="#C0C0C0" transform="matrix(-1 0 0 1 472.5 433.5)"/><rect x="0" y="0" width="17" height="16" stroke="#000000" stroke-miterlimit="8" fill="#C0C0C0" transform="matrix(-1 0 0 1 424.5 392.5)"/><rect x="0" y="0" width="17" height="16" stroke="#000000" stroke-miterlimit="8" fill="#C0C0C0" transform="matrix(-1 0 0 1 424.5 433.5)"/><text font-family="Arial,Arial_MSFontService,sans-serif" font-weight="400" font-size="17" transform="translate(622.333 275)">4</text><text font-family="Arial,Arial_MSFontService,sans-serif" font-weight="400" font-size="17" transform="translate(582.667 275)">3</text><text font-family="Arial,Arial_MSFontService,sans-serif" font-weight="400" font-size="17" transform="translate(622.333 323)">2</text><text font-family="Arial,Arial_MSFontService,sans-serif" font-weight="400" font-size="17" transform="translate(582.667 323)">1</text><text font-family="Arial,Arial_MSFontService,sans-serif" font-weight="400" font-size="17" transform="translate(458.667 351)">4</text><text font-family="Arial,Arial_MSFontService,sans-serif" font-weight="400" font-size="17" transform="translate(458.667 407)">3</text><text font-family="Arial,Arial_MSFontService,sans-serif" font-weight="400" font-size="17" transform="translate(458.667 448)">4</text><text font-family="Arial,Arial_MSFontService,sans-serif" font-weight="400" font-size="17" transform="translate(411.5 406)">1</text><text font-family="Arial,Arial_MSFontService,sans-serif" font-weight="400" font-size="17" transform="translate(411.5 306)">1</text><path d="M0 0 1 105" stroke="#0000CC" stroke-width="3" stroke-linejoin="round" stroke-miterlimit="10" fill="none" fill-rule="evenodd" transform="matrix(-1 0 0 1 628.5 325.5)"/><path d="M0 0 0.000104987 101" stroke="#CC00CC" stroke-width="3" stroke-linejoin="round" stroke-miterlimit="10" fill="none" fill-rule="evenodd" transform="matrix(-1 0 0 1 589.5 325.5)"/><path d="M472.5 344 484.5 344 484.5 347 472.5 347ZM493.5 344 505.5 344 505.5 347 493.5 347ZM514.5 344 526.5 344 526.5 347 514.5 347ZM535.5 344 547.5 344 547.5 347 535.5 347ZM556.5 344 568.5 344 568.5 347 556.5 347ZM577.5 344 589.5 344 589.5 347 577.5 347ZM589.5 341C591.985 341 594 343.015 594 345.5 594 347.985 591.985 350 589.5 350 587.015 350 585 347.985 585 345.5 585 343.015 587.015 341 589.5 341Z" fill="#CC00CC"/><path d="M472.5 440 484.5 440 484.5 443 472.5 443ZM493.5 440 505.5 440 505.5 443 493.5 443ZM514.5 440 526.5 440 526.5 443 514.5 443ZM528.5 437C530.985 437 533 439.015 533 441.5 533 443.985 530.985 446 528.5 446 526.015 446 524 443.985 524 441.5 524 439.015 526.015 437 528.5 437Z" fill="#CC00CC"/><path d="M589.5 261.5 589.5 236.5" stroke="#000000" stroke-width="3" stroke-linejoin="round" stroke-miterlimit="10" fill="none" fill-rule="evenodd"/><path d="M7.12581e-07-1.5 12-1.49999 12 1.50001-7.12581e-07 1.5ZM21-1.49999 33-1.49998 33 1.50002 21 1.50001ZM42-1.49998 54-1.49997 54 1.50003 42 1.50002ZM63-1.49997 75-1.49996 75 1.50004 63 1.50003ZM84-1.49996 96-1.49995 96 1.50005 84 1.50004ZM105-1.49995 117-1.49994 117 1.50006 105 1.50005ZM126-1.49994 138-1.49993 138 1.50007 126 1.50006ZM147-1.49993 159-1.49992 159 1.50008 147 1.50007ZM168-1.49992 180-1.49991 180 1.50009 168 1.50008ZM189-1.49991 201-1.4999 201 1.5001 189 1.50009ZM210-1.4999 221-1.49989 221 1.5001 210 1.5001ZM-2.13774e-06 4.5C-2.48528 4.5-4.5 2.48528-4.5-2.13774e-06-4.5-2.48528-2.48528-4.5 2.13774e-06-4.5 2.48528-4.5 4.5-2.48528 4.5 2.13774e-06 4.5 2.48528 2.48528 4.5-2.13774e-06 4.5ZM221-4.4999C223.485-4.49989 225.5-2.48517 225.5 0.000107125 225.5 2.48539 223.485 4.50011 221 4.5001 218.515 4.5001 216.5 2.48538 216.5 0.000102849 216.5-2.48518 218.515-4.4999 221-4.4999Z" fill="#336600" transform="matrix(-1 0 0 1 589.5 236.5)"/><path d="M0 0 0.000104987 163" stroke="#336600" stroke-width="3" stroke-linejoin="round" stroke-miterlimit="10" fill="none" fill-rule="evenodd" transform="matrix(-1 0 0 1 368.5 236.5)"/><path d="M4.03796e-06-1.5 12-1.49997 12 1.50003-4.03796e-06 1.5ZM21-1.49994 33-1.49991 33 1.50009 21 1.50006ZM39-4.4999C41.4853-4.49989 43.5-2.48516 43.5 0.000117101 43.5 2.4854 41.4853 4.50011 39 4.5001 36.5147 4.5001 34.5 2.48537 34.5 9.2873e-05 34.5-2.48519 36.5147-4.4999 39-4.4999Z" fill="#336600" transform="matrix(-1 0 0 1 407.5 399.5)"/><rect x="0" y="0" width="16" height="16" stroke="#000000" stroke-miterlimit="8" fill="#C0C0C0" transform="matrix(-1 0 0 1 677.5 415.5)"/><rect x="0" y="0" width="17" height="16" stroke="#000000" stroke-miterlimit="8" fill="#C0C0C0" transform="matrix(-1 0 0 1 636.5 415.5)"/><rect x="0" y="0" width="16" height="16" stroke="#000000" stroke-miterlimit="8" fill="#C0C0C0" transform="matrix(-1 0 0 1 596.5 415.5)"/><text font-family="Arial,Arial_MSFontService,sans-serif" font-weight="400" font-size="17" transform="translate(662.333 430)">6</text><text font-family="Arial,Arial_MSFontService,sans-serif" font-weight="400" font-size="17" transform="translate(622.333 430)">5</text><text font-family="Arial,Arial_MSFontService,sans-serif" font-weight="400" font-size="17" transform="translate(582.5 430)">4</text><path d="M1.5-2.49969e-06 1.5001 63-1.49989 63-1.5 2.49969e-06ZM-4.5 7.49906e-06C-4.5-2.48527-2.48529-4.5-7.49906e-06-4.5 2.48527-4.5 4.5-2.48529 4.5-7.49906e-06 4.5 2.48527 2.48529 4.5 7.49906e-06 4.5-2.48527 4.5-4.5 2.48529-4.5 7.49906e-06ZM4.5001 63C4.50011 65.4853 2.48539 67.5 0.000112486 67.5-2.48517 67.5-4.49989 65.4853-4.4999 63-4.4999 60.5147-2.48518 58.5 9.74878e-05 58.5 2.48538 58.5 4.5001 60.5147 4.5001 63Z" fill="#CC00CC" transform="matrix(1 0 0 -1 528.5 441.5)"/><path d="M528.5 377 540.5 377 540.5 380 528.5 380ZM549.5 377 561.5 377 561.5 380 549.5 380ZM570.5 377 582.5 377 582.5 380 570.5 380ZM590.5 374C592.985 374 595 376.015 595 378.5 595 380.985 592.985 383 590.5 383 588.015 383 586 380.985 586 378.5 586 376.015 588.015 374 590.5 374Z" fill="#CC00CC"/><text fill="#CC00CC" font-family="Arial,Arial_MSFontService,sans-serif" font-style="italic" font-weight="400" font-size="20" transform="translate(554.164 370)">N</text><text fill="#CC00CC" font-family="Arial,Arial_MSFontService,sans-serif" font-weight="400" font-size="13" transform="translate(568.664 374)">2</text><text fill="#0000CC" font-family="Arial,Arial_MSFontService,sans-serif" font-style="italic" font-weight="400" font-size="20" transform="translate(634.497 370)">N</text><text fill="#0000CC" font-family="Arial,Arial_MSFontService,sans-serif" font-weight="400" font-size="13" transform="translate(648.997 374)">3</text><text fill="#336600" font-family="Arial,Arial_MSFontService,sans-serif" font-style="italic" font-weight="400" font-size="20" transform="translate(342.33 370)">N</text><text fill="#336600" font-family="Arial,Arial_MSFontService,sans-serif" font-weight="400" font-size="13" transform="translate(356.83 374)">4</text><rect x="583.5" y="370.5" width="12" height="12" stroke="#DFDFDF" stroke-width="0" stroke-miterlimit="8" fill="#DFDFDF"/><rect x="583.5" y="370.5" width="12" height="12" stroke="#000000" stroke-width="3.33333" stroke-miterlimit="8" fill="none"/><rect x="586" y="373" width="6" height="6"/><rect x="362.5" y="394.5" width="12" height="12" stroke="#DFDFDF" stroke-width="0" stroke-miterlimit="8" fill="#DFDFDF"/><rect x="362.5" y="394.5" width="12" height="12" stroke="#000000" stroke-width="3.33333" stroke-miterlimit="8" fill="none"/><rect x="365" y="397" width="6" height="6"/><rect x="361.5" y="292.5" width="12" height="12" stroke="#DFDFDF" stroke-width="0" stroke-miterlimit="8" fill="#DFDFDF"/><rect x="361.5" y="292.5" width="12" height="12" stroke="#000000" stroke-width="3.33333" stroke-miterlimit="8" fill="none"/><rect x="364" y="295" width="6" height="6"/><rect x="362.5" y="231.5" width="13" height="12" stroke="#DFDFDF" stroke-width="0" stroke-miterlimit="8" fill="#DFDFDF"/><rect x="362.5" y="231.5" width="13" height="12" stroke="#000000" stroke-width="3.33333" stroke-miterlimit="8" fill="none"/><rect x="365" y="234" width="7" height="6"/><rect x="584.5" y="338.5" width="12" height="13" stroke="#DFDFDF" stroke-width="0" stroke-miterlimit="8" fill="#DFDFDF"/><rect x="584.5" y="338.5" width="12" height="13" stroke="#000000" stroke-width="3.33333" stroke-miterlimit="8" fill="none"/><rect x="587" y="342" width="6" height="6"/><rect x="583.5" y="230.5" width="12" height="13" stroke="#DFDFDF" stroke-width="0" stroke-miterlimit="8" fill="#DFDFDF"/><rect x="583.5" y="230.5" width="12" height="13" stroke="#000000" stroke-width="3.33333" stroke-miterlimit="8" fill="none"/><rect x="586" y="234" width="6" height="6"/><path d="M472.5 398 484.5 398 484.5 401 472.5 401ZM493.5 398 505.5 398 505.5 401 493.5 401ZM514.5 398 526.5 398 526.5 401 514.5 401ZM535.5 398 547.5 398 547.5 401 535.5 401ZM556.5 398 568.5 398 568.5 401 556.5 401ZM577.5 398 589.5 398 589.5 401 577.5 401ZM598.5 398 610.5 398 610.5 401 598.5 401ZM619.5 398 631.5 398 631.5 401 619.5 401ZM640.5 398 652.5 398 652.5 401 640.5 401ZM661.5 398 669.5 398 669.5 401 661.5 401ZM669.5 395C671.985 395 674 397.015 674 399.5 674 401.985 671.985 404 669.5 404 667.015 404 665 401.985 665 399.5 665 397.015 667.015 395 669.5 395Z" fill="#CC0000"/><path d="M669.5 417.5 669.5 236.5" stroke="#CC0000" stroke-width="3" stroke-linejoin="round" stroke-miterlimit="10" fill="none" fill-rule="evenodd"/><path d="M628.5 261.5 628.5 236.5" stroke="#CC0000" stroke-width="3" stroke-linejoin="round" stroke-miterlimit="10" fill="none" fill-rule="evenodd"/><path d="M3.84098e-06-1.5 12-1.49997 12 1.50003-3.84098e-06 1.5ZM21-1.49995 33-1.49992 33 1.50008 21 1.50005ZM-1.15229e-05 4.5C-2.48529 4.49999-4.50001 2.48527-4.5-1.15229e-05-4.49999-2.48529-2.48527-4.50001 1.15229e-05-4.5 2.48529-4.49999 4.50001-2.48527 4.5 1.15229e-05 4.49999 2.48529 2.48527 4.50001-1.15229e-05 4.5ZM41-4.4999C43.4853-4.49989 45.5-2.48516 45.5 0.00011651 45.5 2.4854 43.4853 4.50011 41 4.5001 38.5147 4.5001 36.5 2.48537 36.5 9.34639e-05 36.5-2.48519 38.5147-4.4999 41-4.4999Z" fill="#CC0000" transform="matrix(-1 0 0 1 669.5 236.5)"/><text fill="#CC0000" font-family="Arial,Arial_MSFontService,sans-serif" font-style="italic" font-weight="400" font-size="20" transform="translate(676.164 370)">N</text><text fill="#CC0000" font-family="Arial,Arial_MSFontService,sans-serif" font-weight="400" font-size="13" transform="translate(690.664 374)">1</text><rect x="660.5" y="230.5" width="13" height="12" stroke="#DFDFDF" stroke-width="0" stroke-miterlimit="8" fill="#DFDFDF"/><rect x="660.5" y="230.5" width="13" height="12" stroke="#000000" stroke-width="3.33333" stroke-miterlimit="8" fill="none"/><rect x="664" y="233" width="6" height="6"/><rect x="622.5" y="230.5" width="13" height="12" stroke="#DFDFDF" stroke-width="0" stroke-miterlimit="8" fill="#DFDFDF"/><rect x="622.5" y="230.5" width="13" height="12" stroke="#000000" stroke-width="3.33333" stroke-miterlimit="8" fill="none"/><rect x="626" y="233" width="6" height="6"/><rect x="662.5" y="394.5" width="13" height="12" stroke="#DFDFDF" stroke-width="0" stroke-miterlimit="8" fill="#DFDFDF"/><rect x="662.5" y="394.5" width="13" height="12" stroke="#000000" stroke-width="3.33333" stroke-miterlimit="8" fill="none"/><rect x="666" y="397" width="6" height="6"/><rect x="522.5" y="433.5" width="12" height="13" stroke="#DFDFDF" stroke-width="0" stroke-miterlimit="8" fill="#DFDFDF"/><rect x="522.5" y="433.5" width="12" height="13" stroke="#000000" stroke-width="3.33333" stroke-miterlimit="8" fill="none"/><rect x="525" y="437" width="6" height="6"/><rect x="522.5" y="371.5" width="12" height="12" stroke="#DFDFDF" stroke-width="0" stroke-miterlimit="8" fill="#DFDFDF"/><rect x="522.5" y="371.5" width="12" height="12" stroke="#000000" stroke-width="3.33333" stroke-miterlimit="8" fill="none"/><rect x="525" y="374" width="6" height="6"/></g></svg>