<svg width="719" height="582" xmlns="http://www.w3.org/2000/svg" xmlns:xlink="http://www.w3.org/1999/xlink" overflow="hidden"><defs><linearGradient x1="380" y1="450" x2="412" y2="450" gradientUnits="userSpaceOnUse" spreadMethod="reflect" id="fill0"><stop offset="0" stop-color="#EAEAEA"/><stop offset="0.00429185" stop-color="#E9E9E9"/><stop offset="0.00858369" stop-color="#E9E9E9"/><stop offset="0.0128755" stop-color="#E9E9E9"/><stop offset="0.0171674" stop-color="#E9E9E9"/><stop offset="0.0214592" stop-color="#E9E9E9"/><stop offset="0.0257511" stop-color="#E9E9E9"/><stop offset="0.0300429" stop-color="#E9E9E9"/><stop offset="0.0343348" stop-color="#E9E9E9"/><stop offset="0.0386266" stop-color="#E9E9E9"/><stop offset="0.0429185" stop-color="#E9E9E9"/><stop offset="0.0472103" stop-color="#E9E9E9"/><stop offset="0.0515021" stop-color="#E9E9E9"/><stop offset="0.055794" stop-color="#E8E8E8"/><stop offset="0.0600858" stop-color="#E8E8E8"/><stop offset="0.0643777" stop-color="#E8E8E8"/><stop offset="0.0686695" stop-color="#E8E8E8"/><stop offset="0.0729614" stop-color="#E8E8E8"/><stop offset="0.0772532" stop-color="#E8E8E8"/><stop offset="0.0815451" stop-color="#E7E7E7"/><stop offset="0.0858369" stop-color="#E7E7E7"/><stop offset="0.0901288" stop-color="#E7E7E7"/><stop offset="0.0944206" stop-color="#E7E7E7"/><stop offset="0.0987124" stop-color="#E6E6E6"/><stop offset="0.103004" stop-color="#E6E6E6"/><stop offset="0.107296" stop-color="#E6E6E6"/><stop offset="0.111588" stop-color="#E6E6E6"/><stop offset="0.11588" stop-color="#E5E5E5"/><stop offset="0.120172" stop-color="#E5E5E5"/><stop offset="0.124464" stop-color="#E5E5E5"/><stop offset="0.128755" stop-color="#E4E4E4"/><stop offset="0.133047" stop-color="#E4E4E4"/><stop offset="0.137339" stop-color="#E4E4E4"/><stop offset="0.141631" stop-color="#E4E4E4"/><stop offset="0.145923" stop-color="#E3E3E3"/><stop offset="0.150215" stop-color="#E3E3E3"/><stop offset="0.154506" stop-color="#E2E2E2"/><stop offset="0.158798" stop-color="#E2E2E2"/><stop offset="0.16309" stop-color="#E2E2E2"/><stop offset="0.167382" stop-color="#E1E1E1"/><stop offset="0.171674" stop-color="#E1E1E1"/><stop offset="0.175966" stop-color="#E0E0E0"/><stop offset="0.180258" stop-color="#E0E0E0"/><stop offset="0.184549" stop-color="#E0E0E0"/><stop offset="0.188841" stop-color="#DFDFDF"/><stop offset="0.193133" stop-color="#DFDFDF"/><stop offset="0.197425" stop-color="#DEDEDE"/><stop offset="0.201717" stop-color="#DEDEDE"/><stop offset="0.206009" stop-color="#DDDDDD"/><stop offset="0.2103" stop-color="#DDDDDD"/><stop offset="0.214592" stop-color="#DCDCDC"/><stop offset="0.218884" stop-color="#DCDCDC"/><stop offset="0.223176" stop-color="#DBDBDB"/><stop offset="0.227468" stop-color="#DBDBDB"/><stop offset="0.23176" stop-color="#DADADA"/><stop offset="0.236051" stop-color="#DADADA"/><stop offset="0.240343" stop-color="#D9D9D9"/><stop offset="0.244635" stop-color="#D9D9D9"/><stop offset="0.248927" stop-color="#D8D8D8"/><stop offset="0.253219" stop-color="#D8D8D8"/><stop offset="0.257511" stop-color="#D7D7D7"/><stop offset="0.261803" stop-color="#D7D7D7"/><stop offset="0.266094" stop-color="#D6D6D6"/><stop offset="0.270386" stop-color="#D5D5D5"/><stop offset="0.274678" stop-color="#D5D5D5"/><stop offset="0.27897" stop-color="#D4D4D4"/><stop offset="0.283262" stop-color="#D4D4D4"/><stop offset="0.287554" stop-color="#D3D3D3"/><stop offset="0.291846" stop-color="#D2D2D2"/><stop offset="0.296137" stop-color="#D2D2D2"/><stop offset="0.300429" stop-color="#D1D1D1"/><stop offset="0.304721" stop-color="#D0D0D0"/><stop offset="0.309013" stop-color="#D0D0D0"/><stop offset="0.313305" stop-color="#CFCFCF"/><stop offset="0.317597" stop-color="#CECECE"/><stop offset="0.321888" stop-color="#CECECE"/><stop offset="0.32618" stop-color="#CDCDCD"/><stop offset="0.330472" stop-color="#CCCCCC"/><stop offset="0.334764" stop-color="#CBCBCB"/><stop offset="0.339056" stop-color="#CBCBCB"/><stop offset="0.343348" stop-color="#CACACA"/><stop offset="0.347639" stop-color="#C9C9C9"/><stop offset="0.351931" stop-color="#C8C8C8"/><stop offset="0.356223" stop-color="#C8C8C8"/><stop offset="0.360515" stop-color="#C7C7C7"/><stop offset="0.364807" stop-color="#C6C6C6"/><stop offset="0.369099" stop-color="#C5C5C5"/><stop offset="0.373391" stop-color="#C5C5C5"/><stop offset="0.377682" stop-color="#C4C4C4"/><stop offset="0.381974" stop-color="#C3C3C3"/><stop offset="0.386266" stop-color="#C2C2C2"/><stop offset="0.390558" stop-color="#C1C1C1"/><stop offset="0.39485" stop-color="#C1C1C1"/><stop offset="0.399142" stop-color="#C0C0C0"/><stop offset="0.403433" stop-color="#BFBFBF"/><stop offset="0.407725" stop-color="#BEBEBE"/><stop offset="0.412017" stop-color="#BDBDBD"/><stop offset="0.416309" stop-color="#BCBCBC"/><stop offset="0.420601" stop-color="#BBBBBB"/><stop offset="0.424893" stop-color="#BABABA"/><stop offset="0.429185" stop-color="#BABABA"/><stop offset="0.433476" stop-color="#B9B9B9"/><stop offset="0.437768" stop-color="#B8B8B8"/><stop offset="0.44206" stop-color="#B7B7B7"/><stop offset="0.446352" stop-color="#B6B6B6"/><stop offset="0.450644" stop-color="#B5B5B5"/><stop offset="0.454936" stop-color="#B4B4B4"/><stop offset="0.459227" stop-color="#B3B3B3"/><stop offset="0.463519" stop-color="#B2B2B2"/><stop offset="0.467811" stop-color="#B1B1B1"/><stop offset="0.472103" stop-color="#B0B0B0"/><stop offset="0.476395" stop-color="#AFAFAF"/><stop offset="0.480687" stop-color="#AEAEAE"/><stop offset="0.484979" stop-color="#ADADAD"/><stop offset="0.48927" stop-color="#ACACAC"/><stop offset="0.493562" stop-color="#ABABAB"/><stop offset="0.497854" stop-color="#AAAAAA"/><stop offset="0.502146" stop-color="#A9A9A9"/><stop offset="0.506438" stop-color="#A8A8A8"/><stop offset="0.51073" stop-color="#A7A7A7"/><stop offset="0.515021" stop-color="#A6A6A6"/><stop offset="0.519313" stop-color="#A5A5A5"/><stop offset="0.523605" stop-color="#A4A4A4"/><stop offset="0.527897" stop-color="#A3A3A3"/><stop offset="0.532189" stop-color="#A2A2A2"/><stop offset="0.536481" stop-color="#A1A1A1"/><stop offset="0.540773" stop-color="#A0A0A0"/><stop offset="0.545064" stop-color="#9F9F9F"/><stop offset="0.549356" stop-color="#9D9D9D"/><stop offset="0.553648" stop-color="#9C9C9C"/><stop offset="0.55794" stop-color="#9B9B9B"/><stop offset="0.562232" stop-color="#9A9A9A"/><stop offset="0.566524" stop-color="#999999"/><stop offset="0.570815" stop-color="#989898"/><stop offset="0.575107" stop-color="#979797"/><stop offset="0.579399" stop-color="#959595"/><stop offset="0.583691" stop-color="#949494"/><stop offset="0.587983" stop-color="#939393"/><stop offset="0.592275" stop-color="#929292"/><stop offset="0.596566" stop-color="#919191"/><stop offset="0.600858" stop-color="#8F8F8F"/><stop offset="0.60515" stop-color="#8E8E8E"/><stop offset="0.609442" stop-color="#8D8D8D"/><stop offset="0.613734" stop-color="#8C8C8C"/><stop offset="0.618026" stop-color="#8B8B8B"/><stop offset="0.622318" stop-color="#898989"/><stop offset="0.626609" stop-color="#888888"/><stop offset="0.630901" stop-color="#878787"/><stop offset="0.635193" stop-color="#868686"/><stop offset="0.639485" stop-color="#848484"/><stop offset="0.643777" stop-color="#838383"/><stop offset="0.648069" stop-color="#828282"/><stop offset="0.65236" stop-color="#808080"/><stop offset="0.656652" stop-color="#7F7F7F"/><stop offset="0.660944" stop-color="#7E7E7E"/><stop offset="0.665236" stop-color="#7D7D7D"/><stop offset="0.669528" stop-color="#7B7B7B"/><stop offset="0.67382" stop-color="#7A7A7A"/><stop offset="0.678112" stop-color="#797979"/><stop offset="0.682403" stop-color="#777777"/><stop offset="0.686695" stop-color="#767676"/><stop offset="0.690987" stop-color="#747474"/><stop offset="0.695279" stop-color="#737373"/><stop offset="0.699571" stop-color="#727272"/><stop offset="0.703863" stop-color="#707070"/><stop offset="0.708154" stop-color="#6F6F6F"/><stop offset="0.712446" stop-color="#6E6E6E"/><stop offset="0.716738" stop-color="#6C6C6C"/><stop offset="0.72103" stop-color="#6B6B6B"/><stop offset="0.725322" stop-color="#696969"/><stop offset="0.729614" stop-color="#686868"/><stop offset="0.733906" stop-color="#666666"/><stop offset="0.738197" stop-color="#656565"/><stop offset="0.742489" stop-color="#646464"/><stop offset="0.746781" stop-color="#626262"/><stop offset="0.751073" stop-color="#616161"/><stop offset="0.755365" stop-color="#5F5F5F"/><stop offset="0.759657" stop-color="#5E5E5E"/><stop offset="0.763949" stop-color="#5C5C5C"/><stop offset="0.76824" stop-color="#5B5B5B"/><stop offset="0.772532" stop-color="#595959"/><stop offset="0.776824" stop-color="#585858"/><stop offset="0.781116" stop-color="#565656"/><stop offset="0.785408" stop-color="#555555"/><stop offset="0.7897" stop-color="#535353"/><stop offset="0.793991" stop-color="#525252"/><stop offset="0.798283" stop-color="#505050"/><stop offset="0.802575" stop-color="#4F4F4F"/><stop offset="0.806867" stop-color="#4D4D4D"/><stop offset="0.811159" stop-color="#4B4B4B"/><stop offset="0.815451" stop-color="#4A4A4A"/><stop offset="0.819743" stop-color="#484848"/><stop offset="0.824034" stop-color="#474747"/><stop offset="0.828326" stop-color="#454545"/><stop offset="0.832618" stop-color="#444444"/><stop offset="0.83691" stop-color="#424242"/><stop offset="0.841202" stop-color="#404040"/><stop offset="0.845494" stop-color="#3F3F3F"/><stop offset="0.849785" stop-color="#3D3D3D"/><stop offset="0.854077" stop-color="#3B3B3B"/><stop offset="0.858369" stop-color="#3A3A3A"/><stop offset="0.862661" stop-color="#383838"/><stop offset="0.866953" stop-color="#363636"/><stop offset="0.871245" stop-color="#353535"/><stop offset="0.875537" stop-color="#333333"/><stop offset="0.879828" stop-color="#313131"/><stop offset="0.88412" stop-color="#303030"/><stop offset="0.888412" stop-color="#2E2E2E"/><stop offset="0.892704" stop-color="#2C2C2C"/><stop offset="0.896996" stop-color="#2B2B2B"/><stop offset="0.901288" stop-color="#292929"/><stop offset="0.905579" stop-color="#272727"/><stop offset="0.909871" stop-color="#252525"/><stop offset="0.914163" stop-color="#242424"/><stop offset="0.918455" stop-color="#222222"/><stop offset="0.922747" stop-color="#202020"/><stop offset="0.927039" stop-color="#1E1E1E"/><stop offset="0.93133" stop-color="#1D1D1D"/><stop offset="0.935622" stop-color="#1B1B1B"/><stop offset="0.939914" stop-color="#191919"/><stop offset="0.944206" stop-color="#171717"/><stop offset="0.948498" stop-color="#161616"/><stop offset="0.95279" stop-color="#141414"/><stop offset="0.957082" stop-color="#121212"/><stop offset="0.961373" stop-color="#101010"/><stop offset="0.965665" stop-color="#0E0E0E"/><stop offset="0.969957" stop-color="#0D0D0D"/><stop offset="0.974249" stop-color="#0B0B0B"/><stop offset="0.978541" stop-color="#090909"/><stop offset="0.982833" stop-color="#070707"/><stop offset="0.987124" stop-color="#050505"/><stop offset="0.991416" stop-color="#030303"/><stop offset="0.995708" stop-color="#010101"/><stop offset="1"/></linearGradient></defs><g transform="translate(-72 -12)"><text font-family="Arial,Arial_MSFontService,sans-serif" font-weight="400" font-size="23" transform="translate(85.997 307)">Vertical cut</text><text font-family="Arial,Arial_MSFontService,sans-serif" font-style="italic" font-weight="400" font-size="23" transform="translate(203.41 307)">cut</text><text font-family="Arial,Arial_MSFontService,sans-serif" font-weight="400" font-size="15" transform="translate(233.744 312)">1</text><text font-family="Arial,Arial_MSFontService,sans-serif" font-weight="400" font-size="23" transform="translate(242.077 307)">:</text><text font-family="Arial,Arial_MSFontService,sans-serif" font-style="italic" font-weight="400" font-size="23" transform="translate(261.077 307)">L</text><text font-family="Arial,Arial_MSFontService,sans-serif" font-weight="400" font-size="23" transform="translate(273.744 307)">={1,2,3},</text><text font-family="Arial,Arial_MSFontService,sans-serif" font-style="italic" font-weight="400" font-size="23" transform="translate(365.244 307)">R</text><text font-family="Arial,Arial_MSFontService,sans-serif" font-weight="400" font-size="23" transform="translate(381.577 307)">={4,5,6}</text><path d="M88.5001 370.5C88.5001 359.454 97.4544 350.5 108.5 350.5 119.546 350.5 128.5 359.454 128.5 370.5 128.5 381.546 119.546 390.5 108.5 390.5 97.4544 390.5 88.5001 381.546 88.5001 370.5Z" stroke="#000000" stroke-linejoin="round" stroke-miterlimit="10" fill="#EDD1D1" fill-rule="evenodd"/><text font-family="Arial,Arial_MSFontService,sans-serif" font-weight="400" font-size="23" transform="translate(101.583 378)">1</text><path d="M88.5001 423.5C88.5001 412.454 97.4544 403.5 108.5 403.5 119.546 403.5 128.5 412.454 128.5 423.5 128.5 434.546 119.546 443.5 108.5 443.5 97.4544 443.5 88.5001 434.546 88.5001 423.5Z" stroke="#000000" stroke-linejoin="round" stroke-miterlimit="10" fill="#EDD1D1" fill-rule="evenodd"/><text font-family="Arial,Arial_MSFontService,sans-serif" font-weight="400" font-size="23" transform="translate(101.583 431)">2</text><path d="M88.5001 475.5C88.5001 464.454 97.4544 455.5 108.5 455.5 119.546 455.5 128.5 464.454 128.5 475.5 128.5 486.546 119.546 495.5 108.5 495.5 97.4544 495.5 88.5001 486.546 88.5001 475.5Z" stroke="#000000" stroke-linejoin="round" stroke-miterlimit="10" fill="#EDD1D1" fill-rule="evenodd"/><text font-family="Arial,Arial_MSFontService,sans-serif" font-weight="400" font-size="23" transform="translate(101.583 484)">3</text><path d="M88.5001 528.5C88.5001 517.454 97.4544 508.5 108.5 508.5 119.546 508.5 128.5 517.454 128.5 528.5 128.5 539.546 119.546 548.5 108.5 548.5 97.4544 548.5 88.5001 539.546 88.5001 528.5Z" stroke="#000000" stroke-linejoin="round" stroke-miterlimit="10" fill="#EDD1D1" fill-rule="evenodd"/><text font-family="Arial,Arial_MSFontService,sans-serif" font-weight="400" font-size="23" transform="translate(101.583 536)">0</text><path d="M184.5 370.5C184.5 359.454 193.454 350.5 204.5 350.5 215.546 350.5 224.5 359.454 224.5 370.5 224.5 381.546 215.546 390.5 204.5 390.5 193.454 390.5 184.5 381.546 184.5 370.5Z" stroke="#000000" stroke-linejoin="round" stroke-miterlimit="10" fill="#0C325C" fill-rule="evenodd"/><text fill="#FFFFFF" font-family="Arial,Arial_MSFontService,sans-serif" font-weight="400" font-size="23" transform="translate(197.5 378)">4</text><path d="M184.5 423.5C184.5 412.454 193.454 403.5 204.5 403.5 215.546 403.5 224.5 412.454 224.5 423.5 224.5 434.546 215.546 443.5 204.5 443.5 193.454 443.5 184.5 434.546 184.5 423.5Z" stroke="#000000" stroke-linejoin="round" stroke-miterlimit="10" fill="#0C325C" fill-rule="evenodd"/><text fill="#FFFFFF" font-family="Arial,Arial_MSFontService,sans-serif" font-weight="400" font-size="23" transform="translate(197.5 431)">5</text><path d="M184.5 475.5C184.5 464.454 193.454 455.5 204.5 455.5 215.546 455.5 224.5 464.454 224.5 475.5 224.5 486.546 215.546 495.5 204.5 495.5 193.454 495.5 184.5 486.546 184.5 475.5Z" stroke="#000000" stroke-linejoin="round" stroke-miterlimit="10" fill="#0C325C" fill-rule="evenodd"/><text fill="#FFFFFF" font-family="Arial,Arial_MSFontService,sans-serif" font-weight="400" font-size="23" transform="translate(197.5 484)">6</text><path d="M184.5 528.5C184.5 517.454 193.454 508.5 204.5 508.5 215.546 508.5 224.5 517.454 224.5 528.5 224.5 539.546 215.546 548.5 204.5 548.5 193.454 548.5 184.5 539.546 184.5 528.5Z" stroke="#000000" stroke-linejoin="round" stroke-miterlimit="10" fill="#0C325C" fill-rule="evenodd"/><text fill="#FFFFFF" font-family="Arial,Arial_MSFontService,sans-serif" font-weight="400" font-size="23" transform="translate(197.5 536)">0</text><path d="M128.5 366.5 184.5 366.5" stroke="#000000" stroke-linejoin="round" stroke-miterlimit="10" fill="none" fill-rule="evenodd"/><path d="M0 0 56 48" stroke="#000000" stroke-linejoin="round" stroke-miterlimit="10" fill="none" fill-rule="evenodd" transform="matrix(1 0 0 -1 128.5 422.5)"/><path d="M203.5 390.5 203.5 400.5" stroke="#000000" stroke-linejoin="round" stroke-miterlimit="10" fill="none" fill-rule="evenodd"/><path d="M204.5 445.5 204.5 454.5" stroke="#000000" stroke-linejoin="round" stroke-miterlimit="10" fill="none" fill-rule="evenodd"/><path d="M0 0 56 48" stroke="#000000" stroke-linejoin="round" stroke-miterlimit="10" fill="none" fill-rule="evenodd" transform="matrix(1 0 0 -1 128.5 470.5)"/><path d="M152.5 350.5 152.5 550.5" stroke="#CC0000" stroke-width="3" stroke-linejoin="round" stroke-miterlimit="10" stroke-dasharray="3 3" fill="none" fill-rule="evenodd"/><path d="M518.5 370.5C518.5 359.454 527.454 350.5 538.5 350.5 549.546 350.5 558.5 359.454 558.5 370.5 558.5 381.546 549.546 390.5 538.5 390.5 527.454 390.5 518.5 381.546 518.5 370.5Z" stroke="#000000" stroke-linejoin="round" stroke-miterlimit="10" fill="#EDD1D1" fill-rule="evenodd"/><text font-family="Arial,Arial_MSFontService,sans-serif" font-weight="400" font-size="23" transform="translate(531.583 378)">1</text><path d="M518.5 423.5C518.5 412.454 527.454 403.5 538.5 403.5 549.546 403.5 558.5 412.454 558.5 423.5 558.5 434.546 549.546 443.5 538.5 443.5 527.454 443.5 518.5 434.546 518.5 423.5Z" stroke="#000000" stroke-linejoin="round" stroke-miterlimit="10" fill="#EDD1D1" fill-rule="evenodd"/><text font-family="Arial,Arial_MSFontService,sans-serif" font-weight="400" font-size="23" transform="translate(531.583 431)">2</text><path d="M694.5 423.5C694.5 412.454 703.454 403.5 714.5 403.5 725.546 403.5 734.5 412.454 734.5 423.5 734.5 434.546 725.546 443.5 714.5 443.5 703.454 443.5 694.5 434.546 694.5 423.5Z" stroke="#000000" stroke-linejoin="round" stroke-miterlimit="10" fill="#0C325C" fill-rule="evenodd"/><text fill="#FFFFFF" font-family="Arial,Arial_MSFontService,sans-serif" font-weight="400" font-size="23" transform="translate(707.5 431)">3</text><path d="M518.5 474.5C518.5 463.454 527.454 454.5 538.5 454.5 549.546 454.5 558.5 463.454 558.5 474.5 558.5 485.546 549.546 494.5 538.5 494.5 527.454 494.5 518.5 485.546 518.5 474.5Z" stroke="#000000" stroke-linejoin="round" stroke-miterlimit="10" fill="#EDD1D1" fill-rule="evenodd"/><text font-family="Arial,Arial_MSFontService,sans-serif" font-weight="400" font-size="23" transform="translate(531.583 482)">0</text><path d="M614.5 370.5C614.5 359.454 623.454 350.5 634.5 350.5 645.546 350.5 654.5 359.454 654.5 370.5 654.5 381.546 645.546 390.5 634.5 390.5 623.454 390.5 614.5 381.546 614.5 370.5Z" stroke="#000000" stroke-linejoin="round" stroke-miterlimit="10" fill="#EDD1D1" fill-rule="evenodd"/><text font-family="Arial,Arial_MSFontService,sans-serif" font-weight="400" font-size="23" transform="translate(627.583 378)">4</text><path d="M750.5 370.5C750.5 359.454 759.454 350.5 770.5 350.5 781.546 350.5 790.5 359.454 790.5 370.5 790.5 381.546 781.546 390.5 770.5 390.5 759.454 390.5 750.5 381.546 750.5 370.5Z" stroke="#000000" stroke-linejoin="round" stroke-miterlimit="10" fill="#0C325C" fill-rule="evenodd"/><text fill="#FFFFFF" font-family="Arial,Arial_MSFontService,sans-serif" font-weight="400" font-size="23" transform="translate(763.667 378)">5</text><path d="M750.5 423.5C750.5 412.454 759.454 403.5 770.5 403.5 781.546 403.5 790.5 412.454 790.5 423.5 790.5 434.546 781.546 443.5 770.5 443.5 759.454 443.5 750.5 434.546 750.5 423.5Z" stroke="#000000" stroke-linejoin="round" stroke-miterlimit="10" fill="#0C325C" fill-rule="evenodd"/><text fill="#FFFFFF" font-family="Arial,Arial_MSFontService,sans-serif" font-weight="400" font-size="23" transform="translate(763.667 431)">6</text><path d="M750.5 475.5C750.5 464.454 759.454 455.5 770.5 455.5 781.546 455.5 790.5 464.454 790.5 475.5 790.5 486.546 781.546 495.5 770.5 495.5 759.454 495.5 750.5 486.546 750.5 475.5Z" stroke="#000000" stroke-linejoin="round" stroke-miterlimit="10" fill="#0C325C" fill-rule="evenodd"/><text fill="#FFFFFF" font-family="Arial,Arial_MSFontService,sans-serif" font-weight="400" font-size="23" transform="translate(763.667 484)">0</text><path d="M558.5 366.5 614.5 366.5" stroke="#000000" stroke-linejoin="round" stroke-miterlimit="10" fill="none" fill-rule="evenodd"/><path d="M0 0 56 48" stroke="#000000" stroke-linejoin="round" stroke-miterlimit="10" fill="none" fill-rule="evenodd" transform="matrix(1 0 0 -1 558.5 422.5)"/><path d="M654.5 366.5 750.5 366.5" stroke="#000000" stroke-linejoin="round" stroke-miterlimit="10" fill="none" fill-rule="evenodd"/><path d="M770.5 392.5 770.5 402.5" stroke="#000000" stroke-linejoin="round" stroke-miterlimit="10" fill="none" fill-rule="evenodd"/><path d="M0 0 24 37" stroke="#000000" stroke-linejoin="round" stroke-miterlimit="10" fill="none" fill-rule="evenodd" transform="matrix(1 0 0 -1 726.5 406.5)"/><path d="M678.5 342.5 678.5 542.5" stroke="#CC0000" stroke-width="3" stroke-linejoin="round" stroke-miterlimit="10" stroke-dasharray="3 3" fill="none" fill-rule="evenodd"/><path d="M380 432 404 432 404 414 412 450 404 486 404 468 380 468Z" fill="url(#fill0)" fill-rule="evenodd"/><text font-family="Arial,Arial_MSFontService,sans-serif" font-style="italic" font-weight="400" font-size="23" transform="translate(134.83 574)">cut</text><text font-family="Arial,Arial_MSFontService,sans-serif" font-weight="400" font-size="15" transform="translate(165.164 579)">1</text><text font-family="Arial,Arial_MSFontService,sans-serif" font-style="italic" font-weight="400" font-size="23" transform="translate(660.997 574)">cut</text><text font-family="Arial,Arial_MSFontService,sans-serif" font-weight="400" font-size="15" transform="translate(691.33 579)">1</text><path d="M111.5 99.5001 118.314 98.183 124.739 95.5488 129.606 91.3781 132.332 86.9879 133.5 81.5001 132.332 76.0122 129.606 71.622 124.739 67.8903 118.314 65.2561 111.5 63.5001 111.5 99.5001" stroke="#000000" stroke-width="1.33333" stroke-linejoin="round" stroke-miterlimit="10" fill="none" fill-rule="evenodd"/><path d="M136.1 85.5001 136.9 84.8637 137.7 84.4394 138.5 83.1667 138.5 81.894 138.5 80.6213 137.7 79.7728 136.9 78.9243 136.1 78.5001 134.7 78.9243 133.9 79.7728 133.5 80.6213 133.5 81.894 133.5 83.1667 133.9 84.4394 134.7 84.8637 136.1 85.5001" stroke="#000000" stroke-width="1.33333" stroke-linejoin="round" stroke-miterlimit="10" fill="none" fill-rule="evenodd"/><path d="M99.5001 220.5 102.357 219.181 105.214 216.322 107.459 211.924 109.092 205.987 109.5 199.61 109.092 192.793 107.459 187.076 105.214 182.458 102.357 179.819 99.5001 178.5" stroke="#000000" stroke-width="1.33333" stroke-linejoin="round" stroke-miterlimit="10" fill="none" fill-rule="evenodd"/><path d="M99.5001 220.5 108.045 219.181 115.397 216.762 121.558 213.683 126.327 209.065 129.705 204.668 130.5 199.61 129.705 194.333 126.327 189.715 121.558 185.757 115.397 182.018 108.045 179.819 99.5001 178.5" stroke="#000000" stroke-width="1.33333" stroke-linejoin="round" stroke-miterlimit="10" fill="none" fill-rule="evenodd"/><path d="M132.9 203.5 133.7 203.015 134.5 201.803 134.9 200.833 135.5 199.379 134.9 197.924 134.5 196.47 133.7 195.5 132.9 195.5 132.1 195.5 131.3 196.47 130.9 197.924 130.5 199.379 130.9 200.833 131.3 201.803 132.1 203.015 132.9 203.5" stroke="#000000" stroke-width="1.33333" stroke-linejoin="round" stroke-miterlimit="10" fill="none" fill-rule="evenodd"/><path d="M89.5001 71.5001 111.5 72.5001" stroke="#000000" stroke-width="1.33333" stroke-linejoin="round" stroke-miterlimit="10" fill="none" fill-rule="evenodd"/><path d="M89.5001 90.5001 111.5 91.5001" stroke="#000000" stroke-width="1.33333" stroke-linejoin="round" stroke-miterlimit="10" fill="none" fill-rule="evenodd"/><path d="M88.5001 188.5 108.5 189.5" stroke="#000000" stroke-width="1.33333" stroke-linejoin="round" stroke-miterlimit="10" fill="none" fill-rule="evenodd"/><path d="M88.5001 207.5 108.5 208.5" stroke="#000000" stroke-width="1.33333" stroke-linejoin="round" stroke-miterlimit="10" fill="none" fill-rule="evenodd"/><path d="M110.5 149.5 117.9 148.183 124.1 145.549 129.1 141.378 132.3 136.988 133.5 131.5 132.3 126.012 129.1 121.622 124.1 117.89 117.9 115.256 110.5 113.5 110.5 149.5" stroke="#000000" stroke-width="1.33333" stroke-linejoin="round" stroke-miterlimit="10" fill="none" fill-rule="evenodd"/><path d="M136.278 135.5 137.019 134.864 137.759 134.439 138.13 133.167 138.5 131.894 138.13 130.621 137.759 129.773 137.019 128.924 136.278 128.5 134.982 128.924 134.241 129.773 133.87 130.621 133.5 131.894 133.87 133.167 134.241 134.439 134.982 134.864 136.278 135.5" stroke="#000000" stroke-width="1.33333" stroke-linejoin="round" stroke-miterlimit="10" fill="none" fill-rule="evenodd"/><path d="M89.5001 121.5 110.5 122.5" stroke="#000000" stroke-width="1.33333" stroke-linejoin="round" stroke-miterlimit="10" fill="none" fill-rule="evenodd"/><path d="M89.5001 140.5 110.5 141.5" stroke="#000000" stroke-width="1.33333" stroke-linejoin="round" stroke-miterlimit="10" fill="none" fill-rule="evenodd"/><path d="M194.5 128.5 201.9 126.954 208.5 124.304 212.9 120.77 216.3 115.69 217.5 110.831 216.3 105.31 212.9 100.672 208.5 96.6964 201.9 94.0461 194.5 92.5001 194.5 128.5" stroke="#000000" stroke-width="1.33333" stroke-linejoin="round" stroke-miterlimit="10" fill="none" fill-rule="evenodd"/><path d="M220.192 113.5 220.962 113.5 221.731 112.597 222.5 111.694 222.5 110.339 222.5 108.307 221.731 107.403 220.962 106.5 220.192 106.5 219.039 106.5 218.269 107.403 217.885 108.307 217.5 110.339 217.885 111.694 218.269 112.597 219.039 113.5 220.192 113.5" stroke="#000000" stroke-width="1.33333" stroke-linejoin="round" stroke-miterlimit="10" fill="none" fill-rule="evenodd"/><path d="M138.5 81.5001 172.7 81.5001 172.7 99.5001 194.5 99.5001" stroke="#000000" stroke-width="1.33333" stroke-linejoin="round" stroke-miterlimit="10" fill="none" fill-rule="evenodd"/><path d="M138.5 131.5 174.413 131.5 174.413 119.5 194.5 119.5" stroke="#000000" stroke-width="1.33333" stroke-linejoin="round" stroke-miterlimit="10" fill="none" fill-rule="evenodd"/><path d="M132.5 201.5 241.183 201.5 241.183 171.5 299.5 171.5" stroke="#000000" stroke-width="1.33333" stroke-linejoin="round" stroke-miterlimit="10" fill="none" fill-rule="evenodd"/><path d="M299.5 154.5 274.5 154.5 274.5 110.947 222.5 110.5" stroke="#000000" stroke-width="1.33333" stroke-linejoin="round" stroke-miterlimit="10" fill="none" fill-rule="evenodd"/><path d="M299.5 183.5 306.9 182.167 313.1 179.5 318.1 175.278 321.3 170.833 322.5 165.278 321.3 160.389 318.1 155.722 313.1 151.5 306.9 148.833 299.5 147.5 299.5 183.5" stroke="#000000" stroke-width="1.33333" stroke-linejoin="round" stroke-miterlimit="10" fill="none" fill-rule="evenodd"/><path d="M324.722 169.5 326.019 169.5 326.759 168.371 327.13 167.468 327.5 165.661 327.13 164.307 326.759 163.403 326.019 162.5 324.722 162.5 323.982 162.5 323.241 163.403 322.87 164.307 322.5 165.661 322.87 167.468 323.241 168.371 323.982 169.5 324.722 169.5" stroke="#000000" stroke-width="1.33333" stroke-linejoin="round" stroke-miterlimit="10" fill="none" fill-rule="evenodd"/><path d="M327.5 166.5 344.5 167.5" stroke="#000000" stroke-width="1.33333" stroke-linejoin="round" stroke-miterlimit="10" fill="none" fill-rule="evenodd"/><path d="M358.5 186.5 361.561 185.181 364.418 182.322 366.459 177.924 368.092 171.987 368.5 165.17 368.092 158.793 366.459 153.076 364.418 148.458 361.561 145.819 358.5 144.5" stroke="#000000" stroke-width="1.33333" stroke-linejoin="round" stroke-miterlimit="10" fill="none" fill-rule="evenodd"/><path d="M358.5 186.5 367.045 185.181 374.397 182.762 380.558 179.243 385.526 175.065 388.705 170.668 389.5 165.17 388.705 160.333 385.526 155.715 380.558 151.097 374.397 148.018 366.647 145.819 358.5 144.5" stroke="#000000" stroke-width="1.33333" stroke-linejoin="round" stroke-miterlimit="10" fill="none" fill-rule="evenodd"/><path d="M392.326 169.5 393.196 169.5 394.065 168.371 394.5 167.468 394.5 166.113 394.5 164.758 394.065 163.403 393.196 162.5 392.326 162.5 391.457 162.5 390.587 163.403 389.935 164.758 389.5 166.113 389.935 167.468 390.587 168.371 391.457 169.5 392.326 169.5" stroke="#000000" stroke-width="1.33333" stroke-linejoin="round" stroke-miterlimit="10" fill="none" fill-rule="evenodd"/><path d="M0 0 28 1" stroke="#000000" stroke-width="1.33333" stroke-linejoin="round" stroke-miterlimit="10" fill="none" fill-rule="evenodd" transform="matrix(-1 0 0 1 421.5 165.5)"/><path d="M366.5 156.5 345.5 156.5 345.5 177.5 366.5 177.5" stroke="#000000" stroke-width="1.33333" stroke-linejoin="round" stroke-miterlimit="10" fill="none" fill-rule="evenodd"/><path d="M341.5 167.5C341.5 165.843 342.843 164.5 344.5 164.5 346.157 164.5 347.5 165.843 347.5 167.5 347.5 169.157 346.157 170.5 344.5 170.5 342.843 170.5 341.5 169.157 341.5 167.5Z" stroke="#000000" stroke-linejoin="round" stroke-miterlimit="10" fill-rule="evenodd"/><text font-family="Arial,Arial_MSFontService,sans-serif" font-weight="400" font-size="23" transform="translate(129.997 66)">1</text><text font-family="Arial,Arial_MSFontService,sans-serif" font-weight="400" font-size="23" transform="translate(129.997 120)">2</text><text font-family="Arial,Arial_MSFontService,sans-serif" font-weight="400" font-size="23" transform="translate(125.33 188)">3</text><text font-family="Arial,Arial_MSFontService,sans-serif" font-weight="400" font-size="23" transform="translate(211.497 99)">4</text><text font-family="Arial,Arial_MSFontService,sans-serif" font-weight="400" font-size="23" transform="translate(302.164 147)">5</text><text font-family="Arial,Arial_MSFontService,sans-serif" font-weight="400" font-size="23" transform="translate(374.83 147)">6</text><path d="M165 59 165 244" stroke="#000000" stroke-width="1.66667" stroke-linejoin="round" stroke-miterlimit="10" stroke-dasharray="13.3333 5" fill="none" fill-rule="evenodd"/><text font-family="Arial,Arial_MSFontService,sans-serif" font-style="italic" font-weight="400" font-size="23" transform="translate(155.57 41)">cut</text><text font-family="Arial,Arial_MSFontService,sans-serif" font-weight="400" font-size="15" transform="translate(185.903 46)">1</text><text font-family="Arial,Arial_MSFontService,sans-serif" font-weight="400" font-size="23" transform="translate(322.895 532)">KL Algorithmus</text></g></svg>