<svg width="841" height="333" xmlns="http://www.w3.org/2000/svg" xmlns:xlink="http://www.w3.org/1999/xlink" overflow="hidden"><defs><linearGradient x1="252" y1="371.5" x2="291" y2="371.5" gradientUnits="userSpaceOnUse" spreadMethod="reflect" id="fill0"><stop offset="0" stop-color="#EAEAEA"/><stop offset="0.00429185" stop-color="#E9E9E9"/><stop offset="0.00858369" stop-color="#E9E9E9"/><stop offset="0.0128755" stop-color="#E9E9E9"/><stop offset="0.0171674" stop-color="#E9E9E9"/><stop offset="0.0214592" stop-color="#E9E9E9"/><stop offset="0.0257511" stop-color="#E9E9E9"/><stop offset="0.0300429" stop-color="#E9E9E9"/><stop offset="0.0343348" stop-color="#E9E9E9"/><stop offset="0.0386266" stop-color="#E9E9E9"/><stop offset="0.0429185" stop-color="#E9E9E9"/><stop offset="0.0472103" stop-color="#E9E9E9"/><stop offset="0.0515021" stop-color="#E9E9E9"/><stop offset="0.055794" stop-color="#E8E8E8"/><stop offset="0.0600858" stop-color="#E8E8E8"/><stop offset="0.0643777" stop-color="#E8E8E8"/><stop offset="0.0686695" stop-color="#E8E8E8"/><stop offset="0.0729614" stop-color="#E8E8E8"/><stop offset="0.0772532" stop-color="#E8E8E8"/><stop offset="0.0815451" stop-color="#E7E7E7"/><stop offset="0.0858369" stop-color="#E7E7E7"/><stop offset="0.0901288" stop-color="#E7E7E7"/><stop offset="0.0944206" stop-color="#E7E7E7"/><stop offset="0.0987124" stop-color="#E6E6E6"/><stop offset="0.103004" stop-color="#E6E6E6"/><stop offset="0.107296" stop-color="#E6E6E6"/><stop offset="0.111588" stop-color="#E6E6E6"/><stop offset="0.11588" stop-color="#E5E5E5"/><stop offset="0.120172" stop-color="#E5E5E5"/><stop offset="0.124464" stop-color="#E5E5E5"/><stop offset="0.128755" stop-color="#E4E4E4"/><stop offset="0.133047" stop-color="#E4E4E4"/><stop offset="0.137339" stop-color="#E4E4E4"/><stop offset="0.141631" stop-color="#E4E4E4"/><stop offset="0.145923" stop-color="#E3E3E3"/><stop offset="0.150215" stop-color="#E3E3E3"/><stop offset="0.154506" stop-color="#E2E2E2"/><stop offset="0.158798" stop-color="#E2E2E2"/><stop offset="0.16309" stop-color="#E2E2E2"/><stop offset="0.167382" stop-color="#E1E1E1"/><stop offset="0.171674" stop-color="#E1E1E1"/><stop offset="0.175966" stop-color="#E0E0E0"/><stop offset="0.180258" stop-color="#E0E0E0"/><stop offset="0.184549" stop-color="#E0E0E0"/><stop offset="0.188841" stop-color="#DFDFDF"/><stop offset="0.193133" stop-color="#DFDFDF"/><stop offset="0.197425" stop-color="#DEDEDE"/><stop offset="0.201717" stop-color="#DEDEDE"/><stop offset="0.206009" stop-color="#DDDDDD"/><stop offset="0.2103" stop-color="#DDDDDD"/><stop offset="0.214592" stop-color="#DCDCDC"/><stop offset="0.218884" stop-color="#DCDCDC"/><stop offset="0.223176" stop-color="#DBDBDB"/><stop offset="0.227468" stop-color="#DBDBDB"/><stop offset="0.23176" stop-color="#DADADA"/><stop offset="0.236051" stop-color="#DADADA"/><stop offset="0.240343" stop-color="#D9D9D9"/><stop offset="0.244635" stop-color="#D9D9D9"/><stop offset="0.248927" stop-color="#D8D8D8"/><stop offset="0.253219" stop-color="#D8D8D8"/><stop offset="0.257511" stop-color="#D7D7D7"/><stop offset="0.261803" stop-color="#D7D7D7"/><stop offset="0.266094" stop-color="#D6D6D6"/><stop offset="0.270386" stop-color="#D5D5D5"/><stop offset="0.274678" stop-color="#D5D5D5"/><stop offset="0.27897" stop-color="#D4D4D4"/><stop offset="0.283262" stop-color="#D4D4D4"/><stop offset="0.287554" stop-color="#D3D3D3"/><stop offset="0.291846" stop-color="#D2D2D2"/><stop offset="0.296137" stop-color="#D2D2D2"/><stop offset="0.300429" stop-color="#D1D1D1"/><stop offset="0.304721" stop-color="#D0D0D0"/><stop offset="0.309013" stop-color="#D0D0D0"/><stop offset="0.313305" stop-color="#CFCFCF"/><stop offset="0.317597" stop-color="#CECECE"/><stop offset="0.321888" stop-color="#CECECE"/><stop offset="0.32618" stop-color="#CDCDCD"/><stop offset="0.330472" stop-color="#CCCCCC"/><stop offset="0.334764" stop-color="#CBCBCB"/><stop offset="0.339056" stop-color="#CBCBCB"/><stop offset="0.343348" stop-color="#CACACA"/><stop offset="0.347639" stop-color="#C9C9C9"/><stop offset="0.351931" stop-color="#C8C8C8"/><stop offset="0.356223" stop-color="#C8C8C8"/><stop offset="0.360515" stop-color="#C7C7C7"/><stop offset="0.364807" stop-color="#C6C6C6"/><stop offset="0.369099" stop-color="#C5C5C5"/><stop offset="0.373391" stop-color="#C5C5C5"/><stop offset="0.377682" stop-color="#C4C4C4"/><stop offset="0.381974" stop-color="#C3C3C3"/><stop offset="0.386266" stop-color="#C2C2C2"/><stop offset="0.390558" stop-color="#C1C1C1"/><stop offset="0.39485" stop-color="#C1C1C1"/><stop offset="0.399142" stop-color="#C0C0C0"/><stop offset="0.403433" stop-color="#BFBFBF"/><stop offset="0.407725" stop-color="#BEBEBE"/><stop offset="0.412017" stop-color="#BDBDBD"/><stop offset="0.416309" stop-color="#BCBCBC"/><stop offset="0.420601" stop-color="#BBBBBB"/><stop offset="0.424893" stop-color="#BABABA"/><stop offset="0.429185" stop-color="#BABABA"/><stop offset="0.433476" stop-color="#B9B9B9"/><stop offset="0.437768" stop-color="#B8B8B8"/><stop offset="0.44206" stop-color="#B7B7B7"/><stop offset="0.446352" stop-color="#B6B6B6"/><stop offset="0.450644" stop-color="#B5B5B5"/><stop offset="0.454936" stop-color="#B4B4B4"/><stop offset="0.459227" stop-color="#B3B3B3"/><stop offset="0.463519" stop-color="#B2B2B2"/><stop offset="0.467811" stop-color="#B1B1B1"/><stop offset="0.472103" stop-color="#B0B0B0"/><stop offset="0.476395" stop-color="#AFAFAF"/><stop offset="0.480687" stop-color="#AEAEAE"/><stop offset="0.484979" stop-color="#ADADAD"/><stop offset="0.48927" stop-color="#ACACAC"/><stop offset="0.493562" stop-color="#ABABAB"/><stop offset="0.497854" stop-color="#AAAAAA"/><stop offset="0.502146" stop-color="#A9A9A9"/><stop offset="0.506438" stop-color="#A8A8A8"/><stop offset="0.51073" stop-color="#A7A7A7"/><stop offset="0.515021" stop-color="#A6A6A6"/><stop offset="0.519313" stop-color="#A5A5A5"/><stop offset="0.523605" stop-color="#A4A4A4"/><stop offset="0.527897" stop-color="#A3A3A3"/><stop offset="0.532189" stop-color="#A2A2A2"/><stop offset="0.536481" stop-color="#A1A1A1"/><stop offset="0.540773" stop-color="#A0A0A0"/><stop offset="0.545064" stop-color="#9F9F9F"/><stop offset="0.549356" stop-color="#9D9D9D"/><stop offset="0.553648" stop-color="#9C9C9C"/><stop offset="0.55794" stop-color="#9B9B9B"/><stop offset="0.562232" stop-color="#9A9A9A"/><stop offset="0.566524" stop-color="#999999"/><stop offset="0.570815" stop-color="#989898"/><stop offset="0.575107" stop-color="#979797"/><stop offset="0.579399" stop-color="#959595"/><stop offset="0.583691" stop-color="#949494"/><stop offset="0.587983" stop-color="#939393"/><stop offset="0.592275" stop-color="#929292"/><stop offset="0.596566" stop-color="#919191"/><stop offset="0.600858" stop-color="#8F8F8F"/><stop offset="0.60515" stop-color="#8E8E8E"/><stop offset="0.609442" stop-color="#8D8D8D"/><stop offset="0.613734" stop-color="#8C8C8C"/><stop offset="0.618026" stop-color="#8B8B8B"/><stop offset="0.622318" stop-color="#898989"/><stop offset="0.626609" stop-color="#888888"/><stop offset="0.630901" stop-color="#878787"/><stop offset="0.635193" stop-color="#868686"/><stop offset="0.639485" stop-color="#848484"/><stop offset="0.643777" stop-color="#838383"/><stop offset="0.648069" stop-color="#828282"/><stop offset="0.65236" stop-color="#808080"/><stop offset="0.656652" stop-color="#7F7F7F"/><stop offset="0.660944" stop-color="#7E7E7E"/><stop offset="0.665236" stop-color="#7D7D7D"/><stop offset="0.669528" stop-color="#7B7B7B"/><stop offset="0.67382" stop-color="#7A7A7A"/><stop offset="0.678112" stop-color="#797979"/><stop offset="0.682403" stop-color="#777777"/><stop offset="0.686695" stop-color="#767676"/><stop offset="0.690987" stop-color="#747474"/><stop offset="0.695279" stop-color="#737373"/><stop offset="0.699571" stop-color="#727272"/><stop offset="0.703863" stop-color="#707070"/><stop offset="0.708154" stop-color="#6F6F6F"/><stop offset="0.712446" stop-color="#6E6E6E"/><stop offset="0.716738" stop-color="#6C6C6C"/><stop offset="0.72103" stop-color="#6B6B6B"/><stop offset="0.725322" stop-color="#696969"/><stop offset="0.729614" stop-color="#686868"/><stop offset="0.733906" stop-color="#666666"/><stop offset="0.738197" stop-color="#656565"/><stop offset="0.742489" stop-color="#646464"/><stop offset="0.746781" stop-color="#626262"/><stop offset="0.751073" stop-color="#616161"/><stop offset="0.755365" stop-color="#5F5F5F"/><stop offset="0.759657" stop-color="#5E5E5E"/><stop offset="0.763949" stop-color="#5C5C5C"/><stop offset="0.76824" stop-color="#5B5B5B"/><stop offset="0.772532" stop-color="#595959"/><stop offset="0.776824" stop-color="#585858"/><stop offset="0.781116" stop-color="#565656"/><stop offset="0.785408" stop-color="#555555"/><stop offset="0.7897" stop-color="#535353"/><stop offset="0.793991" stop-color="#525252"/><stop offset="0.798283" stop-color="#505050"/><stop offset="0.802575" stop-color="#4F4F4F"/><stop offset="0.806867" stop-color="#4D4D4D"/><stop offset="0.811159" stop-color="#4B4B4B"/><stop offset="0.815451" stop-color="#4A4A4A"/><stop offset="0.819743" stop-color="#484848"/><stop offset="0.824034" stop-color="#474747"/><stop offset="0.828326" stop-color="#454545"/><stop offset="0.832618" stop-color="#444444"/><stop offset="0.83691" stop-color="#424242"/><stop offset="0.841202" stop-color="#404040"/><stop offset="0.845494" stop-color="#3F3F3F"/><stop offset="0.849785" stop-color="#3D3D3D"/><stop offset="0.854077" stop-color="#3B3B3B"/><stop offset="0.858369" stop-color="#3A3A3A"/><stop offset="0.862661" stop-color="#383838"/><stop offset="0.866953" stop-color="#363636"/><stop offset="0.871245" stop-color="#353535"/><stop offset="0.875537" stop-color="#333333"/><stop offset="0.879828" stop-color="#313131"/><stop offset="0.88412" stop-color="#303030"/><stop offset="0.888412" stop-color="#2E2E2E"/><stop offset="0.892704" stop-color="#2C2C2C"/><stop offset="0.896996" stop-color="#2B2B2B"/><stop offset="0.901288" stop-color="#292929"/><stop offset="0.905579" stop-color="#272727"/><stop offset="0.909871" stop-color="#252525"/><stop offset="0.914163" stop-color="#242424"/><stop offset="0.918455" stop-color="#222222"/><stop offset="0.922747" stop-color="#202020"/><stop offset="0.927039" stop-color="#1E1E1E"/><stop offset="0.93133" stop-color="#1D1D1D"/><stop offset="0.935622" stop-color="#1B1B1B"/><stop offset="0.939914" stop-color="#191919"/><stop offset="0.944206" stop-color="#171717"/><stop offset="0.948498" stop-color="#161616"/><stop offset="0.95279" stop-color="#141414"/><stop offset="0.957082" stop-color="#121212"/><stop offset="0.961373" stop-color="#101010"/><stop offset="0.965665" stop-color="#0E0E0E"/><stop offset="0.969957" stop-color="#0D0D0D"/><stop offset="0.974249" stop-color="#0B0B0B"/><stop offset="0.978541" stop-color="#090909"/><stop offset="0.982833" stop-color="#070707"/><stop offset="0.987124" stop-color="#050505"/><stop offset="0.991416" stop-color="#030303"/><stop offset="0.995708" stop-color="#010101"/><stop offset="1"/></linearGradient><linearGradient x1="600" y1="371.5" x2="639" y2="371.5" gradientUnits="userSpaceOnUse" spreadMethod="reflect" id="fill1"><stop offset="0" stop-color="#EAEAEA"/><stop offset="0.00429185" stop-color="#E9E9E9"/><stop offset="0.00858369" stop-color="#E9E9E9"/><stop offset="0.0128755" stop-color="#E9E9E9"/><stop offset="0.0171674" stop-color="#E9E9E9"/><stop offset="0.0214592" stop-color="#E9E9E9"/><stop offset="0.0257511" stop-color="#E9E9E9"/><stop offset="0.0300429" stop-color="#E9E9E9"/><stop offset="0.0343348" stop-color="#E9E9E9"/><stop offset="0.0386266" stop-color="#E9E9E9"/><stop offset="0.0429185" stop-color="#E9E9E9"/><stop offset="0.0472103" stop-color="#E9E9E9"/><stop offset="0.0515021" stop-color="#E9E9E9"/><stop offset="0.055794" stop-color="#E8E8E8"/><stop offset="0.0600858" stop-color="#E8E8E8"/><stop offset="0.0643777" stop-color="#E8E8E8"/><stop offset="0.0686695" stop-color="#E8E8E8"/><stop offset="0.0729614" stop-color="#E8E8E8"/><stop offset="0.0772532" stop-color="#E8E8E8"/><stop offset="0.0815451" stop-color="#E7E7E7"/><stop offset="0.0858369" stop-color="#E7E7E7"/><stop offset="0.0901288" stop-color="#E7E7E7"/><stop offset="0.0944206" stop-color="#E7E7E7"/><stop offset="0.0987124" stop-color="#E6E6E6"/><stop offset="0.103004" stop-color="#E6E6E6"/><stop offset="0.107296" stop-color="#E6E6E6"/><stop offset="0.111588" stop-color="#E6E6E6"/><stop offset="0.11588" stop-color="#E5E5E5"/><stop offset="0.120172" stop-color="#E5E5E5"/><stop offset="0.124464" stop-color="#E5E5E5"/><stop offset="0.128755" stop-color="#E4E4E4"/><stop offset="0.133047" stop-color="#E4E4E4"/><stop offset="0.137339" stop-color="#E4E4E4"/><stop offset="0.141631" stop-color="#E4E4E4"/><stop offset="0.145923" stop-color="#E3E3E3"/><stop offset="0.150215" stop-color="#E3E3E3"/><stop offset="0.154506" stop-color="#E2E2E2"/><stop offset="0.158798" stop-color="#E2E2E2"/><stop offset="0.16309" stop-color="#E2E2E2"/><stop offset="0.167382" stop-color="#E1E1E1"/><stop offset="0.171674" stop-color="#E1E1E1"/><stop offset="0.175966" stop-color="#E0E0E0"/><stop offset="0.180258" stop-color="#E0E0E0"/><stop offset="0.184549" stop-color="#E0E0E0"/><stop offset="0.188841" stop-color="#DFDFDF"/><stop offset="0.193133" stop-color="#DFDFDF"/><stop offset="0.197425" stop-color="#DEDEDE"/><stop offset="0.201717" stop-color="#DEDEDE"/><stop offset="0.206009" stop-color="#DDDDDD"/><stop offset="0.2103" stop-color="#DDDDDD"/><stop offset="0.214592" stop-color="#DCDCDC"/><stop offset="0.218884" stop-color="#DCDCDC"/><stop offset="0.223176" stop-color="#DBDBDB"/><stop offset="0.227468" stop-color="#DBDBDB"/><stop offset="0.23176" stop-color="#DADADA"/><stop offset="0.236051" stop-color="#DADADA"/><stop offset="0.240343" stop-color="#D9D9D9"/><stop offset="0.244635" stop-color="#D9D9D9"/><stop offset="0.248927" stop-color="#D8D8D8"/><stop offset="0.253219" stop-color="#D8D8D8"/><stop offset="0.257511" stop-color="#D7D7D7"/><stop offset="0.261803" stop-color="#D7D7D7"/><stop offset="0.266094" stop-color="#D6D6D6"/><stop offset="0.270386" stop-color="#D5D5D5"/><stop offset="0.274678" stop-color="#D5D5D5"/><stop offset="0.27897" stop-color="#D4D4D4"/><stop offset="0.283262" stop-color="#D4D4D4"/><stop offset="0.287554" stop-color="#D3D3D3"/><stop offset="0.291846" stop-color="#D2D2D2"/><stop offset="0.296137" stop-color="#D2D2D2"/><stop offset="0.300429" stop-color="#D1D1D1"/><stop offset="0.304721" stop-color="#D0D0D0"/><stop offset="0.309013" stop-color="#D0D0D0"/><stop offset="0.313305" stop-color="#CFCFCF"/><stop offset="0.317597" stop-color="#CECECE"/><stop offset="0.321888" stop-color="#CECECE"/><stop offset="0.32618" stop-color="#CDCDCD"/><stop offset="0.330472" stop-color="#CCCCCC"/><stop offset="0.334764" stop-color="#CBCBCB"/><stop offset="0.339056" stop-color="#CBCBCB"/><stop offset="0.343348" stop-color="#CACACA"/><stop offset="0.347639" stop-color="#C9C9C9"/><stop offset="0.351931" stop-color="#C8C8C8"/><stop offset="0.356223" stop-color="#C8C8C8"/><stop offset="0.360515" stop-color="#C7C7C7"/><stop offset="0.364807" stop-color="#C6C6C6"/><stop offset="0.369099" stop-color="#C5C5C5"/><stop offset="0.373391" stop-color="#C5C5C5"/><stop offset="0.377682" stop-color="#C4C4C4"/><stop offset="0.381974" stop-color="#C3C3C3"/><stop offset="0.386266" stop-color="#C2C2C2"/><stop offset="0.390558" stop-color="#C1C1C1"/><stop offset="0.39485" stop-color="#C1C1C1"/><stop offset="0.399142" stop-color="#C0C0C0"/><stop offset="0.403433" stop-color="#BFBFBF"/><stop offset="0.407725" stop-color="#BEBEBE"/><stop offset="0.412017" stop-color="#BDBDBD"/><stop offset="0.416309" stop-color="#BCBCBC"/><stop offset="0.420601" stop-color="#BBBBBB"/><stop offset="0.424893" stop-color="#BABABA"/><stop offset="0.429185" stop-color="#BABABA"/><stop offset="0.433476" stop-color="#B9B9B9"/><stop offset="0.437768" stop-color="#B8B8B8"/><stop offset="0.44206" stop-color="#B7B7B7"/><stop offset="0.446352" stop-color="#B6B6B6"/><stop offset="0.450644" stop-color="#B5B5B5"/><stop offset="0.454936" stop-color="#B4B4B4"/><stop offset="0.459227" stop-color="#B3B3B3"/><stop offset="0.463519" stop-color="#B2B2B2"/><stop offset="0.467811" stop-color="#B1B1B1"/><stop offset="0.472103" stop-color="#B0B0B0"/><stop offset="0.476395" stop-color="#AFAFAF"/><stop offset="0.480687" stop-color="#AEAEAE"/><stop offset="0.484979" stop-color="#ADADAD"/><stop offset="0.48927" stop-color="#ACACAC"/><stop offset="0.493562" stop-color="#ABABAB"/><stop offset="0.497854" stop-color="#AAAAAA"/><stop offset="0.502146" stop-color="#A9A9A9"/><stop offset="0.506438" stop-color="#A8A8A8"/><stop offset="0.51073" stop-color="#A7A7A7"/><stop offset="0.515021" stop-color="#A6A6A6"/><stop offset="0.519313" stop-color="#A5A5A5"/><stop offset="0.523605" stop-color="#A4A4A4"/><stop offset="0.527897" stop-color="#A3A3A3"/><stop offset="0.532189" stop-color="#A2A2A2"/><stop offset="0.536481" stop-color="#A1A1A1"/><stop offset="0.540773" stop-color="#A0A0A0"/><stop offset="0.545064" stop-color="#9F9F9F"/><stop offset="0.549356" stop-color="#9D9D9D"/><stop offset="0.553648" stop-color="#9C9C9C"/><stop offset="0.55794" stop-color="#9B9B9B"/><stop offset="0.562232" stop-color="#9A9A9A"/><stop offset="0.566524" stop-color="#999999"/><stop offset="0.570815" stop-color="#989898"/><stop offset="0.575107" stop-color="#979797"/><stop offset="0.579399" stop-color="#959595"/><stop offset="0.583691" stop-color="#949494"/><stop offset="0.587983" stop-color="#939393"/><stop offset="0.592275" stop-color="#929292"/><stop offset="0.596566" stop-color="#919191"/><stop offset="0.600858" stop-color="#8F8F8F"/><stop offset="0.60515" stop-color="#8E8E8E"/><stop offset="0.609442" stop-color="#8D8D8D"/><stop offset="0.613734" stop-color="#8C8C8C"/><stop offset="0.618026" stop-color="#8B8B8B"/><stop offset="0.622318" stop-color="#898989"/><stop offset="0.626609" stop-color="#888888"/><stop offset="0.630901" stop-color="#878787"/><stop offset="0.635193" stop-color="#868686"/><stop offset="0.639485" stop-color="#848484"/><stop offset="0.643777" stop-color="#838383"/><stop offset="0.648069" stop-color="#828282"/><stop offset="0.65236" stop-color="#808080"/><stop offset="0.656652" stop-color="#7F7F7F"/><stop offset="0.660944" stop-color="#7E7E7E"/><stop offset="0.665236" stop-color="#7D7D7D"/><stop offset="0.669528" stop-color="#7B7B7B"/><stop offset="0.67382" stop-color="#7A7A7A"/><stop offset="0.678112" stop-color="#797979"/><stop offset="0.682403" stop-color="#777777"/><stop offset="0.686695" stop-color="#767676"/><stop offset="0.690987" stop-color="#747474"/><stop offset="0.695279" stop-color="#737373"/><stop offset="0.699571" stop-color="#727272"/><stop offset="0.703863" stop-color="#707070"/><stop offset="0.708154" stop-color="#6F6F6F"/><stop offset="0.712446" stop-color="#6E6E6E"/><stop offset="0.716738" stop-color="#6C6C6C"/><stop offset="0.72103" stop-color="#6B6B6B"/><stop offset="0.725322" stop-color="#696969"/><stop offset="0.729614" stop-color="#686868"/><stop offset="0.733906" stop-color="#666666"/><stop offset="0.738197" stop-color="#656565"/><stop offset="0.742489" stop-color="#646464"/><stop offset="0.746781" stop-color="#626262"/><stop offset="0.751073" stop-color="#616161"/><stop offset="0.755365" stop-color="#5F5F5F"/><stop offset="0.759657" stop-color="#5E5E5E"/><stop offset="0.763949" stop-color="#5C5C5C"/><stop offset="0.76824" stop-color="#5B5B5B"/><stop offset="0.772532" stop-color="#595959"/><stop offset="0.776824" stop-color="#585858"/><stop offset="0.781116" stop-color="#565656"/><stop offset="0.785408" stop-color="#555555"/><stop offset="0.7897" stop-color="#535353"/><stop offset="0.793991" stop-color="#525252"/><stop offset="0.798283" stop-color="#505050"/><stop offset="0.802575" stop-color="#4F4F4F"/><stop offset="0.806867" stop-color="#4D4D4D"/><stop offset="0.811159" stop-color="#4B4B4B"/><stop offset="0.815451" stop-color="#4A4A4A"/><stop offset="0.819743" stop-color="#484848"/><stop offset="0.824034" stop-color="#474747"/><stop offset="0.828326" stop-color="#454545"/><stop offset="0.832618" stop-color="#444444"/><stop offset="0.83691" stop-color="#424242"/><stop offset="0.841202" stop-color="#404040"/><stop offset="0.845494" stop-color="#3F3F3F"/><stop offset="0.849785" stop-color="#3D3D3D"/><stop offset="0.854077" stop-color="#3B3B3B"/><stop offset="0.858369" stop-color="#3A3A3A"/><stop offset="0.862661" stop-color="#383838"/><stop offset="0.866953" stop-color="#363636"/><stop offset="0.871245" stop-color="#353535"/><stop offset="0.875537" stop-color="#333333"/><stop offset="0.879828" stop-color="#313131"/><stop offset="0.88412" stop-color="#303030"/><stop offset="0.888412" stop-color="#2E2E2E"/><stop offset="0.892704" stop-color="#2C2C2C"/><stop offset="0.896996" stop-color="#2B2B2B"/><stop offset="0.901288" stop-color="#292929"/><stop offset="0.905579" stop-color="#272727"/><stop offset="0.909871" stop-color="#252525"/><stop offset="0.914163" stop-color="#242424"/><stop offset="0.918455" stop-color="#222222"/><stop offset="0.922747" stop-color="#202020"/><stop offset="0.927039" stop-color="#1E1E1E"/><stop offset="0.93133" stop-color="#1D1D1D"/><stop offset="0.935622" stop-color="#1B1B1B"/><stop offset="0.939914" stop-color="#191919"/><stop offset="0.944206" stop-color="#171717"/><stop offset="0.948498" stop-color="#161616"/><stop offset="0.95279" stop-color="#141414"/><stop offset="0.957082" stop-color="#121212"/><stop offset="0.961373" stop-color="#101010"/><stop offset="0.965665" stop-color="#0E0E0E"/><stop offset="0.969957" stop-color="#0D0D0D"/><stop offset="0.974249" stop-color="#0B0B0B"/><stop offset="0.978541" stop-color="#090909"/><stop offset="0.982833" stop-color="#070707"/><stop offset="0.987124" stop-color="#050505"/><stop offset="0.991416" stop-color="#030303"/><stop offset="0.995708" stop-color="#010101"/><stop offset="1"/></linearGradient></defs><g transform="translate(-40 -209)"><rect x="197.5" y="413.5" width="38" height="96" stroke="#FFFFFF" stroke-miterlimit="8" fill="#5F5F5F"/><path d="M235.5 430C235.5 427.515 237.739 425.5 240.5 425.5 243.261 425.5 245.5 427.515 245.5 430 245.5 432.485 243.261 434.5 240.5 434.5 237.739 434.5 235.5 432.485 235.5 430Z" stroke="#C0C0C0" stroke-linejoin="round" stroke-miterlimit="10" fill="#5F5F5F" fill-rule="evenodd"/><path d="M235.5 451C235.5 448.515 237.739 446.5 240.5 446.5 243.261 446.5 245.5 448.515 245.5 451 245.5 453.485 243.261 455.5 240.5 455.5 237.739 455.5 235.5 453.485 235.5 451Z" stroke="#C0C0C0" stroke-linejoin="round" stroke-miterlimit="10" fill="#5F5F5F" fill-rule="evenodd"/><path d="M235.5 471C235.5 468.515 237.739 466.5 240.5 466.5 243.261 466.5 245.5 468.515 245.5 471 245.5 473.485 243.261 475.5 240.5 475.5 237.739 475.5 235.5 473.485 235.5 471Z" stroke="#C0C0C0" stroke-linejoin="round" stroke-miterlimit="10" fill="#5F5F5F" fill-rule="evenodd"/><path d="M187.5 430C187.5 427.515 189.515 425.5 192 425.5 194.485 425.5 196.5 427.515 196.5 430 196.5 432.485 194.485 434.5 192 434.5 189.515 434.5 187.5 432.485 187.5 430Z" stroke="#C0C0C0" stroke-linejoin="round" stroke-miterlimit="10" fill="#5F5F5F" fill-rule="evenodd"/><path d="M187.5 451C187.5 448.515 189.515 446.5 192 446.5 194.485 446.5 196.5 448.515 196.5 451 196.5 453.485 194.485 455.5 192 455.5 189.515 455.5 187.5 453.485 187.5 451Z" stroke="#C0C0C0" stroke-linejoin="round" stroke-miterlimit="10" fill="#5F5F5F" fill-rule="evenodd"/><path d="M187.5 471C187.5 468.515 189.515 466.5 192 466.5 194.485 466.5 196.5 468.515 196.5 471 196.5 473.485 194.485 475.5 192 475.5 189.515 475.5 187.5 473.485 187.5 471Z" stroke="#C0C0C0" stroke-linejoin="round" stroke-miterlimit="10" fill="#5F5F5F" fill-rule="evenodd"/><path d="M235.5 489C235.5 486.515 237.739 484.5 240.5 484.5 243.261 484.5 245.5 486.515 245.5 489 245.5 491.485 243.261 493.5 240.5 493.5 237.739 493.5 235.5 491.485 235.5 489Z" stroke="#C0C0C0" stroke-linejoin="round" stroke-miterlimit="10" fill="#5F5F5F" fill-rule="evenodd"/><path d="M187.5 489C187.5 486.515 189.515 484.5 192 484.5 194.485 484.5 196.5 486.515 196.5 489 196.5 491.485 194.485 493.5 192 493.5 189.515 493.5 187.5 491.485 187.5 489Z" stroke="#C0C0C0" stroke-linejoin="round" stroke-miterlimit="10" fill="#5F5F5F" fill-rule="evenodd"/><rect x="196" y="441" width="39" height="38" fill="#5F5F5F"/><text fill="#FFFFFF" font-family="Arial,Arial_MSFontService,sans-serif" font-style="italic" font-weight="400" font-size="24" transform="translate(205.833 468)">m</text><rect x="62.5001" y="310.5" width="77" height="77" stroke="#000000" stroke-miterlimit="8" fill="#EAEAEA"/><path d="M133.5 367.5C133.5 364.739 135.739 362.5 138.5 362.5 141.261 362.5 143.5 364.739 143.5 367.5 143.5 370.261 141.261 372.5 138.5 372.5 135.739 372.5 133.5 370.261 133.5 367.5Z" stroke="#1860AB" stroke-width="2.66667" stroke-linejoin="round" stroke-miterlimit="10" fill="#1860AB" fill-rule="evenodd"/><path d="M133.5 330.5C133.5 327.739 135.739 325.5 138.5 325.5 141.261 325.5 143.5 327.739 143.5 330.5 143.5 333.261 141.261 335.5 138.5 335.5 135.739 335.5 133.5 333.261 133.5 330.5Z" stroke="#1860AB" stroke-width="2.66667" stroke-linejoin="round" stroke-miterlimit="10" fill="#1860AB" fill-rule="evenodd"/><path d="M76.5001 387C76.5001 384.515 78.7386 382.5 81.5001 382.5 84.2615 382.5 86.5001 384.515 86.5001 387 86.5001 389.485 84.2615 391.5 81.5001 391.5 78.7386 391.5 76.5001 389.485 76.5001 387Z" stroke="#1860AB" stroke-width="2.66667" stroke-linejoin="round" stroke-miterlimit="10" fill="#1860AB" fill-rule="evenodd"/><path d="M114.5 387C114.5 384.515 116.739 382.5 119.5 382.5 122.261 382.5 124.5 384.515 124.5 387 124.5 389.485 122.261 391.5 119.5 391.5 116.739 391.5 114.5 389.485 114.5 387Z" stroke="#1860AB" stroke-width="2.66667" stroke-linejoin="round" stroke-miterlimit="10" fill="#1860AB" fill-rule="evenodd"/><text font-family="Arial,Arial_MSFontService,sans-serif" font-style="italic" font-weight="400" font-size="24" transform="translate(92.5834 356)">B</text><path d="M57.5001 367.5C57.5001 364.739 59.7386 362.5 62.5001 362.5 65.2615 362.5 67.5001 364.739 67.5001 367.5 67.5001 370.261 65.2615 372.5 62.5001 372.5 59.7386 372.5 57.5001 370.261 57.5001 367.5Z" stroke="#1860AB" stroke-width="2.66667" stroke-linejoin="round" stroke-miterlimit="10" fill="#1860AB" fill-rule="evenodd"/><path d="M57.5001 330.5C57.5001 327.739 59.7386 325.5 62.5001 325.5 65.2615 325.5 67.5001 327.739 67.5001 330.5 67.5001 333.261 65.2615 335.5 62.5001 335.5 59.7386 335.5 57.5001 333.261 57.5001 330.5Z" stroke="#1860AB" stroke-width="2.66667" stroke-linejoin="round" stroke-miterlimit="10" fill="#1860AB" fill-rule="evenodd"/><path d="M76.5001 310.5C76.5001 307.739 78.5148 305.5 81.0001 305.5 83.4853 305.5 85.5001 307.739 85.5001 310.5 85.5001 313.261 83.4853 315.5 81.0001 315.5 78.5148 315.5 76.5001 313.261 76.5001 310.5Z" stroke="#1860AB" stroke-width="2.66667" stroke-linejoin="round" stroke-miterlimit="10" fill="#1860AB" fill-rule="evenodd"/><path d="M114.5 310.5C114.5 307.739 116.515 305.5 119 305.5 121.485 305.5 123.5 307.739 123.5 310.5 123.5 313.261 121.485 315.5 119 315.5 116.515 315.5 114.5 313.261 114.5 310.5Z" stroke="#1860AB" stroke-width="2.66667" stroke-linejoin="round" stroke-miterlimit="10" fill="#1860AB" fill-rule="evenodd"/><path d="M107.5 356.5 204.5 452.5" stroke="#000000" stroke-linejoin="round" stroke-miterlimit="10" stroke-dasharray="4 3" fill="none" fill-rule="evenodd"/><path d="M95.5001 342.5 41.5001 288.5" stroke="#000000" stroke-linejoin="round" stroke-miterlimit="10" stroke-dasharray="4 3" fill="none" fill-rule="evenodd"/><rect x="370.5" y="310.5" width="77" height="77" stroke="#000000" stroke-miterlimit="8" fill="#EAEAEA"/><path d="M442.5 367.5C442.5 364.739 444.739 362.5 447.5 362.5 450.261 362.5 452.5 364.739 452.5 367.5 452.5 370.261 450.261 372.5 447.5 372.5 444.739 372.5 442.5 370.261 442.5 367.5Z" stroke="#000000" stroke-width="2.66667" stroke-linejoin="round" stroke-miterlimit="10" fill="#FFFFFF" fill-rule="evenodd"/><path d="M442.5 330.5C442.5 327.739 444.739 325.5 447.5 325.5 450.261 325.5 452.5 327.739 452.5 330.5 452.5 333.261 450.261 335.5 447.5 335.5 444.739 335.5 442.5 333.261 442.5 330.5Z" stroke="#000000" stroke-width="2.66667" stroke-linejoin="round" stroke-miterlimit="10" fill="#FFFFFF" fill-rule="evenodd"/><path d="M385.5 387C385.5 384.515 387.515 382.5 390 382.5 392.485 382.5 394.5 384.515 394.5 387 394.5 389.485 392.485 391.5 390 391.5 387.515 391.5 385.5 389.485 385.5 387Z" stroke="#000000" stroke-width="2.66667" stroke-linejoin="round" stroke-miterlimit="10" fill="#FFFFFF" fill-rule="evenodd"/><path d="M423.5 387C423.5 384.515 425.515 382.5 428 382.5 430.485 382.5 432.5 384.515 432.5 387 432.5 389.485 430.485 391.5 428 391.5 425.515 391.5 423.5 389.485 423.5 387Z" stroke="#000000" stroke-width="2.66667" stroke-linejoin="round" stroke-miterlimit="10" fill="#FFFFFF" fill-rule="evenodd"/><text font-family="Arial,Arial_MSFontService,sans-serif" font-style="italic" font-weight="400" font-size="24" transform="translate(401.083 356)">B</text><path d="M365.5 367.5C365.5 364.739 367.739 362.5 370.5 362.5 373.261 362.5 375.5 364.739 375.5 367.5 375.5 370.261 373.261 372.5 370.5 372.5 367.739 372.5 365.5 370.261 365.5 367.5Z" stroke="#000000" stroke-width="2.66667" stroke-linejoin="round" stroke-miterlimit="10" fill="#FFFFFF" fill-rule="evenodd"/><path d="M365.5 330.5C365.5 327.739 367.739 325.5 370.5 325.5 373.261 325.5 375.5 327.739 375.5 330.5 375.5 333.261 373.261 335.5 370.5 335.5 367.739 335.5 365.5 333.261 365.5 330.5Z" stroke="#000000" stroke-width="2.66667" stroke-linejoin="round" stroke-miterlimit="10" fill="#FFFFFF" fill-rule="evenodd"/><path d="M384.5 310.5C384.5 307.739 386.739 305.5 389.5 305.5 392.261 305.5 394.5 307.739 394.5 310.5 394.5 313.261 392.261 315.5 389.5 315.5 386.739 315.5 384.5 313.261 384.5 310.5Z" stroke="#000000" stroke-width="2.66667" stroke-linejoin="round" stroke-miterlimit="10" fill="#FFFFFF" fill-rule="evenodd"/><path d="M422.5 310.5C422.5 307.739 424.739 305.5 427.5 305.5 430.261 305.5 432.5 307.739 432.5 310.5 432.5 313.261 430.261 315.5 427.5 315.5 424.739 315.5 422.5 313.261 422.5 310.5Z" stroke="#000000" stroke-width="2.66667" stroke-linejoin="round" stroke-miterlimit="10" fill="#FFFFFF" fill-rule="evenodd"/><path d="M507.5 463C507.5 454.992 513.992 448.5 522 448.5 530.008 448.5 536.5 454.992 536.5 463 536.5 471.008 530.008 477.5 522 477.5 513.992 477.5 507.5 471.008 507.5 463Z" stroke="#000000" stroke-linejoin="round" stroke-miterlimit="10" fill="#FFFFFF" fill-rule="evenodd"/><text font-family="Arial,Arial_MSFontService,sans-serif" font-style="italic" font-weight="400" font-size="24" transform="translate(511.333 468)">m</text><text font-family="Arial,Arial_MSFontService,sans-serif" font-style="italic" font-weight="400" font-size="24" transform="translate(303.25 520)">l</text><text font-family="Arial,Arial_MSFontService,sans-serif" font-style="italic" font-weight="400" font-size="24" transform="translate(308.583 520)">’</text><path d="M469 462.5C469 433.505 492.505 410 521.5 410 550.495 410 574 433.505 574 462.5 574 491.495 550.495 515 521.5 515 492.505 515 469 491.495 469 462.5Z" stroke="#000000" stroke-width="2" stroke-linejoin="round" stroke-miterlimit="10" stroke-dasharray="8 6" fill="none" fill-rule="evenodd"/><path d="M348.317 514.767 565.517 297.567" stroke="#000000" stroke-width="2" stroke-linejoin="round" stroke-miterlimit="10" fill="none" fill-rule="evenodd"/><path d="M359.249 503.751C357.362 501.864 357.362 498.803 359.249 496.916 361.137 495.028 364.197 495.028 366.084 496.916 367.972 498.803 367.972 501.864 366.084 503.751 364.197 505.639 361.137 505.639 359.249 503.751Z" stroke="#1860AB" stroke-width="2.66667" stroke-linejoin="round" stroke-miterlimit="10" fill="#1860AB" fill-rule="evenodd"/><path d="M386.749 476.251C384.861 474.363 384.861 471.303 386.749 469.416 388.637 467.528 391.697 467.528 393.584 469.416 395.472 471.303 395.472 474.363 393.584 476.251 391.697 478.139 388.637 478.139 386.749 476.251Z" stroke="#1860AB" stroke-width="2.66667" stroke-linejoin="round" stroke-miterlimit="10" fill="#1860AB" fill-rule="evenodd"/><path d="M414.416 448.584C412.528 446.697 412.528 443.637 414.416 441.749 416.303 439.861 419.363 439.861 421.251 441.749 423.139 443.637 423.139 446.697 421.251 448.584 419.363 450.472 416.303 450.472 414.416 448.584Z" stroke="#1860AB" stroke-width="2.66667" stroke-linejoin="round" stroke-miterlimit="10" fill="#1860AB" fill-rule="evenodd"/><path d="M441.582 421.418C439.695 419.53 439.695 416.47 441.582 414.582 443.47 412.695 446.53 412.695 448.418 414.582 450.305 416.47 450.305 419.53 448.418 421.418 446.53 423.305 443.47 423.305 441.582 421.418Z" stroke="#1860AB" stroke-width="2.66667" stroke-linejoin="round" stroke-miterlimit="10" fill="#1860AB" fill-rule="evenodd"/><path d="M468.749 394.251C466.861 392.363 466.861 389.303 468.749 387.416 470.637 385.528 473.697 385.528 475.584 387.416 477.472 389.303 477.472 392.363 475.584 394.251 473.697 396.139 470.637 396.139 468.749 394.251Z" stroke="#1860AB" stroke-width="2.66667" stroke-linejoin="round" stroke-miterlimit="10" fill="#1860AB" fill-rule="evenodd"/><path d="M496.082 366.918C494.195 365.03 494.195 361.97 496.082 360.082 497.97 358.195 501.03 358.195 502.918 360.082 504.805 361.97 504.805 365.03 502.918 366.918 501.03 368.805 497.97 368.805 496.082 366.918Z" stroke="#1860AB" stroke-width="2.66667" stroke-linejoin="round" stroke-miterlimit="10" fill="#1860AB" fill-rule="evenodd"/><path d="M523.582 339.418C521.695 337.53 521.695 334.47 523.582 332.582 525.47 330.695 528.53 330.695 530.418 332.582 532.305 334.47 532.305 337.53 530.418 339.418 528.53 341.305 525.47 341.305 523.582 339.418Z" stroke="#1860AB" stroke-width="2.66667" stroke-linejoin="round" stroke-miterlimit="10" fill="#1860AB" fill-rule="evenodd"/><path d="M550.416 312.584C548.528 310.697 548.528 307.637 550.416 305.749 552.303 303.861 555.364 303.861 557.251 305.749 559.139 307.637 559.139 310.697 557.251 312.584 555.364 314.472 552.303 314.472 550.416 312.584Z" stroke="#1860AB" stroke-width="2.66667" stroke-linejoin="round" stroke-miterlimit="10" fill="#1860AB" fill-rule="evenodd"/><path d="M425 395.493 425.057 399.492 424.057 399.507 424 395.507ZM425.26 402.454 425.374 403.962 425.867 406.336 424.887 406.538 424.376 404.038 424.263 402.53ZM426.843 409.02 427.451 410.283 427.332 410.126 429.273 411.853 428.609 412.6 426.668 410.874C426.618 410.83 426.578 410.776 426.549 410.717L425.942 409.453ZM430.641 413.002 426.65 405.455 438.5 414.5 424.154 418.553Z"/><path d="M454.581 370.007 458.363 370.625 458.557 370.667 458.335 371.643 458.202 371.611 454.419 370.994ZM461.482 371.333 461.923 371.433 465.009 372.566C465.048 372.581 465.085 372.6 465.119 372.623L465.387 372.807 464.821 373.632 464.553 373.448 464.663 373.505 461.702 372.408 461.26 372.308ZM467.833 374.808 468.885 376.452C468.914 376.498 468.936 376.548 468.949 376.6L469.151 377.408 468.181 377.651 467.979 376.843 468.043 376.991 466.991 375.347ZM468.666 377.529 474.853 371.646 469.35 385.5 461.568 372.785Z"/><path d="M392.996 394.434 393.526 398.399 392.534 398.531 392.004 394.566ZM393.923 401.372 393.933 401.448 394.602 405.294 393.617 405.465 392.942 401.58 392.932 401.505ZM395.116 408.25 395.118 408.257 396.084 412.092 395.114 412.337 394.132 408.428 394.131 408.421ZM396.836 414.934 398.261 418.671 397.327 419.028 395.902 415.29ZM399.443 421.331 401.451 424.79 400.587 425.292 398.578 421.833ZM403.166 427.153 405.516 430.092 405.647 430.223 404.934 430.924 404.735 430.717 402.384 427.777ZM407.75 432.362 408.04 432.657 407.327 433.358 407.037 433.063ZM407.684 433.007 408.383 424.499 413.5 438.5 399.229 434.193Z"/><path d="M454.661 331.027 458.448 332.317 458.125 333.263 454.339 331.973ZM461.299 333.295 465.045 334.697 464.695 335.634 460.949 334.232ZM467.871 335.792 471.522 337.426 471.114 338.339 467.463 336.705ZM474.253 338.778 477.718 340.777 477.218 341.643 473.753 339.645ZM480.215 342.551 483.225 344.9 483.399 345.069 482.694 345.777 482.61 345.689 479.6 343.34ZM485.525 347.186 487.385 349.04 488.29 350.139 487.516 350.773 486.679 349.748 484.819 347.895ZM489.427 352.314 491.2 343.963 494.5 358.5 480.89 352.418Z"/><path d="M432.353 303.578 436.174 302.398 436.47 303.353 432.648 304.533ZM439.041 301.513 441.236 300.835 442.943 300.466 443.153 301.444 441.531 301.79 439.336 302.468ZM445.876 299.836 449.787 298.996 449.997 299.973 446.086 300.814ZM452.815 298.609 455.358 298.354 456.849 298.344 456.854 299.344 455.457 299.349 452.914 299.604ZM459.849 298.329 460.399 298.326 463.884 298.672 463.785 299.667 460.404 299.326 459.854 299.329ZM466.903 299.108 470.817 299.935 470.61 300.914 466.696 300.087ZM473.731 300.835 476.97 301.884 477.559 302.128 477.173 303.05 476.663 302.835 473.423 301.787ZM480.327 303.285 483.028 304.414 484.018 304.9 483.576 305.797 482.642 305.336 479.941 304.207ZM486.71 306.225 489.309 307.505 490.295 308.047 489.813 308.923 488.867 308.402 486.268 307.122ZM492.924 309.493 495.777 311.062 496.431 311.46 495.911 312.314 495.295 311.938 492.442 310.369ZM498.993 313.022 502.408 315.104 501.887 315.958 498.472 313.876ZM504.969 316.666 508.385 318.749 507.864 319.602 504.449 317.52ZM510.925 320.371 514.278 322.553 513.732 323.391 510.38 321.209ZM515.795 324.137 514.961 315.64 522.5 328.5 507.688 326.815Z"/><path d="M364.369 370.563 363.864 374.531 362.872 374.405 363.377 370.437ZM363.486 377.507 362.982 381.475 361.99 381.349 362.494 377.381ZM362.604 384.451 362.099 388.419 361.107 388.293 361.612 384.325ZM361.807 391.39 361.421 395.372 360.425 395.275 360.812 391.294ZM361.131 398.357 360.744 402.339 359.749 402.242 360.135 398.261ZM360.454 405.325 360.408 405.798 360.23 409.295 359.231 409.244 359.413 405.702 359.459 405.228ZM360.076 412.291 359.994 413.885 359.985 416.266 358.985 416.261 358.996 413.834 359.077 412.24ZM359.972 419.266 359.963 421.502 360.068 423.23 359.07 423.29 358.963 421.498 358.972 419.261ZM360.249 426.225 360.389 428.548 360.633 430.158 359.644 430.306 359.391 428.608 359.251 426.285ZM361.078 433.125 361.349 434.926 361.911 436.97 360.946 437.233 360.36 435.074 360.089 433.273ZM362.702 439.863 362.896 440.571 364.135 443.523 363.213 443.909 361.931 440.835 361.738 440.127ZM365.356 446.189 367.355 449.654 366.488 450.153 364.49 446.689ZM369.076 452.037 370.5 453.952 371.585 455.052 370.871 455.752 369.697 454.548 368.274 452.634ZM373.686 457.195 376.486 460.051 375.772 460.751 372.972 457.895ZM378.341 462.394 378.49 453.858 384.5 467.5 369.981 464.122Z"/><path d="M361.718 332.95 358.118 334.693 357.682 333.793 361.282 332.05ZM355.418 336.001 351.817 337.744 351.382 336.844 354.982 335.101ZM349.117 339.051 346.019 340.551 345.545 340.805 345.074 339.924 345.583 339.651 348.682 338.151ZM342.9 342.221 339.374 344.108 338.902 343.226 342.428 341.339ZM336.801 345.601 333.372 347.66 332.857 346.803 336.286 344.744ZM330.863 349.237 327.586 351.532 327.013 350.713 330.289 348.418ZM325.129 353.253 325.124 353.257 322.122 355.818 321.473 355.057 324.551 352.437 324.556 352.434ZM319.839 357.764 319.427 358.115 317.136 360.624 316.398 359.948 318.779 357.354 319.19 357.003ZM315.11 362.837 314.599 363.395 314.647 363.334 312.853 366.036 312.02 365.483 313.814 362.781C313.828 362.759 313.844 362.739 313.861 362.72L314.373 362.161ZM311.194 368.535 310.777 369.164 310.815 369.095 309.466 372.047 308.556 371.631 309.906 368.679C309.917 368.655 309.929 368.632 309.944 368.611L310.361 367.982ZM308.219 374.775 307.864 375.552 306.95 378.497 305.996 378.199 306.954 375.137 307.309 374.36ZM306.058 381.361 305.683 382.564 305.182 385.2 304.2 385.012 304.728 382.267 305.103 381.063ZM304.619 388.147 304.253 390.059 304.086 392.053 303.09 391.968 303.271 389.871 303.637 387.959ZM303.832 395.042 303.589 397.902 303.606 398.983 302.606 398.996 302.592 397.817 302.836 394.958ZM303.647 401.982 303.702 405.957 303.702 405.957 302.708 406.044 302.702 405.971 302.647 401.996ZM304.032 408.915 304.473 412.891 303.479 413.001 303.038 409.026ZM304.968 415.797 305.794 419.711 304.816 419.917 303.99 416.003ZM306.449 422.584 307.666 426.395 306.713 426.699 305.496 422.889ZM308.578 429.253 308.831 430.045 310.112 432.881 309.2 433.291 307.879 430.349 307.626 429.557ZM311.343 435.616 312.327 437.802 313.109 439.142 312.244 439.645 311.415 438.213 310.431 436.027ZM314.615 441.737 316.624 445.195 315.76 445.698 313.751 442.239ZM318.278 447.649 320.555 450.939 319.732 451.508 317.456 448.218ZM322.262 453.406 322.3 453.461 324.709 456.532 323.922 457.149 321.478 454.03 321.439 453.975ZM326.56 458.892 328.49 461.353 329.044 461.998 328.285 462.65 327.703 461.97 325.773 459.509ZM330.997 464.275 333.602 467.311 332.843 467.963 330.238 464.927ZM335.554 469.568 338.252 472.522 337.514 473.196 334.816 470.243ZM340.275 474.737 342.543 477.22 342.976 477.67 342.255 478.363 341.805 477.895 339.537 475.411ZM345.054 479.834 347.825 482.718 347.104 483.411 344.333 480.527ZM349.903 484.882 352.307 487.384 351.586 488.077 349.182 485.575ZM351.947 487.731 353.06 479.266 357.489 493.5 343.444 488.503Z"/><path d="M390.063 301.974 392.003 298.477 392.878 298.962 390.937 302.46ZM393.497 295.824 395.346 293.108 395.836 292.52 396.602 293.164 396.172 293.671 394.324 296.386ZM397.821 290.191 400.487 287.714 400.834 287.463 401.41 288.28 401.168 288.446 398.502 290.923ZM403.286 285.734 403.876 285.318 406.84 283.769 407.302 284.656 404.452 286.135 403.862 286.552ZM409.645 282.555 412.826 281.371 413.445 281.192 413.72 282.154 413.174 282.308 409.994 283.492ZM416.33 280.368 418.602 279.718 420.213 279.329 420.448 280.301 418.877 280.68 416.605 281.329ZM423.13 278.625 425.234 278.117 427.055 277.757 427.249 278.738 425.469 279.089 423.364 279.597ZM429.998 277.176 432.582 276.666 433.955 276.458 434.104 277.447 432.776 277.647 430.192 278.157ZM436.922 276.011 440.488 275.473 440.904 275.43 441.004 276.426 440.637 276.461 437.071 277ZM443.889 275.132 447.87 274.735 447.969 275.73 443.989 276.127ZM450.892 274.554 454.888 274.386 454.93 275.385 450.934 275.553ZM457.92 274.296 461.918 274.396 461.893 275.396 457.894 275.295ZM464.917 274.472 465.984 274.499 468.941 274.808 468.836 275.803 465.959 275.498 464.892 275.472ZM471.924 275.122 474.552 275.399 475.927 275.66 475.739 276.643 474.448 276.394 471.819 276.117ZM478.874 276.224 482.802 276.976 482.614 277.958 478.686 277.207ZM485.743 277.719 489.612 278.732 489.359 279.7 485.489 278.686ZM492.533 279.524 496.343 280.74 496.039 281.692 492.229 280.477ZM499.201 281.651 501.142 282.27 503.006 282.949 502.663 283.888 500.838 283.223 498.898 282.604ZM505.824 283.976 509.583 285.345 509.241 286.285 505.482 284.915ZM512.393 286.437 516.108 287.92 515.737 288.849 512.022 287.366ZM518.894 289.032 519.851 289.414 522.595 290.578 522.204 291.499 519.481 290.343 518.524 289.961ZM525.357 291.75 529.039 293.313 528.648 294.233 524.966 292.671ZM531.791 294.528 535.446 296.152 535.04 297.066 531.385 295.442ZM538.188 297.371 541.392 298.795 540.986 299.708 537.781 298.284ZM541.189 299.252 539.023 290.994 548.5 302.5 533.608 303.178Z"/><path d="M366 310.5C366 308.015 368.015 306 370.5 306 372.985 306 375 308.015 375 310.5 375 312.985 372.985 315 370.5 315 368.015 315 366 312.985 366 310.5Z" fill-rule="evenodd"/><path d="M415.5 355.5 511.5 451.5" stroke="#000000" stroke-linejoin="round" stroke-miterlimit="10" stroke-dasharray="4 3" fill="none" fill-rule="evenodd"/><path d="M402.5 341.5 348.5 287.5" stroke="#000000" stroke-linejoin="round" stroke-miterlimit="10" stroke-dasharray="4 3" fill="none" fill-rule="evenodd"/><path d="M320 509.833 339 509.833 339 512.167 320 512.167ZM339 511 333.667 504.333 347 511 333.667 517.667Z"/><path d="M202.5 463C202.5 454.992 208.992 448.5 217 448.5 225.008 448.5 231.5 454.992 231.5 463 231.5 471.008 225.008 477.5 217 477.5 208.992 477.5 202.5 471.008 202.5 463Z" stroke="#000000" stroke-linejoin="round" stroke-miterlimit="10" fill="#FFFFFF" fill-rule="evenodd"/><text font-family="Arial,Arial_MSFontService,sans-serif" font-style="italic" font-weight="400" font-size="24" transform="translate(205.833 468)">m</text><rect x="676.5" y="310.5" width="76" height="77" stroke="#000000" stroke-miterlimit="8" fill="#EAEAEA"/><path d="M747.5 367.5C747.5 364.739 749.739 362.5 752.5 362.5 755.261 362.5 757.5 364.739 757.5 367.5 757.5 370.261 755.261 372.5 752.5 372.5 749.739 372.5 747.5 370.261 747.5 367.5Z" stroke="#000000" stroke-width="2.66667" stroke-linejoin="round" stroke-miterlimit="10" fill="#FFFFFF" fill-rule="evenodd"/><path d="M747.5 330.5C747.5 327.739 749.739 325.5 752.5 325.5 755.261 325.5 757.5 327.739 757.5 330.5 757.5 333.261 755.261 335.5 752.5 335.5 749.739 335.5 747.5 333.261 747.5 330.5Z" stroke="#000000" stroke-width="2.66667" stroke-linejoin="round" stroke-miterlimit="10" fill="#FFFFFF" fill-rule="evenodd"/><path d="M690.5 387C690.5 384.515 692.739 382.5 695.5 382.5 698.261 382.5 700.5 384.515 700.5 387 700.5 389.485 698.261 391.5 695.5 391.5 692.739 391.5 690.5 389.485 690.5 387Z" stroke="#000000" stroke-width="2.66667" stroke-linejoin="round" stroke-miterlimit="10" fill="#FFFFFF" fill-rule="evenodd"/><path d="M728.5 387C728.5 384.515 730.739 382.5 733.5 382.5 736.261 382.5 738.5 384.515 738.5 387 738.5 389.485 736.261 391.5 733.5 391.5 730.739 391.5 728.5 389.485 728.5 387Z" stroke="#000000" stroke-width="2.66667" stroke-linejoin="round" stroke-miterlimit="10" fill="#FFFFFF" fill-rule="evenodd"/><text font-family="Arial,Arial_MSFontService,sans-serif" font-style="italic" font-weight="400" font-size="24" transform="translate(706.583 356)">B</text><path d="M671.5 367.5C671.5 364.739 673.739 362.5 676.5 362.5 679.261 362.5 681.5 364.739 681.5 367.5 681.5 370.261 679.261 372.5 676.5 372.5 673.739 372.5 671.5 370.261 671.5 367.5Z" stroke="#000000" stroke-width="2.66667" stroke-linejoin="round" stroke-miterlimit="10" fill="#FFFFFF" fill-rule="evenodd"/><path d="M671.5 330.5C671.5 327.739 673.739 325.5 676.5 325.5 679.261 325.5 681.5 327.739 681.5 330.5 681.5 333.261 679.261 335.5 676.5 335.5 673.739 335.5 671.5 333.261 671.5 330.5Z" stroke="#000000" stroke-width="2.66667" stroke-linejoin="round" stroke-miterlimit="10" fill="#FFFFFF" fill-rule="evenodd"/><path d="M690.5 310.5C690.5 307.739 692.515 305.5 695 305.5 697.485 305.5 699.5 307.739 699.5 310.5 699.5 313.261 697.485 315.5 695 315.5 692.515 315.5 690.5 313.261 690.5 310.5Z" stroke="#000000" stroke-width="2.66667" stroke-linejoin="round" stroke-miterlimit="10" fill="#FFFFFF" fill-rule="evenodd"/><path d="M728.5 310.5C728.5 307.739 730.515 305.5 733 305.5 735.485 305.5 737.5 307.739 737.5 310.5 737.5 313.261 735.485 315.5 733 315.5 730.515 315.5 728.5 313.261 728.5 310.5Z" stroke="#000000" stroke-width="2.66667" stroke-linejoin="round" stroke-miterlimit="10" fill="#FFFFFF" fill-rule="evenodd"/><path d="M813.5 463C813.5 454.992 819.992 448.5 828 448.5 836.008 448.5 842.5 454.992 842.5 463 842.5 471.008 836.008 477.5 828 477.5 819.992 477.5 813.5 471.008 813.5 463Z" stroke="#000000" stroke-linejoin="round" stroke-miterlimit="10" fill="#FFFFFF" fill-rule="evenodd"/><text font-family="Arial,Arial_MSFontService,sans-serif" font-style="italic" font-weight="400" font-size="24" transform="translate(816.833 468)">m</text><path d="M775 462.5C775 433.505 798.281 410 827 410 855.719 410 879 433.505 879 462.5 879 491.495 855.719 515 827 515 798.281 515 775 491.495 775 462.5Z" stroke="#1860AB" stroke-width="2" stroke-linejoin="round" stroke-miterlimit="10" stroke-dasharray="8 6" fill="none" fill-rule="evenodd"/><path d="M653.817 514.766 871.017 297.567" stroke="#000000" stroke-width="2" stroke-linejoin="round" stroke-miterlimit="10" fill="none" fill-rule="evenodd"/><path d="M664.777 503.806C662.889 501.919 662.889 498.858 664.777 496.971 666.665 495.083 669.725 495.083 671.612 496.971 673.5 498.858 673.5 501.919 671.612 503.806 669.725 505.694 666.665 505.694 664.777 503.806Z" stroke="#000000" stroke-width="2.66667" stroke-linejoin="round" stroke-miterlimit="10" fill="#EAEAEA" fill-rule="evenodd"/><path d="M692.354 476.229C690.467 474.342 690.467 471.281 692.354 469.394 694.242 467.506 697.302 467.506 699.19 469.394 701.077 471.281 701.077 474.342 699.19 476.229 697.302 478.117 694.242 478.117 692.354 476.229Z" stroke="#000000" stroke-width="2.66667" stroke-linejoin="round" stroke-miterlimit="10" fill="#EAEAEA" fill-rule="evenodd"/><path d="M719.931 448.652C718.044 446.764 718.044 443.704 719.931 441.817 721.819 439.929 724.879 439.929 726.767 441.817 728.654 443.704 728.654 446.764 726.767 448.652 724.879 450.539 721.819 450.539 719.931 448.652Z" stroke="#000000" stroke-width="2.66667" stroke-linejoin="round" stroke-miterlimit="10" fill="#EAEAEA" fill-rule="evenodd"/><path d="M747.155 421.428C745.267 419.541 745.267 416.48 747.155 414.593 749.043 412.705 752.103 412.705 753.99 414.593 755.878 416.48 755.878 419.541 753.99 421.428 752.103 423.316 749.043 423.316 747.155 421.428Z" stroke="#000000" stroke-width="2.66667" stroke-linejoin="round" stroke-miterlimit="10" fill="#EAEAEA" fill-rule="evenodd"/><path d="M774.379 394.205C772.491 392.317 772.491 389.257 774.379 387.369 776.266 385.482 779.326 385.482 781.214 387.369 783.102 389.257 783.102 392.317 781.214 394.205 779.326 396.092 776.266 396.092 774.379 394.205Z" stroke="#000000" stroke-width="2.66667" stroke-linejoin="round" stroke-miterlimit="10" fill="#EAEAEA" fill-rule="evenodd"/><path d="M801.602 366.981C799.715 365.094 799.715 362.033 801.602 360.146 803.49 358.258 806.55 358.258 808.438 360.146 810.325 362.033 810.325 365.094 808.438 366.981 806.55 368.869 803.49 368.869 801.602 366.981Z" stroke="#000000" stroke-width="2.66667" stroke-linejoin="round" stroke-miterlimit="10" fill="#EAEAEA" fill-rule="evenodd"/><path d="M829.179 339.404C827.292 337.516 827.292 334.456 829.179 332.569 831.067 330.681 834.127 330.681 836.015 332.569 837.902 334.456 837.902 337.516 836.015 339.404 834.127 341.292 831.067 341.292 829.179 339.404Z" stroke="#000000" stroke-width="2.66667" stroke-linejoin="round" stroke-miterlimit="10" fill="#EAEAEA" fill-rule="evenodd"/><path d="M856.049 312.534C854.162 310.646 854.162 307.586 856.049 305.699 857.937 303.811 860.997 303.811 862.885 305.699 864.772 307.586 864.772 310.646 862.885 312.534 860.997 314.421 857.937 314.421 856.049 312.534Z" stroke="#000000" stroke-width="2.66667" stroke-linejoin="round" stroke-miterlimit="10" fill="#EAEAEA" fill-rule="evenodd"/><path d="M671 310.5C671 308.015 673.239 306 676 306 678.761 306 681 308.015 681 310.5 681 312.985 678.761 315 676 315 673.239 315 671 312.985 671 310.5Z" fill-rule="evenodd"/><path d="M720.5 355.5 817.5 451.5" stroke="#000000" stroke-linejoin="round" stroke-miterlimit="10" stroke-dasharray="4 3" fill="none" fill-rule="evenodd"/><path d="M708.5 341.5 654.5 287.5" stroke="#000000" stroke-linejoin="round" stroke-miterlimit="10" stroke-dasharray="4 3" fill="none" fill-rule="evenodd"/><path d="M0.495709-0.0653682 1.01865 3.9003 0.0272367 4.03104-0.495709 0.0653682ZM1.41086 6.87455 1.93381 10.8402 0.942391 10.971 0.419446 7.00529ZM2.32602 13.8145 2.84896 17.7801 1.85755 17.9109 1.3346 13.9452ZM3.24117 20.7544 3.76412 24.7201 2.7727 24.8508 2.24975 20.8851ZM4.15633 27.6943 4.67927 31.66 3.68785 31.7907 3.16491 27.825ZM5.07148 34.6342 5.59443 38.5999 4.60301 38.7306 4.08006 34.765ZM5.98663 41.5742 6.50958 45.5398 5.51816 45.6706 4.99522 41.7049ZM6.90179 48.5141 7.42473 52.4797 6.43332 52.6105 5.91037 48.6448ZM7.81694 55.454 8.33989 59.4197 7.34847 59.5504 6.82552 55.5847ZM8.7321 62.3939 9.25504 66.3596 8.26362 66.4903 7.74068 62.5247ZM9.64725 69.3338 10.1702 73.2995 9.17878 73.4302 8.65583 69.4646ZM10.5624 76.2738 11.0854 80.2394 10.0939 80.3702 9.57099 76.4045ZM10.9541 83.0687 16.8663 76.9095 12 91 3.6474 78.6527Z" transform="matrix(-1 0 0 1 860.5 318.5)"/><path d="M0.498855-0.0338207 0.76942 3.95702-0.228289 4.02466-0.498855 0.0338207ZM0.972344 6.95015 1.24291 10.941 0.2452 11.0086-0.0253655 7.01779ZM1.44583 13.9341 1.7164 17.925 0.718689 17.9926 0.448124 14.0018ZM1.91932 20.9181 2.18989 24.9089 1.19218 24.9766 0.921613 20.9857ZM2.39281 27.9021 2.66338 31.8929 1.66567 31.9605 1.3951 27.9697ZM2.8663 34.886 3.13687 38.8769 2.13916 38.9445 1.86859 34.9537ZM3.33979 41.87 3.61036 45.8608 2.61265 45.9285 2.34208 41.9376ZM3.81328 48.854 3.95773 50.9845 2.96002 51.0522 2.81557 48.9216ZM3.45887 51.0183 9.74951 45.2463 4 59-3.55328 46.1481Z" transform="matrix(-1 0 0 1 833.5 344.5)"/><path d="M807.998 371.459 808.331 375.445 807.334 375.528 807.002 371.542ZM808.58 378.434 808.912 382.421 807.915 382.504 807.583 378.517ZM809.161 385.41 809.493 389.396 808.497 389.479 808.164 385.493ZM809.742 392.386 810.074 396.372 809.078 396.455 808.746 392.469ZM810.324 399.362 810.334 399.486 809.337 399.569 809.327 399.445ZM809.836 399.528 816.036 393.659 810.5 407.5 802.749 394.766Z"/><path d="M779.9 398.2 782.3 401.4 781.5 402 779.1 398.8ZM784.1 403.8 786.5 407 785.7 407.6 783.3 404.4ZM788.3 409.4 790.1 411.8 789.3 412.4 787.5 410ZM789.7 412.1 791.833 403.833 794.5 418.5 781.167 411.833Z"/><path d="M757.76 422.073 761.177 424.153 760.657 425.007 757.24 422.927ZM763.739 425.713 767.156 427.792 766.636 428.647 763.219 426.567ZM769.719 429.352 773.136 431.432 772.616 432.286 769.199 430.206ZM773.667 432.34 772.577 423.873 780.5 436.5 765.644 435.262Z"/><path d="M731.534 448.001 735.525 448.273 735.457 449.271 731.466 448.999ZM738.518 448.477 742.509 448.749 742.441 449.747 738.45 449.475ZM745.502 448.954 749.492 449.226 749.424 450.223 745.434 449.951ZM752.485 449.43 756.476 449.702 756.408 450.699 752.417 450.427ZM759.469 449.906 763.46 450.178 763.392 451.176 759.401 450.904ZM766.453 450.382 767.553 450.457 767.485 451.455 766.385 451.38ZM767.519 450.956 762.651 443.942 775.5 451.5 761.744 457.244Z"/><path d="M0.00714213-0.499949 4.00673-0.442812 3.99245 0.557086-0.00714213 0.499949ZM7.00643-0.399959 11.006-0.342822 10.9917 0.657076 6.99214 0.599939ZM14.0057-0.299969 18.0053-0.242832 17.991 0.757066 13.9914 0.699929ZM21.005-0.19998 25.0046-0.142843 24.9903 0.857055 20.9907 0.799918ZM28.0043-0.0999898 32.0039-0.0428528 31.9896 0.957045 27.99 0.899908ZM35.0036-5.12631e-08 39.0032 0.057137 38.9889 1.05703 34.9893 0.999898ZM42.0029 0.0999897 46.0024 0.157127 45.9882 1.15702 41.9886 1.09989ZM49.0021 0.19998 53.0017 0.257117 52.9874 1.25701 48.9879 1.19988ZM56.0014 0.299969 60.001 0.357106 59.9867 1.357 55.9871 1.29987ZM62.0008 0.885726 56.7633-5.85644 70 1 56.5728 7.47553Z" transform="matrix(1 0 0 -1 703.5 475.5)"/><path d="M0.0469613-0.49779 4.02928-0.122099 3.93536 0.87348-0.0469613 0.49779ZM7.01602 0.159668 10.9983 0.535359 10.9044 1.53094 6.9221 1.15525ZM13.9851 0.817127 17.9674 1.19282 17.8735 2.1884 13.8912 1.81271ZM20.9541 1.47458 24.9364 1.85028 24.8425 2.84585 20.8602 2.47016ZM27.9232 2.13204 31.9055 2.50773 31.8116 3.50331 27.8293 3.12762ZM34.8922 2.7895 38.8746 3.16519 38.7806 4.16077 34.7983 3.78508ZM41.8613 3.44696 45.8436 3.82265 45.7497 4.81823 41.7674 4.44254ZM48.8304 4.10442 52.8127 4.48011 52.7188 5.47569 48.7364 5.1ZM55.7994 4.76188 59.7817 5.13757 59.6878 6.13315 55.7055 5.75745ZM62.7685 5.41933 66.7508 5.79502 66.6569 6.7906 62.6745 6.41491ZM69.7375 6.07679 73.7198 6.45248 73.6259 7.44806 69.6436 7.07237ZM76.7066 6.73425 80.6889 7.10994 80.595 8.10552 76.6127 7.72983ZM83.6756 7.39171 87.658 7.7674 87.564 8.76298 83.5817 8.38729ZM90.6447 8.04917 94.627 8.42486 94.5331 9.42044 90.5508 9.04475ZM97.6137 8.70662 98.0825 8.75084 97.9885 9.74642 97.5198 9.7022ZM98.0354 9.24862 93.3518 2.1105 106 10 92.0994 15.3849Z" transform="matrix(1 0 0 -1 676.5 503.5)"/><path d="M57 310.5C57 308.015 59.2386 306 62 306 64.7614 306 67 308.015 67 310.5 67 312.985 64.7614 315 62 315 59.2386 315 57 312.985 57 310.5Z" fill-rule="evenodd"/><path d="M252 350.75 281.25 350.75 281.25 330 291 371.5 281.25 413 281.25 392.25 252 392.25Z" fill="url(#fill0)" fill-rule="evenodd"/><path d="M600 350.75 629.25 350.75 629.25 330 639 371.5 629.25 413 629.25 392.25 600 392.25Z" fill="url(#fill1)" fill-rule="evenodd"/><rect x="43" y="210" width="417" height="42" fill="#CCCCFF"/><text font-family="Arial,Arial_MSFontService,sans-serif" font-weight="400" font-size="23" transform="translate(61.5828 239)">Pin assignment to an external block</text><text font-family="Arial,Arial_MSFontService,sans-serif" font-style="italic" font-weight="400" font-size="23" transform="translate(426.749 239)">B</text></g></svg>