<svg width="808" height="336" xmlns="http://www.w3.org/2000/svg" xmlns:xlink="http://www.w3.org/1999/xlink" overflow="hidden"><defs><filter id="fx0" x="-10%" y="-10%" width="120%" height="120%" filterUnits="userSpaceOnUse" primitiveUnits="userSpaceOnUse"><feComponentTransfer color-interpolation-filters="sRGB"><feFuncR type="discrete" tableValues="0.372549 0.372549"/><feFuncG type="discrete" tableValues="0.372549 0.372549"/><feFuncB type="discrete" tableValues="0.372549 0.372549"/><feFuncA type="linear" slope="0.501961" intercept="0"/></feComponentTransfer><feGaussianBlur stdDeviation="0 0"/></filter><filter id="fx1" x="-10%" y="-10%" width="120%" height="120%" filterUnits="userSpaceOnUse" primitiveUnits="userSpaceOnUse"><feComponentTransfer color-interpolation-filters="sRGB"><feFuncR type="discrete" tableValues="0.372549 0.372549"/><feFuncG type="discrete" tableValues="0.372549 0.372549"/><feFuncB type="discrete" tableValues="0.372549 0.372549"/><feFuncA type="linear" slope="0.501961" intercept="0"/></feComponentTransfer><feGaussianBlur stdDeviation="0 0"/></filter><filter id="fx2" x="-10%" y="-10%" width="120%" height="120%" filterUnits="userSpaceOnUse" primitiveUnits="userSpaceOnUse"><feComponentTransfer color-interpolation-filters="sRGB"><feFuncR type="discrete" tableValues="0.372549 0.372549"/><feFuncG type="discrete" tableValues="0.372549 0.372549"/><feFuncB type="discrete" tableValues="0.372549 0.372549"/><feFuncA type="linear" slope="0.501961" intercept="0"/></feComponentTransfer><feGaussianBlur stdDeviation="0 0"/></filter><filter id="fx3" x="-10%" y="-10%" width="120%" height="120%" filterUnits="userSpaceOnUse" primitiveUnits="userSpaceOnUse"><feComponentTransfer color-interpolation-filters="sRGB"><feFuncR type="discrete" tableValues="0.372549 0.372549"/><feFuncG type="discrete" tableValues="0.372549 0.372549"/><feFuncB type="discrete" tableValues="0.372549 0.372549"/><feFuncA type="linear" slope="0.501961" intercept="0"/></feComponentTransfer><feGaussianBlur stdDeviation="0 0"/></filter><clipPath id="clip4"><rect x="0" y="1" width="46" height="38"/></clipPath><clipPath id="clip5"><rect x="0" y="1" width="47" height="38"/></clipPath><clipPath id="clip6"><rect x="0" y="1" width="47" height="38"/></clipPath><clipPath id="clip7"><rect x="0" y="1" width="47" height="38"/></clipPath></defs><g transform="translate(-81 -186)"><rect x="85" y="187" width="439" height="43" fill="#CCCCFF"/><text font-family="Arial,Arial_MSFontService,sans-serif" font-weight="400" font-size="23" transform="translate(104.728 215)">Zero</text><text font-family="Arial,Arial_MSFontService,sans-serif" font-weight="400" font-size="23" transform="translate(151.395 215)">-</text><text font-family="Arial,Arial_MSFontService,sans-serif" font-weight="400" font-size="23" transform="translate(158.895 215)">Force</text><text font-family="Arial,Arial_MSFontService,sans-serif" font-weight="400" font-size="23" transform="translate(216.895 215)">-</text><text font-family="Arial,Arial_MSFontService,sans-serif" font-weight="400" font-size="23" transform="translate(224.395 215)">Target (ZFT) position of cell</text><text font-family="Arial,Arial_MSFontService,sans-serif" font-style="italic" font-weight="400" font-size="23" transform="translate(507.048 215)">i</text><rect x="87" y="473" width="801" height="38" fill="#DDDDDD"/><text font-family="Arial,Arial_MSFontService,sans-serif" font-weight="400" font-size="24" transform="translate(96.4334 500)">min</text><text font-family="Arial,Arial_MSFontService,sans-serif" font-style="italic" font-weight="400" font-size="24" transform="translate(141.767 500)">F</text><text font-family="Arial,Arial_MSFontService,sans-serif" font-style="italic" font-weight="400" font-size="16" transform="translate(156.433 505)">i</text><text font-family="Arial,Arial_MSFontService,sans-serif" font-style="italic" font-weight="400" font-size="24" transform="translate(166.6 500)">= c</text><text font-family="Arial,Arial_MSFontService,sans-serif" font-weight="400" font-size="24" transform="translate(199.267 500)">(</text><text fill="#CC0000" font-family="Arial,Arial_MSFontService,sans-serif" font-style="italic" font-weight="400" font-size="24" transform="translate(207.267 500)">i</text><text font-family="Arial,Arial_MSFontService,sans-serif" font-weight="400" font-size="24" transform="translate(212.6 500)">,</text><text font-family="Arial,Arial_MSFontService,sans-serif" font-style="italic" font-weight="400" font-size="24" transform="translate(219.267 500)">a</text><text font-family="Arial,Arial_MSFontService,sans-serif" font-weight="400" font-size="24" transform="translate(232.6 500)">)</text><text font-family="Times New Roman,Times New Roman_MSFontService,sans-serif" font-weight="400" font-size="24" transform="translate(247.267 500)">∙ (</text><text font-family="Arial,Arial_MSFontService,sans-serif" font-style="italic" font-weight="400" font-size="24" transform="translate(267.267 500)">a</text><text font-family="Arial,Arial_MSFontService,sans-serif" font-style="italic" font-weight="400" font-size="24" transform="translate(287.267 500)">–</text><text fill="#CC0000" font-family="Arial,Arial_MSFontService,sans-serif" font-style="italic" font-weight="400" font-size="24" transform="translate(307.267 500)">i</text><text font-family="Arial,Arial_MSFontService,sans-serif" font-weight="400" font-size="24" transform="translate(319.267 500)">)</text><text font-family="Arial,Arial_MSFontService,sans-serif" font-weight="400" font-size="24" transform="translate(331.767 500)">+</text><text font-family="Arial,Arial_MSFontService,sans-serif" font-style="italic" font-weight="400" font-size="24" transform="translate(352.433 500)">c</text><text font-family="Arial,Arial_MSFontService,sans-serif" font-weight="400" font-size="24" transform="translate(364.433 500)">(</text><text fill="#CC0000" font-family="Arial,Arial_MSFontService,sans-serif" font-style="italic" font-weight="400" font-size="24" transform="translate(372.433 500)">i</text><text font-family="Arial,Arial_MSFontService,sans-serif" font-weight="400" font-size="24" transform="translate(377.767 500)">,</text><text font-family="Arial,Arial_MSFontService,sans-serif" font-style="italic" font-weight="400" font-size="24" transform="translate(384.433 500)">b</text><text font-family="Arial,Arial_MSFontService,sans-serif" font-weight="400" font-size="24" transform="translate(397.767 500)">) ∙ (</text><text font-family="Arial,Arial_MSFontService,sans-serif" font-style="italic" font-weight="400" font-size="24" transform="translate(433.767 500)">b</text><text font-family="Arial,Arial_MSFontService,sans-serif" font-weight="400" font-size="24" transform="translate(453.767 500)">–</text><text fill="#CC0000" font-family="Arial,Arial_MSFontService,sans-serif" font-style="italic" font-weight="400" font-size="24" transform="translate(473.767 500)">i</text><text font-family="Arial,Arial_MSFontService,sans-serif" font-weight="400" font-size="24" transform="translate(485.767 500)">)</text><text font-family="Arial,Arial_MSFontService,sans-serif" font-weight="400" font-size="24" transform="translate(498.267 500)">+</text><text font-family="Arial,Arial_MSFontService,sans-serif" font-style="italic" font-weight="400" font-size="24" transform="translate(518.933 500)">c</text><text font-family="Arial,Arial_MSFontService,sans-serif" font-weight="400" font-size="24" transform="translate(530.933 500)">(</text><text fill="#CC0000" font-family="Arial,Arial_MSFontService,sans-serif" font-style="italic" font-weight="400" font-size="24" transform="translate(538.933 500)">i</text><text font-family="Arial,Arial_MSFontService,sans-serif" font-weight="400" font-size="24" transform="translate(544.267 500)">,</text><text font-family="Arial,Arial_MSFontService,sans-serif" font-style="italic" font-weight="400" font-size="24" transform="translate(550.933 500)">c</text><text font-family="Arial,Arial_MSFontService,sans-serif" font-weight="400" font-size="24" transform="translate(562.933 500)">) ∙ (</text><text font-family="Arial,Arial_MSFontService,sans-serif" font-style="italic" font-weight="400" font-size="24" transform="translate(598.933 500)">c</text><text font-family="Arial,Arial_MSFontService,sans-serif" font-weight="400" font-size="24" transform="translate(617.6 500)">–</text><text fill="#CC0000" font-family="Arial,Arial_MSFontService,sans-serif" font-style="italic" font-weight="400" font-size="24" transform="translate(637.6 500)">i</text><text font-family="Arial,Arial_MSFontService,sans-serif" font-weight="400" font-size="24" transform="translate(649.6 500)">)</text><text font-family="Arial,Arial_MSFontService,sans-serif" font-weight="400" font-size="24" transform="translate(662.1 500)">+</text><text font-family="Arial,Arial_MSFontService,sans-serif" font-style="italic" font-weight="400" font-size="24" transform="translate(682.767 500)">c</text><text font-family="Arial,Arial_MSFontService,sans-serif" font-weight="400" font-size="24" transform="translate(694.767 500)">(</text><text fill="#CC0000" font-family="Arial,Arial_MSFontService,sans-serif" font-style="italic" font-weight="400" font-size="24" transform="translate(702.767 500)">i</text><text font-family="Arial,Arial_MSFontService,sans-serif" font-weight="400" font-size="24" transform="translate(708.1 500)">,</text><text font-family="Arial,Arial_MSFontService,sans-serif" font-style="italic" font-weight="400" font-size="24" transform="translate(714.767 500)">d</text><text font-family="Arial,Arial_MSFontService,sans-serif" font-weight="400" font-size="24" transform="translate(728.1 500)">) ∙ (</text><text font-family="Arial,Arial_MSFontService,sans-serif" font-style="italic" font-weight="400" font-size="24" transform="translate(764.1 500)">d</text><text font-family="Arial,Arial_MSFontService,sans-serif" font-weight="400" font-size="24" transform="translate(784.1 500)">–</text><text fill="#CC0000" font-family="Arial,Arial_MSFontService,sans-serif" font-style="italic" font-weight="400" font-size="24" transform="translate(804.1 500)">i</text><text font-family="Arial,Arial_MSFontService,sans-serif" font-weight="400" font-size="24" transform="translate(816.1 500)">)</text><path d="M148.5 479 165.833 479 165.833 480 148.5 480ZM164.5 475.5 172.5 479.5 164.5 483.5Z"/><path d="M268.5 479 276.833 479 276.833 480 268.5 480ZM275.5 475.5 283.5 479.5 275.5 483.5Z"/><path d="M306.5 479 313.833 479 313.833 480 306.5 480ZM312.5 475.5 320.5 479.5 312.5 483.5Z" fill="#CC0000"/><path d="M434.5 479 442.833 479 442.833 480 434.5 480ZM441.5 475.5 449.5 479.5 441.5 483.5Z"/><path d="M473.5 479 481.833 479 481.833 480 473.5 480ZM480.5 475.5 488.5 479.5 480.5 483.5Z" fill="#CC0000"/><path d="M596.5 480 604.833 480 604.833 481 596.5 481ZM603.5 476.5 611.5 480.5 603.5 484.5Z"/><path d="M632.5 480 639.833 480 639.833 481 632.5 481ZM638.5 476.5 646.5 480.5 638.5 484.5Z" fill="#CC0000"/><path d="M761.5 480 769.833 480 769.833 481 761.5 481ZM768.5 476.5 776.5 480.5 768.5 484.5Z"/><path d="M798.5 480 806.833 480 806.833 481 798.5 481ZM805.5 476.5 813.5 480.5 805.5 484.5Z" fill="#CC0000"/><rect x="87.5001" y="259.5" width="437" height="184" stroke="#969696" stroke-miterlimit="8" fill="#EAEAEA"/><g clip-path="url(#clip4)" filter="url(#fx0)" transform="translate(97 334)"><g><rect x="0.666695" y="1.00003" width="45" height="37" fill="#B2B2B2"/></g></g><rect x="95" y="331" width="45" height="37" fill="#B2B2B2"/><g clip-path="url(#clip5)" filter="url(#fx1)" transform="translate(405 265)"><g><rect x="0.666687" y="1.00003" width="46" height="37" fill="#B2B2B2"/></g></g><rect x="403" y="262" width="46" height="37" fill="#B2B2B2"/><g clip-path="url(#clip6)" filter="url(#fx2)" transform="translate(405 393)"><g><rect x="0.666687" y="1.00003" width="46" height="37" fill="#B2B2B2"/></g></g><rect x="403" y="390" width="46" height="37" fill="#B2B2B2"/><g clip-path="url(#clip7)" filter="url(#fx3)" transform="translate(471 334)"><g><rect x="0.666687" y="1.00003" width="46" height="37" fill="#B2B2B2"/></g></g><rect x="469" y="331" width="46" height="37" fill="#B2B2B2"/><rect x="343.5" y="331.5" width="45" height="37" stroke="#CC0000" stroke-width="1.33333" stroke-miterlimit="8" fill="#EDD1D1"/><path d="M0.00353104-0.833326 228.004 0.132777 227.997 1.79943-0.00353104 0.833326ZM228 0.966102 222.695-5.7231 236 1 222.639 7.61011Z" transform="matrix(-1 0 0 1 358 352)"/><path d="M0.612336-0.565233 55.1861 58.5563 53.9614 59.6868-0.612336 0.565233ZM54.5738 59.1216 55.855 50.6807 60 65 46.0576 59.7245Z" transform="matrix(1 0 0 -1 358 352)"/><path d="M358.006 351.167 479.007 352.105 478.994 353.771 357.994 352.833ZM479 352.938 473.719 346.23 487 353 473.615 359.563Z"/><path d="M358.551 351.375 411.549 398.085 410.447 399.336 357.449 352.625ZM410.998 398.71 411.405 390.183 417 404 402.589 400.185Z"/><text font-family="Arial,Arial_MSFontService,sans-serif" font-style="italic" font-weight="400" font-size="24" transform="translate(420.167 287)">a</text><text font-family="Arial,Arial_MSFontService,sans-serif" font-style="italic" font-weight="400" font-size="24" transform="translate(488.333 357)">b</text><text font-family="Arial,Arial_MSFontService,sans-serif" font-style="italic" font-weight="400" font-size="24" transform="translate(419.833 415)">c</text><text font-family="Arial,Arial_MSFontService,sans-serif" font-style="italic" font-weight="400" font-size="24" transform="translate(104.833 357)">d</text><text fill="#CC0000" font-family="Arial,Arial_MSFontService,sans-serif" font-style="italic" font-weight="400" font-size="24" transform="translate(360.667 325)">i</text><path d="M0.690236-0.466924 19.2078 26.9068 17.8273 27.8407-0.690236 0.466924ZM18.5175 27.3737 21.0511 19.2208 23 34 10.0073 26.6916Z" fill="#969696" transform="matrix(1 0 0 -1 324 404)"/><rect x="209" y="398" width="155" height="38" fill="#CCCCFF"/><text font-family="Arial,Arial_MSFontService,sans-serif" font-weight="400" font-size="24" transform="translate(218.717 426)">ZFT Position</text></g></svg>