<svg width="840" height="424" xmlns="http://www.w3.org/2000/svg" xmlns:xlink="http://www.w3.org/1999/xlink" overflow="hidden"><defs><clipPath id="clip0"><path d="M86.5001 391.5 86.5001 573.5 242.5 573.5 242.5 391.5ZM74 214 914 214 914 638 74 638Z" fill-rule="evenodd" clip-rule="evenodd"/></clipPath><clipPath id="clip1"><path d="M307.5 391.5 307.5 573.5 464.5 573.5 464.5 391.5ZM74 214 914 214 914 638 74 638Z" fill-rule="evenodd" clip-rule="evenodd"/></clipPath><clipPath id="clip2"><path d="M523.5 391.5 523.5 574.5 680.5 574.5 680.5 391.5ZM74 214 914 214 914 638 74 638Z" fill-rule="evenodd" clip-rule="evenodd"/></clipPath><clipPath id="clip3"><path d="M736.5 390.5 736.5 573.5 892.5 573.5 892.5 390.5ZM74 214 914 214 914 638 74 638Z" fill-rule="evenodd" clip-rule="evenodd"/></clipPath></defs><g transform="translate(-74 -214)"><rect x="87" y="216" width="166" height="129" fill="#CCCCFF"/><text font-family="Arial,Arial_MSFontService,sans-serif" font-weight="400" font-size="23" transform="translate(106.896 243)">Rectilinear</text><text font-family="Arial,Arial_MSFontService,sans-serif" font-weight="400" font-size="23" transform="translate(106.896 272)">minimum</text><text font-family="Arial,Arial_MSFontService,sans-serif" font-weight="400" font-size="23" transform="translate(106.896 302)">spanning</text><text font-family="Arial,Arial_MSFontService,sans-serif" font-weight="400" font-size="23" transform="translate(106.896 331)">tree (RMST)</text><text font-family="Arial,Arial_MSFontService,sans-serif" font-weight="400" font-size="21" transform="translate(87.4867 620)">RMST Length = 11</text><g clip-path="url(#clip0)"><rect x="89.1667" y="394.167" width="156" height="182" fill="#FFFFFF"/><path d="M89.6667 575.667 244.667 575.667 244.667 394.667 89.6667 394.667ZM88.6667 576.667 88.6667 393.667 245.667 393.667 245.667 576.667Z" fill="#FFFFFF" fill-rule="evenodd"/></g><rect x="86.5001" y="391.5" width="156" height="182" stroke="#969696" stroke-miterlimit="8" fill="#EAEAEA"/><path d="M138.5 573.5 138.5 391.5" stroke="#808080" stroke-linejoin="round" stroke-miterlimit="10" stroke-dasharray="1 1" fill="none" fill-rule="evenodd"/><path d="M112.5 574.5 112.5 391.5" stroke="#808080" stroke-linejoin="round" stroke-miterlimit="10" stroke-dasharray="1 1" fill="none" fill-rule="evenodd"/><path d="M86.5 548.5 243.5 548.5" stroke="#808080" stroke-linejoin="round" stroke-miterlimit="10" stroke-dasharray="1 1" fill="none" fill-rule="evenodd"/><path d="M86.5 522.5 243.5 522.5" stroke="#808080" stroke-linejoin="round" stroke-miterlimit="10" stroke-dasharray="1 1" fill="none" fill-rule="evenodd"/><path d="M86.5 497.5 243.5 497.5" stroke="#808080" stroke-linejoin="round" stroke-miterlimit="10" stroke-dasharray="1 1" fill="none" fill-rule="evenodd"/><path d="M87.5001 471.5 243.5 471.5" stroke="#808080" stroke-linejoin="round" stroke-miterlimit="10" stroke-dasharray="1 1" fill="none" fill-rule="evenodd"/><path d="M164.5 574.5 164.5 391.5" stroke="#808080" stroke-linejoin="round" stroke-miterlimit="10" stroke-dasharray="1 1" fill="none" fill-rule="evenodd"/><path d="M190.5 573.5 190.5 391.5" stroke="#808080" stroke-linejoin="round" stroke-miterlimit="10" stroke-dasharray="1 1" fill="none" fill-rule="evenodd"/><path d="M216.5 573.5 216.5 391.5" stroke="#808080" stroke-linejoin="round" stroke-miterlimit="10" stroke-dasharray="1 1" fill="none" fill-rule="evenodd"/><path d="M86.5 445.5 243.5 445.5" stroke="#808080" stroke-linejoin="round" stroke-miterlimit="10" stroke-dasharray="1 1" fill="none" fill-rule="evenodd"/><path d="M87.5 420.5 244.5 420.5" stroke="#808080" stroke-linejoin="round" stroke-miterlimit="10" stroke-dasharray="1 1" fill="none" fill-rule="evenodd"/><rect x="91.5001" y="502.5" width="16" height="41" stroke="#000000" stroke-miterlimit="8" fill="#B2B2B2"/><rect x="221.5" y="399.5" width="16" height="41" stroke="#000000" stroke-miterlimit="8" fill="#B2B2B2"/><rect x="144.5" y="451.5" width="40" height="40" stroke="#000000" stroke-miterlimit="8" fill="#B2B2B2"/><rect x="169.5" y="553.5" width="57" height="16" stroke="#000000" stroke-miterlimit="8" fill="#B2B2B2"/><path d="M113.5 523.5 113.5 497.151 216.5 497.151 216.5 420.5" stroke="#000000" stroke-width="3.33333" stroke-linejoin="round" stroke-miterlimit="10" fill="none" fill-rule="evenodd"/><path d="M164.5 496.5 164.5 548.5 190.5 548.5" stroke="#000000" stroke-width="3.33333" stroke-linejoin="round" stroke-miterlimit="10" fill="none" fill-rule="evenodd"/><path d="M160.5 497C160.5 494.515 162.291 492.5 164.5 492.5 166.709 492.5 168.5 494.515 168.5 497 168.5 499.485 166.709 501.5 164.5 501.5 162.291 501.5 160.5 499.485 160.5 497Z" stroke="#000000" stroke-linejoin="round" stroke-miterlimit="10" fill="#FFFFFF" fill-rule="evenodd"/><path d="M108.5 523.5C108.5 521.291 110.291 519.5 112.5 519.5 114.709 519.5 116.5 521.291 116.5 523.5 116.5 525.709 114.709 527.5 112.5 527.5 110.291 527.5 108.5 525.709 108.5 523.5Z" stroke="#000000" stroke-linejoin="round" stroke-miterlimit="10" fill="#FFFFFF" fill-rule="evenodd"/><path d="M185.5 548.5C185.5 546.291 187.515 544.5 190 544.5 192.485 544.5 194.5 546.291 194.5 548.5 194.5 550.709 192.485 552.5 190 552.5 187.515 552.5 185.5 550.709 185.5 548.5Z" stroke="#000000" stroke-linejoin="round" stroke-miterlimit="10" fill="#FFFFFF" fill-rule="evenodd"/><path d="M212.5 420.5C212.5 418.291 214.291 416.5 216.5 416.5 218.709 416.5 220.5 418.291 220.5 420.5 220.5 422.709 218.709 424.5 216.5 424.5 214.291 424.5 212.5 422.709 212.5 420.5Z" stroke="#000000" stroke-linejoin="round" stroke-miterlimit="10" fill="#FFFFFF" fill-rule="evenodd"/><text font-family="Arial,Arial_MSFontService,sans-serif" font-weight="400" font-size="21" transform="translate(119.25 492)">3</text><text font-family="Arial,Arial_MSFontService,sans-serif" font-weight="400" font-size="21" transform="translate(147 536)">3</text><text font-family="Arial,Arial_MSFontService,sans-serif" font-weight="400" font-size="21" transform="translate(200.333 471)">5</text><rect x="306" y="216" width="167" height="129" fill="#CCCCFF"/><text font-family="Arial,Arial_MSFontService,sans-serif" font-weight="400" font-size="23" transform="translate(326.229 243)">Rectilinear</text><text font-family="Arial,Arial_MSFontService,sans-serif" font-weight="400" font-size="23" transform="translate(326.229 272)">Steiner</text><text font-family="Arial,Arial_MSFontService,sans-serif" font-weight="400" font-size="23" transform="translate(326.229 302)">minimum</text><text font-family="Arial,Arial_MSFontService,sans-serif" font-weight="400" font-size="23" transform="translate(326.229 331)">tree (RSMT)</text><text font-family="Arial,Arial_MSFontService,sans-serif" font-weight="400" font-size="21" transform="translate(296.86 620)">RSMT Length = 10</text><g clip-path="url(#clip1)"><rect x="310.167" y="394.167" width="157" height="182" fill="#FFFFFF"/><path d="M310.667 575.667 466.667 575.667 466.667 394.667 310.667 394.667ZM309.667 576.667 309.667 393.667 467.667 393.667 467.667 576.667Z" fill="#FFFFFF" fill-rule="evenodd"/></g><rect x="307.5" y="391.5" width="157" height="182" stroke="#969696" stroke-miterlimit="8" fill="#EAEAEA"/><path d="M360.5 574.5 360.5 391.5" stroke="#808080" stroke-linejoin="round" stroke-miterlimit="10" stroke-dasharray="1 1" fill="none" fill-rule="evenodd"/><path d="M334.5 574.5 334.5 392.5" stroke="#808080" stroke-linejoin="round" stroke-miterlimit="10" stroke-dasharray="1 1" fill="none" fill-rule="evenodd"/><path d="M308.5 548.5 464.5 548.5" stroke="#808080" stroke-linejoin="round" stroke-miterlimit="10" stroke-dasharray="1 1" fill="none" fill-rule="evenodd"/><path d="M308.5 523.5 464.5 523.5" stroke="#808080" stroke-linejoin="round" stroke-miterlimit="10" stroke-dasharray="1 1" fill="none" fill-rule="evenodd"/><path d="M308.5 497.5 464.5 497.5" stroke="#808080" stroke-linejoin="round" stroke-miterlimit="10" stroke-dasharray="1 1" fill="none" fill-rule="evenodd"/><path d="M308.5 471.5 465.5 471.5" stroke="#808080" stroke-linejoin="round" stroke-miterlimit="10" stroke-dasharray="1 1" fill="none" fill-rule="evenodd"/><path d="M386.5 574.5 386.5 392.5" stroke="#808080" stroke-linejoin="round" stroke-miterlimit="10" stroke-dasharray="1 1" fill="none" fill-rule="evenodd"/><path d="M412.5 574.5 412.5 391.5" stroke="#808080" stroke-linejoin="round" stroke-miterlimit="10" stroke-dasharray="1 1" fill="none" fill-rule="evenodd"/><path d="M438.5 573.5 438.5 391.5" stroke="#808080" stroke-linejoin="round" stroke-miterlimit="10" stroke-dasharray="1 1" fill="none" fill-rule="evenodd"/><path d="M308.5 446.5 465.5 446.5" stroke="#808080" stroke-linejoin="round" stroke-miterlimit="10" stroke-dasharray="1 1" fill="none" fill-rule="evenodd"/><path d="M309.5 420.5 465.5 420.5" stroke="#808080" stroke-linejoin="round" stroke-miterlimit="10" stroke-dasharray="1 1" fill="none" fill-rule="evenodd"/><rect x="313.5" y="503.5" width="16" height="40" stroke="#000000" stroke-miterlimit="8" fill="#B2B2B2"/><rect x="443.5" y="400.5" width="15" height="40" stroke="#000000" stroke-miterlimit="8" fill="#B2B2B2"/><rect x="366.5" y="451.5" width="40" height="41" stroke="#000000" stroke-miterlimit="8" fill="#B2B2B2"/><rect x="391.5" y="554.5" width="57" height="15" stroke="#000000" stroke-miterlimit="8" fill="#B2B2B2"/><path d="M334.5 523.5 386.5 523.5 386.5 497.5" stroke="#000000" stroke-width="3.33333" stroke-linejoin="round" stroke-miterlimit="10" fill="none" fill-rule="evenodd"/><path d="M412.5 548.5 412.5 419.5 438.5 419.5" stroke="#000000" stroke-width="3.33333" stroke-linejoin="round" stroke-miterlimit="10" fill="none" fill-rule="evenodd"/><path d="M384.5 497.5 411.5 497.5" stroke="#000000" stroke-width="3.33333" stroke-linejoin="round" stroke-miterlimit="10" fill="none" fill-rule="evenodd"/><path d="M382.5 497.5C382.5 495.291 384.291 493.5 386.5 493.5 388.709 493.5 390.5 495.291 390.5 497.5 390.5 499.709 388.709 501.5 386.5 501.5 384.291 501.5 382.5 499.709 382.5 497.5Z" stroke="#000000" stroke-linejoin="round" stroke-miterlimit="10" fill="#FFFFFF" fill-rule="evenodd"/><path d="M330.5 523.5C330.5 521.291 332.291 519.5 334.5 519.5 336.709 519.5 338.5 521.291 338.5 523.5 338.5 525.709 336.709 527.5 334.5 527.5 332.291 527.5 330.5 525.709 330.5 523.5Z" stroke="#000000" stroke-linejoin="round" stroke-miterlimit="10" fill="#FFFFFF" fill-rule="evenodd"/><path d="M407.5 549C407.5 546.515 409.515 544.5 412 544.5 414.485 544.5 416.5 546.515 416.5 549 416.5 551.485 414.485 553.5 412 553.5 409.515 553.5 407.5 551.485 407.5 549Z" stroke="#000000" stroke-linejoin="round" stroke-miterlimit="10" fill="#FFFFFF" fill-rule="evenodd"/><path d="M433.5 420.5C433.5 418.291 435.515 416.5 438 416.5 440.485 416.5 442.5 418.291 442.5 420.5 442.5 422.709 440.485 424.5 438 424.5 435.515 424.5 433.5 422.709 433.5 420.5Z" stroke="#000000" stroke-linejoin="round" stroke-miterlimit="10" fill="#FFFFFF" fill-rule="evenodd"/><text font-family="Arial,Arial_MSFontService,sans-serif" font-weight="400" font-size="21" transform="translate(352.833 549)">3</text><text font-family="Arial,Arial_MSFontService,sans-serif" font-weight="400" font-size="21" transform="translate(391.833 521)">1</text><text font-family="Arial,Arial_MSFontService,sans-serif" font-weight="400" font-size="21" transform="translate(415.667 495)">6</text><rect x="525" y="216" width="182" height="130" fill="#CCCCFF"/><text font-family="Arial,Arial_MSFontService,sans-serif" font-weight="400" font-size="23" transform="translate(545.396 244)">Rectilinear</text><text font-family="Arial,Arial_MSFontService,sans-serif" font-weight="400" font-size="23" transform="translate(545.396 273)">Steiner</text><text font-family="Arial,Arial_MSFontService,sans-serif" font-weight="400" font-size="23" transform="translate(545.396 303)">arborescence</text><text font-family="Arial,Arial_MSFontService,sans-serif" font-weight="400" font-size="23" transform="translate(545.396 332)">model (RSA)</text><g clip-path="url(#clip2)"><rect x="526.167" y="394.167" width="157" height="183" fill="#FFFFFF"/><path d="M526.667 576.667 682.667 576.667 682.667 394.667 526.667 394.667ZM525.667 577.667 525.667 393.667 683.667 393.667 683.667 577.667Z" fill="#FFFFFF" fill-rule="evenodd"/></g><rect x="523.5" y="391.5" width="157" height="183" stroke="#969696" stroke-miterlimit="8" fill="#EAEAEA"/><path d="M576.5 574.5 576.5 391.5" stroke="#808080" stroke-linejoin="round" stroke-miterlimit="10" stroke-dasharray="1 1" fill="none" fill-rule="evenodd"/><path d="M550.5 574.5 550.5 391.5" stroke="#808080" stroke-linejoin="round" stroke-miterlimit="10" stroke-dasharray="1 1" fill="none" fill-rule="evenodd"/><path d="M523.5 548.5 680.5 548.5" stroke="#808080" stroke-linejoin="round" stroke-miterlimit="10" stroke-dasharray="1 1" fill="none" fill-rule="evenodd"/><path d="M523.5 523.5 680.5 523.5" stroke="#808080" stroke-linejoin="round" stroke-miterlimit="10" stroke-dasharray="1 1" fill="none" fill-rule="evenodd"/><path d="M523.5 497.5 680.5 497.5" stroke="#808080" stroke-linejoin="round" stroke-miterlimit="10" stroke-dasharray="1 1" fill="none" fill-rule="evenodd"/><path d="M524.5 471.5 681.5 471.5" stroke="#808080" stroke-linejoin="round" stroke-miterlimit="10" stroke-dasharray="1 1" fill="none" fill-rule="evenodd"/><path d="M602.5 574.5 602.5 391.5" stroke="#808080" stroke-linejoin="round" stroke-miterlimit="10" stroke-dasharray="1 1" fill="none" fill-rule="evenodd"/><path d="M627.5 574.5 627.5 391.5" stroke="#808080" stroke-linejoin="round" stroke-miterlimit="10" stroke-dasharray="1 1" fill="none" fill-rule="evenodd"/><path d="M653.5 574.5 653.5 391.5" stroke="#808080" stroke-linejoin="round" stroke-miterlimit="10" stroke-dasharray="1 1" fill="none" fill-rule="evenodd"/><path d="M524.5 445.5 680.5 445.5" stroke="#808080" stroke-linejoin="round" stroke-miterlimit="10" stroke-dasharray="1 1" fill="none" fill-rule="evenodd"/><path d="M524.5 419.5 681.5 419.5" stroke="#808080" stroke-linejoin="round" stroke-miterlimit="10" stroke-dasharray="1 1" fill="none" fill-rule="evenodd"/><text font-family="Arial,Arial_MSFontService,sans-serif" font-weight="400" font-size="21" transform="translate(523.09 620)">RSA Length = 10</text><rect x="529.5" y="502.5" width="16" height="41" stroke="#000000" stroke-miterlimit="8" fill="#B2B2B2"/><rect x="659.5" y="399.5" width="15" height="41" stroke="#000000" stroke-miterlimit="8" fill="#B2B2B2"/><rect x="581.5" y="451.5" width="40" height="41" stroke="#000000" stroke-miterlimit="8" fill="#B2B2B2"/><rect x="607.5" y="553.5" width="56" height="16" stroke="#000000" stroke-miterlimit="8" fill="#B2B2B2"/><path d="M545.5 523.5C545.5 521.291 547.515 519.5 550 519.5 552.485 519.5 554.5 521.291 554.5 523.5 554.5 525.709 552.485 527.5 550 527.5 547.515 527.5 545.5 525.709 545.5 523.5Z" stroke="#000000" stroke-linejoin="round" stroke-miterlimit="10" fill-rule="evenodd"/><text font-family="Arial,Arial_MSFontService,sans-serif" font-weight="400" font-size="21" transform="translate(656 499)">+5</text><path d="M550.5 523.5 654.5 523.5 654.5 418.5" stroke="#000000" stroke-width="3.33333" stroke-linejoin="round" stroke-miterlimit="10" fill="none" fill-rule="evenodd"/><path d="M601.5 497.5 601.5 523.5" stroke="#000000" stroke-width="3.33333" stroke-linejoin="round" stroke-miterlimit="10" fill="none" fill-rule="evenodd"/><path d="M0 0 0.000104987 26" stroke="#000000" stroke-width="3.33333" stroke-linejoin="round" stroke-miterlimit="10" fill="none" fill-rule="evenodd" transform="matrix(1 0 0 -1 627.5 549.5)"/><path d="M597.5 497.5C597.5 495.291 599.291 493.5 601.5 493.5 603.709 493.5 605.5 495.291 605.5 497.5 605.5 499.709 603.709 501.5 601.5 501.5 599.291 501.5 597.5 499.709 597.5 497.5Z" stroke="#000000" stroke-linejoin="round" stroke-miterlimit="10" fill="#FFFFFF" fill-rule="evenodd"/><text font-family="Arial,Arial_MSFontService,sans-serif" font-weight="400" font-size="21" transform="translate(569.167 548)">3</text><text font-family="Arial,Arial_MSFontService,sans-serif" font-weight="400" font-size="21" transform="translate(595.583 545)">+2</text><path d="M623.5 549C623.5 546.515 625.291 544.5 627.5 544.5 629.709 544.5 631.5 546.515 631.5 549 631.5 551.485 629.709 553.5 627.5 553.5 625.291 553.5 623.5 551.485 623.5 549Z" stroke="#000000" stroke-linejoin="round" stroke-miterlimit="10" fill="#FFFFFF" fill-rule="evenodd"/><path d="M649.5 420.5C649.5 418.291 651.515 416.5 654 416.5 656.485 416.5 658.5 418.291 658.5 420.5 658.5 422.709 656.485 424.5 654 424.5 651.515 424.5 649.5 422.709 649.5 420.5Z" stroke="#000000" stroke-linejoin="round" stroke-miterlimit="10" fill="#FFFFFF" fill-rule="evenodd"/><rect x="737" y="216" width="168" height="100" fill="#CCCCFF"/><text font-family="Arial,Arial_MSFontService,sans-serif" font-weight="400" font-size="23" transform="translate(757.062 244)">Single</text><text font-family="Arial,Arial_MSFontService,sans-serif" font-weight="400" font-size="23" transform="translate(820.229 244)">-</text><text font-family="Arial,Arial_MSFontService,sans-serif" font-weight="400" font-size="23" transform="translate(827.729 244)">trunk</text><text font-family="Arial,Arial_MSFontService,sans-serif" font-weight="400" font-size="23" transform="translate(757.062 273)">Steiner</text><text font-family="Arial,Arial_MSFontService,sans-serif" font-weight="400" font-size="23" transform="translate(757.062 303)">tree (RSMT)</text><g clip-path="url(#clip3)"><rect x="739.167" y="393.167" width="156" height="183" fill="#FFFFFF"/><path d="M739.667 575.667 894.667 575.667 894.667 393.667 739.667 393.667ZM738.667 576.667 738.667 392.667 895.667 392.667 895.667 576.667Z" fill="#FFFFFF" fill-rule="evenodd"/></g><rect x="736.5" y="390.5" width="156" height="183" stroke="#969696" stroke-miterlimit="8" fill="#EAEAEA"/><path d="M788.5 573.5 788.5 390.5" stroke="#808080" stroke-linejoin="round" stroke-miterlimit="10" stroke-dasharray="1 1" fill="none" fill-rule="evenodd"/><path d="M763.5 573.5 763.5 391.5" stroke="#808080" stroke-linejoin="round" stroke-miterlimit="10" stroke-dasharray="1 1" fill="none" fill-rule="evenodd"/><path d="M736.5 547.5 893.5 547.5" stroke="#808080" stroke-linejoin="round" stroke-miterlimit="10" stroke-dasharray="1 1" fill="none" fill-rule="evenodd"/><path d="M736.5 522.5 893.5 522.5" stroke="#808080" stroke-linejoin="round" stroke-miterlimit="10" stroke-dasharray="1 1" fill="none" fill-rule="evenodd"/><path d="M736.5 496.5 893.5 496.5" stroke="#808080" stroke-linejoin="round" stroke-miterlimit="10" stroke-dasharray="1 1" fill="none" fill-rule="evenodd"/><path d="M737.5 470.5 893.5 470.5" stroke="#808080" stroke-linejoin="round" stroke-miterlimit="10" stroke-dasharray="1 1" fill="none" fill-rule="evenodd"/><path d="M814.5 573.5 814.5 391.5" stroke="#808080" stroke-linejoin="round" stroke-miterlimit="10" stroke-dasharray="1 1" fill="none" fill-rule="evenodd"/><path d="M840.5 573.5 840.5 390.5" stroke="#808080" stroke-linejoin="round" stroke-miterlimit="10" stroke-dasharray="1 1" fill="none" fill-rule="evenodd"/><path d="M866.5 573.5 866.5 390.5" stroke="#808080" stroke-linejoin="round" stroke-miterlimit="10" stroke-dasharray="1 1" fill="none" fill-rule="evenodd"/><path d="M737.5 445.5 893.5 445.5" stroke="#808080" stroke-linejoin="round" stroke-miterlimit="10" stroke-dasharray="1 1" fill="none" fill-rule="evenodd"/><path d="M737.5 419.5 894.5 419.5" stroke="#808080" stroke-linejoin="round" stroke-miterlimit="10" stroke-dasharray="1 1" fill="none" fill-rule="evenodd"/><text font-family="Arial,Arial_MSFontService,sans-serif" font-weight="400" font-size="21" transform="translate(727.527 620)">STST Length = 10</text><rect x="742.5" y="502.5" width="15" height="40" stroke="#000000" stroke-miterlimit="8" fill="#B2B2B2"/><rect x="872.5" y="398.5" width="16" height="41" stroke="#000000" stroke-miterlimit="8" fill="#B2B2B2"/><rect x="794.5" y="450.5" width="40" height="41" stroke="#000000" stroke-miterlimit="8" fill="#B2B2B2"/><rect x="820.5" y="552.5" width="56" height="16" stroke="#000000" stroke-miterlimit="8" fill="#B2B2B2"/><text fill="#808080" font-family="Arial,Arial_MSFontService,sans-serif" font-weight="400" font-size="21" transform="translate(874.333 470)">3</text><path d="M0 0 0.000104987 51" stroke="#808080" stroke-width="3.33333" stroke-linejoin="round" stroke-miterlimit="10" fill="none" fill-rule="evenodd" transform="matrix(1 0 0 -1 840.5 547.5)"/><text fill="#808080" font-family="Arial,Arial_MSFontService,sans-serif" font-weight="400" font-size="21" transform="translate(767 521)">1</text><text fill="#808080" font-family="Arial,Arial_MSFontService,sans-serif" font-weight="400" font-size="21" transform="translate(820.5 536)">2</text><text font-family="Arial,Arial_MSFontService,sans-serif" font-weight="400" font-size="21" transform="translate(777 486)">4</text><path d="M763.5 496.5 763.5 523.5" stroke="#808080" stroke-width="3.33333" stroke-linejoin="round" stroke-miterlimit="10" fill="none" fill-rule="evenodd"/><path d="M867.5 418.5 867.5 497.5" stroke="#808080" stroke-width="3.33333" stroke-linejoin="round" stroke-miterlimit="10" fill="none" fill-rule="evenodd"/><path d="M762.5 496.5 868.5 496.5" stroke="#000000" stroke-width="3.33333" stroke-linejoin="round" stroke-miterlimit="10" fill="none" fill-rule="evenodd"/><path d="M758.5 522.5C758.5 520.291 760.291 518.5 762.5 518.5 764.709 518.5 766.5 520.291 766.5 522.5 766.5 524.709 764.709 526.5 762.5 526.5 760.291 526.5 758.5 524.709 758.5 522.5Z" stroke="#000000" stroke-linejoin="round" stroke-miterlimit="10" fill="#FFFFFF" fill-rule="evenodd"/><path d="M810.5 496.5C810.5 494.291 812.291 492.5 814.5 492.5 816.709 492.5 818.5 494.291 818.5 496.5 818.5 498.709 816.709 500.5 814.5 500.5 812.291 500.5 810.5 498.709 810.5 496.5Z" stroke="#000000" stroke-linejoin="round" stroke-miterlimit="10" fill="#FFFFFF" fill-rule="evenodd"/><path d="M836.5 548C836.5 545.515 838.291 543.5 840.5 543.5 842.709 543.5 844.5 545.515 844.5 548 844.5 550.485 842.709 552.5 840.5 552.5 838.291 552.5 836.5 550.485 836.5 548Z" stroke="#000000" stroke-linejoin="round" stroke-miterlimit="10" fill="#FFFFFF" fill-rule="evenodd"/><path d="M862.5 419.5C862.5 417.291 864.515 415.5 867 415.5 869.485 415.5 871.5 417.291 871.5 419.5 871.5 421.709 869.485 423.5 867 423.5 864.515 423.5 862.5 421.709 862.5 419.5Z" stroke="#000000" stroke-linejoin="round" stroke-miterlimit="10" fill="#FFFFFF" fill-rule="evenodd"/></g></svg>