<svg width="803" height="399" xmlns="http://www.w3.org/2000/svg" xmlns:xlink="http://www.w3.org/1999/xlink" overflow="hidden"><defs><linearGradient x1="448" y1="384" x2="480" y2="384" gradientUnits="userSpaceOnUse" spreadMethod="reflect" id="fill0"><stop offset="0" stop-color="#EAEAEA"/><stop offset="0.00429185" stop-color="#E9E9E9"/><stop offset="0.00858369" stop-color="#E9E9E9"/><stop offset="0.0128755" stop-color="#E9E9E9"/><stop offset="0.0171674" stop-color="#E9E9E9"/><stop offset="0.0214592" stop-color="#E9E9E9"/><stop offset="0.0257511" stop-color="#E9E9E9"/><stop offset="0.0300429" stop-color="#E9E9E9"/><stop offset="0.0343348" stop-color="#E9E9E9"/><stop offset="0.0386266" stop-color="#E9E9E9"/><stop offset="0.0429185" stop-color="#E9E9E9"/><stop offset="0.0472103" stop-color="#E9E9E9"/><stop offset="0.0515021" stop-color="#E9E9E9"/><stop offset="0.055794" stop-color="#E8E8E8"/><stop offset="0.0600858" stop-color="#E8E8E8"/><stop offset="0.0643777" stop-color="#E8E8E8"/><stop offset="0.0686695" stop-color="#E8E8E8"/><stop offset="0.0729614" stop-color="#E8E8E8"/><stop offset="0.0772532" stop-color="#E8E8E8"/><stop offset="0.0815451" stop-color="#E7E7E7"/><stop offset="0.0858369" stop-color="#E7E7E7"/><stop offset="0.0901288" stop-color="#E7E7E7"/><stop offset="0.0944206" stop-color="#E7E7E7"/><stop offset="0.0987124" stop-color="#E6E6E6"/><stop offset="0.103004" stop-color="#E6E6E6"/><stop offset="0.107296" stop-color="#E6E6E6"/><stop offset="0.111588" stop-color="#E6E6E6"/><stop offset="0.11588" stop-color="#E5E5E5"/><stop offset="0.120172" stop-color="#E5E5E5"/><stop offset="0.124464" stop-color="#E5E5E5"/><stop offset="0.128755" stop-color="#E4E4E4"/><stop offset="0.133047" stop-color="#E4E4E4"/><stop offset="0.137339" stop-color="#E4E4E4"/><stop offset="0.141631" stop-color="#E4E4E4"/><stop offset="0.145923" stop-color="#E3E3E3"/><stop offset="0.150215" stop-color="#E3E3E3"/><stop offset="0.154506" stop-color="#E2E2E2"/><stop offset="0.158798" stop-color="#E2E2E2"/><stop offset="0.16309" stop-color="#E2E2E2"/><stop offset="0.167382" stop-color="#E1E1E1"/><stop offset="0.171674" stop-color="#E1E1E1"/><stop offset="0.175966" stop-color="#E0E0E0"/><stop offset="0.180258" stop-color="#E0E0E0"/><stop offset="0.184549" stop-color="#E0E0E0"/><stop offset="0.188841" stop-color="#DFDFDF"/><stop offset="0.193133" stop-color="#DFDFDF"/><stop offset="0.197425" stop-color="#DEDEDE"/><stop offset="0.201717" stop-color="#DEDEDE"/><stop offset="0.206009" stop-color="#DDDDDD"/><stop offset="0.2103" stop-color="#DDDDDD"/><stop offset="0.214592" stop-color="#DCDCDC"/><stop offset="0.218884" stop-color="#DCDCDC"/><stop offset="0.223176" stop-color="#DBDBDB"/><stop offset="0.227468" stop-color="#DBDBDB"/><stop offset="0.23176" stop-color="#DADADA"/><stop offset="0.236051" stop-color="#DADADA"/><stop offset="0.240343" stop-color="#D9D9D9"/><stop offset="0.244635" stop-color="#D9D9D9"/><stop offset="0.248927" stop-color="#D8D8D8"/><stop offset="0.253219" stop-color="#D8D8D8"/><stop offset="0.257511" stop-color="#D7D7D7"/><stop offset="0.261803" stop-color="#D7D7D7"/><stop offset="0.266094" stop-color="#D6D6D6"/><stop offset="0.270386" stop-color="#D5D5D5"/><stop offset="0.274678" stop-color="#D5D5D5"/><stop offset="0.27897" stop-color="#D4D4D4"/><stop offset="0.283262" stop-color="#D4D4D4"/><stop offset="0.287554" stop-color="#D3D3D3"/><stop offset="0.291846" stop-color="#D2D2D2"/><stop offset="0.296137" stop-color="#D2D2D2"/><stop offset="0.300429" stop-color="#D1D1D1"/><stop offset="0.304721" stop-color="#D0D0D0"/><stop offset="0.309013" stop-color="#D0D0D0"/><stop offset="0.313305" stop-color="#CFCFCF"/><stop offset="0.317597" stop-color="#CECECE"/><stop offset="0.321888" stop-color="#CECECE"/><stop offset="0.32618" stop-color="#CDCDCD"/><stop offset="0.330472" stop-color="#CCCCCC"/><stop offset="0.334764" stop-color="#CBCBCB"/><stop offset="0.339056" stop-color="#CBCBCB"/><stop offset="0.343348" stop-color="#CACACA"/><stop offset="0.347639" stop-color="#C9C9C9"/><stop offset="0.351931" stop-color="#C8C8C8"/><stop offset="0.356223" stop-color="#C8C8C8"/><stop offset="0.360515" stop-color="#C7C7C7"/><stop offset="0.364807" stop-color="#C6C6C6"/><stop offset="0.369099" stop-color="#C5C5C5"/><stop offset="0.373391" stop-color="#C5C5C5"/><stop offset="0.377682" stop-color="#C4C4C4"/><stop offset="0.381974" stop-color="#C3C3C3"/><stop offset="0.386266" stop-color="#C2C2C2"/><stop offset="0.390558" stop-color="#C1C1C1"/><stop offset="0.39485" stop-color="#C1C1C1"/><stop offset="0.399142" stop-color="#C0C0C0"/><stop offset="0.403433" stop-color="#BFBFBF"/><stop offset="0.407725" stop-color="#BEBEBE"/><stop offset="0.412017" stop-color="#BDBDBD"/><stop offset="0.416309" stop-color="#BCBCBC"/><stop offset="0.420601" stop-color="#BBBBBB"/><stop offset="0.424893" stop-color="#BABABA"/><stop offset="0.429185" stop-color="#BABABA"/><stop offset="0.433476" stop-color="#B9B9B9"/><stop offset="0.437768" stop-color="#B8B8B8"/><stop offset="0.44206" stop-color="#B7B7B7"/><stop offset="0.446352" stop-color="#B6B6B6"/><stop offset="0.450644" stop-color="#B5B5B5"/><stop offset="0.454936" stop-color="#B4B4B4"/><stop offset="0.459227" stop-color="#B3B3B3"/><stop offset="0.463519" stop-color="#B2B2B2"/><stop offset="0.467811" stop-color="#B1B1B1"/><stop offset="0.472103" stop-color="#B0B0B0"/><stop offset="0.476395" stop-color="#AFAFAF"/><stop offset="0.480687" stop-color="#AEAEAE"/><stop offset="0.484979" stop-color="#ADADAD"/><stop offset="0.48927" stop-color="#ACACAC"/><stop offset="0.493562" stop-color="#ABABAB"/><stop offset="0.497854" stop-color="#AAAAAA"/><stop offset="0.502146" stop-color="#A9A9A9"/><stop offset="0.506438" stop-color="#A8A8A8"/><stop offset="0.51073" stop-color="#A7A7A7"/><stop offset="0.515021" stop-color="#A6A6A6"/><stop offset="0.519313" stop-color="#A5A5A5"/><stop offset="0.523605" stop-color="#A4A4A4"/><stop offset="0.527897" stop-color="#A3A3A3"/><stop offset="0.532189" stop-color="#A2A2A2"/><stop offset="0.536481" stop-color="#A1A1A1"/><stop offset="0.540773" stop-color="#A0A0A0"/><stop offset="0.545064" stop-color="#9F9F9F"/><stop offset="0.549356" stop-color="#9D9D9D"/><stop offset="0.553648" stop-color="#9C9C9C"/><stop offset="0.55794" stop-color="#9B9B9B"/><stop offset="0.562232" stop-color="#9A9A9A"/><stop offset="0.566524" stop-color="#999999"/><stop offset="0.570815" stop-color="#989898"/><stop offset="0.575107" stop-color="#979797"/><stop offset="0.579399" stop-color="#959595"/><stop offset="0.583691" stop-color="#949494"/><stop offset="0.587983" stop-color="#939393"/><stop offset="0.592275" stop-color="#929292"/><stop offset="0.596566" stop-color="#919191"/><stop offset="0.600858" stop-color="#8F8F8F"/><stop offset="0.60515" stop-color="#8E8E8E"/><stop offset="0.609442" stop-color="#8D8D8D"/><stop offset="0.613734" stop-color="#8C8C8C"/><stop offset="0.618026" stop-color="#8B8B8B"/><stop offset="0.622318" stop-color="#898989"/><stop offset="0.626609" stop-color="#888888"/><stop offset="0.630901" stop-color="#878787"/><stop offset="0.635193" stop-color="#868686"/><stop offset="0.639485" stop-color="#848484"/><stop offset="0.643777" stop-color="#838383"/><stop offset="0.648069" stop-color="#828282"/><stop offset="0.65236" stop-color="#808080"/><stop offset="0.656652" stop-color="#7F7F7F"/><stop offset="0.660944" stop-color="#7E7E7E"/><stop offset="0.665236" stop-color="#7D7D7D"/><stop offset="0.669528" stop-color="#7B7B7B"/><stop offset="0.67382" stop-color="#7A7A7A"/><stop offset="0.678112" stop-color="#797979"/><stop offset="0.682403" stop-color="#777777"/><stop offset="0.686695" stop-color="#767676"/><stop offset="0.690987" stop-color="#747474"/><stop offset="0.695279" stop-color="#737373"/><stop offset="0.699571" stop-color="#727272"/><stop offset="0.703863" stop-color="#707070"/><stop offset="0.708154" stop-color="#6F6F6F"/><stop offset="0.712446" stop-color="#6E6E6E"/><stop offset="0.716738" stop-color="#6C6C6C"/><stop offset="0.72103" stop-color="#6B6B6B"/><stop offset="0.725322" stop-color="#696969"/><stop offset="0.729614" stop-color="#686868"/><stop offset="0.733906" stop-color="#666666"/><stop offset="0.738197" stop-color="#656565"/><stop offset="0.742489" stop-color="#646464"/><stop offset="0.746781" stop-color="#626262"/><stop offset="0.751073" stop-color="#616161"/><stop offset="0.755365" stop-color="#5F5F5F"/><stop offset="0.759657" stop-color="#5E5E5E"/><stop offset="0.763949" stop-color="#5C5C5C"/><stop offset="0.76824" stop-color="#5B5B5B"/><stop offset="0.772532" stop-color="#595959"/><stop offset="0.776824" stop-color="#585858"/><stop offset="0.781116" stop-color="#565656"/><stop offset="0.785408" stop-color="#555555"/><stop offset="0.7897" stop-color="#535353"/><stop offset="0.793991" stop-color="#525252"/><stop offset="0.798283" stop-color="#505050"/><stop offset="0.802575" stop-color="#4F4F4F"/><stop offset="0.806867" stop-color="#4D4D4D"/><stop offset="0.811159" stop-color="#4B4B4B"/><stop offset="0.815451" stop-color="#4A4A4A"/><stop offset="0.819743" stop-color="#484848"/><stop offset="0.824034" stop-color="#474747"/><stop offset="0.828326" stop-color="#454545"/><stop offset="0.832618" stop-color="#444444"/><stop offset="0.83691" stop-color="#424242"/><stop offset="0.841202" stop-color="#404040"/><stop offset="0.845494" stop-color="#3F3F3F"/><stop offset="0.849785" stop-color="#3D3D3D"/><stop offset="0.854077" stop-color="#3B3B3B"/><stop offset="0.858369" stop-color="#3A3A3A"/><stop offset="0.862661" stop-color="#383838"/><stop offset="0.866953" stop-color="#363636"/><stop offset="0.871245" stop-color="#353535"/><stop offset="0.875537" stop-color="#333333"/><stop offset="0.879828" stop-color="#313131"/><stop offset="0.88412" stop-color="#303030"/><stop offset="0.888412" stop-color="#2E2E2E"/><stop offset="0.892704" stop-color="#2C2C2C"/><stop offset="0.896996" stop-color="#2B2B2B"/><stop offset="0.901288" stop-color="#292929"/><stop offset="0.905579" stop-color="#272727"/><stop offset="0.909871" stop-color="#252525"/><stop offset="0.914163" stop-color="#242424"/><stop offset="0.918455" stop-color="#222222"/><stop offset="0.922747" stop-color="#202020"/><stop offset="0.927039" stop-color="#1E1E1E"/><stop offset="0.93133" stop-color="#1D1D1D"/><stop offset="0.935622" stop-color="#1B1B1B"/><stop offset="0.939914" stop-color="#191919"/><stop offset="0.944206" stop-color="#171717"/><stop offset="0.948498" stop-color="#161616"/><stop offset="0.95279" stop-color="#141414"/><stop offset="0.957082" stop-color="#121212"/><stop offset="0.961373" stop-color="#101010"/><stop offset="0.965665" stop-color="#0E0E0E"/><stop offset="0.969957" stop-color="#0D0D0D"/><stop offset="0.974249" stop-color="#0B0B0B"/><stop offset="0.978541" stop-color="#090909"/><stop offset="0.982833" stop-color="#070707"/><stop offset="0.987124" stop-color="#050505"/><stop offset="0.991416" stop-color="#030303"/><stop offset="0.995708" stop-color="#010101"/><stop offset="1"/></linearGradient></defs><g transform="translate(-71 -199)"><rect x="129.5" y="265.5" width="254" height="239" stroke="#969696" stroke-miterlimit="8" fill="#DDDDDD"/><rect x="148" y="400" width="48" height="88" fill="#B2B2B2"/><rect x="244" y="280" width="120" height="48" fill="#B2B2B2"/><rect x="316" y="344" width="48" height="80" fill="#B2B2B2"/><rect x="244" y="344" width="48" height="80" fill="#B2B2B2"/><rect x="244" y="448" width="120" height="40" fill="#B2B2B2"/><rect x="148" y="280" width="48" height="88" fill="#B2B2B2"/><path d="M176 264 176 504" stroke="#000000" stroke-width="2" stroke-linejoin="round" stroke-miterlimit="10" stroke-dasharray="2 2" fill="none" fill-rule="evenodd"/><path d="M0 0 256 0.000104987" stroke="#000000" stroke-width="2" stroke-linejoin="round" stroke-miterlimit="10" stroke-dasharray="2 2" fill="none" fill-rule="evenodd" transform="matrix(1 0 0 -1 128 312)"/><path d="M227 264 227 504" stroke="#000000" stroke-width="2" stroke-linejoin="round" stroke-miterlimit="10" stroke-dasharray="2 2" fill="none" fill-rule="evenodd"/><path d="M280 264 280 504" stroke="#000000" stroke-width="2" stroke-linejoin="round" stroke-miterlimit="10" stroke-dasharray="2 2" fill="none" fill-rule="evenodd"/><path d="M328 264 328 504" stroke="#000000" stroke-width="2" stroke-linejoin="round" stroke-miterlimit="10" stroke-dasharray="2 2" fill="none" fill-rule="evenodd"/><path d="M0 0 256 0.000104987" stroke="#000000" stroke-width="2" stroke-linejoin="round" stroke-miterlimit="10" stroke-dasharray="2 2" fill="none" fill-rule="evenodd" transform="matrix(1 0 0 -1 128 360)"/><path d="M0 0 256 0.000104987" stroke="#000000" stroke-width="2" stroke-linejoin="round" stroke-miterlimit="10" stroke-dasharray="2 2" fill="none" fill-rule="evenodd" transform="matrix(1 0 0 -1 128 408)"/><path d="M0 0 256 0.000104987" stroke="#000000" stroke-width="2" stroke-linejoin="round" stroke-miterlimit="10" stroke-dasharray="2 2" fill="none" fill-rule="evenodd" transform="matrix(1 0 0 -1 128 456)"/><path d="M128.5 284.5C128.5 273.454 137.454 264.5 148.5 264.5 159.546 264.5 168.5 273.454 168.5 284.5 168.5 295.546 159.546 304.5 148.5 304.5 137.454 304.5 128.5 295.546 128.5 284.5Z" stroke="#000000" stroke-linejoin="round" stroke-miterlimit="10" fill="none" fill-rule="evenodd"/><text font-family="Arial,Arial_MSFontService,sans-serif" font-weight="700" font-size="24" transform="translate(141.333 292)">1</text><path d="M180.5 284.5C180.5 273.454 189.454 264.5 200.5 264.5 211.546 264.5 220.5 273.454 220.5 284.5 220.5 295.546 211.546 304.5 200.5 304.5 189.454 304.5 180.5 295.546 180.5 284.5Z" stroke="#000000" stroke-linejoin="round" stroke-miterlimit="10" fill="none" fill-rule="evenodd"/><text font-family="Arial,Arial_MSFontService,sans-serif" font-weight="700" font-size="24" transform="translate(193.167 293)">2</text><path d="M232.5 284.5C232.5 273.454 241.454 264.5 252.5 264.5 263.546 264.5 272.5 273.454 272.5 284.5 272.5 295.546 263.546 304.5 252.5 304.5 241.454 304.5 232.5 295.546 232.5 284.5Z" stroke="#000000" stroke-linejoin="round" stroke-miterlimit="10" fill="none" fill-rule="evenodd"/><text font-family="Arial,Arial_MSFontService,sans-serif" font-weight="700" font-size="24" transform="translate(245.167 293)">3</text><path d="M284.5 284.5C284.5 273.454 293.454 264.5 304.5 264.5 315.546 264.5 324.5 273.454 324.5 284.5 324.5 295.546 315.546 304.5 304.5 304.5 293.454 304.5 284.5 295.546 284.5 284.5Z" stroke="#000000" stroke-linejoin="round" stroke-miterlimit="10" fill="none" fill-rule="evenodd"/><text font-family="Arial,Arial_MSFontService,sans-serif" font-weight="700" font-size="24" transform="translate(297.25 293)">4</text><path d="M336.5 284.5C336.5 273.454 345.454 264.5 356.5 264.5 367.546 264.5 376.5 273.454 376.5 284.5 376.5 295.546 367.546 304.5 356.5 304.5 345.454 304.5 336.5 295.546 336.5 284.5Z" stroke="#000000" stroke-linejoin="round" stroke-miterlimit="10" fill="none" fill-rule="evenodd"/><text font-family="Arial,Arial_MSFontService,sans-serif" font-weight="700" font-size="24" transform="translate(349.333 293)">5</text><path d="M128.5 332.5C128.5 321.454 137.454 312.5 148.5 312.5 159.546 312.5 168.5 321.454 168.5 332.5 168.5 343.546 159.546 352.5 148.5 352.5 137.454 352.5 128.5 343.546 128.5 332.5Z" stroke="#000000" stroke-linejoin="round" stroke-miterlimit="10" fill="none" fill-rule="evenodd"/><text font-family="Arial,Arial_MSFontService,sans-serif" font-weight="700" font-size="24" transform="translate(141.333 340)">6</text><path d="M180.5 332.5C180.5 321.454 189.454 312.5 200.5 312.5 211.546 312.5 220.5 321.454 220.5 332.5 220.5 343.546 211.546 352.5 200.5 352.5 189.454 352.5 180.5 343.546 180.5 332.5Z" stroke="#000000" stroke-linejoin="round" stroke-miterlimit="10" fill="none" fill-rule="evenodd"/><text font-family="Arial,Arial_MSFontService,sans-serif" font-weight="700" font-size="24" transform="translate(193.167 341)">7</text><path d="M232.5 332.5C232.5 321.454 241.454 312.5 252.5 312.5 263.546 312.5 272.5 321.454 272.5 332.5 272.5 343.546 263.546 352.5 252.5 352.5 241.454 352.5 232.5 343.546 232.5 332.5Z" stroke="#000000" stroke-linejoin="round" stroke-miterlimit="10" fill="none" fill-rule="evenodd"/><text font-family="Arial,Arial_MSFontService,sans-serif" font-weight="700" font-size="24" transform="translate(245.167 341)">8</text><path d="M284.5 332.5C284.5 321.454 293.454 312.5 304.5 312.5 315.546 312.5 324.5 321.454 324.5 332.5 324.5 343.546 315.546 352.5 304.5 352.5 293.454 352.5 284.5 343.546 284.5 332.5Z" stroke="#000000" stroke-linejoin="round" stroke-miterlimit="10" fill="none" fill-rule="evenodd"/><text font-family="Arial,Arial_MSFontService,sans-serif" font-weight="700" font-size="24" transform="translate(297.25 341)">9</text><path d="M336.5 332.5C336.5 321.454 345.454 312.5 356.5 312.5 367.546 312.5 376.5 321.454 376.5 332.5 376.5 343.546 367.546 352.5 356.5 352.5 345.454 352.5 336.5 343.546 336.5 332.5Z" stroke="#000000" stroke-linejoin="round" stroke-miterlimit="10" fill="none" fill-rule="evenodd"/><text font-family="Arial,Arial_MSFontService,sans-serif" font-weight="700" font-size="24" transform="translate(342.667 341)">10</text><path d="M128.5 380.5C128.5 369.454 137.454 360.5 148.5 360.5 159.546 360.5 168.5 369.454 168.5 380.5 168.5 391.546 159.546 400.5 148.5 400.5 137.454 400.5 128.5 391.546 128.5 380.5Z" stroke="#000000" stroke-linejoin="round" stroke-miterlimit="10" fill="none" fill-rule="evenodd"/><text font-family="Arial,Arial_MSFontService,sans-serif" font-weight="700" font-size="24" transform="translate(135.33 388)">11</text><path d="M180.5 380.5C180.5 369.454 189.454 360.5 200.5 360.5 211.546 360.5 220.5 369.454 220.5 380.5 220.5 391.546 211.546 400.5 200.5 400.5 189.454 400.5 180.5 391.546 180.5 380.5Z" stroke="#000000" stroke-linejoin="round" stroke-miterlimit="10" fill="none" fill-rule="evenodd"/><text font-family="Arial,Arial_MSFontService,sans-serif" font-weight="700" font-size="24" transform="translate(186.5 388)">12</text><path d="M232.5 380.5C232.5 369.454 241.454 360.5 252.5 360.5 263.546 360.5 272.5 369.454 272.5 380.5 272.5 391.546 263.546 400.5 252.5 400.5 241.454 400.5 232.5 391.546 232.5 380.5Z" stroke="#000000" stroke-linejoin="round" stroke-miterlimit="10" fill="none" fill-rule="evenodd"/><text font-family="Arial,Arial_MSFontService,sans-serif" font-weight="700" font-size="24" transform="translate(238.5 388)">13</text><path d="M284.5 380.5C284.5 369.454 293.454 360.5 304.5 360.5 315.546 360.5 324.5 369.454 324.5 380.5 324.5 391.546 315.546 400.5 304.5 400.5 293.454 400.5 284.5 391.546 284.5 380.5Z" stroke="#000000" stroke-linejoin="round" stroke-miterlimit="10" fill="none" fill-rule="evenodd"/><text font-family="Arial,Arial_MSFontService,sans-serif" font-weight="700" font-size="24" transform="translate(290.583 388)">14</text><path d="M336.5 380.5C336.5 369.454 345.454 360.5 356.5 360.5 367.546 360.5 376.5 369.454 376.5 380.5 376.5 391.546 367.546 400.5 356.5 400.5 345.454 400.5 336.5 391.546 336.5 380.5Z" stroke="#000000" stroke-linejoin="round" stroke-miterlimit="10" fill="none" fill-rule="evenodd"/><text font-family="Arial,Arial_MSFontService,sans-serif" font-weight="700" font-size="24" transform="translate(342.667 388)">15</text><path d="M128.5 428.5C128.5 417.454 137.454 408.5 148.5 408.5 159.546 408.5 168.5 417.454 168.5 428.5 168.5 439.546 159.546 448.5 148.5 448.5 137.454 448.5 128.5 439.546 128.5 428.5Z" stroke="#000000" stroke-linejoin="round" stroke-miterlimit="10" fill="none" fill-rule="evenodd"/><text font-family="Arial,Arial_MSFontService,sans-serif" font-weight="700" font-size="24" transform="translate(134.667 436)">16</text><path d="M180.5 428.5C180.5 417.454 189.454 408.5 200.5 408.5 211.546 408.5 220.5 417.454 220.5 428.5 220.5 439.546 211.546 448.5 200.5 448.5 189.454 448.5 180.5 439.546 180.5 428.5Z" stroke="#000000" stroke-linejoin="round" stroke-miterlimit="10" fill="none" fill-rule="evenodd"/><text font-family="Arial,Arial_MSFontService,sans-serif" font-weight="700" font-size="24" transform="translate(186.5 436)">17</text><path d="M232.5 428.5C232.5 417.454 241.454 408.5 252.5 408.5 263.546 408.5 272.5 417.454 272.5 428.5 272.5 439.546 263.546 448.5 252.5 448.5 241.454 448.5 232.5 439.546 232.5 428.5Z" stroke="#000000" stroke-linejoin="round" stroke-miterlimit="10" fill="none" fill-rule="evenodd"/><text font-family="Arial,Arial_MSFontService,sans-serif" font-weight="700" font-size="24" transform="translate(238.5 436)">18</text><path d="M284.5 428.5C284.5 417.454 293.454 408.5 304.5 408.5 315.546 408.5 324.5 417.454 324.5 428.5 324.5 439.546 315.546 448.5 304.5 448.5 293.454 448.5 284.5 439.546 284.5 428.5Z" stroke="#000000" stroke-linejoin="round" stroke-miterlimit="10" fill="none" fill-rule="evenodd"/><text font-family="Arial,Arial_MSFontService,sans-serif" font-weight="700" font-size="24" transform="translate(290.583 436)">19</text><path d="M336.5 428.5C336.5 417.454 345.454 408.5 356.5 408.5 367.546 408.5 376.5 417.454 376.5 428.5 376.5 439.546 367.546 448.5 356.5 448.5 345.454 448.5 336.5 439.546 336.5 428.5Z" stroke="#000000" stroke-linejoin="round" stroke-miterlimit="10" fill="none" fill-rule="evenodd"/><text font-family="Arial,Arial_MSFontService,sans-serif" font-weight="700" font-size="24" transform="translate(342.667 436)">20</text><path d="M128.5 476.5C128.5 465.454 137.454 456.5 148.5 456.5 159.546 456.5 168.5 465.454 168.5 476.5 168.5 487.546 159.546 496.5 148.5 496.5 137.454 496.5 128.5 487.546 128.5 476.5Z" stroke="#000000" stroke-linejoin="round" stroke-miterlimit="10" fill="none" fill-rule="evenodd"/><text font-family="Arial,Arial_MSFontService,sans-serif" font-weight="700" font-size="24" transform="translate(134.667 484)">21</text><path d="M180.5 476.5C180.5 465.454 189.454 456.5 200.5 456.5 211.546 456.5 220.5 465.454 220.5 476.5 220.5 487.546 211.546 496.5 200.5 496.5 189.454 496.5 180.5 487.546 180.5 476.5Z" stroke="#000000" stroke-linejoin="round" stroke-miterlimit="10" fill="none" fill-rule="evenodd"/><text font-family="Arial,Arial_MSFontService,sans-serif" font-weight="700" font-size="24" transform="translate(186.5 485)">22</text><path d="M232.5 476.5C232.5 465.454 241.454 456.5 252.5 456.5 263.546 456.5 272.5 465.454 272.5 476.5 272.5 487.546 263.546 496.5 252.5 496.5 241.454 496.5 232.5 487.546 232.5 476.5Z" stroke="#000000" stroke-linejoin="round" stroke-miterlimit="10" fill="none" fill-rule="evenodd"/><text font-family="Arial,Arial_MSFontService,sans-serif" font-weight="700" font-size="24" transform="translate(238.5 485)">23</text><path d="M284.5 476.5C284.5 465.454 293.454 456.5 304.5 456.5 315.546 456.5 324.5 465.454 324.5 476.5 324.5 487.546 315.546 496.5 304.5 496.5 293.454 496.5 284.5 487.546 284.5 476.5Z" stroke="#000000" stroke-linejoin="round" stroke-miterlimit="10" fill="none" fill-rule="evenodd"/><text font-family="Arial,Arial_MSFontService,sans-serif" font-weight="700" font-size="24" transform="translate(290.583 485)">24</text><path d="M336.5 476.5C336.5 465.454 345.454 456.5 356.5 456.5 367.546 456.5 376.5 465.454 376.5 476.5 376.5 487.546 367.546 496.5 356.5 496.5 345.454 496.5 336.5 487.546 336.5 476.5Z" stroke="#000000" stroke-linejoin="round" stroke-miterlimit="10" fill="none" fill-rule="evenodd"/><text font-family="Arial,Arial_MSFontService,sans-serif" font-weight="700" font-size="24" transform="translate(342.667 485)">25</text><path d="M755.5 279.5 755.5 463.5" stroke="#000000" stroke-linejoin="round" stroke-miterlimit="10" fill="none" fill-rule="evenodd"/><path d="M704.5 280.5 704.5 464.5" stroke="#000000" stroke-linejoin="round" stroke-miterlimit="10" fill="none" fill-rule="evenodd"/><path d="M652.5 279.5 652.5 463.5" stroke="#000000" stroke-linejoin="round" stroke-miterlimit="10" fill="none" fill-rule="evenodd"/><path d="M600.5 280.5 600.5 464.5" stroke="#000000" stroke-linejoin="round" stroke-miterlimit="10" fill="none" fill-rule="evenodd"/><path d="M550.5 280.5 550.5 464.5" stroke="#000000" stroke-linejoin="round" stroke-miterlimit="10" fill="none" fill-rule="evenodd"/><path d="M552.5 476.5 768.5 476.5" stroke="#000000" stroke-linejoin="round" stroke-miterlimit="10" fill="none" fill-rule="evenodd"/><path d="M554.5 428.5 770.5 428.5" stroke="#000000" stroke-linejoin="round" stroke-miterlimit="10" fill="none" fill-rule="evenodd"/><path d="M546.5 382.5 762.5 382.5" stroke="#000000" stroke-linejoin="round" stroke-miterlimit="10" fill="none" fill-rule="evenodd"/><path d="M549.5 334.5 765.5 334.5" stroke="#000000" stroke-linejoin="round" stroke-miterlimit="10" fill="none" fill-rule="evenodd"/><path d="M544.5 286.5 760.5 286.5" stroke="#000000" stroke-linejoin="round" stroke-miterlimit="10" fill="none" fill-rule="evenodd"/><path d="M448 364 472 364 472 344 480 384 472 424 472 404 448 404Z" fill="url(#fill0)" fill-rule="evenodd"/><path d="M528.5 284.5C528.5 273.454 537.454 264.5 548.5 264.5 559.546 264.5 568.5 273.454 568.5 284.5 568.5 295.546 559.546 304.5 548.5 304.5 537.454 304.5 528.5 295.546 528.5 284.5Z" stroke="#000000" stroke-linejoin="round" stroke-miterlimit="10" fill="#FFFFFF" fill-rule="evenodd"/><text font-family="Arial,Arial_MSFontService,sans-serif" font-weight="700" font-size="24" transform="translate(541.417 292)">1</text><path d="M580.5 284.5C580.5 273.454 589.454 264.5 600.5 264.5 611.546 264.5 620.5 273.454 620.5 284.5 620.5 295.546 611.546 304.5 600.5 304.5 589.454 304.5 580.5 295.546 580.5 284.5Z" stroke="#000000" stroke-linejoin="round" stroke-miterlimit="10" fill="#FFFFFF" fill-rule="evenodd"/><text font-family="Arial,Arial_MSFontService,sans-serif" font-weight="700" font-size="24" transform="translate(593.333 293)">2</text><path d="M632.5 284.5C632.5 273.454 641.454 264.5 652.5 264.5 663.546 264.5 672.5 273.454 672.5 284.5 672.5 295.546 663.546 304.5 652.5 304.5 641.454 304.5 632.5 295.546 632.5 284.5Z" stroke="#000000" stroke-linejoin="round" stroke-miterlimit="10" fill="#FFFFFF" fill-rule="evenodd"/><text font-family="Arial,Arial_MSFontService,sans-serif" font-weight="700" font-size="24" transform="translate(645.333 293)">3</text><path d="M684.5 284.5C684.5 273.454 693.454 264.5 704.5 264.5 715.546 264.5 724.5 273.454 724.5 284.5 724.5 295.546 715.546 304.5 704.5 304.5 693.454 304.5 684.5 295.546 684.5 284.5Z" stroke="#000000" stroke-linejoin="round" stroke-miterlimit="10" fill="#FFFFFF" fill-rule="evenodd"/><text font-family="Arial,Arial_MSFontService,sans-serif" font-weight="700" font-size="24" transform="translate(697.417 293)">4</text><path d="M736.5 284.5C736.5 273.454 745.454 264.5 756.5 264.5 767.546 264.5 776.5 273.454 776.5 284.5 776.5 295.546 767.546 304.5 756.5 304.5 745.454 304.5 736.5 295.546 736.5 284.5Z" stroke="#000000" stroke-linejoin="round" stroke-miterlimit="10" fill="#FFFFFF" fill-rule="evenodd"/><text font-family="Arial,Arial_MSFontService,sans-serif" font-weight="700" font-size="24" transform="translate(749.5 293)">5</text><path d="M528.5 332.5C528.5 321.454 537.454 312.5 548.5 312.5 559.546 312.5 568.5 321.454 568.5 332.5 568.5 343.546 559.546 352.5 548.5 352.5 537.454 352.5 528.5 343.546 528.5 332.5Z" stroke="#000000" stroke-linejoin="round" stroke-miterlimit="10" fill="#FFFFFF" fill-rule="evenodd"/><text font-family="Arial,Arial_MSFontService,sans-serif" font-weight="700" font-size="24" transform="translate(541.417 340)">6</text><path d="M580.5 332.5C580.5 321.454 589.454 312.5 600.5 312.5 611.546 312.5 620.5 321.454 620.5 332.5 620.5 343.546 611.546 352.5 600.5 352.5 589.454 352.5 580.5 343.546 580.5 332.5Z" stroke="#000000" stroke-linejoin="round" stroke-miterlimit="10" fill="#FFFFFF" fill-rule="evenodd"/><text font-family="Arial,Arial_MSFontService,sans-serif" font-weight="700" font-size="24" transform="translate(593.333 341)">7</text><path d="M632.5 332.5C632.5 321.454 641.454 312.5 652.5 312.5 663.546 312.5 672.5 321.454 672.5 332.5 672.5 343.546 663.546 352.5 652.5 352.5 641.454 352.5 632.5 343.546 632.5 332.5Z" stroke="#000000" stroke-linejoin="round" stroke-miterlimit="10" fill="#FFFFFF" fill-rule="evenodd"/><text font-family="Arial,Arial_MSFontService,sans-serif" font-weight="700" font-size="24" transform="translate(645.333 341)">8</text><path d="M684.5 332.5C684.5 321.454 693.454 312.5 704.5 312.5 715.546 312.5 724.5 321.454 724.5 332.5 724.5 343.546 715.546 352.5 704.5 352.5 693.454 352.5 684.5 343.546 684.5 332.5Z" stroke="#000000" stroke-linejoin="round" stroke-miterlimit="10" fill="#FFFFFF" fill-rule="evenodd"/><text font-family="Arial,Arial_MSFontService,sans-serif" font-weight="700" font-size="24" transform="translate(697.417 341)">9</text><path d="M736.5 332.5C736.5 321.454 745.454 312.5 756.5 312.5 767.546 312.5 776.5 321.454 776.5 332.5 776.5 343.546 767.546 352.5 756.5 352.5 745.454 352.5 736.5 343.546 736.5 332.5Z" stroke="#000000" stroke-linejoin="round" stroke-miterlimit="10" fill="#FFFFFF" fill-rule="evenodd"/><text font-family="Arial,Arial_MSFontService,sans-serif" font-weight="700" font-size="24" transform="translate(742.833 341)">10</text><path d="M528.5 380.5C528.5 369.454 537.454 360.5 548.5 360.5 559.546 360.5 568.5 369.454 568.5 380.5 568.5 391.546 559.546 400.5 548.5 400.5 537.454 400.5 528.5 391.546 528.5 380.5Z" stroke="#000000" stroke-linejoin="round" stroke-miterlimit="10" fill="#FFFFFF" fill-rule="evenodd"/><text font-family="Arial,Arial_MSFontService,sans-serif" font-weight="700" font-size="24" transform="translate(535.413 388)">11</text><path d="M580.5 380.5C580.5 369.454 589.454 360.5 600.5 360.5 611.546 360.5 620.5 369.454 620.5 380.5 620.5 391.546 611.546 400.5 600.5 400.5 589.454 400.5 580.5 391.546 580.5 380.5Z" stroke="#000000" stroke-linejoin="round" stroke-miterlimit="10" fill="#FFFFFF" fill-rule="evenodd"/><text font-family="Arial,Arial_MSFontService,sans-serif" font-weight="700" font-size="24" transform="translate(586.667 388)">12</text><path d="M632.5 380.5C632.5 369.454 641.454 360.5 652.5 360.5 663.546 360.5 672.5 369.454 672.5 380.5 672.5 391.546 663.546 400.5 652.5 400.5 641.454 400.5 632.5 391.546 632.5 380.5Z" stroke="#000000" stroke-linejoin="round" stroke-miterlimit="10" fill="#FFFFFF" fill-rule="evenodd"/><text font-family="Arial,Arial_MSFontService,sans-serif" font-weight="700" font-size="24" transform="translate(638.667 388)">13</text><path d="M684.5 380.5C684.5 369.454 693.454 360.5 704.5 360.5 715.546 360.5 724.5 369.454 724.5 380.5 724.5 391.546 715.546 400.5 704.5 400.5 693.454 400.5 684.5 391.546 684.5 380.5Z" stroke="#000000" stroke-linejoin="round" stroke-miterlimit="10" fill="#FFFFFF" fill-rule="evenodd"/><text font-family="Arial,Arial_MSFontService,sans-serif" font-weight="700" font-size="24" transform="translate(690.75 388)">14</text><path d="M736.5 380.5C736.5 369.454 745.454 360.5 756.5 360.5 767.546 360.5 776.5 369.454 776.5 380.5 776.5 391.546 767.546 400.5 756.5 400.5 745.454 400.5 736.5 391.546 736.5 380.5Z" stroke="#000000" stroke-linejoin="round" stroke-miterlimit="10" fill="#FFFFFF" fill-rule="evenodd"/><text font-family="Arial,Arial_MSFontService,sans-serif" font-weight="700" font-size="24" transform="translate(742.833 388)">15</text><path d="M528.5 428.5C528.5 417.454 537.454 408.5 548.5 408.5 559.546 408.5 568.5 417.454 568.5 428.5 568.5 439.546 559.546 448.5 548.5 448.5 537.454 448.5 528.5 439.546 528.5 428.5Z" stroke="#000000" stroke-linejoin="round" stroke-miterlimit="10" fill="#FFFFFF" fill-rule="evenodd"/><text font-family="Arial,Arial_MSFontService,sans-serif" font-weight="700" font-size="24" transform="translate(534.75 436)">16</text><path d="M580.5 428.5C580.5 417.454 589.454 408.5 600.5 408.5 611.546 408.5 620.5 417.454 620.5 428.5 620.5 439.546 611.546 448.5 600.5 448.5 589.454 448.5 580.5 439.546 580.5 428.5Z" stroke="#000000" stroke-linejoin="round" stroke-miterlimit="10" fill="#FFFFFF" fill-rule="evenodd"/><text font-family="Arial,Arial_MSFontService,sans-serif" font-weight="700" font-size="24" transform="translate(586.667 436)">17</text><path d="M632.5 428.5C632.5 417.454 641.454 408.5 652.5 408.5 663.546 408.5 672.5 417.454 672.5 428.5 672.5 439.546 663.546 448.5 652.5 448.5 641.454 448.5 632.5 439.546 632.5 428.5Z" stroke="#000000" stroke-linejoin="round" stroke-miterlimit="10" fill="#FFFFFF" fill-rule="evenodd"/><text font-family="Arial,Arial_MSFontService,sans-serif" font-weight="700" font-size="24" transform="translate(638.833 436)">18</text><path d="M684.5 428.5C684.5 417.454 693.454 408.5 704.5 408.5 715.546 408.5 724.5 417.454 724.5 428.5 724.5 439.546 715.546 448.5 704.5 448.5 693.454 448.5 684.5 439.546 684.5 428.5Z" stroke="#000000" stroke-linejoin="round" stroke-miterlimit="10" fill="#FFFFFF" fill-rule="evenodd"/><text font-family="Arial,Arial_MSFontService,sans-serif" font-weight="700" font-size="24" transform="translate(690.75 436)">19</text><path d="M736.5 428.5C736.5 417.454 745.454 408.5 756.5 408.5 767.546 408.5 776.5 417.454 776.5 428.5 776.5 439.546 767.546 448.5 756.5 448.5 745.454 448.5 736.5 439.546 736.5 428.5Z" stroke="#000000" stroke-linejoin="round" stroke-miterlimit="10" fill="#FFFFFF" fill-rule="evenodd"/><text font-family="Arial,Arial_MSFontService,sans-serif" font-weight="700" font-size="24" transform="translate(742.833 436)">20</text><path d="M528.5 476.5C528.5 465.454 537.454 456.5 548.5 456.5 559.546 456.5 568.5 465.454 568.5 476.5 568.5 487.546 559.546 496.5 548.5 496.5 537.454 496.5 528.5 487.546 528.5 476.5Z" stroke="#000000" stroke-linejoin="round" stroke-miterlimit="10" fill="#FFFFFF" fill-rule="evenodd"/><text font-family="Arial,Arial_MSFontService,sans-serif" font-weight="700" font-size="24" transform="translate(534.75 484)">21</text><path d="M580.5 476.5C580.5 465.454 589.454 456.5 600.5 456.5 611.546 456.5 620.5 465.454 620.5 476.5 620.5 487.546 611.546 496.5 600.5 496.5 589.454 496.5 580.5 487.546 580.5 476.5Z" stroke="#000000" stroke-linejoin="round" stroke-miterlimit="10" fill="#FFFFFF" fill-rule="evenodd"/><text font-family="Arial,Arial_MSFontService,sans-serif" font-weight="700" font-size="24" transform="translate(586.667 485)">22</text><path d="M632.5 476.5C632.5 465.454 641.454 456.5 652.5 456.5 663.546 456.5 672.5 465.454 672.5 476.5 672.5 487.546 663.546 496.5 652.5 496.5 641.454 496.5 632.5 487.546 632.5 476.5Z" stroke="#000000" stroke-linejoin="round" stroke-miterlimit="10" fill="#FFFFFF" fill-rule="evenodd"/><text font-family="Arial,Arial_MSFontService,sans-serif" font-weight="700" font-size="24" transform="translate(638.667 485)">23</text><path d="M684.5 476.5C684.5 465.454 693.454 456.5 704.5 456.5 715.546 456.5 724.5 465.454 724.5 476.5 724.5 487.546 715.546 496.5 704.5 496.5 693.454 496.5 684.5 487.546 684.5 476.5Z" stroke="#000000" stroke-linejoin="round" stroke-miterlimit="10" fill="#FFFFFF" fill-rule="evenodd"/><text font-family="Arial,Arial_MSFontService,sans-serif" font-weight="700" font-size="24" transform="translate(690.75 485)">24</text><path d="M736.5 476.5C736.5 465.454 745.454 456.5 756.5 456.5 767.546 456.5 776.5 465.454 776.5 476.5 776.5 487.546 767.546 496.5 756.5 496.5 745.454 496.5 736.5 487.546 736.5 476.5Z" stroke="#000000" stroke-linejoin="round" stroke-miterlimit="10" fill="#FFFFFF" fill-rule="evenodd"/><text font-family="Arial,Arial_MSFontService,sans-serif" font-weight="700" font-size="24" transform="translate(742.833 485)">25</text><rect x="88" y="201" width="205" height="39" fill="#CCCCFF"/><text font-family="Arial,Arial_MSFontService,sans-serif" font-weight="400" font-size="23" transform="translate(108.396 228)">Grid graph model</text><text font-family="Arial,Arial_MSFontService,sans-serif" font-style="italic" font-weight="400" font-size="23" transform="translate(91.8281 552)">ggrid</text><text font-family="Arial,Arial_MSFontService,sans-serif" font-style="italic" font-weight="400" font-size="23" transform="translate(148.661 552)">=</text><text font-family="Arial,Arial_MSFontService,sans-serif" font-weight="400" font-size="23" transform="translate(168.161 552)">(</text><text font-family="Arial,Arial_MSFontService,sans-serif" font-style="italic" font-weight="400" font-size="23" transform="translate(175.661 552)">V</text><text font-family="Arial,Arial_MSFontService,sans-serif" font-weight="400" font-size="23" transform="translate(190.828 552)">,</text><text font-family="Arial,Arial_MSFontService,sans-serif" font-style="italic" font-weight="400" font-size="23" transform="translate(197.161 552)">E</text><text font-family="Arial,Arial_MSFontService,sans-serif" font-weight="400" font-size="23" transform="translate(212.328 552)">), where the nodes</text><text font-family="Arial,Arial_MSFontService,sans-serif" font-style="italic" font-weight="400" font-size="23" transform="translate(406.995 552)">v</text><text font-family="Symbol,Symbol_MSFontService,sans-serif" font-weight="400" font-size="23" transform="translate(424.661 552)"></text><text font-family="Arial,Arial_MSFontService,sans-serif" font-style="italic" font-weight="400" font-size="23" transform="translate(447.161 552)">V</text><text font-family="Arial,Arial_MSFontService,sans-serif" font-weight="400" font-size="23" transform="translate(468.661 552)">represent the</text><text fill="#CC0000" font-family="Arial,Arial_MSFontService,sans-serif" font-weight="400" font-size="23" transform="translate(608.995 552)">routing grid cells (</text><text fill="#CC0000" font-family="Arial,Arial_MSFontService,sans-serif" font-style="italic" font-weight="400" font-size="23" transform="translate(788.161 552)">gcells</text><text fill="#CC0000" font-family="Arial,Arial_MSFontService,sans-serif" font-weight="400" font-size="23" transform="translate(846.161 552)">)</text><text font-family="Arial,Arial_MSFontService,sans-serif" font-weight="400" font-size="23" transform="translate(91.8281 579)">and the edges represent connections of grid cell pairs (</text><text font-family="Arial,Arial_MSFontService,sans-serif" font-style="italic" font-weight="400" font-size="23" transform="translate(645.328 579)">v</text><text font-family="Arial,Arial_MSFontService,sans-serif" font-style="italic" font-weight="400" font-size="15" transform="translate(656.661 584)">i</text><text font-family="Arial,Arial_MSFontService,sans-serif" font-weight="400" font-size="23" transform="translate(659.995 579)">,</text><text font-family="Arial,Arial_MSFontService,sans-serif" font-style="italic" font-weight="400" font-size="23" transform="translate(666.328 579)">v</text><text font-family="Arial,Arial_MSFontService,sans-serif" font-style="italic" font-weight="400" font-size="15" transform="translate(677.661 584)">j</text><text font-family="Arial,Arial_MSFontService,sans-serif" font-weight="400" font-size="23" transform="translate(680.995 579)">)</text></g></svg>