<svg width="788" height="414" xmlns="http://www.w3.org/2000/svg" xmlns:xlink="http://www.w3.org/1999/xlink" overflow="hidden"><g transform="translate(-67 -186)"><path d="M763.5 383.4 763.5 490.5 656.108 490.5 656.108 438.535 602.5 438.535 602.5 230.5 763.5 230.5 763.5 383.4Z" stroke="#BFBFBF" stroke-width="0" stroke-linejoin="round" stroke-miterlimit="10" fill="#BFBFBF" fill-rule="evenodd"/><path d="M763.5 491.5 656.108 491.5 656.108 439.335 602.5 439.335 602.5 230.5" stroke="#000000" stroke-width="1.33333" stroke-linejoin="round" stroke-miterlimit="10" fill="none" fill-rule="evenodd"/><path d="M763.5 464.5 763.5 276.5 629.5 276.5 629.5 410.836 683.1 410.836 683.1 464.5 763.5 464.5Z" stroke="#808080" stroke-width="0" stroke-linejoin="round" stroke-miterlimit="10" fill="#808080" fill-rule="evenodd"/><path d="M629.5 276.5 629.5 410.836 683.1 410.836 683.1 464.5 763.5 464.5" stroke="#000000" stroke-width="1.33333" stroke-linejoin="round" stroke-miterlimit="10" fill="none" fill-rule="evenodd"/><rect x="630" y="229" width="134" height="48" fill="#808080"/><path d="M0 0 0.000104987 48" stroke="#000000" stroke-width="1.33333" stroke-linejoin="round" stroke-miterlimit="10" fill="none" fill-rule="evenodd" transform="matrix(1 0 0 -1 629.5 277.5)"/><text font-family="Arial,Arial_MSFontService,sans-serif" font-weight="400" font-size="20" transform="translate(400.997 565)">4</text><text font-family="Arial,Arial_MSFontService,sans-serif" font-weight="400" font-size="20" transform="translate(335.497 523)">2</text><text font-family="Arial,Arial_MSFontService,sans-serif" font-weight="400" font-size="20" transform="translate(218.997 565)">2</text><text font-family="Arial,Arial_MSFontService,sans-serif" font-weight="400" font-size="20" transform="translate(178.997 493)">4</text><text font-family="Arial,Arial_MSFontService,sans-serif" font-weight="400" font-size="23" transform="translate(82.997 456)">Block</text><text font-family="Arial,Arial_MSFontService,sans-serif" font-style="italic" font-weight="400" font-size="23" transform="translate(144.83 456)">B</text><text font-family="Arial,Arial_MSFontService,sans-serif" font-weight="400" font-size="23" transform="translate(159.997 456)">:</text><text font-family="Arial,Arial_MSFontService,sans-serif" font-weight="400" font-size="23" transform="translate(82.997 291)">Block</text><text font-family="Arial,Arial_MSFontService,sans-serif" font-style="italic" font-weight="400" font-size="23" transform="translate(144.83 291)">A</text><text font-family="Arial,Arial_MSFontService,sans-serif" font-weight="400" font-size="23" transform="translate(159.997 291)">:</text><text font-family="Arial,Arial_MSFontService,sans-serif" font-weight="400" font-size="20" transform="translate(178.997 349)">5</text><text font-family="Arial,Arial_MSFontService,sans-serif" font-weight="400" font-size="20" transform="translate(386.997 317)">5</text><text font-family="Arial,Arial_MSFontService,sans-serif" font-weight="400" font-size="20" transform="translate(234.997 261)">3</text><text font-family="Arial,Arial_MSFontService,sans-serif" font-weight="400" font-size="20" transform="translate(306.997 371)">3</text><path d="M0.449416-2.96615 150.619 19.7868 149.72 25.7191-0.449416 2.96615ZM148.551 13.4051 165 25 145.855 31.2019Z" fill="#BFBFBF" transform="matrix(1 0 0 -1 480 517)"/><path d="M0.132075-2.99709 280.147 9.34254 279.883 15.3367-0.132075 2.99709ZM277.414 3.21627 295 13 276.621 21.1988Z" fill="#BFBFBF" transform="matrix(1 0 0 -1 304 453)"/><path d="M286.438 292.152 299.242 284.346 312.391 276.982 326.132 270.532 333.379 267.771 340.807 265.449 348.507 263.602 356.506 262.29 364.829 261.576 373.502 261.519 382.548 262.179 391.992 263.611 401.858 265.871 412.174 269.012 422.953 273.068 434.161 277.991 445.771 283.722 457.759 290.202 470.098 297.373 482.762 305.18 495.721 313.563 508.948 322.468 522.414 331.837 536.088 341.612 563.933 362.15 592.266 383.642 608.942 396.475 605.283 401.23 588.64 388.423 560.371 366.978 532.598 346.493 518.987 336.762 505.597 327.445 492.462 318.601 479.613 310.287 467.083 302.561 454.905 295.48 443.114 289.102 431.746 283.484 420.837 278.682 410.423 274.75 400.514 271.718 391.086 269.542 382.105 268.163 373.535 267.519 365.336 267.554 357.471 268.212 349.902 269.437 342.593 271.177 335.509 273.38 328.679 275.965 315.322 282.217 302.366 289.469 289.562 297.275ZM610.223 389.89 619 408 599.246 404.155Z" fill="#5F5F5F"/><path d="M473.208 362.254 659.479 444.213 657.062 449.705 470.792 367.746ZM659.149 437.513 672 453 651.9 453.989Z" fill="#5F5F5F"/><path d="M599.5 437.5C599.5 435.291 601.291 433.5 603.5 433.5 605.709 433.5 607.5 435.291 607.5 437.5 607.5 439.709 605.709 441.5 603.5 441.5 601.291 441.5 599.5 439.709 599.5 437.5Z" stroke="#000000" stroke-linejoin="round" stroke-miterlimit="10" fill="#7D95CA" fill-rule="evenodd"/><path d="M625.5 410.5C625.5 408.291 627.291 406.5 629.5 406.5 631.709 406.5 633.5 408.291 633.5 410.5 633.5 412.709 631.709 414.5 629.5 414.5 627.291 414.5 625.5 412.709 625.5 410.5Z" stroke="#000000" stroke-linejoin="round" stroke-miterlimit="10" fill="#7D95CA" fill-rule="evenodd"/><path d="M651.5 488.5C651.5 486.291 653.291 484.5 655.5 484.5 657.709 484.5 659.5 486.291 659.5 488.5 659.5 490.709 657.709 492.5 655.5 492.5 653.291 492.5 651.5 490.709 651.5 488.5Z" stroke="#000000" stroke-linejoin="round" stroke-miterlimit="10" fill="#7D95CA" fill-rule="evenodd"/><path d="M681.5 464.5C681.5 462.291 683.291 460.5 685.5 460.5 687.709 460.5 689.5 462.291 689.5 464.5 689.5 466.709 687.709 468.5 685.5 468.5 683.291 468.5 681.5 466.709 681.5 464.5Z" stroke="#000000" stroke-linejoin="round" stroke-miterlimit="10" fill="#7D95CA" fill-rule="evenodd"/><path d="M537.5 517.5 553.5 517.5" stroke="#000000" stroke-linejoin="round" stroke-miterlimit="10" fill="none" fill-rule="evenodd"/><text font-family="Arial,Arial_MSFontService,sans-serif" font-style="italic" font-weight="400" font-size="23" transform="translate(786.997 498)">h</text><text font-family="Arial,Arial_MSFontService,sans-serif" font-weight="400" font-size="15" transform="translate(799.664 503)">B</text><text font-family="Arial,Arial_MSFontService,sans-serif" font-weight="400" font-size="23" transform="translate(809.664 498)">(</text><text font-family="Arial,Arial_MSFontService,sans-serif" font-style="italic" font-weight="400" font-size="23" transform="translate(817.164 498)">w</text><text font-family="Arial,Arial_MSFontService,sans-serif" font-weight="400" font-size="23" transform="translate(833.497 498)">)</text><path d="M576.5 533.5 576.5 549.5" stroke="#000000" stroke-linejoin="round" stroke-miterlimit="10" fill="none" fill-rule="evenodd"/><path d="M1.08667 12.0001 1.08677 328-1.08656 328-1.08666 12.0001ZM-6.66666 13.3333 0 0 6.66667 13.3333Z" transform="matrix(-1 0 0 1 544 229)"/><path d="M528.003 539.913 828.004 540.875 827.997 543.048 527.997 542.087ZM826.688 535.291 840 542 826.645 548.624Z"/><text font-family="Arial,Arial_MSFontService,sans-serif" font-style="italic" font-weight="400" font-size="25" transform="translate(818.164 579)">w</text><text font-family="Arial,Arial_MSFontService,sans-serif" font-weight="400" font-size="20" transform="translate(594.664 573)">2</text><text font-family="Arial,Arial_MSFontService,sans-serif" font-weight="400" font-size="20" transform="translate(706.83 573)">6</text><path d="M600.5 533.5 600.5 549.5" stroke="#000000" stroke-linejoin="round" stroke-miterlimit="10" fill="none" fill-rule="evenodd"/><path d="M629.5 532.5 629.5 548.5" stroke="#000000" stroke-linejoin="round" stroke-miterlimit="10" fill="none" fill-rule="evenodd"/><path d="M656.5 533.5 656.5 549.5" stroke="#000000" stroke-linejoin="round" stroke-miterlimit="10" fill="none" fill-rule="evenodd"/><path d="M680.5 533.5 680.5 549.5" stroke="#000000" stroke-linejoin="round" stroke-miterlimit="10" fill="none" fill-rule="evenodd"/><path d="M712.5 533.5 712.5 549.5" stroke="#000000" stroke-linejoin="round" stroke-miterlimit="10" fill="none" fill-rule="evenodd"/><path d="M736.5 533.5 736.5 549.5" stroke="#000000" stroke-linejoin="round" stroke-miterlimit="10" fill="none" fill-rule="evenodd"/><path d="M760.5 533.5 760.5 549.5" stroke="#000000" stroke-linejoin="round" stroke-miterlimit="10" fill="none" fill-rule="evenodd"/><path d="M537.5 491.5 553.5 491.5" stroke="#000000" stroke-linejoin="round" stroke-miterlimit="10" fill="none" fill-rule="evenodd"/><path d="M536.5 465.5 552.5 465.5" stroke="#000000" stroke-linejoin="round" stroke-miterlimit="10" fill="none" fill-rule="evenodd"/><path d="M537.5 439.5 553.5 439.5" stroke="#000000" stroke-linejoin="round" stroke-miterlimit="10" fill="none" fill-rule="evenodd"/><path d="M537.5 413.5 553.5 413.5" stroke="#000000" stroke-linejoin="round" stroke-miterlimit="10" fill="none" fill-rule="evenodd"/><path d="M537.5 387.5 553.5 387.5" stroke="#000000" stroke-linejoin="round" stroke-miterlimit="10" fill="none" fill-rule="evenodd"/><path d="M537.5 361.5 553.5 361.5" stroke="#000000" stroke-linejoin="round" stroke-miterlimit="10" fill="none" fill-rule="evenodd"/><path d="M537.5 335.5 553.5 335.5" stroke="#000000" stroke-linejoin="round" stroke-miterlimit="10" fill="none" fill-rule="evenodd"/><text font-family="Arial,Arial_MSFontService,sans-serif" font-weight="400" font-size="20" transform="translate(514.83 499)">2</text><text font-family="Arial,Arial_MSFontService,sans-serif" font-weight="400" font-size="20" transform="translate(514.164 445)">4</text><text font-family="Arial,Arial_MSFontService,sans-serif" font-style="italic" font-weight="400" font-size="25" transform="translate(514.164 258)">h</text><path d="M536.5 309.5 552.5 309.5" stroke="#000000" stroke-linejoin="round" stroke-miterlimit="10" fill="none" fill-rule="evenodd"/><text font-family="Arial,Arial_MSFontService,sans-serif" font-weight="400" font-size="20" transform="translate(650.83 573)">4</text><rect x="504" y="371" width="31" height="34" fill="#EDEDED"/><text font-family="Arial,Arial_MSFontService,sans-serif" font-weight="400" font-size="20" transform="translate(514.164 395)">6</text><path d="M784.5 533.5 784.5 549.5" stroke="#000000" stroke-linejoin="round" stroke-miterlimit="10" fill="none" fill-rule="evenodd"/><text font-family="Arial,Arial_MSFontService,sans-serif" font-style="italic" font-weight="400" font-size="23" transform="translate(786.164 459)">h</text><text font-family="Arial,Arial_MSFontService,sans-serif" font-weight="400" font-size="15" transform="translate(798.83 464)">A</text><text font-family="Arial,Arial_MSFontService,sans-serif" font-weight="400" font-size="23" transform="translate(808.83 459)">(</text><text font-family="Arial,Arial_MSFontService,sans-serif" font-style="italic" font-weight="400" font-size="23" transform="translate(816.33 459)">w</text><text font-family="Arial,Arial_MSFontService,sans-serif" font-weight="400" font-size="23" transform="translate(832.664 459)">)</text><rect x="200.5" y="268.5" width="81" height="134" stroke="#808080" stroke-width="0" stroke-miterlimit="8" fill="#808080"/><rect x="200.5" y="268.5" width="81" height="134" stroke="#000000" stroke-width="0.833386" stroke-miterlimit="8" fill="none"/><rect x="358.5" y="488.5" width="107" height="53" stroke="#BFBFBF" stroke-width="0" stroke-miterlimit="8" fill="#BFBFBF"/><rect x="358.5" y="488.5" width="107" height="53" stroke="#000000" stroke-width="0.833386" stroke-miterlimit="8" fill="none"/><rect x="201.5" y="434.5" width="54" height="107" stroke="#BFBFBF" stroke-width="0" stroke-miterlimit="8" fill="#C0C0C0"/><rect x="201.5" y="434.5" width="54" height="107" stroke="#000000" stroke-width="0.833386" stroke-miterlimit="8" fill="none"/><rect x="329.5" y="325.5" width="134" height="80" stroke="#808080" stroke-width="0" stroke-miterlimit="8" fill="#808080"/><rect x="329.5" y="325.5" width="134" height="80" stroke="#000000" stroke-width="0.833386" stroke-miterlimit="8" fill="none"/><text font-family="Arial,Arial_MSFontService,sans-serif" font-weight="400" font-size="23" transform="translate(81.683 215)">Step 1:</text><text font-family="Arial,Arial_MSFontService,sans-serif" font-weight="400" font-size="23" transform="translate(172.85 215)">Construct the shape functions of the blocks</text></g></svg>