<svg width="794" height="449" xmlns="http://www.w3.org/2000/svg" xmlns:xlink="http://www.w3.org/1999/xlink" overflow="hidden"><g transform="translate(-83 -151)"><rect x="415" y="153" width="110" height="38" fill="#EDD1D1"/><text font-family="Arial,Arial_MSFontService,sans-serif" font-weight="400" font-size="23" transform="translate(425.33 180)">Columns</text><rect x="785" y="360" width="88" height="38" fill="#EDD1D1"/><text font-family="Arial,Arial_MSFontService,sans-serif" font-weight="400" font-size="23" transform="translate(794.997 387)">Tracks</text><path d="M698 295 698 453 692 453 692 295ZM686 298 695 280 704 298ZM704 450 695 468 686 450Z" fill="#C5C5FF"/><rect x="669" y="315" width="64" height="111" fill="#CCCCFF"/><text font-family="Arial,Arial_MSFontService,sans-serif" font-weight="400" font-size="23" transform="matrix(-1.83697e-16 -1 1 -1.83697e-16 696.082 416)">Channel</text><text font-family="Arial,Arial_MSFontService,sans-serif" font-weight="400" font-size="23" transform="matrix(-1.83697e-16 -1 1 -1.83697e-16 723.082 416)">Height</text><path d="M0 0 321 1" stroke="#000000" stroke-width="6.66667" stroke-linejoin="round" stroke-miterlimit="10" fill="none" fill-rule="evenodd" transform="matrix(-1 0 0 1 631.5 468.5)"/><path d="M0 0 321 1" stroke="#000000" stroke-width="6.66667" stroke-linejoin="round" stroke-miterlimit="10" fill="none" fill-rule="evenodd" transform="matrix(-1 0 0 1 631.5 290.5)"/><rect x="586.5" y="277.5" width="29" height="205" stroke="#808080" stroke-width="0" stroke-miterlimit="8" fill="#808080"/><rect x="586.5" y="277.5" width="29" height="207" stroke="#000000" stroke-width="3.33333" stroke-miterlimit="8" fill="none"/><rect x="542.5" y="277.5" width="29" height="205" stroke="#808080" stroke-width="0" stroke-miterlimit="8" fill="#808080"/><rect x="542.5" y="277.5" width="29" height="205" stroke="#000000" stroke-width="3.33333" stroke-miterlimit="8" fill="none"/><rect x="499.5" y="277.5" width="29" height="159" stroke="#808080" stroke-width="0" stroke-miterlimit="8" fill="#808080"/><rect x="499.5" y="277.5" width="29" height="159" stroke="#000000" stroke-width="3.33333" stroke-miterlimit="8" fill="none"/><rect x="415.5" y="413.5" width="29" height="72" stroke="#808080" stroke-width="0" stroke-miterlimit="8" fill="#808080"/><rect x="415.5" y="413.5" width="29" height="69" stroke="#000000" stroke-width="3.33333" stroke-miterlimit="8" fill="none"/><rect x="455.5" y="363.5" width="29" height="119" stroke="#808080" stroke-width="0" stroke-miterlimit="8" fill="#808080"/><rect x="455.5" y="363.5" width="29" height="119" stroke="#000000" stroke-width="3.33333" stroke-miterlimit="8" fill="none"/><rect x="455.5" y="277.5" width="29" height="73" stroke="#808080" stroke-width="0" stroke-miterlimit="8" fill="#808080"/><rect x="455.5" y="277.5" width="29" height="73" stroke="#000000" stroke-width="3.33333" stroke-miterlimit="8" fill="none"/><rect x="413.5" y="277.5" width="29" height="115" stroke="#808080" stroke-width="0" stroke-miterlimit="8" fill="#808080"/><rect x="413.5" y="277.5" width="29" height="115" stroke="#000000" stroke-width="3.33333" stroke-miterlimit="8" fill="none"/><rect x="369.5" y="321.5" width="29" height="161" stroke="#808080" stroke-width="0" stroke-miterlimit="8" fill="#808080"/><rect x="369.5" y="321.5" width="29" height="161" stroke="#000000" stroke-width="3.33333" stroke-miterlimit="8" fill="none"/><rect x="326.5" y="413.5" width="29" height="72" stroke="#808080" stroke-width="0" stroke-miterlimit="8" fill="#808080"/><rect x="326.5" y="413.5" width="29" height="69" stroke="#000000" stroke-width="3.33333" stroke-miterlimit="8" fill="none"/><rect x="326.5" y="277.5" width="29" height="115" stroke="#808080" stroke-width="0" stroke-miterlimit="8" fill="#808080"/><rect x="326.5" y="277.5" width="29" height="115" stroke="#000000" stroke-width="3.33333" stroke-miterlimit="8" fill="none"/><rect x="587.5" y="454.5" width="29" height="28" stroke="#000000" stroke-width="3.33333" stroke-miterlimit="8" fill="none"/><rect x="542.5" y="454.5" width="29" height="28" stroke="#000000" stroke-width="3.33333" stroke-miterlimit="8" fill="none"/><rect x="415.5" y="456.5" width="29" height="26" stroke="#000000" stroke-width="3.33333" stroke-miterlimit="8" fill="none"/><rect x="455.5" y="454.5" width="29" height="29" stroke="#000000" stroke-width="3.33333" stroke-miterlimit="8" fill="none"/><rect x="369.5" y="454.5" width="29" height="29" stroke="#000000" stroke-width="3.33333" stroke-miterlimit="8" fill="none"/><rect x="326.5" y="454.5" width="29" height="29" stroke="#000000" stroke-width="3.33333" stroke-miterlimit="8" fill="none"/><rect x="586.5" y="277.5" width="29" height="29" stroke="#000000" stroke-width="3.33333" stroke-miterlimit="8" fill="none"/><rect x="542.5" y="277.5" width="29" height="29" stroke="#000000" stroke-width="3.33333" stroke-miterlimit="8" fill="none"/><rect x="499.5" y="277.5" width="29" height="29" stroke="#000000" stroke-width="3.33333" stroke-miterlimit="8" fill="none"/><rect x="455.5" y="277.5" width="29" height="29" stroke="#000000" stroke-width="3.33333" stroke-miterlimit="8" fill="none"/><rect x="413.5" y="277.5" width="29" height="29" stroke="#000000" stroke-width="3.33333" stroke-miterlimit="8" fill="none"/><rect x="326.5" y="277.5" width="29" height="29" stroke="#000000" stroke-width="3.33333" stroke-miterlimit="8" fill="none"/><rect x="499.5" y="407.5" width="29" height="29" stroke="#DFDFDF" stroke-width="0" stroke-miterlimit="8" fill="#DFDFDF"/><rect x="499.5" y="407.5" width="29" height="29" stroke="#000000" stroke-width="3.33333" stroke-miterlimit="8" fill="none"/><rect x="415.5" y="406.5" width="29" height="29" stroke="#DFDFDF" stroke-width="0" stroke-miterlimit="8" fill="#DFDFDF"/><rect x="415.5" y="406.5" width="29" height="29" stroke="#000000" stroke-width="3.33333" stroke-miterlimit="8" fill="none"/><rect x="326.5" y="406.5" width="29" height="29" stroke="#DFDFDF" stroke-width="0" stroke-miterlimit="8" fill="#DFDFDF"/><rect x="326.5" y="406.5" width="29" height="29" stroke="#000000" stroke-width="3.33333" stroke-miterlimit="8" fill="none"/><rect x="542.5" y="363.5" width="29" height="29" stroke="#DFDFDF" stroke-width="0" stroke-miterlimit="8" fill="#DFDFDF"/><rect x="542.5" y="363.5" width="29" height="29" stroke="#000000" stroke-width="3.33333" stroke-miterlimit="8" fill="none"/><rect x="455.5" y="363.5" width="29" height="29" stroke="#DFDFDF" stroke-width="0" stroke-miterlimit="8" fill="#DFDFDF"/><rect x="455.5" y="363.5" width="29" height="29" stroke="#000000" stroke-width="3.33333" stroke-miterlimit="8" fill="none"/><rect x="413.5" y="363.5" width="29" height="29" stroke="#DFDFDF" stroke-width="0" stroke-miterlimit="8" fill="#DFDFDF"/><rect x="413.5" y="363.5" width="29" height="29" stroke="#000000" stroke-width="3.33333" stroke-miterlimit="8" fill="none"/><rect x="326.5" y="363.5" width="29" height="29" stroke="#DFDFDF" stroke-width="0" stroke-miterlimit="8" fill="#DFDFDF"/><rect x="326.5" y="363.5" width="29" height="29" stroke="#000000" stroke-width="3.33333" stroke-miterlimit="8" fill="none"/><rect x="586.5" y="321.5" width="29" height="29" stroke="#DFDFDF" stroke-width="0" stroke-miterlimit="8" fill="#DFDFDF"/><rect x="586.5" y="321.5" width="29" height="29" stroke="#000000" stroke-width="3.33333" stroke-miterlimit="8" fill="none"/><rect x="455.5" y="321.5" width="29" height="29" stroke="#DFDFDF" stroke-width="0" stroke-miterlimit="8" fill="#DFDFDF"/><rect x="455.5" y="321.5" width="29" height="29" stroke="#000000" stroke-width="3.33333" stroke-miterlimit="8" fill="none"/><rect x="369.5" y="321.5" width="29" height="29" stroke="#DFDFDF" stroke-width="0" stroke-miterlimit="8" fill="#DFDFDF"/><rect x="369.5" y="321.5" width="29" height="29" stroke="#000000" stroke-width="3.33333" stroke-miterlimit="8" fill="none"/><rect x="442.5" y="371.5" width="13" height="14" stroke="#DFDFDF" stroke-width="0" stroke-miterlimit="8" fill="#DFDFDF"/><rect x="442.5" y="371.5" width="13" height="14" stroke="#000000" stroke-width="3.33333" stroke-miterlimit="8" fill="none"/><rect x="355.5" y="413.5" width="57" height="15" stroke="#DFDFDF" stroke-width="0" stroke-miterlimit="8" fill="#DFDFDF"/><rect x="528.5" y="415.5" width="117" height="14" stroke="#DFDFDF" stroke-width="0" stroke-miterlimit="8" fill="#DFDFDF"/><rect x="528.5" y="415.5" width="119" height="13" stroke="#000000" stroke-width="3.33333" stroke-miterlimit="8" fill="none"/><rect x="571.5" y="371.5" width="76" height="14" stroke="#DFDFDF" stroke-width="0" stroke-miterlimit="8" fill="#DFDFDF"/><rect x="571.5" y="371.5" width="76" height="14" stroke="#000000" stroke-width="3.33333" stroke-miterlimit="8" fill="none"/><rect x="484.5" y="371.5" width="58" height="14" stroke="#DFDFDF" stroke-width="0" stroke-miterlimit="8" fill="#DFDFDF"/><rect x="484.5" y="371.5" width="58" height="14" stroke="#000000" stroke-width="3.33333" stroke-miterlimit="8" fill="none"/><rect x="355.5" y="371.5" width="58" height="14" stroke="#DFDFDF" stroke-width="0" stroke-miterlimit="8" fill="#DFDFDF"/><rect x="355.5" y="371.5" width="58" height="14" stroke="#000000" stroke-width="3.33333" stroke-miterlimit="8" fill="none"/><rect x="398.5" y="328.5" width="57" height="14" stroke="#DFDFDF" stroke-width="0" stroke-miterlimit="8" fill="#DFDFDF"/><rect x="398.5" y="328.5" width="57" height="14" stroke="#000000" stroke-width="3.33333" stroke-miterlimit="8" fill="none"/><rect x="484.5" y="328.5" width="102" height="14" stroke="#DFDFDF" stroke-width="0" stroke-miterlimit="8" fill="#DFDFDF"/><rect x="484.5" y="328.5" width="102" height="14" stroke="#000000" stroke-width="3.33333" stroke-miterlimit="8" fill="none"/><rect x="423.5" y="413.5" width="14" height="14" stroke="#000000" stroke-width="0" stroke-miterlimit="8"/><rect x="423.5" y="413.5" width="14" height="14" stroke="#000000" stroke-width="3.33333" stroke-miterlimit="8" fill="none"/><rect x="333.5" y="413.5" width="15" height="14" stroke="#000000" stroke-width="0" stroke-miterlimit="8"/><rect x="333.5" y="413.5" width="15" height="14" stroke="#000000" stroke-width="3.33333" stroke-miterlimit="8" fill="none"/><rect x="507.5" y="415.5" width="14" height="14" stroke="#000000" stroke-width="0" stroke-miterlimit="8"/><rect x="507.5" y="415.5" width="14" height="14" stroke="#000000" stroke-width="3.33333" stroke-miterlimit="8" fill="none"/><rect x="549.5" y="371.5" width="15" height="14" stroke="#000000" stroke-width="0" stroke-miterlimit="8"/><rect x="549.5" y="371.5" width="15" height="14" stroke="#000000" stroke-width="3.33333" stroke-miterlimit="8" fill="none"/><rect x="463.5" y="371.5" width="15" height="14" stroke="#000000" stroke-width="0" stroke-miterlimit="8"/><rect x="463.5" y="371.5" width="15" height="14" stroke="#000000" stroke-width="3.33333" stroke-miterlimit="8" fill="none"/><rect x="420.5" y="371.5" width="14" height="14" stroke="#000000" stroke-width="0" stroke-miterlimit="8"/><rect x="420.5" y="371.5" width="14" height="14" stroke="#000000" stroke-width="3.33333" stroke-miterlimit="8" fill="none"/><rect x="333.5" y="371.5" width="15" height="14" stroke="#000000" stroke-width="0" stroke-miterlimit="8"/><rect x="333.5" y="371.5" width="15" height="14" stroke="#000000" stroke-width="3.33333" stroke-miterlimit="8" fill="none"/><rect x="593.5" y="328.5" width="14" height="14" stroke="#000000" stroke-width="0" stroke-miterlimit="8"/><rect x="593.5" y="328.5" width="14" height="14" stroke="#000000" stroke-width="3.33333" stroke-miterlimit="8" fill="none"/><rect x="463.5" y="328.5" width="15" height="14" stroke="#000000" stroke-width="0" stroke-miterlimit="8"/><rect x="463.5" y="328.5" width="15" height="14" stroke="#000000" stroke-width="3.33333" stroke-miterlimit="8" fill="none"/><rect x="377.5" y="328.5" width="14" height="14" stroke="#000000" stroke-width="0" stroke-miterlimit="8"/><rect x="377.5" y="328.5" width="14" height="14" stroke="#000000" stroke-width="3.33333" stroke-miterlimit="8" fill="none"/><rect x="355.5" y="413.5" width="61" height="16" stroke="#000000" stroke-width="3.33333" stroke-miterlimit="8" fill="none"/><text font-family="Arial,Arial_MSFontService,sans-serif" font-style="italic" font-weight="700" font-size="23" transform="translate(331.33 519)">A</text><text font-family="Arial,Arial_MSFontService,sans-serif" font-style="italic" font-weight="700" font-size="23" transform="translate(421.164 519)">A</text><text font-family="Arial,Arial_MSFontService,sans-serif" font-style="italic" font-weight="700" font-size="23" transform="translate(331.33 270)">B</text><text font-family="Arial,Arial_MSFontService,sans-serif" font-style="italic" font-weight="700" font-size="23" transform="translate(414.33 270)">B</text><text font-family="Arial,Arial_MSFontService,sans-serif" font-style="italic" font-weight="700" font-size="23" transform="translate(462.664 519)">B</text><text font-family="Arial,Arial_MSFontService,sans-serif" font-style="italic" font-weight="700" font-size="23" transform="translate(545.497 270)">B</text><text font-family="Arial,Arial_MSFontService,sans-serif" font-style="italic" font-weight="700" font-size="23" transform="translate(550.83 519)">B</text><text font-family="Arial,Arial_MSFontService,sans-serif" font-style="italic" font-weight="700" font-size="23" transform="translate(372.664 519)">C</text><text font-family="Arial,Arial_MSFontService,sans-serif" font-style="italic" font-weight="700" font-size="23" transform="translate(460.997 270)">C</text><text font-family="Arial,Arial_MSFontService,sans-serif" font-style="italic" font-weight="700" font-size="23" transform="translate(597.164 519)">C</text><text font-family="Arial,Arial_MSFontService,sans-serif" font-style="italic" font-weight="700" font-size="23" transform="translate(591.83 270)">C</text><text font-family="Arial,Arial_MSFontService,sans-serif" font-style="italic" font-weight="700" font-size="23" transform="translate(504.33 270)">D</text><path d="M0.646195 6.4556C2.10716 4.41699 3.48383 2.49163 4.97289 0.679537 8.42863 1.13256 11.9968 2.26512 15.3963 5.20978 17.082 6.68211 18.4587 10.9858 20.2006 12.2317 22.2797 11.6654 24.2183 9.74003 26.2973 9.06049 28.0954 7.81467 29.9497 7.4749 31.7197 5.77606 33.5459 3.96396 34.2202 1.47233 36.215 0.679537 38.575 0.906049 40.935 0.339768 43.267 1.24582 45.0932 1.92535 44.3908 3.28443 45.346 5.20978 47.0318 8.60746 48.9422 9.62677 50.7965 10.3063 52.2575 9.85328 53.8589 9.85328 55.2918 8.38095 57.0056 6.56885 58.6633 3.96396 60.4052 2.60489 61.6414 1.58559 61.5009 1.92535 62.99 1.24582 63.8328 0.906049 65.5466 0 65.5466 0 68.5529 0.453024 71.2781 2.15187 74.2 3.17117 76.1667 5.20978 74.7058 15.1763 75.1553 21.9717 72.2615 26.0489 67.3167 24.9163 64.5914 25.1429 58.5509 29.3333 55.2075 26.1622 47.116 25.8224 43.4636 25.0296 39.8674 22.991 36.215 21.9717 33.9674 20.0463 31.6074 19.5933 29.3316 18.6873 28.4888 18.3475 26.7749 17.4414 26.7749 17.4414 17.6158 17.8945 8.99054 17.1017 0 13.5907 0.477622 10.8726 0.252859 6.4556 0.646195 6.4556Z" fill="#EDEDED" fill-rule="evenodd" transform="matrix(0.0696639 -0.997571 -0.997571 -0.0696639 659.145 434.763)"/><rect x="321" y="199" width="33" height="37" fill="#EDD1D1"/><text font-family="Arial,Arial_MSFontService,sans-serif" font-style="italic" font-weight="400" font-size="23" transform="translate(331.497 226)">a</text><rect x="365" y="199" width="33" height="37" fill="#EDD1D1"/><text font-family="Arial,Arial_MSFontService,sans-serif" font-style="italic" font-weight="400" font-size="23" transform="translate(375.497 226)">b</text><rect x="410" y="199" width="31" height="37" fill="#EDD1D1"/><text font-family="Arial,Arial_MSFontService,sans-serif" font-style="italic" font-weight="400" font-size="23" transform="translate(419.664 226)">c</text><rect x="454" y="199" width="33" height="37" fill="#EDD1D1"/><text font-family="Arial,Arial_MSFontService,sans-serif" font-style="italic" font-weight="400" font-size="23" transform="translate(463.83 226)">d</text><rect x="498" y="199" width="33" height="37" fill="#EDD1D1"/><text font-family="Arial,Arial_MSFontService,sans-serif" font-style="italic" font-weight="400" font-size="23" transform="translate(507.664 226)">e</text><rect x="542" y="199" width="26" height="37" fill="#EDD1D1"/><text font-family="Arial,Arial_MSFontService,sans-serif" font-style="italic" font-weight="400" font-size="23" transform="translate(551.83 226)">f</text><rect x="586" y="198" width="33" height="37" fill="#EDD1D1"/><text font-family="Arial,Arial_MSFontService,sans-serif" font-style="italic" font-weight="400" font-size="23" transform="translate(596.164 225)">g</text><rect x="743" y="319" width="33" height="37" fill="#EDD1D1"/><text font-family="Arial,Arial_MSFontService,sans-serif" font-weight="400" font-size="23" transform="translate(753.497 346)">1</text><rect x="743" y="360" width="33" height="37" fill="#EDD1D1"/><text font-family="Arial,Arial_MSFontService,sans-serif" font-weight="400" font-size="23" transform="translate(753.497 387)">2</text><rect x="743" y="402" width="33" height="37" fill="#EDD1D1"/><text font-family="Arial,Arial_MSFontService,sans-serif" font-weight="400" font-size="23" transform="translate(753.497 429)">3</text><path d="M287 327 320 327 320 333 287 333ZM317 321 335 330 317 339Z" fill="#C5C5FF"/><path d="M0.958952-2.84261 69.7459 20.3626 67.828 26.0479-0.958952 2.84261ZM68.8212 13.7185 83 28 63.0675 30.7741Z" fill="#C5C5FF" transform="matrix(1 0 0 -1 294 413)"/><path d="M1.1978-2.7505 49.4453 18.2605 47.0497 23.7615-1.1978 2.7505ZM49.0904 11.5617 62 27 41.9036 28.0647Z" fill="#C5C5FF" transform="matrix(1 0 0 -1 529 551)"/><path d="M1.62227-2.52354 31.0046 16.3651 27.7601 21.4122-1.62227 2.52354ZM31.7256 9.69576 42 27 21.992 24.837Z" fill="#C5C5FF" transform="matrix(1 0 0 -1 501 551)"/><path d="M3-1.16652e-05 3.00005 12-2.99995 12-3 1.16652e-05ZM9.00004 8.99997 0.000104987 27-8.99996 9.00003Z" fill="#C5C5FF" transform="matrix(1 0 0 -1 474 551)"/><path d="M465.168 553.375 442.044 535.537 445.709 530.787 468.832 548.625ZM440.755 542.12 432 524 451.749 527.868Z" fill="#C5C5FF"/><path d="M444.678 553.693 403.143 533.303 405.787 527.917 447.322 548.307ZM403.192 540.011 391 524 411.124 523.853Z" fill="#C5C5FF"/><path d="M423.802 553.75 375.555 532.74 377.95 527.238 426.198 548.25ZM375.91 539.438 363 524 383.096 522.935Z" fill="#C5C5FF"/><rect x="383" y="553" width="183" height="37" fill="#CCCCFF"/><text font-family="Arial,Arial_MSFontService,sans-serif" font-weight="400" font-size="23" transform="translate(406.333 580)">Pin Locations</text><rect x="87" y="385" width="223" height="64" fill="#CCCCFF"/><text font-family="Arial,Arial_MSFontService,sans-serif" font-weight="400" font-size="23" transform="translate(96.997 412)">Horizontal Segment</text><text font-family="Arial,Arial_MSFontService,sans-serif" font-weight="400" font-size="23" transform="translate(96.997 439)">(Trunk)</text><rect x="87" y="303" width="223" height="64" fill="#CCCCFF"/><text font-family="Arial,Arial_MSFontService,sans-serif" font-weight="400" font-size="23" transform="translate(96.997 330)">Vertical Segment</text><text font-family="Arial,Arial_MSFontService,sans-serif" font-weight="400" font-size="23" transform="translate(96.997 357)">(Branch)</text><text font-family="Arial,Arial_MSFontService,sans-serif" font-weight="700" font-size="23" transform="translate(375.997 271)">0</text><text font-family="Arial,Arial_MSFontService,sans-serif" font-weight="700" font-size="23" transform="translate(508.997 519)">0</text></g></svg>