<svg width="563" height="278" xmlns="http://www.w3.org/2000/svg" xmlns:xlink="http://www.w3.org/1999/xlink" overflow="hidden"><g transform="translate(-69 -123)"><path d="M180.5 285 220.5 285 220.5 286 180.5 286ZM180.5 288.167C179.027 288.167 177.833 286.973 177.833 285.5 177.833 284.027 179.027 282.833 180.5 282.833 181.973 282.833 183.167 284.027 183.167 285.5 183.167 286.973 181.973 288.167 180.5 288.167ZM220.5 282.833C221.973 282.833 223.167 284.027 223.167 285.5 223.167 286.973 221.973 288.167 220.5 288.167 219.027 288.167 217.833 286.973 217.833 285.5 217.833 284.027 219.027 282.833 220.5 282.833Z"/><path d="M220.5 285 260.5 285 260.5 286 220.5 286ZM260.5 282.833C261.973 282.833 263.167 284.027 263.167 285.5 263.167 286.973 261.973 288.167 260.5 288.167 259.027 288.167 257.833 286.973 257.833 285.5 257.833 284.027 259.027 282.833 260.5 282.833Z"/><path d="M261.5 285 301.5 285 301.5 286 261.5 286ZM301.5 282.833C302.973 282.833 304.167 284.027 304.167 285.5 304.167 286.973 302.973 288.167 301.5 288.167 300.027 288.167 298.833 286.973 298.833 285.5 298.833 284.027 300.027 282.833 301.5 282.833Z"/><path d="M301.5 285 341.5 285 341.5 286 301.5 286ZM341.5 282.833C342.973 282.833 344.167 284.027 344.167 285.5 344.167 286.973 342.973 288.167 341.5 288.167 340.027 288.167 338.833 286.973 338.833 285.5 338.833 284.027 340.027 282.833 341.5 282.833Z"/><path d="M341.5 285 381.5 285 381.5 286 341.5 286ZM381.5 282.833C382.973 282.833 384.167 284.027 384.167 285.5 384.167 286.973 382.973 288.167 381.5 288.167 380.027 288.167 378.833 286.973 378.833 285.5 378.833 284.027 380.027 282.833 381.5 282.833Z"/><path d="M381.5 285 421.5 285 421.5 286 381.5 286ZM421.5 282.833C422.973 282.833 424.167 284.027 424.167 285.5 424.167 286.973 422.973 288.167 421.5 288.167 420.027 288.167 418.833 286.973 418.833 285.5 418.833 284.027 420.027 282.833 421.5 282.833Z"/><path d="M421.5 285 461.5 285 461.5 286 421.5 286ZM461.5 282.833C462.973 282.833 464.167 284.027 464.167 285.5 464.167 286.973 462.973 288.167 461.5 288.167 460.027 288.167 458.833 286.973 458.833 285.5 458.833 284.027 460.027 282.833 461.5 282.833Z"/><path d="M461.5 285 501.5 285 501.5 286 461.5 286ZM501.5 282.833C502.973 282.833 504.167 284.027 504.167 285.5 504.167 286.973 502.973 288.167 501.5 288.167 500.027 288.167 498.833 286.973 498.833 285.5 498.833 284.027 500.027 282.833 501.5 282.833Z"/><path d="M501.5 285 541.5 285 541.5 286 501.5 286ZM541.5 282.833C542.973 282.833 544.167 284.027 544.167 285.5 544.167 286.973 542.973 288.167 541.5 288.167 540.027 288.167 538.833 286.973 538.833 285.5 538.833 284.027 540.027 282.833 541.5 282.833Z"/><path d="M541.5 285 581.5 285 581.5 286 541.5 286ZM581.5 282.833C582.973 282.833 584.167 284.027 584.167 285.5 584.167 286.973 582.973 288.167 581.5 288.167 580.027 288.167 578.833 286.973 578.833 285.5 578.833 284.027 580.027 282.833 581.5 282.833Z"/><path d="M581.5 285 622.5 285 622.5 286 581.5 286ZM622.5 282.833C623.973 282.833 625.167 284.027 625.167 285.5 625.167 286.973 623.973 288.167 622.5 288.167 621.027 288.167 619.833 286.973 619.833 285.5 619.833 284.027 621.027 282.833 622.5 282.833Z"/><text fill="#0C325C" font-family="Arial,Arial_MSFontService,sans-serif" font-style="italic" font-weight="400" font-size="23" transform="translate(175.497 312)">A</text><text fill="#0C325C" font-family="Arial,Arial_MSFontService,sans-serif" font-style="italic" font-weight="400" font-size="23" transform="translate(215.497 312)">C</text><text fill="#0C325C" font-family="Arial,Arial_MSFontService,sans-serif" font-style="italic" font-weight="400" font-size="23" transform="translate(255.83 312)">E</text><text fill="#0C325C" font-family="Arial,Arial_MSFontService,sans-serif" font-style="italic" font-weight="400" font-size="23" transform="translate(295.497 312)">C</text><text fill="#0C325C" font-family="Arial,Arial_MSFontService,sans-serif" font-style="italic" font-weight="400" font-size="23" transform="translate(335.497 312)">E</text><text fill="#0C325C" font-family="Arial,Arial_MSFontService,sans-serif" font-style="italic" font-weight="400" font-size="23" transform="translate(375.664 312)">A</text><text fill="#0C325C" font-family="Arial,Arial_MSFontService,sans-serif" font-style="italic" font-weight="400" font-size="23" transform="translate(417.164 312)">F</text><text fill="#0C325C" font-family="Arial,Arial_MSFontService,sans-serif" font-style="italic" font-weight="400" font-size="23" transform="translate(457.164 312)">H</text><text fill="#0C325C" font-family="Arial,Arial_MSFontService,sans-serif" font-style="italic" font-weight="400" font-size="23" transform="translate(537.164 312)">H</text><text fill="#0C325C" font-family="Arial,Arial_MSFontService,sans-serif" font-style="italic" font-weight="400" font-size="23" transform="translate(577.164 312)">G</text><text fill="#0C325C" font-family="Arial,Arial_MSFontService,sans-serif" font-weight="400" font-size="23" transform="translate(494.997 311)">0</text><rect x="587" y="282" width="44" height="7" fill="#EDEDED"/><path d="M182.5 192 222.5 192 222.5 193 182.5 193ZM182.5 195.167C181.027 195.167 179.833 193.973 179.833 192.5 179.833 191.027 181.027 189.833 182.5 189.833 183.973 189.833 185.167 191.027 185.167 192.5 185.167 193.973 183.973 195.167 182.5 195.167ZM222.5 189.833C223.973 189.833 225.167 191.027 225.167 192.5 225.167 193.973 223.973 195.167 222.5 195.167 221.027 195.167 219.833 193.973 219.833 192.5 219.833 191.027 221.027 189.833 222.5 189.833Z"/><path d="M222.5 192 262.5 192 262.5 193 222.5 193ZM262.5 189.833C263.973 189.833 265.167 191.027 265.167 192.5 265.167 193.973 263.973 195.167 262.5 195.167 261.027 195.167 259.833 193.973 259.833 192.5 259.833 191.027 261.027 189.833 262.5 189.833Z"/><path d="M262.5 192 303.5 192 303.5 193 262.5 193ZM303.5 189.833C304.973 189.833 306.167 191.027 306.167 192.5 306.167 193.973 304.973 195.167 303.5 195.167 302.027 195.167 300.833 193.973 300.833 192.5 300.833 191.027 302.027 189.833 303.5 189.833Z"/><path d="M303.5 192 343.5 192 343.5 193 303.5 193ZM343.5 189.833C344.973 189.833 346.167 191.027 346.167 192.5 346.167 193.973 344.973 195.167 343.5 195.167 342.027 195.167 340.833 193.973 340.833 192.5 340.833 191.027 342.027 189.833 343.5 189.833Z"/><path d="M343.5 192 383.5 192 383.5 193 343.5 193ZM383.5 189.833C384.973 189.833 386.167 191.027 386.167 192.5 386.167 193.973 384.973 195.167 383.5 195.167 382.027 195.167 380.833 193.973 380.833 192.5 380.833 191.027 382.027 189.833 383.5 189.833Z"/><path d="M383.5 192 423.5 192 423.5 193 383.5 193ZM423.5 189.833C424.973 189.833 426.167 191.027 426.167 192.5 426.167 193.973 424.973 195.167 423.5 195.167 422.027 195.167 420.833 193.973 420.833 192.5 420.833 191.027 422.027 189.833 423.5 189.833Z"/><path d="M423.5 192 463.5 192 463.5 193 423.5 193ZM463.5 189.833C464.973 189.833 466.167 191.027 466.167 192.5 466.167 193.973 464.973 195.167 463.5 195.167 462.027 195.167 460.833 193.973 460.833 192.5 460.833 191.027 462.027 189.833 463.5 189.833Z"/><path d="M463.5 192 503.5 192 503.5 193 463.5 193ZM503.5 189.833C504.973 189.833 506.167 191.027 506.167 192.5 506.167 193.973 504.973 195.167 503.5 195.167 502.027 195.167 500.833 193.973 500.833 192.5 500.833 191.027 502.027 189.833 503.5 189.833Z"/><path d="M503.5 192 543.5 192 543.5 193 503.5 193ZM543.5 189.833C544.973 189.833 546.167 191.027 546.167 192.5 546.167 193.973 544.973 195.167 543.5 195.167 542.027 195.167 540.833 193.973 540.833 192.5 540.833 191.027 542.027 189.833 543.5 189.833Z"/><path d="M543.5 192 583.5 192 583.5 193 543.5 193ZM583.5 189.833C584.973 189.833 586.167 191.027 586.167 192.5 586.167 193.973 584.973 195.167 583.5 195.167 582.027 195.167 580.833 193.973 580.833 192.5 580.833 191.027 582.027 189.833 583.5 189.833Z"/><path d="M583.5 192 623.5 192 623.5 193 583.5 193ZM623.5 189.833C624.973 189.833 626.167 191.027 626.167 192.5 626.167 193.973 624.973 195.167 623.5 195.167 622.027 195.167 620.833 193.973 620.833 192.5 620.833 191.027 622.027 189.833 623.5 189.833Z"/><text fill="#0C325C" font-family="Arial,Arial_MSFontService,sans-serif" font-weight="400" font-size="23" transform="translate(176.997 186)">0</text><text fill="#0C325C" font-family="Arial,Arial_MSFontService,sans-serif" font-style="italic" font-weight="400" font-size="23" transform="translate(214.83 186)">B</text><text fill="#0C325C" font-family="Arial,Arial_MSFontService,sans-serif" font-style="italic" font-weight="400" font-size="23" transform="translate(255.83 186)">D</text><text fill="#0C325C" font-family="Arial,Arial_MSFontService,sans-serif" font-style="italic" font-weight="400" font-size="23" transform="translate(295.664 186)">E</text><text fill="#0C325C" font-family="Arial,Arial_MSFontService,sans-serif" font-style="italic" font-weight="400" font-size="23" transform="translate(337.164 186)">B</text><text fill="#0C325C" font-family="Arial,Arial_MSFontService,sans-serif" font-style="italic" font-weight="400" font-size="23" transform="translate(417.164 186)">G</text><text fill="#0C325C" font-family="Arial,Arial_MSFontService,sans-serif" font-style="italic" font-weight="400" font-size="23" transform="translate(377.164 186)">F</text><text fill="#0C325C" font-family="Arial,Arial_MSFontService,sans-serif" font-weight="400" font-size="23" transform="translate(457.164 186)">0</text><text fill="#0C325C" font-family="Arial,Arial_MSFontService,sans-serif" font-style="italic" font-weight="400" font-size="23" transform="translate(495.83 186)">D</text><text fill="#0C325C" font-family="Arial,Arial_MSFontService,sans-serif" font-weight="400" font-size="23" transform="translate(537.164 186)">0</text><text fill="#0C325C" font-family="Arial,Arial_MSFontService,sans-serif" font-weight="400" font-size="23" transform="translate(577.164 186)">0</text><rect x="587" y="188" width="44" height="9" fill="#EDEDED"/><text font-family="Arial,Arial_MSFontService,sans-serif" font-weight="400" font-size="23" transform="translate(83.4969 153)">Column</text><text font-family="Arial,Arial_MSFontService,sans-serif" font-style="italic" font-weight="400" font-size="23" transform="translate(174.33 153)">a b c d e f g h i j k</text><path d="M367 305.5C367 296.387 374.611 289 384 289 393.389 289 401 296.387 401 305.5 401 314.613 393.389 322 384 322 374.611 322 367 314.613 367 305.5Z" stroke="#CC0000" stroke-width="2" stroke-linejoin="round" stroke-miterlimit="10" fill="none" fill-rule="evenodd"/><path d="M188 261 376 261 376 264 188 264ZM189.5 267 180.5 262.5 189.5 258ZM374.5 258 383.5 262.5 374.5 267Z" fill="#CC0000"/><path d="M382.5 262.5 382.5 282.5" stroke="#CC0000" stroke-width="3" stroke-linejoin="round" stroke-miterlimit="10" stroke-dasharray="3 3" fill="none" fill-rule="evenodd"/><path d="M180.5 262.5 180.5 282.5" stroke="#CC0000" stroke-width="3" stroke-linejoin="round" stroke-miterlimit="10" stroke-dasharray="3 3" fill="none" fill-rule="evenodd"/><path d="M165 305.5C165 296.387 172.835 289 182.5 289 192.165 289 200 296.387 200 305.5 200 314.613 192.165 322 182.5 322 172.835 322 165 314.613 165 305.5Z" stroke="#CC0000" stroke-width="2" stroke-linejoin="round" stroke-miterlimit="10" fill="none" fill-rule="evenodd"/><text font-family="Arial,Arial_MSFontService,sans-serif" font-style="italic" font-weight="400" font-size="23" transform="translate(207.228 380)">S</text><text font-family="Arial,Arial_MSFontService,sans-serif" font-weight="400" font-size="23" transform="translate(222.395 380)">(</text><text font-family="Arial,Arial_MSFontService,sans-serif" font-style="italic" font-weight="400" font-size="23" transform="translate(229.895 380)">b</text><text font-family="Arial,Arial_MSFontService,sans-serif" font-weight="400" font-size="23" transform="translate(242.561 380)">)</text><path d="M202.5 241C202.5 195.989 211.454 159.5 222.5 159.5 233.546 159.5 242.5 195.989 242.5 241 242.5 286.011 233.546 322.5 222.5 322.5 211.454 322.5 202.5 286.011 202.5 241Z" stroke="#808080" stroke-width="3" stroke-linejoin="round" stroke-miterlimit="10" stroke-dasharray="3 3" fill="none" fill-rule="evenodd"/><text font-family="Arial,Arial_MSFontService,sans-serif" font-weight="400" font-size="23" transform="translate(258.061 381)">= {</text><text fill="#0C325C" font-family="Arial,Arial_MSFontService,sans-serif" font-style="italic" font-weight="400" font-size="23" transform="translate(285.061 381)">A</text><text font-family="Arial,Arial_MSFontService,sans-serif" font-weight="400" font-size="23" transform="translate(300.228 381)">,</text><text fill="#0C325C" font-family="Arial,Arial_MSFontService,sans-serif" font-style="italic" font-weight="400" font-size="23" transform="translate(312.895 381)">B</text><text font-family="Arial,Arial_MSFontService,sans-serif" font-weight="400" font-size="23" transform="translate(328.061 381)">,</text><text fill="#0C325C" font-family="Arial,Arial_MSFontService,sans-serif" font-style="italic" font-weight="400" font-size="23" transform="translate(340.728 381)">C</text><text font-family="Arial,Arial_MSFontService,sans-serif" font-weight="400" font-size="23" transform="translate(357.061 381)">}</text><path d="M224 330 224 353.5 221 353.5 221 330ZM218 331.5 222.5 322.5 227 331.5Z" fill="#808080"/><path d="M221.5 244 294 244 294 247 221.5 247ZM292.5 241 301.5 245.5 292.5 250Z" fill="#1860AB"/><path d="M0 0 1 38" stroke="#1860AB" stroke-width="3" stroke-linejoin="round" stroke-miterlimit="10" stroke-dasharray="3 3" fill="none" fill-rule="evenodd" transform="matrix(1 0 0 -1 219.5 283.5)"/><path d="M224.5 229 332 229 332 232 224.5 232ZM330.5 226 339.5 230.5 330.5 235Z" fill="#CC0066"/><path d="M0 0 1 39" stroke="#CC0066" stroke-width="3" stroke-linejoin="round" stroke-miterlimit="10" stroke-dasharray="3 3" fill="none" fill-rule="evenodd" transform="matrix(1 0 0 -1 221.5 230.5)"/></g></svg>