<svg width="820" height="280" xmlns="http://www.w3.org/2000/svg" xmlns:xlink="http://www.w3.org/1999/xlink" overflow="hidden"><defs><linearGradient x1="306" y1="350.5" x2="336" y2="350.5" gradientUnits="userSpaceOnUse" spreadMethod="reflect" id="fill0"><stop offset="0" stop-color="#EAEAEA"/><stop offset="0.00429185" stop-color="#E9E9E9"/><stop offset="0.00858369" stop-color="#E9E9E9"/><stop offset="0.0128755" stop-color="#E9E9E9"/><stop offset="0.0171674" stop-color="#E9E9E9"/><stop offset="0.0214592" stop-color="#E9E9E9"/><stop offset="0.0257511" stop-color="#E9E9E9"/><stop offset="0.0300429" stop-color="#E9E9E9"/><stop offset="0.0343348" stop-color="#E9E9E9"/><stop offset="0.0386266" stop-color="#E9E9E9"/><stop offset="0.0429185" stop-color="#E9E9E9"/><stop offset="0.0472103" stop-color="#E9E9E9"/><stop offset="0.0515021" stop-color="#E9E9E9"/><stop offset="0.055794" stop-color="#E8E8E8"/><stop offset="0.0600858" stop-color="#E8E8E8"/><stop offset="0.0643777" stop-color="#E8E8E8"/><stop offset="0.0686695" stop-color="#E8E8E8"/><stop offset="0.0729614" stop-color="#E8E8E8"/><stop offset="0.0772532" stop-color="#E8E8E8"/><stop offset="0.0815451" stop-color="#E7E7E7"/><stop offset="0.0858369" stop-color="#E7E7E7"/><stop offset="0.0901288" stop-color="#E7E7E7"/><stop offset="0.0944206" stop-color="#E7E7E7"/><stop offset="0.0987124" stop-color="#E6E6E6"/><stop offset="0.103004" stop-color="#E6E6E6"/><stop offset="0.107296" stop-color="#E6E6E6"/><stop offset="0.111588" stop-color="#E6E6E6"/><stop offset="0.11588" stop-color="#E5E5E5"/><stop offset="0.120172" stop-color="#E5E5E5"/><stop offset="0.124464" stop-color="#E5E5E5"/><stop offset="0.128755" stop-color="#E4E4E4"/><stop offset="0.133047" stop-color="#E4E4E4"/><stop offset="0.137339" stop-color="#E4E4E4"/><stop offset="0.141631" stop-color="#E4E4E4"/><stop offset="0.145923" stop-color="#E3E3E3"/><stop offset="0.150215" stop-color="#E3E3E3"/><stop offset="0.154506" stop-color="#E2E2E2"/><stop offset="0.158798" stop-color="#E2E2E2"/><stop offset="0.16309" stop-color="#E2E2E2"/><stop offset="0.167382" stop-color="#E1E1E1"/><stop offset="0.171674" stop-color="#E1E1E1"/><stop offset="0.175966" stop-color="#E0E0E0"/><stop offset="0.180258" stop-color="#E0E0E0"/><stop offset="0.184549" stop-color="#E0E0E0"/><stop offset="0.188841" stop-color="#DFDFDF"/><stop offset="0.193133" stop-color="#DFDFDF"/><stop offset="0.197425" stop-color="#DEDEDE"/><stop offset="0.201717" stop-color="#DEDEDE"/><stop offset="0.206009" stop-color="#DDDDDD"/><stop offset="0.2103" stop-color="#DDDDDD"/><stop offset="0.214592" stop-color="#DCDCDC"/><stop offset="0.218884" stop-color="#DCDCDC"/><stop offset="0.223176" stop-color="#DBDBDB"/><stop offset="0.227468" stop-color="#DBDBDB"/><stop offset="0.23176" stop-color="#DADADA"/><stop offset="0.236051" stop-color="#DADADA"/><stop offset="0.240343" stop-color="#D9D9D9"/><stop offset="0.244635" stop-color="#D9D9D9"/><stop offset="0.248927" stop-color="#D8D8D8"/><stop offset="0.253219" stop-color="#D8D8D8"/><stop offset="0.257511" stop-color="#D7D7D7"/><stop offset="0.261803" stop-color="#D7D7D7"/><stop offset="0.266094" stop-color="#D6D6D6"/><stop offset="0.270386" stop-color="#D5D5D5"/><stop offset="0.274678" stop-color="#D5D5D5"/><stop offset="0.27897" stop-color="#D4D4D4"/><stop offset="0.283262" stop-color="#D4D4D4"/><stop offset="0.287554" stop-color="#D3D3D3"/><stop offset="0.291846" stop-color="#D2D2D2"/><stop offset="0.296137" stop-color="#D2D2D2"/><stop offset="0.300429" stop-color="#D1D1D1"/><stop offset="0.304721" stop-color="#D0D0D0"/><stop offset="0.309013" stop-color="#D0D0D0"/><stop offset="0.313305" stop-color="#CFCFCF"/><stop offset="0.317597" stop-color="#CECECE"/><stop offset="0.321888" stop-color="#CECECE"/><stop offset="0.32618" stop-color="#CDCDCD"/><stop offset="0.330472" stop-color="#CCCCCC"/><stop offset="0.334764" stop-color="#CBCBCB"/><stop offset="0.339056" stop-color="#CBCBCB"/><stop offset="0.343348" stop-color="#CACACA"/><stop offset="0.347639" stop-color="#C9C9C9"/><stop offset="0.351931" stop-color="#C8C8C8"/><stop offset="0.356223" stop-color="#C8C8C8"/><stop offset="0.360515" stop-color="#C7C7C7"/><stop offset="0.364807" stop-color="#C6C6C6"/><stop offset="0.369099" stop-color="#C5C5C5"/><stop offset="0.373391" stop-color="#C5C5C5"/><stop offset="0.377682" stop-color="#C4C4C4"/><stop offset="0.381974" stop-color="#C3C3C3"/><stop offset="0.386266" stop-color="#C2C2C2"/><stop offset="0.390558" stop-color="#C1C1C1"/><stop offset="0.39485" stop-color="#C1C1C1"/><stop offset="0.399142" stop-color="#C0C0C0"/><stop offset="0.403433" stop-color="#BFBFBF"/><stop offset="0.407725" stop-color="#BEBEBE"/><stop offset="0.412017" stop-color="#BDBDBD"/><stop offset="0.416309" stop-color="#BCBCBC"/><stop offset="0.420601" stop-color="#BBBBBB"/><stop offset="0.424893" stop-color="#BABABA"/><stop offset="0.429185" stop-color="#BABABA"/><stop offset="0.433476" stop-color="#B9B9B9"/><stop offset="0.437768" stop-color="#B8B8B8"/><stop offset="0.44206" stop-color="#B7B7B7"/><stop offset="0.446352" stop-color="#B6B6B6"/><stop offset="0.450644" stop-color="#B5B5B5"/><stop offset="0.454936" stop-color="#B4B4B4"/><stop offset="0.459227" stop-color="#B3B3B3"/><stop offset="0.463519" stop-color="#B2B2B2"/><stop offset="0.467811" stop-color="#B1B1B1"/><stop offset="0.472103" stop-color="#B0B0B0"/><stop offset="0.476395" stop-color="#AFAFAF"/><stop offset="0.480687" stop-color="#AEAEAE"/><stop offset="0.484979" stop-color="#ADADAD"/><stop offset="0.48927" stop-color="#ACACAC"/><stop offset="0.493562" stop-color="#ABABAB"/><stop offset="0.497854" stop-color="#AAAAAA"/><stop offset="0.502146" stop-color="#A9A9A9"/><stop offset="0.506438" stop-color="#A8A8A8"/><stop offset="0.51073" stop-color="#A7A7A7"/><stop offset="0.515021" stop-color="#A6A6A6"/><stop offset="0.519313" stop-color="#A5A5A5"/><stop offset="0.523605" stop-color="#A4A4A4"/><stop offset="0.527897" stop-color="#A3A3A3"/><stop offset="0.532189" stop-color="#A2A2A2"/><stop offset="0.536481" stop-color="#A1A1A1"/><stop offset="0.540773" stop-color="#A0A0A0"/><stop offset="0.545064" stop-color="#9F9F9F"/><stop offset="0.549356" stop-color="#9D9D9D"/><stop offset="0.553648" stop-color="#9C9C9C"/><stop offset="0.55794" stop-color="#9B9B9B"/><stop offset="0.562232" stop-color="#9A9A9A"/><stop offset="0.566524" stop-color="#999999"/><stop offset="0.570815" stop-color="#989898"/><stop offset="0.575107" stop-color="#979797"/><stop offset="0.579399" stop-color="#959595"/><stop offset="0.583691" stop-color="#949494"/><stop offset="0.587983" stop-color="#939393"/><stop offset="0.592275" stop-color="#929292"/><stop offset="0.596566" stop-color="#919191"/><stop offset="0.600858" stop-color="#8F8F8F"/><stop offset="0.60515" stop-color="#8E8E8E"/><stop offset="0.609442" stop-color="#8D8D8D"/><stop offset="0.613734" stop-color="#8C8C8C"/><stop offset="0.618026" stop-color="#8B8B8B"/><stop offset="0.622318" stop-color="#898989"/><stop offset="0.626609" stop-color="#888888"/><stop offset="0.630901" stop-color="#878787"/><stop offset="0.635193" stop-color="#868686"/><stop offset="0.639485" stop-color="#848484"/><stop offset="0.643777" stop-color="#838383"/><stop offset="0.648069" stop-color="#828282"/><stop offset="0.65236" stop-color="#808080"/><stop offset="0.656652" stop-color="#7F7F7F"/><stop offset="0.660944" stop-color="#7E7E7E"/><stop offset="0.665236" stop-color="#7D7D7D"/><stop offset="0.669528" stop-color="#7B7B7B"/><stop offset="0.67382" stop-color="#7A7A7A"/><stop offset="0.678112" stop-color="#797979"/><stop offset="0.682403" stop-color="#777777"/><stop offset="0.686695" stop-color="#767676"/><stop offset="0.690987" stop-color="#747474"/><stop offset="0.695279" stop-color="#737373"/><stop offset="0.699571" stop-color="#727272"/><stop offset="0.703863" stop-color="#707070"/><stop offset="0.708154" stop-color="#6F6F6F"/><stop offset="0.712446" stop-color="#6E6E6E"/><stop offset="0.716738" stop-color="#6C6C6C"/><stop offset="0.72103" stop-color="#6B6B6B"/><stop offset="0.725322" stop-color="#696969"/><stop offset="0.729614" stop-color="#686868"/><stop offset="0.733906" stop-color="#666666"/><stop offset="0.738197" stop-color="#656565"/><stop offset="0.742489" stop-color="#646464"/><stop offset="0.746781" stop-color="#626262"/><stop offset="0.751073" stop-color="#616161"/><stop offset="0.755365" stop-color="#5F5F5F"/><stop offset="0.759657" stop-color="#5E5E5E"/><stop offset="0.763949" stop-color="#5C5C5C"/><stop offset="0.76824" stop-color="#5B5B5B"/><stop offset="0.772532" stop-color="#595959"/><stop offset="0.776824" stop-color="#585858"/><stop offset="0.781116" stop-color="#565656"/><stop offset="0.785408" stop-color="#555555"/><stop offset="0.7897" stop-color="#535353"/><stop offset="0.793991" stop-color="#525252"/><stop offset="0.798283" stop-color="#505050"/><stop offset="0.802575" stop-color="#4F4F4F"/><stop offset="0.806867" stop-color="#4D4D4D"/><stop offset="0.811159" stop-color="#4B4B4B"/><stop offset="0.815451" stop-color="#4A4A4A"/><stop offset="0.819743" stop-color="#484848"/><stop offset="0.824034" stop-color="#474747"/><stop offset="0.828326" stop-color="#454545"/><stop offset="0.832618" stop-color="#444444"/><stop offset="0.83691" stop-color="#424242"/><stop offset="0.841202" stop-color="#404040"/><stop offset="0.845494" stop-color="#3F3F3F"/><stop offset="0.849785" stop-color="#3D3D3D"/><stop offset="0.854077" stop-color="#3B3B3B"/><stop offset="0.858369" stop-color="#3A3A3A"/><stop offset="0.862661" stop-color="#383838"/><stop offset="0.866953" stop-color="#363636"/><stop offset="0.871245" stop-color="#353535"/><stop offset="0.875537" stop-color="#333333"/><stop offset="0.879828" stop-color="#313131"/><stop offset="0.88412" stop-color="#303030"/><stop offset="0.888412" stop-color="#2E2E2E"/><stop offset="0.892704" stop-color="#2C2C2C"/><stop offset="0.896996" stop-color="#2B2B2B"/><stop offset="0.901288" stop-color="#292929"/><stop offset="0.905579" stop-color="#272727"/><stop offset="0.909871" stop-color="#252525"/><stop offset="0.914163" stop-color="#242424"/><stop offset="0.918455" stop-color="#222222"/><stop offset="0.922747" stop-color="#202020"/><stop offset="0.927039" stop-color="#1E1E1E"/><stop offset="0.93133" stop-color="#1D1D1D"/><stop offset="0.935622" stop-color="#1B1B1B"/><stop offset="0.939914" stop-color="#191919"/><stop offset="0.944206" stop-color="#171717"/><stop offset="0.948498" stop-color="#161616"/><stop offset="0.95279" stop-color="#141414"/><stop offset="0.957082" stop-color="#121212"/><stop offset="0.961373" stop-color="#101010"/><stop offset="0.965665" stop-color="#0E0E0E"/><stop offset="0.969957" stop-color="#0D0D0D"/><stop offset="0.974249" stop-color="#0B0B0B"/><stop offset="0.978541" stop-color="#090909"/><stop offset="0.982833" stop-color="#070707"/><stop offset="0.987124" stop-color="#050505"/><stop offset="0.991416" stop-color="#030303"/><stop offset="0.995708" stop-color="#010101"/><stop offset="1"/></linearGradient><linearGradient x1="593" y1="350.5" x2="623" y2="350.5" gradientUnits="userSpaceOnUse" spreadMethod="reflect" id="fill1"><stop offset="0" stop-color="#EAEAEA"/><stop offset="0.00429185" stop-color="#E9E9E9"/><stop offset="0.00858369" stop-color="#E9E9E9"/><stop offset="0.0128755" stop-color="#E9E9E9"/><stop offset="0.0171674" stop-color="#E9E9E9"/><stop offset="0.0214592" stop-color="#E9E9E9"/><stop offset="0.0257511" stop-color="#E9E9E9"/><stop offset="0.0300429" stop-color="#E9E9E9"/><stop offset="0.0343348" stop-color="#E9E9E9"/><stop offset="0.0386266" stop-color="#E9E9E9"/><stop offset="0.0429185" stop-color="#E9E9E9"/><stop offset="0.0472103" stop-color="#E9E9E9"/><stop offset="0.0515021" stop-color="#E9E9E9"/><stop offset="0.055794" stop-color="#E8E8E8"/><stop offset="0.0600858" stop-color="#E8E8E8"/><stop offset="0.0643777" stop-color="#E8E8E8"/><stop offset="0.0686695" stop-color="#E8E8E8"/><stop offset="0.0729614" stop-color="#E8E8E8"/><stop offset="0.0772532" stop-color="#E8E8E8"/><stop offset="0.0815451" stop-color="#E7E7E7"/><stop offset="0.0858369" stop-color="#E7E7E7"/><stop offset="0.0901288" stop-color="#E7E7E7"/><stop offset="0.0944206" stop-color="#E7E7E7"/><stop offset="0.0987124" stop-color="#E6E6E6"/><stop offset="0.103004" stop-color="#E6E6E6"/><stop offset="0.107296" stop-color="#E6E6E6"/><stop offset="0.111588" stop-color="#E6E6E6"/><stop offset="0.11588" stop-color="#E5E5E5"/><stop offset="0.120172" stop-color="#E5E5E5"/><stop offset="0.124464" stop-color="#E5E5E5"/><stop offset="0.128755" stop-color="#E4E4E4"/><stop offset="0.133047" stop-color="#E4E4E4"/><stop offset="0.137339" stop-color="#E4E4E4"/><stop offset="0.141631" stop-color="#E4E4E4"/><stop offset="0.145923" stop-color="#E3E3E3"/><stop offset="0.150215" stop-color="#E3E3E3"/><stop offset="0.154506" stop-color="#E2E2E2"/><stop offset="0.158798" stop-color="#E2E2E2"/><stop offset="0.16309" stop-color="#E2E2E2"/><stop offset="0.167382" stop-color="#E1E1E1"/><stop offset="0.171674" stop-color="#E1E1E1"/><stop offset="0.175966" stop-color="#E0E0E0"/><stop offset="0.180258" stop-color="#E0E0E0"/><stop offset="0.184549" stop-color="#E0E0E0"/><stop offset="0.188841" stop-color="#DFDFDF"/><stop offset="0.193133" stop-color="#DFDFDF"/><stop offset="0.197425" stop-color="#DEDEDE"/><stop offset="0.201717" stop-color="#DEDEDE"/><stop offset="0.206009" stop-color="#DDDDDD"/><stop offset="0.2103" stop-color="#DDDDDD"/><stop offset="0.214592" stop-color="#DCDCDC"/><stop offset="0.218884" stop-color="#DCDCDC"/><stop offset="0.223176" stop-color="#DBDBDB"/><stop offset="0.227468" stop-color="#DBDBDB"/><stop offset="0.23176" stop-color="#DADADA"/><stop offset="0.236051" stop-color="#DADADA"/><stop offset="0.240343" stop-color="#D9D9D9"/><stop offset="0.244635" stop-color="#D9D9D9"/><stop offset="0.248927" stop-color="#D8D8D8"/><stop offset="0.253219" stop-color="#D8D8D8"/><stop offset="0.257511" stop-color="#D7D7D7"/><stop offset="0.261803" stop-color="#D7D7D7"/><stop offset="0.266094" stop-color="#D6D6D6"/><stop offset="0.270386" stop-color="#D5D5D5"/><stop offset="0.274678" stop-color="#D5D5D5"/><stop offset="0.27897" stop-color="#D4D4D4"/><stop offset="0.283262" stop-color="#D4D4D4"/><stop offset="0.287554" stop-color="#D3D3D3"/><stop offset="0.291846" stop-color="#D2D2D2"/><stop offset="0.296137" stop-color="#D2D2D2"/><stop offset="0.300429" stop-color="#D1D1D1"/><stop offset="0.304721" stop-color="#D0D0D0"/><stop offset="0.309013" stop-color="#D0D0D0"/><stop offset="0.313305" stop-color="#CFCFCF"/><stop offset="0.317597" stop-color="#CECECE"/><stop offset="0.321888" stop-color="#CECECE"/><stop offset="0.32618" stop-color="#CDCDCD"/><stop offset="0.330472" stop-color="#CCCCCC"/><stop offset="0.334764" stop-color="#CBCBCB"/><stop offset="0.339056" stop-color="#CBCBCB"/><stop offset="0.343348" stop-color="#CACACA"/><stop offset="0.347639" stop-color="#C9C9C9"/><stop offset="0.351931" stop-color="#C8C8C8"/><stop offset="0.356223" stop-color="#C8C8C8"/><stop offset="0.360515" stop-color="#C7C7C7"/><stop offset="0.364807" stop-color="#C6C6C6"/><stop offset="0.369099" stop-color="#C5C5C5"/><stop offset="0.373391" stop-color="#C5C5C5"/><stop offset="0.377682" stop-color="#C4C4C4"/><stop offset="0.381974" stop-color="#C3C3C3"/><stop offset="0.386266" stop-color="#C2C2C2"/><stop offset="0.390558" stop-color="#C1C1C1"/><stop offset="0.39485" stop-color="#C1C1C1"/><stop offset="0.399142" stop-color="#C0C0C0"/><stop offset="0.403433" stop-color="#BFBFBF"/><stop offset="0.407725" stop-color="#BEBEBE"/><stop offset="0.412017" stop-color="#BDBDBD"/><stop offset="0.416309" stop-color="#BCBCBC"/><stop offset="0.420601" stop-color="#BBBBBB"/><stop offset="0.424893" stop-color="#BABABA"/><stop offset="0.429185" stop-color="#BABABA"/><stop offset="0.433476" stop-color="#B9B9B9"/><stop offset="0.437768" stop-color="#B8B8B8"/><stop offset="0.44206" stop-color="#B7B7B7"/><stop offset="0.446352" stop-color="#B6B6B6"/><stop offset="0.450644" stop-color="#B5B5B5"/><stop offset="0.454936" stop-color="#B4B4B4"/><stop offset="0.459227" stop-color="#B3B3B3"/><stop offset="0.463519" stop-color="#B2B2B2"/><stop offset="0.467811" stop-color="#B1B1B1"/><stop offset="0.472103" stop-color="#B0B0B0"/><stop offset="0.476395" stop-color="#AFAFAF"/><stop offset="0.480687" stop-color="#AEAEAE"/><stop offset="0.484979" stop-color="#ADADAD"/><stop offset="0.48927" stop-color="#ACACAC"/><stop offset="0.493562" stop-color="#ABABAB"/><stop offset="0.497854" stop-color="#AAAAAA"/><stop offset="0.502146" stop-color="#A9A9A9"/><stop offset="0.506438" stop-color="#A8A8A8"/><stop offset="0.51073" stop-color="#A7A7A7"/><stop offset="0.515021" stop-color="#A6A6A6"/><stop offset="0.519313" stop-color="#A5A5A5"/><stop offset="0.523605" stop-color="#A4A4A4"/><stop offset="0.527897" stop-color="#A3A3A3"/><stop offset="0.532189" stop-color="#A2A2A2"/><stop offset="0.536481" stop-color="#A1A1A1"/><stop offset="0.540773" stop-color="#A0A0A0"/><stop offset="0.545064" stop-color="#9F9F9F"/><stop offset="0.549356" stop-color="#9D9D9D"/><stop offset="0.553648" stop-color="#9C9C9C"/><stop offset="0.55794" stop-color="#9B9B9B"/><stop offset="0.562232" stop-color="#9A9A9A"/><stop offset="0.566524" stop-color="#999999"/><stop offset="0.570815" stop-color="#989898"/><stop offset="0.575107" stop-color="#979797"/><stop offset="0.579399" stop-color="#959595"/><stop offset="0.583691" stop-color="#949494"/><stop offset="0.587983" stop-color="#939393"/><stop offset="0.592275" stop-color="#929292"/><stop offset="0.596566" stop-color="#919191"/><stop offset="0.600858" stop-color="#8F8F8F"/><stop offset="0.60515" stop-color="#8E8E8E"/><stop offset="0.609442" stop-color="#8D8D8D"/><stop offset="0.613734" stop-color="#8C8C8C"/><stop offset="0.618026" stop-color="#8B8B8B"/><stop offset="0.622318" stop-color="#898989"/><stop offset="0.626609" stop-color="#888888"/><stop offset="0.630901" stop-color="#878787"/><stop offset="0.635193" stop-color="#868686"/><stop offset="0.639485" stop-color="#848484"/><stop offset="0.643777" stop-color="#838383"/><stop offset="0.648069" stop-color="#828282"/><stop offset="0.65236" stop-color="#808080"/><stop offset="0.656652" stop-color="#7F7F7F"/><stop offset="0.660944" stop-color="#7E7E7E"/><stop offset="0.665236" stop-color="#7D7D7D"/><stop offset="0.669528" stop-color="#7B7B7B"/><stop offset="0.67382" stop-color="#7A7A7A"/><stop offset="0.678112" stop-color="#797979"/><stop offset="0.682403" stop-color="#777777"/><stop offset="0.686695" stop-color="#767676"/><stop offset="0.690987" stop-color="#747474"/><stop offset="0.695279" stop-color="#737373"/><stop offset="0.699571" stop-color="#727272"/><stop offset="0.703863" stop-color="#707070"/><stop offset="0.708154" stop-color="#6F6F6F"/><stop offset="0.712446" stop-color="#6E6E6E"/><stop offset="0.716738" stop-color="#6C6C6C"/><stop offset="0.72103" stop-color="#6B6B6B"/><stop offset="0.725322" stop-color="#696969"/><stop offset="0.729614" stop-color="#686868"/><stop offset="0.733906" stop-color="#666666"/><stop offset="0.738197" stop-color="#656565"/><stop offset="0.742489" stop-color="#646464"/><stop offset="0.746781" stop-color="#626262"/><stop offset="0.751073" stop-color="#616161"/><stop offset="0.755365" stop-color="#5F5F5F"/><stop offset="0.759657" stop-color="#5E5E5E"/><stop offset="0.763949" stop-color="#5C5C5C"/><stop offset="0.76824" stop-color="#5B5B5B"/><stop offset="0.772532" stop-color="#595959"/><stop offset="0.776824" stop-color="#585858"/><stop offset="0.781116" stop-color="#565656"/><stop offset="0.785408" stop-color="#555555"/><stop offset="0.7897" stop-color="#535353"/><stop offset="0.793991" stop-color="#525252"/><stop offset="0.798283" stop-color="#505050"/><stop offset="0.802575" stop-color="#4F4F4F"/><stop offset="0.806867" stop-color="#4D4D4D"/><stop offset="0.811159" stop-color="#4B4B4B"/><stop offset="0.815451" stop-color="#4A4A4A"/><stop offset="0.819743" stop-color="#484848"/><stop offset="0.824034" stop-color="#474747"/><stop offset="0.828326" stop-color="#454545"/><stop offset="0.832618" stop-color="#444444"/><stop offset="0.83691" stop-color="#424242"/><stop offset="0.841202" stop-color="#404040"/><stop offset="0.845494" stop-color="#3F3F3F"/><stop offset="0.849785" stop-color="#3D3D3D"/><stop offset="0.854077" stop-color="#3B3B3B"/><stop offset="0.858369" stop-color="#3A3A3A"/><stop offset="0.862661" stop-color="#383838"/><stop offset="0.866953" stop-color="#363636"/><stop offset="0.871245" stop-color="#353535"/><stop offset="0.875537" stop-color="#333333"/><stop offset="0.879828" stop-color="#313131"/><stop offset="0.88412" stop-color="#303030"/><stop offset="0.888412" stop-color="#2E2E2E"/><stop offset="0.892704" stop-color="#2C2C2C"/><stop offset="0.896996" stop-color="#2B2B2B"/><stop offset="0.901288" stop-color="#292929"/><stop offset="0.905579" stop-color="#272727"/><stop offset="0.909871" stop-color="#252525"/><stop offset="0.914163" stop-color="#242424"/><stop offset="0.918455" stop-color="#222222"/><stop offset="0.922747" stop-color="#202020"/><stop offset="0.927039" stop-color="#1E1E1E"/><stop offset="0.93133" stop-color="#1D1D1D"/><stop offset="0.935622" stop-color="#1B1B1B"/><stop offset="0.939914" stop-color="#191919"/><stop offset="0.944206" stop-color="#171717"/><stop offset="0.948498" stop-color="#161616"/><stop offset="0.95279" stop-color="#141414"/><stop offset="0.957082" stop-color="#121212"/><stop offset="0.961373" stop-color="#101010"/><stop offset="0.965665" stop-color="#0E0E0E"/><stop offset="0.969957" stop-color="#0D0D0D"/><stop offset="0.974249" stop-color="#0B0B0B"/><stop offset="0.978541" stop-color="#090909"/><stop offset="0.982833" stop-color="#070707"/><stop offset="0.987124" stop-color="#050505"/><stop offset="0.991416" stop-color="#030303"/><stop offset="0.995708" stop-color="#010101"/><stop offset="1"/></linearGradient></defs><g transform="translate(-63 -162)"><path d="M86.5001 347C86.5001 294.806 128.806 252.5 181 252.5 233.194 252.5 275.5 294.806 275.5 347 275.5 399.194 233.194 441.5 181 441.5 128.806 441.5 86.5001 399.194 86.5001 347ZM152.554 347C152.554 362.706 165.294 375.446 181 375.446 196.706 375.446 209.446 362.706 209.446 347 209.446 331.294 196.706 318.554 181 318.554 165.294 318.554 152.554 331.294 152.554 347Z" stroke="#000000" stroke-linejoin="round" stroke-miterlimit="10" stroke-dasharray="4 3" fill="none" fill-rule="evenodd"/><path d="M195.5 326.5C195.5 323.186 198.186 320.5 201.5 320.5 204.814 320.5 207.5 323.186 207.5 326.5 207.5 329.814 204.814 332.5 201.5 332.5 198.186 332.5 195.5 329.814 195.5 326.5Z" stroke="#000000" stroke-linejoin="round" stroke-miterlimit="10" fill-rule="evenodd"/><path d="M203.5 346C203.5 342.41 206.186 339.5 209.5 339.5 212.814 339.5 215.5 342.41 215.5 346 215.5 349.59 212.814 352.5 209.5 352.5 206.186 352.5 203.5 349.59 203.5 346Z" stroke="#000000" stroke-linejoin="round" stroke-miterlimit="10" fill-rule="evenodd"/><path d="M195.5 365.5C195.5 362.186 198.186 359.5 201.5 359.5 204.814 359.5 207.5 362.186 207.5 365.5 207.5 368.814 204.814 371.5 201.5 371.5 198.186 371.5 195.5 368.814 195.5 365.5Z" stroke="#000000" stroke-linejoin="round" stroke-miterlimit="10" fill-rule="evenodd"/><path d="M154.5 326.5C154.5 323.186 157.186 320.5 160.5 320.5 163.814 320.5 166.5 323.186 166.5 326.5 166.5 329.814 163.814 332.5 160.5 332.5 157.186 332.5 154.5 329.814 154.5 326.5Z" stroke="#000000" stroke-linejoin="round" stroke-miterlimit="10" fill-rule="evenodd"/><path d="M146.5 346C146.5 342.41 149.186 339.5 152.5 339.5 155.814 339.5 158.5 342.41 158.5 346 158.5 349.59 155.814 352.5 152.5 352.5 149.186 352.5 146.5 349.59 146.5 346Z" stroke="#000000" stroke-linejoin="round" stroke-miterlimit="10" fill-rule="evenodd"/><path d="M154.5 365.5C154.5 362.186 157.186 359.5 160.5 359.5 163.814 359.5 166.5 362.186 166.5 365.5 166.5 368.814 163.814 371.5 160.5 371.5 157.186 371.5 154.5 368.814 154.5 365.5Z" stroke="#000000" stroke-linejoin="round" stroke-miterlimit="10" fill-rule="evenodd"/><path d="M271.5 346C271.5 342.41 274.186 339.5 277.5 339.5 280.814 339.5 283.5 342.41 283.5 346 283.5 349.59 280.814 352.5 277.5 352.5 274.186 352.5 271.5 349.59 271.5 346Z" stroke="#000000" stroke-linejoin="round" stroke-miterlimit="10" fill-rule="evenodd"/><path d="M198.5 256.5C198.5 253.186 201.186 250.5 204.5 250.5 207.814 250.5 210.5 253.186 210.5 256.5 210.5 259.814 207.814 262.5 204.5 262.5 201.186 262.5 198.5 259.814 198.5 256.5Z" stroke="#000000" stroke-linejoin="round" stroke-miterlimit="10" fill-rule="evenodd"/><path d="M259.5 391C259.5 387.41 262.186 384.5 265.5 384.5 268.814 384.5 271.5 387.41 271.5 391 271.5 394.59 268.814 397.5 265.5 397.5 262.186 397.5 259.5 394.59 259.5 391Z" stroke="#000000" stroke-linejoin="round" stroke-miterlimit="10" fill-rule="evenodd"/><path d="M112.5 418.5C112.5 415.186 115.186 412.5 118.5 412.5 121.814 412.5 124.5 415.186 124.5 418.5 124.5 421.814 121.814 424.5 118.5 424.5 115.186 424.5 112.5 421.814 112.5 418.5Z" stroke="#000000" stroke-linejoin="round" stroke-miterlimit="10" fill-rule="evenodd"/><path d="M93.5001 392.5C93.5001 389.186 96.1863 386.5 99.5001 386.5 102.814 386.5 105.5 389.186 105.5 392.5 105.5 395.814 102.814 398.5 99.5001 398.5 96.1863 398.5 93.5001 395.814 93.5001 392.5Z" stroke="#000000" stroke-linejoin="round" stroke-miterlimit="10" fill-rule="evenodd"/><path d="M86.5001 315C86.5001 311.41 89.1863 308.5 92.5001 308.5 95.8138 308.5 98.5001 311.41 98.5001 315 98.5001 318.59 95.8138 321.5 92.5001 321.5 89.1863 321.5 86.5001 318.59 86.5001 315Z" stroke="#000000" stroke-linejoin="round" stroke-miterlimit="10" fill-rule="evenodd"/><path d="M0 0C12.5 0 25 27.0833 25 54.1666" stroke="#000000" stroke-linejoin="round" stroke-miterlimit="10" fill="none" fill-rule="evenodd" transform="matrix(1.83697e-16 1 1 -1.83697e-16 92.5001 321.5)"/><path d="M366.5 344C366.5 291.806 408.806 249.5 461 249.5 513.194 249.5 555.5 291.806 555.5 344 555.5 396.194 513.194 438.5 461 438.5 408.806 438.5 366.5 396.194 366.5 344ZM432.554 344C432.554 359.706 445.294 372.446 461 372.446 476.706 372.446 489.446 359.706 489.446 344 489.446 328.294 476.706 315.554 461 315.554 445.294 315.554 432.554 328.294 432.554 344Z" stroke="#000000" stroke-linejoin="round" stroke-miterlimit="10" stroke-dasharray="4 3" fill="none" fill-rule="evenodd"/><path d="M476.5 323.5C476.5 320.186 479.186 317.5 482.5 317.5 485.814 317.5 488.5 320.186 488.5 323.5 488.5 326.814 485.814 329.5 482.5 329.5 479.186 329.5 476.5 326.814 476.5 323.5Z" stroke="#000000" stroke-linejoin="round" stroke-miterlimit="10" fill-rule="evenodd"/><path d="M483.5 342.5C483.5 339.186 486.186 336.5 489.5 336.5 492.814 336.5 495.5 339.186 495.5 342.5 495.5 345.814 492.814 348.5 489.5 348.5 486.186 348.5 483.5 345.814 483.5 342.5Z" stroke="#000000" stroke-linejoin="round" stroke-miterlimit="10" fill-rule="evenodd"/><path d="M476.5 362.5C476.5 359.186 479.186 356.5 482.5 356.5 485.814 356.5 488.5 359.186 488.5 362.5 488.5 365.814 485.814 368.5 482.5 368.5 479.186 368.5 476.5 365.814 476.5 362.5Z" stroke="#000000" stroke-linejoin="round" stroke-miterlimit="10" fill-rule="evenodd"/><path d="M434.5 323.5C434.5 320.186 437.186 317.5 440.5 317.5 443.814 317.5 446.5 320.186 446.5 323.5 446.5 326.814 443.814 329.5 440.5 329.5 437.186 329.5 434.5 326.814 434.5 323.5Z" stroke="#000000" stroke-linejoin="round" stroke-miterlimit="10" fill-rule="evenodd"/><path d="M426.5 342.5C426.5 339.186 429.41 336.5 433 336.5 436.59 336.5 439.5 339.186 439.5 342.5 439.5 345.814 436.59 348.5 433 348.5 429.41 348.5 426.5 345.814 426.5 342.5Z" stroke="#000000" stroke-linejoin="round" stroke-miterlimit="10" fill-rule="evenodd"/><path d="M434.5 362.5C434.5 359.186 437.186 356.5 440.5 356.5 443.814 356.5 446.5 359.186 446.5 362.5 446.5 365.814 443.814 368.5 440.5 368.5 437.186 368.5 434.5 365.814 434.5 362.5Z" stroke="#000000" stroke-linejoin="round" stroke-miterlimit="10" fill-rule="evenodd"/><path d="M551.5 342.5C551.5 339.186 554.186 336.5 557.5 336.5 560.814 336.5 563.5 339.186 563.5 342.5 563.5 345.814 560.814 348.5 557.5 348.5 554.186 348.5 551.5 345.814 551.5 342.5Z" stroke="#000000" stroke-linejoin="round" stroke-miterlimit="10" fill-rule="evenodd"/><path d="M485.5 256C485.5 252.41 488.186 249.5 491.5 249.5 494.814 249.5 497.5 252.41 497.5 256 497.5 259.59 494.814 262.5 491.5 262.5 488.186 262.5 485.5 259.59 485.5 256Z" stroke="#000000" stroke-linejoin="round" stroke-miterlimit="10" fill-rule="evenodd"/><path d="M539.5 387.5C539.5 384.186 542.41 381.5 546 381.5 549.59 381.5 552.5 384.186 552.5 387.5 552.5 390.814 549.59 393.5 546 393.5 542.41 393.5 539.5 390.814 539.5 387.5Z" stroke="#000000" stroke-linejoin="round" stroke-miterlimit="10" fill-rule="evenodd"/><path d="M392.5 415C392.5 411.41 395.186 408.5 398.5 408.5 401.814 408.5 404.5 411.41 404.5 415 404.5 418.59 401.814 421.5 398.5 421.5 395.186 421.5 392.5 418.59 392.5 415Z" stroke="#000000" stroke-linejoin="round" stroke-miterlimit="10" fill-rule="evenodd"/><path d="M374.5 389.5C374.5 386.186 377.186 383.5 380.5 383.5 383.814 383.5 386.5 386.186 386.5 389.5 386.5 392.814 383.814 395.5 380.5 395.5 377.186 395.5 374.5 392.814 374.5 389.5Z" stroke="#000000" stroke-linejoin="round" stroke-miterlimit="10" fill-rule="evenodd"/><path d="M366.5 311.5C366.5 308.186 369.186 305.5 372.5 305.5 375.814 305.5 378.5 308.186 378.5 311.5 378.5 314.814 375.814 317.5 372.5 317.5 369.186 317.5 366.5 314.814 366.5 311.5Z" stroke="#000000" stroke-linejoin="round" stroke-miterlimit="10" fill-rule="evenodd"/><path d="M0 0C38.6667 0 77.3333 23.3334 77.3333 46.6667" stroke="#000000" stroke-linejoin="round" stroke-miterlimit="10" fill="none" fill-rule="evenodd" transform="matrix(1 0 0 -1 404.5 415.167)"/><path d="M384.5 385.333C384.5 380.667 397.5 376 410.5 376 423.5 376 436.5 371.25 436.5 366.5" stroke="#000000" stroke-linejoin="round" stroke-miterlimit="10" fill="none" fill-rule="evenodd"/><path d="M0 0C12.5 0 25 27.0833 25 54.1666" stroke="#000000" stroke-linejoin="round" stroke-miterlimit="10" fill="none" fill-rule="evenodd" transform="matrix(1.83697e-16 1 1 -1.83697e-16 372.5 317.5)"/><path d="M444.5 319.167C444.5 304.5 455.125 289.833 465.75 289.833 476.375 289.833 487 275.167 487 260.5" stroke="#000000" stroke-linejoin="round" stroke-miterlimit="10" fill="none" fill-rule="evenodd"/><path d="M0 0C4.08329 0 8.16658 9.41644 8.16658 18.8329 8.16658 28.2493 10.2916 37.6657 12.4167 37.6657 14.5418 37.6657 16.6668 46.041 16.6668 54.4162 16.6668 62.7915 23.3334 71.1667 30 71.1667" stroke="#000000" stroke-linejoin="round" stroke-miterlimit="10" fill="none" fill-rule="evenodd" transform="matrix(6.12323e-17 1 1 -6.12323e-17 482.5 316.5)"/><path d="M0 0C8.1668 0 16.3335 13 16.3335 26 16.3335 39 25.5001 52 34.6667 52" stroke="#000000" stroke-linejoin="round" stroke-miterlimit="10" fill="none" fill-rule="evenodd" transform="matrix(1.83697e-16 1 1 -1.83697e-16 489.5 348.5)"/><path d="M366.367 267.4 373.662 257.693 377.624 253.117 381.929 248.881 386.737 244.878 391.97 241.076 397.375 237.699 402.697 234.977 407.897 233.048C407.904 233.045 407.912 233.043 407.919 233.041L411.617 232.244 411.688 232.57 407.99 233.367 408.013 233.361 402.849 235.273 397.551 237.982 392.166 241.345 386.95 245.135 382.162 249.119 377.876 253.335 373.929 257.894 366.633 267.6ZM409.277 226.037 423.5 230.5 411.395 239.201Z"/><path d="M306 329.75 328.5 329.75 328.5 309 336 350.5 328.5 392 328.5 371.25 306 371.25Z" fill="url(#fill0)" fill-rule="evenodd"/><path d="M653.5 346C653.5 293.806 695.806 251.5 748 251.5 800.194 251.5 842.5 293.806 842.5 346 842.5 398.194 800.194 440.5 748 440.5 695.806 440.5 653.5 398.194 653.5 346ZM719.554 346C719.554 361.706 732.294 374.446 748 374.446 763.706 374.446 776.446 361.706 776.446 346 776.446 330.294 763.706 317.554 748 317.554 732.294 317.554 719.554 330.294 719.554 346Z" stroke="#000000" stroke-linejoin="round" stroke-miterlimit="10" stroke-dasharray="4 3" fill="none" fill-rule="evenodd"/><path d="M763.5 325.5C763.5 322.186 766.186 319.5 769.5 319.5 772.814 319.5 775.5 322.186 775.5 325.5 775.5 328.814 772.814 331.5 769.5 331.5 766.186 331.5 763.5 328.814 763.5 325.5Z" stroke="#000000" stroke-linejoin="round" stroke-miterlimit="10" fill-rule="evenodd"/><path d="M770.5 345C770.5 341.41 773.41 338.5 777 338.5 780.59 338.5 783.5 341.41 783.5 345 783.5 348.59 780.59 351.5 777 351.5 773.41 351.5 770.5 348.59 770.5 345Z" stroke="#000000" stroke-linejoin="round" stroke-miterlimit="10" fill-rule="evenodd"/><path d="M763.5 364.5C763.5 361.186 766.186 358.5 769.5 358.5 772.814 358.5 775.5 361.186 775.5 364.5 775.5 367.814 772.814 370.5 769.5 370.5 766.186 370.5 763.5 367.814 763.5 364.5Z" stroke="#000000" stroke-linejoin="round" stroke-miterlimit="10" fill-rule="evenodd"/><path d="M721.5 325.5C721.5 322.186 724.41 319.5 728 319.5 731.59 319.5 734.5 322.186 734.5 325.5 734.5 328.814 731.59 331.5 728 331.5 724.41 331.5 721.5 328.814 721.5 325.5Z" stroke="#000000" stroke-linejoin="round" stroke-miterlimit="10" fill-rule="evenodd"/><path d="M714.5 345C714.5 341.41 717.186 338.5 720.5 338.5 723.814 338.5 726.5 341.41 726.5 345 726.5 348.59 723.814 351.5 720.5 351.5 717.186 351.5 714.5 348.59 714.5 345Z" stroke="#000000" stroke-linejoin="round" stroke-miterlimit="10" fill-rule="evenodd"/><path d="M721.5 364.5C721.5 361.186 724.41 358.5 728 358.5 731.59 358.5 734.5 361.186 734.5 364.5 734.5 367.814 731.59 370.5 728 370.5 724.41 370.5 721.5 367.814 721.5 364.5Z" stroke="#000000" stroke-linejoin="round" stroke-miterlimit="10" fill-rule="evenodd"/><path d="M838.5 345C838.5 341.41 841.41 338.5 845 338.5 848.59 338.5 851.5 341.41 851.5 345 851.5 348.59 848.59 351.5 845 351.5 841.41 351.5 838.5 348.59 838.5 345Z" stroke="#000000" stroke-linejoin="round" stroke-miterlimit="10" fill-rule="evenodd"/><path d="M763.5 252.5C763.5 249.186 766.186 246.5 769.5 246.5 772.814 246.5 775.5 249.186 775.5 252.5 775.5 255.814 772.814 258.5 769.5 258.5 766.186 258.5 763.5 255.814 763.5 252.5Z" stroke="#000000" stroke-linejoin="round" stroke-miterlimit="10" fill-rule="evenodd"/><path d="M827.5 390C827.5 386.41 830.186 383.5 833.5 383.5 836.814 383.5 839.5 386.41 839.5 390 839.5 393.59 836.814 396.5 833.5 396.5 830.186 396.5 827.5 393.59 827.5 390Z" stroke="#000000" stroke-linejoin="round" stroke-miterlimit="10" fill-rule="evenodd"/><path d="M680.5 417.5C680.5 414.186 683.186 411.5 686.5 411.5 689.814 411.5 692.5 414.186 692.5 417.5 692.5 420.814 689.814 423.5 686.5 423.5 683.186 423.5 680.5 420.814 680.5 417.5Z" stroke="#000000" stroke-linejoin="round" stroke-miterlimit="10" fill-rule="evenodd"/><path d="M661.5 391.5C661.5 388.186 664.186 385.5 667.5 385.5 670.814 385.5 673.5 388.186 673.5 391.5 673.5 394.814 670.814 397.5 667.5 397.5 664.186 397.5 661.5 394.814 661.5 391.5Z" stroke="#000000" stroke-linejoin="round" stroke-miterlimit="10" fill-rule="evenodd"/><path d="M653.5 314C653.5 310.41 656.41 307.5 660 307.5 663.59 307.5 666.5 310.41 666.5 314 666.5 317.59 663.59 320.5 660 320.5 656.41 320.5 653.5 317.59 653.5 314Z" stroke="#000000" stroke-linejoin="round" stroke-miterlimit="10" fill-rule="evenodd"/><path d="M0 0C38.1669 0 76.3339 28.4583 76.3339 56.9166 76.3339 85.375 64.3336 113.833 52.3333 113.833" stroke="#CC0000" stroke-linejoin="round" stroke-miterlimit="10" fill="none" fill-rule="evenodd" transform="matrix(1.83697e-16 1 1 -1.83697e-16 655.5 318.5)"/><path d="M0 0C-12.9168 0-25.8337 26.3333-25.8337 52.6667-25.8337 79 19.4165 105.333 64.6667 105.333" stroke="#CC0000" stroke-linejoin="round" stroke-miterlimit="10" fill="none" fill-rule="evenodd" transform="matrix(6.12323e-17 1 1 -6.12323e-17 732.5 321.5)"/><path d="M782 345.5C782 380.917 754.625 416.333 727.25 416.333 699.875 416.333 672.5 404.333 672.5 392.333" stroke="#CC0000" stroke-linejoin="round" stroke-miterlimit="10" fill="none" fill-rule="evenodd"/><path d="M713.666 345.5 721.292 343.119C721.292 339.349 714.964 333.992 713.666 323.079 712.368 312.167 707.5 285.579 713.666 278.04 719.832 270.5 732.164 274.27 750.499 278.04 768.834 281.81 808.912 289.151 824.165 300.46 839.417 311.77 840.877 328.635 842.5 345.5" stroke="#CC0000" stroke-linejoin="round" stroke-miterlimit="10" fill="none" fill-rule="evenodd"/><path d="M691.5 421.02C695.5 423.849 699.667 426.678 715.333 426.678 731 426.678 771.167 434.5 786 421.02 800.833 407.541 807.5 361.776 804.833 345.467 802.167 329.158 776 326.995 770.167 323.5" stroke="#CC0000" stroke-linejoin="round" stroke-miterlimit="10" fill="none" fill-rule="evenodd"/><path d="M729.422 364.515C718.859 370.007 708.296 375.5 701.59 363.849 694.883 352.198 686.5 311.42 688.68 294.443 690.859 277.466 700.752 268.645 714.332 261.654 727.913 254.664 749.207 253.499 770.5 252.5" stroke="#CC0000" stroke-linejoin="round" stroke-miterlimit="10" fill="none" fill-rule="evenodd"/><path d="M593 329.75 615.5 329.75 615.5 309 623 350.5 615.5 392 615.5 371.25 593 371.25Z" fill="url(#fill1)" fill-rule="evenodd"/><text font-family="Arial,Arial_MSFontService,sans-serif" font-weight="400" font-size="23" transform="translate(82.4502 192)">(3) Determine initial mapping and (4) optimize the mapping (complete rotation)</text></g></svg>