<svg width="691" height="274" xmlns="http://www.w3.org/2000/svg" xmlns:xlink="http://www.w3.org/1999/xlink" overflow="hidden"><defs><linearGradient x1="457" y1="359" x2="502" y2="359" gradientUnits="userSpaceOnUse" spreadMethod="reflect" id="fill0"><stop offset="0" stop-color="#EAEAEA"/><stop offset="0.00429185" stop-color="#E9E9E9"/><stop offset="0.00858369" stop-color="#E9E9E9"/><stop offset="0.0128755" stop-color="#E9E9E9"/><stop offset="0.0171674" stop-color="#E9E9E9"/><stop offset="0.0214592" stop-color="#E9E9E9"/><stop offset="0.0257511" stop-color="#E9E9E9"/><stop offset="0.0300429" stop-color="#E9E9E9"/><stop offset="0.0343348" stop-color="#E9E9E9"/><stop offset="0.0386266" stop-color="#E9E9E9"/><stop offset="0.0429185" stop-color="#E9E9E9"/><stop offset="0.0472103" stop-color="#E9E9E9"/><stop offset="0.0515021" stop-color="#E9E9E9"/><stop offset="0.055794" stop-color="#E8E8E8"/><stop offset="0.0600858" stop-color="#E8E8E8"/><stop offset="0.0643777" stop-color="#E8E8E8"/><stop offset="0.0686695" stop-color="#E8E8E8"/><stop offset="0.0729614" stop-color="#E8E8E8"/><stop offset="0.0772532" stop-color="#E8E8E8"/><stop offset="0.0815451" stop-color="#E7E7E7"/><stop offset="0.0858369" stop-color="#E7E7E7"/><stop offset="0.0901288" stop-color="#E7E7E7"/><stop offset="0.0944206" stop-color="#E7E7E7"/><stop offset="0.0987124" stop-color="#E6E6E6"/><stop offset="0.103004" stop-color="#E6E6E6"/><stop offset="0.107296" stop-color="#E6E6E6"/><stop offset="0.111588" stop-color="#E6E6E6"/><stop offset="0.11588" stop-color="#E5E5E5"/><stop offset="0.120172" stop-color="#E5E5E5"/><stop offset="0.124464" stop-color="#E5E5E5"/><stop offset="0.128755" stop-color="#E4E4E4"/><stop offset="0.133047" stop-color="#E4E4E4"/><stop offset="0.137339" stop-color="#E4E4E4"/><stop offset="0.141631" stop-color="#E4E4E4"/><stop offset="0.145923" stop-color="#E3E3E3"/><stop offset="0.150215" stop-color="#E3E3E3"/><stop offset="0.154506" stop-color="#E2E2E2"/><stop offset="0.158798" stop-color="#E2E2E2"/><stop offset="0.16309" stop-color="#E2E2E2"/><stop offset="0.167382" stop-color="#E1E1E1"/><stop offset="0.171674" stop-color="#E1E1E1"/><stop offset="0.175966" stop-color="#E0E0E0"/><stop offset="0.180258" stop-color="#E0E0E0"/><stop offset="0.184549" stop-color="#E0E0E0"/><stop offset="0.188841" stop-color="#DFDFDF"/><stop offset="0.193133" stop-color="#DFDFDF"/><stop offset="0.197425" stop-color="#DEDEDE"/><stop offset="0.201717" stop-color="#DEDEDE"/><stop offset="0.206009" stop-color="#DDDDDD"/><stop offset="0.2103" stop-color="#DDDDDD"/><stop offset="0.214592" stop-color="#DCDCDC"/><stop offset="0.218884" stop-color="#DCDCDC"/><stop offset="0.223176" stop-color="#DBDBDB"/><stop offset="0.227468" stop-color="#DBDBDB"/><stop offset="0.23176" stop-color="#DADADA"/><stop offset="0.236051" stop-color="#DADADA"/><stop offset="0.240343" stop-color="#D9D9D9"/><stop offset="0.244635" stop-color="#D9D9D9"/><stop offset="0.248927" stop-color="#D8D8D8"/><stop offset="0.253219" stop-color="#D8D8D8"/><stop offset="0.257511" stop-color="#D7D7D7"/><stop offset="0.261803" stop-color="#D7D7D7"/><stop offset="0.266094" stop-color="#D6D6D6"/><stop offset="0.270386" stop-color="#D5D5D5"/><stop offset="0.274678" stop-color="#D5D5D5"/><stop offset="0.27897" stop-color="#D4D4D4"/><stop offset="0.283262" stop-color="#D4D4D4"/><stop offset="0.287554" stop-color="#D3D3D3"/><stop offset="0.291846" stop-color="#D2D2D2"/><stop offset="0.296137" stop-color="#D2D2D2"/><stop offset="0.300429" stop-color="#D1D1D1"/><stop offset="0.304721" stop-color="#D0D0D0"/><stop offset="0.309013" stop-color="#D0D0D0"/><stop offset="0.313305" stop-color="#CFCFCF"/><stop offset="0.317597" stop-color="#CECECE"/><stop offset="0.321888" stop-color="#CECECE"/><stop offset="0.32618" stop-color="#CDCDCD"/><stop offset="0.330472" stop-color="#CCCCCC"/><stop offset="0.334764" stop-color="#CBCBCB"/><stop offset="0.339056" stop-color="#CBCBCB"/><stop offset="0.343348" stop-color="#CACACA"/><stop offset="0.347639" stop-color="#C9C9C9"/><stop offset="0.351931" stop-color="#C8C8C8"/><stop offset="0.356223" stop-color="#C8C8C8"/><stop offset="0.360515" stop-color="#C7C7C7"/><stop offset="0.364807" stop-color="#C6C6C6"/><stop offset="0.369099" stop-color="#C5C5C5"/><stop offset="0.373391" stop-color="#C5C5C5"/><stop offset="0.377682" stop-color="#C4C4C4"/><stop offset="0.381974" stop-color="#C3C3C3"/><stop offset="0.386266" stop-color="#C2C2C2"/><stop offset="0.390558" stop-color="#C1C1C1"/><stop offset="0.39485" stop-color="#C1C1C1"/><stop offset="0.399142" stop-color="#C0C0C0"/><stop offset="0.403433" stop-color="#BFBFBF"/><stop offset="0.407725" stop-color="#BEBEBE"/><stop offset="0.412017" stop-color="#BDBDBD"/><stop offset="0.416309" stop-color="#BCBCBC"/><stop offset="0.420601" stop-color="#BBBBBB"/><stop offset="0.424893" stop-color="#BABABA"/><stop offset="0.429185" stop-color="#BABABA"/><stop offset="0.433476" stop-color="#B9B9B9"/><stop offset="0.437768" stop-color="#B8B8B8"/><stop offset="0.44206" stop-color="#B7B7B7"/><stop offset="0.446352" stop-color="#B6B6B6"/><stop offset="0.450644" stop-color="#B5B5B5"/><stop offset="0.454936" stop-color="#B4B4B4"/><stop offset="0.459227" stop-color="#B3B3B3"/><stop offset="0.463519" stop-color="#B2B2B2"/><stop offset="0.467811" stop-color="#B1B1B1"/><stop offset="0.472103" stop-color="#B0B0B0"/><stop offset="0.476395" stop-color="#AFAFAF"/><stop offset="0.480687" stop-color="#AEAEAE"/><stop offset="0.484979" stop-color="#ADADAD"/><stop offset="0.48927" stop-color="#ACACAC"/><stop offset="0.493562" stop-color="#ABABAB"/><stop offset="0.497854" stop-color="#AAAAAA"/><stop offset="0.502146" stop-color="#A9A9A9"/><stop offset="0.506438" stop-color="#A8A8A8"/><stop offset="0.51073" stop-color="#A7A7A7"/><stop offset="0.515021" stop-color="#A6A6A6"/><stop offset="0.519313" stop-color="#A5A5A5"/><stop offset="0.523605" stop-color="#A4A4A4"/><stop offset="0.527897" stop-color="#A3A3A3"/><stop offset="0.532189" stop-color="#A2A2A2"/><stop offset="0.536481" stop-color="#A1A1A1"/><stop offset="0.540773" stop-color="#A0A0A0"/><stop offset="0.545064" stop-color="#9F9F9F"/><stop offset="0.549356" stop-color="#9D9D9D"/><stop offset="0.553648" stop-color="#9C9C9C"/><stop offset="0.55794" stop-color="#9B9B9B"/><stop offset="0.562232" stop-color="#9A9A9A"/><stop offset="0.566524" stop-color="#999999"/><stop offset="0.570815" stop-color="#989898"/><stop offset="0.575107" stop-color="#979797"/><stop offset="0.579399" stop-color="#959595"/><stop offset="0.583691" stop-color="#949494"/><stop offset="0.587983" stop-color="#939393"/><stop offset="0.592275" stop-color="#929292"/><stop offset="0.596566" stop-color="#919191"/><stop offset="0.600858" stop-color="#8F8F8F"/><stop offset="0.60515" stop-color="#8E8E8E"/><stop offset="0.609442" stop-color="#8D8D8D"/><stop offset="0.613734" stop-color="#8C8C8C"/><stop offset="0.618026" stop-color="#8B8B8B"/><stop offset="0.622318" stop-color="#898989"/><stop offset="0.626609" stop-color="#888888"/><stop offset="0.630901" stop-color="#878787"/><stop offset="0.635193" stop-color="#868686"/><stop offset="0.639485" stop-color="#848484"/><stop offset="0.643777" stop-color="#838383"/><stop offset="0.648069" stop-color="#828282"/><stop offset="0.65236" stop-color="#808080"/><stop offset="0.656652" stop-color="#7F7F7F"/><stop offset="0.660944" stop-color="#7E7E7E"/><stop offset="0.665236" stop-color="#7D7D7D"/><stop offset="0.669528" stop-color="#7B7B7B"/><stop offset="0.67382" stop-color="#7A7A7A"/><stop offset="0.678112" stop-color="#797979"/><stop offset="0.682403" stop-color="#777777"/><stop offset="0.686695" stop-color="#767676"/><stop offset="0.690987" stop-color="#747474"/><stop offset="0.695279" stop-color="#737373"/><stop offset="0.699571" stop-color="#727272"/><stop offset="0.703863" stop-color="#707070"/><stop offset="0.708154" stop-color="#6F6F6F"/><stop offset="0.712446" stop-color="#6E6E6E"/><stop offset="0.716738" stop-color="#6C6C6C"/><stop offset="0.72103" stop-color="#6B6B6B"/><stop offset="0.725322" stop-color="#696969"/><stop offset="0.729614" stop-color="#686868"/><stop offset="0.733906" stop-color="#666666"/><stop offset="0.738197" stop-color="#656565"/><stop offset="0.742489" stop-color="#646464"/><stop offset="0.746781" stop-color="#626262"/><stop offset="0.751073" stop-color="#616161"/><stop offset="0.755365" stop-color="#5F5F5F"/><stop offset="0.759657" stop-color="#5E5E5E"/><stop offset="0.763949" stop-color="#5C5C5C"/><stop offset="0.76824" stop-color="#5B5B5B"/><stop offset="0.772532" stop-color="#595959"/><stop offset="0.776824" stop-color="#585858"/><stop offset="0.781116" stop-color="#565656"/><stop offset="0.785408" stop-color="#555555"/><stop offset="0.7897" stop-color="#535353"/><stop offset="0.793991" stop-color="#525252"/><stop offset="0.798283" stop-color="#505050"/><stop offset="0.802575" stop-color="#4F4F4F"/><stop offset="0.806867" stop-color="#4D4D4D"/><stop offset="0.811159" stop-color="#4B4B4B"/><stop offset="0.815451" stop-color="#4A4A4A"/><stop offset="0.819743" stop-color="#484848"/><stop offset="0.824034" stop-color="#474747"/><stop offset="0.828326" stop-color="#454545"/><stop offset="0.832618" stop-color="#444444"/><stop offset="0.83691" stop-color="#424242"/><stop offset="0.841202" stop-color="#404040"/><stop offset="0.845494" stop-color="#3F3F3F"/><stop offset="0.849785" stop-color="#3D3D3D"/><stop offset="0.854077" stop-color="#3B3B3B"/><stop offset="0.858369" stop-color="#3A3A3A"/><stop offset="0.862661" stop-color="#383838"/><stop offset="0.866953" stop-color="#363636"/><stop offset="0.871245" stop-color="#353535"/><stop offset="0.875537" stop-color="#333333"/><stop offset="0.879828" stop-color="#313131"/><stop offset="0.88412" stop-color="#303030"/><stop offset="0.888412" stop-color="#2E2E2E"/><stop offset="0.892704" stop-color="#2C2C2C"/><stop offset="0.896996" stop-color="#2B2B2B"/><stop offset="0.901288" stop-color="#292929"/><stop offset="0.905579" stop-color="#272727"/><stop offset="0.909871" stop-color="#252525"/><stop offset="0.914163" stop-color="#242424"/><stop offset="0.918455" stop-color="#222222"/><stop offset="0.922747" stop-color="#202020"/><stop offset="0.927039" stop-color="#1E1E1E"/><stop offset="0.93133" stop-color="#1D1D1D"/><stop offset="0.935622" stop-color="#1B1B1B"/><stop offset="0.939914" stop-color="#191919"/><stop offset="0.944206" stop-color="#171717"/><stop offset="0.948498" stop-color="#161616"/><stop offset="0.95279" stop-color="#141414"/><stop offset="0.957082" stop-color="#121212"/><stop offset="0.961373" stop-color="#101010"/><stop offset="0.965665" stop-color="#0E0E0E"/><stop offset="0.969957" stop-color="#0D0D0D"/><stop offset="0.974249" stop-color="#0B0B0B"/><stop offset="0.978541" stop-color="#090909"/><stop offset="0.982833" stop-color="#070707"/><stop offset="0.987124" stop-color="#050505"/><stop offset="0.991416" stop-color="#030303"/><stop offset="0.995708" stop-color="#010101"/><stop offset="1"/></linearGradient></defs><g transform="translate(-85 -162)"><path d="M162.5 341C162.5 288.806 204.806 246.5 257 246.5 309.194 246.5 351.5 288.806 351.5 341 351.5 393.194 309.194 435.5 257 435.5 204.806 435.5 162.5 393.194 162.5 341ZM228.554 341C228.554 356.706 241.294 369.446 257 369.446 272.706 369.446 285.446 356.706 285.446 341 285.446 325.294 272.706 312.554 257 312.554 241.294 312.554 228.554 325.294 228.554 341Z" stroke="#000000" stroke-linejoin="round" stroke-miterlimit="10" stroke-dasharray="4 3" fill="none" fill-rule="evenodd"/><path d="M283.5 313.5C283.5 310.186 286.186 307.5 289.5 307.5 292.814 307.5 295.5 310.186 295.5 313.5 295.5 316.814 292.814 319.5 289.5 319.5 286.186 319.5 283.5 316.814 283.5 313.5Z" stroke="#000000" stroke-linejoin="round" stroke-miterlimit="10" fill-rule="evenodd"/><path d="M283.5 340.5C283.5 337.186 286.186 334.5 289.5 334.5 292.814 334.5 295.5 337.186 295.5 340.5 295.5 343.814 292.814 346.5 289.5 346.5 286.186 346.5 283.5 343.814 283.5 340.5Z" stroke="#000000" stroke-linejoin="round" stroke-miterlimit="10" fill-rule="evenodd"/><path d="M283.5 367.5C283.5 364.186 286.186 361.5 289.5 361.5 292.814 361.5 295.5 364.186 295.5 367.5 295.5 370.814 292.814 373.5 289.5 373.5 286.186 373.5 283.5 370.814 283.5 367.5Z" stroke="#000000" stroke-linejoin="round" stroke-miterlimit="10" fill-rule="evenodd"/><path d="M219.5 313.5C219.5 310.186 222.186 307.5 225.5 307.5 228.814 307.5 231.5 310.186 231.5 313.5 231.5 316.814 228.814 319.5 225.5 319.5 222.186 319.5 219.5 316.814 219.5 313.5Z" stroke="#000000" stroke-linejoin="round" stroke-miterlimit="10" fill-rule="evenodd"/><path d="M219.5 340.5C219.5 337.186 222.186 334.5 225.5 334.5 228.814 334.5 231.5 337.186 231.5 340.5 231.5 343.814 228.814 346.5 225.5 346.5 222.186 346.5 219.5 343.814 219.5 340.5Z" stroke="#000000" stroke-linejoin="round" stroke-miterlimit="10" fill-rule="evenodd"/><path d="M219.5 367.5C219.5 364.186 222.186 361.5 225.5 361.5 228.814 361.5 231.5 364.186 231.5 367.5 231.5 370.814 228.814 373.5 225.5 373.5 222.186 373.5 219.5 370.814 219.5 367.5Z" stroke="#000000" stroke-linejoin="round" stroke-miterlimit="10" fill-rule="evenodd"/><path d="M226.5 314.5 284.5 363.5" stroke="#000000" stroke-linejoin="round" stroke-miterlimit="10" fill="none" fill-rule="evenodd"/><path d="M226.5 365.5 287.5 312.5" stroke="#000000" stroke-linejoin="round" stroke-miterlimit="10" fill="none" fill-rule="evenodd"/><path d="M0 0 75 1" stroke="#000000" stroke-linejoin="round" stroke-miterlimit="10" fill="none" fill-rule="evenodd" transform="matrix(1 0 0 -1 219.5 341.5)"/><path d="M92.5001 288.5 257.5 341.5" stroke="#000000" stroke-linejoin="round" stroke-miterlimit="10" fill="none" fill-rule="evenodd"/><path d="M257.5 341.5 403.5 383.5" stroke="#000000" stroke-linejoin="round" stroke-miterlimit="10" fill="none" fill-rule="evenodd"/><path d="M122.5 385.5 257.5 338.5" stroke="#000000" stroke-linejoin="round" stroke-miterlimit="10" fill="none" fill-rule="evenodd"/><path d="M256.5 337.5 287.5 237.5" stroke="#000000" stroke-linejoin="round" stroke-miterlimit="10" fill="none" fill-rule="evenodd"/><path d="M167.5 404.5 257.5 341.5" stroke="#000000" stroke-linejoin="round" stroke-miterlimit="10" fill="none" fill-rule="evenodd"/><path d="M257.5 341.5 360.5 342.5" stroke="#000000" stroke-linejoin="round" stroke-miterlimit="10" fill="none" fill-rule="evenodd"/><path d="M177.5 396.5C177.5 394.291 179.291 392.5 181.5 392.5 183.709 392.5 185.5 394.291 185.5 396.5 185.5 398.709 183.709 400.5 181.5 400.5 179.291 400.5 177.5 398.709 177.5 396.5Z" stroke="#000000" stroke-linejoin="round" stroke-miterlimit="10" fill="#DDDDDD" fill-rule="evenodd"/><path d="M162.5 311.5C162.5 309.291 164.067 307.5 166 307.5 167.933 307.5 169.5 309.291 169.5 311.5 169.5 313.709 167.933 315.5 166 315.5 164.067 315.5 162.5 313.709 162.5 311.5Z" stroke="#000000" stroke-linejoin="round" stroke-miterlimit="10" fill="#DDDDDD" fill-rule="evenodd"/><path d="M347.5 341C347.5 339.067 349.291 337.5 351.5 337.5 353.709 337.5 355.5 339.067 355.5 341 355.5 342.933 353.709 344.5 351.5 344.5 349.291 344.5 347.5 342.933 347.5 341Z" stroke="#000000" stroke-linejoin="round" stroke-miterlimit="10" fill="#DDDDDD" fill-rule="evenodd"/><path d="M279.5 250C279.5 248.067 281.291 246.5 283.5 246.5 285.709 246.5 287.5 248.067 287.5 250 287.5 251.933 285.709 253.5 283.5 253.5 281.291 253.5 279.5 251.933 279.5 250Z" stroke="#000000" stroke-linejoin="round" stroke-miterlimit="10" fill="#DDDDDD" fill-rule="evenodd"/><path d="M162.5 371.5C162.5 369.291 164.291 367.5 166.5 367.5 168.709 367.5 170.5 369.291 170.5 371.5 170.5 373.709 168.709 375.5 166.5 375.5 164.291 375.5 162.5 373.709 162.5 371.5Z" stroke="#000000" stroke-linejoin="round" stroke-miterlimit="10" fill="#DDDDDD" fill-rule="evenodd"/><path d="M343.5 367.5C343.5 365.291 345.291 363.5 347.5 363.5 349.709 363.5 351.5 365.291 351.5 367.5 351.5 369.709 349.709 371.5 347.5 371.5 345.291 371.5 343.5 369.709 343.5 367.5Z" stroke="#000000" stroke-linejoin="round" stroke-miterlimit="10" fill="#DDDDDD" fill-rule="evenodd"/><path d="M233.5 322.5C233.5 320.291 235.067 318.5 237 318.5 238.933 318.5 240.5 320.291 240.5 322.5 240.5 324.709 238.933 326.5 237 326.5 235.067 326.5 233.5 324.709 233.5 322.5Z" stroke="#000000" stroke-linejoin="round" stroke-miterlimit="10" fill="#DDDDDD" fill-rule="evenodd"/><path d="M230.5 360C230.5 358.067 232.067 356.5 234 356.5 235.933 356.5 237.5 358.067 237.5 360 237.5 361.933 235.933 363.5 234 363.5 232.067 363.5 230.5 361.933 230.5 360Z" stroke="#000000" stroke-linejoin="round" stroke-miterlimit="10" fill="#DDDDDD" fill-rule="evenodd"/><path d="M275.5 360C275.5 358.067 277.291 356.5 279.5 356.5 281.709 356.5 283.5 358.067 283.5 360 283.5 361.933 281.709 363.5 279.5 363.5 277.291 363.5 275.5 361.933 275.5 360Z" stroke="#000000" stroke-linejoin="round" stroke-miterlimit="10" fill="#DDDDDD" fill-rule="evenodd"/><path d="M271.5 322.5C271.5 320.291 273.291 318.5 275.5 318.5 277.709 318.5 279.5 320.291 279.5 322.5 279.5 324.709 277.709 326.5 275.5 326.5 273.291 326.5 271.5 324.709 271.5 322.5Z" stroke="#000000" stroke-linejoin="round" stroke-miterlimit="10" fill="#DDDDDD" fill-rule="evenodd"/><path d="M578.5 341C578.5 288.806 620.806 246.5 673 246.5 725.194 246.5 767.5 288.806 767.5 341 767.5 393.194 725.194 435.5 673 435.5 620.806 435.5 578.5 393.194 578.5 341ZM644.554 341C644.554 356.706 657.294 369.446 673 369.446 688.706 369.446 701.446 356.706 701.446 341 701.446 325.294 688.706 312.554 673 312.554 657.294 312.554 644.554 325.294 644.554 341Z" stroke="#000000" stroke-linejoin="round" stroke-miterlimit="10" stroke-dasharray="4 3" fill="none" fill-rule="evenodd"/><path d="M687.5 320.5C687.5 317.186 690.186 314.5 693.5 314.5 696.814 314.5 699.5 317.186 699.5 320.5 699.5 323.814 696.814 326.5 693.5 326.5 690.186 326.5 687.5 323.814 687.5 320.5Z" stroke="#000000" stroke-linejoin="round" stroke-miterlimit="10" fill="#CC0000" fill-rule="evenodd"/><path d="M695.5 340.5C695.5 337.186 698.186 334.5 701.5 334.5 704.814 334.5 707.5 337.186 707.5 340.5 707.5 343.814 704.814 346.5 701.5 346.5 698.186 346.5 695.5 343.814 695.5 340.5Z" stroke="#000000" stroke-linejoin="round" stroke-miterlimit="10" fill="#CC0000" fill-rule="evenodd"/><path d="M687.5 360.5C687.5 357.186 690.186 354.5 693.5 354.5 696.814 354.5 699.5 357.186 699.5 360.5 699.5 363.814 696.814 366.5 693.5 366.5 690.186 366.5 687.5 363.814 687.5 360.5Z" stroke="#000000" stroke-linejoin="round" stroke-miterlimit="10" fill="#CC0000" fill-rule="evenodd"/><path d="M646.5 320.5C646.5 317.186 649.186 314.5 652.5 314.5 655.814 314.5 658.5 317.186 658.5 320.5 658.5 323.814 655.814 326.5 652.5 326.5 649.186 326.5 646.5 323.814 646.5 320.5Z" stroke="#000000" stroke-linejoin="round" stroke-miterlimit="10" fill="#CC0000" fill-rule="evenodd"/><path d="M638.5 340.5C638.5 337.186 641.186 334.5 644.5 334.5 647.814 334.5 650.5 337.186 650.5 340.5 650.5 343.814 647.814 346.5 644.5 346.5 641.186 346.5 638.5 343.814 638.5 340.5Z" stroke="#000000" stroke-linejoin="round" stroke-miterlimit="10" fill="#CC0000" fill-rule="evenodd"/><path d="M646.5 360.5C646.5 357.186 649.186 354.5 652.5 354.5 655.814 354.5 658.5 357.186 658.5 360.5 658.5 363.814 655.814 366.5 652.5 366.5 649.186 366.5 646.5 363.814 646.5 360.5Z" stroke="#000000" stroke-linejoin="round" stroke-miterlimit="10" fill="#CC0000" fill-rule="evenodd"/><path d="M763.5 340.5C763.5 337.186 766.186 334.5 769.5 334.5 772.814 334.5 775.5 337.186 775.5 340.5 775.5 343.814 772.814 346.5 769.5 346.5 766.186 346.5 763.5 343.814 763.5 340.5Z" stroke="#000000" stroke-linejoin="round" stroke-miterlimit="10" fill="#CC0000" fill-rule="evenodd"/><path d="M695.5 251.5C695.5 248.186 698.186 245.5 701.5 245.5 704.814 245.5 707.5 248.186 707.5 251.5 707.5 254.814 704.814 257.5 701.5 257.5 698.186 257.5 695.5 254.814 695.5 251.5Z" stroke="#000000" stroke-linejoin="round" stroke-miterlimit="10" fill="#CC0000" fill-rule="evenodd"/><path d="M751.5 385.5C751.5 382.186 754.186 379.5 757.5 379.5 760.814 379.5 763.5 382.186 763.5 385.5 763.5 388.814 760.814 391.5 757.5 391.5 754.186 391.5 751.5 388.814 751.5 385.5Z" stroke="#000000" stroke-linejoin="round" stroke-miterlimit="10" fill="#CC0000" fill-rule="evenodd"/><path d="M604.5 412.5C604.5 409.186 607.186 406.5 610.5 406.5 613.814 406.5 616.5 409.186 616.5 412.5 616.5 415.814 613.814 418.5 610.5 418.5 607.186 418.5 604.5 415.814 604.5 412.5Z" stroke="#000000" stroke-linejoin="round" stroke-miterlimit="10" fill="#CC0000" fill-rule="evenodd"/><path d="M585.5 387.5C585.5 384.186 588.186 381.5 591.5 381.5 594.814 381.5 597.5 384.186 597.5 387.5 597.5 390.814 594.814 393.5 591.5 393.5 588.186 393.5 585.5 390.814 585.5 387.5Z" stroke="#000000" stroke-linejoin="round" stroke-miterlimit="10" fill="#CC0000" fill-rule="evenodd"/><path d="M578.5 309.5C578.5 306.186 581.186 303.5 584.5 303.5 587.814 303.5 590.5 306.186 590.5 309.5 590.5 312.814 587.814 315.5 584.5 315.5 581.186 315.5 578.5 312.814 578.5 309.5Z" stroke="#000000" stroke-linejoin="round" stroke-miterlimit="10" fill="#CC0000" fill-rule="evenodd"/><path d="M457 338 490.75 338 490.75 317 502 359 490.75 401 490.75 380 457 380Z" fill="url(#fill0)" fill-rule="evenodd"/><text font-family="Arial,Arial_MSFontService,sans-serif" font-weight="400" font-size="23" transform="translate(158.768 192)">(2) Determine the points</text><path d="M400.5 385.5C400.5 382.186 403.186 379.5 406.5 379.5 409.814 379.5 412.5 382.186 412.5 385.5 412.5 388.814 409.814 391.5 406.5 391.5 403.186 391.5 400.5 388.814 400.5 385.5Z" stroke="#000000" stroke-linejoin="round" stroke-miterlimit="10" fill="#1860AB" fill-rule="evenodd"/><path d="M355.5 340.5C355.5 337.186 358.186 334.5 361.5 334.5 364.814 334.5 367.5 337.186 367.5 340.5 367.5 343.814 364.814 346.5 361.5 346.5 358.186 346.5 355.5 343.814 355.5 340.5Z" stroke="#000000" stroke-linejoin="round" stroke-miterlimit="10" fill="#1860AB" fill-rule="evenodd"/><path d="M281.5 240C281.5 236.41 284.186 233.5 287.5 233.5 290.814 233.5 293.5 236.41 293.5 240 293.5 243.59 290.814 246.5 287.5 246.5 284.186 246.5 281.5 243.59 281.5 240Z" stroke="#000000" stroke-linejoin="round" stroke-miterlimit="10" fill="#1860AB" fill-rule="evenodd"/><path d="M162.5 405.5C162.5 402.186 165.186 399.5 168.5 399.5 171.814 399.5 174.5 402.186 174.5 405.5 174.5 408.814 171.814 411.5 168.5 411.5 165.186 411.5 162.5 408.814 162.5 405.5Z" stroke="#000000" stroke-linejoin="round" stroke-miterlimit="10" fill="#1860AB" fill-rule="evenodd"/><path d="M117.5 387.5C117.5 384.186 120.186 381.5 123.5 381.5 126.814 381.5 129.5 384.186 129.5 387.5 129.5 390.814 126.814 393.5 123.5 393.5 120.186 393.5 117.5 390.814 117.5 387.5Z" stroke="#000000" stroke-linejoin="round" stroke-miterlimit="10" fill="#1860AB" fill-rule="evenodd"/><path d="M86.5001 290.5C86.5001 287.186 89.4102 284.5 93.0001 284.5 96.5899 284.5 99.5001 287.186 99.5001 290.5 99.5001 293.814 96.5899 296.5 93.0001 296.5 89.4102 296.5 86.5001 293.814 86.5001 290.5Z" stroke="#000000" stroke-linejoin="round" stroke-miterlimit="10" fill="#1860AB" fill-rule="evenodd"/></g></svg>