<svg width="869" height="371" xmlns="http://www.w3.org/2000/svg" xmlns:xlink="http://www.w3.org/1999/xlink" overflow="hidden"><g transform="translate(-71 -157)"><rect x="88" y="160" width="147" height="36" fill="#CCCCFF"/><text font-family="Arial,Arial_MSFontService,sans-serif" font-weight="400" font-size="23" transform="translate(117.167 186)">Capacity</text><rect x="146.5" y="431.5" width="192" height="24" stroke="#000000" stroke-width="1.33333" stroke-miterlimit="8" fill="#DDDDDD"/><rect x="127.5" y="287.5" width="228" height="199" stroke="#000000" stroke-miterlimit="8" fill="none"/><rect x="87.5001" y="248.5" width="307" height="278" stroke="#000000" stroke-miterlimit="8" fill="none"/><rect x="87.5001" y="248.5" width="40" height="39" stroke="#000000" stroke-miterlimit="8" fill="none"/><rect x="355.5" y="248.5" width="39" height="39" stroke="#000000" stroke-miterlimit="8" fill="none"/><rect x="355.5" y="486.5" width="39" height="40" stroke="#000000" stroke-miterlimit="8" fill="none"/><rect x="87.5001" y="486.5" width="40" height="40" stroke="#000000" stroke-miterlimit="8" fill="none"/><rect x="127.5" y="248.5" width="34" height="39" stroke="#000000" stroke-miterlimit="8" fill="none"/><rect x="167.5" y="248.5" width="34" height="39" stroke="#000000" stroke-miterlimit="8" fill="none"/><rect x="215.5" y="248.5" width="31" height="39" stroke="#000000" stroke-miterlimit="8" fill="none"/><rect x="251.5" y="248.5" width="31" height="39" stroke="#000000" stroke-miterlimit="8" fill="none"/><rect x="287.5" y="248.5" width="31" height="39" stroke="#000000" stroke-miterlimit="8" fill="none"/><rect x="321.5" y="248.5" width="31" height="39" stroke="#000000" stroke-miterlimit="8" fill="none"/><rect x="221.5" y="259.5" width="20" height="20" stroke="#000000" stroke-miterlimit="8"/><rect x="256.5" y="259.5" width="20" height="20" stroke="#000000" stroke-miterlimit="8"/><rect x="293.5" y="259.5" width="19" height="20" stroke="#000000" stroke-miterlimit="8"/><rect x="326.5" y="259.5" width="20" height="20" stroke="#000000" stroke-miterlimit="8"/><rect x="175.5" y="259.5" width="20" height="20" stroke="#000000" stroke-miterlimit="8"/><rect x="134.5" y="259.5" width="20" height="20" stroke="#000000" stroke-miterlimit="8"/><rect x="87.5001" y="292.5" width="40" height="24" stroke="#000000" stroke-miterlimit="8" fill="none"/><rect x="87.5001" y="458.5" width="40" height="24" stroke="#000000" stroke-miterlimit="8" fill="none"/><rect x="87.5001" y="426.5" width="40" height="24" stroke="#000000" stroke-miterlimit="8" fill="none"/><rect x="87.5001" y="384.5" width="40" height="24" stroke="#000000" stroke-miterlimit="8" fill="none"/><rect x="87.5001" y="342.5" width="40" height="25" stroke="#000000" stroke-miterlimit="8" fill="none"/><rect x="95.5001" y="293.5" width="20" height="20" stroke="#000000" stroke-miterlimit="8"/><rect x="95.5001" y="345.5" width="20" height="20" stroke="#000000" stroke-miterlimit="8"/><rect x="95.5001" y="387.5" width="20" height="20" stroke="#000000" stroke-miterlimit="8"/><rect x="95.5001" y="429.5" width="20" height="20" stroke="#000000" stroke-miterlimit="8"/><rect x="95.5001" y="460.5" width="20" height="20" stroke="#000000" stroke-miterlimit="8"/><rect x="355.5" y="307.5" width="39" height="29" stroke="#000000" stroke-miterlimit="8" fill="none"/><rect x="355.5" y="344.5" width="39" height="29" stroke="#000000" stroke-miterlimit="8" fill="none"/><rect x="355.5" y="407.5" width="39" height="28" stroke="#000000" stroke-miterlimit="8" fill="none"/><rect x="355.5" y="446.5" width="39" height="29" stroke="#000000" stroke-miterlimit="8" fill="none"/><rect x="366.5" y="451.5" width="20" height="20" stroke="#000000" stroke-miterlimit="8"/><rect x="366.5" y="412.5" width="20" height="20" stroke="#000000" stroke-miterlimit="8"/><rect x="366.5" y="350.5" width="20" height="20" stroke="#000000" stroke-miterlimit="8"/><rect x="366.5" y="313.5" width="20" height="20" stroke="#000000" stroke-miterlimit="8"/><rect x="136.5" y="486.5" width="34" height="40" stroke="#000000" stroke-miterlimit="8" fill="none"/><rect x="184.5" y="486.5" width="34" height="40" stroke="#000000" stroke-miterlimit="8" fill="none"/><rect x="318.5" y="486.5" width="34" height="40" stroke="#000000" stroke-miterlimit="8" fill="none"/><rect x="278.5" y="486.5" width="34" height="40" stroke="#000000" stroke-miterlimit="8" fill="none"/><rect x="239.5" y="486.5" width="35" height="40" stroke="#000000" stroke-miterlimit="8" fill="none"/><rect x="143.5" y="498.5" width="20" height="20" stroke="#000000" stroke-miterlimit="8"/><rect x="191.5" y="498.5" width="20" height="20" stroke="#000000" stroke-miterlimit="8"/><rect x="247.5" y="498.5" width="20" height="20" stroke="#000000" stroke-miterlimit="8"/><rect x="285.5" y="498.5" width="20" height="20" stroke="#000000" stroke-miterlimit="8"/><rect x="325.5" y="498.5" width="20" height="20" stroke="#000000" stroke-miterlimit="8"/><path d="M180.5 431.5 180.5 455.5" stroke="#000000" stroke-width="1.33333" stroke-linejoin="round" stroke-miterlimit="10" fill="none" fill-rule="evenodd"/><path d="M220.5 431.5 220.5 455.5" stroke="#000000" stroke-width="1.33333" stroke-linejoin="round" stroke-miterlimit="10" fill="none" fill-rule="evenodd"/><path d="M255.5 431.5 255.5 455.5" stroke="#000000" stroke-width="1.33333" stroke-linejoin="round" stroke-miterlimit="10" fill="none" fill-rule="evenodd"/><path d="M274.5 431.5 274.5 455.5" stroke="#000000" stroke-width="1.33333" stroke-linejoin="round" stroke-miterlimit="10" fill="none" fill-rule="evenodd"/><path d="M310.5 431.5 310.5 455.5" stroke="#000000" stroke-width="1.33333" stroke-linejoin="round" stroke-miterlimit="10" fill="none" fill-rule="evenodd"/><rect x="146.5" y="368.5" width="192" height="24" stroke="#000000" stroke-width="1.33333" stroke-miterlimit="8" fill="#DDDDDD"/><path d="M167.5 368.5 167.5 392.5" stroke="#000000" stroke-width="1.33333" stroke-linejoin="round" stroke-miterlimit="10" fill="none" fill-rule="evenodd"/><path d="M205.5 369.5 205.5 393.5" stroke="#000000" stroke-width="1.33333" stroke-linejoin="round" stroke-miterlimit="10" fill="none" fill-rule="evenodd"/><path d="M225.5 368.5 225.5 392.5" stroke="#000000" stroke-width="1.33333" stroke-linejoin="round" stroke-miterlimit="10" fill="none" fill-rule="evenodd"/><path d="M274.5 368.5 274.5 392.5" stroke="#000000" stroke-width="1.33333" stroke-linejoin="round" stroke-miterlimit="10" fill="none" fill-rule="evenodd"/><path d="M316.5 368.5 316.5 392.5" stroke="#000000" stroke-width="1.33333" stroke-linejoin="round" stroke-miterlimit="10" fill="none" fill-rule="evenodd"/><path d="M259.5 368.5 259.5 392.5" stroke="#000000" stroke-width="1.33333" stroke-linejoin="round" stroke-miterlimit="10" fill="none" fill-rule="evenodd"/><rect x="146.5" y="307.5" width="192" height="24" stroke="#000000" stroke-width="1.33333" stroke-miterlimit="8" fill="#DDDDDD"/><path d="M177.5 307.5 177.5 331.5" stroke="#000000" stroke-width="1.33333" stroke-linejoin="round" stroke-miterlimit="10" fill="none" fill-rule="evenodd"/><path d="M189.5 307.5 189.5 331.5" stroke="#000000" stroke-width="1.33333" stroke-linejoin="round" stroke-miterlimit="10" fill="none" fill-rule="evenodd"/><path d="M225.5 307.5 225.5 331.5" stroke="#000000" stroke-width="1.33333" stroke-linejoin="round" stroke-miterlimit="10" fill="none" fill-rule="evenodd"/><path d="M274.5 306.5 274.5 330.5" stroke="#000000" stroke-width="1.33333" stroke-linejoin="round" stroke-miterlimit="10" fill="none" fill-rule="evenodd"/><path d="M296.5 306.5 296.5 330.5" stroke="#000000" stroke-width="1.33333" stroke-linejoin="round" stroke-miterlimit="10" fill="none" fill-rule="evenodd"/><path d="M239.5 307.5 239.5 331.5" stroke="#000000" stroke-width="1.33333" stroke-linejoin="round" stroke-miterlimit="10" fill="none" fill-rule="evenodd"/><path d="M312.5 307.5 312.5 331.5" stroke="#000000" stroke-width="1.33333" stroke-linejoin="round" stroke-miterlimit="10" fill="none" fill-rule="evenodd"/><path d="M2.91848 9.6834C9.51678 6.62548 15.7344 3.73745 22.4596 1.0193 38.0671 1.69884 54.1822 3.39768 69.536 7.81467 77.1494 10.0232 83.367 16.4788 91.2342 18.3475 100.624 17.4981 109.38 14.61 118.769 13.5907 126.89 11.722 135.265 11.2124 143.259 8.66409 151.507 5.94595 154.553 2.20849 163.562 1.0193 174.221 1.35907 184.879 0.509652 195.411 1.86873 203.659 2.88803 200.487 4.92664 204.801 7.81467 212.415 12.9112 221.043 14.4402 229.418 15.4595 236.016 14.7799 243.249 14.7799 249.72 12.5714 257.461 9.85328 264.947 5.94595 272.814 3.90734 278.398 2.37838 277.763 2.88803 284.488 1.86873 288.295 1.35907 296.035 0 296.035 0 309.613 0.679537 321.921 3.2278 335.118 4.75676 344 7.81467 337.402 22.7645 339.432 32.9575 326.362 39.0734 304.029 37.3745 291.721 37.7143 264.44 44 249.34 39.2432 212.795 38.7336 196.3 37.5444 180.058 34.4865 163.562 32.9575 153.411 30.0695 142.752 29.39 132.474 28.0309 128.667 27.5212 120.927 26.1622 120.927 26.1622 79.5603 26.8417 40.6049 25.6525 0 20.3861 2.15714 16.3089 1.14201 9.6834 2.91848 9.6834Z" fill="#EDEDED" fill-rule="evenodd" transform="matrix(1 0 0 -1 497 216)"/><path d="M330.5 442.5 837.5 504.5" stroke="#000000" stroke-width="1.33333" stroke-linejoin="round" stroke-miterlimit="10" stroke-dasharray="5.33333 4" fill="none" fill-rule="evenodd"/><path d="M0 0 505 94" stroke="#000000" stroke-width="1.33333" stroke-linejoin="round" stroke-miterlimit="10" stroke-dasharray="5.33333 4" fill="none" fill-rule="evenodd" transform="matrix(1 0 0 -1 330.5 381.5)"/><rect x="510.5" y="285.5" width="329" height="220" stroke="#000000" stroke-miterlimit="8" stroke-dasharray="4 3" fill="#FFFFFF"/><rect x="511" y="285" width="327" height="48" fill="#DDDDDD"/><rect x="511" y="456" width="327" height="48" fill="#DDDDDD"/><path d="M837 457 512 456" stroke="#000000" stroke-width="4" stroke-linejoin="round" stroke-miterlimit="10" fill="none" fill-rule="evenodd"/><path d="M837 334 512 334" stroke="#000000" stroke-width="4" stroke-linejoin="round" stroke-miterlimit="10" fill="none" fill-rule="evenodd"/><rect x="786.5" y="417.5" width="24" height="62" stroke="#808080" stroke-width="0" stroke-miterlimit="8" fill="#808080"/><rect x="786.5" y="417.5" width="24" height="62" stroke="#000000" stroke-width="3.33333" stroke-miterlimit="8" fill="none"/><rect x="786.5" y="310.5" width="24" height="95" stroke="#808080" stroke-width="0" stroke-miterlimit="8" fill="#808080"/><rect x="786.5" y="310.5" width="24" height="95" stroke="#000000" stroke-width="3.33333" stroke-miterlimit="8" fill="none"/><rect x="751.5" y="310.5" width="24" height="169" stroke="#808080" stroke-width="0" stroke-miterlimit="8" fill="#808080"/><rect x="751.5" y="310.5" width="24" height="170" stroke="#000000" stroke-width="3.33333" stroke-miterlimit="8" fill="none"/><rect x="715.5" y="310.5" width="24" height="169" stroke="#808080" stroke-width="0" stroke-miterlimit="8" fill="#808080"/><rect x="715.5" y="310.5" width="24" height="169" stroke="#000000" stroke-width="3.33333" stroke-miterlimit="8" fill="none"/><rect x="679.5" y="310.5" width="24" height="131" stroke="#808080" stroke-width="0" stroke-miterlimit="8" fill="#808080"/><rect x="679.5" y="310.5" width="24" height="131" stroke="#000000" stroke-width="3.33333" stroke-miterlimit="8" fill="none"/><rect x="610.5" y="422.5" width="24" height="59" stroke="#808080" stroke-width="0" stroke-miterlimit="8" fill="#808080"/><rect x="610.5" y="422.5" width="24" height="57" stroke="#000000" stroke-width="3.33333" stroke-miterlimit="8" fill="none"/><rect x="643.5" y="381.5" width="24" height="98" stroke="#808080" stroke-width="0" stroke-miterlimit="8" fill="#808080"/><rect x="643.5" y="381.5" width="24" height="98" stroke="#000000" stroke-width="3.33333" stroke-miterlimit="8" fill="none"/><rect x="643.5" y="310.5" width="24" height="60" stroke="#808080" stroke-width="0" stroke-miterlimit="8" fill="#808080"/><rect x="643.5" y="310.5" width="24" height="60" stroke="#000000" stroke-width="3.33333" stroke-miterlimit="8" fill="none"/><rect x="608.5" y="310.5" width="24" height="95" stroke="#808080" stroke-width="0" stroke-miterlimit="8" fill="#808080"/><rect x="608.5" y="310.5" width="24" height="95" stroke="#000000" stroke-width="3.33333" stroke-miterlimit="8" fill="none"/><rect x="572.5" y="346.5" width="24" height="133" stroke="#808080" stroke-width="0" stroke-miterlimit="8" fill="#808080"/><rect x="572.5" y="346.5" width="24" height="133" stroke="#000000" stroke-width="3.33333" stroke-miterlimit="8" fill="none"/><rect x="536.5" y="422.5" width="24" height="59" stroke="#808080" stroke-width="0" stroke-miterlimit="8" fill="#808080"/><rect x="536.5" y="422.5" width="24" height="57" stroke="#000000" stroke-width="3.33333" stroke-miterlimit="8" fill="none"/><rect x="536.5" y="310.5" width="24" height="95" stroke="#808080" stroke-width="0" stroke-miterlimit="8" fill="#808080"/><rect x="536.5" y="310.5" width="24" height="95" stroke="#000000" stroke-width="3.33333" stroke-miterlimit="8" fill="none"/><rect x="786.5" y="456.5" width="24" height="24" stroke="#000000" stroke-width="3" stroke-miterlimit="8" fill="none"/><rect x="752.5" y="456.5" width="23" height="23" stroke="#000000" stroke-width="3" stroke-miterlimit="8" fill="none"/><rect x="715.5" y="456.5" width="24" height="23" stroke="#000000" stroke-width="3" stroke-miterlimit="8" fill="none"/><rect x="610.5" y="456.5" width="24" height="23" stroke="#000000" stroke-width="3" stroke-miterlimit="8" fill="none"/><rect x="643.5" y="456.5" width="24" height="24" stroke="#000000" stroke-width="3" stroke-miterlimit="8" fill="none"/><rect x="572.5" y="456.5" width="24" height="24" stroke="#000000" stroke-width="3" stroke-miterlimit="8" fill="none"/><rect x="536.5" y="456.5" width="24" height="24" stroke="#000000" stroke-width="3" stroke-miterlimit="8" fill="none"/><rect x="786" y="310" width="24" height="24" stroke="#000000" stroke-width="4" stroke-miterlimit="8" fill="none"/><rect x="751" y="310" width="24" height="24" stroke="#000000" stroke-width="4" stroke-miterlimit="8" fill="none"/><rect x="715" y="310" width="24" height="24" stroke="#000000" stroke-width="4" stroke-miterlimit="8" fill="none"/><rect x="679" y="310" width="24" height="24" stroke="#000000" stroke-width="4" stroke-miterlimit="8" fill="none"/><rect x="643" y="310" width="24" height="24" stroke="#000000" stroke-width="4" stroke-miterlimit="8" fill="none"/><rect x="608" y="310" width="24" height="24" stroke="#000000" stroke-width="4" stroke-miterlimit="8" fill="none"/><rect x="536" y="310" width="24" height="24" stroke="#000000" stroke-width="4" stroke-miterlimit="8" fill="#808080"/><rect x="786.5" y="417.5" width="24" height="24" stroke="#DFDFDF" stroke-width="0" stroke-miterlimit="8" fill="#DFDFDF"/><rect x="786.5" y="417.5" width="24" height="24" stroke="#000000" stroke-width="3.33333" stroke-miterlimit="8" fill="none"/><rect x="679.5" y="417.5" width="24" height="24" stroke="#DFDFDF" stroke-width="0" stroke-miterlimit="8" fill="#DFDFDF"/><rect x="679.5" y="417.5" width="24" height="24" stroke="#000000" stroke-width="3.33333" stroke-miterlimit="8" fill="none"/><rect x="610.5" y="417.5" width="24" height="23" stroke="#DFDFDF" stroke-width="0" stroke-miterlimit="8" fill="#DFDFDF"/><rect x="610.5" y="417.5" width="24" height="23" stroke="#000000" stroke-width="3.33333" stroke-miterlimit="8" fill="none"/><rect x="536.5" y="417.5" width="24" height="23" stroke="#DFDFDF" stroke-width="0" stroke-miterlimit="8" fill="#DFDFDF"/><rect x="536.5" y="417.5" width="24" height="23" stroke="#000000" stroke-width="3.33333" stroke-miterlimit="8" fill="none"/><rect x="786.5" y="381.5" width="24" height="24" stroke="#DFDFDF" stroke-width="0" stroke-miterlimit="8" fill="#DFDFDF"/><rect x="786.5" y="381.5" width="24" height="24" stroke="#000000" stroke-width="3.33333" stroke-miterlimit="8" fill="none"/><rect x="715.5" y="381.5" width="24" height="24" stroke="#DFDFDF" stroke-width="0" stroke-miterlimit="8" fill="#DFDFDF"/><rect x="715.5" y="381.5" width="24" height="24" stroke="#000000" stroke-width="3.33333" stroke-miterlimit="8" fill="none"/><rect x="643.5" y="381.5" width="24" height="24" stroke="#DFDFDF" stroke-width="0" stroke-miterlimit="8" fill="#DFDFDF"/><rect x="643.5" y="381.5" width="24" height="24" stroke="#000000" stroke-width="3.33333" stroke-miterlimit="8" fill="none"/><rect x="608.5" y="381.5" width="24" height="24" stroke="#DFDFDF" stroke-width="0" stroke-miterlimit="8" fill="#DFDFDF"/><rect x="608.5" y="381.5" width="24" height="24" stroke="#000000" stroke-width="3.33333" stroke-miterlimit="8" fill="none"/><rect x="536.5" y="381.5" width="24" height="24" stroke="#DFDFDF" stroke-width="0" stroke-miterlimit="8" fill="#DFDFDF"/><rect x="536.5" y="381.5" width="24" height="24" stroke="#000000" stroke-width="3.33333" stroke-miterlimit="8" fill="none"/><rect x="751.5" y="346.5" width="24" height="24" stroke="#DFDFDF" stroke-width="0" stroke-miterlimit="8" fill="#DFDFDF"/><rect x="751.5" y="346.5" width="24" height="24" stroke="#000000" stroke-width="3.33333" stroke-miterlimit="8" fill="none"/><rect x="643.5" y="346.5" width="24" height="24" stroke="#DFDFDF" stroke-width="0" stroke-miterlimit="8" fill="#DFDFDF"/><rect x="643.5" y="346.5" width="24" height="24" stroke="#000000" stroke-width="3.33333" stroke-miterlimit="8" fill="none"/><rect x="572.5" y="346.5" width="24" height="24" stroke="#DFDFDF" stroke-width="0" stroke-miterlimit="8" fill="#DFDFDF"/><rect x="572.5" y="346.5" width="24" height="24" stroke="#000000" stroke-width="3.33333" stroke-miterlimit="8" fill="none"/><rect x="632.5" y="388.5" width="11" height="12" stroke="#DFDFDF" stroke-width="0" stroke-miterlimit="8" fill="#DFDFDF"/><rect x="632.5" y="388.5" width="11" height="12" stroke="#000000" stroke-width="3.33333" stroke-miterlimit="8" fill="none"/><rect x="561.5" y="422.5" width="47" height="12" stroke="#DFDFDF" stroke-width="0" stroke-miterlimit="8" fill="#DFDFDF"/><rect x="703.5" y="423.5" width="83" height="12" stroke="#DFDFDF" stroke-width="0" stroke-miterlimit="8" fill="#DFDFDF"/><rect x="703.5" y="423.5" width="83" height="12" stroke="#000000" stroke-width="3.33333" stroke-miterlimit="8" fill="none"/><rect x="739.5" y="388.5" width="47" height="12" stroke="#DFDFDF" stroke-width="0" stroke-miterlimit="8" fill="#DFDFDF"/><rect x="739.5" y="388.5" width="47" height="12" stroke="#000000" stroke-width="3.33333" stroke-miterlimit="8" fill="none"/><rect x="667.5" y="388.5" width="48" height="12" stroke="#DFDFDF" stroke-width="0" stroke-miterlimit="8" fill="#DFDFDF"/><rect x="667.5" y="388.5" width="48" height="12" stroke="#000000" stroke-width="3.33333" stroke-miterlimit="8" fill="none"/><rect x="560.5" y="388.5" width="48" height="12" stroke="#DFDFDF" stroke-width="0" stroke-miterlimit="8" fill="#DFDFDF"/><rect x="560.5" y="388.5" width="48" height="12" stroke="#000000" stroke-width="3.33333" stroke-miterlimit="8" fill="none"/><rect x="596.5" y="352.5" width="47" height="12" stroke="#DFDFDF" stroke-width="0" stroke-miterlimit="8" fill="#DFDFDF"/><rect x="596.5" y="352.5" width="47" height="12" stroke="#000000" stroke-width="3.33333" stroke-miterlimit="8" fill="none"/><rect x="667.5" y="352.5" width="84" height="12" stroke="#DFDFDF" stroke-width="0" stroke-miterlimit="8" fill="#DFDFDF"/><rect x="667.5" y="352.5" width="84" height="12" stroke="#000000" stroke-width="3.33333" stroke-miterlimit="8" fill="none"/><rect x="617.5" y="422.5" width="12" height="12" stroke="#000000" stroke-width="0" stroke-miterlimit="8"/><rect x="617.5" y="422.5" width="12" height="12" stroke="#000000" stroke-width="3.33333" stroke-miterlimit="8" fill="none"/><rect x="543.5" y="422.5" width="12" height="12" stroke="#000000" stroke-width="0" stroke-miterlimit="8"/><rect x="543.5" y="422.5" width="12" height="12" stroke="#000000" stroke-width="3.33333" stroke-miterlimit="8" fill="none"/><rect x="792.5" y="423.5" width="12" height="12" stroke="#000000" stroke-width="0" stroke-miterlimit="8"/><rect x="792.5" y="423.5" width="12" height="12" stroke="#000000" stroke-width="3.33333" stroke-miterlimit="8" fill="none"/><rect x="685.5" y="423.5" width="12" height="12" stroke="#000000" stroke-width="0" stroke-miterlimit="8"/><rect x="685.5" y="423.5" width="12" height="12" stroke="#000000" stroke-width="3.33333" stroke-miterlimit="8" fill="none"/><rect x="792.5" y="388.5" width="12" height="12" stroke="#000000" stroke-width="0" stroke-miterlimit="8"/><rect x="792.5" y="388.5" width="12" height="12" stroke="#000000" stroke-width="3.33333" stroke-miterlimit="8" fill="none"/><rect x="721.5" y="388.5" width="11" height="12" stroke="#000000" stroke-width="0" stroke-miterlimit="8"/><rect x="721.5" y="388.5" width="11" height="12" stroke="#000000" stroke-width="3.33333" stroke-miterlimit="8" fill="none"/><rect x="650.5" y="388.5" width="12" height="12" stroke="#000000" stroke-width="0" stroke-miterlimit="8"/><rect x="650.5" y="388.5" width="12" height="12" stroke="#000000" stroke-width="3.33333" stroke-miterlimit="8" fill="none"/><rect x="614.5" y="388.5" width="12" height="12" stroke="#000000" stroke-width="0" stroke-miterlimit="8"/><rect x="614.5" y="388.5" width="12" height="12" stroke="#000000" stroke-width="3.33333" stroke-miterlimit="8" fill="none"/><rect x="543.5" y="388.5" width="12" height="12" stroke="#000000" stroke-width="0" stroke-miterlimit="8"/><rect x="543.5" y="388.5" width="12" height="12" stroke="#000000" stroke-width="3.33333" stroke-miterlimit="8" fill="none"/><rect x="756.5" y="352.5" width="12" height="12" stroke="#000000" stroke-width="0" stroke-miterlimit="8"/><rect x="756.5" y="352.5" width="12" height="12" stroke="#000000" stroke-width="3.33333" stroke-miterlimit="8" fill="none"/><rect x="650.5" y="352.5" width="12" height="12" stroke="#000000" stroke-width="0" stroke-miterlimit="8"/><rect x="650.5" y="352.5" width="12" height="12" stroke="#000000" stroke-width="3.33333" stroke-miterlimit="8" fill="none"/><rect x="579.5" y="352.5" width="11" height="12" stroke="#000000" stroke-width="0" stroke-miterlimit="8"/><rect x="579.5" y="352.5" width="11" height="12" stroke="#000000" stroke-width="3.33333" stroke-miterlimit="8" fill="none"/><rect x="560.5" y="422.5" width="50" height="13" stroke="#000000" stroke-width="3.33333" stroke-miterlimit="8" fill="none"/><text fill="#FFFFFF" font-family="Arial,Arial_MSFontService,sans-serif" font-style="italic" font-weight="400" font-size="24" transform="translate(539.667 476)">A</text><text fill="#FFFFFF" font-family="Arial,Arial_MSFontService,sans-serif" font-style="italic" font-weight="400" font-size="24" transform="translate(613.667 476)">A</text><text fill="#FFFFFF" font-family="Arial,Arial_MSFontService,sans-serif" font-style="italic" font-weight="400" font-size="24" transform="translate(540.167 330)">B</text><text fill="#FFFFFF" font-family="Arial,Arial_MSFontService,sans-serif" font-style="italic" font-weight="400" font-size="24" transform="translate(612 330)">B</text><text fill="#FFFFFF" font-family="Arial,Arial_MSFontService,sans-serif" font-style="italic" font-weight="400" font-size="24" transform="translate(646.833 476)">B</text><text fill="#FFFFFF" font-family="Arial,Arial_MSFontService,sans-serif" font-style="italic" font-weight="400" font-size="24" transform="translate(718.333 330)">B</text><text fill="#FFFFFF" font-family="Arial,Arial_MSFontService,sans-serif" font-style="italic" font-weight="400" font-size="24" transform="translate(789.167 330)">B</text><text fill="#FFFFFF" font-family="Arial,Arial_MSFontService,sans-serif" font-style="italic" font-weight="400" font-size="24" transform="translate(718.333 476)">B</text><text fill="#FFFFFF" font-family="Arial,Arial_MSFontService,sans-serif" font-style="italic" font-weight="400" font-size="24" transform="translate(575.167 476)">C</text><text fill="#FFFFFF" font-family="Arial,Arial_MSFontService,sans-serif" font-style="italic" font-weight="400" font-size="24" transform="translate(645.667 330)">C</text><text fill="#FFFFFF" font-family="Arial,Arial_MSFontService,sans-serif" font-style="italic" font-weight="400" font-size="24" transform="translate(788.5 476)">D</text><text fill="#FFFFFF" font-family="Arial,Arial_MSFontService,sans-serif" font-style="italic" font-weight="400" font-size="24" transform="translate(753.167 476)">C</text><text fill="#FFFFFF" font-family="Arial,Arial_MSFontService,sans-serif" font-style="italic" font-weight="400" font-size="24" transform="translate(753.167 330)">C</text><text fill="#FFFFFF" font-family="Arial,Arial_MSFontService,sans-serif" font-style="italic" font-weight="400" font-size="24" transform="translate(681.833 330)">D</text><path d="M814.5 394.5 902.5 394.5" stroke="#000000" stroke-linejoin="round" stroke-miterlimit="10" fill="none" fill-rule="evenodd"/><path d="M814.5 428.5 902.5 428.5" stroke="#000000" stroke-linejoin="round" stroke-miterlimit="10" fill="none" fill-rule="evenodd"/><path d="M875 371.5 875 386.5 874 386.5 874 371.5ZM874.5 386.5 881.167 381.167 874.5 394.5 867.833 381.167Z"/><path d="M0.5-2.28232e-06 0.500068 15-0.499931 15-0.5 2.28232e-06ZM6.84697e-05 15 6.66671 9.66664 0.000104987 23-6.66662 9.6667Z" transform="matrix(1 0 0 -1 874.5 451.5)"/><path d="M868.5 456.5 930.5 456.5" stroke="#000000" stroke-linejoin="round" stroke-miterlimit="10" fill="none" fill-rule="evenodd"/><path d="M869.5 337.5 931.5 337.5" stroke="#000000" stroke-linejoin="round" stroke-miterlimit="10" fill="none" fill-rule="evenodd"/><path d="M920 345.5 920 448.5 919 448.5 919 345.5ZM919.5 345.5 912.833 350.833 919.5 337.5 926.167 350.833ZM919.5 448.5 926.167 443.167 919.5 456.5 912.833 443.167Z"/><text font-family="Arial,Arial_MSFontService,sans-serif" font-style="italic" font-weight="400" font-size="24" transform="translate(848.433 416)">d</text><text font-family="Arial,Arial_MSFontService,sans-serif" font-style="italic" font-weight="400" font-size="16" transform="translate(861.767 421)">pitch</text><rect x="902" y="376" width="33" height="38" fill="#EAEAEA"/><text font-family="Arial,Arial_MSFontService,sans-serif" font-style="italic" font-weight="400" font-size="24" transform="translate(911.433 404)">h</text><text font-family="Arial,Arial_MSFontService,sans-serif" font-weight="400" font-size="21" transform="translate(531.083 268)">Horizontal Routing Channel</text><path d="M263.5 442.5 510.5 505.5" stroke="#000000" stroke-width="1.33333" stroke-linejoin="round" stroke-miterlimit="10" stroke-dasharray="5.33333 4" fill="none" fill-rule="evenodd"/><rect x="262.5" y="381.5" width="68" height="61" stroke="#000000" stroke-width="1.33333" stroke-miterlimit="8" stroke-dasharray="5.33333 4" fill="none"/><path d="M0 0 247 93" stroke="#000000" stroke-width="1.33333" stroke-linejoin="round" stroke-miterlimit="10" stroke-dasharray="5.33333 4" fill="none" fill-rule="evenodd" transform="matrix(1 0 0 -1 263.5 380.5)"/><path d="M601 285 601 333" stroke="#000000" stroke-width="4" stroke-linejoin="round" stroke-miterlimit="10" fill="none" fill-rule="evenodd"/><path d="M745 285 745 333" stroke="#000000" stroke-width="4" stroke-linejoin="round" stroke-miterlimit="10" fill="none" fill-rule="evenodd"/><path d="M603 457 603 505" stroke="#000000" stroke-width="4" stroke-linejoin="round" stroke-miterlimit="10" fill="none" fill-rule="evenodd"/><path d="M708 457 708 505" stroke="#000000" stroke-width="4" stroke-linejoin="round" stroke-miterlimit="10" fill="none" fill-rule="evenodd"/><text font-family="Arial,Arial_MSFontService,sans-serif" font-weight="400" font-size="23" transform="translate(91.8959 224)">Number of available routing tracks or columns</text></g></svg>