<svg width="884" height="612" xmlns="http://www.w3.org/2000/svg" xmlns:xlink="http://www.w3.org/1999/xlink" overflow="hidden"><g transform="translate(-34 -80)"><rect x="87" y="136" width="227" height="43" fill="#CCCCFF"/><text font-family="Arial,Arial_MSFontService,sans-serif" font-weight="400" font-size="23" transform="translate(105.784 166)">Mesh routing</text><rect x="464.5" y="98.5001" width="90" height="1" stroke="#000000" stroke-miterlimit="8" fill="#3366FF"/><rect x="464.5" y="106.5" width="90" height="2" stroke="#000000" stroke-miterlimit="8" fill="#3366FF"/><rect x="464.5" y="115.5" width="90" height="1" stroke="#000000" stroke-miterlimit="8" fill="#3366FF"/><rect x="464.5" y="124.5" width="90" height="1" stroke="#000000" stroke-miterlimit="8" fill="#3366FF"/><rect x="464.5" y="132.5" width="90" height="2" stroke="#000000" stroke-miterlimit="8" fill="#3366FF"/><rect x="464.5" y="141.5" width="90" height="1" stroke="#000000" stroke-miterlimit="8" fill="#3366FF"/><rect x="464.5" y="150.5" width="90" height="1" stroke="#000000" stroke-miterlimit="8" fill="#3366FF"/><rect x="464.5" y="158.5" width="90" height="2" stroke="#000000" stroke-miterlimit="8" fill="#3366FF"/><rect x="464.5" y="167.5" width="90" height="1" stroke="#000000" stroke-miterlimit="8" fill="#3366FF"/><rect x="486.5" y="91.5001" width="3" height="87" stroke="#000000" stroke-miterlimit="8" fill="#7D95CA"/><rect x="490.5" y="91.5001" width="2" height="87" stroke="#000000" stroke-miterlimit="8" fill="#7D95CA"/><rect x="529.5" y="91.5001" width="2" height="87" stroke="#000000" stroke-miterlimit="8" fill="#7D95CA"/><rect x="532.5" y="91.5001" width="3" height="87" stroke="#000000" stroke-miterlimit="8" fill="#7D95CA"/><rect x="473.5" y="108.5" width="84" height="3" stroke="#000000" stroke-miterlimit="8" fill="#00FF00" fill-opacity="0.501961"/><rect x="473.5" y="112.5" width="84" height="2" stroke="#000000" stroke-miterlimit="8" fill="#00FF00" fill-opacity="0.490196"/><rect x="471.5" y="160.5" width="85" height="3" stroke="#000000" stroke-miterlimit="8" fill="#00FF00" fill-opacity="0.501961"/><rect x="471.5" y="164.5" width="85" height="3" stroke="#000000" stroke-miterlimit="8" fill="#00FF00" fill-opacity="0.490196"/><rect x="484.5" y="90.5001" width="5" height="85" stroke="#000000" stroke-miterlimit="8" fill="#FFFF66" fill-opacity="0.501961"/><rect x="490.5" y="90.5001" width="5" height="85" stroke="#000000" stroke-miterlimit="8" fill="#FFFF66" fill-opacity="0.501961"/><rect x="526.5" y="90.5001" width="5" height="85" stroke="#000000" stroke-miterlimit="8" fill="#FFFF66" fill-opacity="0.501961"/><rect x="532.5" y="90.5001" width="5" height="85" stroke="#000000" stroke-miterlimit="8" fill="#FFFF66" fill-opacity="0.501961"/><rect x="464.5" y="102.5" width="88" height="9" stroke="#000000" stroke-miterlimit="8" fill="#FF99CC" fill-opacity="0.501961"/><rect x="464.5" y="112.5" width="88" height="9" stroke="#000000" stroke-miterlimit="8" fill="#FF99CC" fill-opacity="0.501961"/><rect x="464.5" y="154.5" width="88" height="9" stroke="#000000" stroke-miterlimit="8" fill="#FF99CC" fill-opacity="0.501961"/><rect x="464.5" y="164.5" width="88" height="9" stroke="#000000" stroke-miterlimit="8" fill="#FF99CC" fill-opacity="0.501961"/><rect x="479.5" y="91.5001" width="10" height="81" stroke="#000000" stroke-miterlimit="8" fill="#FF3300" fill-opacity="0.501961"/><rect x="490.5" y="91.5001" width="10" height="81" stroke="#000000" stroke-miterlimit="8" fill="#FF3300" fill-opacity="0.501961"/><rect x="521.5" y="91.5001" width="10" height="81" stroke="#000000" stroke-miterlimit="8" fill="#FF3300" fill-opacity="0.501961"/><rect x="532.5" y="91.5001" width="10" height="81" stroke="#000000" stroke-miterlimit="8" fill="#FF3300" fill-opacity="0.501961"/><path d="M454 134C454 105.281 478.4 82 508.5 82 538.599 82 563 105.281 563 134 563 162.719 538.599 186 508.5 186 478.4 186 454 162.719 454 134Z" stroke="#FF0000" stroke-width="4" stroke-miterlimit="8" fill="none" fill-rule="evenodd"/><path d="M577.884 141.665 620.877 176.361 617.108 181.03 574.116 146.335ZM618.992 178.696 619.074 159.486 633 190 600.234 182.832Z" fill="#FF0000"/><path d="M1.86418-2.35049 45.7612 32.4644 42.0328 37.1654-1.86418 2.35049ZM43.897 34.8149 43.816 15.6057 58 46 25.1741 39.1106Z" fill="#FF0000" transform="matrix(-1 0 0 1 446 144)"/><path d="M2.99538-0.16641 2.99692-0.138697-2.99384 0.194123-2.99538 0.16641ZM0.00153964 0.0277133 14.3128-12.7859 1 18-15.641-11.1218Z" fill="#FF0000" transform="matrix(-1 0 0 1 510 194)"/><rect x="87.5001" y="265.5" width="200" height="3" stroke="#000000" stroke-miterlimit="8" fill="#3366FF"/><rect x="87.5001" y="288.5" width="200" height="3" stroke="#000000" stroke-miterlimit="8" fill="#3366FF"/><rect x="87.5001" y="310.5" width="200" height="4" stroke="#000000" stroke-miterlimit="8" fill="#3366FF"/><rect x="87.5001" y="333.5" width="200" height="3" stroke="#000000" stroke-miterlimit="8" fill="#3366FF"/><rect x="87.5001" y="356.5" width="200" height="3" stroke="#000000" stroke-miterlimit="8" fill="#3366FF"/><rect x="87.5001" y="378.5" width="200" height="4" stroke="#000000" stroke-miterlimit="8" fill="#3366FF"/><rect x="87.5001" y="401.5" width="200" height="3" stroke="#000000" stroke-miterlimit="8" fill="#3366FF"/><rect x="87.5001" y="424.5" width="200" height="3" stroke="#000000" stroke-miterlimit="8" fill="#3366FF"/><rect x="87.5001" y="446.5" width="200" height="3" stroke="#000000" stroke-miterlimit="8" fill="#3366FF"/><rect x="124.5" y="238.5" width="6.00001" height="227" stroke="#000000" stroke-miterlimit="8" fill="#FFC000"/><rect x="133.5" y="238.5" width="6" height="227" stroke="#000000" stroke-miterlimit="8" fill="#FFC000"/><rect x="230.5" y="238.5" width="6" height="227" stroke="#000000" stroke-miterlimit="8" fill="#FFC000"/><rect x="240.5" y="238.5" width="6" height="227" stroke="#000000" stroke-miterlimit="8" fill="#FFC000"/><rect x="401.5" y="270.5" width="210" height="7" stroke="#000000" stroke-miterlimit="8" fill="#00FF00" fill-opacity="0.501961"/><rect x="401.5" y="280.5" width="210" height="6" stroke="#000000" stroke-miterlimit="8" fill="#00FF00" fill-opacity="0.490196"/><rect x="398.5" y="406.5" width="211" height="7" stroke="#000000" stroke-miterlimit="8" fill="#00FF00" fill-opacity="0.501961"/><rect x="398.5" y="416.5" width="211" height="7" stroke="#000000" stroke-miterlimit="8" fill="#00FF00" fill-opacity="0.490196"/><rect x="438.5" y="243.5" width="12" height="220" stroke="#000000" stroke-miterlimit="8" fill="#FFFF66" fill-opacity="0.501961"/><rect x="453.5" y="243.5" width="12" height="220" stroke="#000000" stroke-miterlimit="8" fill="#FFFF66" fill-opacity="0.501961"/><rect x="545.5" y="243.5" width="12" height="220" stroke="#000000" stroke-miterlimit="8" fill="#FFFF66" fill-opacity="0.501961"/><rect x="560.5" y="243.5" width="12" height="220" stroke="#000000" stroke-miterlimit="8" fill="#FFFF66" fill-opacity="0.501961"/><rect x="686.5" y="262.5" width="219" height="23" stroke="#000000" stroke-miterlimit="8" fill="#FF99CC" fill-opacity="0.501961"/><rect x="686.5" y="289.5" width="219" height="24" stroke="#000000" stroke-miterlimit="8" fill="#FF99CC" fill-opacity="0.501961"/><rect x="686.5" y="398.5" width="219" height="24" stroke="#000000" stroke-miterlimit="8" fill="#FF99CC" fill-opacity="0.501961"/><rect x="686.5" y="425.5" width="219" height="24" stroke="#000000" stroke-miterlimit="8" fill="#FF99CC" fill-opacity="0.501961"/><rect x="716.5" y="245.5" width="25" height="210" stroke="#000000" stroke-miterlimit="8" fill="#FF3300" fill-opacity="0.501961"/><rect x="744.5" y="245.5" width="24" height="210" stroke="#000000" stroke-miterlimit="8" fill="#FF3300" fill-opacity="0.501961"/><rect x="823.5" y="245.5" width="24" height="210" stroke="#000000" stroke-miterlimit="8" fill="#FF3300" fill-opacity="0.501961"/><rect x="850.5" y="245.5" width="25" height="210" stroke="#000000" stroke-miterlimit="8" fill="#FF3300" fill-opacity="0.501961"/><text font-family="Arial,Arial_MSFontService,sans-serif" font-weight="400" font-size="19" transform="translate(161.6 376)">16</text><text font-family="Symbol,Symbol_MSFontService,sans-serif" font-weight="400" font-size="19" transform="translate(182.267 376)"></text><text font-family="Arial,Arial_MSFontService,sans-serif" font-weight="400" font-size="19" transform="translate(482 354)">16</text><text font-family="Symbol,Symbol_MSFontService,sans-serif" font-weight="400" font-size="19" transform="translate(502.667 354)"></text><text font-family="Arial,Arial_MSFontService,sans-serif" font-weight="400" font-size="19" transform="translate(773.6 369)">16</text><text font-family="Symbol,Symbol_MSFontService,sans-serif" font-weight="400" font-size="19" transform="translate(794.267 369)"></text><path d="M106.5 414.5C106.5 400.693 117.693 389.5 131.5 389.5 145.307 389.5 156.5 400.693 156.5 414.5 156.5 428.307 145.307 439.5 131.5 439.5 117.693 439.5 106.5 428.307 106.5 414.5Z" stroke="#FF0000" stroke-width="1.33333" stroke-miterlimit="8" fill="none" fill-rule="evenodd"/><path d="M126.5 614.5 138.5 605.5 261.5 605.5 249.5 614.5Z" stroke="#000000" stroke-width="1.33333" stroke-miterlimit="8" fill="#7D95CA" fill-rule="evenodd"/><path d="M160.5 586.5 172.5 577.5 295.5 577.5 283.5 586.5Z" stroke="#000000" stroke-width="1.33333" stroke-miterlimit="8" fill="#7D95CA" fill-rule="evenodd"/><path d="M153.5 599.25C153.5 600.217 156.634 601 160.5 601 164.366 601 167.5 600.217 167.5 599.25L167.5 609.75C167.5 610.716 164.366 611.5 160.5 611.5 156.634 611.5 153.5 610.716 153.5 609.75Z" fill="#FFFF00" fill-rule="evenodd"/><path d="M153.5 599.25C153.5 598.284 156.634 597.5 160.5 597.5 164.366 597.5 167.5 598.284 167.5 599.25 167.5 600.217 164.366 601 160.5 601 156.634 601 153.5 600.217 153.5 599.25Z" fill="#FFFF66" fill-rule="evenodd"/><path d="M167.5 599.25C167.5 600.217 164.366 601 160.5 601 156.634 601 153.5 600.217 153.5 599.25 153.5 598.284 156.634 597.5 160.5 597.5 164.366 597.5 167.5 598.284 167.5 599.25L167.5 609.75C167.5 610.716 164.366 611.5 160.5 611.5 156.634 611.5 153.5 610.716 153.5 609.75L153.5 599.25" stroke="#5A6C94" stroke-width="1.33333" stroke-miterlimit="8" fill="none" fill-rule="evenodd"/><path d="M144.5 602.5 153.078 595.5 178.5 595.5 169.922 602.5Z" stroke="#000000" stroke-width="1.33333" stroke-miterlimit="8" fill="#92D050" fill-rule="evenodd"/><path d="M153.5 586.25C153.5 587.217 156.634 588 160.5 588 164.366 588 167.5 587.217 167.5 586.25L167.5 596.75C167.5 597.716 164.366 598.5 160.5 598.5 156.634 598.5 153.5 597.716 153.5 596.75Z" fill="#FFFF00" fill-rule="evenodd"/><path d="M153.5 586.25C153.5 585.284 156.634 584.5 160.5 584.5 164.366 584.5 167.5 585.284 167.5 586.25 167.5 587.217 164.366 588 160.5 588 156.634 588 153.5 587.217 153.5 586.25Z" fill="#FFFF66" fill-rule="evenodd"/><path d="M167.5 586.25C167.5 587.217 164.366 588 160.5 588 156.634 588 153.5 587.217 153.5 586.25 153.5 585.284 156.634 584.5 160.5 584.5 164.366 584.5 167.5 585.284 167.5 586.25L167.5 596.75C167.5 597.716 164.366 598.5 160.5 598.5 156.634 598.5 153.5 597.716 153.5 596.75L153.5 586.25" stroke="#5A6C94" stroke-width="1.33333" stroke-miterlimit="8" fill="none" fill-rule="evenodd"/><path d="M144.5 590.5 154.303 582.5 178.5 582.5 168.697 590.5Z" stroke="#000000" stroke-width="1.33333" stroke-miterlimit="8" fill="#FF0000" fill-rule="evenodd"/><path d="M154.5 572.125C154.5 573.023 157.41 573.75 161 573.75 164.59 573.75 167.5 573.023 167.5 572.125L167.5 582.875C167.5 583.773 164.59 584.5 161 584.5 157.41 584.5 154.5 583.773 154.5 582.875Z" fill="#FFFF00" fill-rule="evenodd"/><path d="M154.5 572.125C154.5 571.228 157.41 570.5 161 570.5 164.59 570.5 167.5 571.228 167.5 572.125 167.5 573.023 164.59 573.75 161 573.75 157.41 573.75 154.5 573.023 154.5 572.125Z" fill="#FFFF66" fill-rule="evenodd"/><path d="M167.5 572.125C167.5 573.023 164.59 573.75 161 573.75 157.41 573.75 154.5 573.023 154.5 572.125 154.5 571.228 157.41 570.5 161 570.5 164.59 570.5 167.5 571.228 167.5 572.125L167.5 582.875C167.5 583.773 164.59 584.5 161 584.5 157.41 584.5 154.5 583.773 154.5 582.875L154.5 572.125" stroke="#5A6C94" stroke-width="1.33333" stroke-miterlimit="8" fill="none" fill-rule="evenodd"/><path d="M230.5 570.125C230.5 571.023 233.41 571.75 237 571.75 240.59 571.75 243.5 571.023 243.5 570.125L243.5 580.875C243.5 581.773 240.59 582.5 237 582.5 233.41 582.5 230.5 581.773 230.5 580.875Z" fill="#FFFF00" fill-rule="evenodd"/><path d="M230.5 570.125C230.5 569.228 233.41 568.5 237 568.5 240.59 568.5 243.5 569.228 243.5 570.125 243.5 571.023 240.59 571.75 237 571.75 233.41 571.75 230.5 571.023 230.5 570.125Z" fill="#FFFF66" fill-rule="evenodd"/><path d="M243.5 570.125C243.5 571.023 240.59 571.75 237 571.75 233.41 571.75 230.5 571.023 230.5 570.125 230.5 569.228 233.41 568.5 237 568.5 240.59 568.5 243.5 569.228 243.5 570.125L243.5 580.875C243.5 581.773 240.59 582.5 237 582.5 233.41 582.5 230.5 581.773 230.5 580.875L230.5 570.125" stroke="#5A6C94" stroke-width="1.33333" stroke-miterlimit="8" fill="none" fill-rule="evenodd"/><path d="M220.5 574.5 229.078 567.5 254.5 567.5 245.922 574.5Z" stroke="#000000" stroke-width="1.33333" stroke-miterlimit="8" fill="#92D050" fill-rule="evenodd"/><path d="M230.5 557.25C230.5 558.217 233.634 559 237.5 559 241.366 559 244.5 558.217 244.5 557.25L244.5 568.75C244.5 569.717 241.366 570.5 237.5 570.5 233.634 570.5 230.5 569.717 230.5 568.75Z" fill="#FFFF00" fill-rule="evenodd"/><path d="M230.5 557.25C230.5 556.284 233.634 555.5 237.5 555.5 241.366 555.5 244.5 556.284 244.5 557.25 244.5 558.217 241.366 559 237.5 559 233.634 559 230.5 558.217 230.5 557.25Z" fill="#FFFF66" fill-rule="evenodd"/><path d="M244.5 557.25C244.5 558.217 241.366 559 237.5 559 233.634 559 230.5 558.217 230.5 557.25 230.5 556.284 233.634 555.5 237.5 555.5 241.366 555.5 244.5 556.284 244.5 557.25L244.5 568.75C244.5 569.717 241.366 570.5 237.5 570.5 233.634 570.5 230.5 569.717 230.5 568.75L230.5 557.25" stroke="#5A6C94" stroke-width="1.33333" stroke-miterlimit="8" fill="none" fill-rule="evenodd"/><path d="M221.5 561.5 230.078 554.5 255.5 554.5 246.922 561.5Z" stroke="#000000" stroke-width="1.33333" stroke-miterlimit="8" fill="#FF0000" fill-rule="evenodd"/><path d="M230.5 544.25C230.5 545.217 233.634 546 237.5 546 241.366 546 244.5 545.217 244.5 544.25L244.5 554.75C244.5 555.716 241.366 556.5 237.5 556.5 233.634 556.5 230.5 555.716 230.5 554.75Z" fill="#FFFF00" fill-rule="evenodd"/><path d="M230.5 544.25C230.5 543.284 233.634 542.5 237.5 542.5 241.366 542.5 244.5 543.284 244.5 544.25 244.5 545.217 241.366 546 237.5 546 233.634 546 230.5 545.217 230.5 544.25Z" fill="#FFFF66" fill-rule="evenodd"/><path d="M244.5 544.25C244.5 545.217 241.366 546 237.5 546 233.634 546 230.5 545.217 230.5 544.25 230.5 543.284 233.634 542.5 237.5 542.5 241.366 542.5 244.5 543.284 244.5 544.25L244.5 554.75C244.5 555.716 241.366 556.5 237.5 556.5 233.634 556.5 230.5 555.716 230.5 554.75L230.5 544.25" stroke="#5A6C94" stroke-width="1.33333" stroke-miterlimit="8" fill="none" fill-rule="evenodd"/><path d="M137.5 581.5 233.08 503.5 252.5 503.5 156.921 581.5Z" stroke="#000000" stroke-width="1.33333" stroke-miterlimit="8" fill="#FFC000" fill-rule="evenodd"/><path d="M178.5 581.5 274.08 503.5 293.5 503.5 197.921 581.5Z" stroke="#000000" stroke-width="1.33333" stroke-miterlimit="8" fill="#FFC000" fill-rule="evenodd"/><text font-family="Arial,Arial_MSFontService,sans-serif" font-style="italic" font-weight="400" font-size="16" transform="translate(194.767 630)">VDD</text><text font-family="Arial,Arial_MSFontService,sans-serif" font-weight="400" font-size="16" transform="translate(232.933 630)">rail</text><text font-family="Arial,Arial_MSFontService,sans-serif" font-style="italic" font-weight="400" font-size="16" transform="translate(220.1 601)">GND</text><text font-family="Arial,Arial_MSFontService,sans-serif" font-weight="400" font-size="16" transform="translate(260.1 601)">rail</text><text font-family="Arial,Arial_MSFontService,sans-serif" font-weight="400" font-size="16" transform="translate(44.5 629)">Metal1</text><text font-family="Arial,Arial_MSFontService,sans-serif" font-weight="400" font-size="16" transform="translate(45.31 615)">Via1</text><text font-family="Arial,Arial_MSFontService,sans-serif" font-weight="400" font-size="16" transform="translate(45.31 587)">Via2</text><text font-family="Arial,Arial_MSFontService,sans-serif" font-weight="400" font-size="16" transform="translate(45.31 558)">Via3</text><text font-family="Arial,Arial_MSFontService,sans-serif" font-weight="400" font-size="16" transform="translate(44.1667 544)">Metal4</text><path d="M0.11243-0.487196 18.3173 3.71393 18.0924 4.68832-0.11243 0.487196ZM18.2049 4.20112 14.5072-3.49407 26 6 11.5091 9.49781Z" fill="#FF0000" transform="matrix(1 0 0 -1 99.5001 622.5)"/><path d="M0.00735214-0.499946 60.0083 0.38242 59.9936 1.38231-0.00735214 0.499946ZM60.0009 0.882366 54.7661-5.862 68 1 54.5701 7.46989Z" fill="#FF0000" transform="matrix(1 0 0 -1 85.5001 609.5)"/><path d="M102.547 596.002 136.583 599.244 136.489 600.239 102.453 596.998ZM136.536 599.742 131.859 592.599 144.5 600.5 130.595 605.873Z" fill="#FF0000"/><path d="M88.6023 581.011 147.771 593.374 147.567 594.353 88.3978 581.99ZM147.669 593.864 143.812 586.247 155.5 595.5 141.085 599.299Z" fill="#FF0000"/><path d="M100.67 569.03 140.147 583.309 139.807 584.249 100.33 569.97ZM139.977 583.779 137.229 575.696 147.5 586.5 132.694 588.234Z" fill="#FF0000"/><path d="M89.6791 553.033 155.21 578.168 154.852 579.102 89.321 553.967ZM155.031 578.635 152.439 570.501 162.5 581.5 147.664 582.95Z" fill="#FF0000"/><path d="M101.733 537.058 151.654 563.332 151.188 564.217 101.267 537.943ZM151.421 563.774 149.806 555.391 158.5 567.5 143.596 567.19Z" fill="#FF0000"/><text font-family="Arial,Arial_MSFontService,sans-serif" font-style="italic" font-weight="400" font-size="16" transform="translate(128 513)">VDD</text><text font-family="Arial,Arial_MSFontService,sans-serif" font-weight="400" font-size="16" transform="translate(99.1666 532)">Metal4 mesh</text><text font-family="Arial,Arial_MSFontService,sans-serif" font-style="italic" font-weight="400" font-size="16" transform="translate(294.5 517)">GND</text><text font-family="Arial,Arial_MSFontService,sans-serif" font-weight="400" font-size="16" transform="translate(268.833 536)">Metal4 mesh</text><text font-family="Arial,Arial_MSFontService,sans-serif" font-weight="700" font-size="21" transform="translate(81 673)">M1</text><text font-family="Arial,Arial_MSFontService,sans-serif" font-weight="700" font-size="21" transform="translate(110.667 673)">-</text><text font-family="Arial,Arial_MSFontService,sans-serif" font-weight="700" font-size="21" transform="translate(117.833 673)">to</text><text font-family="Arial,Arial_MSFontService,sans-serif" font-weight="700" font-size="21" transform="translate(138 673)">-</text><text font-family="Arial,Arial_MSFontService,sans-serif" font-weight="700" font-size="21" transform="translate(145.167 673)">M4 connection</text><text font-family="Arial,Arial_MSFontService,sans-serif" font-weight="400" font-size="19" transform="translate(172.333 464)">Metal1</text><text font-family="Arial,Arial_MSFontService,sans-serif" font-weight="400" font-size="19" transform="translate(187.833 487)">rail</text><text font-family="Arial,Arial_MSFontService,sans-serif" font-weight="400" font-size="19" transform="translate(123.767 231)">1</text><text font-family="Symbol,Symbol_MSFontService,sans-serif" font-weight="400" font-size="19" transform="translate(134.1 231)"></text><text font-family="Arial,Arial_MSFontService,sans-serif" font-weight="400" font-size="19" transform="translate(150.1 231)">Metal4 mesh</text><path d="M0.198456-0.458929 29.8556 12.3658 29.4587 13.2836-0.198456 0.458929ZM29.6571 12.8247 27.408 4.5888 37 16 22.1158 16.8269Z" transform="matrix(-1 0 0 1 180.5 236.5)"/><path d="M200.74 236.062 224.726 249.215 224.245 250.092 200.26 236.938ZM224.486 249.653 223.015 241.244 231.5 253.5 216.604 252.934Z"/><path d="M149.743 434.786 169.458 479.326 163.971 481.755 144.257 437.214ZM166.715 480.54 175.574 463.496 174 497 148.141 475.638Z" fill="#FF0000"/><text font-family="Arial,Arial_MSFontService,sans-serif" font-weight="400" font-size="19" transform="translate(334 342)">1</text><text font-family="Symbol,Symbol_MSFontService,sans-serif" font-weight="400" font-size="19" transform="translate(344.333 342)"></text><text font-family="Arial,Arial_MSFontService,sans-serif" font-weight="400" font-size="19" transform="translate(360.333 342)">Metal5</text><text font-family="Arial,Arial_MSFontService,sans-serif" font-weight="400" font-size="19" transform="translate(352.333 365)">mesh</text><text font-family="Arial,Arial_MSFontService,sans-serif" font-weight="400" font-size="19" transform="translate(436.667 234)">2</text><text font-family="Symbol,Symbol_MSFontService,sans-serif" font-weight="400" font-size="19" transform="translate(447 234)"></text><text font-family="Arial,Arial_MSFontService,sans-serif" font-weight="400" font-size="19" transform="translate(463 234)">Metal6 mesh</text><path d="M0.232003-0.442916 14.1453 6.84503 13.6813 7.73086-0.232003 0.442916ZM13.9133 7.28794 12.2823-1.0923 21 11 6.09553 10.7188Z" transform="matrix(-1 0 0 1 481.5 241.5)"/><path d="M528.74 241.061 543.716 249.23 543.237 250.108 528.261 241.939ZM543.477 249.669 541.987 241.263 550.5 253.5 535.602 252.968Z"/><path d="M407.968 369.324 420.159 401.834 419.223 402.185 407.032 369.676ZM419.691 402.009 424.061 394.675 422.5 409.5 411.576 399.357Z"/><path d="M0.434843-0.246803 17.486 29.7957 16.6163 30.2893-0.434843 0.246803ZM17.0512 30.0425 20.2165 22.1135 21 37 8.62069 28.6949Z" transform="matrix(1 0 0 -1 406.5 321.5)"/><path d="M460.5 617.5 556.08 539.5 576.5 539.5 480.92 617.5Z" stroke="#A6A6A6" stroke-width="1.33333" stroke-miterlimit="8" fill="#FFC000" fill-rule="evenodd"/><path d="M494.5 618.5 590.08 540.5 609.5 540.5 513.921 618.5Z" stroke="#A6A6A6" stroke-width="1.33333" stroke-miterlimit="8" fill="#FFC000" fill-rule="evenodd"/><path d="M485.5 590.125C485.5 591.023 488.41 591.75 492 591.75 495.59 591.75 498.5 591.023 498.5 590.125L498.5 601.875C498.5 602.773 495.59 603.5 492 603.5 488.41 603.5 485.5 602.773 485.5 601.875Z" fill="#FFFF00" fill-rule="evenodd"/><path d="M485.5 590.125C485.5 589.228 488.41 588.5 492 588.5 495.59 588.5 498.5 589.228 498.5 590.125 498.5 591.023 495.59 591.75 492 591.75 488.41 591.75 485.5 591.023 485.5 590.125Z" fill="#FFFF66" fill-rule="evenodd"/><path d="M498.5 590.125C498.5 591.023 495.59 591.75 492 591.75 488.41 591.75 485.5 591.023 485.5 590.125 485.5 589.228 488.41 588.5 492 588.5 495.59 588.5 498.5 589.228 498.5 590.125L498.5 601.875C498.5 602.773 495.59 603.5 492 603.5 488.41 603.5 485.5 602.773 485.5 601.875L485.5 590.125" stroke="#5A6C94" stroke-width="1.33333" stroke-miterlimit="8" fill="none" fill-rule="evenodd"/><path d="M545.5 569.125C545.5 570.023 548.41 570.75 552 570.75 555.59 570.75 558.5 570.023 558.5 569.125L558.5 579.875C558.5 580.773 555.59 581.5 552 581.5 548.41 581.5 545.5 580.773 545.5 579.875Z" fill="#FFFF00" fill-rule="evenodd"/><path d="M545.5 569.125C545.5 568.228 548.41 567.5 552 567.5 555.59 567.5 558.5 568.228 558.5 569.125 558.5 570.023 555.59 570.75 552 570.75 548.41 570.75 545.5 570.023 545.5 569.125Z" fill="#FFFF66" fill-rule="evenodd"/><path d="M558.5 569.125C558.5 570.023 555.59 570.75 552 570.75 548.41 570.75 545.5 570.023 545.5 569.125 545.5 568.228 548.41 567.5 552 567.5 555.59 567.5 558.5 568.228 558.5 569.125L558.5 579.875C558.5 580.773 555.59 581.5 552 581.5 548.41 581.5 545.5 580.773 545.5 579.875L545.5 569.125" stroke="#5A6C94" stroke-width="1.33333" stroke-miterlimit="8" fill="none" fill-rule="evenodd"/><path d="M442.5 593.5 454.5 584.5 578.5 584.5 566.5 593.5Z" stroke="#000000" stroke-width="1.33333" stroke-miterlimit="8" fill="#66FF66" fill-rule="evenodd"/><path d="M467.5 570.5 478.167 562.5 603.5 562.5 592.833 570.5Z" stroke="#000000" stroke-width="1.33333" stroke-miterlimit="8" fill="#66FF66" fill-rule="evenodd"/><path d="M485.5 577.125C485.5 578.023 488.41 578.75 492 578.75 495.59 578.75 498.5 578.023 498.5 577.125L498.5 587.875C498.5 588.773 495.59 589.5 492 589.5 488.41 589.5 485.5 588.773 485.5 587.875Z" fill="#FFFF00" fill-rule="evenodd"/><path d="M485.5 577.125C485.5 576.228 488.41 575.5 492 575.5 495.59 575.5 498.5 576.228 498.5 577.125 498.5 578.023 495.59 578.75 492 578.75 488.41 578.75 485.5 578.023 485.5 577.125Z" fill="#FFFF66" fill-rule="evenodd"/><path d="M498.5 577.125C498.5 578.023 495.59 578.75 492 578.75 488.41 578.75 485.5 578.023 485.5 577.125 485.5 576.228 488.41 575.5 492 575.5 495.59 575.5 498.5 576.228 498.5 577.125L498.5 587.875C498.5 588.773 495.59 589.5 492 589.5 488.41 589.5 485.5 588.773 485.5 587.875L485.5 577.125" stroke="#5A6C94" stroke-width="1.33333" stroke-miterlimit="8" fill="none" fill-rule="evenodd"/><path d="M545.5 555.125C545.5 556.023 548.41 556.75 552 556.75 555.59 556.75 558.5 556.023 558.5 555.125L558.5 566.875C558.5 567.773 555.59 568.5 552 568.5 548.41 568.5 545.5 567.773 545.5 566.875Z" fill="#FFFF00" fill-rule="evenodd"/><path d="M545.5 555.125C545.5 554.228 548.41 553.5 552 553.5 555.59 553.5 558.5 554.228 558.5 555.125 558.5 556.023 555.59 556.75 552 556.75 548.41 556.75 545.5 556.023 545.5 555.125Z" fill="#FFFF66" fill-rule="evenodd"/><path d="M558.5 555.125C558.5 556.023 555.59 556.75 552 556.75 548.41 556.75 545.5 556.023 545.5 555.125 545.5 554.228 548.41 553.5 552 553.5 555.59 553.5 558.5 554.228 558.5 555.125L558.5 566.875C558.5 567.773 555.59 568.5 552 568.5 548.41 568.5 545.5 567.773 545.5 566.875L545.5 555.125" stroke="#5A6C94" stroke-width="1.33333" stroke-miterlimit="8" fill="none" fill-rule="evenodd"/><path d="M475.5 579.5 557.6 512.5 582.5 512.5 500.4 579.5Z" stroke="#000000" stroke-width="1.33333" stroke-miterlimit="8" fill="#FFFF99" fill-rule="evenodd"/><path d="M510.5 577.5 591.375 511.5 617.5 511.5 536.625 577.5Z" stroke="#000000" stroke-width="1.33333" stroke-miterlimit="8" fill="#FFFF99" fill-rule="evenodd"/><text font-family="Arial,Arial_MSFontService,sans-serif" font-weight="400" font-size="16" transform="translate(369.933 625)">Metal4</text><text font-family="Arial,Arial_MSFontService,sans-serif" font-weight="400" font-size="16" transform="translate(372.1 611)">Via4</text><text font-family="Arial,Arial_MSFontService,sans-serif" font-weight="400" font-size="16" transform="translate(369.933 596)">Metal5</text><text font-family="Arial,Arial_MSFontService,sans-serif" font-weight="400" font-size="16" transform="translate(370.767 580)">Via5</text><text font-family="Arial,Arial_MSFontService,sans-serif" font-weight="400" font-size="16" transform="translate(368.6 563)">Metal6</text><path d="M0.0844819-0.492811 27.1995 4.15548 27.0305 5.1411-0.0844819 0.492811ZM27.115 4.64829 22.9848-2.82367 35 6 20.7319 10.318Z" fill="#FF0000" transform="matrix(1 0 0 -1 430.5 620.5)"/><path d="M0.03721-0.498613 59.0594 3.90603 58.985 4.90325-0.03721 0.498613ZM59.0222 4.40464 54.1998-2.64045 67 5 53.2075 10.6559Z" fill="#FF0000" transform="matrix(1 0 0 -1 417.5 605.5)"/><path d="M0.0369358-0.498634 19.0588 0.910392 18.9849 1.90766-0.0369358 0.498634ZM19.0219 1.40903 14.1956-5.63341 27 2 13.2106 7.6635Z" fill="#FF0000" transform="matrix(1 0 0 -1 428.5 591.5)"/><path d="M428.588 573.008 476.713 581.602 476.537 582.586 428.412 573.992ZM476.625 582.094 472.546 574.593 484.5 583.5 470.202 587.719Z" fill="#FF0000"/><path d="M442.572 559.005 496.655 566.856 496.511 567.846 442.428 559.995ZM496.583 567.351 492.263 559.987 504.5 568.5 490.347 573.182Z" fill="#FF0000"/><text font-family="Arial,Arial_MSFontService,sans-serif" font-weight="700" font-size="21" transform="translate(386.167 673)">M4</text><text font-family="Arial,Arial_MSFontService,sans-serif" font-weight="700" font-size="21" transform="translate(415.833 673)">-</text><text font-family="Arial,Arial_MSFontService,sans-serif" font-weight="700" font-size="21" transform="translate(423 673)">to</text><text font-family="Arial,Arial_MSFontService,sans-serif" font-weight="700" font-size="21" transform="translate(443.167 673)">-</text><text font-family="Arial,Arial_MSFontService,sans-serif" font-weight="700" font-size="21" transform="translate(450.333 673)">M6 connection</text><path d="M731.5 618.5 813.6 551.5 838.5 551.5 756.4 618.5Z" stroke="#A6A6A6" stroke-width="1.33333" stroke-miterlimit="8" fill="#FFFF99" fill-rule="evenodd"/><path d="M764.5 617.5 846.6 550.5 871.5 550.5 789.4 617.5Z" stroke="#A6A6A6" stroke-width="1.33333" stroke-miterlimit="8" fill="#FFFF99" fill-rule="evenodd"/><path d="M761.5 588.25C761.5 589.217 764.634 590 768.5 590 772.366 590 775.5 589.217 775.5 588.25L775.5 599.75C775.5 600.717 772.366 601.5 768.5 601.5 764.634 601.5 761.5 600.717 761.5 599.75Z" fill="#FFFF00" fill-rule="evenodd"/><path d="M761.5 588.25C761.5 587.284 764.634 586.5 768.5 586.5 772.366 586.5 775.5 587.284 775.5 588.25 775.5 589.217 772.366 590 768.5 590 764.634 590 761.5 589.217 761.5 588.25Z" fill="#FFFF66" fill-rule="evenodd"/><path d="M775.5 588.25C775.5 589.217 772.366 590 768.5 590 764.634 590 761.5 589.217 761.5 588.25 761.5 587.284 764.634 586.5 768.5 586.5 772.366 586.5 775.5 587.284 775.5 588.25L775.5 599.75C775.5 600.717 772.366 601.5 768.5 601.5 764.634 601.5 761.5 600.717 761.5 599.75L761.5 588.25" stroke="#5A6C94" stroke-width="1.33333" stroke-miterlimit="8" fill="none" fill-rule="evenodd"/><path d="M821.5 564.125C821.5 565.023 824.41 565.75 828 565.75 831.59 565.75 834.5 565.023 834.5 564.125L834.5 575.875C834.5 576.773 831.59 577.5 828 577.5 824.41 577.5 821.5 576.773 821.5 575.875Z" fill="#FFFF00" fill-rule="evenodd"/><path d="M821.5 564.125C821.5 563.228 824.41 562.5 828 562.5 831.59 562.5 834.5 563.228 834.5 564.125 834.5 565.023 831.59 565.75 828 565.75 824.41 565.75 821.5 565.023 821.5 564.125Z" fill="#FFFF66" fill-rule="evenodd"/><path d="M834.5 564.125C834.5 565.023 831.59 565.75 828 565.75 824.41 565.75 821.5 565.023 821.5 564.125 821.5 563.228 824.41 562.5 828 562.5 831.59 562.5 834.5 563.228 834.5 564.125L834.5 575.875C834.5 576.773 831.59 577.5 828 577.5 824.41 577.5 821.5 576.773 821.5 575.875L821.5 564.125" stroke="#5A6C94" stroke-width="1.33333" stroke-miterlimit="8" fill="none" fill-rule="evenodd"/><path d="M719.5 591.5 738.167 577.5 854.5 577.5 835.834 591.5Z" stroke="#000000" stroke-width="1.33333" stroke-miterlimit="8" fill="#FFCCFF" fill-rule="evenodd"/><path d="M744.5 568.5 763.167 554.5 879.5 554.5 860.834 568.5Z" stroke="#000000" stroke-width="1.33333" stroke-miterlimit="8" fill="#FFCCFF" fill-rule="evenodd"/><path d="M761.5 573.25C761.5 574.217 764.634 575 768.5 575 772.366 575 775.5 574.217 775.5 573.25L775.5 583.75C775.5 584.716 772.366 585.5 768.5 585.5 764.634 585.5 761.5 584.716 761.5 583.75Z" fill="#FFFF00" fill-rule="evenodd"/><path d="M761.5 573.25C761.5 572.284 764.634 571.5 768.5 571.5 772.366 571.5 775.5 572.284 775.5 573.25 775.5 574.217 772.366 575 768.5 575 764.634 575 761.5 574.217 761.5 573.25Z" fill="#FFFF66" fill-rule="evenodd"/><path d="M775.5 573.25C775.5 574.217 772.366 575 768.5 575 764.634 575 761.5 574.217 761.5 573.25 761.5 572.284 764.634 571.5 768.5 571.5 772.366 571.5 775.5 572.284 775.5 573.25L775.5 583.75C775.5 584.716 772.366 585.5 768.5 585.5 764.634 585.5 761.5 584.716 761.5 583.75L761.5 573.25" stroke="#5A6C94" stroke-width="1.33333" stroke-miterlimit="8" fill="none" fill-rule="evenodd"/><path d="M821.5 549.125C821.5 550.023 824.41 550.75 828 550.75 831.59 550.75 834.5 550.023 834.5 549.125L834.5 559.875C834.5 560.773 831.59 561.5 828 561.5 824.41 561.5 821.5 560.773 821.5 559.875Z" fill="#FFFF00" fill-rule="evenodd"/><path d="M821.5 549.125C821.5 548.228 824.41 547.5 828 547.5 831.59 547.5 834.5 548.228 834.5 549.125 834.5 550.023 831.59 550.75 828 550.75 824.41 550.75 821.5 550.023 821.5 549.125Z" fill="#FFFF66" fill-rule="evenodd"/><path d="M834.5 549.125C834.5 550.023 831.59 550.75 828 550.75 824.41 550.75 821.5 550.023 821.5 549.125 821.5 548.228 824.41 547.5 828 547.5 831.59 547.5 834.5 548.228 834.5 549.125L834.5 559.875C834.5 560.773 831.59 561.5 828 561.5 824.41 561.5 821.5 560.773 821.5 559.875L821.5 549.125" stroke="#5A6C94" stroke-width="1.33333" stroke-miterlimit="8" fill="none" fill-rule="evenodd"/><path d="M747.5 575.5 828.375 509.5 853.5 509.5 772.625 575.5Z" stroke="#000000" stroke-width="1.33333" stroke-miterlimit="8" fill="#FF9966" fill-rule="evenodd"/><path d="M777.5 575.5 858.375 509.5 884.5 509.5 803.625 575.5Z" stroke="#000000" stroke-width="1.33333" stroke-miterlimit="8" fill="#FF9966" fill-rule="evenodd"/><text font-family="Arial,Arial_MSFontService,sans-serif" font-weight="400" font-size="16" transform="translate(648.433 625)">Metal6</text><text font-family="Arial,Arial_MSFontService,sans-serif" font-weight="400" font-size="16" transform="translate(649.267 610)">Via6</text><text font-family="Arial,Arial_MSFontService,sans-serif" font-weight="400" font-size="16" transform="translate(648.433 596)">Metal7</text><text font-family="Arial,Arial_MSFontService,sans-serif" font-weight="400" font-size="16" transform="translate(649.267 582)">Via7</text><text font-family="Arial,Arial_MSFontService,sans-serif" font-weight="400" font-size="16" transform="translate(648.433 568)">Metal8</text><path d="M0.0415227-0.498273 28.0692 1.83736 27.9861 2.83391-0.0415227 0.498273ZM28.0276 2.33564 23.2664-4.75091 36 3 22.1591 8.53636Z" fill="#FF0000" transform="matrix(1 0 0 -1 707.5 616.5)"/><path d="M0.0427006-0.498173 62.072 4.81862 61.9866 5.81497-0.0427006 0.498173ZM62.0292 5.31679 57.2847-1.78099 70 6 56.146 11.5036Z" fill="#FF0000" transform="matrix(1 0 0 -1 691.5 603.5)"/><path d="M0.0332595-0.498893 22.051 0.968956 21.9845 1.96674-0.0332595 0.498893ZM22.0177 1.46785 17.1397-5.53882 30 2 16.2527 7.76498Z" fill="#FF0000" transform="matrix(1 0 0 -1 705.5 590.5)"/><path d="M693.529 576.001 753.543 579.531 753.485 580.529 693.471 576.999ZM753.514 580.03 748.581 573.062 761.5 580.5 747.798 586.372Z" fill="#FF0000"/><path d="M707.541 563.002 760.568 567.348 760.486 568.345 707.459 563.998ZM760.527 567.846 755.756 560.766 768.5 568.5 754.667 574.055Z" fill="#FF0000"/><text font-family="Arial,Arial_MSFontService,sans-serif" font-weight="700" font-size="21" transform="translate(684.833 673)">M6</text><text font-family="Arial,Arial_MSFontService,sans-serif" font-weight="700" font-size="21" transform="translate(714.5 673)">-</text><text font-family="Arial,Arial_MSFontService,sans-serif" font-weight="700" font-size="21" transform="translate(721.667 673)">to</text><text font-family="Arial,Arial_MSFontService,sans-serif" font-weight="700" font-size="21" transform="translate(741.833 673)">-</text><text font-family="Arial,Arial_MSFontService,sans-serif" font-weight="700" font-size="21" transform="translate(749 673)">M8 connection</text><path d="M427.5 414.5C427.5 400.693 438.693 389.5 452.5 389.5 466.307 389.5 477.5 400.693 477.5 414.5 477.5 428.307 466.307 439.5 452.5 439.5 438.693 439.5 427.5 428.307 427.5 414.5Z" stroke="#FF0000" stroke-width="1.33333" stroke-miterlimit="8" fill="none" fill-rule="evenodd"/><path d="M466.783 437.88 495.065 508.181 489.499 510.42 461.217 440.12ZM492.282 509.301 501.719 492.569 499 526 473.887 503.766Z" fill="#FF0000"/><path d="M702.5 427.5C702.5 406.513 719.513 389.5 740.5 389.5 761.487 389.5 778.5 406.513 778.5 427.5 778.5 448.487 761.487 465.5 740.5 465.5 719.513 465.5 702.5 448.487 702.5 427.5Z" stroke="#FF0000" stroke-width="1.33333" stroke-miterlimit="8" fill="none" fill-rule="evenodd"/><path d="M757.877 462.151 770.783 505.887 765.028 507.585 752.123 463.849ZM767.906 506.736 778.896 490.981 773 524 750.123 499.472Z" fill="#FF0000"/><text font-family="Arial,Arial_MSFontService,sans-serif" font-weight="400" font-size="19" transform="translate(627.333 350)">4</text><text font-family="Symbol,Symbol_MSFontService,sans-serif" font-weight="400" font-size="19" transform="translate(637.667 350)"></text><text font-family="Arial,Arial_MSFontService,sans-serif" font-weight="400" font-size="19" transform="translate(653.667 350)">Metal7</text><text font-family="Arial,Arial_MSFontService,sans-serif" font-weight="400" font-size="19" transform="translate(645.667 373)">mesh</text><text font-family="Arial,Arial_MSFontService,sans-serif" font-weight="400" font-size="19" transform="translate(734.75 233)">4</text><text font-family="Symbol,Symbol_MSFontService,sans-serif" font-weight="400" font-size="19" transform="translate(745.083 233)"></text><text font-family="Arial,Arial_MSFontService,sans-serif" font-weight="400" font-size="19" transform="translate(761.083 233)">Metal8 mesh</text><path d="M0.364769-0.341971 9.89324 9.82173 9.1637 10.5057-0.364769 0.341971ZM9.52847 10.1637 10.7444 1.71323 15 16 1.0172 10.8324Z" transform="matrix(-1 0 0 1 770.5 240.5)"/><path d="M816.829 240.124 826.809 248.856 826.15 249.608 816.171 240.876ZM826.479 249.232 826.856 240.703 832.5 254.5 818.076 250.737Z"/><path d="M685.953 377.289 696.57 400.039 695.664 400.462 685.047 377.712ZM696.117 400.251 699.903 392.598 699.5 407.5 687.82 398.237Z"/><path d="M0.447214-0.223607 14.8695 28.621 13.9751 29.0682-0.447214 0.223607ZM14.4223 28.8446 18 21.0929 18 36 6.0743 27.0557Z" transform="matrix(1 0 0 -1 685.5 334.5)"/><path d="M1.45815e-06-0.5 28-0.499918 28 0.500082-1.45815e-06 0.5ZM28 8.16565e-05 22.6667-6.6666 36 0.000104987 22.6666 6.66673Z" transform="matrix(-1 0 0 1 159.5 370.5)"/><path d="M203.5 370 221.5 370 221.5 371 203.5 371ZM221.5 370.5 216.167 363.833 229.5 370.5 216.167 377.167Z"/><path d="M1.28033e-06-0.5 33-0.499916 33 0.500084-1.28033e-06 0.5ZM33 8.45016e-05 27.6667-6.6666 41 0.000104987 27.6666 6.66674Z" transform="matrix(-1 0 0 1 479.5 349.5)"/><path d="M518.5 347 536.5 347 536.5 348 518.5 348ZM536.5 347.5 531.167 340.833 544.5 347.5 531.167 354.167Z"/><path d="M0.5-1.09361e-06 0.500087 40-0.499912 40-0.5 1.09361e-06ZM8.74891e-05 40 6.66674 34.6666 0.000104987 48-6.66659 34.6667Z" transform="matrix(1 0 0 -1 497.5 335.5)"/><path d="M498 360.5 498 414.5 497 414.5 497 360.5ZM497.5 414.5 504.167 409.167 497.5 422.5 490.833 409.167Z"/><path d="M0.5-1.38141e-06 0.500083 30-0.499917 30-0.5 1.38141e-06ZM8.28844e-05 30 6.66674 24.6666 0.000104987 38-6.6666 24.6667Z" transform="matrix(1 0 0 -1 794.5 352.5)"/><path d="M795 382.5 795 441.5 794 441.5 794 382.5ZM794.5 441.5 801.167 436.167 794.5 449.5 787.833 436.167Z"/><path d="M9.05059e-07-0.5 50-0.499909 50 0.500091-9.05059e-07 0.5ZM50 9.05059e-05 44.6667-6.66659 58 0.000104987 44.6667 6.66675Z" transform="matrix(-1 0 0 1 772.5 364.5)"/><path d="M806.5 364 812.5 364 812.5 365 806.5 365ZM812.5 364.5 807.167 357.833 820.5 364.5 807.167 371.167Z"/></g></svg>