<svg width="496" height="296" xmlns="http://www.w3.org/2000/svg" xmlns:xlink="http://www.w3.org/1999/xlink" overflow="hidden"><defs><clipPath id="clip0"><path d="M256.5 134.5 256.5 418.5 574.5 418.5 574.5 134.5ZM82 126 578 126 578 422 82 422Z" fill-rule="evenodd" clip-rule="evenodd"/></clipPath></defs><g transform="translate(-82 -126)"><rect x="87" y="129" width="81" height="37" fill="#CCCCFF"/><text font-family="Arial,Arial_MSFontService,sans-serif" font-weight="400" font-size="23" transform="translate(95.9967 156)">H</text><text font-family="Arial,Arial_MSFontService,sans-serif" font-weight="400" font-size="23" transform="translate(112.33 156)">-</text><text font-family="Arial,Arial_MSFontService,sans-serif" font-weight="400" font-size="23" transform="translate(119.83 156)">tree</text><g clip-path="url(#clip0)"><rect x="259.167" y="137.167" width="318" height="284" fill="#FFFFFF"/><path d="M259.667 137.667 259.667 420.667 576.667 420.667 576.667 137.667ZM258.667 136.667 577.667 136.667 577.667 421.667 258.667 421.667Z" fill="#FFFFFF" fill-rule="evenodd"/></g><rect x="256.5" y="134.5" width="318" height="284" stroke="#969696" stroke-miterlimit="8" fill="#EAEAEA"/><path d="M256.5 153.5 575.5 153.5" stroke="#FFFFFF" stroke-linejoin="round" stroke-miterlimit="10" stroke-dasharray="1 1" fill="none" fill-rule="evenodd"/><path d="M256.5 173.5 575.5 173.5" stroke="#FFFFFF" stroke-linejoin="round" stroke-miterlimit="10" stroke-dasharray="1 1" fill="none" fill-rule="evenodd"/><path d="M256.5 194.5 575.5 194.5" stroke="#FFFFFF" stroke-linejoin="round" stroke-miterlimit="10" stroke-dasharray="1 1" fill="none" fill-rule="evenodd"/><path d="M256.5 214.5 575.5 214.5" stroke="#FFFFFF" stroke-linejoin="round" stroke-miterlimit="10" stroke-dasharray="1 1" fill="none" fill-rule="evenodd"/><path d="M256.5 234.5 575.5 234.5" stroke="#FFFFFF" stroke-linejoin="round" stroke-miterlimit="10" stroke-dasharray="1 1" fill="none" fill-rule="evenodd"/><path d="M256.5 255.5 575.5 255.5" stroke="#FFFFFF" stroke-linejoin="round" stroke-miterlimit="10" stroke-dasharray="1 1" fill="none" fill-rule="evenodd"/><path d="M256.5 275.5 575.5 275.5" stroke="#FFFFFF" stroke-linejoin="round" stroke-miterlimit="10" stroke-dasharray="1 1" fill="none" fill-rule="evenodd"/><path d="M256.5 296.5 575.5 296.5" stroke="#FFFFFF" stroke-linejoin="round" stroke-miterlimit="10" stroke-dasharray="1 1" fill="none" fill-rule="evenodd"/><path d="M256.5 316.5 575.5 316.5" stroke="#FFFFFF" stroke-linejoin="round" stroke-miterlimit="10" stroke-dasharray="1 1" fill="none" fill-rule="evenodd"/><path d="M256.5 337.5 575.5 337.5" stroke="#FFFFFF" stroke-linejoin="round" stroke-miterlimit="10" stroke-dasharray="1 1" fill="none" fill-rule="evenodd"/><path d="M256.5 357.5 575.5 357.5" stroke="#FFFFFF" stroke-linejoin="round" stroke-miterlimit="10" stroke-dasharray="1 1" fill="none" fill-rule="evenodd"/><path d="M256.5 377.5 575.5 377.5" stroke="#FFFFFF" stroke-linejoin="round" stroke-miterlimit="10" stroke-dasharray="1 1" fill="none" fill-rule="evenodd"/><path d="M256.5 398.5 575.5 398.5" stroke="#FFFFFF" stroke-linejoin="round" stroke-miterlimit="10" stroke-dasharray="1 1" fill="none" fill-rule="evenodd"/><path d="M0 0 0.000104987 286" stroke="#FFFFFF" stroke-linejoin="round" stroke-miterlimit="10" stroke-dasharray="1 1" fill="none" fill-rule="evenodd" transform="matrix(1 0 0 -1 296.5 418.5)"/><path d="M0 0 0.000104987 286" stroke="#FFFFFF" stroke-linejoin="round" stroke-miterlimit="10" stroke-dasharray="1 1" fill="none" fill-rule="evenodd" transform="matrix(1 0 0 -1 316.5 418.5)"/><path d="M0 0 0.000104987 286" stroke="#FFFFFF" stroke-linejoin="round" stroke-miterlimit="10" stroke-dasharray="1 1" fill="none" fill-rule="evenodd" transform="matrix(1 0 0 -1 336.5 418.5)"/><path d="M0 0 0.000104987 286" stroke="#FFFFFF" stroke-linejoin="round" stroke-miterlimit="10" stroke-dasharray="1 1" fill="none" fill-rule="evenodd" transform="matrix(1 0 0 -1 356.5 418.5)"/><path d="M0 0 0.000104987 286" stroke="#FFFFFF" stroke-linejoin="round" stroke-miterlimit="10" stroke-dasharray="1 1" fill="none" fill-rule="evenodd" transform="matrix(1 0 0 -1 376.5 418.5)"/><path d="M0 0 0.000104987 286" stroke="#FFFFFF" stroke-linejoin="round" stroke-miterlimit="10" stroke-dasharray="1 1" fill="none" fill-rule="evenodd" transform="matrix(1 0 0 -1 396.5 418.5)"/><path d="M0 0 0.000104987 286" stroke="#FFFFFF" stroke-linejoin="round" stroke-miterlimit="10" stroke-dasharray="1 1" fill="none" fill-rule="evenodd" transform="matrix(1 0 0 -1 416.5 418.5)"/><path d="M0 0 0.000104987 286" stroke="#FFFFFF" stroke-linejoin="round" stroke-miterlimit="10" stroke-dasharray="1 1" fill="none" fill-rule="evenodd" transform="matrix(1 0 0 -1 436.5 418.5)"/><path d="M0 0 0.000104987 286" stroke="#FFFFFF" stroke-linejoin="round" stroke-miterlimit="10" stroke-dasharray="1 1" fill="none" fill-rule="evenodd" transform="matrix(1 0 0 -1 456.5 418.5)"/><path d="M0 0 0.000104987 286" stroke="#FFFFFF" stroke-linejoin="round" stroke-miterlimit="10" stroke-dasharray="1 1" fill="none" fill-rule="evenodd" transform="matrix(1 0 0 -1 475.5 418.5)"/><path d="M0 0 0.000104987 286" stroke="#FFFFFF" stroke-linejoin="round" stroke-miterlimit="10" stroke-dasharray="1 1" fill="none" fill-rule="evenodd" transform="matrix(1 0 0 -1 495.5 418.5)"/><path d="M0 0 0.000104987 286" stroke="#FFFFFF" stroke-linejoin="round" stroke-miterlimit="10" stroke-dasharray="1 1" fill="none" fill-rule="evenodd" transform="matrix(1 0 0 -1 515.5 418.5)"/><path d="M0 0 0.000104987 286" stroke="#FFFFFF" stroke-linejoin="round" stroke-miterlimit="10" stroke-dasharray="1 1" fill="none" fill-rule="evenodd" transform="matrix(1 0 0 -1 535.5 418.5)"/><path d="M0 0 0.000104987 286" stroke="#FFFFFF" stroke-linejoin="round" stroke-miterlimit="10" stroke-dasharray="1 1" fill="none" fill-rule="evenodd" transform="matrix(1 0 0 -1 276.5 418.5)"/><path d="M0 0 0.000104987 286" stroke="#FFFFFF" stroke-linejoin="round" stroke-miterlimit="10" stroke-dasharray="1 1" fill="none" fill-rule="evenodd" transform="matrix(1 0 0 -1 555.5 418.5)"/><path d="M336.5 275.5 495.5 275.5" stroke="#000000" stroke-width="4.66667" stroke-linejoin="round" stroke-miterlimit="10" fill="none" fill-rule="evenodd"/><path d="M0 0 0.000104987 143" stroke="#000000" stroke-width="4.66667" stroke-linejoin="round" stroke-miterlimit="10" fill="none" fill-rule="evenodd" transform="matrix(1 0 0 -1 416.5 418.5)"/><path d="M336.5 194.5 336.5 357.5" stroke="#000000" stroke-width="4.66667" stroke-linejoin="round" stroke-miterlimit="10" fill="none" fill-rule="evenodd"/><path d="M495.5 194.5 495.5 357.5" stroke="#000000" stroke-width="4.66667" stroke-linejoin="round" stroke-miterlimit="10" fill="none" fill-rule="evenodd"/><path d="M296.5 357.5 376.5 357.5" stroke="#000000" stroke-width="4.66667" stroke-linejoin="round" stroke-miterlimit="10" fill="none" fill-rule="evenodd"/><path d="M296.5 153.5 296.5 234.5" stroke="#000000" stroke-width="4.66667" stroke-linejoin="round" stroke-miterlimit="10" fill="none" fill-rule="evenodd"/><path d="M376.5 153.5 376.5 234.5" stroke="#000000" stroke-width="4.66667" stroke-linejoin="round" stroke-miterlimit="10" fill="none" fill-rule="evenodd"/><path d="M456.5 153.5 456.5 234.5" stroke="#000000" stroke-width="4.66667" stroke-linejoin="round" stroke-miterlimit="10" fill="none" fill-rule="evenodd"/><path d="M535.5 153.5 535.5 234.5" stroke="#000000" stroke-width="4.66667" stroke-linejoin="round" stroke-miterlimit="10" fill="none" fill-rule="evenodd"/><path d="M535.5 316.5 535.5 398.5" stroke="#000000" stroke-width="4.66667" stroke-linejoin="round" stroke-miterlimit="10" fill="none" fill-rule="evenodd"/><path d="M456.5 316.5 456.5 398.5" stroke="#000000" stroke-width="4.66667" stroke-linejoin="round" stroke-miterlimit="10" fill="none" fill-rule="evenodd"/><path d="M376.5 316.5 376.5 398.5" stroke="#000000" stroke-width="4.66667" stroke-linejoin="round" stroke-miterlimit="10" fill="none" fill-rule="evenodd"/><path d="M296.5 316.5 296.5 398.5" stroke="#000000" stroke-width="4.66667" stroke-linejoin="round" stroke-miterlimit="10" fill="none" fill-rule="evenodd"/><path d="M6.12423e-06-2.33333 40-2.33323 40 2.33344-6.12423e-06 2.33333ZM-1.22485e-05 4.66667C-2.57734 4.66666-4.66667 2.57732-4.66667-1.22485e-05-4.66666-2.57734-2.57732-4.66667 1.22485e-05-4.66667 2.57734-4.66666 4.66667-2.57732 4.66667 1.22485e-05 4.66666 2.57734 2.57732 4.66667-1.22485e-05 4.66667ZM40-4.66656C42.5773-4.66655 44.6667-2.57721 44.6667 0.000117235 44.6667 2.57745 42.5773 4.66678 40 4.66677 37.4227 4.66676 35.3333 2.57742 35.3333 9.27384e-05 35.3333-2.57724 37.4227-4.66657 40-4.66656Z" transform="matrix(-1 0 0 1 316.5 153.5)"/><path d="M6.12423e-06-2.33333 40-2.33323 40 2.33344-6.12423e-06 2.33333ZM-1.22485e-05 4.66667C-2.57734 4.66666-4.66667 2.57732-4.66667-1.22485e-05-4.66666-2.57734-2.57732-4.66667 1.22485e-05-4.66667 2.57734-4.66666 4.66667-2.57732 4.66667 1.22485e-05 4.66666 2.57734 2.57732 4.66667-1.22485e-05 4.66667ZM40-4.66656C42.5773-4.66655 44.6667-2.57721 44.6667 0.000117235 44.6667 2.57745 42.5773 4.66678 40 4.66677 37.4227 4.66676 35.3333 2.57742 35.3333 9.27384e-05 35.3333-2.57724 37.4227-4.66657 40-4.66656Z" transform="matrix(-1 0 0 1 396.5 153.5)"/><path d="M6.12423e-06-2.33333 40-2.33323 40 2.33344-6.12423e-06 2.33333ZM-1.22485e-05 4.66667C-2.57734 4.66666-4.66667 2.57732-4.66667-1.22485e-05-4.66666-2.57734-2.57732-4.66667 1.22485e-05-4.66667 2.57734-4.66666 4.66667-2.57732 4.66667 1.22485e-05 4.66666 2.57734 2.57732 4.66667-1.22485e-05 4.66667ZM40-4.66656C42.5773-4.66655 44.6667-2.57721 44.6667 0.000117235 44.6667 2.57745 42.5773 4.66678 40 4.66677 37.4227 4.66676 35.3333 2.57742 35.3333 9.27384e-05 35.3333-2.57724 37.4227-4.66657 40-4.66656Z" transform="matrix(-1 0 0 1 316.5 234.5)"/><path d="M6.12423e-06-2.33333 40-2.33323 40 2.33344-6.12423e-06 2.33333ZM-1.22485e-05 4.66667C-2.57734 4.66666-4.66667 2.57732-4.66667-1.22485e-05-4.66666-2.57734-2.57732-4.66667 1.22485e-05-4.66667 2.57734-4.66666 4.66667-2.57732 4.66667 1.22485e-05 4.66666 2.57734 2.57732 4.66667-1.22485e-05 4.66667ZM40-4.66656C42.5773-4.66655 44.6667-2.57721 44.6667 0.000117235 44.6667 2.57745 42.5773 4.66678 40 4.66677 37.4227 4.66676 35.3333 2.57742 35.3333 9.27384e-05 35.3333-2.57724 37.4227-4.66657 40-4.66656Z" transform="matrix(-1 0 0 1 396.5 234.5)"/><path d="M6.12423e-06-2.33333 40-2.33323 40 2.33344-6.12423e-06 2.33333ZM-1.22485e-05 4.66667C-2.57734 4.66666-4.66667 2.57732-4.66667-1.22485e-05-4.66666-2.57734-2.57732-4.66667 1.22485e-05-4.66667 2.57734-4.66666 4.66667-2.57732 4.66667 1.22485e-05 4.66666 2.57734 2.57732 4.66667-1.22485e-05 4.66667ZM40-4.66656C42.5773-4.66655 44.6667-2.57721 44.6667 0.000117235 44.6667 2.57745 42.5773 4.66678 40 4.66677 37.4227 4.66676 35.3333 2.57742 35.3333 9.27384e-05 35.3333-2.57724 37.4227-4.66657 40-4.66656Z" transform="matrix(-1 0 0 1 476.5 153.5)"/><path d="M6.12423e-06-2.33333 40-2.33323 40 2.33344-6.12423e-06 2.33333ZM-1.22485e-05 4.66667C-2.57734 4.66666-4.66667 2.57732-4.66667-1.22485e-05-4.66666-2.57734-2.57732-4.66667 1.22485e-05-4.66667 2.57734-4.66666 4.66667-2.57732 4.66667 1.22485e-05 4.66666 2.57734 2.57732 4.66667-1.22485e-05 4.66667ZM40-4.66656C42.5773-4.66655 44.6667-2.57721 44.6667 0.000117235 44.6667 2.57745 42.5773 4.66678 40 4.66677 37.4227 4.66676 35.3333 2.57742 35.3333 9.27384e-05 35.3333-2.57724 37.4227-4.66657 40-4.66656Z" transform="matrix(-1 0 0 1 555.5 153.5)"/><path d="M6.12423e-06-2.33333 40-2.33323 40 2.33344-6.12423e-06 2.33333ZM-1.22485e-05 4.66667C-2.57734 4.66666-4.66667 2.57732-4.66667-1.22485e-05-4.66666-2.57734-2.57732-4.66667 1.22485e-05-4.66667 2.57734-4.66666 4.66667-2.57732 4.66667 1.22485e-05 4.66666 2.57734 2.57732 4.66667-1.22485e-05 4.66667ZM40-4.66656C42.5773-4.66655 44.6667-2.57721 44.6667 0.000117235 44.6667 2.57745 42.5773 4.66678 40 4.66677 37.4227 4.66676 35.3333 2.57742 35.3333 9.27384e-05 35.3333-2.57724 37.4227-4.66657 40-4.66656Z" transform="matrix(-1 0 0 1 555.5 234.5)"/><path d="M6.12423e-06-2.33333 40-2.33323 40 2.33344-6.12423e-06 2.33333ZM-1.22485e-05 4.66667C-2.57734 4.66666-4.66667 2.57732-4.66667-1.22485e-05-4.66666-2.57734-2.57732-4.66667 1.22485e-05-4.66667 2.57734-4.66666 4.66667-2.57732 4.66667 1.22485e-05 4.66666 2.57734 2.57732 4.66667-1.22485e-05 4.66667ZM40-4.66656C42.5773-4.66655 44.6667-2.57721 44.6667 0.000117235 44.6667 2.57745 42.5773 4.66678 40 4.66677 37.4227 4.66676 35.3333 2.57742 35.3333 9.27384e-05 35.3333-2.57724 37.4227-4.66657 40-4.66656Z" transform="matrix(-1 0 0 1 476.5 234.5)"/><path d="M6.12423e-06-2.33333 40-2.33323 40 2.33344-6.12423e-06 2.33333ZM-1.22485e-05 4.66667C-2.57734 4.66666-4.66667 2.57732-4.66667-1.22485e-05-4.66666-2.57734-2.57732-4.66667 1.22485e-05-4.66667 2.57734-4.66666 4.66667-2.57732 4.66667 1.22485e-05 4.66666 2.57734 2.57732 4.66667-1.22485e-05 4.66667ZM40-4.66656C42.5773-4.66655 44.6667-2.57721 44.6667 0.000117235 44.6667 2.57745 42.5773 4.66678 40 4.66677 37.4227 4.66676 35.3333 2.57742 35.3333 9.27384e-05 35.3333-2.57724 37.4227-4.66657 40-4.66656Z" transform="matrix(-1 0 0 1 316.5 316.5)"/><path d="M6.12423e-06-2.33333 40-2.33323 40 2.33344-6.12423e-06 2.33333ZM-1.22485e-05 4.66667C-2.57734 4.66666-4.66667 2.57732-4.66667-1.22485e-05-4.66666-2.57734-2.57732-4.66667 1.22485e-05-4.66667 2.57734-4.66666 4.66667-2.57732 4.66667 1.22485e-05 4.66666 2.57734 2.57732 4.66667-1.22485e-05 4.66667ZM40-4.66656C42.5773-4.66655 44.6667-2.57721 44.6667 0.000117235 44.6667 2.57745 42.5773 4.66678 40 4.66677 37.4227 4.66676 35.3333 2.57742 35.3333 9.27384e-05 35.3333-2.57724 37.4227-4.66657 40-4.66656Z" transform="matrix(-1 0 0 1 316.5 398.5)"/><path d="M6.12423e-06-2.33333 40-2.33323 40 2.33344-6.12423e-06 2.33333ZM-1.22485e-05 4.66667C-2.57734 4.66666-4.66667 2.57732-4.66667-1.22485e-05-4.66666-2.57734-2.57732-4.66667 1.22485e-05-4.66667 2.57734-4.66666 4.66667-2.57732 4.66667 1.22485e-05 4.66666 2.57734 2.57732 4.66667-1.22485e-05 4.66667ZM40-4.66656C42.5773-4.66655 44.6667-2.57721 44.6667 0.000117235 44.6667 2.57745 42.5773 4.66678 40 4.66677 37.4227 4.66676 35.3333 2.57742 35.3333 9.27384e-05 35.3333-2.57724 37.4227-4.66657 40-4.66656Z" transform="matrix(-1 0 0 1 396.5 316.5)"/><path d="M6.12423e-06-2.33333 40-2.33323 40 2.33344-6.12423e-06 2.33333ZM-1.22485e-05 4.66667C-2.57734 4.66666-4.66667 2.57732-4.66667-1.22485e-05-4.66666-2.57734-2.57732-4.66667 1.22485e-05-4.66667 2.57734-4.66666 4.66667-2.57732 4.66667 1.22485e-05 4.66666 2.57734 2.57732 4.66667-1.22485e-05 4.66667ZM40-4.66656C42.5773-4.66655 44.6667-2.57721 44.6667 0.000117235 44.6667 2.57745 42.5773 4.66678 40 4.66677 37.4227 4.66676 35.3333 2.57742 35.3333 9.27384e-05 35.3333-2.57724 37.4227-4.66657 40-4.66656Z" transform="matrix(-1 0 0 1 396.5 398.5)"/><path d="M6.12423e-06-2.33333 40-2.33323 40 2.33344-6.12423e-06 2.33333ZM-1.22485e-05 4.66667C-2.57734 4.66666-4.66667 2.57732-4.66667-1.22485e-05-4.66666-2.57734-2.57732-4.66667 1.22485e-05-4.66667 2.57734-4.66666 4.66667-2.57732 4.66667 1.22485e-05 4.66666 2.57734 2.57732 4.66667-1.22485e-05 4.66667ZM40-4.66656C42.5773-4.66655 44.6667-2.57721 44.6667 0.000117235 44.6667 2.57745 42.5773 4.66678 40 4.66677 37.4227 4.66676 35.3333 2.57742 35.3333 9.27384e-05 35.3333-2.57724 37.4227-4.66657 40-4.66656Z" transform="matrix(-1 0 0 1 476.5 316.5)"/><path d="M6.12423e-06-2.33333 40-2.33323 40 2.33344-6.12423e-06 2.33333ZM-1.22485e-05 4.66667C-2.57734 4.66666-4.66667 2.57732-4.66667-1.22485e-05-4.66666-2.57734-2.57732-4.66667 1.22485e-05-4.66667 2.57734-4.66666 4.66667-2.57732 4.66667 1.22485e-05 4.66666 2.57734 2.57732 4.66667-1.22485e-05 4.66667ZM40-4.66656C42.5773-4.66655 44.6667-2.57721 44.6667 0.000117235 44.6667 2.57745 42.5773 4.66678 40 4.66677 37.4227 4.66676 35.3333 2.57742 35.3333 9.27384e-05 35.3333-2.57724 37.4227-4.66657 40-4.66656Z" transform="matrix(-1 0 0 1 476.5 398.5)"/><path d="M6.12423e-06-2.33333 40-2.33323 40 2.33344-6.12423e-06 2.33333ZM-1.22485e-05 4.66667C-2.57734 4.66666-4.66667 2.57732-4.66667-1.22485e-05-4.66666-2.57734-2.57732-4.66667 1.22485e-05-4.66667 2.57734-4.66666 4.66667-2.57732 4.66667 1.22485e-05 4.66666 2.57734 2.57732 4.66667-1.22485e-05 4.66667ZM40-4.66656C42.5773-4.66655 44.6667-2.57721 44.6667 0.000117235 44.6667 2.57745 42.5773 4.66678 40 4.66677 37.4227 4.66676 35.3333 2.57742 35.3333 9.27384e-05 35.3333-2.57724 37.4227-4.66657 40-4.66656Z" transform="matrix(-1 0 0 1 555.5 316.5)"/><path d="M6.12423e-06-2.33333 40-2.33323 40 2.33344-6.12423e-06 2.33333ZM-1.22485e-05 4.66667C-2.57734 4.66666-4.66667 2.57732-4.66667-1.22485e-05-4.66666-2.57734-2.57732-4.66667 1.22485e-05-4.66667 2.57734-4.66666 4.66667-2.57732 4.66667 1.22485e-05 4.66666 2.57734 2.57732 4.66667-1.22485e-05 4.66667ZM40-4.66656C42.5773-4.66655 44.6667-2.57721 44.6667 0.000117235 44.6667 2.57745 42.5773 4.66678 40 4.66677 37.4227 4.66676 35.3333 2.57742 35.3333 9.27384e-05 35.3333-2.57724 37.4227-4.66657 40-4.66656Z" transform="matrix(-1 0 0 1 555.5 398.5)"/><path d="M296.5 194.5 376.5 194.5" stroke="#000000" stroke-width="4.66667" stroke-linejoin="round" stroke-miterlimit="10" fill="none" fill-rule="evenodd"/><path d="M456.5 194.5 535.5 194.5" stroke="#000000" stroke-width="4.66667" stroke-linejoin="round" stroke-miterlimit="10" fill="none" fill-rule="evenodd"/><path d="M456.5 357.5 535.5 357.5" stroke="#000000" stroke-width="4.66667" stroke-linejoin="round" stroke-miterlimit="10" fill="none" fill-rule="evenodd"/></g></svg>