<svg width="873" height="415" xmlns="http://www.w3.org/2000/svg" xmlns:xlink="http://www.w3.org/1999/xlink" overflow="hidden"><g transform="translate(-83 -157)"><rect x="331" y="378" width="18" height="35" fill="#EDEDED"/><rect x="162.5" y="321.5" width="28" height="26" stroke="#000000" stroke-miterlimit="8" fill="#C0C0C0"/><rect x="190.5" y="321.5" width="12" height="26" stroke="#000000" stroke-miterlimit="8" fill="#C0C0C0"/><rect x="196.5" y="321.5" width="32" height="26" stroke="#000000" stroke-miterlimit="8" fill="#C0C0C0"/><rect x="259.5" y="321.5" width="58" height="26" stroke="#000000" stroke-miterlimit="8" fill="#C0C0C0"/><rect x="317.5" y="321.5" width="23" height="26" stroke="#000000" stroke-miterlimit="8" fill="#C0C0C0"/><rect x="354.5" y="321.5" width="21" height="26" stroke="#000000" stroke-miterlimit="8" fill="#C0C0C0"/><rect x="294.5" y="378.5" width="46" height="26" stroke="#000000" stroke-miterlimit="8" fill="#C0C0C0"/><rect x="354.5" y="378.5" width="21" height="26" stroke="#000000" stroke-miterlimit="8" fill="#C0C0C0"/><rect x="256.5" y="378.5" width="52" height="41" stroke="#000000" stroke-miterlimit="8" fill="#C0C0C0"/><rect x="190.5" y="378.5" width="32" height="26" stroke="#000000" stroke-miterlimit="8" fill="#C0C0C0"/><rect x="162.5" y="378.5" width="28" height="26" stroke="#000000" stroke-miterlimit="8" fill="#C0C0C0"/><rect x="354.5" y="425.5" width="20" height="43" stroke="#000000" stroke-miterlimit="8" fill="#C0C0C0"/><rect x="162.5" y="442.5" width="34" height="40" stroke="#000000" stroke-miterlimit="8" fill="#C0C0C0"/><rect x="233.5" y="442.5" width="41" height="40" stroke="#000000" stroke-miterlimit="8" fill="#C0C0C0"/><rect x="274.5" y="442.5" width="34" height="40" stroke="#000000" stroke-miterlimit="8" fill="#C0C0C0"/><rect x="320.5" y="442.5" width="34" height="26" stroke="#000000" stroke-miterlimit="8" fill="#C0C0C0"/><rect x="334.5" y="321.5" width="20" height="26" stroke="#000000" stroke-miterlimit="8" fill="#C0C0C0"/><path d="M228.5 391.5 608.5 437.5" stroke="#000000" stroke-width="1.33333" stroke-linejoin="round" stroke-miterlimit="10" stroke-dasharray="5.33333 4" fill="none" fill-rule="evenodd"/><rect x="127.5" y="295.5" width="274" height="202" stroke="#000000" stroke-miterlimit="8" fill="none"/><rect x="87.5001" y="256.5" width="354" height="282" stroke="#000000" stroke-miterlimit="8" fill="none"/><rect x="87.5001" y="256.5" width="40" height="39" stroke="#000000" stroke-miterlimit="8" fill="none"/><rect x="401.5" y="256.5" width="40" height="39" stroke="#000000" stroke-miterlimit="8" fill="none"/><rect x="401.5" y="497.5" width="40" height="41" stroke="#000000" stroke-miterlimit="8" fill="none"/><rect x="87.5001" y="497.5" width="40" height="41" stroke="#000000" stroke-miterlimit="8" fill="none"/><rect x="130.5" y="256.5" width="35" height="39" stroke="#000000" stroke-miterlimit="8" fill="none"/><rect x="170.5" y="256.5" width="35" height="39" stroke="#000000" stroke-miterlimit="8" fill="none"/><rect x="211.5" y="256.5" width="34" height="39" stroke="#000000" stroke-miterlimit="8" fill="none"/><rect x="260.5" y="256.5" width="31" height="39" stroke="#000000" stroke-miterlimit="8" fill="none"/><rect x="296.5" y="256.5" width="31" height="39" stroke="#000000" stroke-miterlimit="8" fill="none"/><rect x="332.5" y="256.5" width="31" height="39" stroke="#000000" stroke-miterlimit="8" fill="none"/><rect x="366.5" y="256.5" width="32" height="39" stroke="#000000" stroke-miterlimit="8" fill="none"/><rect x="137.5" y="267.5" width="20" height="20" stroke="#000000" stroke-miterlimit="8"/><rect x="265.5" y="267.5" width="21" height="20" stroke="#000000" stroke-miterlimit="8"/><rect x="301.5" y="267.5" width="21" height="20" stroke="#000000" stroke-miterlimit="8"/><rect x="338.5" y="267.5" width="20" height="20" stroke="#000000" stroke-miterlimit="8"/><rect x="372.5" y="267.5" width="20" height="20" stroke="#000000" stroke-miterlimit="8"/><rect x="219.5" y="267.5" width="20" height="20" stroke="#000000" stroke-miterlimit="8"/><rect x="178.5" y="267.5" width="20" height="20" stroke="#000000" stroke-miterlimit="8"/><rect x="87.5001" y="300.5" width="40" height="25" stroke="#000000" stroke-miterlimit="8" fill="none"/><rect x="87.5001" y="468.5" width="40" height="25" stroke="#000000" stroke-miterlimit="8" fill="none"/><rect x="87.5001" y="436.5" width="40" height="25" stroke="#000000" stroke-miterlimit="8" fill="none"/><rect x="87.5001" y="393.5" width="40" height="25" stroke="#000000" stroke-miterlimit="8" fill="none"/><rect x="87.5001" y="351.5" width="40" height="25" stroke="#000000" stroke-miterlimit="8" fill="none"/><rect x="96.5001" y="302.5" width="20" height="20" stroke="#000000" stroke-miterlimit="8"/><rect x="96.5001" y="354.5" width="20" height="20" stroke="#000000" stroke-miterlimit="8"/><rect x="96.5001" y="396.5" width="20" height="21" stroke="#000000" stroke-miterlimit="8"/><rect x="96.5001" y="439.5" width="20" height="20" stroke="#000000" stroke-miterlimit="8"/><rect x="96.5001" y="471.5" width="20" height="20" stroke="#000000" stroke-miterlimit="8"/><rect x="401.5" y="316.5" width="40" height="28" stroke="#000000" stroke-miterlimit="8" fill="none"/><rect x="401.5" y="353.5" width="40" height="29" stroke="#000000" stroke-miterlimit="8" fill="none"/><rect x="401.5" y="417.5" width="40" height="28" stroke="#000000" stroke-miterlimit="8" fill="none"/><rect x="401.5" y="457.5" width="40" height="29" stroke="#000000" stroke-miterlimit="8" fill="none"/><rect x="412.5" y="462.5" width="21" height="20" stroke="#000000" stroke-miterlimit="8"/><rect x="412.5" y="422.5" width="21" height="21" stroke="#000000" stroke-miterlimit="8"/><rect x="412.5" y="359.5" width="21" height="20" stroke="#000000" stroke-miterlimit="8"/><rect x="412.5" y="322.5" width="21" height="20" stroke="#000000" stroke-miterlimit="8"/><rect x="139.5" y="497.5" width="34" height="41" stroke="#000000" stroke-miterlimit="8" fill="none"/><rect x="179.5" y="497.5" width="35" height="41" stroke="#000000" stroke-miterlimit="8" fill="none"/><rect x="228.5" y="497.5" width="34" height="41" stroke="#000000" stroke-miterlimit="8" fill="none"/><rect x="363.5" y="497.5" width="35" height="41" stroke="#000000" stroke-miterlimit="8" fill="none"/><rect x="323.5" y="497.5" width="35" height="41" stroke="#000000" stroke-miterlimit="8" fill="none"/><rect x="284.5" y="497.5" width="35" height="41" stroke="#000000" stroke-miterlimit="8" fill="none"/><rect x="146.5" y="509.5" width="20" height="20" stroke="#000000" stroke-miterlimit="8"/><rect x="186.5" y="509.5" width="20" height="20" stroke="#000000" stroke-miterlimit="8"/><rect x="235.5" y="509.5" width="20" height="20" stroke="#000000" stroke-miterlimit="8"/><rect x="291.5" y="509.5" width="21" height="20" stroke="#000000" stroke-miterlimit="8"/><rect x="330.5" y="509.5" width="20" height="20" stroke="#000000" stroke-miterlimit="8"/><rect x="370.5" y="509.5" width="21" height="20" stroke="#000000" stroke-miterlimit="8"/><rect x="723.5" y="322.5" width="61" height="13" stroke="#DFDFDF" stroke-width="0" stroke-miterlimit="8" fill="#DFDFDF"/><rect x="668.5" y="391.5" width="23" height="107" stroke="#808080" stroke-width="0" stroke-miterlimit="8" fill="#808080"/><rect x="668.5" y="391.5" width="23" height="107" stroke="#000000" stroke-width="3.33333" stroke-miterlimit="8" fill="none"/><rect x="700.5" y="351.5" width="23" height="147" stroke="#808080" stroke-width="0" stroke-miterlimit="8" fill="#808080"/><rect x="700.5" y="351.5" width="23" height="147" stroke="#000000" stroke-width="3.33333" stroke-miterlimit="8" fill="none"/><rect x="700.5" y="246.5" width="23" height="94" stroke="#808080" stroke-width="0" stroke-miterlimit="8" fill="#808080"/><rect x="700.5" y="246.5" width="23" height="94" stroke="#000000" stroke-width="3.33333" stroke-miterlimit="8" fill="none"/><rect x="665.5" y="246.5" width="24" height="129" stroke="#808080" stroke-width="0" stroke-miterlimit="8" fill="#808080"/><rect x="665.5" y="246.5" width="24" height="129" stroke="#000000" stroke-width="3.33333" stroke-miterlimit="8" fill="none"/><rect x="630.5" y="316.5" width="24" height="182" stroke="#808080" stroke-width="0" stroke-miterlimit="8" fill="#808080"/><rect x="630.5" y="316.5" width="24" height="182" stroke="#000000" stroke-width="3.33333" stroke-miterlimit="8" fill="none"/><rect x="668.5" y="386.5" width="23" height="23" stroke="#DFDFDF" stroke-width="0" stroke-miterlimit="8" fill="#DFDFDF"/><rect x="668.5" y="386.5" width="23" height="23" stroke="#000000" stroke-width="3.33333" stroke-miterlimit="8" fill="none"/><rect x="700.5" y="351.5" width="23" height="24" stroke="#DFDFDF" stroke-width="0" stroke-miterlimit="8" fill="#DFDFDF"/><rect x="700.5" y="351.5" width="23" height="24" stroke="#000000" stroke-width="3.33333" stroke-miterlimit="8" fill="none"/><rect x="665.5" y="351.5" width="24" height="24" stroke="#DFDFDF" stroke-width="0" stroke-miterlimit="8" fill="#DFDFDF"/><rect x="665.5" y="351.5" width="24" height="24" stroke="#000000" stroke-width="3.33333" stroke-miterlimit="8" fill="none"/><rect x="700.5" y="316.5" width="23" height="24" stroke="#DFDFDF" stroke-width="0" stroke-miterlimit="8" fill="#DFDFDF"/><rect x="700.5" y="316.5" width="23" height="24" stroke="#000000" stroke-width="3.33333" stroke-miterlimit="8" fill="none"/><rect x="630.5" y="316.5" width="24" height="24" stroke="#DFDFDF" stroke-width="0" stroke-miterlimit="8" fill="#DFDFDF"/><rect x="630.5" y="316.5" width="24" height="24" stroke="#000000" stroke-width="3.33333" stroke-miterlimit="8" fill="none"/><rect x="689.5" y="357.5" width="11" height="12" stroke="#DFDFDF" stroke-width="0" stroke-miterlimit="8" fill="#DFDFDF"/><rect x="689.5" y="357.5" width="11" height="12" stroke="#000000" stroke-width="3.33333" stroke-miterlimit="8" fill="none"/><rect x="549.5" y="391.5" width="116" height="11" stroke="#DFDFDF" stroke-width="0" stroke-miterlimit="8" fill="#DFDFDF"/><rect x="722.5" y="358.5" width="68" height="11" stroke="#000000" stroke-width="3.33333" stroke-miterlimit="8" fill="#EAEAEA"/><rect x="549.5" y="357.5" width="116" height="12" stroke="#DFDFDF" stroke-width="0" stroke-miterlimit="8" fill="#DFDFDF"/><rect x="549.5" y="357.5" width="116" height="12" stroke="#000000" stroke-width="3.33333" stroke-miterlimit="8" fill="none"/><rect x="654.5" y="322.5" width="46" height="12" stroke="#DFDFDF" stroke-width="0" stroke-miterlimit="8" fill="#DFDFDF"/><rect x="654.5" y="322.5" width="46" height="12" stroke="#000000" stroke-width="3.33333" stroke-miterlimit="8" fill="none"/><rect x="723.5" y="322.5" width="61" height="13" stroke="#000000" stroke-width="3.33333" stroke-miterlimit="8" fill="none"/><rect x="674.5" y="391.5" width="11" height="12" stroke="#000000" stroke-width="0" stroke-miterlimit="8"/><rect x="674.5" y="391.5" width="11" height="12" stroke="#000000" stroke-width="3.33333" stroke-miterlimit="8" fill="none"/><rect x="706.5" y="357.5" width="12" height="12" stroke="#000000" stroke-width="0" stroke-miterlimit="8"/><rect x="706.5" y="357.5" width="12" height="12" stroke="#000000" stroke-width="3.33333" stroke-miterlimit="8" fill="none"/><rect x="671.5" y="357.5" width="12" height="12" stroke="#000000" stroke-width="0" stroke-miterlimit="8"/><rect x="671.5" y="357.5" width="12" height="12" stroke="#000000" stroke-width="3.33333" stroke-miterlimit="8" fill="none"/><rect x="706.5" y="322.5" width="12" height="12" stroke="#000000" stroke-width="0" stroke-miterlimit="8"/><rect x="706.5" y="322.5" width="12" height="12" stroke="#000000" stroke-width="3.33333" stroke-miterlimit="8" fill="none"/><rect x="636.5" y="322.5" width="12" height="12" stroke="#000000" stroke-width="0" stroke-miterlimit="8"/><rect x="636.5" y="322.5" width="12" height="12" stroke="#000000" stroke-width="3.33333" stroke-miterlimit="8" fill="none"/><rect x="549.5" y="391.5" width="119" height="11" stroke="#000000" stroke-width="3.33333" stroke-miterlimit="8" fill="none"/><text font-family="Arial,Arial_MSFontService,sans-serif" font-weight="700" font-size="23" transform="translate(673.83 459)">A</text><text font-family="Arial,Arial_MSFontService,sans-serif" font-weight="700" font-size="23" transform="translate(706.664 459)">B</text><text font-family="Arial,Arial_MSFontService,sans-serif" font-weight="700" font-size="23" transform="translate(635.33 459)">C</text><rect x="658" y="428" width="6" height="114" fill="#EDEDED"/><rect x="761" y="427" width="5" height="104" fill="#EDEDED"/><path d="M551.842 478.745C558.268 474.089 564.323 469.691 570.872 465.552 586.071 466.587 601.765 469.174 616.717 475.9 624.131 479.263 630.186 489.093 637.847 491.938 646.992 490.645 655.518 486.247 664.662 484.695 672.571 481.849 680.726 481.073 688.511 477.193 696.543 473.054 699.509 467.363 708.283 465.552 718.662 466.069 729.042 464.776 739.299 466.846 747.331 468.398 744.242 471.502 748.443 475.9 755.857 483.66 764.26 485.988 772.416 487.541 778.841 486.506 785.885 486.506 792.187 483.143 799.725 479.004 807.016 473.054 814.677 469.95 820.114 467.622 819.496 468.398 826.045 466.846 829.752 466.069 837.29 464 837.29 464 850.512 465.035 862.499 468.915 875.35 471.243 884 475.9 877.574 498.664 879.551 514.185 866.824 523.498 845.075 520.911 833.089 521.429 806.521 531 791.816 523.757 756.228 522.981 740.164 521.17 724.347 516.513 708.283 514.185 698.397 509.788 688.017 508.753 678.008 506.683 674.301 505.907 666.763 503.838 666.763 503.838 626.479 504.873 588.543 503.062 549 495.042 551.101 488.834 550.112 478.745 551.842 478.745Z" fill="#EDEDED" fill-rule="evenodd"/><path d="M784.829 523.956C781.336 520.005 778.039 516.282 774.897 512.226 774.918 502.302 775.984 491.982 779.929 481.946 781.905 476.967 788.387 472.562 789.995 467.448 788.691 461.569 785.282 456.241 783.8 450.375 781.485 445.374 780.582 440.113 777.561 435.241 774.352 430.222 770.305 428.568 768.663 422.956 768.547 416.187 767.187 409.506 768.144 402.743 768.847 397.451 771.121 399.309 773.953 396.368 778.951 391.179 780.17 385.608 780.867 380.235 779.865 376.11 779.545 371.534 776.948 367.602 773.76 362.903 769.34 358.452 766.859 353.624 765.011 350.204 765.573 350.568 764.209 346.387 763.507 344.016 761.743 339.219 761.743 339.219 761.854 330.579 763.978 322.606 764.995 314.145 767.803 308.302 783.743 311.384 794.322 309.354 801.301 317.176 800.509 331.429 801.409 339.191 809.193 355.992 804.881 365.893 805.963 389.051 805.447 399.574 802.964 410.073 802.092 420.621 799.518 427.254 799.277 434.048 798.309 440.65 797.944 443.095 796.863 448.092 796.863 448.092 799.402 474.213 799.878 498.945 796.16 525.02 791.797 523.953 784.907 525.08 784.829 523.956Z" fill="#EDEDED" fill-rule="evenodd"/><path d="M948.496 322.692C941.287 325.777 934.492 328.694 927.284 331.247 913.023 326.793 898.65 320.714 885.944 310.765 879.649 305.805 876.15 294.845 869.5 290.333 860.476 289.522 851.323 291.879 842.239 291.321 834.035 292.304 826.074 291.212 817.748 293.233 809.126 295.449 804.978 300.328 796.188 300.106 786.405 297.249 776.202 296.158 766.897 291.815 759.593 288.481 763.26 286.154 760.27 280.912 754.995 271.663 747.517 267.487 740.096 264.125 733.726 263.678 727.006 262.082 720.214 263.934 712.064 266.263 703.73 270.413 695.701 271.705 689.975 272.743 690.744 272.127 684.136 272.156 680.419 272.073 672.749 272.383 672.749 272.383 660.374 268.377 649.837 261.876 638.116 256.693 630.942 250.191 642.347 229.444 644.057 213.857 658.357 207.659 678.507 215.111 690.062 217.322 717.627 214.008 729.978 224.405 763.751 233.227 778.658 238.634 792.669 246.76 807.456 252.672 815.868 259.201 825.531 262.563 834.601 266.85 837.958 268.447 844.67 272.174 844.67 272.174 883.343 280.294 919.116 290.657 954.984 307.44 951.541 313.02 950.147 323.084 948.496 322.692Z" fill="#EDEDED" fill-rule="evenodd"/><path d="M654.45 240.522C656.42 246.422 658.286 251.987 659.768 257.693 653.977 265.536 646.68 272.864 636.032 277.685 630.727 280.061 620.25 278.408 615.314 281.183 613.492 286.874 614.562 293.799 612.965 299.621 612.887 305.419 610.935 310.303 611.795 316.558 612.8 323.08 616.782 327.6 615.528 333.349 611.738 338.802 609.518 345.173 604.421 349.77 600.488 353.405 598.79 350.13 593.622 350.212 584.502 350.357 579.777 353.803 575.805 357.506 574.633 361.569 572.366 365.447 573.254 370.622 574.418 376.872 577.233 383.905 577.459 389.698 577.728 393.873 577.254 393.139 576.492 397.532 575.972 399.967 575.34 405.167 575.34 405.167 570.186 411.922 562.96 416.553 556.803 422.448 549.979 424.848 532.298 409.762 518.196 402.977 514.215 391.245 523.461 380.583 526.871 373.721 527.121 354.237 538.139 349.815 550.27 330.614 557.013 322.688 566.145 316.342 573.337 308.678 580.335 305.466 584.575 300.276 589.592 295.815 591.459 294.167 595.681 291.067 595.681 291.067 607.753 268.362 621.538 248.393 641.226 230.69 645.936 234.996 655.007 239.57 654.45 240.522Z" fill="#EDEDED" fill-rule="evenodd"/><text font-family="Arial,Arial_MSFontService,sans-serif" font-weight="700" font-size="23" transform="translate(782.33 335)">C</text><text font-family="Arial,Arial_MSFontService,sans-serif" font-weight="700" font-size="23" transform="translate(783.164 371)">B</text><text font-family="Arial,Arial_MSFontService,sans-serif" font-weight="700" font-size="23" transform="translate(558.664 403)">A</text><text font-family="Arial,Arial_MSFontService,sans-serif" font-weight="700" font-size="23" transform="translate(558.664 368)">B</text><path d="M554 419.498C556.468 419.871 557.826 420.12 560.664 420.245 563.872 420.618 566.711 420.494 570.043 420.245 572.881 419.622 575.349 420.12 577.94 420.991 588.43 419.996 599.166 419 609.532 420.991 612 421.489 609.655 426.219 610.272 428.708 610.149 439.536 610.272 447.004 609.532 456.588 610.026 461.567 609.902 464.554 609.779 470.279 609.902 472.395 610.026 474.386 610.026 476.502 610.026 477 609.902 475.506 609.779 475.009 609.532 474.013 608.792 473.142 608.051 472.519 605.706 470.528 602.992 469.034 600.4 467.292 598.796 466.296 597.562 464.927 596.204 463.558 595.34 462.687 591.885 461.442 590.774 461.069 586.702 459.7 582.013 458.953 578.434 456.588 577.2 454.721 576.336 453.352 575.966 451.112 576.213 447.627 576.46 446.506 575.966 442.648 575.719 440.657 573.374 438.79 572.017 437.67 568.809 435.305 565.6 433.189 562.145 431.197 559.677 429.704 556.962 429.33 555.234 426.717 554.987 423.854 554.37 422.236 554 419.498Z" fill="#C0C0C0" fill-rule="evenodd"/><path d="M739.498 477C739.871 474.532 740.12 473.174 740.245 470.336 740.618 467.128 740.494 464.289 740.245 460.957 739.622 458.119 740.12 455.651 740.991 453.06 739.996 442.57 739 431.834 740.991 421.468 741.489 419 746.219 421.345 748.708 420.728 759.536 420.851 767.004 420.728 776.588 421.468 781.567 420.974 784.554 421.098 790.279 421.221 792.395 421.098 794.386 420.974 796.502 420.974 797 420.974 795.506 421.098 795.009 421.221 794.013 421.468 793.142 422.208 792.519 422.949 790.528 425.294 789.034 428.009 787.292 430.6 786.296 432.204 784.927 433.438 783.558 434.796 782.687 435.66 781.442 439.115 781.069 440.226 779.7 444.298 778.953 448.987 776.588 452.566 774.721 453.8 773.352 454.664 771.112 455.034 767.627 454.787 766.506 454.54 762.648 455.034 760.657 455.281 758.79 457.626 757.67 458.983 755.305 462.191 753.189 465.4 751.197 468.855 749.704 471.323 749.33 474.038 746.717 475.766 743.854 476.013 742.236 476.63 739.498 477Z" fill="#C0C0C0" fill-rule="evenodd"/><rect x="574" y="229" width="314" height="73" fill="#C0C0C0"/><path d="M888.5 305.5 573.5 304.5" stroke="#000000" stroke-width="6.66667" stroke-linejoin="round" stroke-miterlimit="10" fill="none" fill-rule="evenodd"/><rect x="665" y="281" width="23" height="24" stroke="#000000" stroke-width="4" stroke-miterlimit="8" fill="#808080"/><text font-family="Arial,Arial_MSFontService,sans-serif" font-weight="700" font-size="23" transform="translate(668.33 273)">B</text><text font-family="Arial,Arial_MSFontService,sans-serif" font-weight="700" font-size="23" transform="translate(706.664 273)">C</text><rect x="657" y="184" width="5" height="118" fill="#EDEDED"/><rect x="799" y="184" width="6" height="118" fill="#EDEDED"/><rect x="700" y="280" width="23" height="24" stroke="#000000" stroke-width="4" stroke-miterlimit="8" fill="#808080"/><path d="M744 419 800 419" stroke="#000000" stroke-width="6" stroke-linejoin="round" stroke-miterlimit="10" fill="none" fill-rule="evenodd"/><path d="M553 419 609 419" stroke="#000000" stroke-width="6" stroke-linejoin="round" stroke-miterlimit="10" fill="none" fill-rule="evenodd"/><path d="M744 419 744 481" stroke="#000000" stroke-width="6" stroke-linejoin="round" stroke-miterlimit="10" fill="none" fill-rule="evenodd"/><path d="M609 419 609 481" stroke="#000000" stroke-width="6" stroke-linejoin="round" stroke-miterlimit="10" fill="none" fill-rule="evenodd"/><path d="M2.83364 9.90347C9.24013 6.77606 15.277 3.82239 21.8067 1.04247 36.9605 1.73745 52.6072 3.4749 67.5146 7.99228 74.9067 10.251 80.9436 16.8533 88.5821 18.7645 97.699 17.8958 106.2 14.9421 115.317 13.8996 123.202 11.9884 131.333 11.4672 139.095 8.861 147.103 6.08108 150.06 2.25869 158.807 1.04247 169.156 1.38996 179.505 0.521236 189.731 1.9112 197.739 2.95367 194.659 5.03861 198.848 7.99228 206.24 13.2046 214.617 14.7683 222.749 15.8108 229.155 15.1158 236.178 15.1158 242.461 12.8571 249.976 10.0772 257.245 6.08108 264.884 3.99614 270.305 2.43243 269.689 2.95367 276.218 1.9112 279.914 1.38996 287.43 0 287.43 0 300.612 0.694981 312.563 3.30116 325.376 4.86486 334 7.99228 327.594 23.2819 329.565 33.7066 316.875 39.9614 295.191 38.2239 283.241 38.5714 256.752 45 242.091 40.1351 206.609 39.6139 190.593 38.3977 174.823 35.2703 158.807 33.7066 148.951 30.7529 138.602 30.0579 128.623 28.668 124.927 28.1467 117.411 26.7568 117.411 26.7568 77.2475 27.4517 39.4246 26.2355 0 20.8494 2.09443 16.6795 1.10882 9.90347 2.83364 9.90347Z" fill="#EDEDED" fill-rule="evenodd" transform="matrix(1 0 0 -1 559 246)"/><text fill="#808080" font-family="Arial,Arial_MSFontService,sans-serif" font-weight="400" font-size="20" transform="translate(641.33 530)">Vertical</text><text fill="#808080" font-family="Arial,Arial_MSFontService,sans-serif" font-weight="400" font-size="20" transform="translate(641.33 554)">Channel</text><text fill="#808080" font-family="Arial,Arial_MSFontService,sans-serif" font-weight="400" font-size="20" transform="translate(845.497 365)">Horizontal</text><text fill="#808080" font-family="Arial,Arial_MSFontService,sans-serif" font-weight="400" font-size="20" transform="translate(845.497 389)">Channel</text><rect x="88" y="160" width="445" height="36" fill="#CCCCFF"/><text font-family="Arial,Arial_MSFontService,sans-serif" font-weight="400" font-size="23" transform="translate(96.9967 186)">T</text><text font-family="Arial,Arial_MSFontService,sans-serif" font-weight="400" font-size="23" transform="translate(109.577 186)">-</text><text font-family="Arial,Arial_MSFontService,sans-serif" font-weight="400" font-size="23" transform="translate(117.077 186)">junction (Two</text><text font-family="Arial,Arial_MSFontService,sans-serif" font-weight="400" font-size="23" transform="translate(257.157 186)">-</text><text font-family="Arial,Arial_MSFontService,sans-serif" font-weight="400" font-size="23" transform="translate(264.657 186)">layer macro cell layout)</text><rect x="229.5" y="321.5" width="31" height="26" stroke="#000000" stroke-miterlimit="8" fill="#C0C0C0"/><path d="M202.5 361.5C202.5 345.484 217.946 332.5 237 332.5 256.054 332.5 271.5 345.484 271.5 361.5 271.5 377.516 256.054 390.5 237 390.5 217.946 390.5 202.5 377.516 202.5 361.5Z" stroke="#000000" stroke-width="1.33333" stroke-linejoin="round" stroke-miterlimit="10" stroke-dasharray="5.33333 4" fill="none" fill-rule="evenodd"/><path d="M0 0 380 34" stroke="#000000" stroke-width="1.33333" stroke-linejoin="round" stroke-miterlimit="10" stroke-dasharray="5.33333 4" fill="none" fill-rule="evenodd" transform="matrix(1 0 0 -1 228.5 333.5)"/></g></svg>