<svg width="893" height="492" xmlns="http://www.w3.org/2000/svg" xmlns:xlink="http://www.w3.org/1999/xlink" overflow="hidden"><g transform="translate(-64 -148)"><rect x="331" y="378" width="18" height="35" fill="#EDEDED"/><rect x="162.5" y="321.5" width="28" height="26" stroke="#000000" stroke-miterlimit="8" fill="#C0C0C0"/><rect x="190.5" y="321.5" width="12" height="26" stroke="#000000" stroke-miterlimit="8" fill="#C0C0C0"/><rect x="196.5" y="321.5" width="26" height="26" stroke="#000000" stroke-miterlimit="8" fill="#C0C0C0"/><rect x="259.5" y="321.5" width="58" height="26" stroke="#000000" stroke-miterlimit="8" fill="#C0C0C0"/><rect x="317.5" y="321.5" width="23" height="26" stroke="#000000" stroke-miterlimit="8" fill="#C0C0C0"/><rect x="354.5" y="321.5" width="21" height="26" stroke="#000000" stroke-miterlimit="8" fill="#C0C0C0"/><rect x="294.5" y="378.5" width="46" height="26" stroke="#000000" stroke-miterlimit="8" fill="#C0C0C0"/><rect x="354.5" y="378.5" width="21" height="26" stroke="#000000" stroke-miterlimit="8" fill="#C0C0C0"/><rect x="256.5" y="378.5" width="52" height="41" stroke="#000000" stroke-miterlimit="8" fill="#C0C0C0"/><rect x="190.5" y="378.5" width="32" height="26" stroke="#000000" stroke-miterlimit="8" fill="#C0C0C0"/><rect x="162.5" y="378.5" width="28" height="26" stroke="#000000" stroke-miterlimit="8" fill="#C0C0C0"/><rect x="354.5" y="425.5" width="20" height="43" stroke="#000000" stroke-miterlimit="8" fill="#C0C0C0"/><rect x="162.5" y="442.5" width="34" height="40" stroke="#000000" stroke-miterlimit="8" fill="#C0C0C0"/><rect x="233.5" y="442.5" width="41" height="40" stroke="#000000" stroke-miterlimit="8" fill="#C0C0C0"/><rect x="274.5" y="442.5" width="34" height="40" stroke="#000000" stroke-miterlimit="8" fill="#C0C0C0"/><rect x="320.5" y="442.5" width="34" height="26" stroke="#000000" stroke-miterlimit="8" fill="#C0C0C0"/><rect x="334.5" y="321.5" width="20" height="26" stroke="#000000" stroke-miterlimit="8" fill="#C0C0C0"/><path d="M202.5 361.5C202.5 345.484 217.946 332.5 237 332.5 256.054 332.5 271.5 345.484 271.5 361.5 271.5 377.516 256.054 390.5 237 390.5 217.946 390.5 202.5 377.516 202.5 361.5Z" stroke="#000000" stroke-width="1.33333" stroke-linejoin="round" stroke-miterlimit="10" stroke-dasharray="5.33333 4" fill="none" fill-rule="evenodd"/><path d="M228.5 391.5 608.5 437.5" stroke="#000000" stroke-width="1.33333" stroke-linejoin="round" stroke-miterlimit="10" stroke-dasharray="5.33333 4" fill="none" fill-rule="evenodd"/><path d="M0 0 380 34" stroke="#000000" stroke-width="1.33333" stroke-linejoin="round" stroke-miterlimit="10" stroke-dasharray="5.33333 4" fill="none" fill-rule="evenodd" transform="matrix(1 0 0 -1 228.5 333.5)"/><path d="M2.92696 9.6834C9.54445 6.62548 15.7802 3.73745 22.5249 1.0193 38.1778 1.69884 54.3397 3.39768 69.7381 7.81467 77.3737 10.0232 83.6094 16.4788 91.4994 18.3475 100.917 17.4981 109.698 14.61 119.115 13.5907 127.259 11.722 135.658 11.2124 143.676 8.66409 151.948 5.94595 155.002 2.20849 164.037 1.0193 174.727 1.35907 185.417 0.509652 195.979 1.86873 204.251 2.88803 201.07 4.92664 205.397 7.81467 213.032 12.9112 221.686 14.4402 230.085 15.4595 236.702 14.7799 243.956 14.7799 250.446 12.5714 258.209 9.85328 265.717 5.94595 273.608 3.90734 279.207 2.37838 278.571 2.88803 285.315 1.86873 289.133 1.35907 296.896 0 296.896 0 310.513 0.679537 322.857 3.2278 336.092 4.75676 345 7.81467 338.383 22.7645 340.419 32.9575 327.311 39.0734 304.913 37.3745 292.569 37.7143 265.208 44 250.065 39.2432 213.414 38.7336 196.87 37.5444 180.581 34.4865 164.037 32.9575 153.857 30.0695 143.167 29.39 132.859 28.0309 129.041 27.5212 121.278 26.1622 121.278 26.1622 79.7916 26.8417 40.723 25.6525 0 20.3861 2.16341 16.3089 1.14533 9.6834 2.92696 9.6834Z" fill="#EDEDED" fill-rule="evenodd" transform="matrix(1 0 0 -1 551 190)"/><path d="M949.589 312.507C942.824 315.84 936.446 318.992 929.696 321.78 916.567 317.563 903.374 311.685 891.822 301.804 886.099 296.876 883.116 285.737 877.053 281.278 868.698 280.665 860.146 283.3 851.728 282.947 844.09 284.152 836.728 283.227 828.952 285.497 820.896 287.975 816.928 293.071 808.776 293.056 799.765 290.367 790.322 289.496 781.79 285.273 775.092 282.035 778.552 279.563 775.904 274.268 771.231 264.924 764.392 260.829 757.585 257.565 751.684 257.261 745.486 255.789 739.137 257.849 731.517 260.431 723.681 264.882 716.199 266.399 710.859 267.601 711.588 266.95 705.454 267.14 702.007 267.145 694.88 267.648 694.88 267.648 683.491 263.845 673.869 257.442 663.116 252.417 656.615 245.932 667.701 224.411 669.664 208.408 683.086 201.715 701.607 208.859 712.279 210.845 737.941 206.785 749.154 217.134 780.286 225.353 793.99 230.53 806.798 238.513 820.379 244.209 828.029 250.693 836.916 253.902 845.231 258.073 848.308 259.627 854.447 263.281 854.447 263.281 890.143 270.663 923.095 280.412 955.979 296.732 952.649 302.529 951.112 312.868 949.589 312.507Z" fill="#EDEDED" fill-rule="evenodd"/><rect x="751.5" y="320.5" width="62" height="13" stroke="#DFDFDF" stroke-width="0" stroke-miterlimit="8" fill="#DFDFDF"/><rect x="693.5" y="391.5" width="24" height="109" stroke="#808080" stroke-width="0" stroke-miterlimit="8" fill="#808080"/><rect x="693.5" y="391.5" width="24" height="109" stroke="#000000" stroke-width="3.33333" stroke-miterlimit="8" fill="none"/><rect x="727.5" y="350.5" width="24" height="150" stroke="#808080" stroke-width="0" stroke-miterlimit="8" fill="#808080"/><rect x="727.5" y="350.5" width="24" height="150" stroke="#000000" stroke-width="3.33333" stroke-miterlimit="8" fill="none"/><rect x="727.5" y="241.5" width="24" height="97" stroke="#808080" stroke-width="0" stroke-miterlimit="8" fill="#808080"/><rect x="727.5" y="241.5" width="24" height="97" stroke="#000000" stroke-width="3.33333" stroke-miterlimit="8" fill="none"/><rect x="691.5" y="241.5" width="24" height="133" stroke="#808080" stroke-width="0" stroke-miterlimit="8" fill="#808080"/><rect x="691.5" y="241.5" width="24" height="133" stroke="#000000" stroke-width="3.33333" stroke-miterlimit="8" fill="none"/><rect x="655.5" y="314.5" width="24" height="186" stroke="#808080" stroke-width="0" stroke-miterlimit="8" fill="#808080"/><rect x="655.5" y="314.5" width="24" height="186" stroke="#000000" stroke-width="3.33333" stroke-miterlimit="8" fill="none"/><rect x="693.5" y="385.5" width="24" height="24" stroke="#DFDFDF" stroke-width="0" stroke-miterlimit="8" fill="#DFDFDF"/><rect x="693.5" y="385.5" width="24" height="24" stroke="#000000" stroke-width="3.33333" stroke-miterlimit="8" fill="none"/><rect x="727.5" y="350.5" width="24" height="24" stroke="#DFDFDF" stroke-width="0" stroke-miterlimit="8" fill="#DFDFDF"/><rect x="727.5" y="350.5" width="24" height="24" stroke="#000000" stroke-width="3.33333" stroke-miterlimit="8" fill="none"/><rect x="691.5" y="350.5" width="24" height="24" stroke="#DFDFDF" stroke-width="0" stroke-miterlimit="8" fill="#DFDFDF"/><rect x="691.5" y="350.5" width="24" height="24" stroke="#000000" stroke-width="3.33333" stroke-miterlimit="8" fill="none"/><rect x="727.5" y="314.5" width="24" height="24" stroke="#DFDFDF" stroke-width="0" stroke-miterlimit="8" fill="#DFDFDF"/><rect x="727.5" y="314.5" width="24" height="24" stroke="#000000" stroke-width="3.33333" stroke-miterlimit="8" fill="none"/><rect x="655.5" y="314.5" width="24" height="24" stroke="#DFDFDF" stroke-width="0" stroke-miterlimit="8" fill="#DFDFDF"/><rect x="655.5" y="314.5" width="24" height="24" stroke="#000000" stroke-width="3.33333" stroke-miterlimit="8" fill="none"/><rect x="715.5" y="356.5" width="12" height="12" stroke="#DFDFDF" stroke-width="0" stroke-miterlimit="8" fill="#DFDFDF"/><rect x="715.5" y="356.5" width="12" height="12" stroke="#000000" stroke-width="3.33333" stroke-miterlimit="8" fill="none"/><rect x="571.5" y="391.5" width="119" height="11" stroke="#DFDFDF" stroke-width="0" stroke-miterlimit="8" fill="#DFDFDF"/><rect x="749.5" y="356.5" width="70" height="12" stroke="#000000" stroke-width="3.33333" stroke-miterlimit="8" fill="#EAEAEA"/><rect x="571.5" y="356.5" width="120" height="12" stroke="#DFDFDF" stroke-width="0" stroke-miterlimit="8" fill="#DFDFDF"/><rect x="571.5" y="356.5" width="120" height="12" stroke="#000000" stroke-width="3.33333" stroke-miterlimit="8" fill="none"/><rect x="679.5" y="320.5" width="48" height="12" stroke="#DFDFDF" stroke-width="0" stroke-miterlimit="8" fill="#DFDFDF"/><rect x="679.5" y="320.5" width="48" height="12" stroke="#000000" stroke-width="3.33333" stroke-miterlimit="8" fill="none"/><rect x="751.5" y="320.5" width="62" height="13" stroke="#000000" stroke-width="3.33333" stroke-miterlimit="8" fill="none"/><rect x="699.5" y="391.5" width="13" height="12" stroke="#000000" stroke-width="0" stroke-miterlimit="8"/><rect x="699.5" y="391.5" width="13" height="12" stroke="#000000" stroke-width="3.33333" stroke-miterlimit="8" fill="none"/><rect x="733.5" y="356.5" width="12" height="12" stroke="#000000" stroke-width="0" stroke-miterlimit="8"/><rect x="733.5" y="356.5" width="12" height="12" stroke="#000000" stroke-width="3.33333" stroke-miterlimit="8" fill="none"/><rect x="697.5" y="356.5" width="12" height="12" stroke="#000000" stroke-width="0" stroke-miterlimit="8"/><rect x="697.5" y="356.5" width="12" height="12" stroke="#000000" stroke-width="3.33333" stroke-miterlimit="8" fill="none"/><rect x="733.5" y="320.5" width="12" height="12" stroke="#000000" stroke-width="0" stroke-miterlimit="8"/><rect x="733.5" y="320.5" width="12" height="12" stroke="#000000" stroke-width="3.33333" stroke-miterlimit="8" fill="none"/><rect x="661.5" y="320.5" width="12" height="12" stroke="#000000" stroke-width="0" stroke-miterlimit="8"/><rect x="661.5" y="320.5" width="12" height="12" stroke="#000000" stroke-width="3.33333" stroke-miterlimit="8" fill="none"/><rect x="571.5" y="391.5" width="122" height="11" stroke="#000000" stroke-width="3.33333" stroke-miterlimit="8" fill="none"/><text font-family="Arial,Arial_MSFontService,sans-serif" font-weight="700" font-size="23" transform="translate(699.164 461)">A</text><text font-family="Arial,Arial_MSFontService,sans-serif" font-weight="700" font-size="23" transform="translate(695.664 288)">B</text><text font-family="Arial,Arial_MSFontService,sans-serif" font-weight="700" font-size="23" transform="translate(733.164 461)">B</text><text font-family="Arial,Arial_MSFontService,sans-serif" font-weight="700" font-size="23" transform="translate(660.664 461)">C</text><text font-family="Arial,Arial_MSFontService,sans-serif" font-weight="700" font-size="23" transform="translate(733.164 288)">C</text><rect x="684" y="428" width="5" height="118" fill="#EDEDED"/><rect x="789" y="428" width="6" height="107" fill="#EDEDED"/><rect x="646" y="169" width="6" height="121" fill="#EDEDED"/><path d="M573.918 481.185C580.517 476.39 586.734 471.861 593.46 467.598 609.067 468.664 625.182 471.328 640.536 478.255 648.149 481.718 654.367 491.842 662.234 494.772 671.624 493.44 680.38 488.911 689.769 487.313 697.89 484.382 706.265 483.583 714.259 479.587 722.507 475.324 725.553 469.463 734.562 467.598 745.221 468.131 755.879 466.799 766.411 468.931 774.659 470.529 771.487 473.726 775.801 478.255 783.415 486.247 792.043 488.645 800.418 490.243 807.016 489.178 814.249 489.178 820.72 485.714 828.461 481.452 835.947 475.324 843.814 472.127 849.398 469.73 848.763 470.529 855.488 468.931 859.295 468.131 867.035 466 867.035 466 880.613 467.066 892.921 471.062 906.118 473.459 915 478.255 908.402 501.699 910.432 517.683 897.362 527.274 875.029 524.61 862.721 525.143 835.44 535 820.34 527.541 783.795 526.741 767.299 524.876 751.058 520.081 734.562 517.683 724.411 513.154 713.752 512.089 703.474 509.958 699.667 509.158 691.927 507.027 691.927 507.027 650.56 508.093 611.605 506.228 571 497.969 573.157 491.575 572.142 481.185 573.918 481.185Z" fill="#EDEDED" fill-rule="evenodd"/><path d="M813.704 527.425C810.1 523.363 806.696 519.536 803.453 515.367 803.479 505.162 804.582 494.55 808.658 484.228 810.699 479.109 817.393 474.577 819.055 469.318 817.711 463.273 814.192 457.795 812.664 451.764 810.275 446.622 809.344 441.212 806.227 436.204 802.915 431.043 798.737 429.344 797.043 423.573 796.926 416.613 795.524 409.743 796.514 402.789 797.241 397.347 799.588 399.257 802.513 396.232 807.675 390.894 808.935 385.166 809.657 379.641 808.622 375.399 808.294 370.694 805.613 366.651 802.324 361.821 797.761 357.245 795.201 352.281 793.295 348.764 793.874 349.138 792.467 344.84 791.743 342.402 789.923 337.469 789.923 337.469 790.041 328.586 792.235 320.386 793.288 311.686 796.189 305.676 812.645 308.841 823.569 306.751 830.772 314.792 829.951 329.448 830.877 337.43 838.909 354.703 834.455 364.886 835.564 388.698 835.028 399.519 832.462 410.316 831.559 421.163 828.899 427.984 828.648 434.97 827.647 441.759 827.269 444.274 826.152 449.412 826.152 449.412 828.765 476.271 829.25 501.703 825.403 528.516 820.899 527.42 813.785 528.581 813.704 527.425Z" fill="#EDEDED" fill-rule="evenodd"/><path d="M679.673 235.581C681.694 241.648 683.607 247.369 685.126 253.236 679.169 261.307 671.666 268.849 660.719 273.814 655.266 276.262 644.5 274.569 639.427 277.427 637.55 283.281 638.645 290.402 636.999 296.391 636.915 302.354 634.905 307.378 635.785 313.81 636.813 320.517 640.902 325.163 639.61 331.077 635.71 336.687 633.424 343.241 628.183 347.973 624.139 351.714 622.396 348.346 617.085 348.435 607.713 348.59 602.855 352.137 598.77 355.948 597.564 360.128 595.231 364.118 596.14 369.44 597.332 375.867 600.219 383.097 600.448 389.055 600.721 393.348 600.235 392.594 599.448 397.113 598.912 399.617 598.259 404.966 598.259 404.966 592.958 411.917 585.529 416.684 579.197 422.751 572.182 425.225 554.024 409.722 539.537 402.754 535.454 390.691 544.963 379.719 548.473 372.659 548.744 352.622 560.069 348.066 572.549 328.31 579.484 320.154 588.873 313.62 596.269 305.734 603.463 302.425 607.823 297.084 612.983 292.493 614.903 290.797 619.244 287.606 619.244 287.606 631.666 264.246 645.846 243.7 666.091 225.479 670.927 229.904 680.246 234.601 679.673 235.581Z" fill="#EDEDED" fill-rule="evenodd"/><text font-family="Arial,Arial_MSFontService,sans-serif" font-weight="700" font-size="23" transform="translate(812.164 335)">3</text><text font-family="Arial,Arial_MSFontService,sans-serif" font-weight="700" font-size="23" transform="translate(812.164 370)">B</text><text font-family="Arial,Arial_MSFontService,sans-serif" font-weight="700" font-size="23" transform="translate(576.83 404)">A</text><text font-family="Arial,Arial_MSFontService,sans-serif" font-weight="700" font-size="23" transform="translate(576.83 369)">B</text><path d="M577 420.506C579.511 420.886 580.891 421.139 583.779 421.266 587.043 421.646 589.93 421.519 593.319 421.266 596.206 420.633 598.717 421.139 601.353 422.026 612.023 421.013 622.945 420 633.489 422.026 636 422.532 633.615 427.343 634.243 429.876 634.117 440.891 634.243 448.487 633.489 458.236 633.992 463.3 633.866 466.339 633.74 472.163 633.866 474.315 633.992 476.341 633.992 478.494 633.992 479 633.866 477.481 633.74 476.974 633.489 475.961 632.736 475.075 631.983 474.442 629.598 472.416 626.836 470.897 624.2 469.124 622.568 468.112 621.313 466.719 619.932 465.326 619.053 464.44 615.538 463.174 614.409 462.794 610.266 461.401 605.496 460.642 601.855 458.236 600.6 456.337 599.721 454.944 599.345 452.665 599.596 449.12 599.847 447.981 599.345 444.056 599.094 442.03 596.708 440.131 595.328 438.991 592.064 436.586 588.8 434.433 585.285 432.408 582.774 430.888 580.013 430.509 578.255 427.85 578.004 424.938 577.377 423.292 577 420.506Z" fill="#C0C0C0" fill-rule="evenodd"/><path d="M767.506 479C767.886 476.489 768.139 475.109 768.266 472.221 768.646 468.957 768.519 466.07 768.266 462.681 767.633 459.794 768.139 457.283 769.026 454.647 768.013 443.977 767 433.055 769.026 422.511 769.532 420 774.343 422.385 776.876 421.757 787.891 421.883 795.487 421.757 805.236 422.511 810.3 422.009 813.339 422.134 819.163 422.26 821.315 422.134 823.341 422.009 825.494 422.009 826 422.009 824.481 422.134 823.974 422.26 822.961 422.511 822.075 423.264 821.442 424.017 819.416 426.402 817.897 429.164 816.124 431.8 815.112 433.432 813.719 434.687 812.326 436.068 811.44 436.947 810.174 440.462 809.794 441.591 808.401 445.734 807.642 450.504 805.236 454.145 803.337 455.4 801.944 456.279 799.665 456.655 796.12 456.404 794.981 456.153 791.056 456.655 789.03 456.906 787.131 459.292 785.991 460.672 783.586 463.936 781.433 467.2 779.408 470.715 777.888 473.226 777.509 475.987 774.85 477.745 771.938 477.996 770.292 478.623 767.506 479Z" fill="#C0C0C0" fill-rule="evenodd"/><path d="M826 305.494C823.489 305.114 822.109 304.861 819.221 304.734 815.957 304.354 813.07 304.481 809.681 304.734 806.794 305.367 804.283 304.861 801.647 303.974 790.977 304.987 780.055 306 769.511 303.974 767 303.468 769.385 298.657 768.757 296.124 768.883 285.109 768.757 277.513 769.511 267.764 769.008 262.7 769.134 259.661 769.26 253.837 769.134 251.685 769.008 249.659 769.008 247.506 769.008 247 769.134 248.519 769.26 249.026 769.511 250.039 770.264 250.925 771.017 251.558 773.402 253.584 776.164 255.103 778.8 256.876 780.432 257.888 781.687 259.281 783.068 260.674 783.947 261.56 787.462 262.826 788.591 263.206 792.734 264.599 797.504 265.358 801.145 267.764 802.4 269.663 803.279 271.056 803.655 273.335 803.404 276.88 803.153 278.019 803.655 281.944 803.906 283.97 806.292 285.869 807.672 287.009 810.936 289.414 814.2 291.567 817.715 293.592 820.226 295.112 822.987 295.491 824.745 298.15 824.996 301.062 825.623 302.708 826 305.494Z" fill="#C0C0C0" fill-rule="evenodd"/><path d="M635.485 247C635.099 249.511 634.841 250.892 634.712 253.779 634.326 257.043 634.455 259.93 634.712 263.319 635.356 266.206 634.841 268.717 633.94 271.353 634.97 282.023 636 292.945 633.94 303.489 633.425 306 628.532 303.615 625.957 304.243 614.755 304.117 607.03 304.243 597.116 303.489 591.966 303.992 588.875 303.866 582.953 303.74 580.764 303.866 578.704 303.992 576.515 303.992 576 303.992 577.545 303.866 578.06 303.74 579.09 303.489 579.991 302.736 580.635 301.983 582.695 299.598 584.24 296.836 586.043 294.2 587.073 292.568 588.489 291.313 589.906 289.932 590.807 289.053 592.094 285.538 592.481 284.409 593.897 280.266 594.669 275.496 597.116 271.855 599.047 270.6 600.463 269.721 602.781 269.345 606.386 269.596 607.545 269.847 611.536 269.345 613.596 269.094 615.528 266.709 616.687 265.328 619.133 262.064 621.322 258.8 623.382 255.285 624.927 252.775 625.313 250.013 628.017 248.255 630.978 248.004 632.652 247.377 635.485 247Z" fill="#C0C0C0" fill-rule="evenodd"/><rect x="629" y="299" width="155" height="138" stroke="#000000" stroke-width="6" stroke-miterlimit="8" fill="none"/><text fill="#808080" font-family="Arial,Arial_MSFontService,sans-serif" font-weight="400" font-size="20" transform="translate(671.497 530)">Vertical</text><text fill="#808080" font-family="Arial,Arial_MSFontService,sans-serif" font-weight="400" font-size="20" transform="translate(671.497 554)">Channel</text><text fill="#808080" font-family="Arial,Arial_MSFontService,sans-serif" font-weight="400" font-size="20" transform="translate(671.497 188)">Vertical</text><text fill="#808080" font-family="Arial,Arial_MSFontService,sans-serif" font-weight="400" font-size="20" transform="translate(671.497 212)">Channel</text><text fill="#808080" font-family="Arial,Arial_MSFontService,sans-serif" font-weight="400" font-size="20" transform="translate(845.497 365)">Horizontal</text><text fill="#808080" font-family="Arial,Arial_MSFontService,sans-serif" font-weight="400" font-size="20" transform="translate(845.497 389)">Channel</text><text fill="#808080" font-family="Arial,Arial_MSFontService,sans-serif" font-weight="400" font-size="20" transform="translate(470.164 361)">Horizontal</text><text fill="#808080" font-family="Arial,Arial_MSFontService,sans-serif" font-weight="400" font-size="20" transform="translate(470.164 385)">Channel</text><rect x="127.5" y="295.5" width="274" height="202" stroke="#000000" stroke-miterlimit="8" fill="none"/><rect x="87.5001" y="256.5" width="354" height="282" stroke="#000000" stroke-miterlimit="8" fill="none"/><rect x="87.5001" y="256.5" width="40" height="39" stroke="#000000" stroke-miterlimit="8" fill="none"/><rect x="401.5" y="256.5" width="40" height="39" stroke="#000000" stroke-miterlimit="8" fill="none"/><rect x="401.5" y="497.5" width="40" height="41" stroke="#000000" stroke-miterlimit="8" fill="none"/><rect x="87.5001" y="497.5" width="40" height="41" stroke="#000000" stroke-miterlimit="8" fill="none"/><rect x="130.5" y="256.5" width="35" height="39" stroke="#000000" stroke-miterlimit="8" fill="none"/><rect x="170.5" y="256.5" width="35" height="39" stroke="#000000" stroke-miterlimit="8" fill="none"/><rect x="211.5" y="256.5" width="34" height="39" stroke="#000000" stroke-miterlimit="8" fill="none"/><rect x="260.5" y="256.5" width="31" height="39" stroke="#000000" stroke-miterlimit="8" fill="none"/><rect x="296.5" y="256.5" width="31" height="39" stroke="#000000" stroke-miterlimit="8" fill="none"/><rect x="332.5" y="256.5" width="31" height="39" stroke="#000000" stroke-miterlimit="8" fill="none"/><rect x="366.5" y="256.5" width="32" height="39" stroke="#000000" stroke-miterlimit="8" fill="none"/><rect x="137.5" y="267.5" width="20" height="20" stroke="#000000" stroke-miterlimit="8"/><rect x="265.5" y="267.5" width="21" height="20" stroke="#000000" stroke-miterlimit="8"/><rect x="301.5" y="267.5" width="21" height="20" stroke="#000000" stroke-miterlimit="8"/><rect x="338.5" y="267.5" width="20" height="20" stroke="#000000" stroke-miterlimit="8"/><rect x="372.5" y="267.5" width="20" height="20" stroke="#000000" stroke-miterlimit="8"/><rect x="219.5" y="267.5" width="20" height="20" stroke="#000000" stroke-miterlimit="8"/><rect x="178.5" y="267.5" width="20" height="20" stroke="#000000" stroke-miterlimit="8"/><rect x="87.5001" y="300.5" width="40" height="25" stroke="#000000" stroke-miterlimit="8" fill="none"/><rect x="87.5001" y="468.5" width="40" height="25" stroke="#000000" stroke-miterlimit="8" fill="none"/><rect x="87.5001" y="436.5" width="40" height="25" stroke="#000000" stroke-miterlimit="8" fill="none"/><rect x="87.5001" y="393.5" width="40" height="25" stroke="#000000" stroke-miterlimit="8" fill="none"/><rect x="87.5001" y="351.5" width="40" height="25" stroke="#000000" stroke-miterlimit="8" fill="none"/><rect x="96.5001" y="302.5" width="20" height="20" stroke="#000000" stroke-miterlimit="8"/><rect x="96.5001" y="354.5" width="20" height="20" stroke="#000000" stroke-miterlimit="8"/><rect x="96.5001" y="396.5" width="20" height="21" stroke="#000000" stroke-miterlimit="8"/><rect x="96.5001" y="439.5" width="20" height="20" stroke="#000000" stroke-miterlimit="8"/><rect x="96.5001" y="471.5" width="20" height="20" stroke="#000000" stroke-miterlimit="8"/><rect x="401.5" y="316.5" width="40" height="28" stroke="#000000" stroke-miterlimit="8" fill="none"/><rect x="401.5" y="353.5" width="40" height="29" stroke="#000000" stroke-miterlimit="8" fill="none"/><rect x="401.5" y="417.5" width="40" height="28" stroke="#000000" stroke-miterlimit="8" fill="none"/><rect x="401.5" y="457.5" width="40" height="29" stroke="#000000" stroke-miterlimit="8" fill="none"/><rect x="412.5" y="462.5" width="21" height="20" stroke="#000000" stroke-miterlimit="8"/><rect x="412.5" y="422.5" width="21" height="21" stroke="#000000" stroke-miterlimit="8"/><rect x="412.5" y="359.5" width="21" height="20" stroke="#000000" stroke-miterlimit="8"/><rect x="412.5" y="322.5" width="21" height="20" stroke="#000000" stroke-miterlimit="8"/><rect x="139.5" y="497.5" width="34" height="41" stroke="#000000" stroke-miterlimit="8" fill="none"/><rect x="179.5" y="497.5" width="35" height="41" stroke="#000000" stroke-miterlimit="8" fill="none"/><rect x="228.5" y="497.5" width="34" height="41" stroke="#000000" stroke-miterlimit="8" fill="none"/><rect x="363.5" y="497.5" width="35" height="41" stroke="#000000" stroke-miterlimit="8" fill="none"/><rect x="323.5" y="497.5" width="35" height="41" stroke="#000000" stroke-miterlimit="8" fill="none"/><rect x="284.5" y="497.5" width="35" height="41" stroke="#000000" stroke-miterlimit="8" fill="none"/><rect x="146.5" y="509.5" width="20" height="20" stroke="#000000" stroke-miterlimit="8"/><rect x="186.5" y="509.5" width="20" height="20" stroke="#000000" stroke-miterlimit="8"/><rect x="235.5" y="509.5" width="20" height="20" stroke="#000000" stroke-miterlimit="8"/><rect x="291.5" y="509.5" width="21" height="20" stroke="#000000" stroke-miterlimit="8"/><rect x="330.5" y="509.5" width="20" height="20" stroke="#000000" stroke-miterlimit="8"/><rect x="370.5" y="509.5" width="21" height="20" stroke="#000000" stroke-miterlimit="8"/><rect x="88" y="160" width="445" height="36" fill="#CCCCFF"/><text font-family="Arial,Arial_MSFontService,sans-serif" font-weight="400" font-size="23" transform="translate(96.9967 186)">Switchbox (Two</text><text font-family="Arial,Arial_MSFontService,sans-serif" font-weight="400" font-size="23" transform="translate(262.243 186)">-</text><text font-family="Arial,Arial_MSFontService,sans-serif" font-weight="400" font-size="23" transform="translate(269.743 186)">layer macro cell layout)</text><text font-family="Arial,Arial_MSFontService,sans-serif" font-weight="400" font-size="23" transform="translate(84.2292 223)">Intersection of horizontal and vertical channels</text><text font-family="Arial,Arial_MSFontService,sans-serif" font-weight="400" font-size="23" transform="translate(84.7291 601)">Horizontal channel is routed after vertical channel is routed</text></g></svg>