<svg width="744" height="367" xmlns="http://www.w3.org/2000/svg" xmlns:xlink="http://www.w3.org/1999/xlink" overflow="hidden"><g transform="translate(-43 -131)"><rect x="141" y="208" width="190" height="170" fill="#EDD1D1"/><rect x="604" y="275" width="75" height="85" fill="#EDD1D1"/><rect x="220.5" y="321.5" width="30" height="134" stroke="#808080" stroke-width="0" stroke-miterlimit="8" fill="#808080"/><rect x="291.5" y="234.5" width="76" height="17" stroke="#DFDFDF" stroke-width="0" stroke-miterlimit="8" fill="#DFDFDF"/><rect x="220.5" y="321.5" width="30" height="134" stroke="#000000" stroke-width="3.33333" stroke-miterlimit="8" fill="none"/><rect x="261.5" y="271.5" width="30" height="184" stroke="#808080" stroke-width="0" stroke-miterlimit="8" fill="#808080"/><rect x="261.5" y="271.5" width="30" height="184" stroke="#000000" stroke-width="3.33333" stroke-miterlimit="8" fill="none"/><rect x="261.5" y="138.5" width="30" height="119" stroke="#808080" stroke-width="0" stroke-miterlimit="8" fill="#808080"/><rect x="261.5" y="138.5" width="30" height="119" stroke="#000000" stroke-width="3.33333" stroke-miterlimit="8" fill="none"/><rect x="217.5" y="138.5" width="30" height="162" stroke="#808080" stroke-width="0" stroke-miterlimit="8" fill="#808080"/><rect x="217.5" y="138.5" width="30" height="162" stroke="#000000" stroke-width="3.33333" stroke-miterlimit="8" fill="none"/><rect x="173.5" y="227.5" width="29" height="228" stroke="#808080" stroke-width="0" stroke-miterlimit="8" fill="#808080"/><rect x="173.5" y="227.5" width="29" height="228" stroke="#000000" stroke-width="3.33333" stroke-miterlimit="8" fill="none"/><rect x="261.5" y="271.5" width="30" height="29" stroke="#DFDFDF" stroke-width="0" stroke-miterlimit="8" fill="#DFDFDF"/><rect x="261.5" y="271.5" width="30" height="29" stroke="#000000" stroke-width="3.33333" stroke-miterlimit="8" fill="none"/><rect x="261.5" y="227.5" width="30" height="30" stroke="#DFDFDF" stroke-width="0" stroke-miterlimit="8" fill="#DFDFDF"/><rect x="261.5" y="227.5" width="30" height="30" stroke="#000000" stroke-width="3.33333" stroke-miterlimit="8" fill="none"/><rect x="173.5" y="227.5" width="29" height="30" stroke="#DFDFDF" stroke-width="0" stroke-miterlimit="8" fill="#DFDFDF"/><rect x="173.5" y="227.5" width="29" height="30" stroke="#000000" stroke-width="3.33333" stroke-miterlimit="8" fill="none"/><rect x="83.5" y="321.5" width="146" height="15" stroke="#DFDFDF" stroke-width="0" stroke-miterlimit="8" fill="#DFDFDF"/><rect x="292.5" y="279.5" width="82" height="14" stroke="#000000" stroke-width="3.33333" stroke-miterlimit="8" fill="#EAEAEA"/><rect x="83.5" y="278.5" width="147" height="15" stroke="#DFDFDF" stroke-width="0" stroke-miterlimit="8" fill="#DFDFDF"/><rect x="83.5" y="278.5" width="147" height="15" stroke="#000000" stroke-width="3.33333" stroke-miterlimit="8" fill="none"/><rect x="202.5" y="234.5" width="59" height="15" stroke="#DFDFDF" stroke-width="0" stroke-miterlimit="8" fill="#DFDFDF"/><rect x="202.5" y="234.5" width="59" height="15" stroke="#000000" stroke-width="3.33333" stroke-miterlimit="8" fill="none"/><rect x="291.5" y="234.5" width="76" height="17" stroke="#000000" stroke-width="3.33333" stroke-miterlimit="8" fill="none"/><rect x="269.5" y="278.5" width="14" height="15" stroke="#000000" stroke-width="0" stroke-miterlimit="8"/><rect x="269.5" y="278.5" width="14" height="15" stroke="#000000" stroke-width="3.33333" stroke-miterlimit="8" fill="none"/><rect x="269.5" y="234.5" width="14" height="15" stroke="#000000" stroke-width="0" stroke-miterlimit="8"/><rect x="269.5" y="234.5" width="14" height="15" stroke="#000000" stroke-width="3.33333" stroke-miterlimit="8" fill="none"/><rect x="181.5" y="234.5" width="14" height="15" stroke="#000000" stroke-width="0" stroke-miterlimit="8"/><rect x="181.5" y="234.5" width="14" height="15" stroke="#000000" stroke-width="3.33333" stroke-miterlimit="8" fill="none"/><rect x="83.5" y="321.5" width="150" height="15" stroke="#000000" stroke-width="3.33333" stroke-miterlimit="8" fill="none"/><text fill="#0C325C" font-family="Arial,Arial_MSFontService,sans-serif" font-style="italic" font-weight="700" font-size="23" transform="translate(225.497 407)">D</text><text fill="#0C325C" font-family="Arial,Arial_MSFontService,sans-serif" font-style="italic" font-weight="700" font-size="23" transform="translate(224.497 202)">B</text><text fill="#0C325C" font-family="Arial,Arial_MSFontService,sans-serif" font-style="italic" font-weight="700" font-size="23" transform="translate(264.497 407)">B</text><text fill="#0C325C" font-family="Arial,Arial_MSFontService,sans-serif" font-style="italic" font-weight="700" font-size="23" transform="translate(180.164 407)">E</text><text fill="#0C325C" font-family="Arial,Arial_MSFontService,sans-serif" font-style="italic" font-weight="700" font-size="23" transform="translate(266.83 202)">E</text><rect x="344" y="209" width="7" height="145" fill="#EDEDED"/><rect x="338" y="367" width="6" height="131" fill="#EDEDED"/><path d="M70.5717 431.707C78.647 425.799 86.2564 420.22 94.4869 414.969 113.588 416.282 133.31 419.564 152.101 428.097 161.418 432.363 169.028 444.834 178.656 448.444 190.148 446.803 200.863 441.224 212.354 439.255 222.293 435.645 232.543 434.66 242.326 429.737 252.42 424.486 256.147 417.266 267.173 414.969 280.218 415.625 293.262 413.985 306.152 416.61 316.246 418.579 312.363 422.517 317.643 428.097 326.961 437.942 337.521 440.896 347.77 442.865 355.845 441.552 364.697 441.552 372.617 437.286 382.09 432.035 391.252 424.486 400.88 420.548 407.713 417.595 406.937 418.579 415.167 416.61 419.826 415.625 429.299 413 429.299 413 445.916 414.313 460.979 419.236 477.129 422.189 488 428.097 479.925 456.977 482.409 476.668 466.414 488.483 439.083 485.201 424.019 485.857 390.631 498 372.151 488.811 327.427 487.826 307.239 485.529 287.361 479.622 267.173 476.668 254.75 471.089 241.705 469.776 229.126 467.151 224.467 466.166 214.994 463.541 214.994 463.541 164.369 464.853 116.694 462.556 67 452.382 69.64 444.506 68.3976 431.707 70.5717 431.707Z" fill="#EDEDED" fill-rule="evenodd"/><path d="M355.639 132.605C360.447 137.189 364.987 141.507 369.367 146.26 370.405 158.719 370.175 171.786 366.3 184.807 364.355 191.268 356.691 197.494 355.221 204.085 357.489 211.324 362.341 217.645 364.831 224.849 368.274 230.878 369.973 237.384 374.288 243.174 378.856 249.13 384.113 250.77 386.778 257.639 387.65 266.122 390.075 274.362 389.599 282.953 389.286 289.671 386.232 287.583 382.992 291.578 377.275 298.629 376.342 305.752 376.045 312.571 377.746 317.64 378.639 323.349 382.322 328.007 386.827 333.561 392.854 338.673 396.488 344.467 399.174 348.562 398.43 348.165 400.591 353.265 401.727 356.166 404.457 361.998 404.457 361.998 405.245 372.854 403.435 383.09 403.067 393.819 400.169 401.455 379.828 399.299 366.766 402.983 357.165 393.915 356.628 375.94 354.665 366.294 343.089 346.042 347.439 333.152 343.595 304.202 343.112 290.938 345.102 277.493 345.064 264.16 347.583 255.558 347.155 247.005 347.662 238.615 347.858 235.506 348.678 229.119 348.678 229.119 342.686 196.605 339.432 165.613 341.3 132.486 346.892 133.356 355.42 131.202 355.639 132.605Z" fill="#EDEDED" fill-rule="evenodd"/><path d="M93.7562 408.506C87.3589 407.509 81.3186 406.573 75.5386 405.351 75.1038 398.902 76.5072 391.728 83.0421 383.446 86.3165 379.33 97.6314 373.564 100.247 369.525 97.6484 366.295 91.3321 364.368 88.4179 361.226 84.0639 359.02 82.2067 356.011 76.6043 354.205 70.6587 352.388 63.3855 353.13 60.1972 350.225 59.6694 345.886 56.9327 342.161 58.312 337.343 59.3086 333.594 63.4401 333.78 68.3354 330.601 76.9741 324.993 78.8759 320.831 79.8586 317.032 77.879 314.806 77.0926 311.98 72.2869 310.594 66.3965 308.975 58.3249 308.07 53.6829 306.05 50.236 304.659 51.2516 304.644 48.6271 302.543 47.2666 301.319 43.9006 298.998 43.9006 298.998 43.6866 293.342 47.0816 287.217 48.4867 281.271 53.2009 276.22 81.6867 271.07 100.399 265.007 113.18 266.952 112.452 276.555 114.422 281.188 129.063 288.597 121.87 296.955 124.896 311.496 124.481 318.555 120.567 326.481 119.52 333.716 115.26 339.174 115.157 343.69 113.75 348.408 113.217 350.158 111.534 353.885 111.534 353.885 117.294 369.695 119.32 385.528 113.953 404.114 106.145 405.379 93.9494 409.2 93.7562 408.506Z" fill="#EDEDED" fill-rule="evenodd"/><text fill="#0C325C" font-family="Arial,Arial_MSFontService,sans-serif" font-style="italic" font-weight="700" font-size="23" transform="translate(356.164 252)">E</text><text fill="#0C325C" font-family="Arial,Arial_MSFontService,sans-serif" font-style="italic" font-weight="700" font-size="23" transform="translate(353.997 301)">B</text><text fill="#0C325C" font-family="Arial,Arial_MSFontService,sans-serif" font-style="italic" font-weight="700" font-size="23" transform="translate(90.6636 344)">D</text><text fill="#0C325C" font-family="Arial,Arial_MSFontService,sans-serif" font-style="italic" font-weight="700" font-size="23" transform="translate(90.6636 295)">B</text><rect x="247.5" y="278.5" width="14" height="15" stroke="#DFDFDF" stroke-width="0" stroke-miterlimit="8" fill="#DFDFDF"/><rect x="247.5" y="278.5" width="14" height="15" stroke="#000000" stroke-width="3.33333" stroke-miterlimit="8" fill="none"/><rect x="217.5" y="271.5" width="30" height="29" stroke="#DFDFDF" stroke-width="0" stroke-miterlimit="8" fill="#DFDFDF"/><rect x="224.5" y="278.5" width="15" height="15" stroke="#000000" stroke-width="0" stroke-miterlimit="8"/><rect x="224.5" y="278.5" width="15" height="15" stroke="#000000" stroke-width="3.33333" stroke-miterlimit="8" fill="none"/><rect x="217.5" y="271.5" width="30" height="29" stroke="#000000" stroke-width="3.33333" stroke-miterlimit="8" fill="none"/><rect x="220.5" y="314.5" width="30" height="30" stroke="#000000" stroke-width="3.33333" stroke-miterlimit="8" fill="none"/><rect x="221.5" y="316.5" width="27" height="26" stroke="#DFDFDF" stroke-width="0" stroke-miterlimit="8" fill="#DFDFDF"/><rect x="228.5" y="321.5" width="15" height="15" stroke="#000000" stroke-width="0" stroke-miterlimit="8"/><rect x="228.5" y="321.5" width="15" height="15" stroke="#000000" stroke-width="3.33333" stroke-miterlimit="8" fill="none"/><path d="M0 0 0.000104987 22" stroke="#B2B2B2" stroke-width="3" stroke-linejoin="round" stroke-miterlimit="10" fill="none" fill-rule="evenodd" transform="matrix(1 0 0 -1 515.5 360.5)"/><path d="M515.5 338.5 544.5 338.5" stroke="#B2B2B2" stroke-width="3" stroke-linejoin="round" stroke-miterlimit="10" fill="none" fill-rule="evenodd"/><path d="M544.5 338.5 544.5 360.5" stroke="#B2B2B2" stroke-width="3" stroke-linejoin="round" stroke-miterlimit="10" fill="none" fill-rule="evenodd"/><path d="M515.5 275.5 515.5 317.5" stroke="#B2B2B2" stroke-width="3" stroke-linejoin="round" stroke-miterlimit="10" fill="none" fill-rule="evenodd"/><path d="M515.5 317.5 731.5 318.5" stroke="#B2B2B2" stroke-width="3" stroke-linejoin="round" stroke-miterlimit="10" fill="none" fill-rule="evenodd"/><path d="M0 0 0.000104987 64" stroke="#B2B2B2" stroke-width="3" stroke-linejoin="round" stroke-miterlimit="10" fill="none" fill-rule="evenodd" transform="matrix(1 0 0 -1 530.5 360.5)"/><path d="M530.5 296.5 600.5 296.5" stroke="#B2B2B2" stroke-width="3" stroke-linejoin="round" stroke-miterlimit="10" fill="none" fill-rule="evenodd"/><path d="M0 0 0.000104987 42" stroke="#B2B2B2" stroke-width="3" stroke-linejoin="round" stroke-miterlimit="10" fill="none" fill-rule="evenodd" transform="matrix(1 0 0 -1 544.5 317.5)"/><path d="M0 0 0.000104987 21" stroke="#B2B2B2" stroke-width="3" stroke-linejoin="round" stroke-miterlimit="10" fill="none" fill-rule="evenodd" transform="matrix(1 0 0 -1 558.5 296.5)"/><path d="M558.5 317.5 558.5 360.5" stroke="#B2B2B2" stroke-width="3" stroke-linejoin="round" stroke-miterlimit="10" fill="none" fill-rule="evenodd"/><path d="M572.5 275.5 572.5 338.5" stroke="#B2B2B2" stroke-width="3" stroke-linejoin="round" stroke-miterlimit="10" fill="none" fill-rule="evenodd"/><path d="M572.5 338.5 639.5 339.5" stroke="#B2B2B2" stroke-width="3" stroke-linejoin="round" stroke-miterlimit="10" fill="none" fill-rule="evenodd"/><path d="M586.5 275.5 586.5 360.5" stroke="#B2B2B2" stroke-width="3" stroke-linejoin="round" stroke-miterlimit="10" fill="none" fill-rule="evenodd"/><path d="M600.5 275.5 600.5 360.5" stroke="#B2B2B2" stroke-width="3" stroke-linejoin="round" stroke-miterlimit="10" fill="none" fill-rule="evenodd"/><rect x="513.5" y="194.5" width="91" height="82" stroke="#000000" stroke-width="1.33333" stroke-miterlimit="8" fill="#B2B2B2"/><rect x="679.5" y="359.5" width="91" height="83" stroke="#000000" stroke-width="1.33333" stroke-miterlimit="8" fill="#B2B2B2"/><rect x="513.5" y="359.5" width="91" height="83" stroke="#000000" stroke-width="1.33333" stroke-miterlimit="8" fill="#B2B2B2"/><rect x="679.5" y="194.5" width="91" height="82" stroke="#000000" stroke-width="1.33333" stroke-miterlimit="8" fill="#B2B2B2"/><path d="M0 56.5C-7.1932e-15 25.2959 25.2959-7.1932e-15 56.5-1.43864e-14 87.7041-2.87728e-14 113 25.2959 113 56.5 113 87.7041 87.7041 113 56.5 113 25.2959 113-3.5966e-14 87.7041 0 56.5Z" stroke="#000000" stroke-width="3.50005" stroke-linejoin="round" stroke-miterlimit="10" stroke-dasharray="14.0002 10.5002" fill="none" fill-rule="evenodd" transform="matrix(-1 0 0 1 695 261)"/><path d="M0 0 0.000104987 113" stroke="#B2B2B2" stroke-width="3" stroke-linejoin="round" stroke-miterlimit="10" fill="none" fill-rule="evenodd" transform="matrix(1 0 0 -1 618.5 410.5)"/><path d="M618.5 297.5 710.5 297.5" stroke="#B2B2B2" stroke-width="3" stroke-linejoin="round" stroke-miterlimit="10" fill="none" fill-rule="evenodd"/><path d="M0 0 0.000104987 71" stroke="#B2B2B2" stroke-width="3" stroke-linejoin="round" stroke-miterlimit="10" fill="none" fill-rule="evenodd" transform="matrix(1 0 0 -1 660.5 297.5)"/><path d="M0 0 0.000104987 113" stroke="#B2B2B2" stroke-width="3" stroke-linejoin="round" stroke-miterlimit="10" fill="none" fill-rule="evenodd" transform="matrix(1 0 0 -1 639.5 318.5)"/><path d="M639.5 339.5 639.5 431.5" stroke="#B2B2B2" stroke-width="3" stroke-linejoin="round" stroke-miterlimit="10" fill="none" fill-rule="evenodd"/><path d="M660.5 318.5 660.5 410.5" stroke="#B2B2B2" stroke-width="3" stroke-linejoin="round" stroke-miterlimit="10" fill="none" fill-rule="evenodd"/><path d="M731.5 318.5 731.5 360.5" stroke="#B2B2B2" stroke-width="3" stroke-linejoin="round" stroke-miterlimit="10" fill="none" fill-rule="evenodd"/><path d="M0 0 0.000104987 22" stroke="#B2B2B2" stroke-width="3" stroke-linejoin="round" stroke-miterlimit="10" fill="none" fill-rule="evenodd" transform="matrix(1 0 0 -1 710.5 297.5)"/><path d="M660.5 410.5 681.5 410.5" stroke="#B2B2B2" stroke-width="3" stroke-linejoin="round" stroke-miterlimit="10" fill="none" fill-rule="evenodd"/><path d="M604.5 431.5 681.5 431.5" stroke="#B2B2B2" stroke-width="3" stroke-linejoin="round" stroke-miterlimit="10" fill="none" fill-rule="evenodd"/><path d="M0 0 14 0.000104987" stroke="#B2B2B2" stroke-width="3" stroke-linejoin="round" stroke-miterlimit="10" fill="none" fill-rule="evenodd" transform="matrix(-1 0 0 1 618.5 410.5)"/><path d="M660.5 226.5 681.5 226.5" stroke="#B2B2B2" stroke-width="3" stroke-linejoin="round" stroke-miterlimit="10" fill="none" fill-rule="evenodd"/><path d="M0 0 35 0.000104987" stroke="#B2B2B2" stroke-width="3" stroke-linejoin="round" stroke-miterlimit="10" fill="none" fill-rule="evenodd" transform="matrix(-1 0 0 1 639.5 205.5)"/><path d="M0 0 35 0.000104987" stroke="#B2B2B2" stroke-width="3" stroke-linejoin="round" stroke-miterlimit="10" fill="none" fill-rule="evenodd" transform="matrix(-1 0 0 1 639.5 226.5)"/><path d="M0 0 0.000104987 21" stroke="#B2B2B2" stroke-width="3" stroke-linejoin="round" stroke-miterlimit="10" fill="none" fill-rule="evenodd" transform="matrix(1 0 0 -1 710.5 360.5)"/><path d="M710.5 339.5 752.5 339.5" stroke="#B2B2B2" stroke-width="3" stroke-linejoin="round" stroke-miterlimit="10" fill="none" fill-rule="evenodd"/><path d="M752.5 275.5 752.5 360.5" stroke="#B2B2B2" stroke-width="3" stroke-linejoin="round" stroke-miterlimit="10" fill="none" fill-rule="evenodd"/><rect x="498" y="177" width="287" height="282" stroke="#000000" stroke-width="2" stroke-miterlimit="8" fill="none"/><path d="M0 0 255 44" stroke="#000000" stroke-width="3" stroke-linejoin="round" stroke-miterlimit="10" stroke-dasharray="12 9" fill="none" fill-rule="evenodd" transform="matrix(1 0 0 -1 384.5 418.5)"/><path d="M384.5 205.5 639.5 261.5" stroke="#000000" stroke-width="3" stroke-linejoin="round" stroke-miterlimit="10" stroke-dasharray="12 9" fill="none" fill-rule="evenodd"/></g></svg>