<svg width="879" height="544" xmlns="http://www.w3.org/2000/svg" xmlns:xlink="http://www.w3.org/1999/xlink" overflow="hidden"><defs><linearGradient x1="408" y1="546" x2="472" y2="546" gradientUnits="userSpaceOnUse" spreadMethod="reflect" id="fill0"><stop offset="0" stop-color="#DDDDDD"/><stop offset="0.00454545" stop-color="#DCDCDC"/><stop offset="0.00909091" stop-color="#DCDCDC"/><stop offset="0.0136364" stop-color="#DCDCDC"/><stop offset="0.0181818" stop-color="#DCDCDC"/><stop offset="0.0227273" stop-color="#DCDCDC"/><stop offset="0.0272727" stop-color="#DCDCDC"/><stop offset="0.0318182" stop-color="#DCDCDC"/><stop offset="0.0363636" stop-color="#DCDCDC"/><stop offset="0.0409091" stop-color="#DCDCDC"/><stop offset="0.0454545" stop-color="#DCDCDC"/><stop offset="0.05" stop-color="#DCDCDC"/><stop offset="0.0545455" stop-color="#DCDCDC"/><stop offset="0.0590909" stop-color="#DBDBDB"/><stop offset="0.0636364" stop-color="#DBDBDB"/><stop offset="0.0681818" stop-color="#DBDBDB"/><stop offset="0.0727273" stop-color="#DBDBDB"/><stop offset="0.0772727" stop-color="#DBDBDB"/><stop offset="0.0818182" stop-color="#DADADA"/><stop offset="0.0863636" stop-color="#DADADA"/><stop offset="0.0909091" stop-color="#DADADA"/><stop offset="0.0954545" stop-color="#DADADA"/><stop offset="0.1" stop-color="#DADADA"/><stop offset="0.104545" stop-color="#D9D9D9"/><stop offset="0.109091" stop-color="#D9D9D9"/><stop offset="0.113636" stop-color="#D9D9D9"/><stop offset="0.118182" stop-color="#D8D8D8"/><stop offset="0.122727" stop-color="#D8D8D8"/><stop offset="0.127273" stop-color="#D8D8D8"/><stop offset="0.131818" stop-color="#D8D8D8"/><stop offset="0.136364" stop-color="#D7D7D7"/><stop offset="0.140909" stop-color="#D7D7D7"/><stop offset="0.145455" stop-color="#D7D7D7"/><stop offset="0.15" stop-color="#D6D6D6"/><stop offset="0.154545" stop-color="#D6D6D6"/><stop offset="0.159091" stop-color="#D5D5D5"/><stop offset="0.163636" stop-color="#D5D5D5"/><stop offset="0.168182" stop-color="#D5D5D5"/><stop offset="0.172727" stop-color="#D4D4D4"/><stop offset="0.177273" stop-color="#D4D4D4"/><stop offset="0.181818" stop-color="#D3D3D3"/><stop offset="0.186364" stop-color="#D3D3D3"/><stop offset="0.190909" stop-color="#D3D3D3"/><stop offset="0.195455" stop-color="#D2D2D2"/><stop offset="0.2" stop-color="#D2D2D2"/><stop offset="0.204545" stop-color="#D1D1D1"/><stop offset="0.209091" stop-color="#D1D1D1"/><stop offset="0.213636" stop-color="#D0D0D0"/><stop offset="0.218182" stop-color="#D0D0D0"/><stop offset="0.222727" stop-color="#CFCFCF"/><stop offset="0.227273" stop-color="#CFCFCF"/><stop offset="0.231818" stop-color="#CECECE"/><stop offset="0.236364" stop-color="#CECECE"/><stop offset="0.240909" stop-color="#CDCDCD"/><stop offset="0.245455" stop-color="#CDCDCD"/><stop offset="0.25" stop-color="#CCCCCC"/><stop offset="0.254545" stop-color="#CCCCCC"/><stop offset="0.259091" stop-color="#CBCBCB"/><stop offset="0.263636" stop-color="#CACACA"/><stop offset="0.268182" stop-color="#CACACA"/><stop offset="0.272727" stop-color="#C9C9C9"/><stop offset="0.277273" stop-color="#C9C9C9"/><stop offset="0.281818" stop-color="#C8C8C8"/><stop offset="0.286364" stop-color="#C7C7C7"/><stop offset="0.290909" stop-color="#C7C7C7"/><stop offset="0.295455" stop-color="#C6C6C6"/><stop offset="0.3" stop-color="#C5C5C5"/><stop offset="0.304545" stop-color="#C5C5C5"/><stop offset="0.309091" stop-color="#C4C4C4"/><stop offset="0.313636" stop-color="#C3C3C3"/><stop offset="0.318182" stop-color="#C3C3C3"/><stop offset="0.322727" stop-color="#C2C2C2"/><stop offset="0.327273" stop-color="#C1C1C1"/><stop offset="0.331818" stop-color="#C1C1C1"/><stop offset="0.336364" stop-color="#C0C0C0"/><stop offset="0.340909" stop-color="#BFBFBF"/><stop offset="0.345455" stop-color="#BEBEBE"/><stop offset="0.35" stop-color="#BEBEBE"/><stop offset="0.354545" stop-color="#BDBDBD"/><stop offset="0.359091" stop-color="#BCBCBC"/><stop offset="0.363636" stop-color="#BBBBBB"/><stop offset="0.368182" stop-color="#BBBBBB"/><stop offset="0.372727" stop-color="#BABABA"/><stop offset="0.377273" stop-color="#B9B9B9"/><stop offset="0.381818" stop-color="#B8B8B8"/><stop offset="0.386364" stop-color="#B7B7B7"/><stop offset="0.390909" stop-color="#B7B7B7"/><stop offset="0.395455" stop-color="#B6B6B6"/><stop offset="0.4" stop-color="#B5B5B5"/><stop offset="0.404545" stop-color="#B4B4B4"/><stop offset="0.409091" stop-color="#B3B3B3"/><stop offset="0.413636" stop-color="#B2B2B2"/><stop offset="0.418182" stop-color="#B1B1B1"/><stop offset="0.422727" stop-color="#B1B1B1"/><stop offset="0.427273" stop-color="#B0B0B0"/><stop offset="0.431818" stop-color="#AFAFAF"/><stop offset="0.436364" stop-color="#AEAEAE"/><stop offset="0.440909" stop-color="#ADADAD"/><stop offset="0.445455" stop-color="#ACACAC"/><stop offset="0.45" stop-color="#ABABAB"/><stop offset="0.454545" stop-color="#AAAAAA"/><stop offset="0.459091" stop-color="#A9A9A9"/><stop offset="0.463636" stop-color="#A8A8A8"/><stop offset="0.468182" stop-color="#A7A7A7"/><stop offset="0.472727" stop-color="#A6A6A6"/><stop offset="0.477273" stop-color="#A5A5A5"/><stop offset="0.481818" stop-color="#A4A4A4"/><stop offset="0.486364" stop-color="#A3A3A3"/><stop offset="0.490909" stop-color="#A2A2A2"/><stop offset="0.495455" stop-color="#A1A1A1"/><stop offset="0.5" stop-color="#A0A0A0"/><stop offset="0.504545" stop-color="#9F9F9F"/><stop offset="0.509091" stop-color="#9E9E9E"/><stop offset="0.513636" stop-color="#9D9D9D"/><stop offset="0.518182" stop-color="#9C9C9C"/><stop offset="0.522727" stop-color="#9B9B9B"/><stop offset="0.527273" stop-color="#9A9A9A"/><stop offset="0.531818" stop-color="#999999"/><stop offset="0.536364" stop-color="#989898"/><stop offset="0.540909" stop-color="#979797"/><stop offset="0.545455" stop-color="#969696"/><stop offset="0.55" stop-color="#949494"/><stop offset="0.554545" stop-color="#939393"/><stop offset="0.559091" stop-color="#929292"/><stop offset="0.563636" stop-color="#919191"/><stop offset="0.568182" stop-color="#909090"/><stop offset="0.572727" stop-color="#8F8F8F"/><stop offset="0.577273" stop-color="#8E8E8E"/><stop offset="0.581818" stop-color="#8C8C8C"/><stop offset="0.586364" stop-color="#8B8B8B"/><stop offset="0.590909" stop-color="#8A8A8A"/><stop offset="0.595455" stop-color="#898989"/><stop offset="0.6" stop-color="#888888"/><stop offset="0.604545" stop-color="#868686"/><stop offset="0.609091" stop-color="#858585"/><stop offset="0.613636" stop-color="#848484"/><stop offset="0.618182" stop-color="#838383"/><stop offset="0.622727" stop-color="#828282"/><stop offset="0.627273" stop-color="#808080"/><stop offset="0.631818" stop-color="#7F7F7F"/><stop offset="0.636364" stop-color="#7E7E7E"/><stop offset="0.640909" stop-color="#7D7D7D"/><stop offset="0.645455" stop-color="#7B7B7B"/><stop offset="0.65" stop-color="#7A7A7A"/><stop offset="0.654545" stop-color="#797979"/><stop offset="0.659091" stop-color="#777777"/><stop offset="0.663636" stop-color="#767676"/><stop offset="0.668182" stop-color="#757575"/><stop offset="0.672727" stop-color="#737373"/><stop offset="0.677273" stop-color="#727272"/><stop offset="0.681818" stop-color="#717171"/><stop offset="0.686364" stop-color="#6F6F6F"/><stop offset="0.690909" stop-color="#6E6E6E"/><stop offset="0.695455" stop-color="#6D6D6D"/><stop offset="0.7" stop-color="#6B6B6B"/><stop offset="0.704545" stop-color="#6A6A6A"/><stop offset="0.709091" stop-color="#686868"/><stop offset="0.713636" stop-color="#676767"/><stop offset="0.718182" stop-color="#666666"/><stop offset="0.722727" stop-color="#646464"/><stop offset="0.727273" stop-color="#636363"/><stop offset="0.731818" stop-color="#616161"/><stop offset="0.736364" stop-color="#606060"/><stop offset="0.740909" stop-color="#5F5F5F"/><stop offset="0.745455" stop-color="#5D5D5D"/><stop offset="0.75" stop-color="#5C5C5C"/><stop offset="0.754545" stop-color="#5A5A5A"/><stop offset="0.759091" stop-color="#595959"/><stop offset="0.763636" stop-color="#575757"/><stop offset="0.768182" stop-color="#565656"/><stop offset="0.772727" stop-color="#545454"/><stop offset="0.777273" stop-color="#535353"/><stop offset="0.781818" stop-color="#515151"/><stop offset="0.786364" stop-color="#505050"/><stop offset="0.790909" stop-color="#4E4E4E"/><stop offset="0.795455" stop-color="#4D4D4D"/><stop offset="0.8" stop-color="#4B4B4B"/><stop offset="0.804545" stop-color="#4A4A4A"/><stop offset="0.809091" stop-color="#484848"/><stop offset="0.813636" stop-color="#464646"/><stop offset="0.818182" stop-color="#454545"/><stop offset="0.822727" stop-color="#434343"/><stop offset="0.827273" stop-color="#424242"/><stop offset="0.831818" stop-color="#404040"/><stop offset="0.836364" stop-color="#3E3E3E"/><stop offset="0.840909" stop-color="#3D3D3D"/><stop offset="0.845455" stop-color="#3B3B3B"/><stop offset="0.85" stop-color="#3A3A3A"/><stop offset="0.854545" stop-color="#383838"/><stop offset="0.859091" stop-color="#363636"/><stop offset="0.863636" stop-color="#353535"/><stop offset="0.868182" stop-color="#333333"/><stop offset="0.872727" stop-color="#313131"/><stop offset="0.877273" stop-color="#303030"/><stop offset="0.881818" stop-color="#2E2E2E"/><stop offset="0.886364" stop-color="#2C2C2C"/><stop offset="0.890909" stop-color="#2B2B2B"/><stop offset="0.895455" stop-color="#292929"/><stop offset="0.9" stop-color="#272727"/><stop offset="0.904545" stop-color="#252525"/><stop offset="0.909091" stop-color="#242424"/><stop offset="0.913636" stop-color="#222222"/><stop offset="0.918182" stop-color="#202020"/><stop offset="0.922727" stop-color="#1E1E1E"/><stop offset="0.927273" stop-color="#1D1D1D"/><stop offset="0.931818" stop-color="#1B1B1B"/><stop offset="0.936364" stop-color="#191919"/><stop offset="0.940909" stop-color="#171717"/><stop offset="0.945455" stop-color="#161616"/><stop offset="0.95" stop-color="#141414"/><stop offset="0.954545" stop-color="#121212"/><stop offset="0.959091" stop-color="#101010"/><stop offset="0.963636" stop-color="#0E0E0E"/><stop offset="0.968182" stop-color="#0D0D0D"/><stop offset="0.972727" stop-color="#0B0B0B"/><stop offset="0.977273" stop-color="#090909"/><stop offset="0.981818" stop-color="#070707"/><stop offset="0.986364" stop-color="#050505"/><stop offset="0.990909" stop-color="#030303"/><stop offset="0.995455" stop-color="#010101"/><stop offset="1"/></linearGradient><linearGradient x1="187" y1="390" x2="187" y2="439" gradientUnits="userSpaceOnUse" spreadMethod="reflect" id="fill1"><stop offset="0" stop-color="#DDDDDD"/><stop offset="0.00454545" stop-color="#DCDCDC"/><stop offset="0.00909091" stop-color="#DCDCDC"/><stop offset="0.0136364" stop-color="#DCDCDC"/><stop offset="0.0181818" stop-color="#DCDCDC"/><stop offset="0.0227273" stop-color="#DCDCDC"/><stop offset="0.0272727" stop-color="#DCDCDC"/><stop offset="0.0318182" stop-color="#DCDCDC"/><stop offset="0.0363636" stop-color="#DCDCDC"/><stop offset="0.0409091" stop-color="#DCDCDC"/><stop offset="0.0454545" stop-color="#DCDCDC"/><stop offset="0.05" stop-color="#DCDCDC"/><stop offset="0.0545455" stop-color="#DCDCDC"/><stop offset="0.0590909" stop-color="#DBDBDB"/><stop offset="0.0636364" stop-color="#DBDBDB"/><stop offset="0.0681818" stop-color="#DBDBDB"/><stop offset="0.0727273" stop-color="#DBDBDB"/><stop offset="0.0772727" stop-color="#DBDBDB"/><stop offset="0.0818182" stop-color="#DADADA"/><stop offset="0.0863636" stop-color="#DADADA"/><stop offset="0.0909091" stop-color="#DADADA"/><stop offset="0.0954545" stop-color="#DADADA"/><stop offset="0.1" stop-color="#DADADA"/><stop offset="0.104545" stop-color="#D9D9D9"/><stop offset="0.109091" stop-color="#D9D9D9"/><stop offset="0.113636" stop-color="#D9D9D9"/><stop offset="0.118182" stop-color="#D8D8D8"/><stop offset="0.122727" stop-color="#D8D8D8"/><stop offset="0.127273" stop-color="#D8D8D8"/><stop offset="0.131818" stop-color="#D8D8D8"/><stop offset="0.136364" stop-color="#D7D7D7"/><stop offset="0.140909" stop-color="#D7D7D7"/><stop offset="0.145455" stop-color="#D7D7D7"/><stop offset="0.15" stop-color="#D6D6D6"/><stop offset="0.154545" stop-color="#D6D6D6"/><stop offset="0.159091" stop-color="#D5D5D5"/><stop offset="0.163636" stop-color="#D5D5D5"/><stop offset="0.168182" stop-color="#D5D5D5"/><stop offset="0.172727" stop-color="#D4D4D4"/><stop offset="0.177273" stop-color="#D4D4D4"/><stop offset="0.181818" stop-color="#D3D3D3"/><stop offset="0.186364" stop-color="#D3D3D3"/><stop offset="0.190909" stop-color="#D3D3D3"/><stop offset="0.195455" stop-color="#D2D2D2"/><stop offset="0.2" stop-color="#D2D2D2"/><stop offset="0.204545" stop-color="#D1D1D1"/><stop offset="0.209091" stop-color="#D1D1D1"/><stop offset="0.213636" stop-color="#D0D0D0"/><stop offset="0.218182" stop-color="#D0D0D0"/><stop offset="0.222727" stop-color="#CFCFCF"/><stop offset="0.227273" stop-color="#CFCFCF"/><stop offset="0.231818" stop-color="#CECECE"/><stop offset="0.236364" stop-color="#CECECE"/><stop offset="0.240909" stop-color="#CDCDCD"/><stop offset="0.245455" stop-color="#CDCDCD"/><stop offset="0.25" stop-color="#CCCCCC"/><stop offset="0.254545" stop-color="#CCCCCC"/><stop offset="0.259091" stop-color="#CBCBCB"/><stop offset="0.263636" stop-color="#CACACA"/><stop offset="0.268182" stop-color="#CACACA"/><stop offset="0.272727" stop-color="#C9C9C9"/><stop offset="0.277273" stop-color="#C9C9C9"/><stop offset="0.281818" stop-color="#C8C8C8"/><stop offset="0.286364" stop-color="#C7C7C7"/><stop offset="0.290909" stop-color="#C7C7C7"/><stop offset="0.295455" stop-color="#C6C6C6"/><stop offset="0.3" stop-color="#C5C5C5"/><stop offset="0.304545" stop-color="#C5C5C5"/><stop offset="0.309091" stop-color="#C4C4C4"/><stop offset="0.313636" stop-color="#C3C3C3"/><stop offset="0.318182" stop-color="#C3C3C3"/><stop offset="0.322727" stop-color="#C2C2C2"/><stop offset="0.327273" stop-color="#C1C1C1"/><stop offset="0.331818" stop-color="#C1C1C1"/><stop offset="0.336364" stop-color="#C0C0C0"/><stop offset="0.340909" stop-color="#BFBFBF"/><stop offset="0.345455" stop-color="#BEBEBE"/><stop offset="0.35" stop-color="#BEBEBE"/><stop offset="0.354545" stop-color="#BDBDBD"/><stop offset="0.359091" stop-color="#BCBCBC"/><stop offset="0.363636" stop-color="#BBBBBB"/><stop offset="0.368182" stop-color="#BBBBBB"/><stop offset="0.372727" stop-color="#BABABA"/><stop offset="0.377273" stop-color="#B9B9B9"/><stop offset="0.381818" stop-color="#B8B8B8"/><stop offset="0.386364" stop-color="#B7B7B7"/><stop offset="0.390909" stop-color="#B7B7B7"/><stop offset="0.395455" stop-color="#B6B6B6"/><stop offset="0.4" stop-color="#B5B5B5"/><stop offset="0.404545" stop-color="#B4B4B4"/><stop offset="0.409091" stop-color="#B3B3B3"/><stop offset="0.413636" stop-color="#B2B2B2"/><stop offset="0.418182" stop-color="#B1B1B1"/><stop offset="0.422727" stop-color="#B1B1B1"/><stop offset="0.427273" stop-color="#B0B0B0"/><stop offset="0.431818" stop-color="#AFAFAF"/><stop offset="0.436364" stop-color="#AEAEAE"/><stop offset="0.440909" stop-color="#ADADAD"/><stop offset="0.445455" stop-color="#ACACAC"/><stop offset="0.45" stop-color="#ABABAB"/><stop offset="0.454545" stop-color="#AAAAAA"/><stop offset="0.459091" stop-color="#A9A9A9"/><stop offset="0.463636" stop-color="#A8A8A8"/><stop offset="0.468182" stop-color="#A7A7A7"/><stop offset="0.472727" stop-color="#A6A6A6"/><stop offset="0.477273" stop-color="#A5A5A5"/><stop offset="0.481818" stop-color="#A4A4A4"/><stop offset="0.486364" stop-color="#A3A3A3"/><stop offset="0.490909" stop-color="#A2A2A2"/><stop offset="0.495455" stop-color="#A1A1A1"/><stop offset="0.5" stop-color="#A0A0A0"/><stop offset="0.504545" stop-color="#9F9F9F"/><stop offset="0.509091" stop-color="#9E9E9E"/><stop offset="0.513636" stop-color="#9D9D9D"/><stop offset="0.518182" stop-color="#9C9C9C"/><stop offset="0.522727" stop-color="#9B9B9B"/><stop offset="0.527273" stop-color="#9A9A9A"/><stop offset="0.531818" stop-color="#999999"/><stop offset="0.536364" stop-color="#989898"/><stop offset="0.540909" stop-color="#979797"/><stop offset="0.545455" stop-color="#969696"/><stop offset="0.55" stop-color="#949494"/><stop offset="0.554545" stop-color="#939393"/><stop offset="0.559091" stop-color="#929292"/><stop offset="0.563636" stop-color="#919191"/><stop offset="0.568182" stop-color="#909090"/><stop offset="0.572727" stop-color="#8F8F8F"/><stop offset="0.577273" stop-color="#8E8E8E"/><stop offset="0.581818" stop-color="#8C8C8C"/><stop offset="0.586364" stop-color="#8B8B8B"/><stop offset="0.590909" stop-color="#8A8A8A"/><stop offset="0.595455" stop-color="#898989"/><stop offset="0.6" stop-color="#888888"/><stop offset="0.604545" stop-color="#868686"/><stop offset="0.609091" stop-color="#858585"/><stop offset="0.613636" stop-color="#848484"/><stop offset="0.618182" stop-color="#838383"/><stop offset="0.622727" stop-color="#828282"/><stop offset="0.627273" stop-color="#808080"/><stop offset="0.631818" stop-color="#7F7F7F"/><stop offset="0.636364" stop-color="#7E7E7E"/><stop offset="0.640909" stop-color="#7D7D7D"/><stop offset="0.645455" stop-color="#7B7B7B"/><stop offset="0.65" stop-color="#7A7A7A"/><stop offset="0.654545" stop-color="#797979"/><stop offset="0.659091" stop-color="#777777"/><stop offset="0.663636" stop-color="#767676"/><stop offset="0.668182" stop-color="#757575"/><stop offset="0.672727" stop-color="#737373"/><stop offset="0.677273" stop-color="#727272"/><stop offset="0.681818" stop-color="#717171"/><stop offset="0.686364" stop-color="#6F6F6F"/><stop offset="0.690909" stop-color="#6E6E6E"/><stop offset="0.695455" stop-color="#6D6D6D"/><stop offset="0.7" stop-color="#6B6B6B"/><stop offset="0.704545" stop-color="#6A6A6A"/><stop offset="0.709091" stop-color="#686868"/><stop offset="0.713636" stop-color="#676767"/><stop offset="0.718182" stop-color="#666666"/><stop offset="0.722727" stop-color="#646464"/><stop offset="0.727273" stop-color="#636363"/><stop offset="0.731818" stop-color="#616161"/><stop offset="0.736364" stop-color="#606060"/><stop offset="0.740909" stop-color="#5F5F5F"/><stop offset="0.745455" stop-color="#5D5D5D"/><stop offset="0.75" stop-color="#5C5C5C"/><stop offset="0.754545" stop-color="#5A5A5A"/><stop offset="0.759091" stop-color="#595959"/><stop offset="0.763636" stop-color="#575757"/><stop offset="0.768182" stop-color="#565656"/><stop offset="0.772727" stop-color="#545454"/><stop offset="0.777273" stop-color="#535353"/><stop offset="0.781818" stop-color="#515151"/><stop offset="0.786364" stop-color="#505050"/><stop offset="0.790909" stop-color="#4E4E4E"/><stop offset="0.795455" stop-color="#4D4D4D"/><stop offset="0.8" stop-color="#4B4B4B"/><stop offset="0.804545" stop-color="#4A4A4A"/><stop offset="0.809091" stop-color="#484848"/><stop offset="0.813636" stop-color="#464646"/><stop offset="0.818182" stop-color="#454545"/><stop offset="0.822727" stop-color="#434343"/><stop offset="0.827273" stop-color="#424242"/><stop offset="0.831818" stop-color="#404040"/><stop offset="0.836364" stop-color="#3E3E3E"/><stop offset="0.840909" stop-color="#3D3D3D"/><stop offset="0.845455" stop-color="#3B3B3B"/><stop offset="0.85" stop-color="#3A3A3A"/><stop offset="0.854545" stop-color="#383838"/><stop offset="0.859091" stop-color="#363636"/><stop offset="0.863636" stop-color="#353535"/><stop offset="0.868182" stop-color="#333333"/><stop offset="0.872727" stop-color="#313131"/><stop offset="0.877273" stop-color="#303030"/><stop offset="0.881818" stop-color="#2E2E2E"/><stop offset="0.886364" stop-color="#2C2C2C"/><stop offset="0.890909" stop-color="#2B2B2B"/><stop offset="0.895455" stop-color="#292929"/><stop offset="0.9" stop-color="#272727"/><stop offset="0.904545" stop-color="#252525"/><stop offset="0.909091" stop-color="#242424"/><stop offset="0.913636" stop-color="#222222"/><stop offset="0.918182" stop-color="#202020"/><stop offset="0.922727" stop-color="#1E1E1E"/><stop offset="0.927273" stop-color="#1D1D1D"/><stop offset="0.931818" stop-color="#1B1B1B"/><stop offset="0.936364" stop-color="#191919"/><stop offset="0.940909" stop-color="#171717"/><stop offset="0.945455" stop-color="#161616"/><stop offset="0.95" stop-color="#141414"/><stop offset="0.954545" stop-color="#121212"/><stop offset="0.959091" stop-color="#101010"/><stop offset="0.963636" stop-color="#0E0E0E"/><stop offset="0.968182" stop-color="#0D0D0D"/><stop offset="0.972727" stop-color="#0B0B0B"/><stop offset="0.977273" stop-color="#090909"/><stop offset="0.981818" stop-color="#070707"/><stop offset="0.986364" stop-color="#050505"/><stop offset="0.990909" stop-color="#030303"/><stop offset="0.995455" stop-color="#010101"/><stop offset="1"/></linearGradient></defs><g transform="translate(-33 -136)"><rect x="378.5" y="421.5" width="39" height="63" stroke="#FFFFFF" stroke-miterlimit="8" fill="#5F5F5F"/><path d="M417.5 432.5C417.5 430.843 419.515 429.5 422 429.5 424.485 429.5 426.5 430.843 426.5 432.5 426.5 434.157 424.485 435.5 422 435.5 419.515 435.5 417.5 434.157 417.5 432.5Z" stroke="#C0C0C0" stroke-linejoin="round" stroke-miterlimit="10" fill="#5F5F5F" fill-rule="evenodd"/><path d="M417.5 446.5C417.5 444.843 419.515 443.5 422 443.5 424.485 443.5 426.5 444.843 426.5 446.5 426.5 448.157 424.485 449.5 422 449.5 419.515 449.5 417.5 448.157 417.5 446.5Z" stroke="#C0C0C0" stroke-linejoin="round" stroke-miterlimit="10" fill="#5F5F5F" fill-rule="evenodd"/><path d="M417.5 459.5C417.5 457.843 419.515 456.5 422 456.5 424.485 456.5 426.5 457.843 426.5 459.5 426.5 461.157 424.485 462.5 422 462.5 419.515 462.5 417.5 461.157 417.5 459.5Z" stroke="#C0C0C0" stroke-linejoin="round" stroke-miterlimit="10" fill="#5F5F5F" fill-rule="evenodd"/><path d="M368.5 432.5C368.5 430.843 370.515 429.5 373 429.5 375.485 429.5 377.5 430.843 377.5 432.5 377.5 434.157 375.485 435.5 373 435.5 370.515 435.5 368.5 434.157 368.5 432.5Z" stroke="#C0C0C0" stroke-linejoin="round" stroke-miterlimit="10" fill="#5F5F5F" fill-rule="evenodd"/><path d="M368.5 446.5C368.5 444.843 370.515 443.5 373 443.5 375.485 443.5 377.5 444.843 377.5 446.5 377.5 448.157 375.485 449.5 373 449.5 370.515 449.5 368.5 448.157 368.5 446.5Z" stroke="#C0C0C0" stroke-linejoin="round" stroke-miterlimit="10" fill="#5F5F5F" fill-rule="evenodd"/><path d="M368.5 459.5C368.5 457.843 370.515 456.5 373 456.5 375.485 456.5 377.5 457.843 377.5 459.5 377.5 461.157 375.485 462.5 373 462.5 370.515 462.5 368.5 461.157 368.5 459.5Z" stroke="#C0C0C0" stroke-linejoin="round" stroke-miterlimit="10" fill="#5F5F5F" fill-rule="evenodd"/><path d="M417.5 471.5C417.5 469.843 419.515 468.5 422 468.5 424.485 468.5 426.5 469.843 426.5 471.5 426.5 473.157 424.485 474.5 422 474.5 419.515 474.5 417.5 473.157 417.5 471.5Z" stroke="#C0C0C0" stroke-linejoin="round" stroke-miterlimit="10" fill="#5F5F5F" fill-rule="evenodd"/><path d="M368.5 471.5C368.5 469.843 370.515 468.5 373 468.5 375.485 468.5 377.5 469.843 377.5 471.5 377.5 473.157 375.485 474.5 373 474.5 370.515 474.5 368.5 473.157 368.5 471.5Z" stroke="#C0C0C0" stroke-linejoin="round" stroke-miterlimit="10" fill="#5F5F5F" fill-rule="evenodd"/><rect x="378" y="439" width="39" height="39" fill="#5F5F5F"/><rect x="87" y="136" width="524" height="43" fill="#CCCCFF"/><text font-family="Arial,Arial_MSFontService,sans-serif" font-weight="400" font-size="23" transform="translate(105.784 166)">Pin assignment to two external blocks A and</text><text font-family="Arial,Arial_MSFontService,sans-serif" font-style="italic" font-weight="400" font-size="23" transform="translate(555.61 166)">B</text><rect x="112.5" y="512.5" width="77" height="77" stroke="#000000" stroke-miterlimit="8" fill="#969696"/><path d="M184.5 532.5C184.5 529.739 186.515 527.5 189 527.5 191.485 527.5 193.5 529.739 193.5 532.5 193.5 535.261 191.485 537.5 189 537.5 186.515 537.5 184.5 535.261 184.5 532.5Z" stroke="#CC0000" stroke-width="2.66667" stroke-linejoin="round" stroke-miterlimit="10" fill="#CC0000" fill-rule="evenodd"/><path d="M126.5 589.5C126.5 586.739 128.739 584.5 131.5 584.5 134.261 584.5 136.5 586.739 136.5 589.5 136.5 592.261 134.261 594.5 131.5 594.5 128.739 594.5 126.5 592.261 126.5 589.5Z" stroke="#CC0000" stroke-width="2.66667" stroke-linejoin="round" stroke-miterlimit="10" fill="#CC0000" fill-rule="evenodd"/><path d="M164.5 589.5C164.5 586.739 166.739 584.5 169.5 584.5 172.261 584.5 174.5 586.739 174.5 589.5 174.5 592.261 172.261 594.5 169.5 594.5 166.739 594.5 164.5 592.261 164.5 589.5Z" stroke="#CC0000" stroke-width="2.66667" stroke-linejoin="round" stroke-miterlimit="10" fill="#CC0000" fill-rule="evenodd"/><text fill="#FFFFFF" font-family="Arial,Arial_MSFontService,sans-serif" font-style="italic" font-weight="400" font-size="24" transform="translate(144.083 558)">a</text><path d="M107.5 569.5C107.5 566.739 109.739 564.5 112.5 564.5 115.261 564.5 117.5 566.739 117.5 569.5 117.5 572.261 115.261 574.5 112.5 574.5 109.739 574.5 107.5 572.261 107.5 569.5Z" stroke="#CC0000" stroke-width="2.66667" stroke-linejoin="round" stroke-miterlimit="10" fill="#CC0000" fill-rule="evenodd"/><path d="M107.5 532.5C107.5 529.739 109.739 527.5 112.5 527.5 115.261 527.5 117.5 529.739 117.5 532.5 117.5 535.261 115.261 537.5 112.5 537.5 109.739 537.5 107.5 535.261 107.5 532.5Z" stroke="#CC0000" stroke-width="2.66667" stroke-linejoin="round" stroke-miterlimit="10" fill="#CC0000" fill-rule="evenodd"/><path d="M126.5 513C126.5 510.515 128.739 508.5 131.5 508.5 134.261 508.5 136.5 510.515 136.5 513 136.5 515.485 134.261 517.5 131.5 517.5 128.739 517.5 126.5 515.485 126.5 513Z" stroke="#CC0000" stroke-width="2.66667" stroke-linejoin="round" stroke-miterlimit="10" fill="#CC0000" fill-rule="evenodd"/><path d="M164.5 513C164.5 510.515 166.515 508.5 169 508.5 171.485 508.5 173.5 510.515 173.5 513 173.5 515.485 171.485 517.5 169 517.5 166.515 517.5 164.5 515.485 164.5 513Z" stroke="#CC0000" stroke-width="2.66667" stroke-linejoin="round" stroke-miterlimit="10" fill="#CC0000" fill-rule="evenodd"/><rect x="231.5" y="569.5" width="77" height="77" stroke="#000000" stroke-miterlimit="8" fill="#EAEAEA"/><path d="M303.5 626.5C303.5 623.739 305.515 621.5 308 621.5 310.485 621.5 312.5 623.739 312.5 626.5 312.5 629.261 310.485 631.5 308 631.5 305.515 631.5 303.5 629.261 303.5 626.5Z" stroke="#1860AB" stroke-width="2.66667" stroke-linejoin="round" stroke-miterlimit="10" fill="#1860AB" fill-rule="evenodd"/><path d="M303.5 589.5C303.5 586.739 305.515 584.5 308 584.5 310.485 584.5 312.5 586.739 312.5 589.5 312.5 592.261 310.485 594.5 308 594.5 305.515 594.5 303.5 592.261 303.5 589.5Z" stroke="#1860AB" stroke-width="2.66667" stroke-linejoin="round" stroke-miterlimit="10" fill="#1860AB" fill-rule="evenodd"/><text font-family="Arial,Arial_MSFontService,sans-serif" font-style="italic" font-weight="400" font-size="24" transform="translate(263.083 615)">b</text><path d="M226.5 626.5C226.5 623.739 228.739 621.5 231.5 621.5 234.261 621.5 236.5 623.739 236.5 626.5 236.5 629.261 234.261 631.5 231.5 631.5 228.739 631.5 226.5 629.261 226.5 626.5Z" stroke="#1860AB" stroke-width="2.66667" stroke-linejoin="round" stroke-miterlimit="10" fill="#1860AB" fill-rule="evenodd"/><path d="M226.5 589.5C226.5 586.739 228.739 584.5 231.5 584.5 234.261 584.5 236.5 586.739 236.5 589.5 236.5 592.261 234.261 594.5 231.5 594.5 228.739 594.5 226.5 592.261 226.5 589.5Z" stroke="#1860AB" stroke-width="2.66667" stroke-linejoin="round" stroke-miterlimit="10" fill="#1860AB" fill-rule="evenodd"/><path d="M245.5 570C245.5 567.515 247.739 565.5 250.5 565.5 253.261 565.5 255.5 567.515 255.5 570 255.5 572.485 253.261 574.5 250.5 574.5 247.739 574.5 245.5 572.485 245.5 570Z" stroke="#1860AB" stroke-width="2.66667" stroke-linejoin="round" stroke-miterlimit="10" fill="#1860AB" fill-rule="evenodd"/><path d="M283.5 570C283.5 567.515 285.515 565.5 288 565.5 290.485 565.5 292.5 567.515 292.5 570 292.5 572.485 290.485 574.5 288 574.5 285.515 574.5 283.5 572.485 283.5 570Z" stroke="#1860AB" stroke-width="2.66667" stroke-linejoin="round" stroke-miterlimit="10" fill="#1860AB" fill-rule="evenodd"/><path d="M407.5 646.5 276.5 610.5" stroke="#000000" stroke-linejoin="round" stroke-miterlimit="10" stroke-dasharray="4 3" fill="none" fill-rule="evenodd"/><path d="M263.5 606.5 47.5001 544.5" stroke="#000000" stroke-linejoin="round" stroke-miterlimit="10" stroke-dasharray="4 3" fill="none" fill-rule="evenodd"/><path d="M408.5 647.5 159.5 555.5" stroke="#000000" stroke-linejoin="round" stroke-miterlimit="10" stroke-dasharray="4 3" fill="none" fill-rule="evenodd"/><path d="M184.5 569.5C184.5 566.739 186.515 564.5 189 564.5 191.485 564.5 193.5 566.739 193.5 569.5 193.5 572.261 191.485 574.5 189 574.5 186.515 574.5 184.5 572.261 184.5 569.5Z" stroke="#CC0000" stroke-width="2.66667" stroke-linejoin="round" stroke-miterlimit="10" fill="#CC0000" fill-rule="evenodd"/><path d="M226 598.5C226 596.015 228.015 594 230.5 594 232.985 594 235 596.015 235 598.5 235 600.985 232.985 603 230.5 603 228.015 603 226 600.985 226 598.5Z" fill-rule="evenodd"/><path d="M184 584.5C184 582.015 186.015 580 188.5 580 190.985 580 193 582.015 193 584.5 193 586.985 190.985 589 188.5 589 186.015 589 184 586.985 184 584.5Z" fill-rule="evenodd"/><path d="M107 541C107 538.239 109.015 536 111.5 536 113.985 536 116 538.239 116 541 116 543.761 113.985 546 111.5 546 109.015 546 107 543.761 107 541Z" fill-rule="evenodd"/><path d="M66.1667 490 66.1667 512 63.8334 512 63.8333 490ZM65.0001 512 71.6667 506.667 65.0001 520 58.3334 506.667Z"/><path d="M1.16667-4.53647e-06 1.16674 19-1.16659 19-1.16667 4.53647e-06ZM7.38797e-05 19 6.66672 13.6666 0.000104987 27-6.66661 13.6667Z" transform="matrix(1 0 0 -1 64 579)"/><text font-family="Arial,Arial_MSFontService,sans-serif" font-style="italic" font-weight="400" font-size="24" transform="translate(50.0834 481)">l</text><text font-family="Arial,Arial_MSFontService,sans-serif" font-style="italic" font-weight="400" font-size="16" transform="translate(55.4167 486)">m</text><text font-family="Arial,Arial_MSFontService,sans-serif" font-weight="400" font-size="16" transform="translate(68.75 486)">~</text><text font-family="Arial,Arial_MSFontService,sans-serif" font-style="italic" font-weight="400" font-size="16" transform="translate(78.0834 486)">a</text><text font-family="Arial,Arial_MSFontService,sans-serif" font-style="italic" font-weight="400" font-size="24" transform="translate(48.5833 590)">l</text><text font-family="Arial,Arial_MSFontService,sans-serif" font-style="italic" font-weight="400" font-size="16" transform="translate(53.9166 595)">m</text><text font-family="Arial,Arial_MSFontService,sans-serif" font-weight="400" font-size="16" transform="translate(67.25 595)">~</text><text font-family="Arial,Arial_MSFontService,sans-serif" font-style="italic" font-weight="400" font-size="16" transform="translate(76.5833 595)">b</text><text font-family="Arial,Arial_MSFontService,sans-serif" font-style="italic" font-weight="400" font-size="24" transform="translate(88.1667 553)">d</text><text font-family="Arial,Arial_MSFontService,sans-serif" font-weight="400" font-size="16" transform="translate(101.5 558)">1</text><text font-family="Arial,Arial_MSFontService,sans-serif" font-style="italic" font-weight="400" font-size="24" transform="translate(175.167 609)">d</text><text font-family="Arial,Arial_MSFontService,sans-serif" font-weight="400" font-size="16" transform="translate(188.5 614)">2</text><text font-family="Arial,Arial_MSFontService,sans-serif" font-style="italic" font-weight="400" font-size="24" transform="translate(207.167 613)">d</text><text font-family="Arial,Arial_MSFontService,sans-serif" font-weight="400" font-size="16" transform="translate(220.5 618)">3</text><path d="M476.443 671.641 910.724 237.359" stroke="#000000" stroke-linejoin="round" stroke-miterlimit="10" fill="none" fill-rule="evenodd"/><path d="M486.416 661.584C484.528 659.697 484.528 656.637 486.416 654.749 488.303 652.861 491.363 652.861 493.251 654.749 495.139 656.637 495.139 659.697 493.251 661.584 491.363 663.472 488.303 663.472 486.416 661.584Z" stroke="#CC0000" stroke-width="2.66667" stroke-linejoin="round" stroke-miterlimit="10" fill="#CC0000" fill-rule="evenodd"/><path d="M513.582 634.418C511.695 632.53 511.695 629.47 513.582 627.582 515.47 625.695 518.53 625.695 520.418 627.582 522.305 629.47 522.305 632.53 520.418 634.418 518.53 636.305 515.47 636.305 513.582 634.418Z" stroke="#CC0000" stroke-width="2.66667" stroke-linejoin="round" stroke-miterlimit="10" fill="#CC0000" fill-rule="evenodd"/><path d="M540.916 607.084C539.028 605.197 539.028 602.137 540.916 600.249 542.803 598.362 545.864 598.362 547.751 600.249 549.639 602.137 549.639 605.197 547.751 607.084 545.864 608.972 542.803 608.972 540.916 607.084Z" stroke="#CC0000" stroke-width="2.66667" stroke-linejoin="round" stroke-miterlimit="10" fill="#CC0000" fill-rule="evenodd"/><path d="M568.082 579.918C566.195 578.03 566.195 574.97 568.082 573.082 569.97 571.195 573.03 571.195 574.918 573.082 576.805 574.97 576.805 578.03 574.918 579.918 573.03 581.805 569.97 581.805 568.082 579.918Z" stroke="#1860AB" stroke-width="2.66667" stroke-linejoin="round" stroke-miterlimit="10" fill="#1860AB" fill-rule="evenodd"/><path d="M595.249 552.751C593.362 550.864 593.362 547.803 595.249 545.916 597.137 544.028 600.197 544.028 602.084 545.916 603.972 547.803 603.972 550.864 602.084 552.751 600.197 554.639 597.137 554.639 595.249 552.751Z" stroke="#1860AB" stroke-width="2.66667" stroke-linejoin="round" stroke-miterlimit="10" fill="#1860AB" fill-rule="evenodd"/><path d="M622.582 525.418C620.695 523.53 620.695 520.47 622.582 518.582 624.47 516.695 627.53 516.695 629.418 518.582 631.305 520.47 631.305 523.53 629.418 525.418 627.53 527.305 624.47 527.305 622.582 525.418Z" stroke="#1860AB" stroke-width="2.66667" stroke-linejoin="round" stroke-miterlimit="10" fill="#1860AB" fill-rule="evenodd"/><path d="M649.749 498.251C647.861 496.363 647.861 493.303 649.749 491.416 651.637 489.528 654.697 489.528 656.584 491.416 658.472 493.303 658.472 496.363 656.584 498.251 654.697 500.139 651.637 500.139 649.749 498.251Z" stroke="#1860AB" stroke-width="2.66667" stroke-linejoin="round" stroke-miterlimit="10" fill="#1860AB" fill-rule="evenodd"/><path d="M676.916 471.084C675.028 469.197 675.028 466.137 676.916 464.249 678.803 462.362 681.864 462.362 683.751 464.249 685.639 466.137 685.639 469.197 683.751 471.084 681.864 472.972 678.803 472.972 676.916 471.084Z" stroke="#1860AB" stroke-width="2.66667" stroke-linejoin="round" stroke-miterlimit="10" fill="#1860AB" fill-rule="evenodd"/><path d="M704.249 443.751C702.362 441.864 702.362 438.803 704.249 436.916 706.137 435.028 709.197 435.028 711.084 436.916 712.972 438.803 712.972 441.864 711.084 443.751 709.197 445.639 706.137 445.639 704.249 443.751Z" stroke="#1860AB" stroke-width="2.66667" stroke-linejoin="round" stroke-miterlimit="10" fill="#1860AB" fill-rule="evenodd"/><path d="M731.416 416.584C729.528 414.697 729.528 411.637 731.416 409.749 733.303 407.861 736.364 407.861 738.251 409.749 740.139 411.637 740.139 414.697 738.251 416.584 736.364 418.472 733.303 418.472 731.416 416.584Z" stroke="#1860AB" stroke-width="2.66667" stroke-linejoin="round" stroke-miterlimit="10" fill="#1860AB" fill-rule="evenodd"/><path d="M758.582 389.418C756.695 387.53 756.695 384.47 758.582 382.582 760.47 380.695 763.53 380.695 765.418 382.582 767.305 384.47 767.305 387.53 765.418 389.418 763.53 391.305 760.47 391.305 758.582 389.418Z" stroke="#1860AB" stroke-width="2.66667" stroke-linejoin="round" stroke-miterlimit="10" fill="#1860AB" fill-rule="evenodd"/><path d="M785.916 362.084C784.028 360.197 784.028 357.137 785.916 355.249 787.803 353.362 790.864 353.362 792.751 355.249 794.639 357.137 794.639 360.197 792.751 362.084 790.864 363.972 787.803 363.972 785.916 362.084Z" stroke="#CC0000" stroke-width="2.66667" stroke-linejoin="round" stroke-miterlimit="10" fill="#CC0000" fill-rule="evenodd"/><path d="M813.082 334.918C811.195 333.03 811.195 329.97 813.082 328.082 814.97 326.195 818.03 326.195 819.918 328.082 821.805 329.97 821.805 333.03 819.918 334.918 818.03 336.805 814.97 336.805 813.082 334.918Z" stroke="#CC0000" stroke-width="2.66667" stroke-linejoin="round" stroke-miterlimit="10" fill="#CC0000" fill-rule="evenodd"/><path d="M840.249 307.751C838.362 305.864 838.362 302.803 840.249 300.916 842.137 299.028 845.197 299.028 847.084 300.916 848.972 302.803 848.972 305.864 847.084 307.751 845.197 309.639 842.137 309.639 840.249 307.751Z" stroke="#CC0000" stroke-width="2.66667" stroke-linejoin="round" stroke-miterlimit="10" fill="#CC0000" fill-rule="evenodd"/><path d="M867.582 280.418C865.695 278.53 865.695 275.47 867.582 273.582 869.47 271.695 872.53 271.695 874.418 273.582 876.305 275.47 876.305 278.53 874.418 280.418 872.53 282.305 869.47 282.305 867.582 280.418Z" stroke="#CC0000" stroke-width="2.66667" stroke-linejoin="round" stroke-miterlimit="10" fill="#CC0000" fill-rule="evenodd"/><path d="M894.749 253.251C892.861 251.363 892.861 248.303 894.749 246.416 896.637 244.528 899.697 244.528 901.584 246.416 903.472 248.303 903.472 251.363 901.584 253.251 899.697 255.139 896.637 255.139 894.749 253.251Z" stroke="#CC0000" stroke-width="2.66667" stroke-linejoin="round" stroke-miterlimit="10" fill="#CC0000" fill-rule="evenodd"/><path d="M406.194 646.895 101.464 410.975 102.076 410.185 406.806 646.105ZM100.377 414.56 96.5001 406.5 105.275 408.235Z"/><path d="M1.53042e-07-0.5 336.334-0.499897 336.334 0.500103-1.53042e-07 0.5ZM335-3.9999 343 0.000104987 335 4.0001Z" transform="matrix(-1 0 0 1 407.5 646.5)"/><path d="M393.5 647C393.5 638.992 399.992 632.5 408 632.5 416.008 632.5 422.5 638.992 422.5 647 422.5 655.008 416.008 661.5 408 661.5 399.992 661.5 393.5 655.008 393.5 647Z" stroke="#000000" stroke-linejoin="round" stroke-miterlimit="10" fill="#FFFFFF" fill-rule="evenodd"/><text font-family="Arial,Arial_MSFontService,sans-serif" font-style="italic" font-weight="400" font-size="24" transform="translate(397 652)">m</text><path d="M245.5 646.5C245.5 643.739 247.739 641.5 250.5 641.5 253.261 641.5 255.5 643.739 255.5 646.5 255.5 649.261 253.261 651.5 250.5 651.5 247.739 651.5 245.5 649.261 245.5 646.5Z" stroke="#1860AB" stroke-width="2.66667" stroke-linejoin="round" stroke-miterlimit="10" fill="#1860AB" fill-rule="evenodd"/><path d="M283.5 646.5C283.5 643.739 285.739 641.5 288.5 641.5 291.261 641.5 293.5 643.739 293.5 646.5 293.5 649.261 291.261 651.5 288.5 651.5 285.739 651.5 283.5 649.261 283.5 646.5Z" stroke="#1860AB" stroke-width="2.66667" stroke-linejoin="round" stroke-miterlimit="10" fill="#1860AB" fill-rule="evenodd"/><path d="M145.5 550.5 49.5 515.5" stroke="#000000" stroke-linejoin="round" stroke-miterlimit="10" stroke-dasharray="4 3" fill="none" fill-rule="evenodd"/><path d="M807.5 585C807.5 576.992 813.768 570.5 821.5 570.5 829.232 570.5 835.5 576.992 835.5 585 835.5 593.008 829.232 599.5 821.5 599.5 813.768 599.5 807.5 593.008 807.5 585Z" stroke="#000000" stroke-linejoin="round" stroke-miterlimit="10" fill="#FFFFFF" fill-rule="evenodd"/><text font-family="Arial,Arial_MSFontService,sans-serif" font-style="italic" font-weight="400" font-size="24" transform="translate(809.833 591)">m</text><path d="M770 586C770 557.281 793.505 534 822.5 534 851.495 534 875 557.281 875 586 875 614.719 851.495 638 822.5 638 793.505 638 770 614.719 770 586Z" stroke="#000000" stroke-width="2" stroke-linejoin="round" stroke-miterlimit="10" stroke-dasharray="8 6" fill="none" fill-rule="evenodd"/><path d="M0.496766-0.0567733 0.950953 3.91736-0.04258 4.0309-0.496766 0.0567733ZM1.29159 6.89795 1.74578 10.8721 0.752246 10.9856 0.29806 7.0115ZM2.08642 13.8527 2.5406 17.8268 1.54707 17.9404 1.09289 13.9662ZM2.88124 20.8074 3.33543 24.7815 2.3419 24.8951 1.88771 20.921ZM3.67607 27.7621 4.13026 31.7363 3.13672 31.8498 2.68254 27.8757ZM4.4709 34.7169 4.92508 38.691 3.93155 38.8045 3.47736 34.8304ZM5.26572 41.6716 5.71991 45.6457 4.72638 45.7593 4.27219 41.7851ZM6.06055 48.6263 6.51474 52.6005 5.5212 52.714 5.06702 48.7399ZM6.85537 55.5811 7.30956 59.5552 6.31603 59.6687 5.86184 55.6946ZM7.6502 62.5358 8.10439 66.5099 7.11085 66.6235 6.65667 62.6493ZM8.44503 69.4905 8.89921 73.4646 7.90568 73.5782 7.45149 69.604ZM9.23985 76.4452 9.69404 80.4194 8.70051 80.5329 8.24632 76.5588ZM10.0347 83.4 10.4889 87.3741 9.49533 87.4876 9.04115 83.5135ZM10.8295 90.3547 11.2837 94.3288 10.2902 94.4424 9.83597 90.4682ZM11.6243 97.3094 12.0785 101.284 11.085 101.397 10.6308 97.423ZM12.4192 104.264 12.8733 108.238 11.8798 108.352 11.4256 104.378ZM13.214 111.219 13.6682 115.193 12.6746 115.307 12.2205 111.332ZM14.0088 118.174 14.463 122.148 13.4695 122.261 13.0153 118.287ZM14.8036 125.128 15.2578 129.103 14.2643 129.216 13.8101 125.242ZM15.5985 132.083 16.0526 136.057 15.0591 136.171 14.6049 132.197ZM16.3933 139.038 16.8475 143.012 15.8539 143.126 15.3998 139.151ZM17.1881 145.993 17.6423 149.967 16.6488 150.08 16.1946 146.106ZM17.9829 152.947 18.4371 156.921 17.4436 157.035 16.9894 153.061ZM18.7778 159.902 19.232 163.876 18.2384 163.99 17.7842 160.016ZM19.5726 166.857 20.0268 170.831 19.0332 170.944 18.5791 166.97ZM20.3674 173.811 20.8216 177.786 19.8281 177.899 19.3739 173.925ZM21.1622 180.766 21.6164 184.74 20.6229 184.854 20.1687 180.88ZM21.9571 187.721 22.4113 191.695 21.4177 191.809 20.9635 187.834ZM22.7519 194.676 23.2061 198.65 22.2125 198.763 21.7584 194.789ZM23.5467 201.63 24.0009 205.605 23.0074 205.718 22.5532 201.744ZM24.3415 208.585 24.7957 212.559 23.8022 212.673 23.348 208.699ZM25.1364 215.54 25.5906 219.514 24.597 219.628 24.1428 215.653ZM25.9312 222.495 26.3854 226.469 25.3919 226.582 24.9377 222.608ZM26.726 229.449 27.1802 233.423 26.1867 233.537 25.7325 229.563ZM27.5209 236.404 27.975 240.378 26.9815 240.492 26.5273 236.518ZM28.3157 243.359 28.7699 247.333 27.7763 247.446 27.3221 243.472ZM29.1105 250.313 29.5647 254.288 28.5712 254.401 28.117 250.427ZM29.9053 257.268 30.3595 261.242 29.366 261.356 28.9118 257.382ZM30.7002 264.223 31.1543 268.197 30.1608 268.311 29.7066 264.336ZM31.495 271.178 31.5883 271.994 30.5948 272.108 30.5015 271.291ZM31.0916 272.052 37.1096 265.996 32 280 23.8625 267.51Z" transform="matrix(-1 0 0 1 900.5 272.5)"/><path d="M0.498315-0.0410136 0.826424 3.94551-0.170206 4.02753-0.498315 0.0410136ZM1.07251 6.9354 1.40061 10.9219 0.403984 11.0039 0.0758751 7.01742ZM1.6467 13.9118 1.9748 17.8983 0.978174 17.9804 0.650065 13.9938ZM2.22089 20.8882 2.54899 24.8747 1.55236 24.9568 1.22426 20.9702ZM2.79508 27.8646 3.12318 31.8511 2.12655 31.9332 1.79845 27.9467ZM3.36927 34.841 3.69737 38.8276 2.70074 38.9096 2.37264 34.9231ZM3.94346 41.8174 4.27156 45.804 3.27493 45.886 2.94683 41.8995ZM4.51765 48.7939 4.84575 52.7804 3.84912 52.8624 3.52102 48.8759ZM5.09184 55.7703 5.41994 59.7568 4.42331 59.8388 4.09521 55.8523ZM5.66603 62.7467 5.99413 66.7332 4.9975 66.8152 4.6694 62.8287ZM6.24022 69.7231 6.56832 73.7096 5.57169 73.7916 5.24359 69.8051ZM6.81441 76.6995 7.14251 80.686 6.14588 80.7681 5.81778 76.7815ZM7.3886 83.6759 7.7167 87.6624 6.72007 87.7445 6.39197 83.7579ZM7.96279 90.6523 8.2909 94.6388 7.29426 94.7209 6.96616 90.7343ZM8.53698 97.6287 8.86509 101.615 7.86846 101.697 7.54035 97.7108ZM9.11117 104.605 9.43928 108.592 8.44265 108.674 8.11454 104.687ZM9.68536 111.582 10.0135 115.568 9.01684 115.65 8.68873 111.664ZM10.2595 118.558 10.5877 122.544 9.59103 122.627 9.26292 118.64ZM10.8337 125.534 11.1618 129.521 10.1652 129.603 9.83711 125.616ZM11.4079 132.511 11.736 136.497 10.7394 136.579 10.4113 132.593ZM11.9821 139.487 12.3102 143.474 11.3136 143.556 10.9855 139.569ZM12.5563 146.464 12.8844 150.45 11.8878 150.532 11.5597 146.546ZM13.1305 153.44 13.4586 157.427 12.462 157.509 12.1339 153.522ZM13.7047 160.416 14.0328 164.403 13.0362 164.485 12.7081 160.499ZM14.2789 167.393 14.607 171.379 13.6104 171.461 13.2822 167.475ZM14.8531 174.369 15.1812 178.356 14.1845 178.438 13.8564 174.451ZM15.4273 181.346 15.7554 185.332 14.7587 185.414 14.4306 181.428ZM16.0014 188.322 16.3296 192.309 15.3329 192.391 15.0048 188.404ZM16.5756 195.299 16.9037 199.285 15.9071 199.367 15.579 195.381ZM17.1498 202.275 17.4779 206.261 16.4813 206.343 16.1532 202.357ZM17.724 209.251 18.0521 213.238 17.0555 213.32 16.7274 209.333ZM18.2982 216.228 18.6263 220.214 17.6297 220.296 17.3016 216.31ZM18.8724 223.204 19.2005 227.191 18.2039 227.273 17.8758 223.286ZM19.4466 230.181 19.7747 234.167 18.7781 234.249 18.45 230.263ZM19.3438 235.027 25.5505 229.165 20 243 12.2621 230.258Z" transform="matrix(-1 0 0 1 875.5 293.5)"/><path d="M0.499907-0.00966003 0.577187 3.98959-0.422626 4.00891-0.499907 0.00966003ZM0.635147 6.98903 0.712427 10.9883-0.287386 11.0076-0.364666 7.00835ZM0.770388 13.9877 0.847668 17.987-0.152146 18.0063-0.229426 14.007ZM0.905628 20.9864 0.982908 24.9857-0.0169051 25.005-0.0941854 21.0057ZM1.04087 27.9851 1.11815 31.9844 0.118335 32.0037 0.0410551 28.0044ZM1.17611 34.9838 1.25339 38.9831 0.253576 39.0024 0.176296 35.0031ZM1.31135 41.9825 1.38863 45.9818 0.388816 46.0011 0.311536 42.0018ZM1.44659 48.9812 1.52387 52.9804 0.524057 52.9998 0.446777 49.0005ZM1.58183 55.9799 1.65911 59.9791 0.659297 59.9985 0.582017 55.9992ZM1.71707 62.9786 1.79435 66.9778 0.794538 66.9971 0.717258 62.9979ZM1.85231 69.9773 1.92959 73.9765 0.929778 73.9958 0.852498 69.9966ZM1.98755 76.976 2.06483 80.9752 1.06502 80.9945 0.987738 76.9953ZM2.12279 83.9747 2.20007 87.9739 1.20026 87.9932 1.12298 83.994ZM2.25803 90.9734 2.33531 94.9726 1.3355 94.9919 1.25822 90.9927ZM2.39327 97.972 2.47055 101.971 1.47074 101.991 1.39346 97.9914ZM2.52851 104.971 2.60579 108.97 1.60598 108.989 1.5287 104.99ZM2.66375 111.969 2.74103 115.969 1.74122 115.988 1.66394 111.989ZM2.79899 118.968 2.87627 122.967 1.87646 122.987 1.79918 118.987ZM2.93423 125.967 3.01151 129.966 2.0117 129.985 1.93442 125.986ZM3.06947 132.965 3.14675 136.965 2.14694 136.984 2.06966 132.985ZM3.20472 139.964 3.282 143.963 2.28218 143.983 2.2049 139.984ZM3.33996 146.963 3.41724 150.962 2.41742 150.981 2.34014 146.982ZM3.4752 153.962 3.55248 157.961 2.55266 157.98 2.47538 153.981ZM3.61044 160.96 3.68772 164.96 2.6879 164.979 2.61062 160.98ZM3.74568 167.959 3.82296 171.958 2.82314 171.978 2.74586 167.978ZM3.88092 174.958 3.9582 178.957 2.95838 178.976 2.8811 174.977ZM4.01616 181.956 4.09344 185.956 3.09363 185.975 3.01634 181.976ZM4.1514 188.955 4.22868 192.954 3.22887 192.974 3.15159 188.974ZM4.28664 195.954 4.34534 198.991 3.34553 199.011 3.28683 195.973ZM3.84544 199.001 10.4078 193.54 4 207-2.92302 193.798Z" transform="matrix(-1 0 0 1 846.5 323.5)"/><path d="M821 347.478 821.175 351.474 820.176 351.518 820.001 347.522ZM821.307 354.471 821.483 358.467 820.484 358.511 820.308 354.515ZM821.614 361.465 821.79 365.461 820.791 365.505 820.615 361.509ZM821.922 368.458 822.097 372.454 821.098 372.498 820.923 368.502ZM822.229 375.451 822.405 379.447 821.406 379.491 821.23 375.495ZM822.537 382.444 822.712 386.44 821.713 386.484 821.538 382.488ZM822.844 389.438 823.02 393.434 822.021 393.478 821.845 389.482ZM823.151 396.431 823.327 400.427 822.328 400.471 822.152 396.475ZM823.459 403.424 823.634 407.42 822.635 407.464 822.46 403.468ZM823.766 410.417 823.942 414.413 822.943 414.457 822.767 410.461ZM824.074 417.411 824.249 421.407 823.25 421.451 823.075 417.454ZM824.381 424.404 824.557 428.4 823.558 428.444 823.382 424.448ZM824.688 431.397 824.864 435.393 823.865 435.437 823.689 431.441ZM824.996 438.39 825.171 442.386 824.172 442.43 823.997 438.434ZM825.303 445.384 825.479 449.38 824.48 449.424 824.304 445.427ZM825.611 452.377 825.786 456.373 824.787 456.417 824.611 452.421ZM825.918 459.37 826.094 463.366 825.095 463.41 824.919 459.414ZM826.225 466.363 826.401 470.359 825.402 470.403 825.226 466.407ZM826.533 473.357 826.708 477.353 825.709 477.397 825.534 473.4ZM826.84 480.35 827.016 484.346 826.017 484.39 825.841 480.394ZM827.147 487.343 827.323 491.339 826.324 491.383 826.148 487.387ZM827.455 494.336 827.631 498.332 826.632 498.376 826.456 494.38ZM827.762 501.33 827.938 505.326 826.939 505.37 826.763 501.373ZM828.07 508.323 828.245 512.319 827.246 512.363 827.071 508.367ZM828.377 515.316 828.553 519.312 827.554 519.356 827.378 515.36ZM828.149 521.508 834.575 515.887 828.5 529.5 821.254 516.472Z"/><path d="M795.996 373.439 796.483 377.41 795.49 377.531 795.004 373.561ZM796.848 380.387 797.335 384.358 796.342 384.479 795.855 380.509ZM797.7 387.335 798.186 391.305 797.194 391.427 796.707 387.457ZM798.551 394.283 799.038 398.253 798.046 398.375 797.559 394.405ZM799.403 401.231 799.89 405.201 798.897 405.323 798.411 401.353ZM800.255 408.179 800.741 412.149 799.749 412.271 799.262 408.301ZM801.107 415.127 801.593 419.097 800.601 419.219 800.114 415.249ZM801.958 422.075 802.445 426.045 801.452 426.167 800.966 422.197ZM802.81 429.023 803.297 432.993 802.304 433.115 801.817 429.145ZM803.662 435.971 804.148 439.941 803.156 440.063 802.669 436.093ZM804.513 442.919 805 446.889 804.007 447.011 803.521 443.041ZM805.365 449.867 805.852 453.837 804.859 453.959 804.372 449.989ZM806.217 456.815 806.703 460.785 805.711 460.907 805.224 456.937ZM807.068 463.763 807.555 467.733 806.562 467.855 806.076 463.885ZM807.92 470.711 808.407 474.681 807.414 474.803 806.927 470.833ZM808.772 477.659 809.258 481.629 808.266 481.751 807.779 477.781ZM809.623 484.607 810.11 488.577 809.117 488.699 808.631 484.729ZM810.475 491.555 810.962 495.525 809.969 495.647 809.482 491.677ZM811.327 498.503 811.813 502.473 810.821 502.595 810.334 498.625ZM812.178 505.451 812.665 509.421 811.673 509.543 811.186 505.573ZM813.03 512.399 813.517 516.369 812.524 516.491 812.038 512.521ZM813.882 519.347 814.023 520.498 813.03 520.62 812.889 519.469ZM813.527 520.56 819.495 514.455 814.5 528.5 806.261 516.077Z"/><path d="M767.983 398.372 769.007 402.239 768.04 402.495 767.017 398.628ZM769.775 405.139 770.798 409.006 769.832 409.262 768.808 405.395ZM771.566 411.906 772.589 415.773 771.623 416.029 770.599 412.162ZM773.357 418.673 774.381 422.54 773.414 422.796 772.39 418.929ZM775.148 425.44 776.172 429.307 775.205 429.563 774.182 425.696ZM776.94 432.207 777.963 436.074 776.997 436.329 775.973 432.463ZM778.731 438.974 779.754 442.841 778.788 443.096 777.764 439.23ZM780.522 445.741 781.546 449.607 780.579 449.863 779.555 445.997ZM782.313 452.508 783.337 456.374 782.37 456.63 781.347 452.763ZM784.105 459.275 785.128 463.141 784.161 463.397 783.138 459.53ZM785.896 466.041 786.919 469.908 785.953 470.164 784.929 466.297ZM787.687 472.808 788.711 476.675 787.744 476.931 786.72 473.064ZM789.478 479.575 790.502 483.442 789.535 483.698 788.512 479.831ZM791.27 486.342 792.293 490.209 791.326 490.465 790.303 486.598ZM793.061 493.109 794.084 496.976 793.118 497.232 792.094 493.365ZM794.852 499.876 795.876 503.743 794.909 503.999 793.885 500.132ZM796.643 506.643 797.667 510.51 796.7 510.766 795.677 506.899ZM798.435 513.41 799.458 517.277 798.492 517.533 797.468 513.666ZM800.226 520.177 801.249 524.044 800.283 524.3 799.259 520.433ZM801.453 526.766 806.533 519.905 803.5 534.5 793.643 523.317Z"/><path d="M713.9 447.199 716.305 450.395 715.506 450.997 713.101 447.801ZM718.109 452.792 720.514 455.989 719.715 456.59 717.31 453.394ZM722.318 458.386 724.723 461.582 723.924 462.183 721.519 458.987ZM726.527 463.979 728.932 467.175 728.133 467.776 725.728 464.58ZM730.736 469.572 733.142 472.768 732.343 473.369 729.937 470.173ZM734.946 475.165 737.351 478.361 736.552 478.962 734.147 475.766ZM739.155 480.758 741.56 483.954 740.761 484.555 738.356 481.359ZM743.364 486.351 745.769 489.547 744.97 490.148 742.565 486.952ZM747.573 491.944 749.979 495.14 749.18 495.741 746.774 492.545ZM751.783 497.537 754.188 500.733 753.389 501.334 750.984 498.138ZM755.992 503.13 758.397 506.326 757.598 506.927 755.193 503.731ZM760.201 508.723 762.606 511.919 761.807 512.521 759.402 509.325ZM764.41 514.316 766.815 517.512 766.016 518.114 763.611 514.918ZM768.619 519.909 771.025 523.105 770.226 523.707 767.82 520.511ZM772.829 525.502 775.234 528.698 774.435 529.3 772.03 526.104ZM777.038 531.096 779.443 534.292 778.644 534.893 776.239 531.697ZM781.247 536.689 782.089 537.807 781.29 538.409 780.448 537.29ZM781.69 538.108 783.809 529.838 786.5 544.5 773.156 537.855Z"/><path d="M690.824 475.12 693.869 477.714 693.22 478.475 690.176 475.881ZM696.152 479.66 699.196 482.255 698.548 483.016 695.503 480.421ZM701.48 484.201 704.524 486.795 703.875 487.556 700.831 484.962ZM706.807 488.741 709.852 491.336 709.203 492.097 706.159 489.502ZM712.135 493.282 715.179 495.876 714.53 496.637 711.486 494.043ZM717.462 497.822 720.507 500.417 719.858 501.178 716.814 498.583ZM722.79 502.363 725.834 504.958 725.186 505.719 722.141 503.124ZM728.118 506.903 731.162 509.498 730.513 510.259 727.469 507.665ZM733.445 511.444 736.49 514.039 735.841 514.8 732.797 512.205ZM738.773 515.985 741.817 518.579 741.168 519.34 738.124 516.746ZM744.1 520.525 747.145 523.12 746.496 523.881 743.452 521.286ZM749.428 525.066 752.472 527.66 751.824 528.421 748.779 525.827ZM754.755 529.606 757.8 532.201 757.151 532.962 754.107 530.367ZM760.083 534.147 763.127 536.741 762.479 537.503 759.434 534.908ZM765.411 538.687 768.455 541.282 767.806 542.043 764.762 539.448ZM770.738 543.228 772.736 544.93 772.087 545.691 770.09 543.989ZM772.411 545.311 772.677 536.777 778.5 550.5 764.028 546.925Z"/><path d="M663.725 502.054 667.297 503.855 666.846 504.748 663.275 502.946ZM669.975 505.207 673.546 507.008 673.096 507.901 669.525 506.099ZM676.225 508.36 679.796 510.161 679.345 511.054 675.774 509.252ZM682.474 511.513 686.046 513.314 685.595 514.207 682.024 512.405ZM688.724 514.666 692.295 516.467 691.845 517.36 688.274 515.558ZM694.974 517.819 698.545 519.62 698.095 520.513 694.523 518.711ZM701.223 520.972 704.795 522.773 704.344 523.666 700.773 521.864ZM707.473 524.125 711.044 525.926 710.594 526.819 707.023 525.017ZM713.723 527.278 717.294 529.079 716.844 529.972 713.272 528.17ZM719.972 530.431 723.544 532.232 723.093 533.125 719.522 531.323ZM726.222 533.584 729.793 535.385 729.343 536.278 725.772 534.476ZM732.472 536.737 736.043 538.538 735.593 539.431 732.021 537.629ZM738.722 539.89 742.293 541.691 741.842 542.584 738.271 540.782ZM744.971 543.043 748.542 544.844 748.092 545.737 744.521 543.935ZM751.221 546.196 754.792 547.997 754.342 548.89 750.771 547.088ZM757.471 549.349 761.042 551.15 760.591 552.043 757.02 550.241ZM763.72 552.502 767.292 554.303 766.841 555.196 763.27 553.394ZM767.358 554.897 765.599 546.542 774.5 558.5 759.593 558.446Z"/><path d="M633.635 527.018 637.487 528.095 637.218 529.058 633.365 527.982ZM640.376 528.902 644.229 529.979 643.96 530.942 640.107 529.865ZM647.118 530.786 650.971 531.862 650.702 532.826 646.849 531.749ZM653.86 532.67 657.712 533.746 657.443 534.709 653.591 533.633ZM660.602 534.553 664.454 535.63 664.185 536.593 660.333 535.517ZM667.344 536.437 671.196 537.514 670.927 538.477 667.074 537.4ZM674.085 538.321 677.938 539.397 677.669 540.36 673.816 539.284ZM680.827 540.205 684.68 541.281 684.41 542.244 680.558 541.168ZM687.569 542.088 691.421 543.165 691.152 544.128 687.3 543.051ZM694.311 543.972 698.163 545.049 697.894 546.012 694.042 544.935ZM701.052 545.856 704.905 546.932 704.636 547.895 700.783 546.819ZM707.794 547.74 711.647 548.816 711.378 549.779 707.525 548.703ZM714.536 549.623 718.388 550.7 718.119 551.663 714.267 550.586ZM721.278 551.507 725.13 552.583 724.861 553.547 721.009 552.47ZM728.019 553.391 731.872 554.467 731.603 555.43 727.75 554.354ZM734.761 555.274 738.614 556.351 738.345 557.314 734.492 556.238ZM741.503 557.158 745.355 558.235 745.086 559.198 741.234 558.121ZM748.245 559.042 752.097 560.118 751.828 561.081 747.976 560.005ZM754.987 560.926 758.839 562.002 758.57 562.965 754.717 561.889ZM761.728 562.809 761.93 562.866 761.661 563.829 761.459 563.773ZM761.795 563.347 758.453 555.491 769.5 565.5 754.865 568.333Z"/><path d="M610.57 551.005 614.531 551.567 614.39 552.557 610.43 551.995ZM617.501 551.989 621.461 552.551 621.321 553.541 617.36 552.979ZM624.431 552.972 628.392 553.534 628.251 554.525 624.291 553.962ZM631.362 553.956 635.322 554.518 635.182 555.508 631.221 554.946ZM638.292 554.94 642.253 555.502 642.112 556.492 638.152 555.93ZM645.223 555.923 649.183 556.486 649.043 557.476 645.083 556.914ZM652.154 556.907 656.114 557.469 655.973 558.459 652.013 557.897ZM659.084 557.891 663.044 558.453 662.904 559.443 658.944 558.881ZM666.015 558.875 669.975 559.437 669.834 560.427 665.874 559.865ZM672.945 559.858 676.905 560.42 676.765 561.41 672.805 560.848ZM679.876 560.842 683.836 561.404 683.695 562.394 679.735 561.832ZM686.806 561.826 690.767 562.388 690.626 563.378 686.666 562.816ZM693.737 562.809 697.697 563.371 697.557 564.361 693.596 563.799ZM700.667 563.793 704.628 564.355 704.487 565.345 700.527 564.783ZM707.598 564.777 711.558 565.339 711.418 566.329 707.457 565.767ZM714.528 565.76 718.489 566.322 718.348 567.313 714.388 566.75ZM721.459 566.744 725.419 567.306 725.279 568.296 721.318 567.734ZM728.389 567.728 732.35 568.29 732.209 569.28 728.249 568.718ZM735.32 568.711 739.28 569.274 739.14 570.264 735.18 569.701ZM742.251 569.695 746.211 570.257 746.07 571.247 742.11 570.685ZM749.181 570.679 753.141 571.241 753.001 572.231 749.041 571.669ZM756.112 571.662 757.649 571.881 757.509 572.871 755.971 572.653ZM757.579 572.376 753.236 565.026 765.5 573.5 751.362 578.227Z"/><path d="M580.513 580 584.512 580.107 584.485 581.107 580.487 581ZM587.511 580.187 591.51 580.294 591.483 581.294 587.484 581.187ZM594.508 580.374 598.507 580.481 598.48 581.481 594.482 581.374ZM601.506 580.562 605.505 580.668 605.478 581.668 601.479 581.561ZM608.503 580.749 612.502 580.856 612.475 581.855 608.477 581.748ZM615.501 580.936 619.5 581.043 619.473 582.042 615.474 581.935ZM622.498 581.123 626.497 581.23 626.47 582.229 622.472 582.122ZM629.496 581.31 633.495 581.417 633.468 582.417 629.469 582.31ZM636.493 581.497 640.492 581.604 640.465 582.604 636.467 582.497ZM643.491 581.684 647.49 581.791 647.463 582.791 643.464 582.684ZM650.488 581.871 654.487 581.978 654.46 582.978 650.462 582.871ZM657.486 582.058 661.484 582.165 661.458 583.165 657.459 583.058ZM664.483 582.245 668.482 582.352 668.455 583.352 664.457 583.245ZM671.481 582.432 675.479 582.539 675.453 583.539 671.454 583.432ZM678.478 582.62 682.477 582.727 682.45 583.726 678.452 583.619ZM685.476 582.807 689.474 582.914 689.448 583.913 685.449 583.806ZM692.473 582.994 696.472 583.101 696.445 584.1 692.447 583.993ZM699.471 583.181 703.469 583.288 703.443 584.287 699.444 584.181ZM706.468 583.368 710.467 583.475 710.44 584.475 706.442 584.368ZM713.466 583.555 717.464 583.662 717.438 584.662 713.439 584.555ZM720.463 583.742 724.462 583.849 724.435 584.849 720.437 584.742ZM727.461 583.929 731.459 584.036 731.433 585.036 727.434 584.929ZM734.458 584.116 738.457 584.223 738.43 585.223 734.432 585.116ZM741.456 584.304 745.454 584.41 745.428 585.41 741.429 585.303ZM748.453 584.491 752.452 584.598 752.425 585.597 748.427 585.49ZM755.451 584.678 759.449 584.785 759.423 585.784 755.424 585.677ZM759.503 585.286 754.35 578.479 767.5 585.5 753.993 591.808Z"/><path d="M0.0238961-0.499429 4.01933-0.30826 3.97153 0.690597-0.0238961 0.499429ZM7.0159-0.164883 11.0113 0.0262857 10.9635 1.02514 6.96811 0.833974ZM14.0079 0.169662 18.0033 0.360831 17.9555 1.35969 13.9601 1.16852ZM20.9999 0.504208 24.9953 0.695377 24.9475 1.69423 20.9521 1.50307ZM27.9919 0.838753 31.9873 1.02992 31.9395 2.02878 27.9441 1.83761ZM34.9839 1.1733 38.9793 1.36447 38.9315 2.36332 34.9361 2.17216ZM41.9759 1.50784 45.9713 1.69901 45.9235 2.69787 41.9281 2.5067ZM48.9679 1.84239 52.9633 2.03356 52.9155 3.03242 48.9201 2.84125ZM55.9599 2.17693 59.9553 2.3681 59.9075 3.36696 55.9121 3.17579ZM62.9519 2.51148 66.9473 2.70265 66.8995 3.70151 62.9041 3.51034ZM69.9439 2.84603 73.9393 3.03719 73.8915 4.03605 69.8961 3.84488ZM76.9359 3.18057 80.9313 3.37174 80.8835 4.3706 76.8881 4.17943ZM83.9279 3.51512 87.9233 3.70629 87.8755 4.70514 83.8801 4.51397ZM90.9199 3.84966 94.9153 4.04083 94.8675 5.03969 90.8721 4.84852ZM97.9119 4.18421 101.907 4.37538 101.86 5.37423 97.8641 5.18307ZM104.904 4.51875 108.899 4.70992 108.852 5.70878 104.856 5.51761ZM111.896 4.8533 115.891 5.04447 115.844 6.04333 111.848 5.85216ZM118.888 5.18784 122.883 5.37901 122.836 6.37787 118.84 6.1867ZM125.88 5.52239 129.875 5.71356 129.828 6.71242 125.832 6.52125ZM132.872 5.85694 136.867 6.0481 136.82 7.04696 132.824 6.85579ZM139.864 6.19148 143.859 6.38265 143.812 7.38151 139.816 7.19034ZM146.856 6.52603 150.851 6.7172 150.804 7.71605 146.808 7.52488ZM153.848 6.86057 157.843 7.05174 157.796 8.0506 153.8 7.85943ZM160.84 7.19512 164.835 7.38629 164.788 8.38514 160.792 8.19398ZM167.832 7.52966 171.827 7.72083 171.78 8.71969 167.784 8.52852ZM174.824 7.86421 178.819 8.05538 178.772 9.05424 174.776 8.86307ZM181.816 8.19876 185.811 8.38992 185.764 9.38878 181.768 9.19761ZM188.808 8.5333 192.803 8.72447 192.756 9.72333 188.76 9.53216ZM195.8 8.86785 199.795 9.05901 199.748 10.0579 195.752 9.8667ZM201.009 9.61766 196.001 2.70372 209 10 195.363 16.0218Z" transform="matrix(1 0 0 -1 555.5 606.5)"/><path d="M0.0489441-0.497599 4.02973-0.106046 3.93185 0.889152-0.0489441 0.497599ZM7.01533 0.187619 10.9961 0.579172 10.8982 1.57437 6.91744 1.18282ZM13.9817 0.872837 17.9625 1.26439 17.8646 2.25959 13.8838 1.86803ZM20.9481 1.55806 24.9289 1.94961 24.831 2.94481 20.8502 2.55325ZM27.9145 2.24327 31.8953 2.63483 31.7974 3.63002 27.8166 3.23847ZM34.8809 2.92849 38.8616 3.32004 38.7638 4.31524 34.783 3.92369ZM41.8472 3.61371 45.828 4.00526 45.7301 5.00046 41.7493 4.60891ZM48.8136 4.29893 52.7944 4.69048 52.6965 5.68568 48.7157 5.29412ZM55.78 4.98414 59.7608 5.3757 59.6629 6.37089 55.6821 5.97934ZM62.7464 5.66936 66.7272 6.06091 66.6293 7.05611 62.6485 6.66456ZM69.7128 6.35458 73.6936 6.74613 73.5957 7.74133 69.6149 7.34978ZM76.6791 7.0398 80.6599 7.43135 80.562 8.42655 76.5813 8.035ZM83.6455 7.72502 87.6263 8.11657 87.5284 9.11177 83.5476 8.72021ZM90.6119 8.41023 94.5927 8.80179 94.4948 9.79698 90.514 9.40543ZM97.5783 9.09545 101.559 9.48701 101.461 10.4822 97.4804 10.0906ZM104.545 9.78067 108.525 10.1722 108.428 11.1674 104.447 10.7759ZM111.511 10.4659 115.492 10.8574 115.394 11.8526 111.413 11.4611ZM118.477 11.1511 122.458 11.5427 122.36 12.5379 118.38 12.1463ZM125.444 11.8363 129.425 12.2279 129.327 13.2231 125.346 12.8315ZM132.41 12.5215 136.391 12.9131 136.293 13.9083 132.312 13.5167ZM139.377 13.2068 143.357 13.5983 143.259 14.5935 139.279 14.202ZM146.343 13.892 150.324 14.2835 150.226 15.2787 146.245 14.8872ZM153.309 14.5772 157.29 14.9688 157.192 15.9639 153.211 15.5724ZM160.276 15.2624 164.256 15.654 164.159 16.6492 160.178 16.2576ZM167.242 15.9476 171.223 16.3392 171.125 17.3344 167.144 16.9428ZM174.208 16.6329 178.189 17.0244 178.091 18.0196 174.111 17.628ZM181.175 17.3181 185.156 17.7096 185.058 18.7048 181.077 18.3133ZM188.141 18.0033 192.122 18.3948 192.024 19.39 188.043 18.9985ZM195.108 18.6885 199.088 19.0801 198.99 20.0753 195.01 19.6837ZM202.074 19.3737 206.055 19.7653 205.957 20.7605 201.976 20.3689ZM209.04 20.0589 213.021 20.4505 212.923 21.4457 208.942 21.0541ZM216.007 20.7442 219.988 21.1357 219.89 22.1309 215.909 21.7394ZM222.973 21.4294 226.954 21.8209 226.856 22.8161 222.875 22.4246ZM229.94 22.1146 233.92 22.5061 233.822 23.5013 229.842 23.1098ZM236.038 23.2169 231.383 16.0602 244 24 230.078 29.3295Z" transform="matrix(1 0 0 -1 525.5 633.5)"/><path d="M0.0804206-0.49349 4.02834 0.149875 3.8675 1.13686-0.0804206 0.49349ZM6.98928 0.632399 10.9372 1.27576 10.7764 2.26274 6.82844 1.61938ZM13.8981 1.75829 17.8461 2.40165 17.6852 3.38863 13.7373 2.74527ZM20.807 2.88418 24.7549 3.52754 24.5941 4.51452 20.6462 3.87116ZM27.7159 4.01006 31.6638 4.65343 31.503 5.64041 27.555 4.99704ZM34.6247 5.13595 38.5727 5.77932 38.4118 6.7663 34.4639 6.12293ZM41.5336 6.26184 45.4815 6.90521 45.3207 7.89219 41.3728 7.24882ZM48.4425 7.38773 52.3904 8.0311 52.2295 9.01808 48.2816 8.37471ZM55.3513 8.51362 59.2992 9.15699 59.1384 10.144 55.1905 9.5006ZM62.2602 9.63951 66.2081 10.2829 66.0473 11.2699 62.0993 10.6265ZM69.169 10.7654 73.117 11.4088 72.9561 12.3957 69.0082 11.7524ZM76.0779 11.8913 80.0258 12.5347 79.865 13.5216 75.9171 12.8783ZM82.9868 13.0172 86.9347 13.6605 86.7738 14.6475 82.8259 14.0042ZM89.8956 14.1431 93.8435 14.7864 93.6827 15.7734 89.7348 15.13ZM96.8045 15.269 100.752 15.9123 100.592 16.8993 96.6436 16.2559ZM103.713 16.3948 107.661 17.0382 107.5 18.0252 103.552 17.3818ZM110.622 17.5207 114.57 18.1641 114.409 19.1511 110.461 18.5077ZM117.531 18.6466 121.479 19.29 121.318 20.277 117.37 19.6336ZM124.44 19.7725 128.388 20.4159 128.227 21.4028 124.279 20.7595ZM131.349 20.8984 135.297 21.5418 135.136 22.5287 131.188 21.8854ZM138.258 22.0243 142.206 22.6676 142.045 23.6546 138.097 23.0113ZM145.167 23.1502 149.114 23.7935 148.954 24.7805 145.006 24.1372ZM152.075 24.2761 156.023 24.9194 155.863 25.9064 151.915 25.263ZM158.984 25.4019 162.932 26.0453 162.771 27.0323 158.823 26.3889ZM165.893 26.5278 169.841 27.1712 169.68 28.1582 165.732 27.5148ZM172.802 27.6537 176.75 28.2971 176.589 29.2841 172.641 28.6407ZM179.711 28.7796 183.659 29.423 183.498 30.41 179.55 29.7666ZM186.62 29.9055 190.568 30.5489 190.407 31.5359 186.459 30.8925ZM193.529 31.0314 197.477 31.6748 197.316 32.6617 193.368 32.0184ZM200.437 32.1573 204.385 32.8006 204.225 33.7876 200.277 33.1443ZM207.346 33.2832 211.294 33.9265 211.133 34.9135 207.185 34.2702ZM214.255 34.4091 218.203 35.0524 218.042 36.0394 214.094 35.396ZM221.164 35.535 225.112 36.1783 224.951 37.1653 221.003 36.5219ZM228.073 36.6608 232.021 37.3042 231.86 38.2912 227.912 37.6478ZM234.982 37.7867 238.93 38.4301 238.769 39.4171 234.821 38.7737ZM241.891 38.9126 245.839 39.556 245.678 40.543 241.73 39.8996ZM248.799 40.0385 252.747 40.6819 252.587 41.6688 248.639 41.0255ZM255.708 41.1644 259.656 41.8078 259.495 42.7947 255.548 42.1514ZM262.104 42.7133 257.913 35.2756 270 44 255.768 48.4353Z" transform="matrix(1 0 0 -1 503.5 663.5)"/><path d="M740.951 425.284 742.676 428.894 741.774 429.325 740.049 425.716ZM743.969 431.6 745.694 435.209 744.792 435.641 743.067 432.032ZM746.988 437.916 748.712 441.525 747.81 441.956 746.085 438.347ZM750.006 444.232 751.731 447.841 750.828 448.272 749.104 444.663ZM753.024 450.548 754.749 454.157 753.846 454.588 752.122 450.979ZM756.042 456.864 757.767 460.473 756.865 460.904 755.14 457.295ZM759.06 463.18 760.785 466.789 759.883 467.22 758.158 463.611ZM762.079 469.496 763.803 473.105 762.901 473.536 761.176 469.927ZM765.097 475.812 766.822 479.421 765.919 479.852 764.195 476.243ZM768.115 482.127 769.84 485.737 768.938 486.168 767.213 482.559ZM771.133 488.443 772.858 492.052 771.956 492.484 770.231 488.875ZM774.151 494.759 775.876 498.368 774.974 498.799 773.249 495.19ZM777.17 501.075 778.894 504.684 777.992 505.115 776.267 501.506ZM780.188 507.391 781.913 511 781.01 511.431 779.286 507.822ZM783.206 513.707 784.931 517.316 784.029 517.747 782.304 514.138ZM786.224 520.023 787.949 523.632 787.047 524.063 785.322 520.454ZM789.243 526.339 790.967 529.948 790.065 530.379 788.34 526.77ZM791.051 531.282 794.766 523.595 794.5 538.5 782.736 529.344Z"/><text font-family="Arial,Arial_MSFontService,sans-serif" font-style="italic" font-weight="400" font-size="24" transform="translate(459 659)">a</text><text font-family="Arial,Arial_MSFontService,sans-serif" font-weight="400" font-size="16" transform="translate(472.333 664)">1</text><text font-family="Arial,Arial_MSFontService,sans-serif" font-style="italic" font-weight="400" font-size="24" transform="translate(484 631)">a</text><text font-family="Arial,Arial_MSFontService,sans-serif" font-weight="400" font-size="16" transform="translate(497.333 636)">2</text><text font-family="Arial,Arial_MSFontService,sans-serif" font-style="italic" font-weight="400" font-size="24" transform="translate(513 604)">a</text><text font-family="Arial,Arial_MSFontService,sans-serif" font-weight="400" font-size="16" transform="translate(526.333 609)">3</text><text font-family="Arial,Arial_MSFontService,sans-serif" font-style="italic" font-weight="400" font-size="24" transform="translate(758 359)">a</text><text font-family="Arial,Arial_MSFontService,sans-serif" font-weight="400" font-size="16" transform="translate(771.333 364)">4</text><text font-family="Arial,Arial_MSFontService,sans-serif" font-style="italic" font-weight="400" font-size="24" transform="translate(785.5 332)">a</text><text font-family="Arial,Arial_MSFontService,sans-serif" font-weight="400" font-size="16" transform="translate(798.833 337)">5</text><text font-family="Arial,Arial_MSFontService,sans-serif" font-style="italic" font-weight="400" font-size="24" transform="translate(813.5 305)">a</text><text font-family="Arial,Arial_MSFontService,sans-serif" font-weight="400" font-size="16" transform="translate(826.833 310)">6</text><text font-family="Arial,Arial_MSFontService,sans-serif" font-style="italic" font-weight="400" font-size="24" transform="translate(839.5 278)">a</text><text font-family="Arial,Arial_MSFontService,sans-serif" font-weight="400" font-size="16" transform="translate(852.833 283)">7</text><text font-family="Arial,Arial_MSFontService,sans-serif" font-style="italic" font-weight="400" font-size="24" transform="translate(866.5 251)">a</text><text font-family="Arial,Arial_MSFontService,sans-serif" font-weight="400" font-size="16" transform="translate(879.833 256)">8</text><text font-family="Arial,Arial_MSFontService,sans-serif" font-style="italic" font-weight="400" font-size="24" transform="translate(543 575)">b</text><text font-family="Arial,Arial_MSFontService,sans-serif" font-weight="400" font-size="16" transform="translate(556.333 580)">1</text><text font-family="Arial,Arial_MSFontService,sans-serif" font-style="italic" font-weight="400" font-size="24" transform="translate(567.5 550)">b</text><text font-family="Arial,Arial_MSFontService,sans-serif" font-weight="400" font-size="16" transform="translate(580.833 555)">2</text><text font-family="Arial,Arial_MSFontService,sans-serif" font-style="italic" font-weight="400" font-size="24" transform="translate(594.5 524)">b</text><text font-family="Arial,Arial_MSFontService,sans-serif" font-weight="400" font-size="16" transform="translate(607.833 529)">3</text><text font-family="Arial,Arial_MSFontService,sans-serif" font-style="italic" font-weight="400" font-size="24" transform="translate(622.5 497)">b</text><text font-family="Arial,Arial_MSFontService,sans-serif" font-weight="400" font-size="16" transform="translate(635.833 502)">4</text><text font-family="Arial,Arial_MSFontService,sans-serif" font-style="italic" font-weight="400" font-size="24" transform="translate(650 469)">b</text><text font-family="Arial,Arial_MSFontService,sans-serif" font-weight="400" font-size="16" transform="translate(663.333 474)">5</text><text font-family="Arial,Arial_MSFontService,sans-serif" font-style="italic" font-weight="400" font-size="24" transform="translate(678 440)">b</text><text font-family="Arial,Arial_MSFontService,sans-serif" font-weight="400" font-size="16" transform="translate(691.333 445)">6</text><text font-family="Arial,Arial_MSFontService,sans-serif" font-style="italic" font-weight="400" font-size="24" transform="translate(705 413)">b</text><text font-family="Arial,Arial_MSFontService,sans-serif" font-weight="400" font-size="16" transform="translate(718.333 418)">7</text><text font-family="Arial,Arial_MSFontService,sans-serif" font-style="italic" font-weight="400" font-size="24" transform="translate(731.5 388)">b</text><text font-family="Arial,Arial_MSFontService,sans-serif" font-weight="400" font-size="16" transform="translate(744.833 393)">8</text><path d="M0.824958-0.824958 6.1681 4.51819 4.51819 6.1681-0.824958 0.824958ZM5.34314 5.34314 6.28595-3.14214 11 11-3.14214 6.28595Z" transform="matrix(-1 0 0 1 457 624)"/><path d="M0.824958-0.824958 10.1681 8.51819 8.51819 10.1681-0.824958 0.824958ZM9.34314 9.34314 10.286 0.857863 15 15 0.857863 10.286Z" transform="matrix(1 0 0 -1 497 583)"/><text font-family="Arial,Arial_MSFontService,sans-serif" font-style="italic" font-weight="400" font-size="24" transform="matrix(0.707107 -0.707107 0.707107 0.707107 463.755 628)">d</text><text font-family="Arial,Arial_MSFontService,sans-serif" font-weight="400" font-size="16" transform="matrix(0.707107 -0.707107 0.707107 0.707107 476.719 622)">1</text><text font-family="Arial,Arial_MSFontService,sans-serif" font-weight="400" font-size="24" transform="matrix(0.707107 -0.707107 0.707107 0.707107 479.429 612)">~</text><text font-family="Arial,Arial_MSFontService,sans-serif" font-style="italic" font-weight="400" font-size="24" transform="matrix(0.707107 -0.707107 0.707107 0.707107 489.329 602)">d</text><text font-family="Arial,Arial_MSFontService,sans-serif" font-weight="400" font-size="16" transform="matrix(0.707107 -0.707107 0.707107 0.707107 502.292 596)">2</text><path d="M0.824958-0.824958 65.1681 63.5182 63.5182 65.1681-0.824958 0.824958ZM64.3431 64.3431 65.2859 55.8579 70 70 55.8579 65.2859Z" transform="matrix(-1 0 0 1 603 477)"/><path d="M0.824958-0.824958 75.168 73.5181 73.5181 75.168-0.824958 0.824958ZM74.3431 74.3431 75.286 65.8579 80 80 65.8579 75.286Z" transform="matrix(1 0 0 -1 652 427)"/><text font-family="Arial,Arial_MSFontService,sans-serif" font-style="italic" font-weight="400" font-size="24" transform="matrix(0.707107 -0.707107 0.707107 0.707107 614.255 477)">d</text><text font-family="Arial,Arial_MSFontService,sans-serif" font-weight="400" font-size="16" transform="matrix(0.707107 -0.707107 0.707107 0.707107 627.219 471)">3</text><text font-family="Arial,Arial_MSFontService,sans-serif" font-weight="400" font-size="24" transform="matrix(0.707107 -0.707107 0.707107 0.707107 629.929 461)">~</text><text font-family="Arial,Arial_MSFontService,sans-serif" font-style="italic" font-weight="400" font-size="24" transform="matrix(0.707107 -0.707107 0.707107 0.707107 639.829 451)">d</text><text font-family="Arial,Arial_MSFontService,sans-serif" font-weight="400" font-size="16" transform="matrix(0.707107 -0.707107 0.707107 0.707107 652.792 445)">3</text><path d="M0.841618-0.807954 19.3014 18.4209 17.6181 20.0369-0.841618 0.807954ZM18.4597 19.2289 19.5755 10.7646 24 25 9.95699 19.9984Z" transform="matrix(-1 0 0 1 777 305)"/><path d="M0.824958-0.824958 29.1681 27.5182 27.5182 29.1681-0.824958 0.824958ZM28.3431 28.3431 29.286 19.8579 34 34 19.8579 29.286Z" transform="matrix(1 0 0 -1 823 258)"/><text font-family="Arial,Arial_MSFontService,sans-serif" font-style="italic" font-weight="400" font-size="24" transform="matrix(0.707107 -0.707107 0.707107 0.707107 787.255 306)">d</text><text font-family="Arial,Arial_MSFontService,sans-serif" font-weight="400" font-size="16" transform="matrix(0.707107 -0.707107 0.707107 0.707107 800.219 300)">2</text><text font-family="Arial,Arial_MSFontService,sans-serif" font-weight="400" font-size="24" transform="matrix(0.707107 -0.707107 0.707107 0.707107 802.929 290)">~</text><text font-family="Arial,Arial_MSFontService,sans-serif" font-style="italic" font-weight="400" font-size="24" transform="matrix(0.707107 -0.707107 0.707107 0.707107 812.829 280)">d</text><text font-family="Arial,Arial_MSFontService,sans-serif" font-weight="400" font-size="16" transform="matrix(0.707107 -0.707107 0.707107 0.707107 825.792 274)">1</text><path d="M408 535 455.936 535 455.936 524 472 546 455.936 568 455.936 557 408 557Z" fill="url(#fill0)" fill-rule="evenodd"/><rect x="111.5" y="241.5" width="76" height="77" stroke="#000000" stroke-miterlimit="8" fill="#969696"/><path d="M182.5 261.5C182.5 258.739 184.739 256.5 187.5 256.5 190.261 256.5 192.5 258.739 192.5 261.5 192.5 264.261 190.261 266.5 187.5 266.5 184.739 266.5 182.5 264.261 182.5 261.5Z" stroke="#CC0000" stroke-width="2.66667" stroke-linejoin="round" stroke-miterlimit="10" fill="#CC0000" fill-rule="evenodd"/><path d="M125.5 318.5C125.5 315.739 127.739 313.5 130.5 313.5 133.261 313.5 135.5 315.739 135.5 318.5 135.5 321.261 133.261 323.5 130.5 323.5 127.739 323.5 125.5 321.261 125.5 318.5Z" stroke="#CC0000" stroke-width="2.66667" stroke-linejoin="round" stroke-miterlimit="10" fill="#CC0000" fill-rule="evenodd"/><path d="M163.5 318.5C163.5 315.739 165.739 313.5 168.5 313.5 171.261 313.5 173.5 315.739 173.5 318.5 173.5 321.261 171.261 323.5 168.5 323.5 165.739 323.5 163.5 321.261 163.5 318.5Z" stroke="#CC0000" stroke-width="2.66667" stroke-linejoin="round" stroke-miterlimit="10" fill="#CC0000" fill-rule="evenodd"/><text fill="#FFFFFF" font-family="Arial,Arial_MSFontService,sans-serif" font-style="italic" font-weight="400" font-size="24" transform="translate(142.75 287)">a</text><path d="M106.5 298.5C106.5 295.739 108.515 293.5 111 293.5 113.485 293.5 115.5 295.739 115.5 298.5 115.5 301.261 113.485 303.5 111 303.5 108.515 303.5 106.5 301.261 106.5 298.5Z" stroke="#CC0000" stroke-width="2.66667" stroke-linejoin="round" stroke-miterlimit="10" fill="#CC0000" fill-rule="evenodd"/><path d="M106.5 261.5C106.5 258.739 108.515 256.5 111 256.5 113.485 256.5 115.5 258.739 115.5 261.5 115.5 264.261 113.485 266.5 111 266.5 108.515 266.5 106.5 264.261 106.5 261.5Z" stroke="#CC0000" stroke-width="2.66667" stroke-linejoin="round" stroke-miterlimit="10" fill="#CC0000" fill-rule="evenodd"/><path d="M125.5 242C125.5 239.515 127.515 237.5 130 237.5 132.485 237.5 134.5 239.515 134.5 242 134.5 244.485 132.485 246.5 130 246.5 127.515 246.5 125.5 244.485 125.5 242Z" stroke="#CC0000" stroke-width="2.66667" stroke-linejoin="round" stroke-miterlimit="10" fill="#CC0000" fill-rule="evenodd"/><path d="M162.5 242C162.5 239.515 164.739 237.5 167.5 237.5 170.261 237.5 172.5 239.515 172.5 242 172.5 244.485 170.261 246.5 167.5 246.5 164.739 246.5 162.5 244.485 162.5 242Z" stroke="#CC0000" stroke-width="2.66667" stroke-linejoin="round" stroke-miterlimit="10" fill="#CC0000" fill-rule="evenodd"/><rect x="230.5" y="298.5" width="76" height="77" stroke="#000000" stroke-miterlimit="8" fill="#EAEAEA"/><path d="M301.5 355.5C301.5 352.739 303.739 350.5 306.5 350.5 309.261 350.5 311.5 352.739 311.5 355.5 311.5 358.261 309.261 360.5 306.5 360.5 303.739 360.5 301.5 358.261 301.5 355.5Z" stroke="#1860AB" stroke-width="2.66667" stroke-linejoin="round" stroke-miterlimit="10" fill="#1860AB" fill-rule="evenodd"/><path d="M301.5 318.5C301.5 315.739 303.739 313.5 306.5 313.5 309.261 313.5 311.5 315.739 311.5 318.5 311.5 321.261 309.261 323.5 306.5 323.5 303.739 323.5 301.5 321.261 301.5 318.5Z" stroke="#1860AB" stroke-width="2.66667" stroke-linejoin="round" stroke-miterlimit="10" fill="#1860AB" fill-rule="evenodd"/><text font-family="Arial,Arial_MSFontService,sans-serif" font-style="italic" font-weight="400" font-size="24" transform="translate(261.75 344)">b</text><path d="M225.5 355.5C225.5 352.739 227.515 350.5 230 350.5 232.485 350.5 234.5 352.739 234.5 355.5 234.5 358.261 232.485 360.5 230 360.5 227.515 360.5 225.5 358.261 225.5 355.5Z" stroke="#1860AB" stroke-width="2.66667" stroke-linejoin="round" stroke-miterlimit="10" fill="#1860AB" fill-rule="evenodd"/><path d="M225.5 318.5C225.5 315.739 227.515 313.5 230 313.5 232.485 313.5 234.5 315.739 234.5 318.5 234.5 321.261 232.485 323.5 230 323.5 227.515 323.5 225.5 321.261 225.5 318.5Z" stroke="#1860AB" stroke-width="2.66667" stroke-linejoin="round" stroke-miterlimit="10" fill="#1860AB" fill-rule="evenodd"/><path d="M244.5 299C244.5 296.515 246.515 294.5 249 294.5 251.485 294.5 253.5 296.515 253.5 299 253.5 301.485 251.485 303.5 249 303.5 246.515 303.5 244.5 301.485 244.5 299Z" stroke="#1860AB" stroke-width="2.66667" stroke-linejoin="round" stroke-miterlimit="10" fill="#1860AB" fill-rule="evenodd"/><path d="M281.5 299C281.5 296.515 283.739 294.5 286.5 294.5 289.261 294.5 291.5 296.515 291.5 299 291.5 301.485 289.261 303.5 286.5 303.5 283.739 303.5 281.5 301.485 281.5 299Z" stroke="#1860AB" stroke-width="2.66667" stroke-linejoin="round" stroke-miterlimit="10" fill="#1860AB" fill-rule="evenodd"/><path d="M182.5 298.5C182.5 295.739 184.739 293.5 187.5 293.5 190.261 293.5 192.5 295.739 192.5 298.5 192.5 301.261 190.261 303.5 187.5 303.5 184.739 303.5 182.5 301.261 182.5 298.5Z" stroke="#CC0000" stroke-width="2.66667" stroke-linejoin="round" stroke-miterlimit="10" fill="#CC0000" fill-rule="evenodd"/><text font-family="Arial,Arial_MSFontService,sans-serif" font-style="italic" font-weight="400" font-size="24" transform="translate(80.3333 307)">a</text><text font-family="Arial,Arial_MSFontService,sans-serif" font-weight="400" font-size="16" transform="translate(93.6667 312)">1</text><text font-family="Arial,Arial_MSFontService,sans-serif" font-style="italic" font-weight="400" font-size="24" transform="translate(121.833 340)">a</text><text font-family="Arial,Arial_MSFontService,sans-serif" font-weight="400" font-size="16" transform="translate(135.167 345)">2</text><text font-family="Arial,Arial_MSFontService,sans-serif" font-style="italic" font-weight="400" font-size="24" transform="translate(159.333 340)">a</text><text font-family="Arial,Arial_MSFontService,sans-serif" font-weight="400" font-size="16" transform="translate(172.667 345)">3</text><text font-family="Arial,Arial_MSFontService,sans-serif" font-style="italic" font-weight="400" font-size="24" transform="translate(192.833 294)">a</text><text font-family="Arial,Arial_MSFontService,sans-serif" font-weight="400" font-size="16" transform="translate(206.167 299)">4</text><text font-family="Arial,Arial_MSFontService,sans-serif" font-style="italic" font-weight="400" font-size="24" transform="translate(193.833 261)">a</text><text font-family="Arial,Arial_MSFontService,sans-serif" font-weight="400" font-size="16" transform="translate(207.167 266)">5</text><text font-family="Arial,Arial_MSFontService,sans-serif" font-style="italic" font-weight="400" font-size="24" transform="translate(156.833 229)">a</text><text font-family="Arial,Arial_MSFontService,sans-serif" font-weight="400" font-size="16" transform="translate(170.167 234)">6</text><text font-family="Arial,Arial_MSFontService,sans-serif" font-style="italic" font-weight="400" font-size="24" transform="translate(118.833 229)">a</text><text font-family="Arial,Arial_MSFontService,sans-serif" font-weight="400" font-size="16" transform="translate(132.167 234)">7</text><text font-family="Arial,Arial_MSFontService,sans-serif" font-style="italic" font-weight="400" font-size="24" transform="translate(80.3333 264)">a</text><text font-family="Arial,Arial_MSFontService,sans-serif" font-weight="400" font-size="16" transform="translate(93.6667 269)">8</text><text font-family="Arial,Arial_MSFontService,sans-serif" font-style="italic" font-weight="400" font-size="24" transform="translate(203.833 368)">b</text><text font-family="Arial,Arial_MSFontService,sans-serif" font-weight="400" font-size="16" transform="translate(217.167 373)">1</text><text font-family="Arial,Arial_MSFontService,sans-serif" font-style="italic" font-weight="400" font-size="24" transform="translate(240.333 401)">b</text><text font-family="Arial,Arial_MSFontService,sans-serif" font-weight="400" font-size="16" transform="translate(253.667 406)">2</text><text font-family="Arial,Arial_MSFontService,sans-serif" font-style="italic" font-weight="400" font-size="24" transform="translate(278.333 400)">b</text><text font-family="Arial,Arial_MSFontService,sans-serif" font-weight="400" font-size="16" transform="translate(291.667 405)">3</text><text font-family="Arial,Arial_MSFontService,sans-serif" font-style="italic" font-weight="400" font-size="24" transform="translate(313.333 369)">b</text><text font-family="Arial,Arial_MSFontService,sans-serif" font-weight="400" font-size="16" transform="translate(326.667 374)">4</text><text font-family="Arial,Arial_MSFontService,sans-serif" font-style="italic" font-weight="400" font-size="24" transform="translate(312.833 327)">b</text><text font-family="Arial,Arial_MSFontService,sans-serif" font-weight="400" font-size="16" transform="translate(326.167 332)">5</text><text font-family="Arial,Arial_MSFontService,sans-serif" font-style="italic" font-weight="400" font-size="24" transform="translate(274.833 286)">b</text><text font-family="Arial,Arial_MSFontService,sans-serif" font-weight="400" font-size="16" transform="translate(288.167 291)">6</text><text font-family="Arial,Arial_MSFontService,sans-serif" font-style="italic" font-weight="400" font-size="24" transform="translate(240.833 287)">b</text><text font-family="Arial,Arial_MSFontService,sans-serif" font-weight="400" font-size="16" transform="translate(254.167 292)">7</text><text font-family="Arial,Arial_MSFontService,sans-serif" font-style="italic" font-weight="400" font-size="24" transform="translate(202.333 324)">b</text><text font-family="Arial,Arial_MSFontService,sans-serif" font-weight="400" font-size="16" transform="translate(215.667 329)">8</text><path d="M244.5 375.5C244.5 372.739 246.739 370.5 249.5 370.5 252.261 370.5 254.5 372.739 254.5 375.5 254.5 378.261 252.261 380.5 249.5 380.5 246.739 380.5 244.5 378.261 244.5 375.5Z" stroke="#1860AB" stroke-width="2.66667" stroke-linejoin="round" stroke-miterlimit="10" fill="#1860AB" fill-rule="evenodd"/><path d="M282.5 375.5C282.5 372.739 284.739 370.5 287.5 370.5 290.261 370.5 292.5 372.739 292.5 375.5 292.5 378.261 290.261 380.5 287.5 380.5 284.739 380.5 282.5 378.261 282.5 375.5Z" stroke="#1860AB" stroke-width="2.66667" stroke-linejoin="round" stroke-miterlimit="10" fill="#1860AB" fill-rule="evenodd"/><path d="M197 390 197 426.759 207 426.759 187 439 167 426.759 177 426.759 177 390Z" fill="url(#fill1)" fill-rule="evenodd"/><rect x="379.5" y="370.5" width="38" height="63" stroke="#FFFFFF" stroke-miterlimit="8" fill="#5F5F5F"/><path d="M417.5 381.5C417.5 379.843 419.739 378.5 422.5 378.5 425.261 378.5 427.5 379.843 427.5 381.5 427.5 383.157 425.261 384.5 422.5 384.5 419.739 384.5 417.5 383.157 417.5 381.5Z" stroke="#C0C0C0" stroke-linejoin="round" stroke-miterlimit="10" fill="#5F5F5F" fill-rule="evenodd"/><path d="M417.5 394.5C417.5 392.843 419.739 391.5 422.5 391.5 425.261 391.5 427.5 392.843 427.5 394.5 427.5 396.157 425.261 397.5 422.5 397.5 419.739 397.5 417.5 396.157 417.5 394.5Z" stroke="#C0C0C0" stroke-linejoin="round" stroke-miterlimit="10" fill="#5F5F5F" fill-rule="evenodd"/><path d="M417.5 408.5C417.5 406.843 419.739 405.5 422.5 405.5 425.261 405.5 427.5 406.843 427.5 408.5 427.5 410.157 425.261 411.5 422.5 411.5 419.739 411.5 417.5 410.157 417.5 408.5Z" stroke="#C0C0C0" stroke-linejoin="round" stroke-miterlimit="10" fill="#5F5F5F" fill-rule="evenodd"/><path d="M369.5 381.5C369.5 379.843 371.515 378.5 374 378.5 376.485 378.5 378.5 379.843 378.5 381.5 378.5 383.157 376.485 384.5 374 384.5 371.515 384.5 369.5 383.157 369.5 381.5Z" stroke="#C0C0C0" stroke-linejoin="round" stroke-miterlimit="10" fill="#5F5F5F" fill-rule="evenodd"/><path d="M369.5 394.5C369.5 392.843 371.515 391.5 374 391.5 376.485 391.5 378.5 392.843 378.5 394.5 378.5 396.157 376.485 397.5 374 397.5 371.515 397.5 369.5 396.157 369.5 394.5Z" stroke="#C0C0C0" stroke-linejoin="round" stroke-miterlimit="10" fill="#5F5F5F" fill-rule="evenodd"/><path d="M369.5 408.5C369.5 406.843 371.515 405.5 374 405.5 376.485 405.5 378.5 406.843 378.5 408.5 378.5 410.157 376.485 411.5 374 411.5 371.515 411.5 369.5 410.157 369.5 408.5Z" stroke="#C0C0C0" stroke-linejoin="round" stroke-miterlimit="10" fill="#5F5F5F" fill-rule="evenodd"/><path d="M417.5 420.5C417.5 418.843 419.739 417.5 422.5 417.5 425.261 417.5 427.5 418.843 427.5 420.5 427.5 422.157 425.261 423.5 422.5 423.5 419.739 423.5 417.5 422.157 417.5 420.5Z" stroke="#C0C0C0" stroke-linejoin="round" stroke-miterlimit="10" fill="#5F5F5F" fill-rule="evenodd"/><path d="M369.5 420.5C369.5 418.843 371.515 417.5 374 417.5 376.485 417.5 378.5 418.843 378.5 420.5 378.5 422.157 376.485 423.5 374 423.5 371.515 423.5 369.5 422.157 369.5 420.5Z" stroke="#C0C0C0" stroke-linejoin="round" stroke-miterlimit="10" fill="#5F5F5F" fill-rule="evenodd"/><rect x="378" y="388" width="39" height="39" fill="#5F5F5F"/><path d="M384.5 420C384.5 411.992 390.992 405.5 399 405.5 407.008 405.5 413.5 411.992 413.5 420 413.5 428.008 407.008 434.5 399 434.5 390.992 434.5 384.5 428.008 384.5 420Z" stroke="#000000" stroke-linejoin="round" stroke-miterlimit="10" fill="#FFFFFF" fill-rule="evenodd"/><text font-family="Arial,Arial_MSFontService,sans-serif" font-style="italic" font-weight="400" font-size="24" transform="translate(387.833 426)">m</text></g></svg>