<svg width="849" height="318" xmlns="http://www.w3.org/2000/svg" xmlns:xlink="http://www.w3.org/1999/xlink" overflow="hidden"><g transform="translate(-71 -314)"><rect x="702.5" y="315.5" width="171" height="170" stroke="#969696" stroke-miterlimit="8" fill="#EAEAEA"/><path d="M702.5 339.5 873.5 339.5" stroke="#808080" stroke-linejoin="round" stroke-miterlimit="10" stroke-dasharray="1 1" fill="none" fill-rule="evenodd"/><path d="M702.5 364.5 873.5 364.5" stroke="#808080" stroke-linejoin="round" stroke-miterlimit="10" stroke-dasharray="1 1" fill="none" fill-rule="evenodd"/><path d="M702.5 388.5 873.5 388.5" stroke="#808080" stroke-linejoin="round" stroke-miterlimit="10" stroke-dasharray="1 1" fill="none" fill-rule="evenodd"/><path d="M702.5 413.5 873.5 413.5" stroke="#808080" stroke-linejoin="round" stroke-miterlimit="10" stroke-dasharray="1 1" fill="none" fill-rule="evenodd"/><path d="M702.5 437.5 873.5 437.5" stroke="#808080" stroke-linejoin="round" stroke-miterlimit="10" stroke-dasharray="1 1" fill="none" fill-rule="evenodd"/><path d="M727.5 316.5 727.5 485.5" stroke="#808080" stroke-linejoin="round" stroke-miterlimit="10" stroke-dasharray="1 1" fill="none" fill-rule="evenodd"/><path d="M751.5 316.5 751.5 485.5" stroke="#808080" stroke-linejoin="round" stroke-miterlimit="10" stroke-dasharray="1 1" fill="none" fill-rule="evenodd"/><path d="M776.5 316.5 776.5 485.5" stroke="#808080" stroke-linejoin="round" stroke-miterlimit="10" stroke-dasharray="1 1" fill="none" fill-rule="evenodd"/><path d="M800.5 316.5 800.5 484.5" stroke="#808080" stroke-linejoin="round" stroke-miterlimit="10" stroke-dasharray="1 1" fill="none" fill-rule="evenodd"/><path d="M825.5 316.5 825.5 484.5" stroke="#808080" stroke-linejoin="round" stroke-miterlimit="10" stroke-dasharray="1 1" fill="none" fill-rule="evenodd"/><path d="M849.5 316.5 849.5 485.5" stroke="#808080" stroke-linejoin="round" stroke-miterlimit="10" stroke-dasharray="1 1" fill="none" fill-rule="evenodd"/><path d="M702.5 461.5 873.5 461.5" stroke="#808080" stroke-linejoin="round" stroke-miterlimit="10" stroke-dasharray="1 1" fill="none" fill-rule="evenodd"/><path d="M821.5 364C821.5 362.067 823.067 360.5 825 360.5 826.933 360.5 828.5 362.067 828.5 364 828.5 365.933 826.933 367.5 825 367.5 823.067 367.5 821.5 365.933 821.5 364Z" stroke="#000000" stroke-linejoin="round" stroke-miterlimit="10" fill-rule="evenodd"/><path d="M751.5 437.5 849.5 437.5 849.5 364.5 827.515 364.5" stroke="#1860AB" stroke-width="2.66667" stroke-linejoin="round" stroke-miterlimit="10" fill="none" fill-rule="evenodd"/><path d="M751.469 437.5 727.5 437.5 727.5 364.5 822.5 364.5" stroke="#000000" stroke-width="2.66667" stroke-linejoin="round" stroke-miterlimit="10" fill="none" fill-rule="evenodd"/><text font-family="Arial,Arial_MSFontService,sans-serif" font-weight="400" font-size="21" transform="translate(709 537)">Detour</text><text font-family="Arial,Arial_MSFontService,sans-serif" font-weight="400" font-size="21" transform="translate(773 537)">-</text><text font-family="Arial,Arial_MSFontService,sans-serif" font-weight="400" font-size="21" transform="translate(726.747 562)">Left</text><text font-family="Arial,Arial_MSFontService,sans-serif" font-weight="400" font-size="21" transform="translate(696.667 588)">Horizontal</text><text font-family="Arial,Arial_MSFontService,sans-serif" font-style="italic" font-weight="400" font-size="21" transform="translate(702.58 614)">U</text><text font-family="Arial,Arial_MSFontService,sans-serif" font-weight="400" font-size="21" transform="translate(717.913 614)">-</text><text font-family="Arial,Arial_MSFontService,sans-serif" font-weight="400" font-size="21" transform="translate(725.08 614)">Shape</text><text fill="#1860AB" font-family="Arial,Arial_MSFontService,sans-serif" font-weight="400" font-size="21" transform="translate(816.5 537)">Detour</text><text fill="#1860AB" font-family="Arial,Arial_MSFontService,sans-serif" font-weight="400" font-size="21" transform="translate(880.5 537)">-</text><text fill="#1860AB" font-family="Arial,Arial_MSFontService,sans-serif" font-weight="400" font-size="21" transform="translate(827.247 562)">Right</text><text fill="#1860AB" font-family="Arial,Arial_MSFontService,sans-serif" font-weight="400" font-size="21" transform="translate(804.167 588)">Horizontal</text><text fill="#1860AB" font-family="Arial,Arial_MSFontService,sans-serif" font-style="italic" font-weight="400" font-size="21" transform="translate(810.08 614)">U</text><text fill="#1860AB" font-family="Arial,Arial_MSFontService,sans-serif" font-weight="400" font-size="21" transform="translate(825.413 614)">-</text><text fill="#1860AB" font-family="Arial,Arial_MSFontService,sans-serif" font-weight="400" font-size="21" transform="translate(832.58 614)">Shape</text><path d="M0.333299-0.00476142 1.23807 63.3293 0.571473 63.3388-0.333299 0.00476142ZM4.88532 61.9437 1 70-3.11387 62.0579Z" fill="#1860AB" transform="matrix(1 0 0 -1 835.5 511.5)"/><path d="M0.333299-0.00476142 1.23807 63.3293 0.571473 63.3388-0.333299 0.00476142ZM4.88532 61.9437 1 70-3.11387 62.0579Z" transform="matrix(1 0 0 -1 737.5 511.5)"/><path d="M747.5 437.5C747.5 435.291 749.067 433.5 751 433.5 752.933 433.5 754.5 435.291 754.5 437.5 754.5 439.709 752.933 441.5 751 441.5 749.067 441.5 747.5 439.709 747.5 437.5Z" stroke="#000000" stroke-linejoin="round" stroke-miterlimit="10" fill-rule="evenodd"/><rect x="505.5" y="315.5" width="171" height="170" stroke="#969696" stroke-miterlimit="8" fill="#EAEAEA"/><path d="M505.5 339.5 676.5 339.5" stroke="#808080" stroke-linejoin="round" stroke-miterlimit="10" stroke-dasharray="1 1" fill="none" fill-rule="evenodd"/><path d="M505.5 364.5 676.5 364.5" stroke="#808080" stroke-linejoin="round" stroke-miterlimit="10" stroke-dasharray="1 1" fill="none" fill-rule="evenodd"/><path d="M505.5 388.5 676.5 388.5" stroke="#808080" stroke-linejoin="round" stroke-miterlimit="10" stroke-dasharray="1 1" fill="none" fill-rule="evenodd"/><path d="M505.5 413.5 676.5 413.5" stroke="#808080" stroke-linejoin="round" stroke-miterlimit="10" stroke-dasharray="1 1" fill="none" fill-rule="evenodd"/><path d="M505.5 437.5 676.5 437.5" stroke="#808080" stroke-linejoin="round" stroke-miterlimit="10" stroke-dasharray="1 1" fill="none" fill-rule="evenodd"/><path d="M530.5 316.5 530.5 485.5" stroke="#808080" stroke-linejoin="round" stroke-miterlimit="10" stroke-dasharray="1 1" fill="none" fill-rule="evenodd"/><path d="M554.5 316.5 554.5 485.5" stroke="#808080" stroke-linejoin="round" stroke-miterlimit="10" stroke-dasharray="1 1" fill="none" fill-rule="evenodd"/><path d="M578.5 316.5 578.5 485.5" stroke="#808080" stroke-linejoin="round" stroke-miterlimit="10" stroke-dasharray="1 1" fill="none" fill-rule="evenodd"/><path d="M603.5 316.5 603.5 484.5" stroke="#808080" stroke-linejoin="round" stroke-miterlimit="10" stroke-dasharray="1 1" fill="none" fill-rule="evenodd"/><path d="M627.5 316.5 627.5 484.5" stroke="#808080" stroke-linejoin="round" stroke-miterlimit="10" stroke-dasharray="1 1" fill="none" fill-rule="evenodd"/><path d="M652.5 316.5 652.5 485.5" stroke="#808080" stroke-linejoin="round" stroke-miterlimit="10" stroke-dasharray="1 1" fill="none" fill-rule="evenodd"/><path d="M505.5 461.5 676.5 461.5" stroke="#808080" stroke-linejoin="round" stroke-miterlimit="10" stroke-dasharray="1 1" fill="none" fill-rule="evenodd"/><path d="M554.5 437.25 554.5 461.5 627.5 461.5 627.5 363.5" stroke="#1860AB" stroke-width="2.66667" stroke-linejoin="round" stroke-miterlimit="10" fill="none" fill-rule="evenodd"/><path d="M554.5 436.5 554.5 339.5 627.5 339.5 627.5 361.75" stroke="#000000" stroke-width="2.66667" stroke-linejoin="round" stroke-miterlimit="10" fill="none" fill-rule="evenodd"/><text font-family="Arial,Arial_MSFontService,sans-serif" font-weight="400" font-size="21" transform="translate(495.167 537)">Detour</text><text font-family="Arial,Arial_MSFontService,sans-serif" font-weight="400" font-size="21" transform="translate(559.167 537)">-</text><text font-family="Arial,Arial_MSFontService,sans-serif" font-weight="400" font-size="21" transform="translate(566.333 537)">Up</text><text font-family="Arial,Arial_MSFontService,sans-serif" font-weight="400" font-size="21" transform="translate(509.42 562)">Vertical</text><text font-family="Arial,Arial_MSFontService,sans-serif" font-style="italic" font-weight="400" font-size="21" transform="translate(502.333 588)">U</text><text font-family="Arial,Arial_MSFontService,sans-serif" font-weight="400" font-size="21" transform="translate(517.667 588)">-</text><text font-family="Arial,Arial_MSFontService,sans-serif" font-weight="400" font-size="21" transform="translate(524.833 588)">Shape</text><text fill="#1860AB" font-family="Arial,Arial_MSFontService,sans-serif" font-weight="400" font-size="21" transform="translate(603.17 537)">Detour</text><text fill="#1860AB" font-family="Arial,Arial_MSFontService,sans-serif" font-weight="400" font-size="21" transform="translate(667.17 537)">-</text><text fill="#1860AB" font-family="Arial,Arial_MSFontService,sans-serif" font-weight="400" font-size="21" transform="translate(611.583 562)">Down</text><text fill="#1860AB" font-family="Arial,Arial_MSFontService,sans-serif" font-weight="400" font-size="21" transform="translate(603.843 588)">Vertical</text><text fill="#1860AB" font-family="Arial,Arial_MSFontService,sans-serif" font-style="italic" font-weight="400" font-size="21" transform="translate(596.75 614)">U</text><text fill="#1860AB" font-family="Arial,Arial_MSFontService,sans-serif" font-weight="400" font-size="21" transform="translate(612.083 614)">-</text><text fill="#1860AB" font-family="Arial,Arial_MSFontService,sans-serif" font-weight="400" font-size="21" transform="translate(619.25 614)">Shape</text><path d="M528.422 511.515 527.79 497.166 527.232 483.043 526.801 469.356 526.55 456.315 526.533 444.13 526.804 433.01 527.416 423.165 527.868 418.781 528.425 414.796 529.095 411.222 529.876 408.04 531.739 402.757C531.745 402.74 531.753 402.723 531.762 402.707L533.967 398.718C533.978 398.698 533.99 398.68 534.005 398.663L536.502 395.726C536.517 395.708 536.534 395.691 536.553 395.677L539.284 393.581C539.306 393.564 539.33 393.55 539.355 393.539L542.067 392.372 542.331 392.984 539.619 394.151 539.69 394.11 536.959 396.206 537.01 396.157 534.513 399.095 534.55 399.04 532.345 403.03 532.368 402.979 530.523 408.199 529.75 411.345 529.085 414.888 528.531 418.849 528.082 423.207 527.471 433.026 527.2 444.129 527.217 456.302 527.467 469.335 527.898 483.016 528.456 497.137 529.088 511.485ZM539.632 389.333 548.5 390.5 542.245 396.894Z"/><path d="M0.333333-7.77681e-07 0.333423 38.3333-0.333244 38.3333-0.333333 7.77681e-07ZM4.00009 37 0.000104987 45-3.99991 37Z" fill="#1860AB" transform="matrix(1 0 0 -1 624.5 511.5)"/><path d="M623.5 364C623.5 362.067 625.067 360.5 627 360.5 628.933 360.5 630.5 362.067 630.5 364 630.5 365.933 628.933 367.5 627 367.5 625.067 367.5 623.5 365.933 623.5 364Z" stroke="#000000" stroke-linejoin="round" stroke-miterlimit="10" fill-rule="evenodd"/><path d="M550.5 438C550.5 436.067 552.067 434.5 554 434.5 555.933 434.5 557.5 436.067 557.5 438 557.5 439.933 555.933 441.5 554 441.5 552.067 441.5 550.5 439.933 550.5 438Z" stroke="#000000" stroke-linejoin="round" stroke-miterlimit="10" fill-rule="evenodd"/><rect x="309.5" y="315.5" width="171" height="170" stroke="#969696" stroke-miterlimit="8" fill="#EAEAEA"/><path d="M309.5 339.5 480.5 339.5" stroke="#808080" stroke-linejoin="round" stroke-miterlimit="10" stroke-dasharray="1 1" fill="none" fill-rule="evenodd"/><path d="M309.5 363.5 480.5 363.5" stroke="#808080" stroke-linejoin="round" stroke-miterlimit="10" stroke-dasharray="1 1" fill="none" fill-rule="evenodd"/><path d="M309.5 388.5 480.5 388.5" stroke="#808080" stroke-linejoin="round" stroke-miterlimit="10" stroke-dasharray="1 1" fill="none" fill-rule="evenodd"/><path d="M309.5 412.5 480.5 412.5" stroke="#808080" stroke-linejoin="round" stroke-miterlimit="10" stroke-dasharray="1 1" fill="none" fill-rule="evenodd"/><path d="M309.5 437.5 480.5 437.5" stroke="#808080" stroke-linejoin="round" stroke-miterlimit="10" stroke-dasharray="1 1" fill="none" fill-rule="evenodd"/><path d="M334.5 316.5 334.5 484.5" stroke="#808080" stroke-linejoin="round" stroke-miterlimit="10" stroke-dasharray="1 1" fill="none" fill-rule="evenodd"/><path d="M358.5 316.5 358.5 485.5" stroke="#808080" stroke-linejoin="round" stroke-miterlimit="10" stroke-dasharray="1 1" fill="none" fill-rule="evenodd"/><path d="M383.5 315.5 383.5 484.5" stroke="#808080" stroke-linejoin="round" stroke-miterlimit="10" stroke-dasharray="1 1" fill="none" fill-rule="evenodd"/><path d="M407.5 316.5 407.5 484.5" stroke="#808080" stroke-linejoin="round" stroke-miterlimit="10" stroke-dasharray="1 1" fill="none" fill-rule="evenodd"/><path d="M432.5 315.5 432.5 484.5" stroke="#808080" stroke-linejoin="round" stroke-miterlimit="10" stroke-dasharray="1 1" fill="none" fill-rule="evenodd"/><path d="M456.5 316.5 456.5 484.5" stroke="#808080" stroke-linejoin="round" stroke-miterlimit="10" stroke-dasharray="1 1" fill="none" fill-rule="evenodd"/><path d="M309.5 461.5 480.5 461.5" stroke="#808080" stroke-linejoin="round" stroke-miterlimit="10" stroke-dasharray="1 1" fill="none" fill-rule="evenodd"/><path d="M358.5 438.5 358.5 387.767 432.5 387.767 432.5 366.5" stroke="#000000" stroke-width="2.66667" stroke-linejoin="round" stroke-miterlimit="10" fill="none" fill-rule="evenodd"/><text font-family="Arial,Arial_MSFontService,sans-serif" font-weight="400" font-size="21" transform="translate(290.917 537)">Up</text><text font-family="Arial,Arial_MSFontService,sans-serif" font-weight="400" font-size="21" transform="translate(318.083 537)">-</text><text font-family="Arial,Arial_MSFontService,sans-serif" font-weight="400" font-size="21" transform="translate(325.25 537)">Right</text><text font-family="Arial,Arial_MSFontService,sans-serif" font-weight="400" font-size="21" transform="translate(374.917 537)">-</text><text font-family="Arial,Arial_MSFontService,sans-serif" font-weight="400" font-size="21" transform="translate(322.917 562)">Up</text><text font-family="Arial,Arial_MSFontService,sans-serif" font-style="italic" font-weight="400" font-size="21" transform="translate(295.67 588)">Z</text><text font-family="Arial,Arial_MSFontService,sans-serif" font-weight="400" font-size="21" transform="translate(308.67 588)">-</text><text font-family="Arial,Arial_MSFontService,sans-serif" font-weight="400" font-size="21" transform="translate(315.837 588)">Shape</text><text fill="#1860AB" font-family="Arial,Arial_MSFontService,sans-serif" font-weight="400" font-size="21" transform="translate(392.917 537)">Right</text><text fill="#1860AB" font-family="Arial,Arial_MSFontService,sans-serif" font-weight="400" font-size="21" transform="translate(442.583 537)">-</text><text fill="#1860AB" font-family="Arial,Arial_MSFontService,sans-serif" font-weight="400" font-size="21" transform="translate(449.75 537)">Up</text><text fill="#1860AB" font-family="Arial,Arial_MSFontService,sans-serif" font-weight="400" font-size="21" transform="translate(476.917 537)">-</text><text fill="#1860AB" font-family="Arial,Arial_MSFontService,sans-serif" font-weight="400" font-size="21" transform="translate(413.67 562)">Right</text><text fill="#1860AB" font-family="Arial,Arial_MSFontService,sans-serif" font-style="italic" font-weight="400" font-size="21" transform="translate(397.67 588)">Z</text><text fill="#1860AB" font-family="Arial,Arial_MSFontService,sans-serif" font-weight="400" font-size="21" transform="translate(410.67 588)">-</text><text fill="#1860AB" font-family="Arial,Arial_MSFontService,sans-serif" font-weight="400" font-size="21" transform="translate(417.837 588)">Shape</text><path d="M445.215 511.474 446.956 489.495 447.609 478.916 448 468.81 448.043 459.331 447.652 450.634 446.74 442.872 445.222 436.202 445.238 436.251 443.039 430.727 443.067 430.783 440.246 426.337 440.286 426.388 436.931 422.866 436.976 422.907 433.176 420.155 433.219 420.182 429.063 418.046 424.674 416.388 421.835 415.603 422.013 414.96 424.91 415.765 429.367 417.453 433.524 419.589C433.539 419.596 433.553 419.605 433.567 419.615L437.367 422.367C437.384 422.378 437.399 422.392 437.413 422.407L440.769 425.928C440.784 425.944 440.797 425.961 440.809 425.98L443.63 430.426C443.641 430.443 443.651 430.462 443.658 430.481L445.857 436.005C445.863 436.021 445.868 436.038 445.872 436.054L447.402 442.795 448.318 450.604 448.71 459.334 448.666 468.836 448.274 478.957 447.621 489.548 445.88 511.526ZM422.14 419.492 415.5 413.5 424.278 411.783Z" fill="#1860AB"/><path d="M336.714 511.512 336.22 497.903 335.783 484.514 335.445 471.563 335.249 459.271 335.236 447.857 335.448 437.542 335.652 432.861 335.928 428.539 336.281 424.6 336.716 421.072 337.241 417.97 337.853 415.278 338.547 412.967 339.319 411.01C339.325 410.994 339.333 410.977 339.343 410.962L341.068 408.067C341.085 408.039 341.105 408.014 341.129 407.992L343.084 406.203C343.129 406.162 343.185 406.134 343.245 406.122L345.769 405.628 345.898 406.282 343.373 406.776 343.534 406.695 341.58 408.484 341.641 408.409 339.915 411.303 339.939 411.255 339.185 413.159 338.503 415.425 337.898 418.081 337.378 421.153 336.945 424.66 336.593 428.582 336.318 432.89 336.115 437.555 335.903 447.857 335.916 459.26 336.112 471.545 336.449 484.492 336.886 497.879 337.38 511.488ZM344.523 401.947 352.5 405.992 344.478 409.947Z"/><path d="M358.5 437.5 407.757 437.5 407.757 363.5 434.5 363.5" stroke="#1860AB" stroke-width="2.66667" stroke-linejoin="round" stroke-miterlimit="10" fill="none" fill-rule="evenodd"/><path d="M428.5 364C428.5 362.067 430.067 360.5 432 360.5 433.933 360.5 435.5 362.067 435.5 364 435.5 365.933 433.933 367.5 432 367.5 430.067 367.5 428.5 365.933 428.5 364Z" stroke="#000000" stroke-linejoin="round" stroke-miterlimit="10" fill-rule="evenodd"/><path d="M354.5 437C354.5 435.067 356.067 433.5 358 433.5 359.933 433.5 361.5 435.067 361.5 437 361.5 438.933 359.933 440.5 358 440.5 356.067 440.5 354.5 438.933 354.5 437Z" stroke="#000000" stroke-linejoin="round" stroke-miterlimit="10" fill-rule="evenodd"/><rect x="112.5" y="315.5" width="171" height="170" stroke="#969696" stroke-miterlimit="8" fill="#EAEAEA"/><path d="M113.5 339.5 283.5 339.5" stroke="#808080" stroke-linejoin="round" stroke-miterlimit="10" stroke-dasharray="1 1" fill="none" fill-rule="evenodd"/><path d="M113.5 363.5 283.5 363.5" stroke="#808080" stroke-linejoin="round" stroke-miterlimit="10" stroke-dasharray="1 1" fill="none" fill-rule="evenodd"/><path d="M113.5 388.5 283.5 388.5" stroke="#808080" stroke-linejoin="round" stroke-miterlimit="10" stroke-dasharray="1 1" fill="none" fill-rule="evenodd"/><path d="M113.5 412.5 283.5 412.5" stroke="#808080" stroke-linejoin="round" stroke-miterlimit="10" stroke-dasharray="1 1" fill="none" fill-rule="evenodd"/><path d="M113.5 437.5 283.5 437.5" stroke="#808080" stroke-linejoin="round" stroke-miterlimit="10" stroke-dasharray="1 1" fill="none" fill-rule="evenodd"/><path d="M137.5 316.5 137.5 484.5" stroke="#808080" stroke-linejoin="round" stroke-miterlimit="10" stroke-dasharray="1 1" fill="none" fill-rule="evenodd"/><path d="M161.5 316.5 161.5 485.5" stroke="#808080" stroke-linejoin="round" stroke-miterlimit="10" stroke-dasharray="1 1" fill="none" fill-rule="evenodd"/><path d="M186.5 315.5 186.5 484.5" stroke="#808080" stroke-linejoin="round" stroke-miterlimit="10" stroke-dasharray="1 1" fill="none" fill-rule="evenodd"/><path d="M210.5 316.5 210.5 484.5" stroke="#808080" stroke-linejoin="round" stroke-miterlimit="10" stroke-dasharray="1 1" fill="none" fill-rule="evenodd"/><path d="M235.5 315.5 235.5 484.5" stroke="#808080" stroke-linejoin="round" stroke-miterlimit="10" stroke-dasharray="1 1" fill="none" fill-rule="evenodd"/><path d="M259.5 316.5 259.5 484.5" stroke="#808080" stroke-linejoin="round" stroke-miterlimit="10" stroke-dasharray="1 1" fill="none" fill-rule="evenodd"/><path d="M113.5 461.5 283.5 461.5" stroke="#808080" stroke-linejoin="round" stroke-miterlimit="10" stroke-dasharray="1 1" fill="none" fill-rule="evenodd"/><path d="M161.5 437.5 161.5 363.5 236.5 363.5" stroke="#000000" stroke-width="2.66667" stroke-linejoin="round" stroke-miterlimit="10" fill="none" fill-rule="evenodd"/><path d="M159.5 437.5 235.5 437.5 235.5 363.5" stroke="#1860AB" stroke-width="2.66667" stroke-linejoin="round" stroke-miterlimit="10" fill="none" fill-rule="evenodd"/><text font-family="Arial,Arial_MSFontService,sans-serif" font-weight="400" font-size="21" transform="translate(101.75 537)">Up</text><text font-family="Arial,Arial_MSFontService,sans-serif" font-weight="400" font-size="21" transform="translate(128.917 537)">-</text><text font-family="Arial,Arial_MSFontService,sans-serif" font-weight="400" font-size="21" transform="translate(136.083 537)">Right</text><text font-family="Arial,Arial_MSFontService,sans-serif" font-style="italic" font-weight="400" font-size="21" transform="translate(103.503 562)">L</text><text font-family="Arial,Arial_MSFontService,sans-serif" font-weight="400" font-size="21" transform="translate(115.337 562)">-</text><text font-family="Arial,Arial_MSFontService,sans-serif" font-weight="400" font-size="21" transform="translate(122.503 562)">Shape</text><text fill="#1860AB" font-family="Arial,Arial_MSFontService,sans-serif" font-weight="400" font-size="21" transform="translate(197.25 537)">Right</text><text fill="#1860AB" font-family="Arial,Arial_MSFontService,sans-serif" font-weight="400" font-size="21" transform="translate(246.917 537)">-</text><text fill="#1860AB" font-family="Arial,Arial_MSFontService,sans-serif" font-weight="400" font-size="21" transform="translate(254.083 537)">Up</text><text fill="#1860AB" font-family="Arial,Arial_MSFontService,sans-serif" font-style="italic" font-weight="400" font-size="21" transform="translate(199.003 562)">L</text><text fill="#1860AB" font-family="Arial,Arial_MSFontService,sans-serif" font-weight="400" font-size="21" transform="translate(210.837 562)">-</text><text fill="#1860AB" font-family="Arial,Arial_MSFontService,sans-serif" font-weight="400" font-size="21" transform="translate(218.003 562)">Shape</text><path d="M0.333299-0.00476142 1.23807 63.3293 0.571473 63.3388-0.333299 0.00476142ZM4.88532 61.9437 1 70-3.11387 62.0579Z" fill="#1860AB" transform="matrix(1 0 0 -1 223.5 511.5)"/><path d="M135.422 511.515 134.79 497.166 134.232 483.043 133.801 469.356 133.55 456.315 133.533 444.13 133.804 433.01 134.416 423.165 134.868 418.781 135.425 414.796 136.095 411.222 136.876 408.04 138.739 402.757C138.745 402.74 138.753 402.723 138.762 402.707L140.967 398.718C140.978 398.698 140.99 398.68 141.005 398.663L143.502 395.726C143.517 395.708 143.534 395.691 143.553 395.677L146.284 393.581C146.306 393.564 146.33 393.55 146.355 393.539L149.067 392.372 149.331 392.984 146.619 394.151 146.69 394.11 143.959 396.206 144.01 396.157 141.512 399.095 141.55 399.04 139.345 403.03 139.368 402.979 137.523 408.199 136.75 411.345 136.085 414.888 135.531 418.849 135.082 423.207 134.471 433.026 134.2 444.129 134.217 456.302 134.467 469.335 134.898 483.016 135.456 497.137 136.088 511.485ZM146.632 389.333 155.5 390.5 149.245 396.894Z"/><path d="M157.5 437C157.5 435.067 159.291 433.5 161.5 433.5 163.709 433.5 165.5 435.067 165.5 437 165.5 438.933 163.709 440.5 161.5 440.5 159.291 440.5 157.5 438.933 157.5 437Z" stroke="#000000" stroke-linejoin="round" stroke-miterlimit="10" fill-rule="evenodd"/><path d="M231.5 363.5C231.5 361.291 233.067 359.5 235 359.5 236.933 359.5 238.5 361.291 238.5 363.5 238.5 365.709 236.933 367.5 235 367.5 233.067 367.5 231.5 365.709 231.5 363.5Z" stroke="#000000" stroke-linejoin="round" stroke-miterlimit="10" fill-rule="evenodd"/></g></svg>