<svg width="678" height="529" xmlns="http://www.w3.org/2000/svg" xmlns:xlink="http://www.w3.org/1999/xlink" overflow="hidden"><defs><clipPath id="clip0"><path d="M140.5 488.5 140.5 607.5 299.5 607.5 299.5 488.5ZM63 121 741 121 741 650 63 650Z" fill-rule="evenodd" clip-rule="evenodd"/></clipPath></defs><g transform="translate(-63 -121)"><text font-family="Arial,Arial_MSFontService,sans-serif" font-weight="400" font-size="23" transform="translate(83.2292 151)">Global Routing Using Integer Linear Programming</text><text fill="#CC0000" font-family="Symbol,Symbol_MSFontService,sans-serif" font-weight="400" font-size="23" transform="translate(83.2292 209)"></text><text font-family="Arial,Arial_MSFontService,sans-serif" font-weight="400" font-size="23" transform="translate(117.229 209)">Given</text><text fill="#CC0000" font-family="Symbol,Symbol_MSFontService,sans-serif" font-weight="400" font-size="21" transform="translate(113.096 238)"></text><text font-family="Arial,Arial_MSFontService,sans-serif" font-weight="400" font-size="21" transform="translate(145.096 238)">Nets</text><text font-family="Arial,Arial_MSFontService,sans-serif" font-style="italic" font-weight="400" font-size="21" transform="translate(194.929 238)">A</text><text font-family="Arial,Arial_MSFontService,sans-serif" font-weight="400" font-size="21" transform="translate(209.096 238)">,</text><text font-family="Arial,Arial_MSFontService,sans-serif" font-style="italic" font-weight="400" font-size="21" transform="translate(221.096 238)">B</text><text fill="#CC0000" font-family="Symbol,Symbol_MSFontService,sans-serif" font-weight="400" font-size="21" transform="translate(113.096 267)"></text><text font-family="Arial,Arial_MSFontService,sans-serif" font-style="italic" font-weight="400" font-size="21" transform="translate(145.096 267)">W</text><text font-family="Arial,Arial_MSFontService,sans-serif" font-weight="400" font-size="21" transform="translate(171.263 267)">= 5</text><text font-family="SimSun,SimSun_MSFontService,sans-serif" font-weight="400" font-size="21" transform="translate(207.596 267)">×</text><text font-family="Arial,Arial_MSFontService,sans-serif" font-style="italic" font-weight="400" font-size="21" transform="translate(234.929 267)">H</text><text font-family="Arial,Arial_MSFontService,sans-serif" font-weight="400" font-size="21" transform="translate(256.263 267)">= 4 routing grid</text><text font-family="Arial,Arial_MSFontService,sans-serif" font-style="italic" font-weight="400" font-size="21" transform="translate(405.263 267)">G</text><text fill="#CC0000" font-family="Symbol,Symbol_MSFontService,sans-serif" font-weight="400" font-size="21" transform="translate(113.096 295)"></text><text font-family="Arial,Arial_MSFontService,sans-serif" font-weight="400" font-size="21" transform="translate(145.096 295)">σ(</text><text font-family="Arial,Arial_MSFontService,sans-serif" font-style="italic" font-weight="400" font-size="21" transform="translate(165.429 295)">e</text><text font-family="Arial,Arial_MSFontService,sans-serif" font-weight="400" font-size="21" transform="translate(177.263 295)">) = 1 for all</text><text font-family="Arial,Arial_MSFontService,sans-serif" font-style="italic" font-weight="400" font-size="21" transform="translate(284.929 295)">e</text><text font-family="Symbol,Symbol_MSFontService,sans-serif" font-weight="400" font-size="21" transform="translate(302.763 295)"></text><text font-family="Arial,Arial_MSFontService,sans-serif" font-style="italic" font-weight="400" font-size="21" transform="translate(323.929 295)">G</text><text fill="#CC0000" font-family="Symbol,Symbol_MSFontService,sans-serif" font-weight="400" font-size="21" transform="translate(113.096 324)"></text><text font-family="Arial,Arial_MSFontService,sans-serif" font-style="italic" font-weight="400" font-size="21" transform="translate(145.096 324)">L</text><text font-family="Arial,Arial_MSFontService,sans-serif" font-weight="400" font-size="21" transform="translate(156.929 324)">-</text><text font-family="Arial,Arial_MSFontService,sans-serif" font-weight="400" font-size="21" transform="translate(164.096 324)">shapes have weight 1.00 and</text><text font-family="Arial,Arial_MSFontService,sans-serif" font-style="italic" font-weight="400" font-size="21" transform="translate(447.429 324)">Z</text><text font-family="Arial,Arial_MSFontService,sans-serif" font-weight="400" font-size="21" transform="translate(460.429 324)">-</text><text font-family="Arial,Arial_MSFontService,sans-serif" font-weight="400" font-size="21" transform="translate(467.596 324)">shapes have weight 0.99</text><text fill="#CC0000" font-family="Symbol,Symbol_MSFontService,sans-serif" font-weight="400" font-size="21" transform="translate(113.096 353)"></text><text font-family="Arial,Arial_MSFontService,sans-serif" font-weight="400" font-size="21" transform="translate(145.096 353)">The lower</text><text font-family="Arial,Arial_MSFontService,sans-serif" font-weight="400" font-size="21" transform="translate(238.596 353)">-</text><text font-family="Arial,Arial_MSFontService,sans-serif" font-weight="400" font-size="21" transform="translate(245.763 353)">left corner is (0,0).</text><text fill="#CC0000" font-family="Symbol,Symbol_MSFontService,sans-serif" font-weight="400" font-size="23" transform="translate(83.2292 412)"></text><text font-family="Arial,Arial_MSFontService,sans-serif" font-weight="400" font-size="23" transform="translate(117.229 412)">Task</text><text fill="#CC0000" font-family="Symbol,Symbol_MSFontService,sans-serif" font-weight="400" font-size="21" transform="translate(113.096 441)"></text><text font-family="Arial,Arial_MSFontService,sans-serif" font-weight="400" font-size="21" transform="translate(145.096 441)">Write the ILP to route the nets in the graph below</text><g clip-path="url(#clip0)"><rect x="143.167" y="491.167" width="159" height="119" fill="#FFFFFF"/><path d="M143.667 609.667 301.667 609.667 301.667 491.667 143.667 491.667ZM142.667 610.667 142.667 490.667 302.667 490.667 302.667 610.667Z" fill="#FFFFFF" fill-rule="evenodd"/></g><rect x="140.5" y="488.5" width="159" height="119" stroke="#808080" stroke-miterlimit="8" fill="#FFFFFF"/><path d="M219.5 605.5 219.5 487.5" stroke="#808080" stroke-linejoin="round" stroke-miterlimit="10" stroke-dasharray="1 1" fill="none" fill-rule="evenodd"/><path d="M259.5 606.5 260.5 488.5" stroke="#808080" stroke-linejoin="round" stroke-miterlimit="10" stroke-dasharray="1 1" fill="none" fill-rule="evenodd"/><path d="M180.5 606.5 180.5 488.5" stroke="#808080" stroke-linejoin="round" stroke-miterlimit="10" stroke-dasharray="1 1" fill="none" fill-rule="evenodd"/><path d="M141.5 568.5 299.5 568.5" stroke="#808080" stroke-linejoin="round" stroke-miterlimit="10" stroke-dasharray="1 1" fill="none" fill-rule="evenodd"/><path d="M142.5 529.5 300.5 529.5" stroke="#808080" stroke-linejoin="round" stroke-miterlimit="10" stroke-dasharray="1 1" fill="none" fill-rule="evenodd"/><path d="M136.5 607C136.5 605.067 138.291 603.5 140.5 603.5 142.709 603.5 144.5 605.067 144.5 607 144.5 608.933 142.709 610.5 140.5 610.5 138.291 610.5 136.5 608.933 136.5 607Z" stroke="#808080" stroke-width="3" stroke-linejoin="round" stroke-miterlimit="10" fill="#1860AB" fill-rule="evenodd"/><path d="M136 488C136 485.791 138.015 484 140.5 484 142.985 484 145 485.791 145 488 145 490.209 142.985 492 140.5 492 138.015 492 136 490.209 136 488Z" stroke="#808080" stroke-width="2" stroke-linejoin="round" stroke-miterlimit="10" fill="#CC0000" fill-rule="evenodd"/><path d="M295 569C295 567.343 296.567 566 298.5 566 300.433 566 302 567.343 302 569 302 570.657 300.433 572 298.5 572 296.567 572 295 570.657 295 569Z" stroke="#808080" stroke-width="2" stroke-linejoin="round" stroke-miterlimit="10" fill="#FFFF00" fill-rule="evenodd"/><path d="M216 606.5C216 604.567 217.567 603 219.5 603 221.433 603 223 604.567 223 606.5 223 608.433 221.433 610 219.5 610 217.567 610 216 608.433 216 606.5Z" stroke="#808080" stroke-width="2" stroke-linejoin="round" stroke-miterlimit="10" fill="#FFFF00" fill-rule="evenodd"/><path d="M215 568C215 565.791 216.791 564 219 564 221.209 564 223 565.791 223 568 223 570.209 221.209 572 219 572 216.791 572 215 570.209 215 568Z" stroke="#808080" stroke-width="2" stroke-linejoin="round" stroke-miterlimit="10" fill="#CC0000" fill-rule="evenodd"/><path d="M215.5 529.5C215.5 527.291 217.291 525.5 219.5 525.5 221.709 525.5 223.5 527.291 223.5 529.5 223.5 531.709 221.709 533.5 219.5 533.5 217.291 533.5 215.5 531.709 215.5 529.5Z" stroke="#808080" stroke-width="3" stroke-linejoin="round" stroke-miterlimit="10" fill="#1860AB" fill-rule="evenodd"/><text font-family="Times New Roman,Times New Roman_MSFontService,sans-serif" font-style="italic" font-weight="400" font-size="24" transform="translate(147.5 511)">A</text><text font-family="Times New Roman,Times New Roman_MSFontService,sans-serif" font-style="italic" font-weight="400" font-size="24" transform="translate(227.5 590)">A</text><text font-family="Times New Roman,Times New Roman_MSFontService,sans-serif" font-style="italic" font-weight="400" font-size="24" transform="translate(303 592)">B</text><text font-family="Times New Roman,Times New Roman_MSFontService,sans-serif" font-style="italic" font-weight="400" font-size="24" transform="translate(225 629)">B</text><text font-family="Times New Roman,Times New Roman_MSFontService,sans-serif" font-style="italic" font-weight="400" font-size="24" transform="translate(145.833 629)">C</text><text font-family="Times New Roman,Times New Roman_MSFontService,sans-serif" font-style="italic" font-weight="400" font-size="24" transform="translate(225.333 553)">C</text></g></svg>