<svg width="490" height="301" xmlns="http://www.w3.org/2000/svg" xmlns:xlink="http://www.w3.org/1999/xlink" overflow="hidden"><g transform="translate(-234 -340)"><path d="M0 0 327 1" stroke="#000000" stroke-width="6.66667" stroke-linejoin="round" stroke-miterlimit="10" fill="none" fill-rule="evenodd" transform="matrix(-1 0 0 1 566.5 531.5)"/><path d="M0 0 328 1" stroke="#000000" stroke-width="6.66667" stroke-linejoin="round" stroke-miterlimit="10" fill="none" fill-rule="evenodd" transform="matrix(-1 0 0 1 566.5 390.5)"/><rect x="520.5" y="421.5" width="29" height="124" stroke="#808080" stroke-width="0" stroke-miterlimit="8" fill="#808080"/><rect x="520.5" y="422.5" width="29" height="123" stroke="#000000" stroke-width="3.33333" stroke-miterlimit="8" fill="none"/><rect x="475.5" y="377.5" width="30" height="118" stroke="#808080" stroke-width="0" stroke-miterlimit="8" fill="#808080"/><rect x="475.5" y="377.5" width="30" height="118" stroke="#000000" stroke-width="3.33333" stroke-miterlimit="8" fill="none"/><rect x="387.5" y="465.5" width="29" height="80" stroke="#808080" stroke-width="0" stroke-miterlimit="8" fill="#808080"/><rect x="387.5" y="465.5" width="29" height="80" stroke="#000000" stroke-width="3.33333" stroke-miterlimit="8" fill="none"/><rect x="387.5" y="377.5" width="29" height="74" stroke="#808080" stroke-width="0" stroke-miterlimit="8" fill="#808080"/><rect x="387.5" y="377.5" width="29" height="74" stroke="#000000" stroke-width="3.33333" stroke-miterlimit="8" fill="none"/><rect x="343.5" y="377.5" width="30" height="118" stroke="#808080" stroke-width="0" stroke-miterlimit="8" fill="#808080"/><rect x="343.5" y="377.5" width="30" height="118" stroke="#000000" stroke-width="3.33333" stroke-miterlimit="8" fill="none"/><rect x="255.5" y="474.5" width="29" height="73" stroke="#808080" stroke-width="0" stroke-miterlimit="8" fill="#808080"/><rect x="255.5" y="474.5" width="29" height="71" stroke="#000000" stroke-width="3.33333" stroke-miterlimit="8" fill="none"/><rect x="521.5" y="516.5" width="29" height="29" stroke="#000000" stroke-width="3.33333" stroke-miterlimit="8" fill="none"/><rect x="387.5" y="516.5" width="29" height="29" stroke="#000000" stroke-width="3.33333" stroke-miterlimit="8" fill="none"/><rect x="255.5" y="516.5" width="29" height="29" stroke="#000000" stroke-width="3.33333" stroke-miterlimit="8" fill="none"/><rect x="475.5" y="377.5" width="30" height="30" stroke="#000000" stroke-width="3.33333" stroke-miterlimit="8" fill="none"/><rect x="387.5" y="377.5" width="29" height="30" stroke="#000000" stroke-width="3.33333" stroke-miterlimit="8" fill="none"/><rect x="343.5" y="377.5" width="30" height="30" stroke="#000000" stroke-width="3.33333" stroke-miterlimit="8" fill="none"/><rect x="475.5" y="465.5" width="30" height="30" stroke="#DFDFDF" stroke-width="0" stroke-miterlimit="8" fill="#DFDFDF"/><rect x="475.5" y="465.5" width="30" height="30" stroke="#000000" stroke-width="3.33333" stroke-miterlimit="8" fill="none"/><rect x="387.5" y="465.5" width="29" height="30" stroke="#DFDFDF" stroke-width="0" stroke-miterlimit="8" fill="#DFDFDF"/><rect x="387.5" y="465.5" width="29" height="30" stroke="#000000" stroke-width="3.33333" stroke-miterlimit="8" fill="none"/><rect x="343.5" y="465.5" width="30" height="30" stroke="#DFDFDF" stroke-width="0" stroke-miterlimit="8" fill="#DFDFDF"/><rect x="343.5" y="465.5" width="30" height="30" stroke="#000000" stroke-width="3.33333" stroke-miterlimit="8" fill="none"/><rect x="255.5" y="465.5" width="29" height="30" stroke="#DFDFDF" stroke-width="0" stroke-miterlimit="8" fill="#DFDFDF"/><rect x="255.5" y="465.5" width="29" height="30" stroke="#000000" stroke-width="3.33333" stroke-miterlimit="8" fill="none"/><rect x="520.5" y="422.5" width="29" height="29" stroke="#DFDFDF" stroke-width="0" stroke-miterlimit="8" fill="#DFDFDF"/><rect x="520.5" y="422.5" width="29" height="29" stroke="#000000" stroke-width="3.33333" stroke-miterlimit="8" fill="none"/><rect x="387.5" y="422.5" width="29" height="29" stroke="#DFDFDF" stroke-width="0" stroke-miterlimit="8" fill="#DFDFDF"/><rect x="387.5" y="422.5" width="29" height="29" stroke="#000000" stroke-width="3.33333" stroke-miterlimit="8" fill="none"/><rect x="416.5" y="473.5" width="59" height="15" stroke="#DFDFDF" stroke-width="0" stroke-miterlimit="8" fill="#DFDFDF"/><rect x="416.5" y="473.5" width="59" height="15" stroke="#000000" stroke-width="3.33333" stroke-miterlimit="8" fill="none"/><rect x="284.5" y="473.5" width="59" height="15" stroke="#DFDFDF" stroke-width="0" stroke-miterlimit="8" fill="#DFDFDF"/><rect x="284.5" y="473.5" width="59" height="15" stroke="#000000" stroke-width="3.33333" stroke-miterlimit="8" fill="none"/><rect x="416.5" y="429.5" width="104" height="15" stroke="#DFDFDF" stroke-width="0" stroke-miterlimit="8" fill="#DFDFDF"/><rect x="416.5" y="429.5" width="104" height="15" stroke="#000000" stroke-width="3.33333" stroke-miterlimit="8" fill="none"/><rect x="482.5" y="473.5" width="15" height="15" stroke="#000000" stroke-width="0" stroke-miterlimit="8"/><rect x="482.5" y="473.5" width="15" height="15" stroke="#000000" stroke-width="3.33333" stroke-miterlimit="8" fill="none"/><rect x="394.5" y="473.5" width="15" height="15" stroke="#000000" stroke-width="0" stroke-miterlimit="8"/><rect x="394.5" y="473.5" width="15" height="15" stroke="#000000" stroke-width="3.33333" stroke-miterlimit="8" fill="none"/><rect x="350.5" y="473.5" width="15" height="15" stroke="#000000" stroke-width="0" stroke-miterlimit="8"/><rect x="350.5" y="473.5" width="15" height="15" stroke="#000000" stroke-width="3.33333" stroke-miterlimit="8" fill="none"/><rect x="262.5" y="473.5" width="15" height="15" stroke="#000000" stroke-width="0" stroke-miterlimit="8"/><rect x="262.5" y="473.5" width="15" height="15" stroke="#000000" stroke-width="3.33333" stroke-miterlimit="8" fill="none"/><rect x="527.5" y="429.5" width="14" height="15" stroke="#000000" stroke-width="0" stroke-miterlimit="8"/><rect x="527.5" y="429.5" width="14" height="15" stroke="#000000" stroke-width="3.33333" stroke-miterlimit="8" fill="none"/><rect x="394.5" y="429.5" width="15" height="15" stroke="#000000" stroke-width="0" stroke-miterlimit="8"/><rect x="394.5" y="429.5" width="15" height="15" stroke="#000000" stroke-width="3.33333" stroke-miterlimit="8" fill="none"/><text font-family="Arial,Arial_MSFontService,sans-serif" font-style="italic" font-weight="700" font-size="23" transform="translate(256.997 575)">A</text><text font-family="Arial,Arial_MSFontService,sans-serif" font-style="italic" font-weight="700" font-size="23" transform="translate(346.497 369)">A</text><text font-family="Arial,Arial_MSFontService,sans-serif" font-style="italic" font-weight="700" font-size="23" transform="translate(390.164 574)">B</text><text font-family="Arial,Arial_MSFontService,sans-serif" font-style="italic" font-weight="700" font-size="23" transform="translate(480.164 369)">B</text><text font-family="Arial,Arial_MSFontService,sans-serif" font-style="italic" font-weight="700" font-size="23" transform="translate(388.664 369)">C</text><text font-family="Arial,Arial_MSFontService,sans-serif" font-style="italic" font-weight="700" font-size="23" transform="translate(521.497 575)">C</text><path d="M345.073 602.656 320.351 492.293 326.206 490.982 350.927 601.344ZM315.152 496.532 320 477 332.717 492.597Z" fill="#C5C5FF"/><path d="M2.83158-0.991051 39.8763 104.851 34.2132 106.833-2.83158 0.991051ZM44.5484 100.037 42 120 27.559 105.984Z" fill="#C5C5FF" transform="matrix(1 0 0 -1 405 602)"/><rect x="249" y="595" width="292" height="37" fill="#CCCCFF"/><text font-family="Arial,Arial_MSFontService,sans-serif" font-weight="400" font-size="23" transform="translate(259.164 622)">Horizontally unconstrained</text><path d="M0.337467-2.98096 91.4327 7.3317 90.7577 13.2936-0.337467 2.98096ZM89.1266 1.03232 106 12 87.1018 18.9181Z" fill="#C5C5FF" transform="matrix(-1 0 0 1 617 467)"/><path d="M630.652 455.98 525.551 443.718 526.247 437.758 631.348 450.02ZM527.836 450.025 511 439 529.922 432.146Z" fill="#C5C5FF"/><rect x="581" y="425" width="139" height="65" fill="#CCCCFF"/><text font-family="Arial,Arial_MSFontService,sans-serif" font-weight="400" font-size="23" transform="translate(591.33 452)">Horizontally</text><text font-family="Arial,Arial_MSFontService,sans-serif" font-weight="400" font-size="23" transform="translate(591.33 479)">constrained</text></g></svg>