<svg width="793" height="547" xmlns="http://www.w3.org/2000/svg" xmlns:xlink="http://www.w3.org/1999/xlink" overflow="hidden"><g transform="translate(-8 -107)"><rect x="338.5" y="428.5" width="190" height="209" stroke="#000000" stroke-miterlimit="8" fill="#FFFFFF"/><path d="M370.5 429.5 370.5 637.5" stroke="#000000" stroke-linejoin="round" stroke-miterlimit="10" fill="none" fill-rule="evenodd"/><path d="M402.5 429.5 402.5 637.5" stroke="#000000" stroke-linejoin="round" stroke-miterlimit="10" fill="none" fill-rule="evenodd"/><path d="M433.5 429.5 433.5 637.5" stroke="#000000" stroke-linejoin="round" stroke-miterlimit="10" fill="none" fill-rule="evenodd"/><path d="M465.5 429.5 465.5 637.5" stroke="#000000" stroke-linejoin="round" stroke-miterlimit="10" fill="none" fill-rule="evenodd"/><path d="M497.5 429.5 497.5 637.5" stroke="#000000" stroke-linejoin="round" stroke-miterlimit="10" fill="none" fill-rule="evenodd"/><path d="M0 0 190 0.000104987" stroke="#000000" stroke-linejoin="round" stroke-miterlimit="10" fill="none" fill-rule="evenodd" transform="matrix(-1 0 0 1 528.5 457.5)"/><path d="M0 0 190 0.000104987" stroke="#000000" stroke-linejoin="round" stroke-miterlimit="10" fill="none" fill-rule="evenodd" transform="matrix(-1 0 0 1 528.5 487.5)"/><path d="M0 0 190 0.000104987" stroke="#000000" stroke-linejoin="round" stroke-miterlimit="10" fill="none" fill-rule="evenodd" transform="matrix(-1 0 0 1 528.5 517.5)"/><path d="M0 0 190 0.000104987" stroke="#000000" stroke-linejoin="round" stroke-miterlimit="10" fill="none" fill-rule="evenodd" transform="matrix(-1 0 0 1 528.5 547.5)"/><path d="M0 0 190 0.000104987" stroke="#000000" stroke-linejoin="round" stroke-miterlimit="10" fill="none" fill-rule="evenodd" transform="matrix(-1 0 0 1 528.5 577.5)"/><path d="M0 0 190 0.000104987" stroke="#000000" stroke-linejoin="round" stroke-miterlimit="10" fill="none" fill-rule="evenodd" transform="matrix(-1 0 0 1 528.5 607.5)"/><path d="M461 429.5C461 427.015 463.239 425 466 425 468.761 425 471 427.015 471 429.5 471 431.985 468.761 434 466 434 463.239 434 461 431.985 461 429.5Z" stroke="#000000" stroke-width="2" stroke-linejoin="round" stroke-miterlimit="10" fill-rule="evenodd"/><path d="M335 457.5C335 455.015 337.015 453 339.5 453 341.985 453 344 455.015 344 457.5 344 459.985 341.985 462 339.5 462 337.015 462 335 459.985 335 457.5Z" stroke="#000000" stroke-width="2" stroke-linejoin="round" stroke-miterlimit="10" fill-rule="evenodd"/><path d="M366 487.5C366 485.015 368.015 483 370.5 483 372.985 483 375 485.015 375 487.5 375 489.985 372.985 492 370.5 492 368.015 492 366 489.985 366 487.5Z" stroke="#000000" stroke-width="2" stroke-linejoin="round" stroke-miterlimit="10" fill-rule="evenodd"/><path d="M493 517.5C493 515.015 495.015 513 497.5 513 499.985 513 502 515.015 502 517.5 502 519.985 499.985 522 497.5 522 495.015 522 493 519.985 493 517.5Z" stroke="#000000" stroke-width="2" stroke-linejoin="round" stroke-miterlimit="10" fill-rule="evenodd"/><path d="M525 577.5C525 575.015 527.015 573 529.5 573 531.985 573 534 575.015 534 577.5 534 579.985 531.985 582 529.5 582 527.015 582 525 579.985 525 577.5Z" stroke="#000000" stroke-width="2" stroke-linejoin="round" stroke-miterlimit="10" fill-rule="evenodd"/><text font-family="Arial,Arial_MSFontService,sans-serif" font-weight="400" font-size="20" transform="translate(344.83 450)">1</text><text font-family="Arial,Arial_MSFontService,sans-serif" font-weight="400" font-size="20" transform="translate(376.497 507)">2</text><text font-family="Arial,Arial_MSFontService,sans-serif" font-weight="400" font-size="20" transform="translate(471.33 449)">3</text><text font-family="Arial,Arial_MSFontService,sans-serif" font-weight="400" font-size="20" transform="translate(503.164 537)">4</text><text font-family="Arial,Arial_MSFontService,sans-serif" font-weight="400" font-size="20" transform="translate(513.83 598)">5</text><text font-family="Arial,Arial_MSFontService,sans-serif" font-weight="400" font-size="20" transform="translate(439.664 598)">6</text><text font-family="Arial,Arial_MSFontService,sans-serif" font-weight="400" font-size="20" transform="translate(376.497 635)">7</text><path d="M342 457 497 457" stroke="#000000" stroke-width="4" stroke-linejoin="round" stroke-miterlimit="10" fill="none" fill-rule="evenodd"/><path d="M0 0 0.000104987 26" stroke="#000000" stroke-width="4" stroke-linejoin="round" stroke-miterlimit="10" fill="none" fill-rule="evenodd" transform="matrix(1 0 0 -1 370 483)"/><path d="M465 432 465 457" stroke="#000000" stroke-width="4" stroke-linejoin="round" stroke-miterlimit="10" fill="none" fill-rule="evenodd"/><path d="M497 457 497 513" stroke="#000000" stroke-width="4" stroke-linejoin="round" stroke-miterlimit="10" fill="none" fill-rule="evenodd"/><path d="M497 520 497 577" stroke="#1860AB" stroke-width="4" stroke-linejoin="round" stroke-miterlimit="10" fill="none" fill-rule="evenodd"/><path d="M437 578 497 578" stroke="#CC0000" stroke-width="4" stroke-linejoin="round" stroke-miterlimit="10" fill="none" fill-rule="evenodd"/><rect x="84.5001" y="161.5" width="190" height="209" stroke="#000000" stroke-miterlimit="8" fill="#FFFFFF"/><path d="M116.5 161.5 116.5 370.5" stroke="#000000" stroke-linejoin="round" stroke-miterlimit="10" fill="none" fill-rule="evenodd"/><path d="M148.5 161.5 148.5 370.5" stroke="#000000" stroke-linejoin="round" stroke-miterlimit="10" fill="none" fill-rule="evenodd"/><path d="M179.5 161.5 179.5 370.5" stroke="#000000" stroke-linejoin="round" stroke-miterlimit="10" fill="none" fill-rule="evenodd"/><path d="M211.5 161.5 211.5 370.5" stroke="#000000" stroke-linejoin="round" stroke-miterlimit="10" fill="none" fill-rule="evenodd"/><path d="M243.5 161.5 243.5 370.5" stroke="#000000" stroke-linejoin="round" stroke-miterlimit="10" fill="none" fill-rule="evenodd"/><path d="M0 0 190 0.000104987" stroke="#000000" stroke-linejoin="round" stroke-miterlimit="10" fill="none" fill-rule="evenodd" transform="matrix(-1 0 0 1 274.5 190.5)"/><path d="M0 0 190 0.000104987" stroke="#000000" stroke-linejoin="round" stroke-miterlimit="10" fill="none" fill-rule="evenodd" transform="matrix(-1 0 0 1 274.5 220.5)"/><path d="M0 0 190 0.000104987" stroke="#000000" stroke-linejoin="round" stroke-miterlimit="10" fill="none" fill-rule="evenodd" transform="matrix(-1 0 0 1 274.5 250.5)"/><path d="M0 0 190 0.000104987" stroke="#000000" stroke-linejoin="round" stroke-miterlimit="10" fill="none" fill-rule="evenodd" transform="matrix(-1 0 0 1 274.5 280.5)"/><path d="M0 0 190 0.000104987" stroke="#000000" stroke-linejoin="round" stroke-miterlimit="10" fill="none" fill-rule="evenodd" transform="matrix(-1 0 0 1 274.5 310.5)"/><path d="M0 0 190 0.000104987" stroke="#000000" stroke-linejoin="round" stroke-miterlimit="10" fill="none" fill-rule="evenodd" transform="matrix(-1 0 0 1 274.5 340.5)"/><path d="M207.5 162.5C207.5 160.291 209.515 158.5 212 158.5 214.485 158.5 216.5 160.291 216.5 162.5 216.5 164.709 214.485 166.5 212 166.5 209.515 166.5 207.5 164.709 207.5 162.5Z" stroke="#000000" stroke-width="3" stroke-linejoin="round" stroke-miterlimit="10" fill="#FFCC99" fill-rule="evenodd"/><path d="M81 190.5C81 188.015 83.0147 186 85.5 186 87.9853 186 90 188.015 90 190.5 90 192.985 87.9853 195 85.5 195 83.0147 195 81 192.985 81 190.5Z" stroke="#000000" stroke-width="2" stroke-linejoin="round" stroke-miterlimit="10" fill-rule="evenodd"/><path d="M112 220.5C112 218.015 114.015 216 116.5 216 118.985 216 121 218.015 121 220.5 121 222.985 118.985 225 116.5 225 114.015 225 112 222.985 112 220.5Z" stroke="#000000" stroke-width="2" stroke-linejoin="round" stroke-miterlimit="10" fill-rule="evenodd"/><path d="M239 249.5C239 247.567 240.567 246 242.5 246 244.433 246 246 247.567 246 249.5 246 251.433 244.433 253 242.5 253 240.567 253 239 251.433 239 249.5Z" stroke="#000000" stroke-width="2" stroke-linejoin="round" stroke-miterlimit="10" fill="#FFFFFF" fill-rule="evenodd"/><path d="M271 309.5C271 307.567 272.567 306 274.5 306 276.433 306 278 307.567 278 309.5 278 311.433 276.433 313 274.5 313 272.567 313 271 311.433 271 309.5Z" stroke="#000000" stroke-width="2" stroke-linejoin="round" stroke-miterlimit="10" fill="#FFFFFF" fill-rule="evenodd"/><path d="M175 309.5C175 307.567 176.791 306 179 306 181.209 306 183 307.567 183 309.5 183 311.433 181.209 313 179 313 176.791 313 175 311.433 175 309.5Z" stroke="#000000" stroke-width="2" stroke-linejoin="round" stroke-miterlimit="10" fill="#FFFFFF" fill-rule="evenodd"/><path d="M112 369.5C112 367.567 113.567 366 115.5 366 117.433 366 119 367.567 119 369.5 119 371.433 117.433 373 115.5 373 113.567 373 112 371.433 112 369.5Z" stroke="#000000" stroke-width="2" stroke-linejoin="round" stroke-miterlimit="10" fill="#FFFFFF" fill-rule="evenodd"/><text font-family="Arial,Arial_MSFontService,sans-serif" font-weight="400" font-size="20" transform="translate(90.8302 184)">1</text><text font-family="Arial,Arial_MSFontService,sans-serif" font-weight="400" font-size="20" transform="translate(122.33 240)">2</text><text font-family="Arial,Arial_MSFontService,sans-serif" font-weight="400" font-size="20" transform="translate(217.33 182)">3</text><path d="M88 190 116 190" stroke="#CC0000" stroke-width="4" stroke-linejoin="round" stroke-miterlimit="10" fill="none" fill-rule="evenodd"/><path d="M0 0 0.000104987 26" stroke="#CC0000" stroke-width="4" stroke-linejoin="round" stroke-miterlimit="10" fill="none" fill-rule="evenodd" transform="matrix(1 0 0 -1 116 216)"/><path d="M84 193 84.0001 220" stroke="#CC0000" stroke-width="4" stroke-linejoin="round" stroke-miterlimit="10" fill="none" fill-rule="evenodd"/><path d="M0 0 28 0.000104987" stroke="#CC0000" stroke-width="4" stroke-linejoin="round" stroke-miterlimit="10" fill="none" fill-rule="evenodd" transform="matrix(-1 0 0 1 112 220)"/><rect x="596.5" y="162.5" width="190" height="209" stroke="#000000" stroke-miterlimit="8" fill="#FFFFFF"/><path d="M628.5 162.5 628.5 371.5" stroke="#000000" stroke-linejoin="round" stroke-miterlimit="10" fill="none" fill-rule="evenodd"/><path d="M660.5 162.5 660.5 371.5" stroke="#000000" stroke-linejoin="round" stroke-miterlimit="10" fill="none" fill-rule="evenodd"/><path d="M691.5 162.5 691.5 371.5" stroke="#000000" stroke-linejoin="round" stroke-miterlimit="10" fill="none" fill-rule="evenodd"/><path d="M723.5 162.5 723.5 371.5" stroke="#000000" stroke-linejoin="round" stroke-miterlimit="10" fill="none" fill-rule="evenodd"/><path d="M755.5 162.5 755.5 371.5" stroke="#000000" stroke-linejoin="round" stroke-miterlimit="10" fill="none" fill-rule="evenodd"/><path d="M0 0 190 0.000104987" stroke="#000000" stroke-linejoin="round" stroke-miterlimit="10" fill="none" fill-rule="evenodd" transform="matrix(-1 0 0 1 786.5 191.5)"/><path d="M0 0 190 0.000104987" stroke="#000000" stroke-linejoin="round" stroke-miterlimit="10" fill="none" fill-rule="evenodd" transform="matrix(-1 0 0 1 786.5 221.5)"/><path d="M0 0 190 0.000104987" stroke="#000000" stroke-linejoin="round" stroke-miterlimit="10" fill="none" fill-rule="evenodd" transform="matrix(-1 0 0 1 786.5 251.5)"/><path d="M0 0 190 0.000104987" stroke="#000000" stroke-linejoin="round" stroke-miterlimit="10" fill="none" fill-rule="evenodd" transform="matrix(-1 0 0 1 786.5 281.5)"/><path d="M0 0 190 0.000104987" stroke="#000000" stroke-linejoin="round" stroke-miterlimit="10" fill="none" fill-rule="evenodd" transform="matrix(-1 0 0 1 786.5 311.5)"/><path d="M0 0 190 0.000104987" stroke="#000000" stroke-linejoin="round" stroke-miterlimit="10" fill="none" fill-rule="evenodd" transform="matrix(-1 0 0 1 786.5 341.5)"/><path d="M719 163.5C719 161.015 721.015 159 723.5 159 725.985 159 728 161.015 728 163.5 728 165.985 725.985 168 723.5 168 721.015 168 719 165.985 719 163.5Z" stroke="#000000" stroke-width="2" stroke-linejoin="round" stroke-miterlimit="10" fill-rule="evenodd"/><path d="M593 191.5C593 189.015 595.015 187 597.5 187 599.985 187 602 189.015 602 191.5 602 193.985 599.985 196 597.5 196 595.015 196 593 193.985 593 191.5Z" stroke="#000000" stroke-width="2" stroke-linejoin="round" stroke-miterlimit="10" fill-rule="evenodd"/><path d="M624 221.5C624 219.015 626.015 217 628.5 217 630.985 217 633 219.015 633 221.5 633 223.985 630.985 226 628.5 226 626.015 226 624 223.985 624 221.5Z" stroke="#000000" stroke-width="2" stroke-linejoin="round" stroke-miterlimit="10" fill-rule="evenodd"/><path d="M751 251.5C751 249.015 753.015 247 755.5 247 757.985 247 760 249.015 760 251.5 760 253.985 757.985 256 755.5 256 753.015 256 751 253.985 751 251.5Z" stroke="#000000" stroke-width="2" stroke-linejoin="round" stroke-miterlimit="10" fill-rule="evenodd"/><path d="M687 310.5C687 308.567 688.791 307 691 307 693.209 307 695 308.567 695 310.5 695 312.433 693.209 314 691 314 688.791 314 687 312.433 687 310.5Z" stroke="#000000" stroke-width="2" stroke-linejoin="round" stroke-miterlimit="10" fill="#FFFFFF" fill-rule="evenodd"/><path d="M624 370.5C624 368.567 625.791 367 628 367 630.209 367 632 368.567 632 370.5 632 372.433 630.209 374 628 374 625.791 374 624 372.433 624 370.5Z" stroke="#000000" stroke-width="2" stroke-linejoin="round" stroke-miterlimit="10" fill="#FFFFFF" fill-rule="evenodd"/><text font-family="Arial,Arial_MSFontService,sans-serif" font-weight="400" font-size="20" transform="translate(602.83 186)">1</text><text font-family="Arial,Arial_MSFontService,sans-serif" font-weight="400" font-size="20" transform="translate(634.164 241)">2</text><text font-family="Arial,Arial_MSFontService,sans-serif" font-weight="400" font-size="20" transform="translate(729.33 183)">3</text><text font-family="Arial,Arial_MSFontService,sans-serif" font-weight="400" font-size="20" transform="translate(761.164 271)">4</text><text font-family="Arial,Arial_MSFontService,sans-serif" font-weight="400" font-size="20" transform="translate(772.664 331)">5</text><path d="M0 0 0.000104987 26" stroke="#000000" stroke-width="4" stroke-linejoin="round" stroke-miterlimit="10" fill="none" fill-rule="evenodd" transform="matrix(1 0 0 -1 628 217)"/><path d="M723 166 723 191" stroke="#1860AB" stroke-width="4" stroke-linejoin="round" stroke-miterlimit="10" fill="none" fill-rule="evenodd"/><path d="M755 191 755 247" stroke="#CC0000" stroke-width="4" stroke-linejoin="round" stroke-miterlimit="10" fill="none" fill-rule="evenodd"/><path d="M0 0 28 0.000104987" stroke="#CC0000" stroke-width="4" stroke-linejoin="round" stroke-miterlimit="10" fill="none" fill-rule="evenodd" transform="matrix(-1 0 0 1 751 250)"/><path d="M723 191 723 250" stroke="#CC0000" stroke-width="4" stroke-linejoin="round" stroke-miterlimit="10" fill="none" fill-rule="evenodd"/><rect x="596.5" y="429.5" width="190" height="209" stroke="#000000" stroke-miterlimit="8" fill="#FFFFFF"/><path d="M628.5 429.5 628.5 638.5" stroke="#000000" stroke-linejoin="round" stroke-miterlimit="10" fill="none" fill-rule="evenodd"/><path d="M660.5 429.5 660.5 638.5" stroke="#000000" stroke-linejoin="round" stroke-miterlimit="10" fill="none" fill-rule="evenodd"/><path d="M691.5 429.5 691.5 638.5" stroke="#000000" stroke-linejoin="round" stroke-miterlimit="10" fill="none" fill-rule="evenodd"/><path d="M723.5 429.5 723.5 638.5" stroke="#000000" stroke-linejoin="round" stroke-miterlimit="10" fill="none" fill-rule="evenodd"/><path d="M755.5 429.5 755.5 638.5" stroke="#000000" stroke-linejoin="round" stroke-miterlimit="10" fill="none" fill-rule="evenodd"/><path d="M0 0 190 0.000104987" stroke="#000000" stroke-linejoin="round" stroke-miterlimit="10" fill="none" fill-rule="evenodd" transform="matrix(-1 0 0 1 786.5 458.5)"/><path d="M0 0 190 0.000104987" stroke="#000000" stroke-linejoin="round" stroke-miterlimit="10" fill="none" fill-rule="evenodd" transform="matrix(-1 0 0 1 786.5 488.5)"/><path d="M0 0 190 0.000104987" stroke="#000000" stroke-linejoin="round" stroke-miterlimit="10" fill="none" fill-rule="evenodd" transform="matrix(-1 0 0 1 786.5 518.5)"/><path d="M0 0 190 0.000104987" stroke="#000000" stroke-linejoin="round" stroke-miterlimit="10" fill="none" fill-rule="evenodd" transform="matrix(-1 0 0 1 786.5 548.5)"/><path d="M0 0 190 0.000104987" stroke="#000000" stroke-linejoin="round" stroke-miterlimit="10" fill="none" fill-rule="evenodd" transform="matrix(-1 0 0 1 786.5 578.5)"/><path d="M0 0 190 0.000104987" stroke="#000000" stroke-linejoin="round" stroke-miterlimit="10" fill="none" fill-rule="evenodd" transform="matrix(-1 0 0 1 786.5 608.5)"/><path d="M719 430.5C719 428.015 721.015 426 723.5 426 725.985 426 728 428.015 728 430.5 728 432.985 725.985 435 723.5 435 721.015 435 719 432.985 719 430.5Z" stroke="#000000" stroke-width="2" stroke-linejoin="round" stroke-miterlimit="10" fill-rule="evenodd"/><path d="M593 458.5C593 456.015 595.015 454 597.5 454 599.985 454 602 456.015 602 458.5 602 460.985 599.985 463 597.5 463 595.015 463 593 460.985 593 458.5Z" stroke="#000000" stroke-width="2" stroke-linejoin="round" stroke-miterlimit="10" fill-rule="evenodd"/><path d="M624 488.5C624 486.015 626.015 484 628.5 484 630.985 484 633 486.015 633 488.5 633 490.985 630.985 493 628.5 493 626.015 493 624 490.985 624 488.5Z" stroke="#000000" stroke-width="2" stroke-linejoin="round" stroke-miterlimit="10" fill-rule="evenodd"/><path d="M751 518.5C751 516.015 753.015 514 755.5 514 757.985 514 760 516.015 760 518.5 760 520.985 757.985 523 755.5 523 753.015 523 751 520.985 751 518.5Z" stroke="#000000" stroke-width="2" stroke-linejoin="round" stroke-miterlimit="10" fill-rule="evenodd"/><path d="M783 578.5C783 576.015 785.015 574 787.5 574 789.985 574 792 576.015 792 578.5 792 580.985 789.985 583 787.5 583 785.015 583 783 580.985 783 578.5Z" stroke="#000000" stroke-width="2" stroke-linejoin="round" stroke-miterlimit="10" fill-rule="evenodd"/><path d="M624 638.5C624 636.015 626.015 634 628.5 634 630.985 634 633 636.015 633 638.5 633 640.985 630.985 643 628.5 643 626.015 643 624 640.985 624 638.5Z" stroke="#000000" stroke-width="2" stroke-linejoin="round" stroke-miterlimit="10" fill-rule="evenodd"/><text font-family="Arial,Arial_MSFontService,sans-serif" font-weight="400" font-size="20" transform="translate(602.83 451)">1</text><text font-family="Arial,Arial_MSFontService,sans-serif" font-weight="400" font-size="20" transform="translate(634.164 508)">2</text><text font-family="Arial,Arial_MSFontService,sans-serif" font-weight="400" font-size="20" transform="translate(729.164 450)">3</text><text font-family="Arial,Arial_MSFontService,sans-serif" font-weight="400" font-size="20" transform="translate(761.164 538)">4</text><text font-family="Arial,Arial_MSFontService,sans-serif" font-weight="400" font-size="20" transform="translate(771.497 599)">5</text><text font-family="Arial,Arial_MSFontService,sans-serif" font-weight="400" font-size="20" transform="translate(697.497 599)">6</text><text font-family="Arial,Arial_MSFontService,sans-serif" font-weight="400" font-size="20" transform="translate(634.164 636)">7</text><path d="M600 458 755 458" stroke="#000000" stroke-width="4" stroke-linejoin="round" stroke-miterlimit="10" fill="none" fill-rule="evenodd"/><path d="M0 0 0.000104987 26" stroke="#000000" stroke-width="4" stroke-linejoin="round" stroke-miterlimit="10" fill="none" fill-rule="evenodd" transform="matrix(1 0 0 -1 628 484)"/><path d="M723 433 723 458" stroke="#000000" stroke-width="4" stroke-linejoin="round" stroke-miterlimit="10" fill="none" fill-rule="evenodd"/><path d="M755 458 755 514" stroke="#000000" stroke-width="4" stroke-linejoin="round" stroke-miterlimit="10" fill="none" fill-rule="evenodd"/><path d="M755 521 755 578" stroke="#000000" stroke-width="4" stroke-linejoin="round" stroke-miterlimit="10" fill="none" fill-rule="evenodd"/><path d="M0 0 60 0.000104987" stroke="#1860AB" stroke-width="4" stroke-linejoin="round" stroke-miterlimit="10" fill="none" fill-rule="evenodd" transform="matrix(1 0 0 -1 695 578)"/><path d="M0 0 59 0.000104987" stroke="#CC0000" stroke-width="4" stroke-linejoin="round" stroke-miterlimit="10" fill="none" fill-rule="evenodd" transform="matrix(-1 0 0 1 687 578)"/><path d="M628 578 628 634" stroke="#CC0000" stroke-width="4" stroke-linejoin="round" stroke-miterlimit="10" fill="none" fill-rule="evenodd"/><rect x="339.5" y="161.5" width="190" height="209" stroke="#000000" stroke-miterlimit="8" fill="#FFFFFF"/><path d="M371.5 161.5 371.5 370.5" stroke="#000000" stroke-linejoin="round" stroke-miterlimit="10" fill="none" fill-rule="evenodd"/><path d="M402.5 161.5 402.5 370.5" stroke="#000000" stroke-linejoin="round" stroke-miterlimit="10" fill="none" fill-rule="evenodd"/><path d="M434.5 161.5 434.5 370.5" stroke="#000000" stroke-linejoin="round" stroke-miterlimit="10" fill="none" fill-rule="evenodd"/><path d="M466.5 161.5 466.5 370.5" stroke="#000000" stroke-linejoin="round" stroke-miterlimit="10" fill="none" fill-rule="evenodd"/><path d="M497.5 161.5 497.5 370.5" stroke="#000000" stroke-linejoin="round" stroke-miterlimit="10" fill="none" fill-rule="evenodd"/><path d="M0 0 190 0.000104987" stroke="#000000" stroke-linejoin="round" stroke-miterlimit="10" fill="none" fill-rule="evenodd" transform="matrix(-1 0 0 1 529.5 190.5)"/><path d="M0 0 190 0.000104987" stroke="#000000" stroke-linejoin="round" stroke-miterlimit="10" fill="none" fill-rule="evenodd" transform="matrix(-1 0 0 1 529.5 220.5)"/><path d="M0 0 190 0.000104987" stroke="#000000" stroke-linejoin="round" stroke-miterlimit="10" fill="none" fill-rule="evenodd" transform="matrix(-1 0 0 1 529.5 250.5)"/><path d="M0 0 190 0.000104987" stroke="#000000" stroke-linejoin="round" stroke-miterlimit="10" fill="none" fill-rule="evenodd" transform="matrix(-1 0 0 1 529.5 280.5)"/><path d="M0 0 190 0.000104987" stroke="#000000" stroke-linejoin="round" stroke-miterlimit="10" fill="none" fill-rule="evenodd" transform="matrix(-1 0 0 1 529.5 310.5)"/><path d="M0 0 190 0.000104987" stroke="#000000" stroke-linejoin="round" stroke-miterlimit="10" fill="none" fill-rule="evenodd" transform="matrix(-1 0 0 1 529.5 340.5)"/><path d="M462 162C462 159.791 464.015 158 466.5 158 468.985 158 471 159.791 471 162 471 164.209 468.985 166 466.5 166 464.015 166 462 164.209 462 162Z" stroke="#000000" stroke-width="2" stroke-linejoin="round" stroke-miterlimit="10" fill-rule="evenodd"/><path d="M335 190.5C335 188.015 337.239 186 340 186 342.761 186 345 188.015 345 190.5 345 192.985 342.761 195 340 195 337.239 195 335 192.985 335 190.5Z" stroke="#000000" stroke-width="2" stroke-linejoin="round" stroke-miterlimit="10" fill-rule="evenodd"/><path d="M367 220.5C367 218.015 369.015 216 371.5 216 373.985 216 376 218.015 376 220.5 376 222.985 373.985 225 371.5 225 369.015 225 367 222.985 367 220.5Z" stroke="#000000" stroke-width="2" stroke-linejoin="round" stroke-miterlimit="10" fill-rule="evenodd"/><path d="M526 309.5C526 307.567 527.567 306 529.5 306 531.433 306 533 307.567 533 309.5 533 311.433 531.433 313 529.5 313 527.567 313 526 311.433 526 309.5Z" stroke="#000000" stroke-width="2" stroke-linejoin="round" stroke-miterlimit="10" fill="#FFFFFF" fill-rule="evenodd"/><path d="M430 309.5C430 307.567 431.567 306 433.5 306 435.433 306 437 307.567 437 309.5 437 311.433 435.433 313 433.5 313 431.567 313 430 311.433 430 309.5Z" stroke="#000000" stroke-width="2" stroke-linejoin="round" stroke-miterlimit="10" fill="#FFFFFF" fill-rule="evenodd"/><path d="M367 369.5C367 367.567 368.567 366 370.5 366 372.433 366 374 367.567 374 369.5 374 371.433 372.433 373 370.5 373 368.567 373 367 371.433 367 369.5Z" stroke="#000000" stroke-width="2" stroke-linejoin="round" stroke-miterlimit="10" fill="#FFFFFF" fill-rule="evenodd"/><text font-family="Arial,Arial_MSFontService,sans-serif" font-weight="400" font-size="20" transform="translate(345.497 184)">1</text><text font-family="Arial,Arial_MSFontService,sans-serif" font-weight="400" font-size="20" transform="translate(376.997 240)">2</text><text font-family="Arial,Arial_MSFontService,sans-serif" font-weight="400" font-size="20" transform="translate(471.997 182)">3</text><text font-family="Arial,Arial_MSFontService,sans-serif" font-weight="400" font-size="20" transform="translate(503.83 270)">4</text><path d="M371 190 466 190" stroke="#CC0000" stroke-width="4" stroke-linejoin="round" stroke-miterlimit="10" fill="none" fill-rule="evenodd"/><path d="M0 0 0.000104987 26" stroke="#1860AB" stroke-width="4" stroke-linejoin="round" stroke-miterlimit="10" fill="none" fill-rule="evenodd" transform="matrix(1 0 0 -1 371 216)"/><path d="M466 165 466 190" stroke="#CC0000" stroke-width="4" stroke-linejoin="round" stroke-miterlimit="10" fill="none" fill-rule="evenodd"/><path d="M0 0 92 0.000104987" stroke="#CC0000" stroke-width="4" stroke-linejoin="round" stroke-miterlimit="10" fill="none" fill-rule="evenodd" transform="matrix(-1 0 0 1 463 161)"/><path d="M371 161 371 193" stroke="#CC0000" stroke-width="4" stroke-linejoin="round" stroke-miterlimit="10" fill="none" fill-rule="evenodd"/><rect x="84.5001" y="429.5" width="190" height="208" stroke="#000000" stroke-miterlimit="8" fill="#FFFFFF"/><path d="M115.5 429.5 115.5 637.5" stroke="#000000" stroke-linejoin="round" stroke-miterlimit="10" fill="none" fill-rule="evenodd"/><path d="M147.5 429.5 147.5 637.5" stroke="#000000" stroke-linejoin="round" stroke-miterlimit="10" fill="none" fill-rule="evenodd"/><path d="M179.5 429.5 179.5 637.5" stroke="#000000" stroke-linejoin="round" stroke-miterlimit="10" fill="none" fill-rule="evenodd"/><path d="M211.5 429.5 211.5 637.5" stroke="#000000" stroke-linejoin="round" stroke-miterlimit="10" fill="none" fill-rule="evenodd"/><path d="M242.5 429.5 242.5 637.5" stroke="#000000" stroke-linejoin="round" stroke-miterlimit="10" fill="none" fill-rule="evenodd"/><path d="M0 0 190 0.000104987" stroke="#000000" stroke-linejoin="round" stroke-miterlimit="10" fill="none" fill-rule="evenodd" transform="matrix(-1 0 0 1 274.5 457.5)"/><path d="M0 0 190 0.000104987" stroke="#000000" stroke-linejoin="round" stroke-miterlimit="10" fill="none" fill-rule="evenodd" transform="matrix(-1 0 0 1 274.5 487.5)"/><path d="M0 0 190 0.000104987" stroke="#000000" stroke-linejoin="round" stroke-miterlimit="10" fill="none" fill-rule="evenodd" transform="matrix(-1 0 0 1 274.5 517.5)"/><path d="M0 0 190 0.000104987" stroke="#000000" stroke-linejoin="round" stroke-miterlimit="10" fill="none" fill-rule="evenodd" transform="matrix(-1 0 0 1 274.5 547.5)"/><path d="M0 0 190 0.000104987" stroke="#000000" stroke-linejoin="round" stroke-miterlimit="10" fill="none" fill-rule="evenodd" transform="matrix(-1 0 0 1 274.5 577.5)"/><path d="M0 0 190 0.000104987" stroke="#000000" stroke-linejoin="round" stroke-miterlimit="10" fill="none" fill-rule="evenodd" transform="matrix(-1 0 0 1 274.5 607.5)"/><path d="M207 429.5C207 427.015 209.015 425 211.5 425 213.985 425 216 427.015 216 429.5 216 431.985 213.985 434 211.5 434 209.015 434 207 431.985 207 429.5Z" stroke="#000000" stroke-width="2" stroke-linejoin="round" stroke-miterlimit="10" fill-rule="evenodd"/><path d="M81 458C81 455.791 83.0147 454 85.5 454 87.9853 454 90 455.791 90 458 90 460.209 87.9853 462 85.5 462 83.0147 462 81 460.209 81 458Z" stroke="#000000" stroke-width="2" stroke-linejoin="round" stroke-miterlimit="10" fill-rule="evenodd"/><path d="M112 488C112 485.791 114.015 484 116.5 484 118.985 484 121 485.791 121 488 121 490.209 118.985 492 116.5 492 114.015 492 112 490.209 112 488Z" stroke="#000000" stroke-width="2" stroke-linejoin="round" stroke-miterlimit="10" fill-rule="evenodd"/><path d="M271 577.5C271 575.015 273.015 573 275.5 573 277.985 573 280 575.015 280 577.5 280 579.985 277.985 582 275.5 582 273.015 582 271 579.985 271 577.5Z" stroke="#000000" stroke-width="2" stroke-linejoin="round" stroke-miterlimit="10" fill-rule="evenodd"/><path d="M112 637C112 635.343 113.567 634 115.5 634 117.433 634 119 635.343 119 637 119 638.657 117.433 640 115.5 640 113.567 640 112 638.657 112 637Z" stroke="#000000" stroke-width="2" stroke-linejoin="round" stroke-miterlimit="10" fill="#FFFFFF" fill-rule="evenodd"/><text font-family="Arial,Arial_MSFontService,sans-serif" font-weight="400" font-size="20" transform="translate(90.6636 452)">1</text><text font-family="Arial,Arial_MSFontService,sans-serif" font-weight="400" font-size="20" transform="translate(121.997 508)">2</text><text font-family="Arial,Arial_MSFontService,sans-serif" font-weight="400" font-size="20" transform="translate(216.997 449)">3</text><text font-family="Arial,Arial_MSFontService,sans-serif" font-weight="400" font-size="20" transform="translate(248.83 537)">4</text><text font-family="Arial,Arial_MSFontService,sans-serif" font-weight="400" font-size="20" transform="translate(259.33 598)">5</text><text font-family="Arial,Arial_MSFontService,sans-serif" font-weight="400" font-size="20" transform="translate(185.33 598)">6</text><path d="M0 0 0.000104987 27" stroke="#000000" stroke-width="4" stroke-linejoin="round" stroke-miterlimit="10" fill="none" fill-rule="evenodd" transform="matrix(1 0 0 -1 115 484)"/><path d="M242 457 242 513" stroke="#1860AB" stroke-width="4" stroke-linejoin="round" stroke-miterlimit="10" fill="none" fill-rule="evenodd"/><path d="M242 520 242 577" stroke="#CC0000" stroke-width="4" stroke-linejoin="round" stroke-miterlimit="10" fill="none" fill-rule="evenodd"/><path d="M242 577 271 577" stroke="#CC0000" stroke-width="4" stroke-linejoin="round" stroke-miterlimit="10" fill="none" fill-rule="evenodd"/><path d="M246 517 274 517" stroke="#CC0000" stroke-width="4" stroke-linejoin="round" stroke-miterlimit="10" fill="none" fill-rule="evenodd"/><path d="M275 573 274 517" stroke="#CC0000" stroke-width="4" stroke-linejoin="round" stroke-miterlimit="10" fill="none" fill-rule="evenodd"/><text fill="#969696" font-family="Arial,Arial_MSFontService,sans-serif" font-weight="400" font-size="63" transform="translate(159.33 286)">1</text><text fill="#969696" font-family="Arial,Arial_MSFontService,sans-serif" font-weight="400" font-size="63" transform="translate(413.83 286)">2</text><text fill="#969696" font-family="Arial,Arial_MSFontService,sans-serif" font-weight="400" font-size="63" transform="translate(668.164 287)">3</text><text fill="#969696" font-family="Arial,Arial_MSFontService,sans-serif" font-weight="400" font-size="63" transform="translate(158.664 555)">4</text><text fill="#969696" font-family="Arial,Arial_MSFontService,sans-serif" font-weight="400" font-size="63" transform="translate(412.33 553)">5</text><text fill="#969696" font-family="Arial,Arial_MSFontService,sans-serif" font-weight="400" font-size="63" transform="translate(669.83 553)">6</text><path d="M493.5 249.5C493.5 247.291 495.515 245.5 498 245.5 500.485 245.5 502.5 247.291 502.5 249.5 502.5 251.709 500.485 253.5 498 253.5 495.515 253.5 493.5 251.709 493.5 249.5Z" stroke="#000000" stroke-width="3" stroke-linejoin="round" stroke-miterlimit="10" fill="#FFCC99" fill-rule="evenodd"/><path d="M783.5 311.5C783.5 309.291 785.291 307.5 787.5 307.5 789.709 307.5 791.5 309.291 791.5 311.5 791.5 313.709 789.709 315.5 787.5 315.5 785.291 315.5 783.5 313.709 783.5 311.5Z" stroke="#000000" stroke-width="3" stroke-linejoin="round" stroke-miterlimit="10" fill="#FFCC99" fill-rule="evenodd"/><path d="M367.5 637.5C367.5 635.291 369.515 633.5 372 633.5 374.485 633.5 376.5 635.291 376.5 637.5 376.5 639.709 374.485 641.5 372 641.5 369.515 641.5 367.5 639.709 367.5 637.5Z" stroke="#000000" stroke-width="3" stroke-linejoin="round" stroke-miterlimit="10" fill="#FFCC99" fill-rule="evenodd"/><path d="M175.5 578.5C175.5 576.291 177.515 574.5 180 574.5 182.485 574.5 184.5 576.291 184.5 578.5 184.5 580.709 182.485 582.5 180 582.5 177.515 582.5 175.5 580.709 175.5 578.5Z" stroke="#000000" stroke-width="3" stroke-linejoin="round" stroke-miterlimit="10" fill="#FFCC99" fill-rule="evenodd"/><path d="M339 191 371 191" stroke="#1860AB" stroke-width="4" stroke-linejoin="round" stroke-miterlimit="10" fill="none" fill-rule="evenodd"/><path d="M723 191 755 191" stroke="#CC0000" stroke-width="4" stroke-linejoin="round" stroke-miterlimit="10" fill="none" fill-rule="evenodd"/><path d="M526 578 497 578" stroke="#1860AB" stroke-width="4" stroke-linejoin="round" stroke-miterlimit="10" fill="none" fill-rule="evenodd"/><path d="M602 191 628 191" stroke="#000000" stroke-width="4" stroke-linejoin="round" stroke-miterlimit="10" fill="none" fill-rule="evenodd"/><path d="M628 191 723 191" stroke="#1860AB" stroke-width="4" stroke-linejoin="round" stroke-miterlimit="10" fill="none" fill-rule="evenodd"/><path d="M207 457 242 457" stroke="#1860AB" stroke-width="4" stroke-linejoin="round" stroke-miterlimit="10" fill="none" fill-rule="evenodd"/><path d="M239 517.5C239 515.015 241.015 513 243.5 513 245.985 513 248 515.015 248 517.5 248 519.985 245.985 522 243.5 522 241.015 522 239 519.985 239 517.5Z" stroke="#000000" stroke-width="2" stroke-linejoin="round" stroke-miterlimit="10" fill-rule="evenodd"/><path d="M755 578 783 578" stroke="#000000" stroke-width="4" stroke-linejoin="round" stroke-miterlimit="10" fill="none" fill-rule="evenodd"/><path d="M211 432 211 457" stroke="#000000" stroke-width="4" stroke-linejoin="round" stroke-miterlimit="10" fill="none" fill-rule="evenodd"/><path d="M88 457 207 457" stroke="#000000" stroke-width="4" stroke-linejoin="round" stroke-miterlimit="10" fill="none" fill-rule="evenodd"/><path d="M430 578C430 575.791 432.015 574 434.5 574 436.985 574 439 575.791 439 578 439 580.209 436.985 582 434.5 582 432.015 582 430 580.209 430 578Z" stroke="#000000" stroke-width="2" stroke-linejoin="round" stroke-miterlimit="10" fill-rule="evenodd"/><path d="M0 0 60 0.000104987" stroke="#CC0000" stroke-width="4" stroke-linejoin="round" stroke-miterlimit="10" fill="none" fill-rule="evenodd" transform="matrix(-1 0 0 1 694 639)"/><path d="M692 579 692 635" stroke="#CC0000" stroke-width="4" stroke-linejoin="round" stroke-miterlimit="10" fill="none" fill-rule="evenodd"/><path d="M687 579C687 576.791 689.015 575 691.5 575 693.985 575 696 576.791 696 579 696 581.209 693.985 583 691.5 583 689.015 583 687 581.209 687 579Z" stroke="#000000" stroke-width="2" stroke-linejoin="round" stroke-miterlimit="10" fill-rule="evenodd"/><rect x="13" y="214" width="67" height="36" fill="#EDD1D1"/><text font-family="Arial,Arial_MSFontService,sans-serif" font-weight="400" font-size="23" transform="translate(21.8788 240)">MBB</text><rect x="197" y="113" width="38" height="37" fill="#EDD1D1"/><text font-family="Arial,Arial_MSFontService,sans-serif" font-style="italic" font-weight="400" font-size="23" transform="translate(205.583 140)">p</text><text font-family="Arial,Arial_MSFontService,sans-serif" font-style="italic" font-weight="400" font-size="15" transform="translate(218.25 145)">c</text><path d="M356.895 145.361 368.865 180.84 365.075 182.119 353.105 146.639ZM372.016 177.666 370.167 190.955 360.645 181.502Z"/><rect x="324" y="110" width="63" height="36" fill="#EDD1D1"/><text font-family="Arial,Arial_MSFontService,sans-serif" font-style="italic" font-weight="400" font-size="23" transform="translate(332.667 136)">p</text><text font-family="Arial,Arial_MSFontService,sans-serif" font-style="italic" font-weight="400" font-size="15" transform="translate(345.333 141)">MBB</text></g></svg>