<svg width="590" height="434" xmlns="http://www.w3.org/2000/svg" xmlns:xlink="http://www.w3.org/1999/xlink" overflow="hidden"><defs><clipPath id="clip0"><path d="M175.5 247.5 175.5 563.5 666.5 563.5 666.5 247.5ZM90 194 680 194 680 628 90 628Z" fill-rule="evenodd" clip-rule="evenodd"/></clipPath></defs><g transform="translate(-90 -194)"><rect x="187" y="579" width="227" height="43" fill="#CCCCFF"/><text font-family="Arial,Arial_MSFontService,sans-serif" font-weight="400" font-size="23" transform="translate(205.95 609)">Hamiltonian path</text><g clip-path="url(#clip0)"><rect x="178.167" y="250.167" width="491" height="316" fill="#FFFFFF"/><path d="M178.667 250.667 178.667 565.667 668.667 565.667 668.667 250.667ZM177.667 249.667 669.667 249.667 669.667 566.667 177.667 566.667Z" fill="#FFFFFF" fill-rule="evenodd"/></g><rect x="175.5" y="247.5" width="491" height="316" stroke="#969696" stroke-miterlimit="8" fill="#EAEAEA"/><rect x="243.667" y="287.667" width="126" height="84" fill="#FFFFFF"/><rect x="241" y="285" width="126" height="84" fill="#B2B2B2"/><rect x="531.667" y="299.667" width="78" height="49" fill="#FFFFFF"/><rect x="529" y="297" width="78" height="49" fill="#B2B2B2"/><rect x="495.667" y="371.667" width="113" height="55" fill="#FFFFFF"/><rect x="493" y="369" width="113" height="55" fill="#B2B2B2"/><rect x="243.667" y="401.667" width="54" height="108" fill="#FFFFFF"/><rect x="241" y="399" width="54" height="108" fill="#B2B2B2"/><rect x="410.667" y="449.667" width="199" height="60" fill="#FFFFFF"/><rect x="408" y="447" width="199" height="60" fill="#B2B2B2"/><rect x="187.5" y="303.5" width="18" height="18" stroke="#000000" stroke-miterlimit="8" fill="none"/><rect x="187" y="396" width="18" height="18" stroke="#000000" stroke-width="2.33333" stroke-miterlimit="8" fill="#808080"/><rect x="187.5" y="489.5" width="18" height="18" stroke="#000000" stroke-miterlimit="8" fill="none"/><rect x="637.5" y="303.5" width="18" height="18" stroke="#000000" stroke-miterlimit="8" fill="none"/><rect x="637.5" y="396.5" width="18" height="18" stroke="#000000" stroke-miterlimit="8" stroke-dasharray="4 3" fill="#969696"/><rect x="637.5" y="489.5" width="18" height="18" stroke="#000000" stroke-miterlimit="8" fill="none"/><rect x="337.5" y="255.5" width="18" height="18" stroke="#000000" stroke-miterlimit="8" fill="none"/><rect x="430.5" y="255.5" width="18" height="18" stroke="#000000" stroke-miterlimit="8" fill="none"/><rect x="523.5" y="255.5" width="18" height="18" stroke="#000000" stroke-miterlimit="8" fill="none"/><rect x="337.5" y="531.5" width="18" height="18" stroke="#000000" stroke-miterlimit="8" fill="none"/><rect x="430.5" y="531.5" width="18" height="18" stroke="#000000" stroke-miterlimit="8" fill="none"/><rect x="523.5" y="531.5" width="18" height="18" stroke="#000000" stroke-miterlimit="8" fill="none"/><text font-family="Arial,Arial_MSFontService,sans-serif" font-style="italic" font-weight="700" font-size="21" transform="translate(175.6 391)">GND</text><text font-family="Arial,Arial_MSFontService,sans-serif" font-style="italic" font-weight="700" font-size="21" transform="translate(621.933 391)">VDD</text><path d="M427 387 427 447" stroke="#000000" stroke-width="2.33333" stroke-linejoin="round" stroke-miterlimit="10" fill="none" fill-rule="evenodd"/><path d="M288.99 561C292.958 540.897 296.926 520.925 294.942 506.906 292.958 492.886 279.995 486.935 276.952 477.015 273.91 467.096 271 454.002 276.952 446.992 282.905 439.983 292.958 434.957 312.932 434.957 332.906 434.957 375.896 439.057 396.928 446.992 417.96 454.928 421.003 478.999 438.993 482.967 456.982 486.935 490.052 482.967 504.999 470.931 519.946 458.896 521.005 436.015 528.941 411.018 536.878 386.021 551.032 338.936 553.016 320.949 555 302.962 553.942 306.93 540.979 302.962 528.015 298.994 496.004 290 474.972 297.01 453.94 304.02 430.924 334.043 414.918 345.02 398.912 355.998 390.976 363.008 378.939 363.008 366.901 363.008 351.954 354.014 342.959 345.02 333.964 336.027 328.938 321.081 324.969 309.046 321.001 297.01 320.075 282.991 319.017 272.939 317.959 262.887 318.488 255.877 319.017 249" stroke="#1860AB" stroke-width="8" stroke-linejoin="round" stroke-miterlimit="10" stroke-dasharray="8 8" fill="none" fill-rule="evenodd"/><path d="M204 405 228 405 228 297 241 297" stroke="#000000" stroke-width="2.33333" stroke-linejoin="round" stroke-miterlimit="10" fill="none" fill-rule="evenodd"/><path d="M228 405 228 519 265 519 265 506.5" stroke="#000000" stroke-width="2.33333" stroke-linejoin="round" stroke-miterlimit="10" fill="none" fill-rule="evenodd"/><path d="M228 387 493 387" stroke="#000000" stroke-width="2.33333" stroke-linejoin="round" stroke-miterlimit="10" fill="none" fill-rule="evenodd"/><path d="M457 387 457 324 528 324" stroke="#000000" stroke-width="2.33333" stroke-linejoin="round" stroke-miterlimit="10" fill="none" fill-rule="evenodd"/><path d="M0 0 12 0.000104987" stroke="#000000" stroke-width="1.33333" stroke-linejoin="round" stroke-miterlimit="10" stroke-dasharray="5.33333 4" fill="none" fill-rule="evenodd" transform="matrix(-1 0 0 1 618.5 327.5)"/><path d="M636.5 405.5 618.533 405.5 618.533 285.5 402.435 285.5 402.435 327.5 367.5 327.5" stroke="#000000" stroke-width="1.33333" stroke-linejoin="round" stroke-miterlimit="10" stroke-dasharray="5.33333 4" fill="none" fill-rule="evenodd"/><path d="M618.5 408.5 618.5 519.5 354.5 519.5 354.5 460.333 295.5 460.333" stroke="#000000" stroke-width="1.33333" stroke-linejoin="round" stroke-miterlimit="10" stroke-dasharray="5.33333 4" fill="none" fill-rule="evenodd"/><path d="M0 0 11 0.000104987" stroke="#000000" stroke-width="1.33333" stroke-linejoin="round" stroke-miterlimit="10" stroke-dasharray="5.33333 4" fill="none" fill-rule="evenodd" transform="matrix(-1 0 0 1 618.5 477.5)"/><path d="M618.5 438.5 558.5 438.5 558.5 424.5" stroke="#000000" stroke-width="1.33333" stroke-linejoin="round" stroke-miterlimit="10" stroke-dasharray="5.33333 4" fill="none" fill-rule="evenodd"/><rect x="91" y="194" width="227" height="43" fill="#CCCCFF"/><text font-family="Arial,Arial_MSFontService,sans-serif" font-weight="400" font-size="23" transform="translate(109.839 224)">Planar routing</text></g></svg>