<svg width="666" height="334" xmlns="http://www.w3.org/2000/svg" xmlns:xlink="http://www.w3.org/1999/xlink" overflow="hidden"><g transform="translate(-168 -268)"><path d="M677 498.983 677.862 548.984 675.862 549.018 675 499.017ZM676.862 549.001 683.436 543.554 677 557 670.104 543.784Z"/><path d="M813.924 571 832 571 831 572 831 463 832 464 781 464 781 462 832 462C832.552 462 833 462.448 833 463L833 572C833 572.552 832.552 573 832 573L813.924 573ZM781 463 786.333 469.667 773 463 786.333 456.333Z"/><path d="M330 307 330 345 328 345 328 307ZM329 345 335.667 339.667 329 353 322.333 339.667Z"/><path d="M677 395 677 418 675 418 675 395ZM676 418 682.667 412.667 676 426 669.333 412.667Z"/><path d="M0.999918-0.0128195 1.10247 7.98652-0.897362 8.01216-0.999918 0.0128195ZM1.17939 13.986 1.28195 21.9854-0.71789 22.011-0.820445 14.0117ZM1.35886 27.9849 1.46142 35.9842-0.538417 36.0099-0.640973 28.0105ZM1.53833 41.9837 1.64089 49.9831-0.358945 50.0087-0.4615 42.0094ZM1.71781 55.9826 1.82036 63.9819-0.179472 64.0076-0.282028 56.0082ZM1.89728 69.9814 1.89736 69.9878-0.102474 70.0135-0.102556 70.0071ZM0.897444 70.0007 7.49519 64.5823 1 78-5.83704 64.7532Z" transform="matrix(-1 0 0 1 330 479)"/><rect x="169.5" y="269.5" width="308" height="37" stroke="#000000" stroke-width="1.33333" stroke-miterlimit="8" fill="#FFFFFF"/><text font-family="Arial,Arial_MSFontService,sans-serif" font-weight="400" font-size="21" transform="translate(209.417 296)">Global Routing Instance</text><rect x="169" y="357" width="308" height="35" fill="#CCCCFF"/><text font-family="Arial,Arial_MSFontService,sans-serif" font-weight="400" font-size="21" transform="translate(233.25 383)">Net Decomposition</text><rect x="537" y="356" width="283" height="36" fill="#CCCCFF"/><text font-family="Arial,Arial_MSFontService,sans-serif" font-weight="400" font-size="21" transform="translate(613.75 382)">Initial Routing</text><rect x="170" y="446" width="308" height="35" fill="#CCCCFF"/><text font-family="Arial,Arial_MSFontService,sans-serif" font-weight="400" font-size="21" transform="translate(238.923 472)">Layer Assignment</text><rect x="169.5" y="558.5" width="308" height="36" stroke="#000000" stroke-width="1.33333" stroke-miterlimit="8" stroke-dasharray="5.33333 4" fill="#EAEAEA"/><text font-family="Arial,Arial_MSFontService,sans-serif" font-weight="700" font-size="21" transform="translate(222.167 584)">Final Improvements</text><text font-family="Arial,Arial_MSFontService,sans-serif" font-weight="700" font-size="21" transform="translate(511.267 457)">no</text><text font-family="Arial,Arial_MSFontService,sans-serif" font-weight="700" font-size="21" transform="translate(685.767 517)">yes</text><rect x="537" y="558" width="283" height="35" fill="#CCCCFF"/><text font-family="Arial,Arial_MSFontService,sans-serif" font-weight="400" font-size="21" transform="translate(585.75 584)">Rip</text><text font-family="Arial,Arial_MSFontService,sans-serif" font-weight="400" font-size="21" transform="translate(617.583 584)">-</text><text font-family="Arial,Arial_MSFontService,sans-serif" font-weight="400" font-size="21" transform="translate(624.75 584)">up and Reroute</text><path d="M479 375 528 375 528 377 479 377ZM528 376 522.667 369.333 536 376 522.667 382.667Z"/><path d="M578.5 464 676.5 426.5 774.5 464 676.5 501.5Z" stroke="#000000" stroke-miterlimit="8" fill="#EAEAEA" fill-rule="evenodd"/><text font-family="Arial,Arial_MSFontService,sans-serif" font-weight="400" font-size="21" transform="translate(617.267 470)">Violations?</text><path d="M1.03947e-06-1 93-0.999903 93 1.0001-1.03947e-06 1ZM93 9.66711e-05 87.6667-6.66658 101 0.000104987 87.6667 6.66676Z" transform="matrix(-1 0 0 1 579 463)"/><text font-family="Arial,Arial_MSFontService,sans-serif" font-weight="400" font-size="21" transform="translate(224.917 515)">(optional)</text></g></svg>