<svg width="708" height="440" xmlns="http://www.w3.org/2000/svg" xmlns:xlink="http://www.w3.org/1999/xlink" overflow="hidden"><g transform="translate(-63 -213)"><rect x="91.5001" y="293.5" width="240" height="241" stroke="#969696" stroke-miterlimit="8" fill="#EAEAEA"/><rect x="90.5001" y="292.5" width="241" height="242" stroke="#000000" stroke-miterlimit="8" fill="#DDDDDD"/><path d="M90.5001 327.5 331.5 327.5" stroke="#000000" stroke-linejoin="round" stroke-miterlimit="10" fill="none" fill-rule="evenodd"/><path d="M90.5001 361.5 331.5 361.5" stroke="#000000" stroke-linejoin="round" stroke-miterlimit="10" fill="none" fill-rule="evenodd"/><path d="M90.5001 396.5 331.5 396.5" stroke="#000000" stroke-linejoin="round" stroke-miterlimit="10" fill="none" fill-rule="evenodd"/><path d="M90.5001 430.5 331.5 430.5" stroke="#000000" stroke-linejoin="round" stroke-miterlimit="10" fill="none" fill-rule="evenodd"/><path d="M90.5001 465.5 331.5 465.5" stroke="#000000" stroke-linejoin="round" stroke-miterlimit="10" fill="none" fill-rule="evenodd"/><path d="M124.5 292.5 124.5 534.5" stroke="#000000" stroke-linejoin="round" stroke-miterlimit="10" fill="none" fill-rule="evenodd"/><path d="M159.5 292.5 159.5 534.5" stroke="#000000" stroke-linejoin="round" stroke-miterlimit="10" fill="none" fill-rule="evenodd"/><path d="M193.5 292.5 193.5 534.5" stroke="#000000" stroke-linejoin="round" stroke-miterlimit="10" fill="none" fill-rule="evenodd"/><path d="M227.5 292.5 227.5 534.5" stroke="#000000" stroke-linejoin="round" stroke-miterlimit="10" fill="none" fill-rule="evenodd"/><path d="M262.5 292.5 262.5 534.5" stroke="#000000" stroke-linejoin="round" stroke-miterlimit="10" fill="none" fill-rule="evenodd"/><path d="M296.5 292.5 296.5 534.5" stroke="#000000" stroke-linejoin="round" stroke-miterlimit="10" fill="none" fill-rule="evenodd"/><path d="M90.5001 499.5 331.5 499.5" stroke="#000000" stroke-linejoin="round" stroke-miterlimit="10" fill="none" fill-rule="evenodd"/><path d="M226.5 357.5 226.5 429.5" stroke="#CC0000" stroke-width="3.33333" stroke-linejoin="round" stroke-miterlimit="10" fill="none" fill-rule="evenodd"/><path d="M220.5 360.5C220.5 356.634 223.634 353.5 227.5 353.5 231.366 353.5 234.5 356.634 234.5 360.5 234.5 364.366 231.366 367.5 227.5 367.5 223.634 367.5 220.5 364.366 220.5 360.5Z" stroke="#CC0000" stroke-linejoin="round" stroke-miterlimit="10" fill="#CC0000" fill-rule="evenodd"/><path d="M219.5 433C219.5 429.41 222.634 426.5 226.5 426.5 230.366 426.5 233.5 429.41 233.5 433 233.5 436.59 230.366 439.5 226.5 439.5 222.634 439.5 219.5 436.59 219.5 433Z" stroke="#CC0000" stroke-linejoin="round" stroke-miterlimit="10" fill="#CC0000" fill-rule="evenodd"/><path d="M292.5 431C292.5 427.41 295.634 424.5 299.5 424.5 303.366 424.5 306.5 427.41 306.5 431 306.5 434.59 303.366 437.5 299.5 437.5 295.634 437.5 292.5 434.59 292.5 431Z" stroke="#3333CC" stroke-linejoin="round" stroke-miterlimit="10" fill="#3333CC" fill-rule="evenodd"/><path d="M116.5 394.5C116.5 390.634 119.41 387.5 123 387.5 126.59 387.5 129.5 390.634 129.5 394.5 129.5 398.366 126.59 401.5 123 401.5 119.41 401.5 116.5 398.366 116.5 394.5Z" stroke="#3333CC" stroke-linejoin="round" stroke-miterlimit="10" fill="#3333CC" fill-rule="evenodd"/><text fill="#CC0000" font-family="Arial,Arial_MSFontService,sans-serif" font-style="italic" font-weight="400" font-size="23" transform="translate(199.83 352)">A</text><text fill="#CC0000" font-family="Arial,Arial_MSFontService,sans-serif" font-style="italic" font-weight="400" font-size="23" transform="translate(195.997 422)">A</text><text fill="#CC0000" font-family="Gulim,Gulim_MSFontService,sans-serif" font-style="oblique" font-weight="400" font-size="23" transform="translate(211.164 422)">´</text><text fill="#3333CC" font-family="Arial,Arial_MSFontService,sans-serif" font-style="italic" font-weight="400" font-size="23" transform="translate(304.997 420)">B</text><text fill="#3333CC" font-family="Arial,Arial_MSFontService,sans-serif" font-style="italic" font-weight="400" font-size="23" transform="translate(96.6636 385)">B</text><text fill="#3333CC" font-family="Gulim,Gulim_MSFontService,sans-serif" font-style="oblique" font-weight="400" font-size="23" transform="translate(111.83 385)">´</text><path d="M125.5 464.5 297.5 465.5" stroke="#3333CC" stroke-width="3.33333" stroke-linejoin="round" stroke-miterlimit="10" fill="none" fill-rule="evenodd"/><text font-family="Arial,Arial_MSFontService,sans-serif" font-weight="400" font-size="23" transform="translate(88.8302 579)">Net</text><text fill="#CC0000" font-family="Arial,Arial_MSFontService,sans-serif" font-style="italic" font-weight="400" font-size="23" transform="translate(130.497 579)">A</text><text font-family="Arial,Arial_MSFontService,sans-serif" font-weight="400" font-size="23" transform="translate(151.997 579)">has a higher aspect ratio</text><text font-family="Arial,Arial_MSFontService,sans-serif" font-weight="400" font-size="23" transform="translate(88.8302 606)">of its bounding box; routing</text><text fill="#CC0000" font-family="Arial,Arial_MSFontService,sans-serif" font-style="italic" font-weight="400" font-size="23" transform="translate(368.33 606)">A</text><text font-family="Arial,Arial_MSFontService,sans-serif" font-weight="400" font-size="23" transform="translate(88.8302 633)">first results in shorter total wirlength</text><text font-family="Arial,Arial_MSFontService,sans-serif" font-weight="400" font-size="23" transform="translate(480.997 579)">Routing net</text><text fill="#1860AB" font-family="Arial,Arial_MSFontService,sans-serif" font-style="italic" font-weight="400" font-size="23" transform="translate(603.664 579)">B</text><text font-family="Arial,Arial_MSFontService,sans-serif" font-weight="400" font-size="23" transform="translate(625.164 579)">first results</text><text font-family="Arial,Arial_MSFontService,sans-serif" font-weight="400" font-size="23" transform="translate(480.997 606)">in longer total wirelength</text><path d="M123.5 392.5 123.5 464.5" stroke="#3333CC" stroke-width="3.33333" stroke-linejoin="round" stroke-miterlimit="10" fill="none" fill-rule="evenodd"/><path d="M0 0 1 37" stroke="#3333CC" stroke-width="3.33333" stroke-linejoin="round" stroke-miterlimit="10" fill="none" fill-rule="evenodd" transform="matrix(-1 0 0 1 299.5 429.5)"/><rect x="483.5" y="293.5" width="240" height="240" stroke="#969696" stroke-miterlimit="8" fill="#DDDDDD"/><rect x="482.5" y="292.5" width="241" height="242" stroke="#000000" stroke-miterlimit="8" fill="none"/><path d="M482.5 327.5 723.5 327.5" stroke="#000000" stroke-linejoin="round" stroke-miterlimit="10" fill="none" fill-rule="evenodd"/><path d="M482.5 361.5 723.5 361.5" stroke="#000000" stroke-linejoin="round" stroke-miterlimit="10" fill="none" fill-rule="evenodd"/><path d="M482.5 395.5 723.5 395.5" stroke="#000000" stroke-linejoin="round" stroke-miterlimit="10" fill="none" fill-rule="evenodd"/><path d="M482.5 430.5 723.5 430.5" stroke="#000000" stroke-linejoin="round" stroke-miterlimit="10" fill="none" fill-rule="evenodd"/><path d="M482.5 464.5 723.5 464.5" stroke="#000000" stroke-linejoin="round" stroke-miterlimit="10" fill="none" fill-rule="evenodd"/><path d="M516.5 292.5 516.5 534.5" stroke="#000000" stroke-linejoin="round" stroke-miterlimit="10" fill="none" fill-rule="evenodd"/><path d="M551.5 292.5 551.5 534.5" stroke="#000000" stroke-linejoin="round" stroke-miterlimit="10" fill="none" fill-rule="evenodd"/><path d="M585.5 292.5 585.5 534.5" stroke="#000000" stroke-linejoin="round" stroke-miterlimit="10" fill="none" fill-rule="evenodd"/><path d="M620.5 292.5 620.5 534.5" stroke="#000000" stroke-linejoin="round" stroke-miterlimit="10" fill="none" fill-rule="evenodd"/><path d="M654.5 292.5 654.5 534.5" stroke="#000000" stroke-linejoin="round" stroke-miterlimit="10" fill="none" fill-rule="evenodd"/><path d="M689.5 292.5 689.5 534.5" stroke="#000000" stroke-linejoin="round" stroke-miterlimit="10" fill="none" fill-rule="evenodd"/><path d="M482.5 499.5 723.5 499.5" stroke="#000000" stroke-linejoin="round" stroke-miterlimit="10" fill="none" fill-rule="evenodd"/><path d="M613.5 360.5C613.5 356.634 616.41 353.5 620 353.5 623.59 353.5 626.5 356.634 626.5 360.5 626.5 364.366 623.59 367.5 620 367.5 616.41 367.5 613.5 364.366 613.5 360.5Z" stroke="#CC0000" stroke-linejoin="round" stroke-miterlimit="10" fill="#CC0000" fill-rule="evenodd"/><path d="M612.5 432.5C612.5 428.634 615.634 425.5 619.5 425.5 623.366 425.5 626.5 428.634 626.5 432.5 626.5 436.366 623.366 439.5 619.5 439.5 615.634 439.5 612.5 436.366 612.5 432.5Z" stroke="#CC0000" stroke-linejoin="round" stroke-miterlimit="10" fill="#CC0000" fill-rule="evenodd"/><path d="M684.5 430.5C684.5 426.634 687.634 423.5 691.5 423.5 695.366 423.5 698.5 426.634 698.5 430.5 698.5 434.366 695.366 437.5 691.5 437.5 687.634 437.5 684.5 434.366 684.5 430.5Z" stroke="#3333CC" stroke-linejoin="round" stroke-miterlimit="10" fill="#3333CC" fill-rule="evenodd"/><path d="M508.5 396C508.5 392.41 511.634 389.5 515.5 389.5 519.366 389.5 522.5 392.41 522.5 396 522.5 399.59 519.366 402.5 515.5 402.5 511.634 402.5 508.5 399.59 508.5 396Z" stroke="#3333CC" stroke-linejoin="round" stroke-miterlimit="10" fill="#3333CC" fill-rule="evenodd"/><text fill="#CC0000" font-family="Arial,Arial_MSFontService,sans-serif" font-style="italic" font-weight="400" font-size="23" transform="translate(592.164 351)">A</text><text fill="#CC0000" font-family="Arial,Arial_MSFontService,sans-serif" font-style="italic" font-weight="400" font-size="23" transform="translate(592.164 422)">A</text><text fill="#CC0000" font-family="Gulim,Gulim_MSFontService,sans-serif" font-style="oblique" font-weight="400" font-size="23" transform="translate(607.33 422)">´</text><text fill="#3333CC" font-family="Arial,Arial_MSFontService,sans-serif" font-style="italic" font-weight="400" font-size="23" transform="translate(698.33 421)">B</text><text fill="#3333CC" font-family="Arial,Arial_MSFontService,sans-serif" font-style="italic" font-weight="400" font-size="23" transform="translate(488.997 384)">B</text><text fill="#3333CC" font-family="Gulim,Gulim_MSFontService,sans-serif" font-style="oblique" font-weight="400" font-size="23" transform="translate(504.164 384)">´</text><path d="M517.5 397.5 690.5 398.5" stroke="#3333CC" stroke-width="3.33333" stroke-linejoin="round" stroke-miterlimit="10" fill="none" fill-rule="evenodd"/><path d="M0 0 1 35" stroke="#CC0000" stroke-width="3.33333" stroke-linejoin="round" stroke-miterlimit="10" fill="none" fill-rule="evenodd" transform="matrix(-1 0 0 1 619.5 429.5)"/><path d="M689.5 394.5 690.5 431.5" stroke="#3333CC" stroke-width="3.33333" stroke-linejoin="round" stroke-miterlimit="10" fill="none" fill-rule="evenodd"/><path d="M0 0 1 102" stroke="#CC0000" stroke-width="3.33333" stroke-linejoin="round" stroke-miterlimit="10" fill="none" fill-rule="evenodd" transform="matrix(-1 0 0 1 723.5 361.5)"/><path d="M0 0 105 1" stroke="#CC0000" stroke-width="3.33333" stroke-linejoin="round" stroke-miterlimit="10" fill="none" fill-rule="evenodd" transform="matrix(1 0 0 -1 618.5 465.5)"/><path d="M0 0 102 1" stroke="#CC0000" stroke-width="3.33333" stroke-linejoin="round" stroke-miterlimit="10" fill="none" fill-rule="evenodd" transform="matrix(1 0 0 -1 620.5 362.5)"/><text fill="#CC0000" font-family="Symbol,Symbol_MSFontService,sans-serif" font-weight="400" font-size="23" transform="translate(83.896 244)"></text><text fill="#CC0000" font-family="Arial,Arial_MSFontService,sans-serif" font-weight="700" font-size="23" transform="translate(117.896 244)">Rule 1:</text><text font-family="Arial,Arial_MSFontService,sans-serif" font-weight="400" font-size="23" transform="translate(199.896 244)">For two nets</text><text font-family="Arial,Arial_MSFontService,sans-serif" font-style="italic" font-weight="400" font-size="23" transform="translate(331.229 244)">i</text><text font-family="Arial,Arial_MSFontService,sans-serif" font-weight="400" font-size="23" transform="translate(342.563 244)">and</text><text font-family="Arial,Arial_MSFontService,sans-serif" font-style="italic" font-weight="400" font-size="23" transform="translate(386.896 244)">j</text><text font-family="Arial,Arial_MSFontService,sans-serif" font-weight="400" font-size="23" transform="translate(391.896 244)">, if</text><text font-family="Arial,Arial_MSFontService,sans-serif" font-style="italic" font-weight="400" font-size="23" transform="translate(422.229 244)">aspect ratio</text><text font-family="Arial,Arial_MSFontService,sans-serif" font-weight="400" font-size="23" transform="translate(546.063 244)">(</text><text font-family="Arial,Arial_MSFontService,sans-serif" font-style="italic" font-weight="400" font-size="23" transform="translate(553.563 244)">i</text><text font-family="Arial,Arial_MSFontService,sans-serif" font-weight="400" font-size="23" transform="translate(562.729 244)">) &gt;</text><text font-family="Arial,Arial_MSFontService,sans-serif" font-style="italic" font-weight="400" font-size="23" transform="translate(596.063 244)">aspect ratio</text><text font-family="Arial,Arial_MSFontService,sans-serif" font-weight="400" font-size="23" transform="translate(719.896 244)">(</text><text font-family="Arial,Arial_MSFontService,sans-serif" font-style="italic" font-weight="400" font-size="23" transform="translate(727.396 244)">j</text><text font-family="Arial,Arial_MSFontService,sans-serif" font-weight="400" font-size="23" transform="translate(736.563 244)">),</text><text font-family="Arial,Arial_MSFontService,sans-serif" font-weight="400" font-size="23" transform="translate(117.896 271)">then</text><text font-family="Arial,Arial_MSFontService,sans-serif" font-style="italic" font-weight="400" font-size="23" transform="translate(168.563 271)">i</text><text font-family="Arial,Arial_MSFontService,sans-serif" font-weight="400" font-size="23" transform="translate(179.896 271)">is routed before</text><text font-family="Arial,Arial_MSFontService,sans-serif" font-style="italic" font-weight="400" font-size="23" transform="translate(344.229 271)">j</text></g></svg>