<svg width="734" height="373" xmlns="http://www.w3.org/2000/svg" xmlns:xlink="http://www.w3.org/1999/xlink" overflow="hidden"><defs><clipPath id="clip0"><path d="M137.5 294.5 137.5 536.5 379.5 536.5 379.5 294.5ZM87 209 821 209 821 582 87 582Z" fill-rule="evenodd" clip-rule="evenodd"/></clipPath><clipPath id="clip1"><path d="M541.5 294.5 541.5 536.5 782.5 536.5 782.5 294.5ZM87 209 821 209 821 582 87 582Z" fill-rule="evenodd" clip-rule="evenodd"/></clipPath></defs><g transform="translate(-87 -209)"><rect x="88" y="210" width="313" height="41" fill="#CCCCFF"/><text font-family="Arial,Arial_MSFontService,sans-serif" font-weight="400" font-size="23" transform="translate(107.563 238)">Alternating cutline directions</text><text font-family="Arial,Arial_MSFontService,sans-serif" font-weight="400" font-size="24" transform="translate(111.167 422)">1</text><text font-family="Arial,Arial_MSFontService,sans-serif" font-weight="400" font-size="24" transform="translate(244.167 561)">2</text><text font-family="Arial,Arial_MSFontService,sans-serif" font-style="italic" font-weight="400" font-size="24" transform="translate(257.5 561)">b</text><text font-family="Arial,Arial_MSFontService,sans-serif" font-weight="400" font-size="24" transform="translate(104.167 362)">3</text><text font-family="Arial,Arial_MSFontService,sans-serif" font-style="italic" font-weight="400" font-size="24" transform="translate(117.5 362)">a</text><text font-family="Arial,Arial_MSFontService,sans-serif" font-weight="400" font-size="24" transform="translate(105.833 485)">3</text><text font-family="Arial,Arial_MSFontService,sans-serif" font-style="italic" font-weight="400" font-size="24" transform="translate(119.167 485)">c</text><g clip-path="url(#clip0)"><rect x="140.167" y="297.167" width="242" height="242" fill="#FFFFFF"/><path d="M140.667 297.667 140.667 538.667 381.667 538.667 381.667 297.667ZM139.667 296.667 382.667 296.667 382.667 539.667 139.667 539.667Z" fill="#FFFFFF" fill-rule="evenodd"/></g><rect x="137.5" y="294.5" width="242" height="242" stroke="#969696" stroke-miterlimit="8" fill="#EAEAEA"/><path d="M318 294 318 536" stroke="#808080" stroke-width="2" stroke-linejoin="round" stroke-miterlimit="10" fill="none" fill-rule="evenodd"/><path d="M197 294 197 536" stroke="#808080" stroke-width="2" stroke-linejoin="round" stroke-miterlimit="10" fill="none" fill-rule="evenodd"/><text font-family="Arial,Arial_MSFontService,sans-serif" font-weight="400" font-size="24" transform="translate(244.167 288)">2</text><text font-family="Arial,Arial_MSFontService,sans-serif" font-style="italic" font-weight="400" font-size="24" transform="translate(257.5 288)">a</text><text font-family="Arial,Arial_MSFontService,sans-serif" font-weight="400" font-size="24" transform="translate(383.667 362)">3</text><text font-family="Arial,Arial_MSFontService,sans-serif" font-style="italic" font-weight="400" font-size="24" transform="translate(397 362)">b</text><text font-family="Arial,Arial_MSFontService,sans-serif" font-weight="400" font-size="24" transform="translate(383.417 485)">3</text><text font-family="Arial,Arial_MSFontService,sans-serif" font-style="italic" font-weight="400" font-size="24" transform="translate(396.75 485)">d</text><text font-family="Arial,Arial_MSFontService,sans-serif" font-weight="400" font-size="24" transform="translate(150.667 393)">4</text><text font-family="Arial,Arial_MSFontService,sans-serif" font-style="italic" font-weight="400" font-size="24" transform="translate(164 393)">b</text><text font-family="Arial,Arial_MSFontService,sans-serif" font-weight="400" font-size="24" transform="translate(335.333 330)">4</text><text font-family="Arial,Arial_MSFontService,sans-serif" font-style="italic" font-weight="400" font-size="24" transform="translate(348.667 330)">c</text><text font-family="Arial,Arial_MSFontService,sans-serif" font-weight="400" font-size="24" transform="translate(151 330)">4</text><text font-family="Arial,Arial_MSFontService,sans-serif" font-style="italic" font-weight="400" font-size="24" transform="translate(164.333 330)">a</text><text font-family="Arial,Arial_MSFontService,sans-serif" font-weight="400" font-size="24" transform="translate(334.667 393)">4</text><text font-family="Arial,Arial_MSFontService,sans-serif" font-style="italic" font-weight="400" font-size="24" transform="translate(348 393)">d</text><text font-family="Arial,Arial_MSFontService,sans-serif" font-weight="400" font-size="24" transform="translate(153.75 517)">4</text><text font-family="Arial,Arial_MSFontService,sans-serif" font-style="italic" font-weight="400" font-size="24" transform="translate(167.083 517)">f</text><text font-family="Arial,Arial_MSFontService,sans-serif" font-weight="400" font-size="24" transform="translate(334.667 454)">4</text><text font-family="Arial,Arial_MSFontService,sans-serif" font-style="italic" font-weight="400" font-size="24" transform="translate(348 454)">g</text><text font-family="Arial,Arial_MSFontService,sans-serif" font-weight="400" font-size="24" transform="translate(150 454)">4</text><text font-family="Arial,Arial_MSFontService,sans-serif" font-style="italic" font-weight="400" font-size="24" transform="translate(163.333 454)">e</text><text font-family="Arial,Arial_MSFontService,sans-serif" font-weight="400" font-size="24" transform="translate(333.667 517)">4</text><text font-family="Arial,Arial_MSFontService,sans-serif" font-style="italic" font-weight="400" font-size="24" transform="translate(347 517)">h</text><path d="M137 354 378 354" stroke="#000000" stroke-width="4" stroke-linejoin="round" stroke-miterlimit="10" fill="none" fill-rule="evenodd"/><path d="M137 477 378 477" stroke="#000000" stroke-width="4" stroke-linejoin="round" stroke-miterlimit="10" fill="none" fill-rule="evenodd"/><path d="M258 415 258 536" stroke="#CD7F7F" stroke-width="8" stroke-linejoin="round" stroke-miterlimit="10" fill="none" fill-rule="evenodd"/><g clip-path="url(#clip1)"><rect x="544.167" y="297.167" width="241" height="242" fill="#FFFFFF"/><path d="M544.667 297.667 544.667 538.667 784.667 538.667 784.667 297.667ZM543.667 296.667 785.667 296.667 785.667 539.667 543.667 539.667Z" fill="#FFFFFF" fill-rule="evenodd"/></g><rect x="541.5" y="294.5" width="241" height="242" stroke="#969696" stroke-miterlimit="8" fill="#EAEAEA"/><path d="M662 294 662 536" stroke="#000000" stroke-width="4" stroke-linejoin="round" stroke-miterlimit="10" fill="none" fill-rule="evenodd"/><path d="M722 294 722 536" stroke="#808080" stroke-width="2" stroke-linejoin="round" stroke-miterlimit="10" fill="none" fill-rule="evenodd"/><path d="M601 294 601 536" stroke="#808080" stroke-width="2" stroke-linejoin="round" stroke-miterlimit="10" fill="none" fill-rule="evenodd"/><text font-family="Arial,Arial_MSFontService,sans-serif" font-weight="400" font-size="24" transform="translate(514.333 422)">1</text><text font-family="Arial,Arial_MSFontService,sans-serif" font-weight="400" font-size="24" transform="translate(508.5 362)">2</text><text font-family="Arial,Arial_MSFontService,sans-serif" font-style="italic" font-weight="400" font-size="24" transform="translate(521.833 362)">a</text><text font-family="Arial,Arial_MSFontService,sans-serif" font-weight="400" font-size="24" transform="translate(508.5 483)">2</text><text font-family="Arial,Arial_MSFontService,sans-serif" font-style="italic" font-weight="400" font-size="24" transform="translate(521.833 483)">b</text><text font-family="Arial,Arial_MSFontService,sans-serif" font-weight="400" font-size="24" transform="translate(616.167 332)">3</text><text font-family="Arial,Arial_MSFontService,sans-serif" font-style="italic" font-weight="400" font-size="24" transform="translate(629.5 332)">a</text><path d="M541 415 782 415" stroke="#CC0000" stroke-width="8" stroke-linejoin="round" stroke-miterlimit="10" fill="none" fill-rule="evenodd"/><path d="M541 355 782 355" stroke="#833333" stroke-width="4" stroke-linejoin="round" stroke-miterlimit="10" fill="none" fill-rule="evenodd"/><path d="M541 475 782 475" stroke="#CD7F7F" stroke-width="4" stroke-linejoin="round" stroke-miterlimit="10" fill="none" fill-rule="evenodd"/><text font-family="Arial,Arial_MSFontService,sans-serif" font-weight="400" font-size="24" transform="translate(616.667 392)">3</text><text font-family="Arial,Arial_MSFontService,sans-serif" font-style="italic" font-weight="400" font-size="24" transform="translate(630 392)">b</text><text font-family="Arial,Arial_MSFontService,sans-serif" font-weight="400" font-size="24" transform="translate(616.833 455)">3</text><text font-family="Arial,Arial_MSFontService,sans-serif" font-style="italic" font-weight="400" font-size="24" transform="translate(630.167 455)">c</text><text font-family="Arial,Arial_MSFontService,sans-serif" font-weight="400" font-size="24" transform="translate(616.167 515)">3</text><text font-family="Arial,Arial_MSFontService,sans-serif" font-style="italic" font-weight="400" font-size="24" transform="translate(629.5 515)">d</text><text font-family="Arial,Arial_MSFontService,sans-serif" font-weight="400" font-size="24" transform="translate(557.167 332)">4</text><text font-family="Arial,Arial_MSFontService,sans-serif" font-style="italic" font-weight="400" font-size="24" transform="translate(570.5 332)">a</text><text font-family="Arial,Arial_MSFontService,sans-serif" font-weight="400" font-size="24" transform="translate(557.667 392)">4</text><text font-family="Arial,Arial_MSFontService,sans-serif" font-style="italic" font-weight="400" font-size="24" transform="translate(571 392)">b</text><text font-family="Arial,Arial_MSFontService,sans-serif" font-weight="400" font-size="24" transform="translate(557.833 455)">4</text><text font-family="Arial,Arial_MSFontService,sans-serif" font-style="italic" font-weight="400" font-size="24" transform="translate(571.167 455)">c</text><text font-family="Arial,Arial_MSFontService,sans-serif" font-weight="400" font-size="24" transform="translate(557.167 515)">4</text><text font-family="Arial,Arial_MSFontService,sans-serif" font-style="italic" font-weight="400" font-size="24" transform="translate(570.5 515)">d</text><text font-family="Arial,Arial_MSFontService,sans-serif" font-weight="400" font-size="24" transform="translate(680.167 332)">4</text><text font-family="Arial,Arial_MSFontService,sans-serif" font-style="italic" font-weight="400" font-size="24" transform="translate(693.5 332)">e</text><text font-family="Arial,Arial_MSFontService,sans-serif" font-weight="400" font-size="24" transform="translate(684 392)">4</text><text font-family="Arial,Arial_MSFontService,sans-serif" font-style="italic" font-weight="400" font-size="24" transform="translate(697.333 392)">f</text><text font-family="Arial,Arial_MSFontService,sans-serif" font-weight="400" font-size="24" transform="translate(680.167 455)">4</text><text font-family="Arial,Arial_MSFontService,sans-serif" font-style="italic" font-weight="400" font-size="24" transform="translate(693.5 455)">g</text><text font-family="Arial,Arial_MSFontService,sans-serif" font-weight="400" font-size="24" transform="translate(680.167 515)">4</text><text font-family="Arial,Arial_MSFontService,sans-serif" font-style="italic" font-weight="400" font-size="24" transform="translate(693.5 515)">h</text><path d="M323.5 295.5C326.262 295.5 328.5 297.739 328.5 300.5L328.5 318.5C328.5 321.262 330.739 323.5 333.5 323.5 330.739 323.5 328.5 325.739 328.5 328.5L328.5 346.5C328.5 349.262 326.262 351.5 323.5 351.5" stroke="#000000" stroke-linejoin="round" stroke-miterlimit="10" fill="none" fill-rule="evenodd"/><path d="M324.5 358.5C326.709 358.5 328.5 360.273 328.5 362.461L328.5 379.539C328.5 381.727 330.291 383.5 332.5 383.5 330.291 383.5 328.5 385.273 328.5 387.461L328.5 404.539C328.5 406.727 326.709 408.5 324.5 408.5" stroke="#000000" stroke-linejoin="round" stroke-miterlimit="10" fill="none" fill-rule="evenodd"/><path d="M322.5 480.5C324.985 480.5 327 482.515 327 485L327 502.5C327 504.985 329.015 507 331.5 507 329.015 507 327 509.015 327 511.5L327 529C327 531.485 324.985 533.5 322.5 533.5" stroke="#000000" stroke-linejoin="round" stroke-miterlimit="10" fill="none" fill-rule="evenodd"/><path d="M323.5 421.5C325.709 421.5 327.5 423.273 327.5 425.461L327.5 442.539C327.5 444.727 329.291 446.5 331.5 446.5 329.291 446.5 327.5 448.273 327.5 450.461L327.5 467.539C327.5 469.727 325.709 471.5 323.5 471.5" stroke="#000000" stroke-linejoin="round" stroke-miterlimit="10" fill="none" fill-rule="evenodd"/><path d="M192.5 350.5C190.015 350.5 188 348.485 188 346L188 327C188 324.515 185.985 322.5 183.5 322.5 185.985 322.5 188 320.485 188 318L188 299C188 296.515 190.015 294.5 192.5 294.5" stroke="#000000" stroke-linejoin="round" stroke-miterlimit="10" fill="none" fill-rule="evenodd"/><path d="M192.5 408.5C190.015 408.5 188 406.505 188 404.045L188 388.455C188 385.995 185.985 384 183.5 384 185.985 384 188 382.005 188 379.545L188 363.955C188 361.495 190.015 359.5 192.5 359.5" stroke="#000000" stroke-linejoin="round" stroke-miterlimit="10" fill="none" fill-rule="evenodd"/><path d="M192.5 536.5C189.739 536.5 187.5 534.261 187.5 531.5L187.5 513.5C187.5 510.739 185.261 508.5 182.5 508.5 185.261 508.5 187.5 506.261 187.5 503.5L187.5 485.5C187.5 482.739 189.739 480.5 192.5 480.5" stroke="#000000" stroke-linejoin="round" stroke-miterlimit="10" fill="none" fill-rule="evenodd"/><path d="M191.5 471.5C189.291 471.5 187.5 469.727 187.5 467.54L187.5 450.96C187.5 448.773 185.709 447 183.5 447 185.709 447 187.5 445.227 187.5 443.04L187.5 426.46C187.5 424.273 189.291 422.5 191.5 422.5" stroke="#000000" stroke-linejoin="round" stroke-miterlimit="10" fill="none" fill-rule="evenodd"/><path d="M596.5 351.5C594.015 351.5 592 349.485 592 347L592 328C592 325.515 589.985 323.5 587.5 323.5 589.985 323.5 592 321.485 592 319L592 300C592 297.515 594.015 295.5 596.5 295.5" stroke="#000000" stroke-linejoin="round" stroke-miterlimit="10" fill="none" fill-rule="evenodd"/><path d="M596.5 408.5C594.291 408.5 592.5 406.727 592.5 404.54L592.5 387.96C592.5 385.773 590.709 384 588.5 384 590.709 384 592.5 382.227 592.5 380.04L592.5 363.46C592.5 361.273 594.291 359.5 596.5 359.5" stroke="#000000" stroke-linejoin="round" stroke-miterlimit="10" fill="none" fill-rule="evenodd"/><path d="M596.5 535.5C594.015 535.5 592 533.485 592 531L592 512C592 509.515 589.985 507.5 587.5 507.5 589.985 507.5 592 505.485 592 503L592 484C592 481.515 594.015 479.5 596.5 479.5" stroke="#000000" stroke-linejoin="round" stroke-miterlimit="10" fill="none" fill-rule="evenodd"/><path d="M595.5 470.5C593.291 470.5 591.5 468.727 591.5 466.54L591.5 449.46C591.5 447.273 589.709 445.5 587.5 445.5 589.709 445.5 591.5 443.727 591.5 441.54L591.5 424.46C591.5 422.273 593.291 420.5 595.5 420.5" stroke="#000000" stroke-linejoin="round" stroke-miterlimit="10" fill="none" fill-rule="evenodd"/><path d="M654.5 351.5C652.015 351.5 650 349.485 650 347L650 328C650 325.515 647.985 323.5 645.5 323.5 647.985 323.5 650 321.485 650 319L650 300C650 297.515 652.015 295.5 654.5 295.5" stroke="#000000" stroke-linejoin="round" stroke-miterlimit="10" fill="none" fill-rule="evenodd"/><path d="M654.5 408.5C652.291 408.5 650.5 406.727 650.5 404.54L650.5 387.46C650.5 385.273 648.709 383.5 646.5 383.5 648.709 383.5 650.5 381.727 650.5 379.54L650.5 362.46C650.5 360.273 652.291 358.5 654.5 358.5" stroke="#000000" stroke-linejoin="round" stroke-miterlimit="10" fill="none" fill-rule="evenodd"/><path d="M654.5 534.5C652.015 534.5 650 532.485 650 530L650 511C650 508.515 647.985 506.5 645.5 506.5 647.985 506.5 650 504.485 650 502L650 483C650 480.515 652.015 478.5 654.5 478.5" stroke="#000000" stroke-linejoin="round" stroke-miterlimit="10" fill="none" fill-rule="evenodd"/><path d="M653.5 469.5C651.291 469.5 649.5 467.727 649.5 465.54L649.5 448.96C649.5 446.773 647.709 445 645.5 445 647.709 445 649.5 443.227 649.5 441.04L649.5 424.46C649.5 422.273 651.291 420.5 653.5 420.5" stroke="#000000" stroke-linejoin="round" stroke-miterlimit="10" fill="none" fill-rule="evenodd"/><path d="M719.5 351.5C717.015 351.5 715 349.485 715 347L715 328C715 325.515 712.985 323.5 710.5 323.5 712.985 323.5 715 321.485 715 319L715 300C715 297.515 717.015 295.5 719.5 295.5" stroke="#000000" stroke-linejoin="round" stroke-miterlimit="10" fill="none" fill-rule="evenodd"/><path d="M718.5 408.5C716.291 408.5 714.5 406.727 714.5 404.54L714.5 387.46C714.5 385.273 712.709 383.5 710.5 383.5 712.709 383.5 714.5 381.727 714.5 379.54L714.5 362.46C714.5 360.273 716.291 358.5 718.5 358.5" stroke="#000000" stroke-linejoin="round" stroke-miterlimit="10" fill="none" fill-rule="evenodd"/><path d="M718.5 534.5C716.015 534.5 714 532.485 714 530L714 511C714 508.515 711.985 506.5 709.5 506.5 711.985 506.5 714 504.485 714 502L714 483C714 480.515 716.015 478.5 718.5 478.5" stroke="#000000" stroke-linejoin="round" stroke-miterlimit="10" fill="none" fill-rule="evenodd"/><path d="M718.5 469.5C716.291 469.5 714.5 467.727 714.5 465.54L714.5 448.96C714.5 446.773 712.709 445 710.5 445 712.709 445 714.5 443.227 714.5 441.04L714.5 424.46C714.5 422.273 716.291 420.5 718.5 420.5" stroke="#000000" stroke-linejoin="round" stroke-miterlimit="10" fill="none" fill-rule="evenodd"/><rect x="507" y="211" width="309" height="41" fill="#CCCCFF"/><text font-family="Arial,Arial_MSFontService,sans-serif" font-weight="400" font-size="23" transform="translate(527.229 239)">Repeating cutline directions</text><path d="M256 293 256 414" stroke="#833333" stroke-width="8" stroke-linejoin="round" stroke-miterlimit="10" fill="none" fill-rule="evenodd"/><path d="M136 415 378 415" stroke="#CC0000" stroke-width="8" stroke-linejoin="round" stroke-miterlimit="10" fill="none" fill-rule="evenodd"/></g></svg>