<svg width="953" height="439" xmlns="http://www.w3.org/2000/svg" xmlns:xlink="http://www.w3.org/1999/xlink" overflow="hidden"><g transform="translate(-3 -158)"><rect x="413" y="331" width="170" height="67" fill="#CCCCFF"/><text font-family="Arial,Arial_MSFontService,sans-serif" font-weight="400" font-size="23" transform="translate(423.33 359)">Timing</text><text font-family="Arial,Arial_MSFontService,sans-serif" font-weight="400" font-size="23" transform="translate(490.49 359)">-</text><text font-family="Arial,Arial_MSFontService,sans-serif" font-weight="400" font-size="23" transform="translate(497.99 359)">Driven</text><text font-family="Arial,Arial_MSFontService,sans-serif" font-weight="400" font-size="23" transform="translate(423.33 386)">Routing</text><rect x="42" y="331" width="158" height="67" fill="#CCCCFF"/><text font-family="Arial,Arial_MSFontService,sans-serif" font-weight="400" font-size="23" transform="translate(52.4969 359)">Global</text><text font-family="Arial,Arial_MSFontService,sans-serif" font-weight="400" font-size="23" transform="translate(52.4969 386)">Routing</text><rect x="233" y="331" width="146" height="67" fill="#CCCCFF"/><text font-family="Arial,Arial_MSFontService,sans-serif" font-weight="400" font-size="23" transform="translate(243.33 359)">Detailed</text><text font-family="Arial,Arial_MSFontService,sans-serif" font-weight="400" font-size="23" transform="translate(243.33 386)">Routing</text><path d="M0.288863-0.600835 46.2805 21.5105 45.7028 22.7122-0.288863 0.600835ZM46.5232 17.9286 52 25 43.0568 25.1387Z" transform="matrix(-1 0 0 1 184.5 291.5)"/><path d="M265.167 291.5 265.167 311.833 263.833 311.833 263.833 291.5ZM268.5 310.5 264.5 318.5 260.5 310.5Z"/><rect x="597" y="331" width="155" height="67" fill="#CCCCFF"/><text font-family="Arial,Arial_MSFontService,sans-serif" font-weight="400" font-size="23" transform="translate(606.664 359)">Large Single</text><text font-family="Arial,Arial_MSFontService,sans-serif" font-weight="400" font-size="23" transform="translate(734.33 359)">-</text><text font-family="Arial,Arial_MSFontService,sans-serif" font-weight="400" font-size="23" transform="translate(606.664 386)">Net Routing</text><path d="M535.017 197.079 627.805 310.911 626.771 311.754 533.983 197.921ZM629.546 307.772 631.5 316.5 623.345 312.826Z"/><path d="M599.842 196.928 793.12 312.506 792.436 313.651 599.158 198.072ZM793.687 308.961 798.5 316.5 789.581 315.827Z"/><text font-family="Arial,Arial_MSFontService,sans-serif" font-weight="400" font-size="23" transform="translate(46.4969 425)">Coarse</text><text font-family="Arial,Arial_MSFontService,sans-serif" font-weight="400" font-size="23" transform="translate(119.664 425)">-</text><text font-family="Arial,Arial_MSFontService,sans-serif" font-weight="400" font-size="23" transform="translate(127.164 425)">grain</text><text font-family="Arial,Arial_MSFontService,sans-serif" font-weight="400" font-size="23" transform="translate(46.4969 452)">assignment of</text><text font-family="Arial,Arial_MSFontService,sans-serif" font-weight="400" font-size="23" transform="translate(46.4969 479)">routes to</text><text font-family="Arial,Arial_MSFontService,sans-serif" font-weight="400" font-size="23" transform="translate(46.4969 507)">routing regions</text><text font-family="Arial,Arial_MSFontService,sans-serif" font-weight="400" font-size="23" transform="translate(46.4969 534)">(Chap. 5)</text><text font-family="Arial,Arial_MSFontService,sans-serif" font-weight="400" font-size="23" transform="translate(240.664 425)">Fine</text><text font-family="Arial,Arial_MSFontService,sans-serif" font-weight="400" font-size="23" transform="translate(284.83 425)">-</text><text font-family="Arial,Arial_MSFontService,sans-serif" font-weight="400" font-size="23" transform="translate(292.33 425)">grain</text><text font-family="Arial,Arial_MSFontService,sans-serif" font-weight="400" font-size="23" transform="translate(240.664 452)">assignment</text><text font-family="Arial,Arial_MSFontService,sans-serif" font-weight="400" font-size="23" transform="translate(240.664 479)">of routes to</text><text font-family="Arial,Arial_MSFontService,sans-serif" font-weight="400" font-size="23" transform="translate(240.664 507)">routing tracks</text><text font-family="Arial,Arial_MSFontService,sans-serif" font-weight="400" font-size="23" transform="translate(240.664 534)">(Chap. 6)</text><text font-family="Arial,Arial_MSFontService,sans-serif" font-weight="400" font-size="23" transform="translate(421.997 425)">Net topology</text><text font-family="Arial,Arial_MSFontService,sans-serif" font-weight="400" font-size="23" transform="translate(421.997 452)">optimization</text><text font-family="Arial,Arial_MSFontService,sans-serif" font-weight="400" font-size="23" transform="translate(421.997 479)">and resource</text><text font-family="Arial,Arial_MSFontService,sans-serif" font-weight="400" font-size="23" transform="translate(421.997 507)">allocation to</text><text font-family="Arial,Arial_MSFontService,sans-serif" font-weight="400" font-size="23" transform="translate(421.997 534)">critical nets</text><text font-family="Arial,Arial_MSFontService,sans-serif" font-weight="400" font-size="23" transform="translate(421.997 561)">(Chap. 8)</text><text font-family="Arial,Arial_MSFontService,sans-serif" font-weight="400" font-size="23" transform="translate(603.497 425)">Power (VDD)</text><text font-family="Arial,Arial_MSFontService,sans-serif" font-weight="400" font-size="23" transform="translate(603.497 452)">and Ground</text><text font-family="Arial,Arial_MSFontService,sans-serif" font-weight="400" font-size="23" transform="translate(603.497 479)">(GND)</text><text font-family="Arial,Arial_MSFontService,sans-serif" font-weight="400" font-size="23" transform="translate(603.497 507)">routing</text><text font-family="Arial,Arial_MSFontService,sans-serif" font-weight="400" font-size="23" transform="translate(603.497 534)">(Chap. 3)</text><rect x="310" y="160" width="329" height="37" fill="#CCCCFF"/><text font-family="Arial,Arial_MSFontService,sans-serif" font-weight="400" font-size="23" transform="translate(435 187)">Routing</text><path d="M5.50005 447C5.50005 365.538 52.5102 299.5 110.5 299.5 168.49 299.5 215.5 365.538 215.5 447 215.5 528.462 168.49 594.5 110.5 594.5 52.5102 594.5 5.50005 528.462 5.50005 447Z" stroke="#CC0000" stroke-width="3" stroke-linejoin="round" stroke-miterlimit="10" fill="none" fill-rule="evenodd"/><rect x="778" y="330" width="156" height="67" fill="#CCCCFF"/><text font-family="Arial,Arial_MSFontService,sans-serif" font-weight="400" font-size="23" transform="translate(788.164 358)">Geometric</text><text font-family="Arial,Arial_MSFontService,sans-serif" font-weight="400" font-size="23" transform="translate(788.164 385)">Techniques</text><text font-family="Arial,Arial_MSFontService,sans-serif" font-weight="400" font-size="23" transform="translate(784.997 424)">Non</text><text font-family="Arial,Arial_MSFontService,sans-serif" font-weight="400" font-size="23" transform="translate(826.664 424)">-</text><text font-family="Arial,Arial_MSFontService,sans-serif" font-weight="400" font-size="23" transform="translate(834.164 424)">Manhattan</text><text font-family="Arial,Arial_MSFontService,sans-serif" font-weight="400" font-size="23" transform="translate(784.997 451)">and</text><text font-family="Arial,Arial_MSFontService,sans-serif" font-weight="400" font-size="23" transform="translate(784.997 478)">clock routing</text><text font-family="Arial,Arial_MSFontService,sans-serif" font-weight="400" font-size="23" transform="translate(784.997 506)">(Chap. 7)</text><path d="M359.834 291.923 399.061 314.588 398.394 315.742 359.167 293.077ZM399.574 311.034 404.5 318.5 395.572 317.961Z"/><path d="M373.817 198.087 329.683 221.919 329.049 220.746 373.183 196.913ZM332.44 224.218 323.5 224.5 328.639 217.179Z"/><rect x="146" y="227" width="243" height="73" fill="#CCCCFF"/><text font-family="Arial,Arial_MSFontService,sans-serif" font-weight="400" font-size="23" transform="translate(167.917 258)">Multi</text><text font-family="Arial,Arial_MSFontService,sans-serif" font-weight="400" font-size="23" transform="translate(215.75 258)">-</text><text font-family="Arial,Arial_MSFontService,sans-serif" font-weight="400" font-size="23" transform="translate(223.25 258)">Stage Routing</text><text font-family="Arial,Arial_MSFontService,sans-serif" font-weight="400" font-size="23" transform="translate(196.917 285)">of Signal Nets</text></g></svg>