<svg width="680" height="452" xmlns="http://www.w3.org/2000/svg" xmlns:xlink="http://www.w3.org/1999/xlink" overflow="hidden"><g transform="translate(-82 -195)"><rect x="412" y="575" width="345" height="61" fill="#DDDDDD"/><text font-family="Arial,Arial_MSFontService,sans-serif" font-weight="700" font-size="24" transform="translate(421.6 599)">Trunks</text><text font-family="Arial,Arial_MSFontService,sans-serif" font-weight="400" font-size="24" transform="translate(506.94 599)">connect rings to each</text><text font-family="Arial,Arial_MSFontService,sans-serif" font-weight="400" font-size="24" transform="translate(421.6 625)">other or to top</text><text font-family="Arial,Arial_MSFontService,sans-serif" font-weight="400" font-size="24" transform="translate(570.933 625)">-</text><text font-family="Arial,Arial_MSFontService,sans-serif" font-weight="400" font-size="24" transform="translate(578.933 625)">level power ring</text><rect x="87" y="292" width="308" height="62" fill="#DDDDDD"/><text font-family="Arial,Arial_MSFontService,sans-serif" font-weight="400" font-size="24" transform="translate(96.7667 317)">Power and ground rings</text><text font-family="Arial,Arial_MSFontService,sans-serif" font-weight="400" font-size="24" transform="translate(96.7667 343)">per block or abutted blocks</text><rect x="462" y="449" width="201" height="52" fill="#C0C0C0"/><rect x="442.5" y="283.5" width="239" height="239" stroke="#CC0000" stroke-width="5.33333" stroke-miterlimit="8" fill="none"/><rect x="449.5" y="290.5" width="225" height="225" stroke="#CC0000" stroke-width="5.33333" stroke-miterlimit="8" fill="none"/><rect x="464" y="304" width="94" height="68" fill="#C0C0C0"/><rect x="595" y="359" width="72" height="49" fill="#C0C0C0"/><rect x="580" y="299" width="85" height="33" fill="#C0C0C0"/><rect x="436.5" y="528.5" width="15" height="23" stroke="#000000" stroke-width="1.33333" stroke-miterlimit="8" fill="#FFFFFF"/><rect x="451.5" y="528.5" width="16" height="23" stroke="#000000" stroke-width="1.33333" stroke-miterlimit="8" fill="#FFFFFF"/><rect x="467.5" y="528.5" width="15" height="23" stroke="#000000" stroke-width="1.33333" stroke-miterlimit="8" fill="#FFFFFF"/><rect x="482.5" y="528.5" width="16" height="23" stroke="#000000" stroke-width="1.33333" stroke-miterlimit="8" fill="#FFFFFF"/><rect x="498.5" y="528.5" width="16" height="23" stroke="#000000" stroke-width="1.33333" stroke-miterlimit="8" fill="#FFFFFF"/><rect x="514.5" y="528.5" width="15" height="23" stroke="#000000" stroke-width="1.33333" stroke-miterlimit="8" fill="#FFFFFF"/><rect x="529.5" y="528.5" width="16" height="23" stroke="#000000" stroke-width="1.33333" stroke-miterlimit="8" fill="#FFFFFF"/><rect x="545.5" y="528.5" width="15" height="23" stroke="#000000" stroke-width="1.33333" stroke-miterlimit="8" fill="#FFFFFF"/><rect x="560.5" y="528.5" width="16" height="23" stroke="#000000" stroke-width="1.33333" stroke-miterlimit="8" fill="#FFFFFF"/><rect x="576.5" y="528.5" width="16" height="23" stroke="#000000" stroke-width="1.33333" stroke-miterlimit="8" fill="#FFFFFF"/><rect x="592.5" y="528.5" width="15" height="23" stroke="#000000" stroke-width="1.33333" stroke-miterlimit="8" fill="#FFFFFF"/><rect x="607.5" y="528.5" width="16" height="23" stroke="#000000" stroke-width="1.33333" stroke-miterlimit="8" fill="#FFFFFF"/><rect x="623.5" y="528.5" width="15" height="23" stroke="#000000" stroke-width="1.33333" stroke-miterlimit="8" fill="#FFFFFF"/><rect x="639.5" y="528.5" width="15" height="23" stroke="#000000" stroke-width="1.33333" stroke-miterlimit="8" fill="#FFFFFF"/><rect x="654.5" y="528.5" width="16" height="23" stroke="#000000" stroke-width="1.33333" stroke-miterlimit="8" fill="#FFFFFF"/><rect x="670.5" y="528.5" width="15" height="23" stroke="#000000" stroke-width="1.33333" stroke-miterlimit="8" fill="#FFFFFF"/><rect x="413.5" y="278.5" width="23" height="15" stroke="#000000" stroke-width="1.33333" stroke-miterlimit="8" fill="#FFFFFF"/><rect x="413.5" y="294.5" width="23" height="15" stroke="#000000" stroke-width="1.33333" stroke-miterlimit="8" fill="#FFFFFF"/><rect x="413.5" y="309.5" width="23" height="16" stroke="#000000" stroke-width="1.33333" stroke-miterlimit="8" fill="#FFFFFF"/><rect x="413.5" y="325.5" width="23" height="15" stroke="#000000" stroke-width="1.33333" stroke-miterlimit="8" fill="#FFFFFF"/><rect x="413.5" y="340.5" width="23" height="16" stroke="#000000" stroke-width="1.33333" stroke-miterlimit="8" fill="#FFFFFF"/><rect x="413.5" y="356.5" width="23" height="15" stroke="#000000" stroke-width="1.33333" stroke-miterlimit="8" fill="#FFFFFF"/><rect x="413.5" y="372.5" width="23" height="15" stroke="#000000" stroke-width="1.33333" stroke-miterlimit="8" fill="#FFFFFF"/><rect x="413.5" y="387.5" width="23" height="16" stroke="#000000" stroke-width="1.33333" stroke-miterlimit="8" fill="#FFFFFF"/><rect x="413.5" y="403.5" width="23" height="15" stroke="#000000" stroke-width="1.33333" stroke-miterlimit="8" fill="#FFFFFF"/><rect x="413.5" y="418.5" width="23" height="16" stroke="#000000" stroke-width="1.33333" stroke-miterlimit="8" fill="#FFFFFF"/><rect x="413.5" y="434.5" width="23" height="15" stroke="#000000" stroke-width="1.33333" stroke-miterlimit="8" fill="#FFFFFF"/><rect x="413.5" y="450.5" width="23" height="15" stroke="#000000" stroke-width="1.33333" stroke-miterlimit="8" fill="#FFFFFF"/><rect x="413.5" y="465.5" width="23" height="16" stroke="#000000" stroke-width="1.33333" stroke-miterlimit="8" fill="#FFFFFF"/><rect x="413.5" y="481.5" width="23" height="15" stroke="#000000" stroke-width="1.33333" stroke-miterlimit="8" fill="#FFFFFF"/><rect x="413.5" y="496.5" width="23" height="16" stroke="#000000" stroke-width="1.33333" stroke-miterlimit="8" fill="#FFFFFF"/><rect x="413.5" y="512.5" width="23" height="16" stroke="#000000" stroke-width="1.33333" stroke-miterlimit="8" fill="#FFFFFF"/><rect x="686.5" y="278.5" width="23" height="15" stroke="#000000" stroke-width="1.33333" stroke-miterlimit="8" fill="#FFFFFF"/><rect x="686.5" y="293.5" width="23" height="16" stroke="#000000" stroke-width="1.33333" stroke-miterlimit="8" fill="#FFFFFF"/><rect x="686.5" y="309.5" width="23" height="15" stroke="#000000" stroke-width="1.33333" stroke-miterlimit="8" fill="#FFFFFF"/><rect x="686.5" y="325.5" width="23" height="15" stroke="#000000" stroke-width="1.33333" stroke-miterlimit="8" fill="#FFFFFF"/><rect x="686.5" y="340.5" width="23" height="16" stroke="#000000" stroke-width="1.33333" stroke-miterlimit="8" fill="#FFFFFF"/><rect x="686.5" y="356.5" width="23" height="15" stroke="#000000" stroke-width="1.33333" stroke-miterlimit="8" fill="#FFFFFF"/><rect x="686.5" y="371.5" width="23" height="16" stroke="#000000" stroke-width="1.33333" stroke-miterlimit="8" fill="#FFFFFF"/><rect x="686.5" y="387.5" width="23" height="16" stroke="#000000" stroke-width="1.33333" stroke-miterlimit="8" fill="#FFFFFF"/><rect x="686.5" y="403.5" width="23" height="15" stroke="#000000" stroke-width="1.33333" stroke-miterlimit="8" fill="#FFFFFF"/><rect x="686.5" y="418.5" width="23" height="16" stroke="#000000" stroke-width="1.33333" stroke-miterlimit="8" fill="#FFFFFF"/><rect x="686.5" y="434.5" width="23" height="15" stroke="#000000" stroke-width="1.33333" stroke-miterlimit="8" fill="#FFFFFF"/><rect x="686.5" y="449.5" width="23" height="16" stroke="#000000" stroke-width="1.33333" stroke-miterlimit="8" fill="#FFFFFF"/><rect x="686.5" y="465.5" width="23" height="16" stroke="#000000" stroke-width="1.33333" stroke-miterlimit="8" fill="#FFFFFF"/><rect x="686.5" y="481.5" width="23" height="15" stroke="#000000" stroke-width="1.33333" stroke-miterlimit="8" fill="#FFFFFF"/><rect x="686.5" y="496.5" width="23" height="16" stroke="#000000" stroke-width="1.33333" stroke-miterlimit="8" fill="#FFFFFF"/><rect x="686.5" y="512.5" width="23" height="15" stroke="#000000" stroke-width="1.33333" stroke-miterlimit="8" fill="#FFFFFF"/><rect x="436.5" y="255.5" width="15" height="22" stroke="#000000" stroke-width="1.33333" stroke-miterlimit="8" fill="#FFFFFF"/><rect x="451.5" y="255.5" width="16" height="22" stroke="#000000" stroke-width="1.33333" stroke-miterlimit="8" fill="#FFFFFF"/><rect x="467.5" y="255.5" width="15" height="22" stroke="#000000" stroke-width="1.33333" stroke-miterlimit="8" fill="#FFFFFF"/><rect x="482.5" y="255.5" width="16" height="22" stroke="#000000" stroke-width="1.33333" stroke-miterlimit="8" fill="#FFFFFF"/><rect x="498.5" y="255.5" width="16" height="22" stroke="#000000" stroke-width="1.33333" stroke-miterlimit="8" fill="#FFFFFF"/><rect x="514.5" y="255.5" width="15" height="22" stroke="#000000" stroke-width="1.33333" stroke-miterlimit="8" fill="#FFFFFF"/><rect x="529.5" y="255.5" width="16" height="22" stroke="#000000" stroke-width="1.33333" stroke-miterlimit="8" fill="#FFFFFF"/><rect x="545.5" y="255.5" width="15" height="22" stroke="#000000" stroke-width="1.33333" stroke-miterlimit="8" fill="#FFFFFF"/><rect x="560.5" y="255.5" width="16" height="22" stroke="#000000" stroke-width="1.33333" stroke-miterlimit="8" fill="#FFFFFF"/><rect x="576.5" y="255.5" width="16" height="22" stroke="#000000" stroke-width="1.33333" stroke-miterlimit="8" fill="#FFFFFF"/><rect x="592.5" y="255.5" width="15" height="22" stroke="#000000" stroke-width="1.33333" stroke-miterlimit="8" fill="#FFFFFF"/><rect x="607.5" y="255.5" width="16" height="22" stroke="#000000" stroke-width="1.33333" stroke-miterlimit="8" fill="#FFFFFF"/><rect x="623.5" y="255.5" width="15" height="22" stroke="#000000" stroke-width="1.33333" stroke-miterlimit="8" fill="#FFFFFF"/><rect x="639.5" y="255.5" width="15" height="22" stroke="#000000" stroke-width="1.33333" stroke-miterlimit="8" fill="#FFFFFF"/><rect x="654.5" y="255.5" width="16" height="22" stroke="#000000" stroke-width="1.33333" stroke-miterlimit="8" fill="#FFFFFF"/><rect x="670.5" y="255.5" width="15" height="22" stroke="#000000" stroke-width="1.33333" stroke-miterlimit="8" fill="#FFFFFF"/><text font-family="Arial,Arial_MSFontService,sans-serif" font-weight="400" font-size="19" transform="translate(500.767 274)">V</text><text font-family="Arial,Arial_MSFontService,sans-serif" font-weight="400" font-size="19" transform="translate(546.767 273)">G</text><text font-family="Arial,Arial_MSFontService,sans-serif" font-weight="400" font-size="19" transform="translate(452.1 273)">G</text><text font-family="Arial,Arial_MSFontService,sans-serif" font-weight="400" font-size="19" transform="translate(641.267 274)">V</text><path d="M547 282 547 300" stroke="#CC0000" stroke-width="4" stroke-linejoin="round" stroke-miterlimit="10" fill="none" fill-rule="evenodd"/><path d="M543 283 543 300" stroke="#CC0000" stroke-width="4" stroke-linejoin="round" stroke-miterlimit="10" fill="none" fill-rule="evenodd"/><path d="M517 283 517 299" stroke="#CC0000" stroke-width="4" stroke-linejoin="round" stroke-miterlimit="10" fill="none" fill-rule="evenodd"/><path d="M512 284 512 299" stroke="#CC0000" stroke-width="4" stroke-linejoin="round" stroke-miterlimit="10" fill="none" fill-rule="evenodd"/><path d="M483 282 483 299" stroke="#CC0000" stroke-width="4" stroke-linejoin="round" stroke-miterlimit="10" fill="none" fill-rule="evenodd"/><path d="M477 283 477 299" stroke="#CC0000" stroke-width="4" stroke-linejoin="round" stroke-miterlimit="10" fill="none" fill-rule="evenodd"/><rect x="463" y="387" width="95" height="39" fill="#C0C0C0"/><rect x="413.5" y="528.5" width="22" height="23" stroke="#000000" stroke-width="1.33333" stroke-miterlimit="8" fill="#FFFFFF"/><rect x="686.5" y="528.5" width="23" height="23" stroke="#000000" stroke-width="1.33333" stroke-miterlimit="8" fill="#FFFFFF"/><rect x="686.5" y="255.5" width="23" height="22" stroke="#000000" stroke-width="1.33333" stroke-miterlimit="8" fill="#FFFFFF"/><rect x="413.5" y="255.5" width="22" height="22" stroke="#000000" stroke-width="1.33333" stroke-miterlimit="8" fill="#FFFFFF"/><path d="M0 0 0.000104987 14" stroke="#CC0000" stroke-width="4" stroke-linejoin="round" stroke-miterlimit="10" fill="none" fill-rule="evenodd" transform="matrix(1 0 0 -1 492 522)"/><path d="M488 521 488 509" stroke="#CC0000" stroke-width="4" stroke-linejoin="round" stroke-miterlimit="10" fill="none" fill-rule="evenodd"/><path d="M0 0 1 92" stroke="#000000" stroke-width="5.33333" stroke-linejoin="round" stroke-miterlimit="10" fill="none" fill-rule="evenodd" transform="matrix(-1.83697e-16 -1 -1 1.83697e-16 675.5 420.5)"/><path d="M0 0 0.000104987 14" stroke="#000000" stroke-width="4" stroke-linejoin="round" stroke-miterlimit="10" fill="none" fill-rule="evenodd" transform="matrix(1 0 0 -1 529 522)"/><path d="M525 521 525 508" stroke="#000000" stroke-width="4" stroke-linejoin="round" stroke-miterlimit="10" fill="none" fill-rule="evenodd"/><path d="M0 0 0.000104987 29" stroke="#CC0000" stroke-width="4" stroke-linejoin="round" stroke-miterlimit="10" fill="none" fill-rule="evenodd" transform="matrix(1 0 0 -1 642 441)"/><path d="M637 439 637 413" stroke="#CC0000" stroke-width="4" stroke-linejoin="round" stroke-miterlimit="10" fill="none" fill-rule="evenodd"/><path d="M0 0 0.000104987 31" stroke="#CC0000" stroke-width="4" stroke-linejoin="round" stroke-miterlimit="10" fill="none" fill-rule="evenodd" transform="matrix(1 0 0 -1 607 443)"/><path d="M601 441 601 414" stroke="#CC0000" stroke-width="4" stroke-linejoin="round" stroke-miterlimit="10" fill="none" fill-rule="evenodd"/><path d="M681 322 668 322" stroke="#FFFFFF" stroke-width="4" stroke-linejoin="round" stroke-miterlimit="10" fill="none" fill-rule="evenodd"/><path d="M680 318 668 318" stroke="#000000" stroke-width="4" stroke-linejoin="round" stroke-miterlimit="10" fill="none" fill-rule="evenodd"/><path d="M0 0 0.000104987 15" stroke="#CC0000" stroke-width="4" stroke-linejoin="round" stroke-miterlimit="10" fill="none" fill-rule="evenodd" transform="matrix(1.83697e-16 1 1 -1.83697e-16 443 410)"/><path d="M0 0 0.000104987 13" stroke="#CC0000" stroke-width="4" stroke-linejoin="round" stroke-miterlimit="10" fill="none" fill-rule="evenodd" transform="matrix(1.83697e-16 1 1 -1.83697e-16 444 406)"/><text font-family="Arial,Arial_MSFontService,sans-serif" font-weight="400" font-size="19" transform="matrix(6.12323e-17 1 -1 6.12323e-17 417.667 311)">V</text><text font-family="Arial,Arial_MSFontService,sans-serif" font-weight="400" font-size="19" transform="matrix(6.12323e-17 1 -1 6.12323e-17 416.667 389)">V</text><text font-family="Arial,Arial_MSFontService,sans-serif" font-weight="400" font-size="19" transform="matrix(6.12323e-17 1 -1 6.12323e-17 417.667 467)">V</text><text font-family="Arial,Arial_MSFontService,sans-serif" font-weight="400" font-size="19" transform="matrix(6.12323e-17 1 -1 6.12323e-17 417 420)">G</text><text font-family="Arial,Arial_MSFontService,sans-serif" font-weight="400" font-size="19" transform="matrix(6.12323e-17 1 -1 6.12323e-17 417.5 341)">G</text><text font-family="Arial,Arial_MSFontService,sans-serif" font-weight="400" font-size="19" transform="matrix(-1.83697e-16 -1 1 -1.83697e-16 704 495)">G</text><text font-family="Arial,Arial_MSFontService,sans-serif" font-weight="400" font-size="19" transform="matrix(-1.83697e-16 -1 1 -1.83697e-16 704.167 433)">V</text><text font-family="Arial,Arial_MSFontService,sans-serif" font-weight="400" font-size="19" transform="matrix(-1.83697e-16 -1 1 -1.83697e-16 704.667 323)">V</text><text font-family="Arial,Arial_MSFontService,sans-serif" font-weight="400" font-size="19" transform="matrix(-1.83697e-16 -1 1 -1.83697e-16 704 371)">G</text><text font-family="Arial,Arial_MSFontService,sans-serif" font-weight="400" font-size="19" transform="translate(484.333 547)">V</text><text font-family="Arial,Arial_MSFontService,sans-serif" font-weight="400" font-size="19" transform="translate(562.833 547)">V</text><text font-family="Arial,Arial_MSFontService,sans-serif" font-weight="400" font-size="19" transform="translate(656.333 546)">V</text><text font-family="Arial,Arial_MSFontService,sans-serif" font-weight="400" font-size="19" transform="translate(531.167 547)">G</text><text font-family="Arial,Arial_MSFontService,sans-serif" font-weight="400" font-size="19" transform="translate(452.167 546)">G</text><text font-family="Arial,Arial_MSFontService,sans-serif" font-weight="400" font-size="19" transform="translate(609.167 546)">G</text><rect x="583.5" y="348.5" width="90" height="71" stroke="#CC0000" stroke-width="5.33333" stroke-miterlimit="8" fill="none"/><rect x="589.5" y="354.5" width="92" height="59" stroke="#CC0000" stroke-width="5.33333" stroke-miterlimit="8" fill="none"/><rect x="450.5" y="297.5" width="116" height="86" stroke="#CC0000" stroke-width="5.33333" stroke-miterlimit="8" fill="none"/><rect x="459.5" y="300.5" width="103" height="78" stroke="#CC0000" stroke-width="5.33333" stroke-miterlimit="8" fill="none"/><rect x="572.5" y="291.5" width="101" height="51" stroke="#CC0000" stroke-width="5.33333" stroke-miterlimit="8" fill="none"/><rect x="575.5" y="294.5" width="95" height="43" stroke="#CC0000" stroke-width="5.33333" stroke-miterlimit="8" fill="none"/><rect x="450.5" y="381.5" width="116" height="57" stroke="#CC0000" stroke-width="5.33333" stroke-miterlimit="8" fill="none"/><rect x="459.5" y="376.5" width="103" height="54" stroke="#CC0000" stroke-width="5.33333" stroke-miterlimit="8" fill="none"/><rect x="450.5" y="438.5" width="223" height="76" stroke="#CC0000" stroke-width="5.33333" stroke-miterlimit="8" fill="none"/><rect x="457.5" y="444.5" width="210" height="63" stroke="#CC0000" stroke-width="5.33333" stroke-miterlimit="8" fill="none"/><path d="M0 0 0.000104987 15" stroke="#CC0000" stroke-width="4" stroke-linejoin="round" stroke-miterlimit="10" fill="none" fill-rule="evenodd" transform="matrix(1.83697e-16 1 1 -1.83697e-16 567 393)"/><path d="M0 0 0.000104987 14" stroke="#CC0000" stroke-width="4" stroke-linejoin="round" stroke-miterlimit="10" fill="none" fill-rule="evenodd" transform="matrix(1.83697e-16 1 1 -1.83697e-16 568 389)"/><path d="M395.524 323 449.525 323.857 449.477 326.857 395.476 326ZM449.501 325.357 443.621 317.763 458.5 325.5 443.383 332.761Z" fill="#5F5F5F"/><path d="M576 573.509 575.052 407.508 578.051 407.491 579 573.492ZM576.552 407.5 569.086 413.543 576.5 398.5 584.086 413.457Z" fill="#0000FF"/><rect x="87" y="196" width="524" height="42" fill="#CCCCFF"/><text font-family="Arial,Arial_MSFontService,sans-serif" font-weight="400" font-size="23" transform="translate(106.01 225)">Power</text><text font-family="Arial,Arial_MSFontService,sans-serif" font-weight="400" font-size="23" transform="translate(170.344 225)">-</text><text font-family="Arial,Arial_MSFontService,sans-serif" font-weight="400" font-size="23" transform="translate(177.844 225)">ground distribution for a chip floorplan</text><path d="M560.5 392.5C560.5 386.977 567.664 382.5 576.5 382.5 585.337 382.5 592.5 386.977 592.5 392.5 592.5 398.023 585.337 402.5 576.5 402.5 567.664 402.5 560.5 398.023 560.5 392.5Z" stroke="#0000FF" stroke-width="3" stroke-linecap="square" stroke-linejoin="round" stroke-miterlimit="10" stroke-dasharray="9 3" fill="none" fill-rule="evenodd"/></g></svg>