<svg width="809" height="333" xmlns="http://www.w3.org/2000/svg" xmlns:xlink="http://www.w3.org/1999/xlink" overflow="hidden"><defs><linearGradient x1="358" y1="343" x2="420" y2="343" gradientUnits="userSpaceOnUse" spreadMethod="reflect" id="fill0"><stop offset="0" stop-color="#EAEAEA"/><stop offset="0.00429185" stop-color="#E9E9E9"/><stop offset="0.00858369" stop-color="#E9E9E9"/><stop offset="0.0128755" stop-color="#E9E9E9"/><stop offset="0.0171674" stop-color="#E9E9E9"/><stop offset="0.0214592" stop-color="#E9E9E9"/><stop offset="0.0257511" stop-color="#E9E9E9"/><stop offset="0.0300429" stop-color="#E9E9E9"/><stop offset="0.0343348" stop-color="#E9E9E9"/><stop offset="0.0386266" stop-color="#E9E9E9"/><stop offset="0.0429185" stop-color="#E9E9E9"/><stop offset="0.0472103" stop-color="#E9E9E9"/><stop offset="0.0515021" stop-color="#E9E9E9"/><stop offset="0.055794" stop-color="#E8E8E8"/><stop offset="0.0600858" stop-color="#E8E8E8"/><stop offset="0.0643777" stop-color="#E8E8E8"/><stop offset="0.0686695" stop-color="#E8E8E8"/><stop offset="0.0729614" stop-color="#E8E8E8"/><stop offset="0.0772532" stop-color="#E8E8E8"/><stop offset="0.0815451" stop-color="#E7E7E7"/><stop offset="0.0858369" stop-color="#E7E7E7"/><stop offset="0.0901288" stop-color="#E7E7E7"/><stop offset="0.0944206" stop-color="#E7E7E7"/><stop offset="0.0987124" stop-color="#E6E6E6"/><stop offset="0.103004" stop-color="#E6E6E6"/><stop offset="0.107296" stop-color="#E6E6E6"/><stop offset="0.111588" stop-color="#E6E6E6"/><stop offset="0.11588" stop-color="#E5E5E5"/><stop offset="0.120172" stop-color="#E5E5E5"/><stop offset="0.124464" stop-color="#E5E5E5"/><stop offset="0.128755" stop-color="#E4E4E4"/><stop offset="0.133047" stop-color="#E4E4E4"/><stop offset="0.137339" stop-color="#E4E4E4"/><stop offset="0.141631" stop-color="#E4E4E4"/><stop offset="0.145923" stop-color="#E3E3E3"/><stop offset="0.150215" stop-color="#E3E3E3"/><stop offset="0.154506" stop-color="#E2E2E2"/><stop offset="0.158798" stop-color="#E2E2E2"/><stop offset="0.16309" stop-color="#E2E2E2"/><stop offset="0.167382" stop-color="#E1E1E1"/><stop offset="0.171674" stop-color="#E1E1E1"/><stop offset="0.175966" stop-color="#E0E0E0"/><stop offset="0.180258" stop-color="#E0E0E0"/><stop offset="0.184549" stop-color="#E0E0E0"/><stop offset="0.188841" stop-color="#DFDFDF"/><stop offset="0.193133" stop-color="#DFDFDF"/><stop offset="0.197425" stop-color="#DEDEDE"/><stop offset="0.201717" stop-color="#DEDEDE"/><stop offset="0.206009" stop-color="#DDDDDD"/><stop offset="0.2103" stop-color="#DDDDDD"/><stop offset="0.214592" stop-color="#DCDCDC"/><stop offset="0.218884" stop-color="#DCDCDC"/><stop offset="0.223176" stop-color="#DBDBDB"/><stop offset="0.227468" stop-color="#DBDBDB"/><stop offset="0.23176" stop-color="#DADADA"/><stop offset="0.236051" stop-color="#DADADA"/><stop offset="0.240343" stop-color="#D9D9D9"/><stop offset="0.244635" stop-color="#D9D9D9"/><stop offset="0.248927" stop-color="#D8D8D8"/><stop offset="0.253219" stop-color="#D8D8D8"/><stop offset="0.257511" stop-color="#D7D7D7"/><stop offset="0.261803" stop-color="#D7D7D7"/><stop offset="0.266094" stop-color="#D6D6D6"/><stop offset="0.270386" stop-color="#D5D5D5"/><stop offset="0.274678" stop-color="#D5D5D5"/><stop offset="0.27897" stop-color="#D4D4D4"/><stop offset="0.283262" stop-color="#D4D4D4"/><stop offset="0.287554" stop-color="#D3D3D3"/><stop offset="0.291846" stop-color="#D2D2D2"/><stop offset="0.296137" stop-color="#D2D2D2"/><stop offset="0.300429" stop-color="#D1D1D1"/><stop offset="0.304721" stop-color="#D0D0D0"/><stop offset="0.309013" stop-color="#D0D0D0"/><stop offset="0.313305" stop-color="#CFCFCF"/><stop offset="0.317597" stop-color="#CECECE"/><stop offset="0.321888" stop-color="#CECECE"/><stop offset="0.32618" stop-color="#CDCDCD"/><stop offset="0.330472" stop-color="#CCCCCC"/><stop offset="0.334764" stop-color="#CBCBCB"/><stop offset="0.339056" stop-color="#CBCBCB"/><stop offset="0.343348" stop-color="#CACACA"/><stop offset="0.347639" stop-color="#C9C9C9"/><stop offset="0.351931" stop-color="#C8C8C8"/><stop offset="0.356223" stop-color="#C8C8C8"/><stop offset="0.360515" stop-color="#C7C7C7"/><stop offset="0.364807" stop-color="#C6C6C6"/><stop offset="0.369099" stop-color="#C5C5C5"/><stop offset="0.373391" stop-color="#C5C5C5"/><stop offset="0.377682" stop-color="#C4C4C4"/><stop offset="0.381974" stop-color="#C3C3C3"/><stop offset="0.386266" stop-color="#C2C2C2"/><stop offset="0.390558" stop-color="#C1C1C1"/><stop offset="0.39485" stop-color="#C1C1C1"/><stop offset="0.399142" stop-color="#C0C0C0"/><stop offset="0.403433" stop-color="#BFBFBF"/><stop offset="0.407725" stop-color="#BEBEBE"/><stop offset="0.412017" stop-color="#BDBDBD"/><stop offset="0.416309" stop-color="#BCBCBC"/><stop offset="0.420601" stop-color="#BBBBBB"/><stop offset="0.424893" stop-color="#BABABA"/><stop offset="0.429185" stop-color="#BABABA"/><stop offset="0.433476" stop-color="#B9B9B9"/><stop offset="0.437768" stop-color="#B8B8B8"/><stop offset="0.44206" stop-color="#B7B7B7"/><stop offset="0.446352" stop-color="#B6B6B6"/><stop offset="0.450644" stop-color="#B5B5B5"/><stop offset="0.454936" stop-color="#B4B4B4"/><stop offset="0.459227" stop-color="#B3B3B3"/><stop offset="0.463519" stop-color="#B2B2B2"/><stop offset="0.467811" stop-color="#B1B1B1"/><stop offset="0.472103" stop-color="#B0B0B0"/><stop offset="0.476395" stop-color="#AFAFAF"/><stop offset="0.480687" stop-color="#AEAEAE"/><stop offset="0.484979" stop-color="#ADADAD"/><stop offset="0.48927" stop-color="#ACACAC"/><stop offset="0.493562" stop-color="#ABABAB"/><stop offset="0.497854" stop-color="#AAAAAA"/><stop offset="0.502146" stop-color="#A9A9A9"/><stop offset="0.506438" stop-color="#A8A8A8"/><stop offset="0.51073" stop-color="#A7A7A7"/><stop offset="0.515021" stop-color="#A6A6A6"/><stop offset="0.519313" stop-color="#A5A5A5"/><stop offset="0.523605" stop-color="#A4A4A4"/><stop offset="0.527897" stop-color="#A3A3A3"/><stop offset="0.532189" stop-color="#A2A2A2"/><stop offset="0.536481" stop-color="#A1A1A1"/><stop offset="0.540773" stop-color="#A0A0A0"/><stop offset="0.545064" stop-color="#9F9F9F"/><stop offset="0.549356" stop-color="#9D9D9D"/><stop offset="0.553648" stop-color="#9C9C9C"/><stop offset="0.55794" stop-color="#9B9B9B"/><stop offset="0.562232" stop-color="#9A9A9A"/><stop offset="0.566524" stop-color="#999999"/><stop offset="0.570815" stop-color="#989898"/><stop offset="0.575107" stop-color="#979797"/><stop offset="0.579399" stop-color="#959595"/><stop offset="0.583691" stop-color="#949494"/><stop offset="0.587983" stop-color="#939393"/><stop offset="0.592275" stop-color="#929292"/><stop offset="0.596566" stop-color="#919191"/><stop offset="0.600858" stop-color="#8F8F8F"/><stop offset="0.60515" stop-color="#8E8E8E"/><stop offset="0.609442" stop-color="#8D8D8D"/><stop offset="0.613734" stop-color="#8C8C8C"/><stop offset="0.618026" stop-color="#8B8B8B"/><stop offset="0.622318" stop-color="#898989"/><stop offset="0.626609" stop-color="#888888"/><stop offset="0.630901" stop-color="#878787"/><stop offset="0.635193" stop-color="#868686"/><stop offset="0.639485" stop-color="#848484"/><stop offset="0.643777" stop-color="#838383"/><stop offset="0.648069" stop-color="#828282"/><stop offset="0.65236" stop-color="#808080"/><stop offset="0.656652" stop-color="#7F7F7F"/><stop offset="0.660944" stop-color="#7E7E7E"/><stop offset="0.665236" stop-color="#7D7D7D"/><stop offset="0.669528" stop-color="#7B7B7B"/><stop offset="0.67382" stop-color="#7A7A7A"/><stop offset="0.678112" stop-color="#797979"/><stop offset="0.682403" stop-color="#777777"/><stop offset="0.686695" stop-color="#767676"/><stop offset="0.690987" stop-color="#747474"/><stop offset="0.695279" stop-color="#737373"/><stop offset="0.699571" stop-color="#727272"/><stop offset="0.703863" stop-color="#707070"/><stop offset="0.708154" stop-color="#6F6F6F"/><stop offset="0.712446" stop-color="#6E6E6E"/><stop offset="0.716738" stop-color="#6C6C6C"/><stop offset="0.72103" stop-color="#6B6B6B"/><stop offset="0.725322" stop-color="#696969"/><stop offset="0.729614" stop-color="#686868"/><stop offset="0.733906" stop-color="#666666"/><stop offset="0.738197" stop-color="#656565"/><stop offset="0.742489" stop-color="#646464"/><stop offset="0.746781" stop-color="#626262"/><stop offset="0.751073" stop-color="#616161"/><stop offset="0.755365" stop-color="#5F5F5F"/><stop offset="0.759657" stop-color="#5E5E5E"/><stop offset="0.763949" stop-color="#5C5C5C"/><stop offset="0.76824" stop-color="#5B5B5B"/><stop offset="0.772532" stop-color="#595959"/><stop offset="0.776824" stop-color="#585858"/><stop offset="0.781116" stop-color="#565656"/><stop offset="0.785408" stop-color="#555555"/><stop offset="0.7897" stop-color="#535353"/><stop offset="0.793991" stop-color="#525252"/><stop offset="0.798283" stop-color="#505050"/><stop offset="0.802575" stop-color="#4F4F4F"/><stop offset="0.806867" stop-color="#4D4D4D"/><stop offset="0.811159" stop-color="#4B4B4B"/><stop offset="0.815451" stop-color="#4A4A4A"/><stop offset="0.819743" stop-color="#484848"/><stop offset="0.824034" stop-color="#474747"/><stop offset="0.828326" stop-color="#454545"/><stop offset="0.832618" stop-color="#444444"/><stop offset="0.83691" stop-color="#424242"/><stop offset="0.841202" stop-color="#404040"/><stop offset="0.845494" stop-color="#3F3F3F"/><stop offset="0.849785" stop-color="#3D3D3D"/><stop offset="0.854077" stop-color="#3B3B3B"/><stop offset="0.858369" stop-color="#3A3A3A"/><stop offset="0.862661" stop-color="#383838"/><stop offset="0.866953" stop-color="#363636"/><stop offset="0.871245" stop-color="#353535"/><stop offset="0.875537" stop-color="#333333"/><stop offset="0.879828" stop-color="#313131"/><stop offset="0.88412" stop-color="#303030"/><stop offset="0.888412" stop-color="#2E2E2E"/><stop offset="0.892704" stop-color="#2C2C2C"/><stop offset="0.896996" stop-color="#2B2B2B"/><stop offset="0.901288" stop-color="#292929"/><stop offset="0.905579" stop-color="#272727"/><stop offset="0.909871" stop-color="#252525"/><stop offset="0.914163" stop-color="#242424"/><stop offset="0.918455" stop-color="#222222"/><stop offset="0.922747" stop-color="#202020"/><stop offset="0.927039" stop-color="#1E1E1E"/><stop offset="0.93133" stop-color="#1D1D1D"/><stop offset="0.935622" stop-color="#1B1B1B"/><stop offset="0.939914" stop-color="#191919"/><stop offset="0.944206" stop-color="#171717"/><stop offset="0.948498" stop-color="#161616"/><stop offset="0.95279" stop-color="#141414"/><stop offset="0.957082" stop-color="#121212"/><stop offset="0.961373" stop-color="#101010"/><stop offset="0.965665" stop-color="#0E0E0E"/><stop offset="0.969957" stop-color="#0D0D0D"/><stop offset="0.974249" stop-color="#0B0B0B"/><stop offset="0.978541" stop-color="#090909"/><stop offset="0.982833" stop-color="#070707"/><stop offset="0.987124" stop-color="#050505"/><stop offset="0.991416" stop-color="#030303"/><stop offset="0.995708" stop-color="#010101"/><stop offset="1"/></linearGradient></defs><g transform="translate(-65 -156)"><rect x="524" y="157" width="349" height="332" fill="#CCCCFF"/><path d="M739.5 365.5 857.5 398.5" stroke="#CC0000" stroke-width="1.33333" stroke-linejoin="round" stroke-miterlimit="10" stroke-dasharray="5.33333 4" fill="none" fill-rule="evenodd"/><path d="M739.5 337.5 811.5 339.5" stroke="#CC0000" stroke-width="1.33333" stroke-linejoin="round" stroke-miterlimit="10" stroke-dasharray="5.33333 4" fill="none" fill-rule="evenodd"/><path d="M0 0 2 87" stroke="#CC0000" stroke-width="1.33333" stroke-linejoin="round" stroke-miterlimit="10" stroke-dasharray="5.33333 4" fill="none" fill-rule="evenodd" transform="matrix(1 0 0 -1 739.5 311.5)"/><path d="M0 0 49 58" stroke="#CC0000" stroke-width="1.33333" stroke-linejoin="round" stroke-miterlimit="10" stroke-dasharray="5.33333 4" fill="none" fill-rule="evenodd" transform="matrix(1 0 0 -1 626.5 423.5)"/><path d="M0 0 85 67" stroke="#CC0000" stroke-width="1.33333" stroke-linejoin="round" stroke-miterlimit="10" stroke-dasharray="5.33333 4" fill="none" fill-rule="evenodd" transform="matrix(1 0 0 -1 590.5 405.5)"/><path d="M541.5 289.5 675.5 310.5" stroke="#CC0000" stroke-width="1.33333" stroke-linejoin="round" stroke-miterlimit="10" stroke-dasharray="5.33333 4" fill="none" fill-rule="evenodd"/><path d="M733.5 311.5C733.5 308.186 736.186 305.5 739.5 305.5 742.814 305.5 745.5 308.186 745.5 311.5 745.5 314.814 742.814 317.5 739.5 317.5 736.186 317.5 733.5 314.814 733.5 311.5Z" stroke="#000000" stroke-linejoin="round" stroke-miterlimit="10" fill="#CC0000" fill-rule="evenodd"/><path d="M733.5 338.5C733.5 335.186 736.186 332.5 739.5 332.5 742.814 332.5 745.5 335.186 745.5 338.5 745.5 341.814 742.814 344.5 739.5 344.5 736.186 344.5 733.5 341.814 733.5 338.5Z" stroke="#000000" stroke-linejoin="round" stroke-miterlimit="10" fill="#CC0000" fill-rule="evenodd"/><path d="M733.5 365.5C733.5 362.186 736.186 359.5 739.5 359.5 742.814 359.5 745.5 362.186 745.5 365.5 745.5 368.814 742.814 371.5 739.5 371.5 736.186 371.5 733.5 368.814 733.5 365.5Z" stroke="#000000" stroke-linejoin="round" stroke-miterlimit="10" fill="#CC0000" fill-rule="evenodd"/><path d="M669.5 311.5C669.5 308.186 672.186 305.5 675.5 305.5 678.814 305.5 681.5 308.186 681.5 311.5 681.5 314.814 678.814 317.5 675.5 317.5 672.186 317.5 669.5 314.814 669.5 311.5Z" stroke="#000000" stroke-linejoin="round" stroke-miterlimit="10" fill="#CC0000" fill-rule="evenodd"/><path d="M669.5 338.5C669.5 335.186 672.186 332.5 675.5 332.5 678.814 332.5 681.5 335.186 681.5 338.5 681.5 341.814 678.814 344.5 675.5 344.5 672.186 344.5 669.5 341.814 669.5 338.5Z" stroke="#000000" stroke-linejoin="round" stroke-miterlimit="10" fill="#CC0000" fill-rule="evenodd"/><path d="M669.5 365.5C669.5 362.186 672.186 359.5 675.5 359.5 678.814 359.5 681.5 362.186 681.5 365.5 681.5 368.814 678.814 371.5 675.5 371.5 672.186 371.5 669.5 368.814 669.5 365.5Z" stroke="#000000" stroke-linejoin="round" stroke-miterlimit="10" fill="#CC0000" fill-rule="evenodd"/><path d="M536.5 289C536.5 285.41 539.41 282.5 543 282.5 546.59 282.5 549.5 285.41 549.5 289 549.5 292.59 546.59 295.5 543 295.5 539.41 295.5 536.5 292.59 536.5 289Z" stroke="#000000" stroke-linejoin="round" stroke-miterlimit="10" fill="#1860AB" fill-rule="evenodd"/><rect x="682.5" y="302.5" width="50" height="76" stroke="#000000" stroke-miterlimit="8" fill="#808080"/><path d="M358 322 404.5 322 404.5 301 420 343 404.5 385 404.5 364 358 364Z" fill="url(#fill0)" fill-rule="evenodd"/><text font-family="Arial,Arial_MSFontService,sans-serif" font-weight="400" font-size="23" transform="translate(551.935 190)">Final pin assignment</text><path d="M163.5 324.5 94.5001 312.5" stroke="#000000" stroke-linejoin="round" stroke-miterlimit="10" fill="none" fill-rule="evenodd"/><path d="M155.5 343.5 101.5 390.5" stroke="#000000" stroke-linejoin="round" stroke-miterlimit="10" fill="none" fill-rule="evenodd"/><path d="M162.5 363.5 121.5 416.5" stroke="#000000" stroke-linejoin="round" stroke-miterlimit="10" fill="none" fill-rule="evenodd"/><path d="M0 0 3 70" stroke="#000000" stroke-linejoin="round" stroke-miterlimit="10" fill="none" fill-rule="evenodd" transform="matrix(-1 0 0 1 207.5 254.5)"/><path d="M89.5001 345C89.5001 292.806 131.806 250.5 184 250.5 236.194 250.5 278.5 292.806 278.5 345 278.5 397.194 236.194 439.5 184 439.5 131.806 439.5 89.5001 397.194 89.5001 345ZM155.554 345C155.554 360.706 168.294 373.446 184 373.446 199.706 373.446 212.446 360.706 212.446 345 212.446 329.294 199.706 316.554 184 316.554 168.294 316.554 155.554 329.294 155.554 345Z" stroke="#000000" stroke-linejoin="round" stroke-miterlimit="10" stroke-dasharray="4 3" fill="none" fill-rule="evenodd"/><path d="M198.5 324.5C198.5 321.186 201.186 318.5 204.5 318.5 207.814 318.5 210.5 321.186 210.5 324.5 210.5 327.814 207.814 330.5 204.5 330.5 201.186 330.5 198.5 327.814 198.5 324.5Z" stroke="#000000" stroke-linejoin="round" stroke-miterlimit="10" fill-rule="evenodd"/><path d="M206.5 344.5C206.5 341.186 209.186 338.5 212.5 338.5 215.814 338.5 218.5 341.186 218.5 344.5 218.5 347.814 215.814 350.5 212.5 350.5 209.186 350.5 206.5 347.814 206.5 344.5Z" stroke="#000000" stroke-linejoin="round" stroke-miterlimit="10" fill-rule="evenodd"/><path d="M198.5 363.5C198.5 360.186 201.186 357.5 204.5 357.5 207.814 357.5 210.5 360.186 210.5 363.5 210.5 366.814 207.814 369.5 204.5 369.5 201.186 369.5 198.5 366.814 198.5 363.5Z" stroke="#000000" stroke-linejoin="round" stroke-miterlimit="10" fill-rule="evenodd"/><path d="M157.5 324.5C157.5 321.186 160.186 318.5 163.5 318.5 166.814 318.5 169.5 321.186 169.5 324.5 169.5 327.814 166.814 330.5 163.5 330.5 160.186 330.5 157.5 327.814 157.5 324.5Z" stroke="#000000" stroke-linejoin="round" stroke-miterlimit="10" fill-rule="evenodd"/><path d="M149.5 344.5C149.5 341.186 152.186 338.5 155.5 338.5 158.814 338.5 161.5 341.186 161.5 344.5 161.5 347.814 158.814 350.5 155.5 350.5 152.186 350.5 149.5 347.814 149.5 344.5Z" stroke="#000000" stroke-linejoin="round" stroke-miterlimit="10" fill-rule="evenodd"/><path d="M157.5 363.5C157.5 360.186 160.186 357.5 163.5 357.5 166.814 357.5 169.5 360.186 169.5 363.5 169.5 366.814 166.814 369.5 163.5 369.5 160.186 369.5 157.5 366.814 157.5 363.5Z" stroke="#000000" stroke-linejoin="round" stroke-miterlimit="10" fill-rule="evenodd"/><path d="M202.5 254.5C202.5 251.186 205.186 248.5 208.5 248.5 211.814 248.5 214.5 251.186 214.5 254.5 214.5 257.814 211.814 260.5 208.5 260.5 205.186 260.5 202.5 257.814 202.5 254.5Z" stroke="#000000" stroke-linejoin="round" stroke-miterlimit="10" fill-rule="evenodd"/><path d="M115.5 416.5C115.5 413.186 118.186 410.5 121.5 410.5 124.814 410.5 127.5 413.186 127.5 416.5 127.5 419.814 124.814 422.5 121.5 422.5 118.186 422.5 115.5 419.814 115.5 416.5Z" stroke="#000000" stroke-linejoin="round" stroke-miterlimit="10" fill-rule="evenodd"/><path d="M96.5001 391.5C96.5001 388.186 99.1863 385.5 102.5 385.5 105.814 385.5 108.5 388.186 108.5 391.5 108.5 394.814 105.814 397.5 102.5 397.5 99.1863 397.5 96.5001 394.814 96.5001 391.5Z" stroke="#000000" stroke-linejoin="round" stroke-miterlimit="10" fill-rule="evenodd"/><path d="M89.5001 313.5C89.5001 310.186 92.1863 307.5 95.5001 307.5 98.8138 307.5 101.5 310.186 101.5 313.5 101.5 316.814 98.8138 319.5 95.5001 319.5 92.1863 319.5 89.5001 316.814 89.5001 313.5Z" stroke="#000000" stroke-linejoin="round" stroke-miterlimit="10" fill-rule="evenodd"/><path d="M210.5 342.5 281.5 344.5" stroke="#000000" stroke-linejoin="round" stroke-miterlimit="10" fill="none" fill-rule="evenodd"/><path d="M204.5 363.5 269.5 387.5" stroke="#000000" stroke-linejoin="round" stroke-miterlimit="10" fill="none" fill-rule="evenodd"/><path d="M272.5 345.5C272.5 342.186 275.41 339.5 279 339.5 282.59 339.5 285.5 342.186 285.5 345.5 285.5 348.814 282.59 351.5 279 351.5 275.41 351.5 272.5 348.814 272.5 345.5Z" stroke="#000000" stroke-linejoin="round" stroke-miterlimit="10" fill-rule="evenodd"/><path d="M261.5 388.5C261.5 385.186 264.186 382.5 267.5 382.5 270.814 382.5 273.5 385.186 273.5 388.5 273.5 391.814 270.814 394.5 267.5 394.5 264.186 394.5 261.5 391.814 261.5 388.5Z" stroke="#000000" stroke-linejoin="round" stroke-miterlimit="10" fill-rule="evenodd"/><path d="M584.5 405.5C584.5 402.186 587.186 399.5 590.5 399.5 593.814 399.5 596.5 402.186 596.5 405.5 596.5 408.814 593.814 411.5 590.5 411.5 587.186 411.5 584.5 408.814 584.5 405.5Z" stroke="#000000" stroke-linejoin="round" stroke-miterlimit="10" fill="#1860AB" fill-rule="evenodd"/><path d="M622.5 424.5C622.5 421.186 625.186 418.5 628.5 418.5 631.814 418.5 634.5 421.186 634.5 424.5 634.5 427.814 631.814 430.5 628.5 430.5 625.186 430.5 622.5 427.814 622.5 424.5Z" stroke="#000000" stroke-linejoin="round" stroke-miterlimit="10" fill="#1860AB" fill-rule="evenodd"/><path d="M805.5 338.5C805.5 335.186 808.186 332.5 811.5 332.5 814.814 332.5 817.5 335.186 817.5 338.5 817.5 341.814 814.814 344.5 811.5 344.5 808.186 344.5 805.5 341.814 805.5 338.5Z" stroke="#000000" stroke-linejoin="round" stroke-miterlimit="10" fill="#1860AB" fill-rule="evenodd"/><path d="M850.5 398.5C850.5 395.186 853.186 392.5 856.5 392.5 859.814 392.5 862.5 395.186 862.5 398.5 862.5 401.814 859.814 404.5 856.5 404.5 853.186 404.5 850.5 401.814 850.5 398.5Z" stroke="#000000" stroke-linejoin="round" stroke-miterlimit="10" fill="#1860AB" fill-rule="evenodd"/><path d="M734.5 230.5C734.5 227.186 737.186 224.5 740.5 224.5 743.814 224.5 746.5 227.186 746.5 230.5 746.5 233.814 743.814 236.5 740.5 236.5 737.186 236.5 734.5 233.814 734.5 230.5Z" stroke="#000000" stroke-linejoin="round" stroke-miterlimit="10" fill="#1860AB" fill-rule="evenodd"/><text font-family="Arial,Arial_MSFontService,sans-serif" font-weight="400" font-size="23" transform="translate(84.7835 192)">(4) Best mapping</text></g></svg>