<svg width="854" height="480" xmlns="http://www.w3.org/2000/svg" xmlns:xlink="http://www.w3.org/1999/xlink" overflow="hidden"><defs><linearGradient x1="388" y1="440.5" x2="436" y2="440.5" gradientUnits="userSpaceOnUse" spreadMethod="reflect" id="fill0"><stop offset="0" stop-color="#EAEAEA"/><stop offset="0.00429185" stop-color="#E9E9E9"/><stop offset="0.00858369" stop-color="#E9E9E9"/><stop offset="0.0128755" stop-color="#E9E9E9"/><stop offset="0.0171674" stop-color="#E9E9E9"/><stop offset="0.0214592" stop-color="#E9E9E9"/><stop offset="0.0257511" stop-color="#E9E9E9"/><stop offset="0.0300429" stop-color="#E9E9E9"/><stop offset="0.0343348" stop-color="#E9E9E9"/><stop offset="0.0386266" stop-color="#E9E9E9"/><stop offset="0.0429185" stop-color="#E9E9E9"/><stop offset="0.0472103" stop-color="#E9E9E9"/><stop offset="0.0515021" stop-color="#E9E9E9"/><stop offset="0.055794" stop-color="#E8E8E8"/><stop offset="0.0600858" stop-color="#E8E8E8"/><stop offset="0.0643777" stop-color="#E8E8E8"/><stop offset="0.0686695" stop-color="#E8E8E8"/><stop offset="0.0729614" stop-color="#E8E8E8"/><stop offset="0.0772532" stop-color="#E8E8E8"/><stop offset="0.0815451" stop-color="#E7E7E7"/><stop offset="0.0858369" stop-color="#E7E7E7"/><stop offset="0.0901288" stop-color="#E7E7E7"/><stop offset="0.0944206" stop-color="#E7E7E7"/><stop offset="0.0987124" stop-color="#E6E6E6"/><stop offset="0.103004" stop-color="#E6E6E6"/><stop offset="0.107296" stop-color="#E6E6E6"/><stop offset="0.111588" stop-color="#E6E6E6"/><stop offset="0.11588" stop-color="#E5E5E5"/><stop offset="0.120172" stop-color="#E5E5E5"/><stop offset="0.124464" stop-color="#E5E5E5"/><stop offset="0.128755" stop-color="#E4E4E4"/><stop offset="0.133047" stop-color="#E4E4E4"/><stop offset="0.137339" stop-color="#E4E4E4"/><stop offset="0.141631" stop-color="#E4E4E4"/><stop offset="0.145923" stop-color="#E3E3E3"/><stop offset="0.150215" stop-color="#E3E3E3"/><stop offset="0.154506" stop-color="#E2E2E2"/><stop offset="0.158798" stop-color="#E2E2E2"/><stop offset="0.16309" stop-color="#E2E2E2"/><stop offset="0.167382" stop-color="#E1E1E1"/><stop offset="0.171674" stop-color="#E1E1E1"/><stop offset="0.175966" stop-color="#E0E0E0"/><stop offset="0.180258" stop-color="#E0E0E0"/><stop offset="0.184549" stop-color="#E0E0E0"/><stop offset="0.188841" stop-color="#DFDFDF"/><stop offset="0.193133" stop-color="#DFDFDF"/><stop offset="0.197425" stop-color="#DEDEDE"/><stop offset="0.201717" stop-color="#DEDEDE"/><stop offset="0.206009" stop-color="#DDDDDD"/><stop offset="0.2103" stop-color="#DDDDDD"/><stop offset="0.214592" stop-color="#DCDCDC"/><stop offset="0.218884" stop-color="#DCDCDC"/><stop offset="0.223176" stop-color="#DBDBDB"/><stop offset="0.227468" stop-color="#DBDBDB"/><stop offset="0.23176" stop-color="#DADADA"/><stop offset="0.236051" stop-color="#DADADA"/><stop offset="0.240343" stop-color="#D9D9D9"/><stop offset="0.244635" stop-color="#D9D9D9"/><stop offset="0.248927" stop-color="#D8D8D8"/><stop offset="0.253219" stop-color="#D8D8D8"/><stop offset="0.257511" stop-color="#D7D7D7"/><stop offset="0.261803" stop-color="#D7D7D7"/><stop offset="0.266094" stop-color="#D6D6D6"/><stop offset="0.270386" stop-color="#D5D5D5"/><stop offset="0.274678" stop-color="#D5D5D5"/><stop offset="0.27897" stop-color="#D4D4D4"/><stop offset="0.283262" stop-color="#D4D4D4"/><stop offset="0.287554" stop-color="#D3D3D3"/><stop offset="0.291846" stop-color="#D2D2D2"/><stop offset="0.296137" stop-color="#D2D2D2"/><stop offset="0.300429" stop-color="#D1D1D1"/><stop offset="0.304721" stop-color="#D0D0D0"/><stop offset="0.309013" stop-color="#D0D0D0"/><stop offset="0.313305" stop-color="#CFCFCF"/><stop offset="0.317597" stop-color="#CECECE"/><stop offset="0.321888" stop-color="#CECECE"/><stop offset="0.32618" stop-color="#CDCDCD"/><stop offset="0.330472" stop-color="#CCCCCC"/><stop offset="0.334764" stop-color="#CBCBCB"/><stop offset="0.339056" stop-color="#CBCBCB"/><stop offset="0.343348" stop-color="#CACACA"/><stop offset="0.347639" stop-color="#C9C9C9"/><stop offset="0.351931" stop-color="#C8C8C8"/><stop offset="0.356223" stop-color="#C8C8C8"/><stop offset="0.360515" stop-color="#C7C7C7"/><stop offset="0.364807" stop-color="#C6C6C6"/><stop offset="0.369099" stop-color="#C5C5C5"/><stop offset="0.373391" stop-color="#C5C5C5"/><stop offset="0.377682" stop-color="#C4C4C4"/><stop offset="0.381974" stop-color="#C3C3C3"/><stop offset="0.386266" stop-color="#C2C2C2"/><stop offset="0.390558" stop-color="#C1C1C1"/><stop offset="0.39485" stop-color="#C1C1C1"/><stop offset="0.399142" stop-color="#C0C0C0"/><stop offset="0.403433" stop-color="#BFBFBF"/><stop offset="0.407725" stop-color="#BEBEBE"/><stop offset="0.412017" stop-color="#BDBDBD"/><stop offset="0.416309" stop-color="#BCBCBC"/><stop offset="0.420601" stop-color="#BBBBBB"/><stop offset="0.424893" stop-color="#BABABA"/><stop offset="0.429185" stop-color="#BABABA"/><stop offset="0.433476" stop-color="#B9B9B9"/><stop offset="0.437768" stop-color="#B8B8B8"/><stop offset="0.44206" stop-color="#B7B7B7"/><stop offset="0.446352" stop-color="#B6B6B6"/><stop offset="0.450644" stop-color="#B5B5B5"/><stop offset="0.454936" stop-color="#B4B4B4"/><stop offset="0.459227" stop-color="#B3B3B3"/><stop offset="0.463519" stop-color="#B2B2B2"/><stop offset="0.467811" stop-color="#B1B1B1"/><stop offset="0.472103" stop-color="#B0B0B0"/><stop offset="0.476395" stop-color="#AFAFAF"/><stop offset="0.480687" stop-color="#AEAEAE"/><stop offset="0.484979" stop-color="#ADADAD"/><stop offset="0.48927" stop-color="#ACACAC"/><stop offset="0.493562" stop-color="#ABABAB"/><stop offset="0.497854" stop-color="#AAAAAA"/><stop offset="0.502146" stop-color="#A9A9A9"/><stop offset="0.506438" stop-color="#A8A8A8"/><stop offset="0.51073" stop-color="#A7A7A7"/><stop offset="0.515021" stop-color="#A6A6A6"/><stop offset="0.519313" stop-color="#A5A5A5"/><stop offset="0.523605" stop-color="#A4A4A4"/><stop offset="0.527897" stop-color="#A3A3A3"/><stop offset="0.532189" stop-color="#A2A2A2"/><stop offset="0.536481" stop-color="#A1A1A1"/><stop offset="0.540773" stop-color="#A0A0A0"/><stop offset="0.545064" stop-color="#9F9F9F"/><stop offset="0.549356" stop-color="#9D9D9D"/><stop offset="0.553648" stop-color="#9C9C9C"/><stop offset="0.55794" stop-color="#9B9B9B"/><stop offset="0.562232" stop-color="#9A9A9A"/><stop offset="0.566524" stop-color="#999999"/><stop offset="0.570815" stop-color="#989898"/><stop offset="0.575107" stop-color="#979797"/><stop offset="0.579399" stop-color="#959595"/><stop offset="0.583691" stop-color="#949494"/><stop offset="0.587983" stop-color="#939393"/><stop offset="0.592275" stop-color="#929292"/><stop offset="0.596566" stop-color="#919191"/><stop offset="0.600858" stop-color="#8F8F8F"/><stop offset="0.60515" stop-color="#8E8E8E"/><stop offset="0.609442" stop-color="#8D8D8D"/><stop offset="0.613734" stop-color="#8C8C8C"/><stop offset="0.618026" stop-color="#8B8B8B"/><stop offset="0.622318" stop-color="#898989"/><stop offset="0.626609" stop-color="#888888"/><stop offset="0.630901" stop-color="#878787"/><stop offset="0.635193" stop-color="#868686"/><stop offset="0.639485" stop-color="#848484"/><stop offset="0.643777" stop-color="#838383"/><stop offset="0.648069" stop-color="#828282"/><stop offset="0.65236" stop-color="#808080"/><stop offset="0.656652" stop-color="#7F7F7F"/><stop offset="0.660944" stop-color="#7E7E7E"/><stop offset="0.665236" stop-color="#7D7D7D"/><stop offset="0.669528" stop-color="#7B7B7B"/><stop offset="0.67382" stop-color="#7A7A7A"/><stop offset="0.678112" stop-color="#797979"/><stop offset="0.682403" stop-color="#777777"/><stop offset="0.686695" stop-color="#767676"/><stop offset="0.690987" stop-color="#747474"/><stop offset="0.695279" stop-color="#737373"/><stop offset="0.699571" stop-color="#727272"/><stop offset="0.703863" stop-color="#707070"/><stop offset="0.708154" stop-color="#6F6F6F"/><stop offset="0.712446" stop-color="#6E6E6E"/><stop offset="0.716738" stop-color="#6C6C6C"/><stop offset="0.72103" stop-color="#6B6B6B"/><stop offset="0.725322" stop-color="#696969"/><stop offset="0.729614" stop-color="#686868"/><stop offset="0.733906" stop-color="#666666"/><stop offset="0.738197" stop-color="#656565"/><stop offset="0.742489" stop-color="#646464"/><stop offset="0.746781" stop-color="#626262"/><stop offset="0.751073" stop-color="#616161"/><stop offset="0.755365" stop-color="#5F5F5F"/><stop offset="0.759657" stop-color="#5E5E5E"/><stop offset="0.763949" stop-color="#5C5C5C"/><stop offset="0.76824" stop-color="#5B5B5B"/><stop offset="0.772532" stop-color="#595959"/><stop offset="0.776824" stop-color="#585858"/><stop offset="0.781116" stop-color="#565656"/><stop offset="0.785408" stop-color="#555555"/><stop offset="0.7897" stop-color="#535353"/><stop offset="0.793991" stop-color="#525252"/><stop offset="0.798283" stop-color="#505050"/><stop offset="0.802575" stop-color="#4F4F4F"/><stop offset="0.806867" stop-color="#4D4D4D"/><stop offset="0.811159" stop-color="#4B4B4B"/><stop offset="0.815451" stop-color="#4A4A4A"/><stop offset="0.819743" stop-color="#484848"/><stop offset="0.824034" stop-color="#474747"/><stop offset="0.828326" stop-color="#454545"/><stop offset="0.832618" stop-color="#444444"/><stop offset="0.83691" stop-color="#424242"/><stop offset="0.841202" stop-color="#404040"/><stop offset="0.845494" stop-color="#3F3F3F"/><stop offset="0.849785" stop-color="#3D3D3D"/><stop offset="0.854077" stop-color="#3B3B3B"/><stop offset="0.858369" stop-color="#3A3A3A"/><stop offset="0.862661" stop-color="#383838"/><stop offset="0.866953" stop-color="#363636"/><stop offset="0.871245" stop-color="#353535"/><stop offset="0.875537" stop-color="#333333"/><stop offset="0.879828" stop-color="#313131"/><stop offset="0.88412" stop-color="#303030"/><stop offset="0.888412" stop-color="#2E2E2E"/><stop offset="0.892704" stop-color="#2C2C2C"/><stop offset="0.896996" stop-color="#2B2B2B"/><stop offset="0.901288" stop-color="#292929"/><stop offset="0.905579" stop-color="#272727"/><stop offset="0.909871" stop-color="#252525"/><stop offset="0.914163" stop-color="#242424"/><stop offset="0.918455" stop-color="#222222"/><stop offset="0.922747" stop-color="#202020"/><stop offset="0.927039" stop-color="#1E1E1E"/><stop offset="0.93133" stop-color="#1D1D1D"/><stop offset="0.935622" stop-color="#1B1B1B"/><stop offset="0.939914" stop-color="#191919"/><stop offset="0.944206" stop-color="#171717"/><stop offset="0.948498" stop-color="#161616"/><stop offset="0.95279" stop-color="#141414"/><stop offset="0.957082" stop-color="#121212"/><stop offset="0.961373" stop-color="#101010"/><stop offset="0.965665" stop-color="#0E0E0E"/><stop offset="0.969957" stop-color="#0D0D0D"/><stop offset="0.974249" stop-color="#0B0B0B"/><stop offset="0.978541" stop-color="#090909"/><stop offset="0.982833" stop-color="#070707"/><stop offset="0.987124" stop-color="#050505"/><stop offset="0.991416" stop-color="#030303"/><stop offset="0.995708" stop-color="#010101"/><stop offset="1"/></linearGradient></defs><g transform="translate(-26 -110)"><rect x="119.5" y="324.5" width="232" height="234" stroke="#000000" stroke-miterlimit="8" fill="#DDDDDD"/><path d="M864.5 298.5 864.5 568.5" stroke="#000000" stroke-linejoin="round" stroke-miterlimit="10" fill="none" fill-rule="evenodd"/><path d="M737.5 298.5 737.5 488.5" stroke="#000000" stroke-linejoin="round" stroke-miterlimit="10" fill="none" fill-rule="evenodd"/><path d="M623.5 298.5 623.5 345.5" stroke="#000000" stroke-linejoin="round" stroke-miterlimit="10" fill="none" fill-rule="evenodd"/><path d="M622.5 394.5 622.5 489.5" stroke="#000000" stroke-linejoin="round" stroke-miterlimit="10" fill="none" fill-rule="evenodd"/><path d="M573.5 441.5 573.5 473.5" stroke="#000000" stroke-linejoin="round" stroke-miterlimit="10" fill="none" fill-rule="evenodd"/><path d="M514.5 575.5 862.5 575.5" stroke="#000000" stroke-linejoin="round" stroke-miterlimit="10" fill="none" fill-rule="evenodd"/><path d="M514.5 484.5 862.5 484.5" stroke="#000000" stroke-linejoin="round" stroke-miterlimit="10" fill="none" fill-rule="evenodd"/><path d="M514.5 437.5 625.5 437.5" stroke="#000000" stroke-linejoin="round" stroke-miterlimit="10" fill="none" fill-rule="evenodd"/><path d="M515.5 346.5 737.5 346.5" stroke="#000000" stroke-linejoin="round" stroke-miterlimit="10" fill="none" fill-rule="evenodd"/><path d="M514.5 302.5 862.5 302.5" stroke="#000000" stroke-linejoin="round" stroke-miterlimit="10" fill="none" fill-rule="evenodd"/><path d="M515.5 298.5 515.5 568.5" stroke="#000000" stroke-linejoin="round" stroke-miterlimit="10" fill="none" fill-rule="evenodd"/><path d="M216.5 455.5 216.5 514.5 216.5 455.5Z" stroke="#000000" stroke-width="0" stroke-linejoin="round" stroke-miterlimit="10" fill="none" fill-rule="evenodd"/><rect x="169.5" y="509.5" width="162" height="23" stroke="#A6A6A6" stroke-width="0" stroke-miterlimit="8" fill="#A6A6A6"/><path d="M0 0 1 233" stroke="#000000" stroke-width="0" stroke-linejoin="round" stroke-miterlimit="10" fill="none" fill-rule="evenodd" transform="matrix(1 0 0 -1 169.5 557.5)"/><path d="M119.5 424.5 223.5 425.5" stroke="#000000" stroke-width="0" stroke-linejoin="round" stroke-miterlimit="10" fill="none" fill-rule="evenodd"/><path d="M169.5 425.255 169.5 390.5 239.5 390.5 239.5 456.5 217.1 456.5 217.1 403.489 191.2 403.489 191.2 424.553 169.5 424.553 169.5 425.255Z" stroke="#A6A6A6" stroke-width="0" stroke-linejoin="round" stroke-miterlimit="10" fill="#A6A6A6" fill-rule="evenodd"/><path d="M169.5 425.255 169.5 390.5 239.5 390.5 239.5 456.5 217.1 456.5 217.1 403.489 191.2 403.489 191.2 424.553 169.5 424.553" stroke="#000000" stroke-width="0" stroke-linejoin="round" stroke-miterlimit="10" fill="none" fill-rule="evenodd"/><path d="M119.5 390.5 261.5 390.5 119.5 390.5Z" stroke="#000000" stroke-width="0" stroke-linejoin="round" stroke-miterlimit="10" fill="none" fill-rule="evenodd"/><path d="M239.5 324.5 239.5 508.5 239.5 324.5Z" stroke="#000000" stroke-width="0" stroke-linejoin="round" stroke-miterlimit="10" fill="none" fill-rule="evenodd"/><path d="M191.5 508.5 190.5 424.5 191.5 508.5Z" stroke="#A6A6A6" stroke-width="0" stroke-linejoin="round" stroke-miterlimit="10" fill="#A6A6A6" fill-rule="evenodd"/><path d="M191.5 508.5 190.5 424.5" stroke="#000000" stroke-width="0" stroke-linejoin="round" stroke-miterlimit="10" fill="none" fill-rule="evenodd"/><text font-family="Arial,Arial_MSFontService,sans-serif" font-weight="400" font-size="20" transform="translate(136.83 378)">2</text><text font-family="Arial,Arial_MSFontService,sans-serif" font-weight="400" font-size="20" transform="translate(136.164 415)">3</text><text font-family="Arial,Arial_MSFontService,sans-serif" font-weight="400" font-size="20" transform="translate(137.497 450)">4</text><text font-family="Arial,Arial_MSFontService,sans-serif" font-weight="400" font-size="20" transform="translate(136.164 493)">5</text><text font-family="Arial,Arial_MSFontService,sans-serif" font-weight="400" font-size="20" transform="translate(136.164 529)">6</text><text font-family="Arial,Arial_MSFontService,sans-serif" font-weight="400" font-size="20" transform="translate(136.83 552)">7</text><text font-family="Arial,Arial_MSFontService,sans-serif" font-weight="400" font-size="20" transform="translate(200.997 347)">8</text><text font-family="Arial,Arial_MSFontService,sans-serif" font-weight="400" font-size="20" transform="translate(200.997 379)">9</text><text font-family="Arial,Arial_MSFontService,sans-serif" font-weight="400" font-size="20" transform="translate(191.997 421)">10</text><text font-family="Arial,Arial_MSFontService,sans-serif" font-weight="400" font-size="20" transform="translate(167.997 449)">11</text><text font-family="Arial,Arial_MSFontService,sans-serif" font-weight="400" font-size="20" transform="translate(190.664 449)">12</text><text font-family="Arial,Arial_MSFontService,sans-serif" font-weight="400" font-size="20" transform="translate(166.997 492)">13</text><text font-family="Arial,Arial_MSFontService,sans-serif" font-weight="400" font-size="20" transform="translate(191.997 492)">14</text><text font-family="Arial,Arial_MSFontService,sans-serif" font-weight="400" font-size="20" transform="translate(216.164 492)">15</text><text font-family="Arial,Arial_MSFontService,sans-serif" font-weight="400" font-size="20" transform="translate(217.164 554)">16</text><text font-family="Arial,Arial_MSFontService,sans-serif" font-weight="400" font-size="20" transform="translate(239.497 348)">17</text><text font-family="Arial,Arial_MSFontService,sans-serif" font-weight="400" font-size="20" transform="translate(236.83 379)">18</text><text font-family="Arial,Arial_MSFontService,sans-serif" font-weight="400" font-size="20" transform="translate(237.664 427)">19</text><text font-family="Arial,Arial_MSFontService,sans-serif" font-weight="400" font-size="20" transform="translate(240.997 492)">20</text><text font-family="Arial,Arial_MSFontService,sans-serif" font-weight="400" font-size="20" transform="translate(282.33 348)">21</text><text font-family="Arial,Arial_MSFontService,sans-serif" font-weight="400" font-size="20" transform="translate(282.164 491)">22</text><text font-family="Arial,Arial_MSFontService,sans-serif" font-weight="400" font-size="20" transform="translate(329.83 348)">23</text><text font-family="Arial,Arial_MSFontService,sans-serif" font-weight="400" font-size="20" transform="translate(329.164 409)">24</text><text font-family="Arial,Arial_MSFontService,sans-serif" font-weight="400" font-size="20" transform="translate(330.33 491)">25</text><text font-family="Arial,Arial_MSFontService,sans-serif" font-weight="400" font-size="20" transform="translate(330.497 529)">26</text><text font-family="Arial,Arial_MSFontService,sans-serif" font-weight="400" font-size="20" transform="translate(329.164 553)">27</text><text font-family="Arial,Arial_MSFontService,sans-serif" font-weight="400" font-size="20" transform="translate(485.497 299)">1</text><text font-family="Arial,Arial_MSFontService,sans-serif" font-weight="400" font-size="20" transform="translate(485.83 343)">2</text><text font-family="Arial,Arial_MSFontService,sans-serif" font-weight="400" font-size="20" transform="translate(486.164 384)">3</text><text font-family="Arial,Arial_MSFontService,sans-serif" font-weight="400" font-size="20" transform="translate(486.997 436)">4</text><text font-family="Arial,Arial_MSFontService,sans-serif" font-weight="400" font-size="20" transform="translate(485.497 481)">5</text><text font-family="Arial,Arial_MSFontService,sans-serif" font-weight="400" font-size="20" transform="translate(486.164 523)">6</text><text font-family="Arial,Arial_MSFontService,sans-serif" font-weight="400" font-size="20" transform="translate(486.83 569)">7</text><text font-family="Arial,Arial_MSFontService,sans-serif" font-weight="400" font-size="20" transform="translate(596.664 297)">8</text><text font-family="Arial,Arial_MSFontService,sans-serif" font-weight="400" font-size="20" transform="translate(595.664 339)">9</text><text font-family="Arial,Arial_MSFontService,sans-serif" font-weight="400" font-size="20" transform="translate(585.164 387)">10</text><text font-family="Arial,Arial_MSFontService,sans-serif" font-weight="400" font-size="20" transform="translate(537.664 427)">11</text><text font-family="Arial,Arial_MSFontService,sans-serif" font-weight="400" font-size="20" transform="translate(585.164 425)">12</text><text font-family="Arial,Arial_MSFontService,sans-serif" font-weight="400" font-size="20" transform="translate(536.497 473)">13</text><text font-family="Arial,Arial_MSFontService,sans-serif" font-weight="400" font-size="20" transform="translate(588.164 473)">14</text><text font-family="Arial,Arial_MSFontService,sans-serif" font-weight="400" font-size="20" transform="translate(644.164 467)">15</text><text font-family="Arial,Arial_MSFontService,sans-serif" font-weight="400" font-size="20" transform="translate(633.33 566)">16</text><text font-family="Arial,Arial_MSFontService,sans-serif" font-weight="400" font-size="20" transform="translate(695.497 299)">17</text><text font-family="Arial,Arial_MSFontService,sans-serif" font-weight="400" font-size="20" transform="translate(694.33 343)">18</text><text font-family="Arial,Arial_MSFontService,sans-serif" font-weight="400" font-size="20" transform="translate(694.664 401)">19</text><text font-family="Arial,Arial_MSFontService,sans-serif" font-weight="400" font-size="20" transform="translate(701.664 473)">20</text><text font-family="Arial,Arial_MSFontService,sans-serif" font-weight="400" font-size="20" transform="translate(760.664 299)">21</text><text font-family="Arial,Arial_MSFontService,sans-serif" font-weight="400" font-size="20" transform="translate(757.497 475)">22</text><text font-family="Arial,Arial_MSFontService,sans-serif" font-weight="400" font-size="20" transform="translate(820.664 298)">23</text><text font-family="Arial,Arial_MSFontService,sans-serif" font-weight="400" font-size="20" transform="translate(820.664 401)">24</text><text font-family="Arial,Arial_MSFontService,sans-serif" font-weight="400" font-size="20" transform="translate(820.664 475)">25</text><text font-family="Arial,Arial_MSFontService,sans-serif" font-weight="400" font-size="20" transform="translate(822.164 524)">26</text><text font-family="Arial,Arial_MSFontService,sans-serif" font-weight="400" font-size="20" transform="translate(826.164 565)">27</text><path d="M500.5 302.5C500.5 293.664 507.664 286.5 516.5 286.5 525.337 286.5 532.5 293.664 532.5 302.5 532.5 311.337 525.337 318.5 516.5 318.5 507.664 318.5 500.5 311.337 500.5 302.5Z" stroke="#000000" stroke-linejoin="round" stroke-miterlimit="10" fill="#EDD1D1" fill-rule="evenodd"/><text fill="#CC0000" font-family="Arial,Arial_MSFontService,sans-serif" font-weight="400" font-size="17" transform="translate(502.33 309)">1</text><text font-family="Arial,Arial_MSFontService,sans-serif" font-weight="400" font-size="17" transform="translate(511.997 309)">,</text><text fill="#1860AB" font-family="Arial,Arial_MSFontService,sans-serif" font-weight="400" font-size="17" transform="translate(516.83 309)">2</text><path d="M500.5 347.5C500.5 338.664 507.664 331.5 516.5 331.5 525.337 331.5 532.5 338.664 532.5 347.5 532.5 356.337 525.337 363.5 516.5 363.5 507.664 363.5 500.5 356.337 500.5 347.5Z" stroke="#000000" stroke-linejoin="round" stroke-miterlimit="10" fill="#FFFFFF" fill-rule="evenodd"/><path d="M500.5 392.5C500.5 383.664 507.664 376.5 516.5 376.5 525.337 376.5 532.5 383.664 532.5 392.5 532.5 401.337 525.337 408.5 516.5 408.5 507.664 408.5 500.5 401.337 500.5 392.5Z" stroke="#000000" stroke-linejoin="round" stroke-miterlimit="10" fill="#FFFFFF" fill-rule="evenodd"/><path d="M500.5 438.5C500.5 429.664 507.664 422.5 516.5 422.5 525.337 422.5 532.5 429.664 532.5 438.5 532.5 447.337 525.337 454.5 516.5 454.5 507.664 454.5 500.5 447.337 500.5 438.5Z" stroke="#000000" stroke-linejoin="round" stroke-miterlimit="10" fill="#FFFFFF" fill-rule="evenodd"/><path d="M500.5 483.5C500.5 474.664 507.664 467.5 516.5 467.5 525.337 467.5 532.5 474.664 532.5 483.5 532.5 492.337 525.337 499.5 516.5 499.5 507.664 499.5 500.5 492.337 500.5 483.5Z" stroke="#000000" stroke-linejoin="round" stroke-miterlimit="10" fill="#FFFFFF" fill-rule="evenodd"/><path d="M500.5 528.5C500.5 519.664 507.664 512.5 516.5 512.5 525.337 512.5 532.5 519.664 532.5 528.5 532.5 537.337 525.337 544.5 516.5 544.5 507.664 544.5 500.5 537.337 500.5 528.5Z" stroke="#000000" stroke-linejoin="round" stroke-miterlimit="10" fill="#FFFFFF" fill-rule="evenodd"/><path d="M500.5 574C500.5 565.44 507.664 558.5 516.5 558.5 525.337 558.5 532.5 565.44 532.5 574 532.5 582.56 525.337 589.5 516.5 589.5 507.664 589.5 500.5 582.56 500.5 574Z" stroke="#000000" stroke-linejoin="round" stroke-miterlimit="10" fill="#FFFFFF" fill-rule="evenodd"/><path d="M556.5 437C556.5 428.44 563.664 421.5 572.5 421.5 581.337 421.5 588.5 428.44 588.5 437 588.5 445.56 581.337 452.5 572.5 452.5 563.664 452.5 556.5 445.56 556.5 437Z" stroke="#000000" stroke-linejoin="round" stroke-miterlimit="10" fill="#FFFFFF" fill-rule="evenodd"/><path d="M556.5 484.5C556.5 475.664 563.664 468.5 572.5 468.5 581.337 468.5 588.5 475.664 588.5 484.5 588.5 493.337 581.337 500.5 572.5 500.5 563.664 500.5 556.5 493.337 556.5 484.5Z" stroke="#000000" stroke-linejoin="round" stroke-miterlimit="10" fill="#FFFFFF" fill-rule="evenodd"/><path d="M608.5 301.5C608.5 292.664 615.44 285.5 624 285.5 632.56 285.5 639.5 292.664 639.5 301.5 639.5 310.337 632.56 317.5 624 317.5 615.44 317.5 608.5 310.337 608.5 301.5Z" stroke="#000000" stroke-linejoin="round" stroke-miterlimit="10" fill="#FFFFFF" fill-rule="evenodd"/><path d="M608.5 345.5C608.5 336.664 615.44 329.5 624 329.5 632.56 329.5 639.5 336.664 639.5 345.5 639.5 354.337 632.56 361.5 624 361.5 615.44 361.5 608.5 354.337 608.5 345.5Z" stroke="#000000" stroke-linejoin="round" stroke-miterlimit="10" fill="#FFFFFF" fill-rule="evenodd"/><path d="M608.5 392.5C608.5 383.664 615.44 376.5 624 376.5 632.56 376.5 639.5 383.664 639.5 392.5 639.5 401.337 632.56 408.5 624 408.5 615.44 408.5 608.5 401.337 608.5 392.5Z" stroke="#000000" stroke-linejoin="round" stroke-miterlimit="10" fill="#FFFFFF" fill-rule="evenodd"/><path d="M607.5 436.5C607.5 427.664 614.44 420.5 623 420.5 631.56 420.5 638.5 427.664 638.5 436.5 638.5 445.337 631.56 452.5 623 452.5 614.44 452.5 607.5 445.337 607.5 436.5Z" stroke="#000000" stroke-linejoin="round" stroke-miterlimit="10" fill="#FFFFFF" fill-rule="evenodd"/><path d="M607.5 483C607.5 474.44 614.44 467.5 623 467.5 631.56 467.5 638.5 474.44 638.5 483 638.5 491.56 631.56 498.5 623 498.5 614.44 498.5 607.5 491.56 607.5 483Z" stroke="#000000" stroke-linejoin="round" stroke-miterlimit="10" fill="#FFFFFF" fill-rule="evenodd"/><path d="M657.5 484.5C657.5 475.664 664.664 468.5 673.5 468.5 682.337 468.5 689.5 475.664 689.5 484.5 689.5 493.337 682.337 500.5 673.5 500.5 664.664 500.5 657.5 493.337 657.5 484.5Z" stroke="#000000" stroke-linejoin="round" stroke-miterlimit="10" fill="#FFFFFF" fill-rule="evenodd"/><path d="M721.5 302.5C721.5 293.664 728.44 286.5 737 286.5 745.56 286.5 752.5 293.664 752.5 302.5 752.5 311.337 745.56 318.5 737 318.5 728.44 318.5 721.5 311.337 721.5 302.5Z" stroke="#000000" stroke-linejoin="round" stroke-miterlimit="10" fill="#FFFFFF" fill-rule="evenodd"/><path d="M721.5 347.5C721.5 338.664 728.44 331.5 737 331.5 745.56 331.5 752.5 338.664 752.5 347.5 752.5 356.337 745.56 363.5 737 363.5 728.44 363.5 721.5 356.337 721.5 347.5Z" stroke="#000000" stroke-linejoin="round" stroke-miterlimit="10" fill="#FFFFFF" fill-rule="evenodd"/><path d="M721.5 392.5C721.5 383.664 728.44 376.5 737 376.5 745.56 376.5 752.5 383.664 752.5 392.5 752.5 401.337 745.56 408.5 737 408.5 728.44 408.5 721.5 401.337 721.5 392.5Z" stroke="#000000" stroke-linejoin="round" stroke-miterlimit="10" fill="#FFFFFF" fill-rule="evenodd"/><path d="M721.5 483.5C721.5 474.664 728.44 467.5 737 467.5 745.56 467.5 752.5 474.664 752.5 483.5 752.5 492.337 745.56 499.5 737 499.5 728.44 499.5 721.5 492.337 721.5 483.5Z" stroke="#000000" stroke-linejoin="round" stroke-miterlimit="10" fill="#FFFFFF" fill-rule="evenodd"/><path d="M848.5 302.5C848.5 293.664 855.44 286.5 864 286.5 872.56 286.5 879.5 293.664 879.5 302.5 879.5 311.337 872.56 318.5 864 318.5 855.44 318.5 848.5 311.337 848.5 302.5Z" stroke="#000000" stroke-linejoin="round" stroke-miterlimit="10" fill="#FFFFFF" fill-rule="evenodd"/><path d="M848.5 392.5C848.5 383.664 855.44 376.5 864 376.5 872.56 376.5 879.5 383.664 879.5 392.5 879.5 401.337 872.56 408.5 864 408.5 855.44 408.5 848.5 401.337 848.5 392.5Z" stroke="#000000" stroke-linejoin="round" stroke-miterlimit="10" fill="#FFFFFF" fill-rule="evenodd"/><path d="M848.5 483.5C848.5 474.664 855.44 467.5 864 467.5 872.56 467.5 879.5 474.664 879.5 483.5 879.5 492.337 872.56 499.5 864 499.5 855.44 499.5 848.5 492.337 848.5 483.5Z" stroke="#000000" stroke-linejoin="round" stroke-miterlimit="10" fill="#FFFFFF" fill-rule="evenodd"/><path d="M848.5 528.5C848.5 519.664 855.44 512.5 864 512.5 872.56 512.5 879.5 519.664 879.5 528.5 879.5 537.337 872.56 544.5 864 544.5 855.44 544.5 848.5 537.337 848.5 528.5Z" stroke="#000000" stroke-linejoin="round" stroke-miterlimit="10" fill="#FFFFFF" fill-rule="evenodd"/><path d="M848.5 574C848.5 565.44 855.44 558.5 864 558.5 872.56 558.5 879.5 565.44 879.5 574 879.5 582.56 872.56 589.5 864 589.5 855.44 589.5 848.5 582.56 848.5 574Z" stroke="#000000" stroke-linejoin="round" stroke-miterlimit="10" fill="#FFFFFF" fill-rule="evenodd"/><path d="M785.5 302.5C785.5 293.664 792.44 286.5 801 286.5 809.56 286.5 816.5 293.664 816.5 302.5 816.5 311.337 809.56 318.5 801 318.5 792.44 318.5 785.5 311.337 785.5 302.5Z" stroke="#000000" stroke-linejoin="round" stroke-miterlimit="10" fill="#FFFFFF" fill-rule="evenodd"/><path d="M785.5 483.5C785.5 474.664 792.44 467.5 801 467.5 809.56 467.5 816.5 474.664 816.5 483.5 816.5 492.337 809.56 499.5 801 499.5 792.44 499.5 785.5 492.337 785.5 483.5Z" stroke="#000000" stroke-linejoin="round" stroke-miterlimit="10" fill="#FFFFFF" fill-rule="evenodd"/><path d="M657.5 574C657.5 565.44 664.664 558.5 673.5 558.5 682.337 558.5 689.5 565.44 689.5 574 689.5 582.56 682.337 589.5 673.5 589.5 664.664 589.5 657.5 582.56 657.5 574Z" stroke="#000000" stroke-linejoin="round" stroke-miterlimit="10" fill="#FFFFFF" fill-rule="evenodd"/><path d="M124.5 311 164.5 311 164.5 312 124.5 312ZM125.833 314.167 120.5 311.5 125.833 308.833ZM163.167 308.833 168.5 311.5 163.167 314.167Z" fill="#1860AB"/><path d="M101 326.5 101 350.5 100 350.5 100 326.5ZM97.8334 327.833 100.5 322.5 103.167 327.833ZM103.167 349.167 100.5 354.5 97.8335 349.167Z" fill="#CC0000"/><text fill="#CC0000" font-family="Arial,Arial_MSFontService,sans-serif" font-weight="400" font-size="20" transform="translate(71.3303 136)">Horizontal capacity</text><text fill="#CC0000" font-family="Arial,Arial_MSFontService,sans-serif" font-weight="400" font-size="20" transform="translate(71.3303 160)">of routing region 1</text><text fill="#1860AB" font-family="Arial,Arial_MSFontService,sans-serif" font-weight="400" font-size="20" transform="translate(424.164 136)">Vertical capacity</text><text fill="#1860AB" font-family="Arial,Arial_MSFontService,sans-serif" font-weight="400" font-size="20" transform="translate(424.164 160)">of routing region 1</text><path d="M74.3064 192.707 70.5201 196.747 62.3875 205.675 54.6736 214.616 47.5859 223.561 41.3319 232.497 36.1186 241.415 32.1521 250.299 30.7061 254.708 29.6412 259.118 28.978 263.519 28.6965 267.921 29.1793 276.755 30.89 285.59 33.6287 294.454 37.1961 303.351 41.3912 312.283 46.0116 321.253 50.8543 330.263 49.9734 330.737 45.1226 321.711 40.486 312.708 36.2679 303.723 32.6731 294.749 29.9081 285.78 28.1807 276.81 27.6986 267.857 27.9892 263.37 28.6692 258.883 29.7561 254.395 31.2391 249.891 35.2554 240.91 40.5126 231.924 46.8022 222.939 53.9164 213.963 61.6482 205.001 69.7905 196.063 73.5767 192.023ZM70.1111 190.602 78.5001 187.5 75.9486 196.073Z" fill="#CC0000"/><text fill="#1860AB" font-family="Arial,Arial_MSFontService,sans-serif" font-weight="400" font-size="20" transform="translate(103.717 279)">2 Tracks</text><text fill="#CC0000" font-family="Arial,Arial_MSFontService,sans-serif" font-weight="400" font-size="20" transform="matrix(-1.83697e-16 -1 1 -1.83697e-16 68.2485 376)">1 Track</text><path d="M516 187.495 516.044 191.494 515.044 191.505 515 187.505ZM516.076 194.494 516.12 198.494 515.12 198.505 515.076 194.505ZM516.152 201.494 516.196 205.494 515.196 205.504 515.152 201.505ZM516.228 208.493 516.272 212.493 515.272 212.504 515.228 208.504ZM516.304 215.493 516.348 219.493 515.348 219.504 515.304 215.504ZM516.38 222.493 516.424 226.492 515.424 226.503 515.38 222.503ZM516.457 229.492 516.5 233.492 515.5 233.503 515.457 229.503ZM516.533 236.492 516.576 240.491 515.576 240.502 515.533 236.503ZM516.609 243.491 516.652 247.491 515.652 247.502 515.609 243.502ZM516.685 250.491 516.728 254.491 515.728 254.502 515.685 250.502ZM516.761 257.49 516.804 261.49 515.804 261.501 515.761 257.501ZM516.837 264.49 516.88 268.49 515.88 268.501 515.837 264.501ZM516.913 271.49 516.928 272.828 515.928 272.839 515.913 271.501ZM520.413 271.457 516.5 279.5 512.413 271.544Z" fill="#1860AB"/><path d="M234.504 155 238.504 155.035 238.495 156.035 234.496 156ZM241.504 155.062 245.504 155.097 245.495 156.097 241.495 156.062ZM248.504 155.123 252.504 155.158 252.495 156.158 248.495 156.123ZM255.504 155.184 258.26 155.209 259.508 155.232 259.49 156.232 258.251 156.209 255.495 156.184ZM262.508 155.288 266.507 155.362 266.488 156.362 262.489 156.288ZM269.506 155.418 273.506 155.493 273.487 156.492 269.488 156.418ZM276.505 155.548 280.505 155.623 280.486 156.623 276.487 156.548ZM283.513 155.714 287.51 155.87 287.471 156.869 283.474 156.713ZM290.508 155.986 294.505 156.142 294.466 157.141 290.469 156.986ZM297.503 156.259 301.5 156.414 301.461 157.414 297.464 157.258ZM304.497 156.531 304.794 156.543 308.504 156.806 308.433 157.803 304.755 157.542 304.458 157.53ZM311.496 157.019 315.486 157.302 315.415 158.3 311.425 158.016ZM318.479 157.515 322.469 157.799 322.398 158.796 318.408 158.513ZM325.461 158.011 327.078 158.126 329.464 158.406 329.347 159.399 327.007 159.124 325.39 159.009ZM332.443 158.756 336.416 159.223 336.299 160.216 332.326 159.749ZM339.395 159.573 343.368 160.039 343.251 161.032 339.279 160.566ZM346.347 160.389 348.377 160.628 350.333 160.982 350.154 161.966 348.26 161.621 346.231 161.382ZM353.285 161.519 357.22 162.235 357.041 163.219 353.106 162.503ZM360.172 162.772 364.107 163.488 363.928 164.471 359.993 163.756ZM367.059 164.024 368.445 164.277 370.991 164.9 370.753 165.871 368.266 165.26 366.88 165.008ZM373.905 165.614 377.79 166.567 377.552 167.538 373.667 166.585ZM380.691 167.419 384.525 168.559 384.24 169.517 380.406 168.378ZM387.421 169.441 391.186 170.79 390.849 171.732 387.084 170.382ZM394.011 171.802 395.714 172.413 397.755 173.292 397.359 174.21 395.376 173.354 393.673 172.744ZM400.509 174.48 403.918 175.95 404.205 176.097 403.746 176.986 403.522 176.868 400.113 175.398ZM406.87 177.476 410.423 179.313 409.964 180.201 406.411 178.364ZM413.062 180.81 416.476 182.895 415.954 183.748 412.541 181.663ZM419.058 184.488 422.319 186.803 421.74 187.619 418.479 185.303ZM424.766 188.54 425.673 189.184 427.938 191.027 427.307 191.802 425.094 189.999 424.187 189.355ZM430.265 192.921 432.057 194.381 433.321 195.546 432.643 196.281 431.426 195.156 429.633 193.697ZM435.525 197.582 438.059 199.922 438.462 200.338 437.743 201.032 437.381 200.656 434.847 198.316ZM440.546 202.497 443.323 205.375 442.604 206.069 439.826 203.191ZM445.293 207.686 447.844 210.768 447.073 211.405 444.523 208.324ZM449.756 213.079 452.307 216.16 451.536 216.798 448.986 213.716ZM454.23 218.516 456.515 221.799 455.694 222.37 453.41 219.087ZM458.228 224.262 460.513 227.545 459.692 228.116 457.408 224.833ZM462.226 230.008 463.443 231.757 464.431 233.38 463.577 233.899 462.622 232.328 461.405 230.579ZM465.99 235.943 468.068 239.36 467.214 239.88 465.136 236.462ZM469.627 241.924 471.705 245.341 470.851 245.861 468.773 242.443ZM473.192 247.97 475.131 251.468 474.257 251.953 472.317 248.455ZM476.586 254.092 478.525 257.591 477.65 258.076 475.711 254.577ZM479.979 260.215 480.119 260.466 481.858 263.757 480.974 264.224 479.244 260.951 479.104 260.699ZM483.26 266.409 484.827 269.372 483.942 269.84 482.376 266.877ZM487.298 266.558 487.5 275.5 480.225 270.297Z" fill="#CC0000"/><path d="M388 416.75 424 416.75 424 393 436 440.5 424 488 424 464.25 388 464.25Z" fill="url(#fill0)" fill-rule="evenodd"/><rect x="261" y="351" width="70" height="105" fill="#B2B2B2"/><path d="M261.5 351.5 261.5 324.5 261.5 351.5Z" stroke="#000000" stroke-width="0" stroke-linejoin="round" stroke-miterlimit="10" fill="none" fill-rule="evenodd"/><path d="M261.5 346.5 261.5 509.5 261.5 346.5Z" stroke="#000000" stroke-width="0" stroke-linejoin="round" stroke-miterlimit="10" fill="none" fill-rule="evenodd"/><rect x="119.5" y="324.5" width="50" height="27" stroke="#000000" stroke-miterlimit="8" fill="#EDD1D1"/><text font-family="Arial,Arial_MSFontService,sans-serif" font-weight="400" font-size="20" transform="translate(134.83 345)">1</text><path d="M0.18829-0.463192 240.013 97.0264 239.636 97.9528-0.18829 0.463192ZM240.095 93.2818 246 100 237.083 100.693Z" fill="#1860AB" transform="matrix(1 0 0 -1 168.5 255.5)"/><path d="M119.5 532.5 353.5 532.5 119.5 532.5Z" stroke="#000000" stroke-width="0" stroke-linejoin="round" stroke-miterlimit="10" fill="none" fill-rule="evenodd"/><path d="M119.5 509.5 352.5 509.5 119.5 509.5Z" stroke="#000000" stroke-width="0" stroke-linejoin="round" stroke-miterlimit="10" fill="none" fill-rule="evenodd"/><path d="M119.5 456.5 352.5 456.5 119.5 456.5Z" stroke="#000000" stroke-width="0" stroke-linejoin="round" stroke-miterlimit="10" fill="none" fill-rule="evenodd"/><path d="M119.5 351.5 352.5 351.5 119.5 351.5Z" stroke="#000000" stroke-width="0" stroke-linejoin="round" stroke-miterlimit="10" fill="none" fill-rule="evenodd"/><path d="M331.5 557.5 331.5 324.5 331.5 557.5Z" stroke="#000000" stroke-width="0" stroke-linejoin="round" stroke-miterlimit="10" fill="none" fill-rule="evenodd"/></g></svg>