<svg width="719" height="293" xmlns="http://www.w3.org/2000/svg" xmlns:xlink="http://www.w3.org/1999/xlink" overflow="hidden"><g transform="translate(-87 -129)"><rect x="88.5001" y="163.5" width="243" height="201" stroke="#808080" stroke-miterlimit="8" fill="#DDDDDD"/><rect x="106.5" y="190.5" width="190" height="17" stroke="#000000" stroke-miterlimit="8" fill="#B2B2B2"/><rect x="106.5" y="251.5" width="190" height="17" stroke="#000000" stroke-miterlimit="8" fill="#B2B2B2"/><path d="M120.5 251.5 120.5 268.5" stroke="#000000" stroke-linejoin="round" stroke-miterlimit="10" fill="none" fill-rule="evenodd"/><path d="M155.5 251.5 155.5 268.5" stroke="#000000" stroke-linejoin="round" stroke-miterlimit="10" fill="none" fill-rule="evenodd"/><path d="M203.5 251.5 203.5 268.5" stroke="#000000" stroke-linejoin="round" stroke-miterlimit="10" fill="none" fill-rule="evenodd"/><path d="M0 0 1 17" stroke="#000000" stroke-linejoin="round" stroke-miterlimit="10" fill="none" fill-rule="evenodd" transform="matrix(-1 0 0 1 113.5 251.5)"/><path d="M0 0 1 17" stroke="#000000" stroke-linejoin="round" stroke-miterlimit="10" fill="none" fill-rule="evenodd" transform="matrix(-1 0 0 1 141.5 251.5)"/><path d="M171.5 252.5 171.5 268.5" stroke="#000000" stroke-linejoin="round" stroke-miterlimit="10" fill="none" fill-rule="evenodd"/><path d="M182.5 252.5 182.5 268.5" stroke="#000000" stroke-linejoin="round" stroke-miterlimit="10" fill="none" fill-rule="evenodd"/><path d="M197.5 251.5 197.5 268.5" stroke="#000000" stroke-linejoin="round" stroke-miterlimit="10" fill="none" fill-rule="evenodd"/><path d="M246.5 251.5 246.5 268.5" stroke="#000000" stroke-linejoin="round" stroke-miterlimit="10" fill="none" fill-rule="evenodd"/><path d="M0 0 1 17" stroke="#000000" stroke-linejoin="round" stroke-miterlimit="10" fill="none" fill-rule="evenodd" transform="matrix(-1 0 0 1 241.5 251.5)"/><path d="M280.5 251.5 280.5 268.5" stroke="#000000" stroke-linejoin="round" stroke-miterlimit="10" fill="none" fill-rule="evenodd"/><path d="M266.5 251.5 266.5 268.5" stroke="#000000" stroke-linejoin="round" stroke-miterlimit="10" fill="none" fill-rule="evenodd"/><rect x="103.5" y="321.5" width="190" height="17" stroke="#000000" stroke-miterlimit="8" fill="#B2B2B2"/><path d="M117.5 321.5 117.5 338.5" stroke="#000000" stroke-linejoin="round" stroke-miterlimit="10" fill="none" fill-rule="evenodd"/><path d="M129.5 322.5 129.5 338.5" stroke="#000000" stroke-linejoin="round" stroke-miterlimit="10" fill="none" fill-rule="evenodd"/><path d="M217.5 322.5 217.5 338.5" stroke="#000000" stroke-linejoin="round" stroke-miterlimit="10" fill="none" fill-rule="evenodd"/><path d="M109.5 321.5 109.5 338.5" stroke="#000000" stroke-linejoin="round" stroke-miterlimit="10" fill="none" fill-rule="evenodd"/><path d="M137.5 321.5 137.5 338.5" stroke="#000000" stroke-linejoin="round" stroke-miterlimit="10" fill="none" fill-rule="evenodd"/><path d="M0 0 0.000104987 16" stroke="#000000" stroke-linejoin="round" stroke-miterlimit="10" fill="none" fill-rule="evenodd" transform="matrix(-1 0 0 1 168.5 322.5)"/><path d="M179.5 322.5 179.5 338.5" stroke="#000000" stroke-linejoin="round" stroke-miterlimit="10" fill="none" fill-rule="evenodd"/><path d="M194.5 321.5 194.5 338.5" stroke="#000000" stroke-linejoin="round" stroke-miterlimit="10" fill="none" fill-rule="evenodd"/><path d="M249.5 322.5 249.5 338.5" stroke="#000000" stroke-linejoin="round" stroke-miterlimit="10" fill="none" fill-rule="evenodd"/><path d="M237.5 321.5 237.5 338.5" stroke="#000000" stroke-linejoin="round" stroke-miterlimit="10" fill="none" fill-rule="evenodd"/><path d="M277.5 321.5 277.5 338.5" stroke="#000000" stroke-linejoin="round" stroke-miterlimit="10" fill="none" fill-rule="evenodd"/><path d="M263.5 321.5 263.5 338.5" stroke="#000000" stroke-linejoin="round" stroke-miterlimit="10" fill="none" fill-rule="evenodd"/><path d="M126.5 190.5 126.5 207.5" stroke="#000000" stroke-linejoin="round" stroke-miterlimit="10" fill="none" fill-rule="evenodd"/><path d="M149.5 190.5 149.5 207.5" stroke="#000000" stroke-linejoin="round" stroke-miterlimit="10" fill="none" fill-rule="evenodd"/><path d="M203.5 190.5 204.5 207.5" stroke="#000000" stroke-linejoin="round" stroke-miterlimit="10" fill="none" fill-rule="evenodd"/><path d="M112.5 190.5 113.5 207.5" stroke="#000000" stroke-linejoin="round" stroke-miterlimit="10" fill="none" fill-rule="evenodd"/><path d="M140.5 190.5 140.5 207.5" stroke="#000000" stroke-linejoin="round" stroke-miterlimit="10" fill="none" fill-rule="evenodd"/><path d="M167.5 190.5 167.5 207.5" stroke="#000000" stroke-linejoin="round" stroke-miterlimit="10" fill="none" fill-rule="evenodd"/><path d="M182.5 190.5 182.5 207.5" stroke="#000000" stroke-linejoin="round" stroke-miterlimit="10" fill="none" fill-rule="evenodd"/><path d="M216.5 190.5 216.5 207.5" stroke="#000000" stroke-linejoin="round" stroke-miterlimit="10" fill="none" fill-rule="evenodd"/><path d="M228.5 190.5 228.5 207.5" stroke="#000000" stroke-linejoin="round" stroke-miterlimit="10" fill="none" fill-rule="evenodd"/><path d="M240.5 190.5 241.5 207.5" stroke="#000000" stroke-linejoin="round" stroke-miterlimit="10" fill="none" fill-rule="evenodd"/><path d="M280.5 190.5 281.5 207.5" stroke="#000000" stroke-linejoin="round" stroke-miterlimit="10" fill="none" fill-rule="evenodd"/><path d="M266.5 190.5 266.5 207.5" stroke="#000000" stroke-linejoin="round" stroke-miterlimit="10" fill="none" fill-rule="evenodd"/><rect x="138" y="322" width="30" height="16" fill="#EDD1D1"/><path d="M5.46775 3.84682 73.3175 59.6137 72.6825 60.3863 4.83279 4.61937ZM3.64047 8.16988 0 0 8.72019 1.98956Z" transform="matrix(1 0 0 -1 155.5 328.5)"/><path d="M467 145.167 467 365.5 466 365.5 466 145.167ZM462.5 146.5 466.5 138.5 470.5 146.5Z"/><path d="M466.5 365 768.833 365 768.833 366 466.5 366ZM767.5 361.5 775.5 365.5 767.5 369.5Z"/><path d="M607.5 314.5C613.305 316.271 619.11 322.625 641.944 325.125 664.777 327.625 723.215 328.563 744.5 329.5" stroke="#000000" stroke-linejoin="round" stroke-miterlimit="10" fill="none" fill-rule="evenodd"/><path d="M466.5 200.463C469.413 188.893 472.327 177.5 475.24 184.264 478.153 191.029 481.26 235.531 484.174 240.872 487.087 246.212 490 216.662 492.913 216.662 495.827 216.662 497.186 238.202 501.653 240.872 506.12 243.542 514.86 228.767 519.327 232.861 523.793 236.956 523.793 262.411 528.26 265.081 532.727 267.751 541.273 243.542 545.74 248.882 550.207 254.223 551.76 294.631 554.674 297.301 557.587 299.971 560.5 265.081 563.413 265.081 566.326 265.081 569.24 293.207 572.153 297.301 575.066 301.395 578.174 287.867 581.087 289.291 584 290.715 586.913 304.243 589.826 305.49 592.74 306.736 597.207 297.301 598.566 297.301 599.926 297.301 597.012 302.819 598.566 305.49 600.12 308.16 605.946 312.254 607.5 313.5" stroke="#000000" stroke-linejoin="round" stroke-miterlimit="10" fill="none" fill-rule="evenodd"/><text font-family="Arial,Arial_MSFontService,sans-serif" font-weight="400" font-size="23" transform="translate(742.02 403)">Time</text><text font-family="Arial,Arial_MSFontService,sans-serif" font-weight="400" font-size="23" transform="translate(401.27 161)">Cost</text><rect x="204" y="252" width="35" height="15" fill="#EDD1D1"/><path d="M0.318036-0.385815 69.1739 56.3737 68.5378 57.1453-0.318036 0.385815ZM70.3713 52.8249 74 61 65.2827 58.9979Z" transform="matrix(1 0 0 -1 149.5 321.5)"/></g></svg>