<svg width="834" height="446" xmlns="http://www.w3.org/2000/svg" xmlns:xlink="http://www.w3.org/1999/xlink" overflow="hidden"><defs><clipPath id="clip0"><path d="M87.5001 392.5 87.5001 575.5 244.5 575.5 244.5 392.5ZM86 213 920 213 920 659 86 659Z" fill-rule="evenodd" clip-rule="evenodd"/></clipPath><clipPath id="clip1"><path d="M326.5 392.5 326.5 574.5 483.5 574.5 483.5 392.5ZM86 213 920 213 920 659 86 659Z" fill-rule="evenodd" clip-rule="evenodd"/></clipPath><clipPath id="clip2"><path d="M540.5 391.5 540.5 574.5 696.5 574.5 696.5 391.5ZM86 213 920 213 920 659 86 659Z" fill-rule="evenodd" clip-rule="evenodd"/></clipPath><clipPath id="clip3"><path d="M748.5 390.5 748.5 575.5 907.5 575.5 907.5 390.5ZM86 213 920 213 920 659 86 659Z" fill-rule="evenodd" clip-rule="evenodd"/></clipPath></defs><g transform="translate(-86 -213)"><rect x="87" y="214" width="181" height="100" fill="#CCCCFF"/><text font-family="Arial,Arial_MSFontService,sans-serif" font-weight="400" font-size="23" transform="translate(106.896 242)">Half</text><text font-family="Arial,Arial_MSFontService,sans-serif" font-weight="400" font-size="23" transform="translate(147.229 242)">-</text><text font-family="Arial,Arial_MSFontService,sans-serif" font-weight="400" font-size="23" transform="translate(154.729 242)">perimeter</text><text font-family="Arial,Arial_MSFontService,sans-serif" font-weight="400" font-size="23" transform="translate(106.896 271)">wirelength</text><text font-family="Arial,Arial_MSFontService,sans-serif" font-weight="400" font-size="23" transform="translate(106.896 301)">(HPWL)</text><g clip-path="url(#clip0)"><rect x="90.1667" y="395.167" width="157" height="183" fill="#FFFFFF"/><path d="M90.6667 577.667 246.667 577.667 246.667 395.667 90.6667 395.667ZM89.6667 578.667 89.6667 394.667 247.667 394.667 247.667 578.667Z" fill="#FFFFFF" fill-rule="evenodd"/></g><rect x="87.5001" y="392.5" width="157" height="183" stroke="#969696" stroke-miterlimit="8" fill="#EAEAEA"/><path d="M139.5 575.5 139.5 392.5" stroke="#808080" stroke-linejoin="round" stroke-miterlimit="10" stroke-dasharray="1 1" fill="none" fill-rule="evenodd"/><path d="M114.5 575.5 114.5 392.5" stroke="#808080" stroke-linejoin="round" stroke-miterlimit="10" stroke-dasharray="1 1" fill="none" fill-rule="evenodd"/><path d="M87.5 549.5 244.5 549.5" stroke="#808080" stroke-linejoin="round" stroke-miterlimit="10" stroke-dasharray="1 1" fill="none" fill-rule="evenodd"/><path d="M87.5 524.5 244.5 524.5" stroke="#808080" stroke-linejoin="round" stroke-miterlimit="10" stroke-dasharray="1 1" fill="none" fill-rule="evenodd"/><path d="M87.5 498.5 244.5 498.5" stroke="#808080" stroke-linejoin="round" stroke-miterlimit="10" stroke-dasharray="1 1" fill="none" fill-rule="evenodd"/><path d="M88.5001 472.5 244.5 472.5" stroke="#808080" stroke-linejoin="round" stroke-miterlimit="10" stroke-dasharray="1 1" fill="none" fill-rule="evenodd"/><path d="M165.5 575.5 165.5 392.5" stroke="#808080" stroke-linejoin="round" stroke-miterlimit="10" stroke-dasharray="1 1" fill="none" fill-rule="evenodd"/><path d="M191.5 575.5 191.5 392.5" stroke="#808080" stroke-linejoin="round" stroke-miterlimit="10" stroke-dasharray="1 1" fill="none" fill-rule="evenodd"/><path d="M217.5 575.5 217.5 392.5" stroke="#808080" stroke-linejoin="round" stroke-miterlimit="10" stroke-dasharray="1 1" fill="none" fill-rule="evenodd"/><path d="M88.5001 446.5 244.5 446.5" stroke="#808080" stroke-linejoin="round" stroke-miterlimit="10" stroke-dasharray="1 1" fill="none" fill-rule="evenodd"/><path d="M88.5 420.5 245.5 420.5" stroke="#808080" stroke-linejoin="round" stroke-miterlimit="10" stroke-dasharray="1 1" fill="none" fill-rule="evenodd"/><text font-family="Arial,Arial_MSFontService,sans-serif" font-weight="400" font-size="21" transform="translate(116.063 615)">HPWL = 9</text><rect x="93.5001" y="504.5" width="16" height="41" stroke="#000000" stroke-miterlimit="8" fill="#B2B2B2"/><rect x="222.5" y="400.5" width="16" height="41" stroke="#000000" stroke-miterlimit="8" fill="#B2B2B2"/><rect x="145.5" y="452.5" width="40" height="41" stroke="#000000" stroke-miterlimit="8" fill="#B2B2B2"/><path d="M161.5 498.5C161.5 496.291 163.291 494.5 165.5 494.5 167.709 494.5 169.5 496.291 169.5 498.5 169.5 500.709 167.709 502.5 165.5 502.5 163.291 502.5 161.5 500.709 161.5 498.5Z" stroke="#000000" stroke-linejoin="round" stroke-miterlimit="10" fill="#FFFFFF" fill-rule="evenodd"/><rect x="171.5" y="554.5" width="57" height="16" stroke="#000000" stroke-miterlimit="8" fill="#B2B2B2"/><rect x="114.5" y="421.5" width="103" height="129" stroke="#000000" stroke-width="3.33333" stroke-miterlimit="8" fill="none"/><path d="M109.5 524.5C109.5 522.291 111.291 520.5 113.5 520.5 115.709 520.5 117.5 522.291 117.5 524.5 117.5 526.709 115.709 528.5 113.5 528.5 111.291 528.5 109.5 526.709 109.5 524.5Z" stroke="#000000" stroke-linejoin="round" stroke-miterlimit="10" fill="#FFFFFF" fill-rule="evenodd"/><path d="M187.5 550C187.5 547.515 189.291 545.5 191.5 545.5 193.709 545.5 195.5 547.515 195.5 550 195.5 552.485 193.709 554.5 191.5 554.5 189.291 554.5 187.5 552.485 187.5 550Z" stroke="#000000" stroke-linejoin="round" stroke-miterlimit="10" fill="#FFFFFF" fill-rule="evenodd"/><path d="M213.5 421.5C213.5 419.291 215.291 417.5 217.5 417.5 219.709 417.5 221.5 419.291 221.5 421.5 221.5 423.709 219.709 425.5 217.5 425.5 215.291 425.5 213.5 423.709 213.5 421.5Z" stroke="#000000" stroke-linejoin="round" stroke-miterlimit="10" fill="#FFFFFF" fill-rule="evenodd"/><text font-family="Arial,Arial_MSFontService,sans-serif" font-weight="400" font-size="21" transform="translate(157.833 416)">4</text><text font-family="Arial,Arial_MSFontService,sans-serif" font-weight="400" font-size="21" transform="translate(219.5 499)">5</text><rect x="327" y="214" width="161" height="100" fill="#CCCCFF"/><text font-family="Arial,Arial_MSFontService,sans-serif" font-weight="400" font-size="23" transform="translate(347.396 242)">Complete</text><text font-family="Arial,Arial_MSFontService,sans-serif" font-weight="400" font-size="23" transform="translate(347.396 271)">graph</text><text font-family="Arial,Arial_MSFontService,sans-serif" font-weight="400" font-size="23" transform="translate(347.396 301)">(clique)</text><g clip-path="url(#clip1)"><rect x="329.167" y="395.167" width="157" height="182" fill="#FFFFFF"/><path d="M329.667 576.667 485.667 576.667 485.667 395.667 329.667 395.667ZM328.667 577.667 328.667 394.667 486.667 394.667 486.667 577.667Z" fill="#FFFFFF" fill-rule="evenodd"/></g><rect x="326.5" y="392.5" width="157" height="182" stroke="#969696" stroke-miterlimit="8" fill="#EAEAEA"/><path d="M378.5 575.5 378.5 392.5" stroke="#808080" stroke-linejoin="round" stroke-miterlimit="10" stroke-dasharray="1 1" fill="none" fill-rule="evenodd"/><path d="M353.5 575.5 353.5 392.5" stroke="#808080" stroke-linejoin="round" stroke-miterlimit="10" stroke-dasharray="1 1" fill="none" fill-rule="evenodd"/><path d="M326.5 549.5 483.5 549.5" stroke="#808080" stroke-linejoin="round" stroke-miterlimit="10" stroke-dasharray="1 1" fill="none" fill-rule="evenodd"/><path d="M326.5 524.5 483.5 524.5" stroke="#808080" stroke-linejoin="round" stroke-miterlimit="10" stroke-dasharray="1 1" fill="none" fill-rule="evenodd"/><path d="M326.5 498.5 483.5 498.5" stroke="#808080" stroke-linejoin="round" stroke-miterlimit="10" stroke-dasharray="1 1" fill="none" fill-rule="evenodd"/><path d="M327.5 472.5 483.5 472.5" stroke="#808080" stroke-linejoin="round" stroke-miterlimit="10" stroke-dasharray="1 1" fill="none" fill-rule="evenodd"/><path d="M404.5 575.5 404.5 392.5" stroke="#808080" stroke-linejoin="round" stroke-miterlimit="10" stroke-dasharray="1 1" fill="none" fill-rule="evenodd"/><path d="M430.5 575.5 430.5 392.5" stroke="#808080" stroke-linejoin="round" stroke-miterlimit="10" stroke-dasharray="1 1" fill="none" fill-rule="evenodd"/><path d="M456.5 575.5 456.5 392.5" stroke="#808080" stroke-linejoin="round" stroke-miterlimit="10" stroke-dasharray="1 1" fill="none" fill-rule="evenodd"/><path d="M327.5 446.5 483.5 446.5" stroke="#808080" stroke-linejoin="round" stroke-miterlimit="10" stroke-dasharray="1 1" fill="none" fill-rule="evenodd"/><path d="M327.5 420.5 484.5 420.5" stroke="#808080" stroke-linejoin="round" stroke-miterlimit="10" stroke-dasharray="1 1" fill="none" fill-rule="evenodd"/><rect x="332.5" y="503.5" width="16" height="41" stroke="#000000" stroke-miterlimit="8" fill="#B2B2B2"/><rect x="461.5" y="400.5" width="16" height="41" stroke="#000000" stroke-miterlimit="8" fill="#B2B2B2"/><rect x="384.5" y="452.5" width="40" height="40" stroke="#000000" stroke-miterlimit="8" fill="#B2B2B2"/><rect x="409.5" y="554.5" width="57" height="16" stroke="#000000" stroke-miterlimit="8" fill="#B2B2B2"/><rect x="353.5" y="420.5" width="103" height="129" stroke="#000000" stroke-width="3.33333" stroke-miterlimit="8" fill="none"/><text font-family="Arial,Arial_MSFontService,sans-serif" font-weight="400" font-size="21" transform="translate(337.1 447)">8</text><path d="M404.5 498.5 453.5 498.5 453.5 421.5" stroke="#000000" stroke-width="3.33333" stroke-linejoin="round" stroke-miterlimit="10" fill="none" fill-rule="evenodd"/><path d="M452.5 421.5C452.5 419.291 454.291 417.5 456.5 417.5 458.709 417.5 460.5 419.291 460.5 421.5 460.5 423.709 458.709 425.5 456.5 425.5 454.291 425.5 452.5 423.709 452.5 421.5Z" stroke="#000000" stroke-linejoin="round" stroke-miterlimit="10" fill="#FFFFFF" fill-rule="evenodd"/><text font-family="Arial,Arial_MSFontService,sans-serif" font-weight="400" font-size="21" transform="translate(460.933 525)">6</text><text font-family="Arial,Arial_MSFontService,sans-serif" font-weight="400" font-size="21" transform="translate(436.6 475)">5</text><text font-family="Arial,Arial_MSFontService,sans-serif" font-weight="400" font-size="21" transform="translate(434.6 537)">3</text><text font-family="Arial,Arial_MSFontService,sans-serif" font-weight="400" font-size="21" transform="translate(373.933 522)">3</text><text font-family="Arial,Arial_MSFontService,sans-serif" font-weight="400" font-size="21" transform="translate(361.267 574)">4</text><path d="M404.5 502.5 430.5 502.5 430.5 550.5" stroke="#000000" stroke-width="3.33333" stroke-linejoin="round" stroke-miterlimit="10" fill="none" fill-rule="evenodd"/><path d="M426.5 550C426.5 547.515 428.291 545.5 430.5 545.5 432.709 545.5 434.5 547.515 434.5 550 434.5 552.485 432.709 554.5 430.5 554.5 428.291 554.5 426.5 552.485 426.5 550Z" stroke="#000000" stroke-linejoin="round" stroke-miterlimit="10" fill="#FFFFFF" fill-rule="evenodd"/><path d="M352.5 524.5 405.5 524.5 405.5 498.5" stroke="#000000" stroke-width="3.33333" stroke-linejoin="round" stroke-miterlimit="10" fill="none" fill-rule="evenodd"/><path d="M348.5 524.5C348.5 522.291 350.291 520.5 352.5 520.5 354.709 520.5 356.5 522.291 356.5 524.5 356.5 526.709 354.709 528.5 352.5 528.5 350.291 528.5 348.5 526.709 348.5 524.5Z" stroke="#000000" stroke-linejoin="round" stroke-miterlimit="10" fill="#FFFFFF" fill-rule="evenodd"/><path d="M400.5 498.5C400.5 496.291 402.291 494.5 404.5 494.5 406.709 494.5 408.5 496.291 408.5 498.5 408.5 500.709 406.709 502.5 404.5 502.5 402.291 502.5 400.5 500.709 400.5 498.5Z" stroke="#000000" stroke-linejoin="round" stroke-miterlimit="10" fill="#FFFFFF" fill-rule="evenodd"/><text font-family="Arial,Arial_MSFontService,sans-serif" font-weight="400" font-size="21" transform="translate(332.5 615)">Clique Length =</text><text font-family="Arial,Arial_MSFontService,sans-serif" font-weight="400" font-size="21" transform="translate(289.667 640)">(2/</text><text font-family="Arial,Arial_MSFontService,sans-serif" font-style="italic" font-weight="400" font-size="21" transform="translate(314.667 640)">p)</text><text font-family="Symbol,Symbol_MSFontService,sans-serif" font-weight="400" font-size="21" transform="translate(333.667 640)"></text><text font-family="Arial,Arial_MSFontService,sans-serif" font-style="italic" font-weight="400" font-size="14" transform="translate(346.333 644)">e</text><text font-family="Symbol,Symbol_MSFontService,sans-serif" font-weight="400" font-size="14" transform="translate(358.167 644)"></text><text font-family="Arial,Arial_MSFontService,sans-serif" font-weight="400" font-size="14" transform="translate(372.333 644)">clique</text><text font-family="Arial,Arial_MSFontService,sans-serif" font-style="italic" font-weight="400" font-size="21" transform="translate(409.333 640)">d</text><text font-family="Arial,Arial_MSFontService,sans-serif" font-style="italic" font-weight="400" font-size="14" transform="translate(421.167 644)">M</text><text font-family="Arial,Arial_MSFontService,sans-serif" font-weight="400" font-size="21" transform="translate(433 640)">(</text><text font-family="Arial,Arial_MSFontService,sans-serif" font-style="italic" font-weight="400" font-size="21" transform="translate(440.167 640)">e</text><text font-family="Arial,Arial_MSFontService,sans-serif" font-weight="400" font-size="21" transform="translate(452 640)">)</text><text font-family="Arial,Arial_MSFontService,sans-serif" font-style="italic" font-weight="400" font-size="21" transform="translate(465.167 640)">=</text><text font-family="Arial,Arial_MSFontService,sans-serif" font-weight="400" font-size="21" transform="translate(483.667 640)">14.5</text><rect x="539" y="215" width="145" height="71" fill="#CCCCFF"/><text font-family="Arial,Arial_MSFontService,sans-serif" font-weight="400" font-size="23" transform="translate(559.062 243)">Monotone</text><text font-family="Arial,Arial_MSFontService,sans-serif" font-weight="400" font-size="23" transform="translate(559.062 272)">chain</text><text font-family="Arial,Arial_MSFontService,sans-serif" font-weight="400" font-size="21" transform="translate(542.6 613)">Chain Length = 12</text><g clip-path="url(#clip2)"><rect x="543.167" y="394.167" width="156" height="183" fill="#FFFFFF"/><path d="M543.667 576.667 698.667 576.667 698.667 394.667 543.667 394.667ZM542.667 577.667 542.667 393.667 699.667 393.667 699.667 577.667Z" fill="#FFFFFF" fill-rule="evenodd"/></g><rect x="540.5" y="391.5" width="156" height="183" stroke="#969696" stroke-miterlimit="8" fill="#EAEAEA"/><path d="M592.5 574.5 592.5 391.5" stroke="#808080" stroke-linejoin="round" stroke-miterlimit="10" stroke-dasharray="1 1" fill="none" fill-rule="evenodd"/><path d="M566.5 574.5 566.5 391.5" stroke="#808080" stroke-linejoin="round" stroke-miterlimit="10" stroke-dasharray="1 1" fill="none" fill-rule="evenodd"/><path d="M540.5 548.5 697.5 548.5" stroke="#808080" stroke-linejoin="round" stroke-miterlimit="10" stroke-dasharray="1 1" fill="none" fill-rule="evenodd"/><path d="M540.5 523.5 697.5 523.5" stroke="#808080" stroke-linejoin="round" stroke-miterlimit="10" stroke-dasharray="1 1" fill="none" fill-rule="evenodd"/><path d="M540.5 497.5 697.5 497.5" stroke="#808080" stroke-linejoin="round" stroke-miterlimit="10" stroke-dasharray="1 1" fill="none" fill-rule="evenodd"/><path d="M541.5 471.5 697.5 471.5" stroke="#808080" stroke-linejoin="round" stroke-miterlimit="10" stroke-dasharray="1 1" fill="none" fill-rule="evenodd"/><path d="M618.5 574.5 618.5 391.5" stroke="#808080" stroke-linejoin="round" stroke-miterlimit="10" stroke-dasharray="1 1" fill="none" fill-rule="evenodd"/><path d="M644.5 574.5 644.5 391.5" stroke="#808080" stroke-linejoin="round" stroke-miterlimit="10" stroke-dasharray="1 1" fill="none" fill-rule="evenodd"/><path d="M670.5 574.5 670.5 391.5" stroke="#808080" stroke-linejoin="round" stroke-miterlimit="10" stroke-dasharray="1 1" fill="none" fill-rule="evenodd"/><path d="M541.5 445.5 697.5 445.5" stroke="#808080" stroke-linejoin="round" stroke-miterlimit="10" stroke-dasharray="1 1" fill="none" fill-rule="evenodd"/><path d="M541.5 420.5 698.5 420.5" stroke="#808080" stroke-linejoin="round" stroke-miterlimit="10" stroke-dasharray="1 1" fill="none" fill-rule="evenodd"/><rect x="546.5" y="502.5" width="16" height="41" stroke="#000000" stroke-miterlimit="8" fill="#B2B2B2"/><rect x="675.5" y="399.5" width="16" height="41" stroke="#000000" stroke-miterlimit="8" fill="#B2B2B2"/><rect x="598.5" y="451.5" width="40" height="41" stroke="#000000" stroke-miterlimit="8" fill="#B2B2B2"/><rect x="623.5" y="553.5" width="57" height="15" stroke="#000000" stroke-miterlimit="8" fill="#B2B2B2"/><path d="M567.5 523.54 567.5 497.181 618.801 497.181 618.801 549.5 644.651 549.5 644.651 420.5 670.5 420.5" stroke="#000000" stroke-width="3.33333" stroke-linejoin="round" stroke-miterlimit="10" fill="none" fill-rule="evenodd"/><path d="M614.5 497.5C614.5 495.291 616.291 493.5 618.5 493.5 620.709 493.5 622.5 495.291 622.5 497.5 622.5 499.709 620.709 501.5 618.5 501.5 616.291 501.5 614.5 499.709 614.5 497.5Z" stroke="#000000" stroke-linejoin="round" stroke-miterlimit="10" fill="#FFFFFF" fill-rule="evenodd"/><path d="M562.5 523.5C562.5 521.291 564.291 519.5 566.5 519.5 568.709 519.5 570.5 521.291 570.5 523.5 570.5 525.709 568.709 527.5 566.5 527.5 564.291 527.5 562.5 525.709 562.5 523.5Z" stroke="#000000" stroke-linejoin="round" stroke-miterlimit="10" fill="#FFFFFF" fill-rule="evenodd"/><path d="M640.5 549C640.5 546.515 642.291 544.5 644.5 544.5 646.709 544.5 648.5 546.515 648.5 549 648.5 551.485 646.709 553.5 644.5 553.5 642.291 553.5 640.5 551.485 640.5 549Z" stroke="#000000" stroke-linejoin="round" stroke-miterlimit="10" fill="#FFFFFF" fill-rule="evenodd"/><path d="M666.5 420.5C666.5 418.291 668.291 416.5 670.5 416.5 672.709 416.5 674.5 418.291 674.5 420.5 674.5 422.709 672.709 424.5 670.5 424.5 668.291 424.5 666.5 422.709 666.5 420.5Z" stroke="#000000" stroke-linejoin="round" stroke-miterlimit="10" fill="#FFFFFF" fill-rule="evenodd"/><text font-family="Arial,Arial_MSFontService,sans-serif" font-weight="400" font-size="21" transform="translate(647.167 498)">6</text><text font-family="Arial,Arial_MSFontService,sans-serif" font-weight="400" font-size="21" transform="translate(574.167 492)">3</text><text font-family="Arial,Arial_MSFontService,sans-serif" font-weight="400" font-size="21" transform="translate(603.333 536)">3</text><rect x="758" y="216" width="139" height="42" fill="#CCCCFF"/><text font-family="Arial,Arial_MSFontService,sans-serif" font-weight="400" font-size="23" transform="translate(777.729 244)">Star model</text><g clip-path="url(#clip3)"><rect x="751.167" y="393.167" width="159" height="185" fill="#FFFFFF"/><path d="M751.667 577.667 909.667 577.667 909.667 393.667 751.667 393.667ZM750.667 578.667 750.667 392.667 910.667 392.667 910.667 578.667Z" fill="#FFFFFF" fill-rule="evenodd"/></g><rect x="748.5" y="390.5" width="159" height="185" stroke="#969696" stroke-miterlimit="8" fill="#EAEAEA"/><path d="M802.5 575.5 802.5 390.5" stroke="#808080" stroke-linejoin="round" stroke-miterlimit="10" stroke-dasharray="1 1" fill="none" fill-rule="evenodd"/><path d="M775.5 576.5 775.5 391.5" stroke="#808080" stroke-linejoin="round" stroke-miterlimit="10" stroke-dasharray="1 1" fill="none" fill-rule="evenodd"/><path d="M749.5 550.5 907.5 550.5" stroke="#808080" stroke-linejoin="round" stroke-miterlimit="10" stroke-dasharray="1 1" fill="none" fill-rule="evenodd"/><path d="M749.5 524.5 908.5 524.5" stroke="#808080" stroke-linejoin="round" stroke-miterlimit="10" stroke-dasharray="1 1" fill="none" fill-rule="evenodd"/><path d="M749.5 498.5 907.5 498.5" stroke="#808080" stroke-linejoin="round" stroke-miterlimit="10" stroke-dasharray="1 1" fill="none" fill-rule="evenodd"/><path d="M749.5 472.5 908.5 472.5" stroke="#808080" stroke-linejoin="round" stroke-miterlimit="10" stroke-dasharray="1 1" fill="none" fill-rule="evenodd"/><path d="M828.5 576.5 828.5 391.5" stroke="#808080" stroke-linejoin="round" stroke-miterlimit="10" stroke-dasharray="1 1" fill="none" fill-rule="evenodd"/><path d="M854.5 575.5 854.5 390.5" stroke="#808080" stroke-linejoin="round" stroke-miterlimit="10" stroke-dasharray="1 1" fill="none" fill-rule="evenodd"/><path d="M880.5 575.5 880.5 390.5" stroke="#808080" stroke-linejoin="round" stroke-miterlimit="10" stroke-dasharray="1 1" fill="none" fill-rule="evenodd"/><path d="M749.5 445.5 908.5 445.5" stroke="#808080" stroke-linejoin="round" stroke-miterlimit="10" stroke-dasharray="1 1" fill="none" fill-rule="evenodd"/><path d="M750.5 419.5 908.5 419.5" stroke="#808080" stroke-linejoin="round" stroke-miterlimit="10" stroke-dasharray="1 1" fill="none" fill-rule="evenodd"/><text font-family="Arial,Arial_MSFontService,sans-serif" font-weight="400" font-size="21" transform="translate(748 613)">Star Length = 15</text><rect x="754.5" y="503.5" width="16" height="41" stroke="#000000" stroke-miterlimit="8" fill="#B2B2B2"/><rect x="886.5" y="399.5" width="16" height="41" stroke="#000000" stroke-miterlimit="8" fill="#B2B2B2"/><rect x="807.5" y="451.5" width="41" height="41" stroke="#000000" stroke-miterlimit="8" fill="#B2B2B2"/><rect x="833.5" y="555.5" width="58" height="16" stroke="#000000" stroke-miterlimit="8" fill="#B2B2B2"/><path d="M771.5 525C771.5 522.515 773.291 520.5 775.5 520.5 777.709 520.5 779.5 522.515 779.5 525 779.5 527.485 777.709 529.5 775.5 529.5 773.291 529.5 771.5 527.485 771.5 525Z" stroke="#000000" stroke-linejoin="round" stroke-miterlimit="10" fill-rule="evenodd"/><path d="M775.5 524.5 775.5 497.5 828.5 497.5" stroke="#000000" stroke-width="3.33333" stroke-linejoin="round" stroke-miterlimit="10" fill="none" fill-rule="evenodd"/><path d="M775.5 524.5 854.554 524.5 854.554 420.5 880.5 420.5" stroke="#000000" stroke-width="3.33333" stroke-linejoin="round" stroke-miterlimit="10" fill="none" fill-rule="evenodd"/><path d="M775.5 524.5 775.5 550.5 854.5 550.5" stroke="#000000" stroke-width="3.33333" stroke-linejoin="round" stroke-miterlimit="10" fill="none" fill-rule="evenodd"/><path d="M824.5 498C824.5 495.515 826.291 493.5 828.5 493.5 830.709 493.5 832.5 495.515 832.5 498 832.5 500.485 830.709 502.5 828.5 502.5 826.291 502.5 824.5 500.485 824.5 498Z" stroke="#000000" stroke-linejoin="round" stroke-miterlimit="10" fill="#FFFFFF" fill-rule="evenodd"/><path d="M850.5 550.5C850.5 548.291 852.291 546.5 854.5 546.5 856.709 546.5 858.5 548.291 858.5 550.5 858.5 552.709 856.709 554.5 854.5 554.5 852.291 554.5 850.5 552.709 850.5 550.5Z" stroke="#000000" stroke-linejoin="round" stroke-miterlimit="10" fill="#FFFFFF" fill-rule="evenodd"/><path d="M876.5 420C876.5 417.515 878.515 415.5 881 415.5 883.485 415.5 885.5 417.515 885.5 420 885.5 422.485 883.485 424.5 881 424.5 878.515 424.5 876.5 422.485 876.5 420Z" stroke="#000000" stroke-linejoin="round" stroke-miterlimit="10" fill="#FFFFFF" fill-rule="evenodd"/><text font-family="Arial,Arial_MSFontService,sans-serif" font-weight="400" font-size="21" transform="translate(859.167 494)">8</text><text font-family="Arial,Arial_MSFontService,sans-serif" font-weight="400" font-size="21" transform="translate(783.667 492)">3</text><text font-family="Arial,Arial_MSFontService,sans-serif" font-weight="400" font-size="21" transform="translate(783.667 575)">4</text></g></svg>