<svg width="946" height="584" xmlns="http://www.w3.org/2000/svg" xmlns:xlink="http://www.w3.org/1999/xlink" overflow="hidden"><g transform="translate(3 -88)"><path d="M0 0 0.000104987 21" stroke="#B2B2B2" stroke-width="3" stroke-linejoin="round" stroke-miterlimit="10" fill="none" fill-rule="evenodd" transform="matrix(1 0 0 -1 430.5 571.5)"/><path d="M430.5 550.5 458.5 550.5" stroke="#B2B2B2" stroke-width="3" stroke-linejoin="round" stroke-miterlimit="10" fill="none" fill-rule="evenodd"/><path d="M458.5 550.5 458.5 571.5" stroke="#B2B2B2" stroke-width="3" stroke-linejoin="round" stroke-miterlimit="10" fill="none" fill-rule="evenodd"/><path d="M430.5 486.5 430.5 529.5" stroke="#B2B2B2" stroke-width="3" stroke-linejoin="round" stroke-miterlimit="10" fill="none" fill-rule="evenodd"/><path d="M430.5 529.5 645.5 530.5" stroke="#B2B2B2" stroke-width="3" stroke-linejoin="round" stroke-miterlimit="10" fill="none" fill-rule="evenodd"/><path d="M0 0 0.000104987 64" stroke="#B2B2B2" stroke-width="3" stroke-linejoin="round" stroke-miterlimit="10" fill="none" fill-rule="evenodd" transform="matrix(1 0 0 -1 444.5 571.5)"/><path d="M444.5 507.5 515.5 507.5" stroke="#B2B2B2" stroke-width="3" stroke-linejoin="round" stroke-miterlimit="10" fill="none" fill-rule="evenodd"/><path d="M0 0 0.000104987 43" stroke="#B2B2B2" stroke-width="3" stroke-linejoin="round" stroke-miterlimit="10" fill="none" fill-rule="evenodd" transform="matrix(1 0 0 -1 458.5 529.5)"/><path d="M0 0 0.000104987 21" stroke="#B2B2B2" stroke-width="3" stroke-linejoin="round" stroke-miterlimit="10" fill="none" fill-rule="evenodd" transform="matrix(1 0 0 -1 472.5 507.5)"/><path d="M472.5 529.5 472.5 571.5" stroke="#B2B2B2" stroke-width="3" stroke-linejoin="round" stroke-miterlimit="10" fill="none" fill-rule="evenodd"/><path d="M486.5 486.5 486.5 550.5" stroke="#B2B2B2" stroke-width="3" stroke-linejoin="round" stroke-miterlimit="10" fill="none" fill-rule="evenodd"/><path d="M486.5 550.5 553.5 551.5" stroke="#B2B2B2" stroke-width="3" stroke-linejoin="round" stroke-miterlimit="10" fill="none" fill-rule="evenodd"/><path d="M501.5 486.5 501.5 571.5" stroke="#B2B2B2" stroke-width="3" stroke-linejoin="round" stroke-miterlimit="10" fill="none" fill-rule="evenodd"/><path d="M515.5 486.5 515.5 571.5" stroke="#B2B2B2" stroke-width="3" stroke-linejoin="round" stroke-miterlimit="10" fill="none" fill-rule="evenodd"/><rect x="427.5" y="405.5" width="91" height="83" stroke="#000000" stroke-width="1.33333" stroke-miterlimit="8" fill="#B2B2B2"/><rect x="593.5" y="571.5" width="91" height="82" stroke="#000000" stroke-width="1.33333" stroke-miterlimit="8" fill="#B2B2B2"/><rect x="427.5" y="571.5" width="91" height="82" stroke="#000000" stroke-width="1.33333" stroke-miterlimit="8" fill="#B2B2B2"/><rect x="593.5" y="405.5" width="91" height="83" stroke="#000000" stroke-width="1.33333" stroke-miterlimit="8" fill="#B2B2B2"/><rect x="88" y="123" width="375" height="37" fill="#CCCCFF"/><text font-family="Arial,Arial_MSFontService,sans-serif" font-weight="400" font-size="23" transform="translate(97.997 150)">Channel and Switchbox Routing</text><path d="M0.65892 6.60232C2.14865 4.51737 3.55244 2.54826 5.07082 0.694981 8.59461 1.1583 12.233 2.3166 15.6995 5.32819 17.4184 6.83398 18.8222 11.2355 20.5984 12.5097 22.7184 11.9305 24.6952 9.96139 26.8152 9.26641 28.6487 7.99228 30.5395 7.64479 32.3444 5.90734 34.2066 4.05405 34.8941 1.50579 36.9282 0.694981 39.3347 0.926641 41.7412 0.34749 44.119 1.27413 45.9812 1.96911 45.265 3.35907 46.239 5.32819 47.958 8.80309 49.9061 9.84556 51.7969 10.5405 53.2866 10.0772 54.9196 10.0772 56.3807 8.57143 58.1282 6.71815 59.8185 4.05405 61.5947 2.66409 62.8553 1.62162 62.712 1.96911 64.2304 1.27413 65.0899 0.926641 66.8375 0 66.8375 0 69.9029 0.46332 72.6818 2.20077 75.6613 3.24324 77.6667 5.32819 76.1769 15.5212 76.6353 22.471 73.6845 26.6409 68.6423 25.4826 65.8634 25.7143 59.7039 30 56.2947 26.7568 48.0439 26.4093 44.3196 25.5985 40.6525 23.5135 36.9282 22.471 34.6363 20.5019 32.2298 20.0386 29.9093 19.112 29.0498 18.7645 27.3022 17.8378 27.3022 17.8378 17.9627 18.3012 9.16759 17.4903 0 13.8996 0.487028 11.1197 0.257838 6.60232 0.65892 6.60232Z" fill="#EDEDED" fill-rule="evenodd" transform="matrix(0.0696639 -0.997571 -0.997571 -0.0696639 388.592 432.117)"/><path d="M0 0 0.000104987 113" stroke="#B2B2B2" stroke-width="3" stroke-linejoin="round" stroke-miterlimit="10" fill="none" fill-rule="evenodd" transform="matrix(1 0 0 -1 532.5 621.5)"/><path d="M532.5 508.5 624.5 508.5" stroke="#B2B2B2" stroke-width="3" stroke-linejoin="round" stroke-miterlimit="10" fill="none" fill-rule="evenodd"/><path d="M0 0 0.000104987 71" stroke="#B2B2B2" stroke-width="3" stroke-linejoin="round" stroke-miterlimit="10" fill="none" fill-rule="evenodd" transform="matrix(1 0 0 -1 574.5 508.5)"/><path d="M0 0 0.000104987 113" stroke="#B2B2B2" stroke-width="3" stroke-linejoin="round" stroke-miterlimit="10" fill="none" fill-rule="evenodd" transform="matrix(1 0 0 -1 553.5 529.5)"/><path d="M553.5 550.5 553.5 642.5" stroke="#B2B2B2" stroke-width="3" stroke-linejoin="round" stroke-miterlimit="10" fill="none" fill-rule="evenodd"/><path d="M574.5 529.5 574.5 621.5" stroke="#B2B2B2" stroke-width="3" stroke-linejoin="round" stroke-miterlimit="10" fill="none" fill-rule="evenodd"/><path d="M645.5 529.5 645.5 571.5" stroke="#B2B2B2" stroke-width="3" stroke-linejoin="round" stroke-miterlimit="10" fill="none" fill-rule="evenodd"/><path d="M0 0 0.000104987 21" stroke="#B2B2B2" stroke-width="3" stroke-linejoin="round" stroke-miterlimit="10" fill="none" fill-rule="evenodd" transform="matrix(1 0 0 -1 624.5 508.5)"/><path d="M574.5 621.5 596.5 621.5" stroke="#B2B2B2" stroke-width="3" stroke-linejoin="round" stroke-miterlimit="10" fill="none" fill-rule="evenodd"/><path d="M518.5 642.5 596.5 642.5" stroke="#B2B2B2" stroke-width="3" stroke-linejoin="round" stroke-miterlimit="10" fill="none" fill-rule="evenodd"/><path d="M0 0 14 0.000104987" stroke="#B2B2B2" stroke-width="3" stroke-linejoin="round" stroke-miterlimit="10" fill="none" fill-rule="evenodd" transform="matrix(-1 0 0 1 532.5 621.5)"/><path d="M574.5 437.5 596.5 437.5" stroke="#B2B2B2" stroke-width="3" stroke-linejoin="round" stroke-miterlimit="10" fill="none" fill-rule="evenodd"/><path d="M0 0 35 0.000104987" stroke="#B2B2B2" stroke-width="3" stroke-linejoin="round" stroke-miterlimit="10" fill="none" fill-rule="evenodd" transform="matrix(-1 0 0 1 553.5 416.5)"/><path d="M0 0 35 0.000104987" stroke="#B2B2B2" stroke-width="3" stroke-linejoin="round" stroke-miterlimit="10" fill="none" fill-rule="evenodd" transform="matrix(-1 0 0 1 553.5 437.5)"/><path d="M0 0 0.000104987 21" stroke="#B2B2B2" stroke-width="3" stroke-linejoin="round" stroke-miterlimit="10" fill="none" fill-rule="evenodd" transform="matrix(1 0 0 -1 624.5 571.5)"/><path d="M624.5 550.5 666.5 550.5" stroke="#B2B2B2" stroke-width="3" stroke-linejoin="round" stroke-miterlimit="10" fill="none" fill-rule="evenodd"/><path d="M666.5 487.5 666.5 571.5" stroke="#B2B2B2" stroke-width="3" stroke-linejoin="round" stroke-miterlimit="10" fill="none" fill-rule="evenodd"/><rect x="412" y="388" width="287" height="282" stroke="#B2B2B2" stroke-width="2" stroke-miterlimit="8" fill="none"/><path d="M412 529.5C412 498.296 440.43 473 475.5 473 510.57 473 539 498.296 539 529.5 539 560.704 510.57 586 475.5 586 440.43 586 412 560.704 412 529.5Z" stroke="#000000" stroke-width="3.50005" stroke-linejoin="round" stroke-miterlimit="10" stroke-dasharray="3.50005 3.50005" fill="none" fill-rule="evenodd"/><path d="M0 0 328 1" stroke="#000000" stroke-width="6.66667" stroke-linejoin="round" stroke-miterlimit="10" fill="none" fill-rule="evenodd" transform="matrix(-1 0 0 1 355.5 459.5)"/><path d="M0 0 329 1" stroke="#000000" stroke-width="6.66667" stroke-linejoin="round" stroke-miterlimit="10" fill="none" fill-rule="evenodd" transform="matrix(-1 0 0 1 355.5 277.5)"/><rect x="308.5" y="264.5" width="30" height="210" stroke="#808080" stroke-width="0" stroke-miterlimit="8" fill="#808080"/><rect x="308.5" y="264.5" width="30" height="211" stroke="#000000" stroke-width="3.33333" stroke-miterlimit="8" fill="none"/><rect x="264.5" y="264.5" width="29" height="210" stroke="#808080" stroke-width="0" stroke-miterlimit="8" fill="#808080"/><rect x="264.5" y="264.5" width="29" height="210" stroke="#000000" stroke-width="3.33333" stroke-miterlimit="8" fill="none"/><rect x="220.5" y="264.5" width="29" height="162" stroke="#808080" stroke-width="0" stroke-miterlimit="8" fill="#808080"/><rect x="220.5" y="264.5" width="29" height="162" stroke="#000000" stroke-width="3.33333" stroke-miterlimit="8" fill="none"/><rect x="134.5" y="403.5" width="30" height="73" stroke="#808080" stroke-width="0" stroke-miterlimit="8" fill="#808080"/><rect x="134.5" y="403.5" width="30" height="71" stroke="#000000" stroke-width="3.33333" stroke-miterlimit="8" fill="none"/><rect x="175.5" y="352.5" width="30" height="122" stroke="#808080" stroke-width="0" stroke-miterlimit="8" fill="#808080"/><rect x="175.5" y="352.5" width="30" height="122" stroke="#000000" stroke-width="3.33333" stroke-miterlimit="8" fill="none"/><rect x="175.5" y="264.5" width="30" height="74" stroke="#808080" stroke-width="0" stroke-miterlimit="8" fill="#808080"/><rect x="175.5" y="264.5" width="30" height="74" stroke="#000000" stroke-width="3.33333" stroke-miterlimit="8" fill="none"/><rect x="132.5" y="264.5" width="29" height="118" stroke="#808080" stroke-width="0" stroke-miterlimit="8" fill="#808080"/><rect x="132.5" y="264.5" width="29" height="118" stroke="#000000" stroke-width="3.33333" stroke-miterlimit="8" fill="none"/><rect x="87.5001" y="309.5" width="30" height="165" stroke="#808080" stroke-width="0" stroke-miterlimit="8" fill="#808080"/><rect x="87.5001" y="309.5" width="30" height="165" stroke="#000000" stroke-width="3.33333" stroke-miterlimit="8" fill="none"/><rect x="43.5001" y="403.5" width="29" height="73" stroke="#808080" stroke-width="0" stroke-miterlimit="8" fill="#808080"/><rect x="43.5001" y="403.5" width="29" height="71" stroke="#000000" stroke-width="3.33333" stroke-miterlimit="8" fill="none"/><rect x="43.5001" y="264.5" width="29" height="118" stroke="#808080" stroke-width="0" stroke-miterlimit="8" fill="#808080"/><rect x="43.5001" y="264.5" width="29" height="118" stroke="#000000" stroke-width="3.33333" stroke-miterlimit="8" fill="none"/><rect x="309.5" y="445.5" width="30" height="28" stroke="#000000" stroke-width="3.33333" stroke-miterlimit="8" fill="none"/><rect x="264.5" y="445.5" width="29" height="29" stroke="#000000" stroke-width="3.33333" stroke-miterlimit="8" fill="none"/><rect x="134.5" y="447.5" width="30" height="27" stroke="#000000" stroke-width="3.33333" stroke-miterlimit="8" fill="none"/><rect x="175.5" y="445.5" width="30" height="29" stroke="#000000" stroke-width="3.33333" stroke-miterlimit="8" fill="none"/><rect x="87.5001" y="445.5" width="30" height="29" stroke="#000000" stroke-width="3.33333" stroke-miterlimit="8" fill="none"/><rect x="43.5001" y="445.5" width="29" height="29" stroke="#000000" stroke-width="3.33333" stroke-miterlimit="8" fill="none"/><rect x="308.5" y="264.5" width="30" height="30" stroke="#000000" stroke-width="3.33333" stroke-miterlimit="8" fill="none"/><rect x="264.5" y="264.5" width="29" height="30" stroke="#000000" stroke-width="3.33333" stroke-miterlimit="8" fill="none"/><rect x="220.5" y="264.5" width="29" height="30" stroke="#000000" stroke-width="3.33333" stroke-miterlimit="8" fill="none"/><rect x="175.5" y="264.5" width="30" height="30" stroke="#000000" stroke-width="3.33333" stroke-miterlimit="8" fill="none"/><rect x="132.5" y="264.5" width="29" height="30" stroke="#000000" stroke-width="3.33333" stroke-miterlimit="8" fill="none"/><rect x="43.5001" y="264.5" width="29" height="30" stroke="#000000" stroke-width="3.33333" stroke-miterlimit="8" fill="none"/><rect x="220.5" y="397.5" width="29" height="29" stroke="#DFDFDF" stroke-width="0" stroke-miterlimit="8" fill="#DFDFDF"/><rect x="220.5" y="397.5" width="29" height="29" stroke="#000000" stroke-width="3.33333" stroke-miterlimit="8" fill="none"/><rect x="134.5" y="396.5" width="30" height="30" stroke="#DFDFDF" stroke-width="0" stroke-miterlimit="8" fill="#DFDFDF"/><rect x="134.5" y="396.5" width="30" height="30" stroke="#000000" stroke-width="3.33333" stroke-miterlimit="8" fill="none"/><rect x="43.5001" y="396.5" width="29" height="30" stroke="#DFDFDF" stroke-width="0" stroke-miterlimit="8" fill="#DFDFDF"/><rect x="43.5001" y="396.5" width="29" height="30" stroke="#000000" stroke-width="3.33333" stroke-miterlimit="8" fill="none"/><rect x="264.5" y="352.5" width="29" height="30" stroke="#DFDFDF" stroke-width="0" stroke-miterlimit="8" fill="#DFDFDF"/><rect x="264.5" y="352.5" width="29" height="30" stroke="#000000" stroke-width="3.33333" stroke-miterlimit="8" fill="none"/><rect x="175.5" y="352.5" width="30" height="30" stroke="#DFDFDF" stroke-width="0" stroke-miterlimit="8" fill="#DFDFDF"/><rect x="175.5" y="352.5" width="30" height="30" stroke="#000000" stroke-width="3.33333" stroke-miterlimit="8" fill="none"/><rect x="132.5" y="352.5" width="29" height="30" stroke="#DFDFDF" stroke-width="0" stroke-miterlimit="8" fill="#DFDFDF"/><rect x="132.5" y="352.5" width="29" height="30" stroke="#000000" stroke-width="3.33333" stroke-miterlimit="8" fill="none"/><rect x="43.5001" y="352.5" width="29" height="30" stroke="#DFDFDF" stroke-width="0" stroke-miterlimit="8" fill="#DFDFDF"/><rect x="43.5001" y="352.5" width="29" height="30" stroke="#000000" stroke-width="3.33333" stroke-miterlimit="8" fill="none"/><rect x="308.5" y="309.5" width="30" height="29" stroke="#DFDFDF" stroke-width="0" stroke-miterlimit="8" fill="#DFDFDF"/><rect x="308.5" y="309.5" width="30" height="29" stroke="#000000" stroke-width="3.33333" stroke-miterlimit="8" fill="none"/><rect x="175.5" y="309.5" width="30" height="29" stroke="#DFDFDF" stroke-width="0" stroke-miterlimit="8" fill="#DFDFDF"/><rect x="175.5" y="309.5" width="30" height="29" stroke="#000000" stroke-width="3.33333" stroke-miterlimit="8" fill="none"/><rect x="87.5001" y="309.5" width="30" height="29" stroke="#DFDFDF" stroke-width="0" stroke-miterlimit="8" fill="#DFDFDF"/><rect x="87.5001" y="309.5" width="30" height="29" stroke="#000000" stroke-width="3.33333" stroke-miterlimit="8" fill="none"/><rect x="161.5" y="360.5" width="14" height="15" stroke="#DFDFDF" stroke-width="0" stroke-miterlimit="8" fill="#DFDFDF"/><rect x="161.5" y="360.5" width="14" height="15" stroke="#000000" stroke-width="3.33333" stroke-miterlimit="8" fill="none"/><rect x="72.5" y="403.5" width="59" height="15" stroke="#DFDFDF" stroke-width="0" stroke-miterlimit="8" fill="#DFDFDF"/><rect x="249.5" y="405.5" width="127" height="13" stroke="#DFDFDF" stroke-width="0" stroke-miterlimit="8" fill="#DFDFDF"/><rect x="249.5" y="405.5" width="127" height="16" stroke="#000000" stroke-width="3.33333" stroke-miterlimit="8" fill="none"/><rect x="293.5" y="360.5" width="90" height="15" stroke="#DFDFDF" stroke-width="0" stroke-miterlimit="8" fill="#DFDFDF"/><rect x="293.5" y="360.5" width="90" height="15" stroke="#000000" stroke-width="3.33333" stroke-miterlimit="8" fill="none"/><rect x="205.5" y="360.5" width="59" height="15" stroke="#DFDFDF" stroke-width="0" stroke-miterlimit="8" fill="#DFDFDF"/><rect x="205.5" y="360.5" width="59" height="15" stroke="#000000" stroke-width="3.33333" stroke-miterlimit="8" fill="none"/><rect x="72.5" y="360.5" width="60" height="15" stroke="#DFDFDF" stroke-width="0" stroke-miterlimit="8" fill="#DFDFDF"/><rect x="72.5" y="360.5" width="60" height="15" stroke="#000000" stroke-width="3.33333" stroke-miterlimit="8" fill="none"/><rect x="117.5" y="316.5" width="58" height="15" stroke="#DFDFDF" stroke-width="0" stroke-miterlimit="8" fill="#DFDFDF"/><rect x="117.5" y="316.5" width="58" height="15" stroke="#000000" stroke-width="3.33333" stroke-miterlimit="8" fill="none"/><rect x="205.5" y="316.5" width="103" height="15" stroke="#DFDFDF" stroke-width="0" stroke-miterlimit="8" fill="#DFDFDF"/><rect x="205.5" y="316.5" width="103" height="15" stroke="#000000" stroke-width="3.33333" stroke-miterlimit="8" fill="none"/><rect x="142.5" y="403.5" width="15" height="15" stroke="#000000" stroke-width="0" stroke-miterlimit="8"/><rect x="142.5" y="403.5" width="15" height="15" stroke="#000000" stroke-width="3.33333" stroke-miterlimit="8" fill="none"/><rect x="51.5001" y="403.5" width="15" height="15" stroke="#000000" stroke-width="0" stroke-miterlimit="8"/><rect x="51.5001" y="403.5" width="15" height="15" stroke="#000000" stroke-width="3.33333" stroke-miterlimit="8" fill="none"/><rect x="228.5" y="405.5" width="14" height="15" stroke="#000000" stroke-width="0" stroke-miterlimit="8"/><rect x="228.5" y="405.5" width="14" height="15" stroke="#000000" stroke-width="3.33333" stroke-miterlimit="8" fill="none"/><rect x="271.5" y="360.5" width="15" height="15" stroke="#000000" stroke-width="0" stroke-miterlimit="8"/><rect x="271.5" y="360.5" width="15" height="15" stroke="#000000" stroke-width="3.33333" stroke-miterlimit="8" fill="none"/><rect x="183.5" y="360.5" width="15" height="15" stroke="#000000" stroke-width="0" stroke-miterlimit="8"/><rect x="183.5" y="360.5" width="15" height="15" stroke="#000000" stroke-width="3.33333" stroke-miterlimit="8" fill="none"/><rect x="139.5" y="360.5" width="14" height="15" stroke="#000000" stroke-width="0" stroke-miterlimit="8"/><rect x="139.5" y="360.5" width="14" height="15" stroke="#000000" stroke-width="3.33333" stroke-miterlimit="8" fill="none"/><rect x="51.5001" y="360.5" width="15" height="15" stroke="#000000" stroke-width="0" stroke-miterlimit="8"/><rect x="51.5001" y="360.5" width="15" height="15" stroke="#000000" stroke-width="3.33333" stroke-miterlimit="8" fill="none"/><rect x="316.5" y="316.5" width="14" height="15" stroke="#000000" stroke-width="0" stroke-miterlimit="8"/><rect x="316.5" y="316.5" width="14" height="15" stroke="#000000" stroke-width="3.33333" stroke-miterlimit="8" fill="none"/><rect x="183.5" y="316.5" width="15" height="15" stroke="#000000" stroke-width="0" stroke-miterlimit="8"/><rect x="183.5" y="316.5" width="15" height="15" stroke="#000000" stroke-width="3.33333" stroke-miterlimit="8" fill="none"/><rect x="95.5001" y="316.5" width="14" height="15" stroke="#000000" stroke-width="0" stroke-miterlimit="8"/><rect x="95.5001" y="316.5" width="14" height="15" stroke="#000000" stroke-width="3.33333" stroke-miterlimit="8" fill="none"/><rect x="72.5" y="403.5" width="63" height="16" stroke="#000000" stroke-width="3.33333" stroke-miterlimit="8" fill="none"/><text font-family="Arial,Arial_MSFontService,sans-serif" font-style="italic" font-weight="700" font-size="23" transform="translate(54.1636 510)">A</text><text font-family="Arial,Arial_MSFontService,sans-serif" font-style="italic" font-weight="700" font-size="23" transform="translate(145.83 510)">A</text><text font-family="Arial,Arial_MSFontService,sans-serif" font-style="italic" font-weight="700" font-size="23" transform="translate(54.1636 256)">B</text><text font-family="Arial,Arial_MSFontService,sans-serif" font-style="italic" font-weight="700" font-size="23" transform="translate(138.83 256)">B</text><text font-family="Arial,Arial_MSFontService,sans-serif" font-style="italic" font-weight="700" font-size="23" transform="translate(188.164 510)">B</text><text font-family="Arial,Arial_MSFontService,sans-serif" font-style="italic" font-weight="700" font-size="23" transform="translate(272.83 256)">B</text><text font-family="Arial,Arial_MSFontService,sans-serif" font-style="italic" font-weight="700" font-size="23" transform="translate(272.83 510)">B</text><text font-family="Arial,Arial_MSFontService,sans-serif" font-style="italic" font-weight="700" font-size="23" transform="translate(96.3303 510)">C</text><text font-family="Arial,Arial_MSFontService,sans-serif" font-style="italic" font-weight="700" font-size="23" transform="translate(181.164 256)">C</text><text font-family="Arial,Arial_MSFontService,sans-serif" font-style="italic" font-weight="700" font-size="23" transform="translate(319.997 510)">C</text><text font-family="Arial,Arial_MSFontService,sans-serif" font-style="italic" font-weight="700" font-size="23" transform="translate(319.997 256)">C</text><text font-family="Arial,Arial_MSFontService,sans-serif" font-style="italic" font-weight="700" font-size="23" transform="translate(230.497 256)">D</text><path d="M370.5 262.5 518.5 486.5" stroke="#000000" stroke-width="3" stroke-linejoin="round" stroke-miterlimit="10" stroke-dasharray="3 3" fill="none" fill-rule="evenodd"/><path d="M353.5 529.5 458.5 586.5" stroke="#000000" stroke-width="3" stroke-linejoin="round" stroke-miterlimit="10" stroke-dasharray="3 3" fill="none" fill-rule="evenodd"/><rect x="835" y="274" width="7" height="131" fill="#EDEDED"/><rect x="712.5" y="237.5" width="29" height="134" stroke="#808080" stroke-width="0" stroke-miterlimit="8" fill="#808080"/><rect x="782.5" y="150.5" width="76" height="16" stroke="#DFDFDF" stroke-width="0" stroke-miterlimit="8" fill="#DFDFDF"/><rect x="712.5" y="237.5" width="29" height="134" stroke="#000000" stroke-width="3.33333" stroke-miterlimit="8" fill="none"/><rect x="752.5" y="186.5" width="30" height="185" stroke="#808080" stroke-width="0" stroke-miterlimit="8" fill="#808080"/><rect x="752.5" y="186.5" width="30" height="185" stroke="#000000" stroke-width="3.33333" stroke-miterlimit="8" fill="none"/><rect x="752.5" y="96.5" width="30" height="76" stroke="#808080" stroke-width="0" stroke-miterlimit="8" fill="#808080"/><rect x="752.5" y="96.5" width="30" height="76" stroke="#000000" stroke-width="3.33333" stroke-miterlimit="8" fill="none"/><rect x="709.5" y="96.5" width="30" height="120" stroke="#808080" stroke-width="0" stroke-miterlimit="8" fill="#808080"/><rect x="709.5" y="96.5" width="30" height="120" stroke="#000000" stroke-width="3.33333" stroke-miterlimit="8" fill="none"/><rect x="664.5" y="143.5" width="30" height="228" stroke="#808080" stroke-width="0" stroke-miterlimit="8" fill="#808080"/><rect x="664.5" y="143.5" width="30" height="228" stroke="#000000" stroke-width="3.33333" stroke-miterlimit="8" fill="none"/><rect x="752.5" y="186.5" width="30" height="30" stroke="#DFDFDF" stroke-width="0" stroke-miterlimit="8" fill="#DFDFDF"/><rect x="752.5" y="186.5" width="30" height="30" stroke="#000000" stroke-width="3.33333" stroke-miterlimit="8" fill="none"/><rect x="752.5" y="143.5" width="30" height="29" stroke="#DFDFDF" stroke-width="0" stroke-miterlimit="8" fill="#DFDFDF"/><rect x="752.5" y="143.5" width="30" height="29" stroke="#000000" stroke-width="3.33333" stroke-miterlimit="8" fill="none"/><rect x="664.5" y="143.5" width="30" height="29" stroke="#DFDFDF" stroke-width="0" stroke-miterlimit="8" fill="#DFDFDF"/><rect x="664.5" y="143.5" width="30" height="29" stroke="#000000" stroke-width="3.33333" stroke-miterlimit="8" fill="none"/><rect x="574.5" y="237.5" width="147" height="14" stroke="#DFDFDF" stroke-width="0" stroke-miterlimit="8" fill="#DFDFDF"/><rect x="783.5" y="195.5" width="82" height="14" stroke="#000000" stroke-width="3.33333" stroke-miterlimit="8" fill="#EAEAEA"/><rect x="574.5" y="194.5" width="148" height="15" stroke="#DFDFDF" stroke-width="0" stroke-miterlimit="8" fill="#DFDFDF"/><rect x="574.5" y="194.5" width="148" height="15" stroke="#000000" stroke-width="3.33333" stroke-miterlimit="8" fill="none"/><rect x="694.5" y="150.5" width="58" height="14" stroke="#DFDFDF" stroke-width="0" stroke-miterlimit="8" fill="#DFDFDF"/><rect x="694.5" y="150.5" width="58" height="14" stroke="#000000" stroke-width="3.33333" stroke-miterlimit="8" fill="none"/><rect x="782.5" y="150.5" width="76" height="16" stroke="#000000" stroke-width="3.33333" stroke-miterlimit="8" fill="none"/><rect x="760.5" y="194.5" width="15" height="15" stroke="#000000" stroke-width="0" stroke-miterlimit="8"/><rect x="760.5" y="194.5" width="15" height="15" stroke="#000000" stroke-width="3.33333" stroke-miterlimit="8" fill="none"/><rect x="760.5" y="150.5" width="15" height="14" stroke="#000000" stroke-width="0" stroke-miterlimit="8"/><rect x="760.5" y="150.5" width="15" height="14" stroke="#000000" stroke-width="3.33333" stroke-miterlimit="8" fill="none"/><rect x="672.5" y="150.5" width="14" height="14" stroke="#000000" stroke-width="0" stroke-miterlimit="8"/><rect x="672.5" y="150.5" width="14" height="14" stroke="#000000" stroke-width="3.33333" stroke-miterlimit="8" fill="none"/><rect x="574.5" y="237.5" width="150" height="14" stroke="#000000" stroke-width="3.33333" stroke-miterlimit="8" fill="none"/><text font-family="Arial,Arial_MSFontService,sans-serif" font-style="italic" font-weight="700" font-size="23" transform="translate(718.83 321)">D</text><text font-family="Arial,Arial_MSFontService,sans-serif" font-style="italic" font-weight="700" font-size="23" transform="translate(716.164 118)">B</text><text font-family="Arial,Arial_MSFontService,sans-serif" font-style="italic" font-weight="700" font-size="23" transform="translate(761.164 321)">B</text><text font-family="Arial,Arial_MSFontService,sans-serif" font-style="italic" font-weight="700" font-size="23" transform="translate(669.33 321)">E</text><text font-family="Arial,Arial_MSFontService,sans-serif" font-style="italic" font-weight="700" font-size="23" transform="translate(758.497 118)">E</text><rect x="836" y="125" width="6" height="144" fill="#EDEDED"/><rect x="632" y="124" width="191" height="170" stroke="#000000" stroke-width="6" stroke-miterlimit="8" fill="none"/><rect x="609" y="338" width="285" height="37" fill="#EDEDED"/><text fill="#808080" font-family="Arial,Arial_MSFontService,sans-serif" font-weight="400" font-size="23" transform="translate(618.664 365)">Vertical Channel Tracks</text><text fill="#808080" font-family="Arial,Arial_MSFontService,sans-serif" font-weight="400" font-size="23" transform="matrix(-1.83697e-16 -1 1 -1.83697e-16 896.415 248)">Horizontal</text><text fill="#808080" font-family="Arial,Arial_MSFontService,sans-serif" font-weight="400" font-size="23" transform="matrix(-1.83697e-16 -1 1 -1.83697e-16 923.415 275)">Channel Tracks</text><rect x="739.5" y="194.5" width="13" height="15" stroke="#DFDFDF" stroke-width="0" stroke-miterlimit="8" fill="#DFDFDF"/><rect x="739.5" y="194.5" width="13" height="15" stroke="#000000" stroke-width="3.33333" stroke-miterlimit="8" fill="none"/><rect x="709.5" y="186.5" width="30" height="30" stroke="#DFDFDF" stroke-width="0" stroke-miterlimit="8" fill="#DFDFDF"/><rect x="716.5" y="194.5" width="15" height="15" stroke="#000000" stroke-width="0" stroke-miterlimit="8"/><rect x="716.5" y="194.5" width="15" height="15" stroke="#000000" stroke-width="3.33333" stroke-miterlimit="8" fill="none"/><rect x="709.5" y="186.5" width="30" height="30" stroke="#000000" stroke-width="3.33333" stroke-miterlimit="8" fill="none"/><rect x="712.5" y="230.5" width="29" height="30" stroke="#000000" stroke-width="3.33333" stroke-miterlimit="8" fill="none"/><rect x="712.5" y="231.5" width="28" height="27" stroke="#DFDFDF" stroke-width="0" stroke-miterlimit="8" fill="#DFDFDF"/><rect x="719.5" y="237.5" width="15" height="15" stroke="#000000" stroke-width="0" stroke-miterlimit="8"/><rect x="719.5" y="237.5" width="15" height="15" stroke="#000000" stroke-width="3.33333" stroke-miterlimit="8" fill="none"/><path d="M834.751 166.893 833.606 200.788 852.959 228.364 869.867 229.01 881.328 192.182 871.578 178.354 861.828 164.526 869.065 151.198 859.394 137.223 852.803 133.645 838.975 143.395 835.317 150.132 834.751 166.893Z" fill="#EDEDED" fill-rule="evenodd"/><text font-family="Arial,Arial_MSFontService,sans-serif" font-style="italic" font-weight="700" font-size="23" transform="translate(847.83 168)">E</text><text font-family="Arial,Arial_MSFontService,sans-serif" font-style="italic" font-weight="700" font-size="23" transform="translate(845.664 217)">B</text><path d="M570.084 212.227 568.939 246.121 588.293 273.697 605.2 274.343 616.661 237.516 606.911 223.688 597.161 209.86 604.398 196.531 594.727 182.557 588.136 178.978 574.308 188.728 570.65 195.466 570.084 212.227Z" fill="#EDEDED" fill-rule="evenodd"/><text font-family="Arial,Arial_MSFontService,sans-serif" font-style="italic" font-weight="700" font-size="23" transform="translate(582.164 260)">D</text><text font-family="Arial,Arial_MSFontService,sans-serif" font-style="italic" font-weight="700" font-size="23" transform="translate(582.164 210)">B</text><path d="M739.911 99.3578 774.458 99.5372 791.988 94.9807 783.818 91.0595 740.954 88.496 732.188 90.7913 723.421 93.0867 706.297 91.4429 697.342 93.7202 697.195 95.2572 714.171 98.4381 722.828 99.2691 739.911 99.3578Z" fill="#EDEDED" fill-rule="evenodd"/><path d="M730.039 342.852 796.257 345.81 829.486 342.24 813.516 337.309 731.168 331.085 714.552 332.888 697.936 334.691 664.988 331.528 648.01 333.297 647.85 334.962 680.638 339.79 697.293 341.389 730.039 342.852Z" fill="#EDEDED" fill-rule="evenodd"/><path d="M0 56.5C-7.20382e-15 25.2959 25.3332-7.1932e-15 56.5834-1.43864e-14 87.8335-2.87728e-14 113.167 25.2959 113.167 56.5 113.167 87.7041 87.8335 113 56.5834 113 25.3332 113-3.60191e-14 87.7041 0 56.5Z" stroke="#000000" stroke-width="3.50005" stroke-linejoin="round" stroke-miterlimit="10" stroke-dasharray="14.0002 10.5002" fill="none" fill-rule="evenodd" transform="matrix(0.522651 -0.852547 -0.852547 -0.522651 570.846 605.603)"/><path d="M0 0 231 179" stroke="#000000" stroke-width="3" stroke-linejoin="round" stroke-miterlimit="10" stroke-dasharray="12 9" fill="none" fill-rule="evenodd" transform="matrix(1 0 0 -1 605.5 550.5)"/><path d="M0 0 52 200" stroke="#000000" stroke-width="3" stroke-linejoin="round" stroke-miterlimit="10" stroke-dasharray="12 9" fill="none" fill-rule="evenodd" transform="matrix(1 0 0 -1 517.5 486.5)"/><path d="M0 371C-2.5399e-14 260.543 89.3192 171 199.5 171 309.681 171 399 260.543 399 371 399 481.457 309.681 571 199.5 571 89.3192 571-1.26995e-13 481.457 0 371Z" stroke="#CC0000" stroke-width="4" stroke-linejoin="round" stroke-miterlimit="10" fill="none" fill-rule="evenodd"/></g></svg>