<svg width="596" height="326" xmlns="http://www.w3.org/2000/svg" xmlns:xlink="http://www.w3.org/1999/xlink" overflow="hidden"><g transform="translate(-135 -96)"><path d="M715.968 96 173 96 173 134.983 715.968 134.983 715.968 96Z" fill="#F2F2F3" fill-rule="evenodd"/><path d="M197.981 106 181 106 181 122.981 197.981 122.981 197.981 106Z" fill="#010202" fill-rule="evenodd"/><path d="M198.481 123.481 181.5 123.481 181.5 106.5 198.481 106.5 198.481 123.481Z" stroke="#231F20" stroke-width="0.333333" stroke-linejoin="round" stroke-miterlimit="10" fill="none" fill-rule="evenodd"/><path d="M372.981 106 356 106 356 122.981 372.981 122.981 372.981 106Z" fill="#ED1F24" fill-rule="evenodd"/><path d="M373.481 123.481 356.5 123.481 356.5 106.5 373.481 106.5 373.481 123.481Z" stroke="#231F20" stroke-width="0.333333" stroke-linejoin="round" stroke-miterlimit="10" fill="none" fill-rule="evenodd"/><path d="M558.981 106 542 106 542 122.981 558.981 122.981 558.981 106Z" fill="#3853A4" fill-rule="evenodd"/><path d="M559.481 123.481 542.5 123.481 542.5 106.5 559.481 106.5 559.481 123.481Z" stroke="#231F20" stroke-width="0.333333" stroke-linejoin="round" stroke-miterlimit="10" fill="none" fill-rule="evenodd"/><path d="M190.5 339.483 429.474 339.483" stroke="#231F20" stroke-width="0.339528" stroke-linejoin="round" stroke-miterlimit="10" fill="none" fill-rule="evenodd"/><path d="M190.5 339.483 190.5 334.634" stroke="#231F20" stroke-width="0.339528" stroke-linejoin="round" stroke-miterlimit="10" fill="none" fill-rule="evenodd"/><path d="M250.243 339.483 250.243 334.634" stroke="#231F20" stroke-width="0.339528" stroke-linejoin="round" stroke-miterlimit="10" fill="none" fill-rule="evenodd"/><path d="M309.987 339.483 309.987 334.634" stroke="#231F20" stroke-width="0.339528" stroke-linejoin="round" stroke-miterlimit="10" fill="none" fill-rule="evenodd"/><path d="M369.731 339.483 369.731 334.634" stroke="#231F20" stroke-width="0.339528" stroke-linejoin="round" stroke-miterlimit="10" fill="none" fill-rule="evenodd"/><path d="M429.474 339.483 429.474 334.634" stroke="#231F20" stroke-width="0.339528" stroke-linejoin="round" stroke-miterlimit="10" fill="none" fill-rule="evenodd"/><path d="M190.5 339.483 190.5 145.5" stroke="#231F20" stroke-width="0.339528" stroke-linejoin="round" stroke-miterlimit="10" fill="none" fill-rule="evenodd"/><path d="M190.5 242.492 196.474 242.492" stroke="#231F20" stroke-width="0.339528" stroke-linejoin="round" stroke-miterlimit="10" fill="none" fill-rule="evenodd"/><path d="M192.957 170 190 170 190 178.991 192.957 178.991 192.957 170Z" fill="#010202" fill-rule="evenodd"/><path d="M190.5 170.5 193.457 170.5 193.457 179.491 190.5 179.491 190.5 170.5Z" stroke="#231F20" stroke-width="0.333333" stroke-linejoin="round" stroke-miterlimit="10" fill="none" fill-rule="evenodd"/><path d="M192.968 209 190 209 190 217.991 192.968 217.991 192.968 209Z" fill="#010202" fill-rule="evenodd"/><path d="M190.5 209.5 193.468 209.5 193.468 218.491 190.5 218.491 190.5 209.5Z" stroke="#231F20" stroke-width="0.333333" stroke-linejoin="round" stroke-miterlimit="10" fill="none" fill-rule="evenodd"/><path d="M190.178 248 190 256.991 190.178 248Z" fill="#010202" fill-rule="evenodd"/><path d="M190.5 248.5 190.678 257.491 190.5 248.5Z" stroke="#231F20" stroke-width="0.333333" stroke-linejoin="round" stroke-miterlimit="10" fill="none" fill-rule="evenodd"/><path d="M190.535 286 190 286 190 295.99 190.535 295.99 190.535 286Z" fill="#010202" fill-rule="evenodd"/><path d="M190.5 286.5 191.035 286.5 191.035 296.49 190.5 296.49 190.5 286.5Z" stroke="#231F20" stroke-width="0.333333" stroke-linejoin="round" stroke-miterlimit="10" fill="none" fill-rule="evenodd"/><path d="M190.356 325 190 325 190 334.99 190.356 334.99 190.356 325Z" fill="#010202" fill-rule="evenodd"/><path d="M190.5 325.5 190.856 325.5 190.856 335.49 190.5 335.49 190.5 325.5Z" stroke="#231F20" stroke-width="0.333333" stroke-linejoin="round" stroke-miterlimit="10" fill="none" fill-rule="evenodd"/><path d="M295.979 159 190 159 190 168.99 295.979 168.99 295.979 159Z" fill="#EC2026" fill-rule="evenodd"/><path d="M190.5 159.5 296.479 159.5 296.479 169.49 190.5 169.49 190.5 159.5Z" stroke="#231F20" stroke-width="0.333333" stroke-linejoin="round" stroke-miterlimit="10" fill="none" fill-rule="evenodd"/><path d="M278.991 198 190 198 190 207.99 278.991 207.99 278.991 198Z" fill="#EC2026" fill-rule="evenodd"/><path d="M190.5 198.5 279.491 198.5 279.491 208.49 190.5 208.49 190.5 198.5Z" stroke="#231F20" stroke-width="0.333333" stroke-linejoin="round" stroke-miterlimit="10" fill="none" fill-rule="evenodd"/><path d="M191.954 237 190 237 190 246.99 191.954 246.99 191.954 237Z" fill="#EC2026" fill-rule="evenodd"/><path d="M190.5 237.5 192.454 237.5 192.454 247.49 190.5 247.49 190.5 237.5Z" stroke="#231F20" stroke-width="0.333333" stroke-linejoin="round" stroke-miterlimit="10" fill="none" fill-rule="evenodd"/><path d="M214.939 276 190 276 190 284.991 214.939 284.991 214.939 276Z" fill="#EC2026" fill-rule="evenodd"/><path d="M190.5 276.5 215.439 276.5 215.439 285.491 190.5 285.491 190.5 276.5Z" stroke="#231F20" stroke-width="0.333333" stroke-linejoin="round" stroke-miterlimit="10" fill="none" fill-rule="evenodd"/><path d="M208.993 315 190 315 190 323.991 208.993 323.991 208.993 315Z" fill="#EC2026" fill-rule="evenodd"/><path d="M190.5 315.5 209.493 315.5 209.493 324.491 190.5 324.491 190.5 315.5Z" stroke="#231F20" stroke-width="0.333333" stroke-linejoin="round" stroke-miterlimit="10" fill="none" fill-rule="evenodd"/><path d="M256.989 149 190 149 190 157.991 256.989 157.991 256.989 149Z" fill="#3853A4" fill-rule="evenodd"/><path d="M190.5 149.5 257.49 149.5 257.49 158.491 190.5 158.491 190.5 149.5Z" stroke="#231F20" stroke-width="0.333333" stroke-linejoin="round" stroke-miterlimit="10" fill="none" fill-rule="evenodd"/><path d="M260.962 188 190 188 190 196.991 260.962 196.991 260.962 188Z" fill="#3853A4" fill-rule="evenodd"/><path d="M190.5 188.5 261.462 188.5 261.462 197.491 190.5 197.491 190.5 188.5Z" stroke="#231F20" stroke-width="0.333333" stroke-linejoin="round" stroke-miterlimit="10" fill="none" fill-rule="evenodd"/><path d="M197.981 227 190 227 190 235.991 197.981 235.991 197.981 227Z" fill="#2E358F" fill-rule="evenodd"/><path d="M190.5 227.5 198.481 227.5 198.481 236.491 190.5 236.491 190.5 227.5Z" stroke="#231F20" stroke-width="0.333333" stroke-linejoin="round" stroke-miterlimit="10" fill="none" fill-rule="evenodd"/><path d="M383.934 266 190 266 190 274.991 383.934 274.991 383.934 266Z" fill="#3853A4" fill-rule="evenodd"/><path d="M190.5 266.5 384.435 266.5 384.435 275.491 190.5 275.491 190.5 266.5Z" stroke="#231F20" stroke-width="0.333333" stroke-linejoin="round" stroke-miterlimit="10" fill="none" fill-rule="evenodd"/><path d="M335.992 305 190 305 190 313.991 335.992 313.991 335.992 305Z" fill="#3853A4" fill-rule="evenodd"/><path d="M190.5 305.5 336.492 305.5 336.492 314.491 190.5 314.491 190.5 305.5Z" stroke="#231F20" stroke-width="0.333333" stroke-linejoin="round" stroke-miterlimit="10" fill="none" fill-rule="evenodd"/><path d="M471.5 338.483 710.474 338.483" stroke="#231F20" stroke-width="0.339528" stroke-linejoin="round" stroke-miterlimit="10" fill="none" fill-rule="evenodd"/><path d="M471.5 338.483 471.5 333.633" stroke="#231F20" stroke-width="0.339528" stroke-linejoin="round" stroke-miterlimit="10" fill="none" fill-rule="evenodd"/><path d="M531.243 338.483 531.243 333.633" stroke="#231F20" stroke-width="0.339528" stroke-linejoin="round" stroke-miterlimit="10" fill="none" fill-rule="evenodd"/><path d="M590.988 338.483 590.988 333.633" stroke="#231F20" stroke-width="0.339528" stroke-linejoin="round" stroke-miterlimit="10" fill="none" fill-rule="evenodd"/><path d="M650.729 338.483 650.729 333.633" stroke="#231F20" stroke-width="0.339528" stroke-linejoin="round" stroke-miterlimit="10" fill="none" fill-rule="evenodd"/><path d="M710.474 338.483 710.474 333.633" stroke="#231F20" stroke-width="0.339528" stroke-linejoin="round" stroke-miterlimit="10" fill="none" fill-rule="evenodd"/><path d="M471.5 338.483 471.5 144.5" stroke="#231F20" stroke-width="0.339528" stroke-linejoin="round" stroke-miterlimit="10" fill="none" fill-rule="evenodd"/><path d="M471.5 241.491 477.475 241.491" stroke="#231F20" stroke-width="0.339528" stroke-linejoin="round" stroke-miterlimit="10" fill="none" fill-rule="evenodd"/><path d="M473.97 169 471 169 471 177.991 473.97 177.991 473.97 169Z" fill="#010202" fill-rule="evenodd"/><path d="M471.5 169.5 474.47 169.5 474.47 178.491 471.5 178.491 471.5 169.5Z" stroke="#231F20" stroke-width="0.333333" stroke-linejoin="round" stroke-miterlimit="10" fill="none" fill-rule="evenodd"/><path d="M473.986 208 471 208 471 216.991 473.986 216.991 473.986 208Z" fill="#010202" fill-rule="evenodd"/><path d="M471.5 208.5 474.486 208.5 474.486 217.491 471.5 217.491 471.5 208.5Z" stroke="#231F20" stroke-width="0.333333" stroke-linejoin="round" stroke-miterlimit="10" fill="none" fill-rule="evenodd"/><path d="M471.5 247.5 471.5 256.491 471.5 247.5Z" stroke="#231F20" stroke-width="0.333333" stroke-linejoin="round" stroke-miterlimit="10" fill="none" fill-rule="evenodd"/><path d="M471.715 286 471 286 471 294.991 471.715 294.991 471.715 286Z" fill="#010202" fill-rule="evenodd"/><path d="M471.5 286.5 472.215 286.5 472.215 295.491 471.5 295.491 471.5 286.5Z" stroke="#231F20" stroke-width="0.333333" stroke-linejoin="round" stroke-miterlimit="10" fill="none" fill-rule="evenodd"/><path d="M471.91 324 471 324 471 333.99 471.91 333.99 471.91 324Z" fill="#010202" fill-rule="evenodd"/><path d="M471.5 324.5 472.41 324.5 472.41 334.49 471.5 334.49 471.5 324.5Z" stroke="#231F20" stroke-width="0.333333" stroke-linejoin="round" stroke-miterlimit="10" fill="none" fill-rule="evenodd"/><path d="M553.989 159 471 159 471 167.991 553.989 167.991 553.989 159Z" fill="#EC2026" fill-rule="evenodd"/><path d="M471.5 159.5 554.489 159.5 554.489 168.491 471.5 168.491 471.5 159.5Z" stroke="#231F20" stroke-width="0.333333" stroke-linejoin="round" stroke-miterlimit="10" fill="none" fill-rule="evenodd"/><path d="M552.981 198 471 198 471 206.991 552.981 206.991 552.981 198Z" fill="#EC2026" fill-rule="evenodd"/><path d="M471.5 198.5 553.481 198.5 553.481 207.491 471.5 207.491 471.5 198.5Z" stroke="#231F20" stroke-width="0.333333" stroke-linejoin="round" stroke-miterlimit="10" fill="none" fill-rule="evenodd"/><path d="M471.893 236 471 236 471 245.99 471.893 245.99 471.893 236Z" fill="#EC2026" fill-rule="evenodd"/><path d="M471.5 236.5 472.394 236.5 472.394 246.49 471.5 246.49 471.5 236.5Z" stroke="#231F20" stroke-width="0.333333" stroke-linejoin="round" stroke-miterlimit="10" fill="none" fill-rule="evenodd"/><path d="M483.984 275 471 275 471 284.99 483.984 284.99 483.984 275Z" fill="#EC2026" fill-rule="evenodd"/><path d="M471.5 275.5 484.484 275.5 484.484 285.49 471.5 285.49 471.5 275.5Z" stroke="#231F20" stroke-width="0.333333" stroke-linejoin="round" stroke-miterlimit="10" fill="none" fill-rule="evenodd"/><path d="M493.977 314 471 314 471 322.991 493.977 322.991 493.977 314Z" fill="#EC2026" fill-rule="evenodd"/><path d="M471.5 314.5 494.477 314.5 494.477 323.491 471.5 323.491 471.5 314.5Z" stroke="#231F20" stroke-width="0.333333" stroke-linejoin="round" stroke-miterlimit="10" fill="none" fill-rule="evenodd"/><path d="M471.356 148 471 148 471 157.99 471.356 157.99 471.356 148Z" fill="#3853A4" fill-rule="evenodd"/><path d="M471.5 148.5 471.856 148.5 471.856 158.49 471.5 158.49 471.5 148.5Z" stroke="#231F20" stroke-width="0.333333" stroke-linejoin="round" stroke-miterlimit="10" fill="none" fill-rule="evenodd"/><path d="M472.924 187 471 187 471 196.99 472.924 196.99 472.924 187Z" fill="#3853A4" fill-rule="evenodd"/><path d="M471.5 187.5 473.424 187.5 473.424 197.49 471.5 197.49 471.5 187.5Z" stroke="#231F20" stroke-width="0.333333" stroke-linejoin="round" stroke-miterlimit="10" fill="none" fill-rule="evenodd"/><path d="M472.98 226 471 226 471 234.991 472.98 234.991 472.98 226Z" fill="#3853A4" fill-rule="evenodd"/><path d="M471.5 226.5 473.48 226.5 473.48 235.491 471.5 235.491 471.5 226.5Z" stroke="#231F20" stroke-width="0.333333" stroke-linejoin="round" stroke-miterlimit="10" fill="none" fill-rule="evenodd"/><path d="M688.955 265 471 265 471 273.991 688.955 273.991 688.955 265Z" fill="#3853A4" fill-rule="evenodd"/><path d="M471.5 265.5 689.455 265.5 689.455 274.491 471.5 274.491 471.5 265.5Z" stroke="#231F20" stroke-width="0.333333" stroke-linejoin="round" stroke-miterlimit="10" fill="none" fill-rule="evenodd"/><path d="M673.954 304 471 304 471 312.991 673.954 312.991 673.954 304Z" fill="#3853A4" fill-rule="evenodd"/><path d="M471.5 304.5 674.454 304.5 674.454 313.491 471.5 313.491 471.5 304.5Z" stroke="#231F20" stroke-width="0.333333" stroke-linejoin="round" stroke-miterlimit="10" fill="none" fill-rule="evenodd"/><text fill="#010202" font-family="Arial,Arial_MSFontService,sans-serif" font-weight="400" font-size="16" transform="translate(145.267 168)">M2_B</text><text fill="#010202" font-family="Arial,Arial_MSFontService,sans-serif" font-weight="400" font-size="16" transform="translate(426.267 168)">M2_B</text><text fill="#010202" font-family="Arial,Arial_MSFontService,sans-serif" font-weight="400" font-size="16" transform="translate(145.267 207)">M1_B</text><text fill="#010202" font-family="Arial,Arial_MSFontService,sans-serif" font-weight="400" font-size="16" transform="translate(426.267 207)">M1_B</text><text fill="#010202" font-family="Arial,Arial_MSFontService,sans-serif" font-weight="400" font-size="16" transform="translate(164.913 246)">M1</text><text fill="#010202" font-family="Arial,Arial_MSFontService,sans-serif" font-weight="400" font-size="16" transform="translate(445.913 246)">M1</text><text fill="#010202" font-family="Arial,Arial_MSFontService,sans-serif" font-weight="400" font-size="16" transform="translate(164.913 285)">M2</text><text fill="#010202" font-family="Arial,Arial_MSFontService,sans-serif" font-weight="400" font-size="16" transform="translate(445.913 285)">M2</text><text fill="#010202" font-family="Arial,Arial_MSFontService,sans-serif" font-weight="400" font-size="16" transform="translate(164.913 324)">M3</text><text fill="#010202" font-family="Arial,Arial_MSFontService,sans-serif" font-weight="400" font-size="16" transform="translate(445.913 324)">M3</text><text fill="#009247" font-family="Arial,Arial_MSFontService,sans-serif" font-weight="400" font-size="16" transform="translate(568.044 181)">no</text><text fill="#009247" font-family="Arial,Arial_MSFontService,sans-serif" font-weight="400" font-size="16" transform="translate(591.411 181)">leaf</text><text fill="#009247" font-family="Arial,Arial_MSFontService,sans-serif" font-weight="400" font-size="16" transform="translate(622.911 181)">CLK</text><text fill="#009247" font-family="Arial,Arial_MSFontService,sans-serif" font-weight="400" font-size="16" transform="translate(660.278 181)">nets</text><text fill="#009247" font-family="Arial,Arial_MSFontService,sans-serif" font-weight="400" font-size="16" transform="translate(568.044 200)">on</text><text fill="#009247" font-family="Arial,Arial_MSFontService,sans-serif" font-weight="400" font-size="16" transform="translate(590.611 200)">the</text><text fill="#009247" font-family="Arial,Arial_MSFontService,sans-serif" font-weight="400" font-size="16" transform="translate(617.745 200)">back</text><text fill="#009247" font-family="Arial,Arial_MSFontService,sans-serif" font-weight="400" font-size="16" transform="translate(652.745 200)">-</text><text fill="#009247" font-family="Arial,Arial_MSFontService,sans-serif" font-weight="400" font-size="16" transform="translate(658.411 200)">side!</text><text fill="#010202" font-family="Arial,Arial_MSFontService,sans-serif" font-weight="400" font-size="16" transform="translate(186.867 356)">0</text><text fill="#010202" font-family="Arial,Arial_MSFontService,sans-serif" font-weight="400" font-size="16" transform="translate(246.4 356)">5</text><text fill="#010202" font-family="Arial,Arial_MSFontService,sans-serif" font-weight="400" font-size="16" transform="translate(301.467 356)">10</text><text fill="#010202" font-family="Arial,Arial_MSFontService,sans-serif" font-weight="400" font-size="16" transform="translate(361 356)">15</text><text fill="#010202" font-family="Arial,Arial_MSFontService,sans-serif" font-weight="400" font-size="16" transform="translate(420.6 356)">20</text><text fill="#010202" font-family="Arial,Arial_MSFontService,sans-serif" font-weight="400" font-size="16" transform="translate(467.867 356)">0</text><text fill="#010202" font-family="Arial,Arial_MSFontService,sans-serif" font-weight="400" font-size="16" transform="translate(527.4 356)">5</text><text fill="#010202" font-family="Arial,Arial_MSFontService,sans-serif" font-weight="400" font-size="16" transform="translate(582.467 356)">10</text><text fill="#010202" font-family="Arial,Arial_MSFontService,sans-serif" font-weight="400" font-size="16" transform="translate(642.067 356)">15</text><text fill="#010202" font-family="Arial,Arial_MSFontService,sans-serif" font-weight="400" font-size="16" transform="translate(701.6 356)">20</text><text fill="#010202" font-family="Arial,Arial_MSFontService,sans-serif" font-weight="400" font-size="16" transform="translate(321.867 376)">Wirelength (mm)</text><text fill="#010202" font-family="Arial,Arial_MSFontService,sans-serif" font-weight="400" font-size="16" transform="translate(601.933 376)">Wirelength</text><text fill="#010202" font-family="Arial,Arial_MSFontService,sans-serif" font-weight="400" font-size="16" transform="translate(682.867 376)">(mm)</text><text fill="#010202" font-family="Arial,Arial_MSFontService,sans-serif" font-weight="400" font-size="19" transform="translate(172.667 405)">(a)</text><text fill="#010202" font-family="Arial,Arial_MSFontService,sans-serif" font-weight="400" font-size="19" transform="translate(200.513 405)">Without</text><text fill="#010202" font-family="Arial,Arial_MSFontService,sans-serif" font-weight="400" font-size="19" transform="translate(269.113 405)">layer</text><text fill="#010202" font-family="Arial,Arial_MSFontService,sans-serif" font-weight="400" font-size="19" transform="translate(314.507 405)">enforcement</text><text fill="#010202" font-family="Arial,Arial_MSFontService,sans-serif" font-weight="400" font-size="19" transform="translate(470.267 406)">(b)</text><text fill="#010202" font-family="Arial,Arial_MSFontService,sans-serif" font-weight="400" font-size="19" transform="translate(497.5 406)">With</text><text fill="#010202" font-family="Arial,Arial_MSFontService,sans-serif" font-weight="400" font-size="19" transform="translate(539.2 405)">layer</text><text fill="#010202" font-family="Arial,Arial_MSFontService,sans-serif" font-weight="400" font-size="19" transform="translate(583.84 405)">enforceme</text><text fill="#010202" font-family="Arial,Arial_MSFontService,sans-serif" font-weight="400" font-size="19" transform="translate(670.473 405)">nt</text><text fill="#010202" font-family="Arial,Arial_MSFontService,sans-serif" font-weight="400" font-size="16" transform="translate(206.457 121)">top</text><text fill="#010202" font-family="Arial,Arial_MSFontService,sans-serif" font-weight="400" font-size="16" transform="translate(233.59 121)">CLK net (back)</text><text fill="#010202" font-family="Arial,Arial_MSFontService,sans-serif" font-weight="400" font-size="16" transform="translate(382.123 121)">trunk</text><text fill="#010202" font-family="Arial,Arial_MSFontService,sans-serif" font-weight="400" font-size="16" transform="translate(422.857 121)">CLK net (back)</text><text fill="#010202" font-family="Arial,Arial_MSFontService,sans-serif" font-weight="400" font-size="16" transform="translate(567.923 121)">leaf</text><text fill="#010202" font-family="Arial,Arial_MSFontService,sans-serif" font-weight="400" font-size="16" transform="translate(598.29 121)">CLK</text><text fill="#010202" font-family="Arial,Arial_MSFontService,sans-serif" font-weight="400" font-size="16" transform="translate(634.123 121)">net</text><text fill="#010202" font-family="Arial,Arial_MSFontService,sans-serif" font-weight="400" font-size="16" transform="translate(661.123 121)">(front)</text></g></svg>