<svg width="768" height="491" xmlns="http://www.w3.org/2000/svg" xmlns:xlink="http://www.w3.org/1999/xlink" overflow="hidden"><g transform="translate(-78 -136)"><rect x="87" y="136" width="227" height="43" fill="#CCCCFF"/><text font-family="Arial,Arial_MSFontService,sans-serif" font-weight="400" font-size="23" transform="translate(105.784 166)">Mesh routing</text><rect x="160.5" y="311.5" width="206" height="191" stroke="#C0C0C0" stroke-width="13.3333" stroke-miterlimit="8" fill="#808080"/><rect x="146" y="361" width="15" height="10" stroke="#C0C0C0" stroke-width="4" stroke-miterlimit="8" fill="#C0C0C0"/><rect x="147" y="445" width="15" height="10" stroke="#C0C0C0" stroke-width="4" stroke-miterlimit="8" fill="#C0C0C0"/><rect x="366" y="359" width="15" height="10" stroke="#C0C0C0" stroke-width="4" stroke-miterlimit="8" fill="#C0C0C0"/><rect x="366" y="445" width="15" height="10" stroke="#C0C0C0" stroke-width="4" stroke-miterlimit="8" fill="#C0C0C0"/><rect x="213" y="296" width="10" height="16" stroke="#C0C0C0" stroke-width="4" stroke-miterlimit="8" fill="#C0C0C0"/><rect x="295" y="296" width="10" height="16" stroke="#C0C0C0" stroke-width="4" stroke-miterlimit="8" fill="#C0C0C0"/><rect x="207.5" y="248.5" width="22" height="47" stroke="#000000" stroke-width="1.33333" stroke-miterlimit="8" fill="none"/><rect x="212" y="252" width="13" height="11" stroke="#000000" stroke-width="4" stroke-miterlimit="8" fill="none"/><rect x="289.5" y="248.5" width="22" height="47" stroke="#000000" stroke-width="1.33333" stroke-miterlimit="8" fill="none"/><rect x="294" y="252" width="13" height="11" stroke="#000000" stroke-width="4" stroke-miterlimit="8" fill="none"/><rect x="383.5" y="353.5" width="44" height="23" stroke="#000000" stroke-width="1.33333" stroke-miterlimit="8" fill="none"/><rect x="413" y="358" width="11" height="13" stroke="#000000" stroke-width="4" stroke-miterlimit="8" fill="none"/><rect x="383.5" y="438.5" width="43" height="24" stroke="#000000" stroke-width="1.33333" stroke-miterlimit="8" fill="none"/><rect x="412" y="444" width="11" height="13" stroke="#000000" stroke-width="4" stroke-miterlimit="8" fill="none"/><rect x="0" y="0" width="24" height="44" stroke="#000000" stroke-width="1.33333" stroke-miterlimit="8" fill="none" transform="matrix(1.83697e-16 1 1 -1.83697e-16 101.5 353.5)"/><rect x="0" y="0" width="13" height="10" stroke="#000000" stroke-width="4" stroke-miterlimit="8" fill="none" transform="matrix(1.83697e-16 1 1 -1.83697e-16 104 359)"/><rect x="0" y="0" width="24" height="44" stroke="#000000" stroke-width="1.33333" stroke-miterlimit="8" fill="none" transform="matrix(1.83697e-16 1 1 -1.83697e-16 101.5 438.5)"/><rect x="0" y="0" width="13" height="10" stroke="#000000" stroke-width="4" stroke-miterlimit="8" fill="none" transform="matrix(1.83697e-16 1 1 -1.83697e-16 104 444)"/><rect x="0" y="0" width="16" height="10" stroke="#C0C0C0" stroke-width="4" stroke-miterlimit="8" fill="#C0C0C0" transform="matrix(6.12323e-17 1 1 -6.12323e-17 214 501)"/><rect x="0" y="0" width="16" height="10" stroke="#C0C0C0" stroke-width="4" stroke-miterlimit="8" fill="#C0C0C0" transform="matrix(6.12323e-17 1 1 -6.12323e-17 296 501)"/><rect x="0" y="0" width="22" height="47" stroke="#000000" stroke-width="1.33333" stroke-miterlimit="8" fill="none" transform="matrix(1 0 0 -1 208.5 565.5)"/><rect x="0" y="0" width="13" height="11" stroke="#000000" stroke-width="4" stroke-miterlimit="8" fill="none" transform="matrix(1 0 0 -1 212 561)"/><rect x="0" y="0" width="22" height="47" stroke="#000000" stroke-width="1.33333" stroke-miterlimit="8" fill="none" transform="matrix(1 0 0 -1 290.5 565.5)"/><rect x="0" y="0" width="13" height="11" stroke="#000000" stroke-width="4" stroke-miterlimit="8" fill="none" transform="matrix(1 0 0 -1 295 561)"/><path d="M161 336 366 336" stroke="#4D4D4D" stroke-width="8" stroke-linejoin="round" stroke-miterlimit="10" fill="none" fill-rule="evenodd"/><path d="M160 375 365 375" stroke="#4D4D4D" stroke-width="8" stroke-linejoin="round" stroke-miterlimit="10" fill="none" fill-rule="evenodd"/><path d="M161 411 366 411" stroke="#4D4D4D" stroke-width="8" stroke-linejoin="round" stroke-miterlimit="10" fill="none" fill-rule="evenodd"/><path d="M162 447 367 447" stroke="#4D4D4D" stroke-width="8" stroke-linejoin="round" stroke-miterlimit="10" fill="none" fill-rule="evenodd"/><path d="M160 482 366 482" stroke="#4D4D4D" stroke-width="8" stroke-linejoin="round" stroke-miterlimit="10" fill="none" fill-rule="evenodd"/><path d="M162 327 366 327" stroke="#000000" stroke-width="2" stroke-linejoin="round" stroke-miterlimit="10" fill="none" fill-rule="evenodd"/><path d="M162 321 366 321" stroke="#000000" stroke-width="2" stroke-linejoin="round" stroke-miterlimit="10" fill="none" fill-rule="evenodd"/><path d="M162 352 366 352" stroke="#000000" stroke-width="2" stroke-linejoin="round" stroke-miterlimit="10" fill="none" fill-rule="evenodd"/><path d="M162 345 366 345" stroke="#000000" stroke-width="2" stroke-linejoin="round" stroke-miterlimit="10" fill="none" fill-rule="evenodd"/><path d="M162 365 366 365" stroke="#000000" stroke-width="2" stroke-linejoin="round" stroke-miterlimit="10" fill="none" fill-rule="evenodd"/><path d="M162 358 366 358" stroke="#000000" stroke-width="2" stroke-linejoin="round" stroke-miterlimit="10" fill="none" fill-rule="evenodd"/><path d="M162 492 365 492" stroke="#000000" stroke-width="2" stroke-linejoin="round" stroke-miterlimit="10" fill="none" fill-rule="evenodd"/><path d="M162 389 366 389" stroke="#000000" stroke-width="2" stroke-linejoin="round" stroke-miterlimit="10" fill="none" fill-rule="evenodd"/><path d="M162 383 366 383" stroke="#000000" stroke-width="2" stroke-linejoin="round" stroke-miterlimit="10" fill="none" fill-rule="evenodd"/><path d="M162 403 366 403" stroke="#000000" stroke-width="2" stroke-linejoin="round" stroke-miterlimit="10" fill="none" fill-rule="evenodd"/><path d="M162 396 366 396" stroke="#000000" stroke-width="2" stroke-linejoin="round" stroke-miterlimit="10" fill="none" fill-rule="evenodd"/><path d="M162 425 366 425" stroke="#000000" stroke-width="2" stroke-linejoin="round" stroke-miterlimit="10" fill="none" fill-rule="evenodd"/><path d="M162 418 366 418" stroke="#000000" stroke-width="2" stroke-linejoin="round" stroke-miterlimit="10" fill="none" fill-rule="evenodd"/><path d="M162 438 366 438" stroke="#000000" stroke-width="2" stroke-linejoin="round" stroke-miterlimit="10" fill="none" fill-rule="evenodd"/><path d="M162 431 366 431" stroke="#000000" stroke-width="2" stroke-linejoin="round" stroke-miterlimit="10" fill="none" fill-rule="evenodd"/><path d="M162 461 366 461" stroke="#000000" stroke-width="2" stroke-linejoin="round" stroke-miterlimit="10" fill="none" fill-rule="evenodd"/><path d="M162 454 366 454" stroke="#000000" stroke-width="2" stroke-linejoin="round" stroke-miterlimit="10" fill="none" fill-rule="evenodd"/><path d="M162 474 366 474" stroke="#000000" stroke-width="2" stroke-linejoin="round" stroke-miterlimit="10" fill="none" fill-rule="evenodd"/><path d="M162 467 366 467" stroke="#000000" stroke-width="2" stroke-linejoin="round" stroke-miterlimit="10" fill="none" fill-rule="evenodd"/><path d="M0 0 1 187" stroke="#4D4D4D" stroke-width="8" stroke-linejoin="round" stroke-miterlimit="10" fill="none" fill-rule="evenodd" transform="matrix(-1 0 0 1 180 313)"/><path d="M0 0 1 187" stroke="#4D4D4D" stroke-width="8" stroke-linejoin="round" stroke-miterlimit="10" fill="none" fill-rule="evenodd" transform="matrix(-1 0 0 1 200 313)"/><path d="M0 0 1 187" stroke="#4D4D4D" stroke-width="8" stroke-linejoin="round" stroke-miterlimit="10" fill="none" fill-rule="evenodd" transform="matrix(-1 0 0 1 218 313)"/><path d="M0 0 1 187" stroke="#4D4D4D" stroke-width="8" stroke-linejoin="round" stroke-miterlimit="10" fill="none" fill-rule="evenodd" transform="matrix(-1 0 0 1 237 313)"/><path d="M0 0 1 187" stroke="#4D4D4D" stroke-width="8" stroke-linejoin="round" stroke-miterlimit="10" fill="none" fill-rule="evenodd" transform="matrix(-1 0 0 1 255 313)"/><path d="M0 0 1 187" stroke="#4D4D4D" stroke-width="8" stroke-linejoin="round" stroke-miterlimit="10" fill="none" fill-rule="evenodd" transform="matrix(-1 0 0 1 275 313)"/><path d="M0 0 1 187" stroke="#4D4D4D" stroke-width="8" stroke-linejoin="round" stroke-miterlimit="10" fill="none" fill-rule="evenodd" transform="matrix(-1 0 0 1 293 313)"/><path d="M0 0 1 187" stroke="#4D4D4D" stroke-width="8" stroke-linejoin="round" stroke-miterlimit="10" fill="none" fill-rule="evenodd" transform="matrix(-1 0 0 1 313 313)"/><path d="M0 0 0.000104987 187" stroke="#4D4D4D" stroke-width="8" stroke-linejoin="round" stroke-miterlimit="10" fill="none" fill-rule="evenodd" transform="matrix(-1 0 0 1 332 313)"/><path d="M0 0 1 187" stroke="#4D4D4D" stroke-width="8" stroke-linejoin="round" stroke-miterlimit="10" fill="none" fill-rule="evenodd" transform="matrix(-1 0 0 1 352 313)"/><path d="M1.94477-0.466746 17.1443 62.8646 13.2547 63.7981-1.94477 0.466746ZM15.1995 63.3313 23.0564 53.2185 18 75 3.60866 57.886Z" transform="matrix(1 0 0 -1 147 575)"/><text font-family="Arial,Arial_MSFontService,sans-serif" font-weight="400" font-size="24" transform="translate(123.167 599)">Ring</text><text font-family="Arial,Arial_MSFontService,sans-serif" font-weight="400" font-size="24" transform="translate(308.333 606)">Mesh</text><path d="M334.072 580.532 313.263 505.1 317.119 504.036 337.928 579.468ZM315.191 504.568 307.679 514.939 312 493 326.958 509.621Z"/><path d="M1.13461-1.64702 36.2525 22.5453 33.9833 25.8393-1.13461 1.64702ZM35.1179 24.1923 34.2029 11.4188 45 31 22.8568 27.889Z" transform="matrix(-1 0 0 1 347 271)"/><text font-family="Arial,Arial_MSFontService,sans-serif" font-weight="400" font-size="24" transform="translate(328.167 265)">Connector</text><text font-family="Arial,Arial_MSFontService,sans-serif" font-weight="400" font-size="24" transform="translate(195.833 592)">Pad</text><text font-family="Arial,Arial_MSFontService,sans-serif" font-weight="400" font-size="24" transform="translate(94.4166 279)">Power rail</text><path d="M146.657 287.88 164.939 314.937 161.625 317.177 143.343 290.12ZM163.282 316.057 167.089 303.83 170 326 150.517 315.027Z"/><rect x="513.5" y="290.5" width="301" height="4" stroke="#000000" stroke-miterlimit="8" fill="#3366FF"/><rect x="513.5" y="319.5" width="301" height="4" stroke="#000000" stroke-miterlimit="8" fill="#3366FF"/><rect x="513.5" y="348.5" width="301" height="4" stroke="#000000" stroke-miterlimit="8" fill="#3366FF"/><rect x="513.5" y="377.5" width="301" height="4" stroke="#000000" stroke-miterlimit="8" fill="#3366FF"/><rect x="513.5" y="406.5" width="301" height="4" stroke="#000000" stroke-miterlimit="8" fill="#3366FF"/><rect x="513.5" y="435.5" width="301" height="4" stroke="#000000" stroke-miterlimit="8" fill="#3366FF"/><rect x="513.5" y="464.5" width="301" height="4" stroke="#000000" stroke-miterlimit="8" fill="#3366FF"/><rect x="513.5" y="492.5" width="301" height="4" stroke="#000000" stroke-miterlimit="8" fill="#3366FF"/><rect x="513.5" y="521.5" width="301" height="4" stroke="#000000" stroke-miterlimit="8" fill="#3366FF"/><rect x="586.5" y="269.5" width="8" height="290" stroke="#000000" stroke-miterlimit="8" fill="#7D95CA"/><rect x="598.5" y="269.5" width="8" height="290" stroke="#000000" stroke-miterlimit="8" fill="#7D95CA"/><rect x="728.5" y="269.5" width="8" height="290" stroke="#000000" stroke-miterlimit="8" fill="#7D95CA"/><rect x="741.5" y="269.5" width="8" height="290" stroke="#000000" stroke-miterlimit="8" fill="#7D95CA"/><rect x="541.5" y="325.5" width="281" height="8" stroke="#000000" stroke-miterlimit="8" fill="#00FF00" fill-opacity="0.501961"/><rect x="541.5" y="337.5" width="281" height="9" stroke="#000000" stroke-miterlimit="8" fill="#00FF00" fill-opacity="0.490196"/><rect x="537.5" y="499.5" width="281" height="9" stroke="#000000" stroke-miterlimit="8" fill="#00FF00" fill-opacity="0.501961"/><rect x="537.5" y="512.5" width="281" height="8" stroke="#000000" stroke-miterlimit="8" fill="#00FF00" fill-opacity="0.490196"/><rect x="578.5" y="265.5" width="16" height="281" stroke="#000000" stroke-miterlimit="8" fill="#FFFF66" fill-opacity="0.501961"/><rect x="598.5" y="265.5" width="16" height="281" stroke="#000000" stroke-miterlimit="8" fill="#FFFF66" fill-opacity="0.501961"/><rect x="720.5" y="265.5" width="16" height="281" stroke="#000000" stroke-miterlimit="8" fill="#FFFF66" fill-opacity="0.501961"/><rect x="741.5" y="265.5" width="16" height="281" stroke="#000000" stroke-miterlimit="8" fill="#FFFF66" fill-opacity="0.501961"/><rect x="513.5" y="303.5" width="293" height="30" stroke="#000000" stroke-miterlimit="8" fill="#FF99CC" fill-opacity="0.501961"/><rect x="513.5" y="338.5" width="293" height="30" stroke="#000000" stroke-miterlimit="8" fill="#FF99CC" fill-opacity="0.501961"/><rect x="513.5" y="477.5" width="293" height="30" stroke="#000000" stroke-miterlimit="8" fill="#FF99CC" fill-opacity="0.501961"/><rect x="513.5" y="512.5" width="293" height="30" stroke="#000000" stroke-miterlimit="8" fill="#FF99CC" fill-opacity="0.501961"/><rect x="562.5" y="269.5" width="32" height="269" stroke="#000000" stroke-miterlimit="8" fill="#FF3300" fill-opacity="0.501961"/><rect x="598.5" y="269.5" width="33" height="269" stroke="#000000" stroke-miterlimit="8" fill="#FF3300" fill-opacity="0.501961"/><rect x="704.5" y="269.5" width="32" height="269" stroke="#000000" stroke-miterlimit="8" fill="#FF3300" fill-opacity="0.501961"/><rect x="741.5" y="269.5" width="32" height="269" stroke="#000000" stroke-miterlimit="8" fill="#FF3300" fill-opacity="0.501961"/><path d="M351 388 447 388 447 394 351 394ZM447 391 435 376 465 391 435 406Z" fill="#FF0000"/><path d="M479 411.5C479 315.679 560.484 238 661 238 761.516 238 843 315.679 843 411.5 843 507.321 761.516 585 661 585 560.484 585 479 507.321 479 411.5Z" stroke="#FF0000" stroke-width="4" stroke-miterlimit="8" fill="none" fill-rule="evenodd"/><path d="M294 390C294 373.984 306.536 361 322 361 337.464 361 350 373.984 350 390 350 406.016 337.464 419 322 419 306.536 419 294 406.016 294 390Z" stroke="#FFFFFF" stroke-width="4" stroke-linejoin="round" stroke-miterlimit="10" fill="none" fill-rule="evenodd"/><path d="M350.5 390.5 374.5 390.5" stroke="#FFFFFF" stroke-width="6.66667" stroke-linejoin="round" stroke-miterlimit="10" fill="none" fill-rule="evenodd"/></g></svg>