<svg width="648" height="384" xmlns="http://www.w3.org/2000/svg" xmlns:xlink="http://www.w3.org/1999/xlink" overflow="hidden"><g transform="translate(-73 -139)"><rect x="89.5001" y="217.5" width="240" height="240" stroke="#969696" stroke-miterlimit="8" fill="#EAEAEA"/><rect x="88.5001" y="216.5" width="241" height="242" stroke="#000000" stroke-miterlimit="8" fill="#DDDDDD"/><path d="M88.5001 251.5 329.5 251.5" stroke="#000000" stroke-linejoin="round" stroke-miterlimit="10" fill="none" fill-rule="evenodd"/><path d="M88.5001 285.5 329.5 285.5" stroke="#000000" stroke-linejoin="round" stroke-miterlimit="10" fill="none" fill-rule="evenodd"/><path d="M88.5001 320.5 329.5 320.5" stroke="#000000" stroke-linejoin="round" stroke-miterlimit="10" fill="none" fill-rule="evenodd"/><path d="M88.5001 354.5 329.5 354.5" stroke="#000000" stroke-linejoin="round" stroke-miterlimit="10" fill="none" fill-rule="evenodd"/><path d="M88.5001 389.5 329.5 389.5" stroke="#000000" stroke-linejoin="round" stroke-miterlimit="10" fill="none" fill-rule="evenodd"/><path d="M122.5 216.5 122.5 458.5" stroke="#000000" stroke-linejoin="round" stroke-miterlimit="10" fill="none" fill-rule="evenodd"/><path d="M157.5 216.5 157.5 458.5" stroke="#000000" stroke-linejoin="round" stroke-miterlimit="10" fill="none" fill-rule="evenodd"/><path d="M191.5 216.5 191.5 458.5" stroke="#000000" stroke-linejoin="round" stroke-miterlimit="10" fill="none" fill-rule="evenodd"/><path d="M225.5 216.5 225.5 458.5" stroke="#000000" stroke-linejoin="round" stroke-miterlimit="10" fill="none" fill-rule="evenodd"/><path d="M260.5 216.5 260.5 458.5" stroke="#000000" stroke-linejoin="round" stroke-miterlimit="10" fill="none" fill-rule="evenodd"/><path d="M294.5 216.5 294.5 458.5" stroke="#000000" stroke-linejoin="round" stroke-miterlimit="10" fill="none" fill-rule="evenodd"/><path d="M88.5001 423.5 329.5 423.5" stroke="#000000" stroke-linejoin="round" stroke-miterlimit="10" fill="none" fill-rule="evenodd"/><path d="M122.5 250.5 226.5 250.5" stroke="#CC0000" stroke-width="3.33333" stroke-linejoin="round" stroke-miterlimit="10" fill="none" fill-rule="evenodd"/><path d="M226.5 249.5 226.5 425.5" stroke="#CC0000" stroke-width="3.33333" stroke-linejoin="round" stroke-miterlimit="10" fill="none" fill-rule="evenodd"/><path d="M114.5 251.5C114.5 247.634 117.634 244.5 121.5 244.5 125.366 244.5 128.5 247.634 128.5 251.5 128.5 255.366 125.366 258.5 121.5 258.5 117.634 258.5 114.5 255.366 114.5 251.5Z" stroke="#CC0000" stroke-linejoin="round" stroke-miterlimit="10" fill="#CC0000" fill-rule="evenodd"/><path d="M217.5 421.5C217.5 417.634 220.634 414.5 224.5 414.5 228.366 414.5 231.5 417.634 231.5 421.5 231.5 425.366 228.366 428.5 224.5 428.5 220.634 428.5 217.5 425.366 217.5 421.5Z" stroke="#CC0000" stroke-linejoin="round" stroke-miterlimit="10" fill="#CC0000" fill-rule="evenodd"/><path d="M255.5 282.5C255.5 278.634 258.634 275.5 262.5 275.5 266.366 275.5 269.5 278.634 269.5 282.5 269.5 286.366 266.366 289.5 262.5 289.5 258.634 289.5 255.5 286.366 255.5 282.5Z" stroke="#3333CC" stroke-linejoin="round" stroke-miterlimit="10" fill="#3333CC" fill-rule="evenodd"/><path d="M184.5 323C184.5 319.41 187.41 316.5 191 316.5 194.59 316.5 197.5 319.41 197.5 323 197.5 326.59 194.59 329.5 191 329.5 187.41 329.5 184.5 326.59 184.5 323Z" stroke="#3333CC" stroke-linejoin="round" stroke-miterlimit="10" fill="#3333CC" fill-rule="evenodd"/><text fill="#CC0000" font-family="Arial,Arial_MSFontService,sans-serif" font-style="italic" font-weight="400" font-size="23" transform="translate(96.8302 243)">A</text><text fill="#CC0000" font-family="Arial,Arial_MSFontService,sans-serif" font-style="italic" font-weight="400" font-size="23" transform="translate(226.997 445)">A</text><text fill="#CC0000" font-family="Gulim,Gulim_MSFontService,sans-serif" font-style="oblique" font-weight="400" font-size="23" transform="translate(242.164 445)">´</text><text fill="#3333CC" font-family="Arial,Arial_MSFontService,sans-serif" font-style="italic" font-weight="400" font-size="23" transform="translate(233.83 276)">B</text><text fill="#3333CC" font-family="Arial,Arial_MSFontService,sans-serif" font-style="italic" font-weight="400" font-size="23" transform="translate(162.997 309)">B</text><text fill="#3333CC" font-family="Gulim,Gulim_MSFontService,sans-serif" font-style="oblique" font-weight="400" font-size="23" transform="translate(178.164 309)">´</text><path d="M0 0 68 1" stroke="#3333CC" stroke-width="3.33333" stroke-linejoin="round" stroke-miterlimit="10" fill="none" fill-rule="evenodd" transform="matrix(1 0 0 -1 192.5 458.5)"/><path d="M0 0 1 168" stroke="#3333CC" stroke-width="3.33333" stroke-linejoin="round" stroke-miterlimit="10" fill="none" fill-rule="evenodd" transform="matrix(-1 0 0 1 261.5 289.5)"/><text font-family="Arial,Arial_MSFontService,sans-serif" font-weight="400" font-size="23" transform="translate(86.997 503)">Routing net</text><text fill="#CC0000" font-family="Arial,Arial_MSFontService,sans-serif" font-style="italic" font-weight="400" font-size="23" transform="translate(209.664 503)">A</text><text font-family="Arial,Arial_MSFontService,sans-serif" font-weight="400" font-size="23" transform="translate(230.324 503)">first</text><path d="M0 0 0.000104987 136" stroke="#3333CC" stroke-width="3.33333" stroke-linejoin="round" stroke-miterlimit="10" fill="none" fill-rule="evenodd" transform="matrix(-1 0 0 1 192.5 321.5)"/><rect x="85" y="140" width="448" height="43" fill="#CCCCFF"/><text font-family="Arial,Arial_MSFontService,sans-serif" font-weight="400" font-size="23" transform="translate(105.228 168)">Effect of net ordering on total wirelength</text><text font-family="Arial,Arial_MSFontService,sans-serif" font-weight="400" font-size="23" transform="translate(478.83 503)">Routing net</text><text fill="#3333CC" font-family="Arial,Arial_MSFontService,sans-serif" font-style="italic" font-weight="400" font-size="23" transform="translate(601.497 503)">B</text><text font-family="Arial,Arial_MSFontService,sans-serif" font-weight="400" font-size="23" transform="translate(622.997 503)">first</text><rect x="480.5" y="217.5" width="240" height="240" stroke="#969696" stroke-miterlimit="8" fill="#EAEAEA"/><rect x="479.5" y="216.5" width="241" height="241" stroke="#000000" stroke-miterlimit="8" fill="#DDDDDD"/><path d="M479.5 250.5 720.5 250.5" stroke="#000000" stroke-linejoin="round" stroke-miterlimit="10" fill="none" fill-rule="evenodd"/><path d="M479.5 285.5 720.5 285.5" stroke="#000000" stroke-linejoin="round" stroke-miterlimit="10" fill="none" fill-rule="evenodd"/><path d="M479.5 319.5 720.5 319.5" stroke="#000000" stroke-linejoin="round" stroke-miterlimit="10" fill="none" fill-rule="evenodd"/><path d="M479.5 354.5 720.5 354.5" stroke="#000000" stroke-linejoin="round" stroke-miterlimit="10" fill="none" fill-rule="evenodd"/><path d="M479.5 388.5 720.5 388.5" stroke="#000000" stroke-linejoin="round" stroke-miterlimit="10" fill="none" fill-rule="evenodd"/><path d="M513.5 216.5 513.5 457.5" stroke="#000000" stroke-linejoin="round" stroke-miterlimit="10" fill="none" fill-rule="evenodd"/><path d="M547.5 216.5 547.5 457.5" stroke="#000000" stroke-linejoin="round" stroke-miterlimit="10" fill="none" fill-rule="evenodd"/><path d="M582.5 216.5 582.5 457.5" stroke="#000000" stroke-linejoin="round" stroke-miterlimit="10" fill="none" fill-rule="evenodd"/><path d="M616.5 216.5 616.5 457.5" stroke="#000000" stroke-linejoin="round" stroke-miterlimit="10" fill="none" fill-rule="evenodd"/><path d="M651.5 216.5 651.5 457.5" stroke="#000000" stroke-linejoin="round" stroke-miterlimit="10" fill="none" fill-rule="evenodd"/><path d="M685.5 216.5 685.5 457.5" stroke="#000000" stroke-linejoin="round" stroke-miterlimit="10" fill="none" fill-rule="evenodd"/><path d="M479.5 423.5 720.5 423.5" stroke="#000000" stroke-linejoin="round" stroke-miterlimit="10" fill="none" fill-rule="evenodd"/><path d="M511.5 422.5 615.5 422.5" stroke="#CC0000" stroke-width="3.33333" stroke-linejoin="round" stroke-miterlimit="10" fill="none" fill-rule="evenodd"/><path d="M505.5 251.5C505.5 247.634 508.634 244.5 512.5 244.5 516.366 244.5 519.5 247.634 519.5 251.5 519.5 255.366 516.366 258.5 512.5 258.5 508.634 258.5 505.5 255.366 505.5 251.5Z" stroke="#CC0000" stroke-linejoin="round" stroke-miterlimit="10" fill="#CC0000" fill-rule="evenodd"/><path d="M608.5 421.5C608.5 417.634 611.634 414.5 615.5 414.5 619.366 414.5 622.5 417.634 622.5 421.5 622.5 425.366 619.366 428.5 615.5 428.5 611.634 428.5 608.5 425.366 608.5 421.5Z" stroke="#CC0000" stroke-linejoin="round" stroke-miterlimit="10" fill="#CC0000" fill-rule="evenodd"/><path d="M646.5 282.5C646.5 278.634 649.634 275.5 653.5 275.5 657.366 275.5 660.5 278.634 660.5 282.5 660.5 286.366 657.366 289.5 653.5 289.5 649.634 289.5 646.5 286.366 646.5 282.5Z" stroke="#3333CC" stroke-linejoin="round" stroke-miterlimit="10" fill="#3333CC" fill-rule="evenodd"/><path d="M574.5 322.5C574.5 318.634 577.634 315.5 581.5 315.5 585.366 315.5 588.5 318.634 588.5 322.5 588.5 326.366 585.366 329.5 581.5 329.5 577.634 329.5 574.5 326.366 574.5 322.5Z" stroke="#3333CC" stroke-linejoin="round" stroke-miterlimit="10" fill="#3333CC" fill-rule="evenodd"/><text fill="#CC0000" font-family="Arial,Arial_MSFontService,sans-serif" font-style="italic" font-weight="400" font-size="23" transform="translate(487.664 243)">A</text><text fill="#CC0000" font-family="Arial,Arial_MSFontService,sans-serif" font-style="italic" font-weight="400" font-size="23" transform="translate(617.83 444)">A</text><text fill="#CC0000" font-family="Gulim,Gulim_MSFontService,sans-serif" font-style="oblique" font-weight="400" font-size="23" transform="translate(632.997 444)">´</text><text fill="#3333CC" font-family="Arial,Arial_MSFontService,sans-serif" font-style="italic" font-weight="400" font-size="23" transform="translate(624.664 276)">B</text><text fill="#3333CC" font-family="Arial,Arial_MSFontService,sans-serif" font-style="italic" font-weight="400" font-size="23" transform="translate(553.83 308)">B</text><text fill="#3333CC" font-family="Gulim,Gulim_MSFontService,sans-serif" font-style="oblique" font-weight="400" font-size="23" transform="translate(568.997 308)">´</text><path d="M0 0 67 1" stroke="#3333CC" stroke-width="3.33333" stroke-linejoin="round" stroke-miterlimit="10" fill="none" fill-rule="evenodd" transform="matrix(1 0 0 -1 583.5 322.5)"/><path d="M651.5 289.5 651.5 321.5" stroke="#3333CC" stroke-width="3.33333" stroke-linejoin="round" stroke-miterlimit="10" fill="none" fill-rule="evenodd"/><path d="M512.5 257.5 512.5 420.5" stroke="#CC0000" stroke-width="3.33333" stroke-linejoin="round" stroke-miterlimit="10" fill="none" fill-rule="evenodd"/></g></svg>